<svg width="121" height="80" viewBox="0 0 121 80" fill="none" xmlns="http://www.w3.org/2000/svg">
<path fill-rule="evenodd" clip-rule="evenodd" d="M78.5407 31.5277C78.3234 22.0916 70.3462 13.7729 60.041 13.9591C50.4186 14.1143 42.4414 22.2157 42.4724 32.0553C42.5035 41.9881 50.5738 49.9964 60.5066 49.9964C71.2153 49.9343 78.789 41.0259 78.5407 31.5277ZM54.1745 20.85C54.7332 21.4087 55.5091 20.9431 55.8195 20.0429C56.0679 19.3601 57.0611 19.1428 57.5267 19.6394C58.489 20.6948 59.2339 20.5085 59.7616 19.0807L59.8284 19.0722L59.8936 19.0637C60.5867 18.9732 61.2134 18.8914 61.593 19.8257C61.8413 20.4775 62.7725 20.4154 63.3002 19.8567C64.0451 19.0807 64.8211 19.2049 65.1936 20.1671C65.5971 21.2535 66.4352 21.2845 67.4906 20.2602C67.5972 20.3029 67.7055 20.3455 67.8165 20.3889C67.9218 20.4301 68.0295 20.4719 68.1407 20.5151L68.1424 20.5158L68.1649 20.5245L68.1686 20.5259L68.348 20.5955C68.4561 20.6375 68.5676 20.681 68.6834 20.7264C68.8082 20.7754 68.9379 20.8267 69.0736 20.881C68.902 21.2241 68.7462 21.5437 68.5942 21.8555L68.5894 21.8652L68.5857 21.8729L68.5842 21.8759C68.4372 22.1776 68.2935 22.4723 68.1424 22.7744C63.0518 20.6637 57.9923 20.6327 52.7777 22.7744C52.4942 22.2076 52.2108 21.6666 51.9038 21.0806L51.9022 21.0776L51.9007 21.0749L51.8154 20.9121C52.0119 20.8443 52.1936 20.7618 52.3666 20.6832C52.9863 20.4016 53.495 20.1705 54.1745 20.85ZM60.5687 24.0781C59.0802 24.0781 57.5918 24.3629 56.0304 24.6617L56.0288 24.6621L56.0269 24.6624C55.3427 24.7934 54.6444 24.9269 53.9261 25.0403C53.8641 24.9162 53.6778 24.5127 53.4295 24.016C58.1786 22.0295 62.8346 22.0295 67.5837 24.016C67.4906 24.2644 67.4285 24.4196 67.3664 24.5437C67.2422 24.792 67.1181 25.0093 67.087 25.0403C66.4215 24.9309 65.7694 24.8028 65.1259 24.6764C63.5786 24.3723 62.0814 24.0781 60.5687 24.0781ZM63.1139 27.0269C62.2448 27.7408 61.4067 28.4237 60.5066 29.1376C59.6375 28.4237 58.7683 27.7098 57.8992 27.0269C58.1001 26.8785 58.2844 26.7406 58.4547 26.6134C59.4954 25.8354 60.0084 25.4519 60.5187 25.4555C61.0148 25.459 61.5083 25.8283 62.4817 26.5566L62.4865 26.5602C62.6763 26.7022 62.8842 26.8578 63.1139 27.0269ZM53.9949 40.1434C53.9738 40.1568 53.9511 40.1712 53.9261 40.1878C53.281 39.3411 52.6359 38.5075 51.9483 37.6189C51.5771 37.1394 51.1937 36.6438 50.7911 36.1216H54.1434V40.0326C54.098 40.078 54.0525 40.1069 53.9949 40.1434ZM50.8532 34.6006C50.9301 34.4596 50.9911 34.3292 51.0472 34.2094C51.1269 34.039 51.1966 33.8901 51.2877 33.7625L55.8506 28.5478C56.2541 28.0822 56.5955 28.1443 57.0301 28.4858C57.7412 29.0731 58.4832 29.6295 59.2253 30.1858L59.2328 30.1921L59.2339 30.193C58.8239 30.6893 58.4251 31.1744 58.0324 31.6522C57.2954 32.5488 56.5796 33.4195 55.8506 34.2902C55.7264 34.4454 55.4471 34.5385 55.2609 34.5385C54.1497 34.6126 53.0385 34.6081 51.8179 34.6032C51.5042 34.6019 51.1832 34.6006 50.8532 34.6006ZM57.5725 43.4075L57.5706 43.406L57.5702 43.4057L57.5689 43.4046L57.5685 43.4044C57.3642 43.2469 57.2127 43.1301 57.0611 43.0435C56.1299 42.4537 55.7264 41.7087 55.8195 40.5603C55.9061 39.5653 55.8871 38.5552 55.8676 37.5196L55.8675 37.516C55.8591 37.0666 55.8506 36.6125 55.8506 36.1526H57.8682V43.6332C57.7587 43.5511 57.6627 43.4771 57.5761 43.4103L57.5725 43.4075ZM61.624 44.5023C61.624 44.7817 60.9101 45.2783 60.5687 45.2473C60.2272 45.2162 59.6375 44.6886 59.6064 44.3471C59.5402 42.4253 59.5525 40.5035 59.5651 38.537C59.5702 37.7402 59.5754 36.936 59.5754 36.1216H61.6861C61.6861 36.6957 61.6873 37.2661 61.6886 37.8335C61.6935 40.0881 61.6984 42.2952 61.624 44.5023ZM57.7751 34.5385L58.1344 34.1215L58.1368 34.1187L58.1467 34.1072C58.9513 33.1734 59.6666 32.3432 60.4755 31.3725C60.5544 31.4618 60.6328 31.5505 60.7109 31.6387L60.8308 31.7741C60.9219 31.8769 61.0127 31.9791 61.1032 32.0811L61.3932 32.4074C62.0001 33.0902 62.607 33.773 63.2691 34.5385H57.7751ZM65.3178 41.8019C65.2536 42.2935 64.792 42.7263 64.3283 43.161C64.1187 43.3575 63.9087 43.5544 63.7347 43.7574L63.7075 43.739C63.6948 43.7302 63.6817 43.7211 63.6682 43.7117L63.6257 43.6817L63.5822 43.6506L63.5796 43.6487L63.569 43.6412C63.5182 43.6049 63.4679 43.5691 63.4243 43.5401V36.1216H65.4109C65.4005 36.7527 65.4109 37.3873 65.4212 38.0219V38.0227C65.4419 39.2916 65.4626 40.5606 65.3178 41.8019ZM65.1626 34.4144C64.5608 33.6956 63.968 32.9678 63.36 32.2213C62.839 31.5817 62.3068 30.9283 61.7482 30.255C62.4423 29.7046 63.1548 29.1541 63.8857 28.5894L63.8885 28.5872L63.8912 28.5852C64.1065 28.4189 64.3233 28.2514 64.5418 28.0822C66.7766 29.9757 68.639 32.0243 70.191 34.6006H65.5971C65.473 34.6006 65.2557 34.5075 65.1626 34.4144ZM67.3354 40.2188C67.3043 40.2033 67.2656 40.1878 67.2268 40.1723C67.188 40.1568 67.1491 40.1412 67.1181 40.1257V36.1216H70.4393C69.3219 37.6115 68.3286 38.9152 67.3354 40.2188Z" fill="black"/>
<path fill-rule="evenodd" clip-rule="evenodd" d="M94.3034 59.4992C94.8378 59.4493 95.3494 59.4014 95.8609 59.4014C96.6059 59.4325 97.1646 59.7739 97.3509 60.4878C97.444 60.9534 97.5061 61.419 97.5061 61.8846C97.475 63.8712 96.668 64.492 94.6814 63.9333V66.0129H93.6571V59.5566C93.8771 59.539 94.0921 59.519 94.3034 59.4992ZM94.8987 62.971C94.9297 63.0952 95.7368 63.3435 95.892 63.2193C96.1413 62.9926 96.308 62.6666 96.5006 62.2895L96.5015 62.2878C96.5723 62.1491 96.6467 62.0036 96.7301 61.8536C96.6309 61.6751 96.5444 61.4997 96.4614 61.3316C96.2848 60.9736 96.1242 60.6481 95.892 60.3947C95.7678 60.2706 94.9297 60.5189 94.8987 60.643C94.8056 61.419 94.8056 62.195 94.8987 62.971Z" fill="black"/>
<path d="M8.10398 59.7184L8.10432 59.7179C8.14456 59.6636 8.1851 59.6088 8.22273 59.5532C8.23951 59.5283 8.25569 59.5033 8.27104 59.4781L8.28138 59.4607C8.28691 59.4513 8.29233 59.4419 8.29756 59.4325C8.31802 59.4693 8.34114 59.5055 8.36588 59.5414C8.37687 59.5573 8.38812 59.573 8.39964 59.5888L8.41013 59.603C8.42158 59.6185 8.43321 59.6338 8.44496 59.6492C8.46216 59.6716 8.47959 59.694 8.49698 59.7163C8.6316 59.889 8.76316 60.0577 8.76316 60.2395C8.82522 61.6363 8.85629 63.0641 8.76316 64.4609C8.74247 64.8127 8.55624 65.1645 8.37001 65.5163C8.27687 65.6922 8.18374 65.8681 8.11133 66.044H6.90077C6.9027 66.0207 6.90391 65.9972 6.90463 65.9735L6.9052 65.9503C6.90596 65.9105 6.90554 65.8704 6.90513 65.8305C6.90198 65.5215 6.89895 65.2253 7.42843 65.1749C7.58363 65.1438 7.80093 64.5851 7.80093 64.2747C7.81423 63.701 7.8104 63.1329 7.80662 62.5679V62.5312C7.80154 61.7635 7.79654 61.0015 7.83196 60.2395C7.85208 60.0584 7.97659 59.8903 8.10398 59.7184Z" fill="black"/>
<path d="M34.3366 59.7826C34.5436 59.6694 34.7447 59.5594 34.9608 59.4946C36.1093 59.1221 37.1646 59.7739 37.1646 60.8914C37.2058 61.5661 37.1924 62.2408 37.1787 62.9333V62.9447L37.1786 62.9479C37.1716 63.3019 37.1646 63.6606 37.1646 64.0264C36.5128 64.2437 36.1714 64.1505 36.2024 63.4056C36.2069 63.2984 36.212 63.1911 36.2171 63.084C36.2474 62.4468 36.2776 61.8129 36.1714 61.2018C36.1291 60.969 35.8993 60.7652 35.6688 60.5606C35.5611 60.4651 35.4533 60.3694 35.3643 60.2706C35.2589 60.3664 35.1328 60.4593 35.007 60.5519C34.7253 60.7594 34.445 60.9657 34.4021 61.2018C34.3154 61.8301 34.3347 62.4886 34.3541 63.1564V63.1571L34.3542 63.1597L34.3547 63.1749C34.3582 63.2954 34.3617 63.4162 34.3645 63.5371C34.3684 63.7 34.371 63.8632 34.371 64.0264C33.7192 64.2747 33.3778 64.1816 33.4088 63.4366C33.4296 63.0837 33.4226 62.7169 33.4156 62.3548L33.4155 62.3513C33.4121 62.1731 33.4088 61.9962 33.4088 61.8226C33.4088 61.7693 33.4093 61.7153 33.4099 61.6611C33.4163 60.9884 33.4232 60.2729 32.4466 60.3016C31.5134 60.3317 31.5144 61.0624 31.5153 61.7294L31.5154 61.7915V64.0885C31.4119 64.0988 31.3119 64.1091 31.2118 64.1195C31.0118 64.1402 30.8118 64.1609 30.5842 64.1816V59.4325C31.2253 59.4654 31.8404 59.507 32.4477 59.548L32.4483 59.5481C32.9875 59.5845 33.5206 59.6206 34.0606 59.6498V59.9291C34.1546 59.8821 34.2457 59.8323 34.3357 59.7831L34.3366 59.7826Z" fill="black"/>
<path d="M80.341 60.3016H77.6716V57.6011C77.4914 57.6162 77.3403 57.6239 77.1936 57.6314L77.193 57.6315C77.1156 57.6354 77.0394 57.6393 76.9609 57.6442C76.9092 57.6474 76.8565 57.651 76.8016 57.6554C76.7715 57.6577 76.7409 57.6603 76.7094 57.6632C76.7094 58.1691 76.7074 58.673 76.7055 59.1754C76.6997 60.677 76.6939 62.1654 76.7404 63.6539C76.7404 63.806 76.9533 63.9581 77.1662 64.1102C77.2575 64.1754 77.3488 64.2406 77.4233 64.3057C77.4699 64.2747 77.5165 64.2359 77.563 64.197C77.6096 64.1583 77.6561 64.1195 77.7026 64.0885V61.388H80.341V63.1573C80.341 63.6732 80.341 63.9293 80.4679 64.0405C80.593 64.1501 80.8413 64.119 81.3343 64.0574V57.6632H80.341V60.3016Z" fill="black"/>
<path fill-rule="evenodd" clip-rule="evenodd" d="M3.30016 57.9426C3.36222 57.7874 3.64159 57.6011 3.79679 57.6011C4.01409 57.6322 4.32449 57.7874 4.41758 57.9736C5.00488 59.5007 5.55664 61.0279 6.11325 62.5684L6.11439 62.5716L6.11507 62.5735L6.1153 62.574L6.11553 62.5745L6.11576 62.575L6.11746 62.5796L6.12064 62.5885C6.29699 63.0766 6.47382 63.5661 6.65247 64.0574C5.84541 64.3678 5.56608 64.0885 5.31775 63.4677C5.19358 63.1883 4.75901 62.8779 4.47968 62.8779C4.33096 62.873 4.17588 62.8585 4.01928 62.8439C3.19546 62.7671 2.32929 62.6863 2.12063 63.9643C2.09952 64.0698 1.82023 64.1179 1.47774 64.1769C1.31644 64.2047 1.14112 64.2349 0.972168 64.2747C1.7792 62.0398 2.52416 59.9912 3.30016 57.9426ZM3.38636 60.5028C3.23184 60.9715 3.0744 61.4489 2.89662 61.9467C3.61055 61.9467 4.13822 61.9467 4.82112 61.9157C4.66618 61.4819 4.52678 61.0637 4.39125 60.657L4.39113 60.6567L4.39045 60.6548C4.25465 60.2474 4.12272 59.8516 3.98302 59.4635H3.73472C3.6999 59.5641 3.66553 59.6648 3.63151 59.7655L3.60248 59.8516C3.52989 60.0676 3.45842 60.2843 3.38636 60.5028Z" fill="black"/>
<path fill-rule="evenodd" clip-rule="evenodd" d="M58.5821 59.6808C58.4579 59.6187 58.3027 59.5566 58.1475 59.4946C56.968 59.1842 56.161 59.6808 55.9437 60.8603C55.5712 62.7227 56.161 64.1195 57.3715 64.1816C57.8321 64.2008 58.2927 64.1606 58.7606 64.1199C59.0496 64.0947 59.3412 64.0693 59.6375 64.0574V57.5391C58.7186 57.6891 58.7514 58.213 58.7844 58.7411C58.8061 59.0872 58.8279 59.4351 58.5821 59.6808ZM58.4269 62.971C58.1786 63.1883 57.5267 63.2504 57.2163 63.0641C56.5955 62.6917 56.6266 60.8603 57.2163 60.5189C57.5267 60.3637 58.1475 60.4258 58.4269 60.643C58.5977 60.7711 58.651 61.0607 58.7081 61.3705C58.734 61.5111 58.7606 61.6558 58.7994 61.7915C58.7909 61.8281 58.7832 61.866 58.776 61.9047C58.7704 61.9353 58.765 61.9663 58.7598 61.9978L58.7519 62.0467C58.7481 62.0705 58.7444 62.0945 58.7407 62.1185L58.7389 62.1299C58.6873 62.4631 58.6334 62.8104 58.4269 62.971Z" fill="black"/>
<path fill-rule="evenodd" clip-rule="evenodd" d="M105.328 60.2085C106.042 59.2773 106.942 59.2773 107.873 59.5566C108.743 59.805 108.867 60.5189 108.836 61.3259V64.0574C108.58 64.0764 108.336 64.0982 108.099 64.1194L108.098 64.1195C107.558 64.1677 107.056 64.2126 106.539 64.2126C105.607 64.2126 105.018 63.6229 105.049 62.8158C105.08 61.9157 105.639 61.5121 106.477 61.4501C106.766 61.4294 107.056 61.4363 107.345 61.4432H107.346C107.491 61.4466 107.635 61.4501 107.78 61.4501C107.842 60.3947 107.315 60.0533 106.352 60.3326C106.042 60.4258 105.67 60.3326 105.328 60.2085ZM106.166 63.1262C106.57 63.2504 107.035 63.3745 107.377 63.2504C107.575 63.1622 107.695 62.8863 107.815 62.6115C107.839 62.5556 107.863 62.4998 107.888 62.4457C107.914 62.391 107.939 62.3379 107.967 62.2881C107.92 62.2416 107.881 62.1873 107.842 62.1329C107.804 62.0786 107.765 62.0243 107.718 61.9777C107.63 62.0036 107.541 62.0287 107.452 62.0533C107.349 62.0815 107.245 62.1092 107.141 62.137C106.794 62.23 106.443 62.3239 106.104 62.4433C106.042 62.4744 106.073 63.0952 106.166 63.1262Z" fill="black"/>
<path fill-rule="evenodd" clip-rule="evenodd" d="M27.7595 59.5566C26.8283 59.3083 25.9282 59.3083 25.2453 60.2395C25.5867 60.3947 25.9282 60.4568 26.2075 60.3637C27.2008 60.0533 27.6664 60.3326 27.7595 61.4501C27.6043 61.4501 27.4491 61.4466 27.2939 61.4432C26.9835 61.4363 26.6731 61.4294 26.3627 61.4501C25.4315 61.5122 24.9349 62.0398 24.9659 62.8469C25.028 63.747 25.5247 64.2126 26.3938 64.2126C27.0636 64.2126 27.7333 64.1624 28.4708 64.1072L28.7218 64.0885C28.7218 63.9347 28.7209 63.7809 28.7196 63.6271C28.7183 63.4705 28.7166 63.3139 28.7149 63.1573C28.708 62.5365 28.7011 61.9157 28.7218 61.2949C28.7839 60.4878 28.6597 59.805 27.7595 59.5566ZM26.7663 63.3745C26.4559 63.3435 25.9282 62.8158 25.9903 62.6917C26.2533 61.9983 26.7557 62.06 27.2846 62.125C27.4425 62.1443 27.6026 62.164 27.7595 62.164C27.9147 63.0021 27.5733 63.4677 26.7663 63.3745Z" fill="black"/>
<path d="M16.9572 59.4908C17.4922 59.4346 18.0165 59.3796 18.5407 59.4014C19.3788 59.4325 19.9375 59.9291 19.9996 60.7672C20.066 61.5414 20.0535 62.3156 20.0409 63.101C20.0358 63.4177 20.0306 63.7363 20.0306 64.0574C19.3788 64.2437 19.0374 64.1505 19.0684 63.4677C19.0747 63.3178 19.0834 63.1679 19.0922 63.0182C19.1269 62.4242 19.1614 61.8341 19.0374 61.2638C18.9442 60.8914 18.5097 60.3637 18.1682 60.3016C17.5474 60.1774 17.206 60.643 17.206 61.2949V64.0885C17.1061 64.0975 17.0142 64.104 16.9256 64.1093C16.8825 64.1119 16.8401 64.1142 16.7981 64.1165L16.7404 64.1195C16.593 64.1273 16.4456 64.135 16.2748 64.1505V59.5566C16.5047 59.5382 16.7319 59.5144 16.9572 59.4908Z" fill="black"/>
<path d="M14.3503 59.5256C13.6675 59.3083 13.3571 59.4946 13.4191 60.2085C13.4398 60.6419 13.433 61.0616 13.4261 61.4858L13.426 61.4893C13.424 61.615 13.4219 61.7411 13.4206 61.8681L13.4201 61.9277L13.4195 62.0029C13.4192 62.0462 13.4191 62.0895 13.4191 62.133C13.4191 62.7848 13.2639 63.3125 12.519 63.3435C11.7119 63.3745 11.5257 62.7848 11.5257 62.1019V59.4946C11.4326 59.4325 11.3395 59.3704 11.2153 59.3394C11.1796 59.3751 11.1397 59.4108 11.0978 59.4467C11.0656 59.4742 11.0323 59.5018 10.9988 59.5295C10.8104 59.6855 10.6165 59.8461 10.5945 60.0222C10.5324 60.9534 10.5324 61.9157 10.5945 62.8469C10.6566 63.747 11.2463 64.2437 12.1465 64.2437C12.6118 64.2437 13.0916 64.2004 13.6153 64.1532C13.86 64.1312 14.1144 64.1082 14.3814 64.0885V60.2706C14.3814 59.9912 14.3814 59.7739 14.3503 59.5256Z" fill="black"/>
<path fill-rule="evenodd" clip-rule="evenodd" d="M61.593 60.4258C62.0275 59.6187 62.9898 59.2152 63.921 59.4946C64.9142 59.805 65.3798 60.643 65.2246 62.0709H62.369C62.5242 63.2504 63.0829 63.5608 64.1072 63.2193C64.2944 63.1569 64.5235 63.1782 64.7477 63.199L64.8074 63.2045L64.8443 63.2077L64.8862 63.2111C64.9488 63.216 65.0102 63.2193 65.0694 63.2193C64.2003 64.2747 62.9898 64.4299 62.1517 63.8401C61.3136 63.2504 61.0343 61.5432 61.593 60.4258ZM62.1827 61.0155C62.2448 61.1086 62.3069 61.2328 62.369 61.3259H64.2934L64.2938 61.3253C64.3208 61.2848 64.3478 61.2443 64.3748 61.2012C64.4098 61.1455 64.4447 61.0854 64.4797 61.0155C64.3531 60.9279 64.2296 60.8219 64.1081 60.7177C63.8425 60.4899 63.5868 60.2706 63.3312 60.2706C63.058 60.2706 62.7681 60.521 62.4859 60.7648C62.3835 60.8534 62.282 60.9411 62.1827 61.0155Z" fill="black"/>
<path fill-rule="evenodd" clip-rule="evenodd" d="M85.0591 59.4014C83.8175 59.4325 83.1346 60.2706 83.1346 61.8225C83.1346 63.3745 83.8175 64.2126 85.0591 64.2126C86.3317 64.2437 86.9835 63.4056 87.0146 61.8536C87.0146 60.2085 86.3317 59.3704 85.0591 59.4014ZM85.773 62.94C85.742 63.0952 84.9349 63.3435 84.7797 63.2193C84.5111 62.9955 84.3231 62.6586 84.1112 62.2785C84.0292 62.1316 83.9437 61.9783 83.8485 61.8225C83.9471 61.6612 84.0353 61.5025 84.12 61.3502L84.1224 61.3458L84.1233 61.3441C84.3303 60.9711 84.5162 60.6363 84.7797 60.3947C84.9349 60.2706 85.773 60.5189 85.773 60.643C85.8661 61.419 85.8661 62.195 85.773 62.94Z" fill="black"/>
<path fill-rule="evenodd" clip-rule="evenodd" d="M114.05 59.9602C114.733 59.3083 115.571 59.2152 116.378 59.6498C117.278 60.1464 117.465 60.9845 117.341 62.1019H114.516C114.609 63.2814 115.199 63.6229 116.223 63.2814C116.441 63.1944 116.689 63.2141 116.935 63.2337C116.973 63.2367 117.011 63.2397 117.048 63.2423L117.07 63.2438C117.087 63.2449 117.104 63.2459 117.121 63.2468L117.143 63.2478L117.165 63.2488L117.189 63.2496L117.208 63.25C117.221 63.2503 117.234 63.2504 117.247 63.2504C116.161 64.4299 114.764 64.4609 113.988 63.6229C113.243 62.7848 113.243 60.7362 114.05 59.9602ZM114.268 61.0776L114.454 61.357H116.378C116.347 60.5499 115.975 60.1154 115.323 60.2395C115.048 60.303 114.816 60.5399 114.588 60.7727C114.482 60.8812 114.376 60.9888 114.268 61.0776Z" fill="black"/>
<path fill-rule="evenodd" clip-rule="evenodd" d="M41.6964 59.6187C40.9515 59.2462 40.1755 59.3394 39.5236 59.8981C38.6545 60.643 38.5614 62.7227 39.3374 63.6229C40.0824 64.4609 41.5412 64.4609 42.5966 63.5608C42.3985 63.3017 42.2976 63.1698 42.1691 63.1321C42.036 63.093 41.873 63.155 41.5412 63.2814C40.5169 63.6539 39.8961 63.2193 39.9892 62.0709H42.7207C42.8449 60.9224 42.6276 60.0843 41.6964 59.6187ZM41.7585 61.388H39.8651C39.772 60.7051 40.1134 60.2395 40.7032 60.2706C40.9981 60.2916 41.2788 60.5129 41.5548 60.7305L41.5554 60.7309C41.6858 60.8338 41.8153 60.9359 41.9448 61.0155L41.7585 61.388Z" fill="black"/>
<path d="M45.1807 59.5139C45.7086 59.4606 46.1942 59.4117 46.6939 59.4325C47.5009 59.4635 48.1217 59.8981 48.1838 60.7362C48.2148 61.6673 48.2148 62.6296 48.1838 63.5608C48.1838 63.6849 48.0734 63.8091 47.963 63.9333L47.9625 63.9339C47.9209 63.9807 47.8792 64.0277 47.8435 64.0745C47.8364 64.0838 47.8296 64.0931 47.823 64.1024C47.819 64.1081 47.8151 64.1138 47.8113 64.1195C47.7577 64.0659 47.6964 64.0149 47.6356 63.9642C47.4849 63.8388 47.3367 63.7155 47.3147 63.5608C47.2899 63.2631 47.2948 62.9556 47.2998 62.6461C47.3072 62.1808 47.3147 61.7111 47.2215 61.2638C47.1284 60.8914 46.6939 60.3637 46.3214 60.3016C45.6695 60.1774 45.3591 60.7051 45.3591 61.3259C45.3385 61.9249 45.3453 62.5376 45.3522 63.1549L45.3523 63.1616L45.3546 63.3728C45.3555 63.4617 45.3564 63.5508 45.3571 63.6398L45.3579 63.7365L45.3587 63.8922C45.359 63.9576 45.3591 64.023 45.3591 64.0885L45.3409 64.0923C44.7611 64.2144 44.3659 64.2977 44.3659 63.5297V59.5877C44.6521 59.5672 44.9215 59.5401 45.1807 59.5139Z" fill="black"/>
<path d="M70.5635 63.1883V57.6011H69.6944V64.1505C70 64.1505 70.3016 64.1525 70.6003 64.1545C71.4848 64.1603 72.3433 64.1659 73.2019 64.1195C73.3668 64.1195 73.5179 63.9416 73.6736 63.7585C73.7524 63.6658 73.8324 63.5717 73.9158 63.4987C73.8537 63.3745 73.7916 63.2814 73.7296 63.1573C72.6742 63.1883 71.6499 63.1883 70.5635 63.1883Z" fill="black"/>
<path d="M90.4019 61.3312C90.6192 61.3389 90.8323 61.3464 90.9877 61.4501C91.4223 61.6984 92.012 62.1019 92.0431 62.4123C92.0741 62.909 91.7637 63.6229 91.3602 63.9022C90.5221 64.523 89.1563 64.2437 88.0079 63.2814C88.5976 63.2193 88.9701 63.1883 89.3116 63.1883C89.4588 63.1988 89.606 63.22 89.752 63.2411C90.0369 63.2821 90.3173 63.3225 90.5842 63.2814C90.7346 63.2599 90.8702 63.0896 91.0012 62.9251C91.0594 62.852 91.1167 62.78 91.174 62.7227C91.0948 62.6662 91.0197 62.5973 90.9443 62.528C90.8127 62.4072 90.6799 62.2853 90.5221 62.2261C90.3706 62.171 90.1948 62.1648 90.0215 62.1587C89.8042 62.151 89.5911 62.1435 89.4357 62.0398C89.0632 61.7605 88.5355 61.357 88.5045 60.9534C88.4424 60.5499 88.8149 59.8981 89.1874 59.6808C90.0565 59.1842 90.9877 59.3394 91.8568 60.1774C91.7238 60.1907 91.5908 60.2211 91.4577 60.2516C91.2804 60.2921 91.103 60.3326 90.9256 60.3326C90.766 60.3472 90.6064 60.321 90.45 60.2953C90.2718 60.2661 90.0977 60.2375 89.9324 60.2706C89.7461 60.3016 89.4667 60.581 89.4357 60.7672C89.4047 60.9224 89.684 61.2018 89.9013 61.2638C90.0527 61.3189 90.2286 61.3251 90.4019 61.3312Z" fill="black"/>
<path d="M24.1279 59.7429C23.5071 59.5877 23.2278 59.5256 22.9484 59.4635C22.9432 59.3907 22.9379 59.3197 22.9327 59.2498L22.9226 59.1144L22.9113 58.9654L22.9032 58.861L22.9018 58.8427C22.8863 58.641 22.8708 58.4392 22.8553 58.2219H21.9862C21.9542 58.3926 21.9441 58.5668 21.9347 58.731C21.9167 59.0445 21.9008 59.3209 21.7378 59.4635C21.3343 59.867 21.3654 60.0222 21.7378 60.3947C21.8715 60.5284 21.867 60.8465 21.8632 61.1107V61.111C21.8626 61.1533 21.862 61.1942 21.862 61.2328C21.8717 61.4263 21.8663 61.6288 21.8608 61.8328C21.8488 62.2835 21.8366 62.7416 21.9862 63.1262C22.1054 63.4602 22.4814 63.7025 22.8463 63.9378C22.8792 63.959 22.9121 63.9801 22.9446 64.0012C22.9804 64.0245 23.0158 64.0478 23.0507 64.0712C23.0899 64.0975 23.1283 64.1239 23.1657 64.1505C23.2244 64.1897 23.3574 64.13 23.5021 64.065C23.5867 64.027 23.6753 63.9872 23.7554 63.9643C23.709 63.856 23.6548 63.7553 23.6007 63.6547L23.6002 63.6539C23.5459 63.553 23.4916 63.4521 23.445 63.3435C23.3797 63.2238 23.2991 63.1079 23.2193 62.9931C23.0716 62.7805 22.9266 62.5719 22.8863 62.3502C22.8188 61.8999 22.8329 61.4332 22.8457 61.0094V61.009C22.8506 60.8488 22.8553 60.6947 22.8553 60.5499C23.1734 60.3681 23.425 60.2029 23.7441 59.9935C23.8608 59.9169 23.9865 59.8343 24.1279 59.7429Z" fill="black"/>
<path d="M120.443 62.9995C120.519 63.111 120.596 63.2234 120.662 63.3435C120.786 63.5608 120.879 63.8091 120.972 64.0574C119.575 64.1816 119.172 63.8091 119.079 62.6606C119.051 62.4049 119.08 62.133 119.11 61.8584C119.18 61.1999 119.252 60.5261 118.551 60.0222C118.52 59.9912 118.551 59.7429 118.613 59.6498C118.83 59.2462 119.079 58.8117 119.42 58.2219C119.646 58.1982 119.785 58.1835 119.878 58.2422C120.028 58.337 120.057 58.6229 120.134 59.3704C120.413 59.5566 120.662 59.7118 120.91 59.867C120.883 59.8863 120.856 59.9051 120.829 59.9235C120.797 59.9455 120.765 59.9672 120.733 59.9886C120.577 60.0944 120.425 60.197 120.289 60.3326C120.165 60.4568 120.103 60.6741 120.103 60.8603C120.1 60.9133 120.096 60.9662 120.092 61.0191L120.086 61.1086C120.056 61.5225 120.025 61.9364 120.103 62.3502C120.163 62.5917 120.302 62.794 120.443 62.9995Z" fill="black"/>
<path d="M102.959 60.9346V60.9342C102.964 60.7632 102.969 60.5932 102.969 60.4258L103.248 60.5189C103.326 60.3637 103.404 60.2162 103.481 60.0688C103.522 59.9905 103.564 59.9123 103.605 59.8329C103.624 59.7956 103.643 59.758 103.663 59.7201C103.675 59.6958 103.688 59.6713 103.7 59.6466L103.714 59.6187C102.99 59.5961 102.975 59.1445 102.96 58.6849C102.955 58.5141 102.949 58.3423 102.907 58.1909H102.193C102.001 58.696 101.845 59.1266 101.728 59.4538L101.679 59.5881L101.634 59.7118L101.651 59.8042C101.657 59.8431 101.664 59.8814 101.671 59.9194L101.693 60.0369L101.704 60.0965C101.736 60.2687 101.767 60.4328 101.798 60.592L101.798 60.5926C101.863 60.9314 101.924 61.248 101.976 61.5742C102.011 61.8226 102.006 62.0709 102.001 62.3193C101.997 62.5055 101.994 62.6917 102.007 62.8779C102.069 63.6229 102.472 64.0574 103.217 64.1195C103.339 64.1397 103.473 64.0678 103.604 63.998C103.673 63.9607 103.742 63.9239 103.807 63.9022C103.761 63.8091 103.722 63.716 103.683 63.6229C103.644 63.5297 103.605 63.4366 103.559 63.3435C103.497 63.2197 103.421 63.0993 103.346 62.9789L103.345 62.9779C103.193 62.7365 103.042 62.4951 103 62.2261C102.933 61.8039 102.946 61.3658 102.959 60.9346Z" fill="black"/>
<path d="M111.625 62.414C111.612 62.849 111.599 63.266 112.25 63.3745C112.343 63.4056 112.498 63.747 112.436 63.8712C112.343 64.0264 112.095 64.1816 111.94 64.1816C111.195 64.1505 110.636 63.8091 110.636 62.971V57.6943C111.474 57.4459 111.66 57.7563 111.629 58.4082C111.608 59.2566 111.615 60.105 111.622 60.9534C111.626 61.3777 111.629 61.8019 111.629 62.2261C111.629 62.2885 111.627 62.3514 111.625 62.414Z" fill="black"/>
<path d="M51.0604 61.6456V61.6415C51.0654 61.5249 51.0704 61.4087 51.0704 61.2949C51.0704 61.2255 51.0674 61.1549 51.0644 61.0848C51.0458 60.6525 51.028 60.2352 51.7223 60.2085C51.8154 60.2085 51.9706 59.9602 51.9396 59.867C51.9396 59.7429 51.7533 59.6187 51.6292 59.5566C51.5382 59.5021 51.4259 59.4795 51.3173 59.4576C51.2406 59.4422 51.1657 59.4271 51.1015 59.4014C51.0704 58.9669 51.0394 58.5944 50.9773 58.1909H50.3565C50.2131 58.4778 50.0829 58.7182 49.9629 58.9399L49.9626 58.9406C49.823 59.1983 49.6973 59.4306 49.5805 59.6808C49.5184 59.7739 49.5184 60.0222 49.5805 60.0533C50.2085 60.5513 50.1416 61.1701 50.0753 61.7834C50.0466 62.0492 50.018 62.3141 50.0461 62.5675C50.1703 63.8091 50.5428 64.1816 52.0637 64.0264C51.8775 63.716 51.7223 63.4987 51.5671 63.2814C51.526 63.2095 51.4679 63.1341 51.4063 63.0543C51.2818 62.8929 51.143 62.7131 51.1015 62.5054C51.0349 62.2392 51.0477 61.9413 51.0604 61.6456Z" fill="black"/>
<path d="M99.1512 59.4946C99.7099 59.3704 100.082 59.3704 100.082 60.0843C100.051 61.2328 100.051 62.3502 100.082 63.4677C100.113 64.1505 99.772 64.2437 99.1512 64.0574V59.4946Z" fill="black"/>
<path d="M73.8227 59.091C73.876 59.1088 73.9294 59.1368 73.9828 59.1633C74.0225 59.183 74.0623 59.202 74.102 59.2152C74.3227 58.8474 74.5434 58.4602 74.81 57.9925L74.8351 57.9484C74.8983 57.8375 74.9641 57.722 75.0332 57.6011H73.8227V59.091Z" fill="black"/>
<path d="M99.9008 57.9092C99.9594 57.9712 100.019 58.0345 100.082 58.0978C99.834 58.284 99.5857 58.4702 99.3374 58.6875L98.9649 58.315C99.0581 58.1909 99.1589 58.0667 99.2598 57.9426C99.3607 57.8184 99.4616 57.6943 99.5547 57.5701C99.6776 57.6726 99.7871 57.7886 99.9008 57.9092Z" fill="black"/>
</svg>
