<svg width="121" height="80" viewBox="0 0 121 80" fill="none" xmlns="http://www.w3.org/2000/svg">
<path d="M81.2995 47.7833C80.8202 47.7048 80.4589 47.8462 80.3332 48.1525C80.2075 48.4668 80.0582 48.7653 79.9247 49.0717C79.7204 49.5431 79.524 50.0144 79.3119 50.4779C79.1391 50.8471 78.9505 51.2164 78.7541 51.617C78.6598 51.5385 78.6127 51.5228 78.597 51.4913C78.0864 50.3836 77.5679 49.276 77.0651 48.1604C76.9237 47.854 76.5623 47.7126 76.1224 47.7912C75.7688 47.8462 75.7531 48.0818 75.7531 48.3725C75.761 50.2972 75.7531 52.2219 75.761 54.1467C75.761 54.5552 75.8317 54.5945 76.3423 54.6102C76.6566 54.618 76.8608 54.5787 76.8451 54.1702C76.8137 53.1254 76.8215 52.0727 76.8215 51.0278C76.8215 50.91 76.8687 50.7843 76.9001 50.6508C76.9865 50.69 77.0258 50.6979 77.0337 50.7136C77.3872 51.4756 77.7407 52.2298 78.0864 52.9918C78.2199 53.2904 78.4477 53.3689 78.7541 53.3611C79.0134 53.3532 79.2019 53.2746 79.3119 53.0233C79.5711 52.4105 79.8461 51.8056 80.1211 51.2007C80.2153 51.0043 80.3253 50.8079 80.4196 50.6193C80.451 50.6272 80.4824 50.6272 80.5217 50.635C80.5453 50.7607 80.5846 50.8943 80.5846 51.02C80.5846 52.0962 80.5688 53.1647 80.5767 54.2409C80.5767 54.3588 80.6474 54.5473 80.7417 54.5866C81.2602 54.8223 81.6294 54.563 81.6451 53.9974C81.6451 53.9345 81.6373 53.8638 81.6373 53.801C81.6373 51.9941 81.6373 50.1872 81.6451 48.3804C81.653 48.0976 81.6608 47.8462 81.2995 47.7833Z" fill="black"/>
<path d="M63.3486 43.871C63.6392 43.8553 63.9692 43.9417 63.9535 43.4468C63.9378 42.7948 64.0006 42.1349 63.9613 41.4828C63.9299 40.8701 64.0085 40.2416 63.6392 39.676C63.3957 39.2989 62.4687 38.7647 62.0445 38.9061C61.6595 39.0318 61.3139 39.2596 60.9446 39.4324C60.8582 39.4717 60.6775 39.5188 60.654 39.4874C60.4183 39.1575 60.0412 39.1103 59.7034 39.0003C59.5227 38.9375 59.287 38.9532 59.0985 39.0082C58.745 39.1103 58.4229 39.2674 58.0301 39.0789C57.5351 38.8432 57.1423 39.1339 57.1423 39.6681C57.1423 40.273 57.1423 40.8701 57.1423 41.475C57.1423 42.127 57.1581 42.7869 57.1345 43.439C57.1266 43.7689 57.2445 43.9025 57.5666 43.8632C57.6608 43.8553 57.7473 43.8553 57.8415 43.8632C58.1322 43.8789 58.2343 43.7375 58.2265 43.4547C58.2108 42.9205 58.195 42.3784 58.2265 41.8442C58.25 41.3807 58.3286 40.9172 58.4072 40.4616C58.4621 40.1709 59.0671 39.8645 59.3106 39.9745C59.7427 40.1709 60.0883 40.7601 60.0805 41.2393C60.0648 41.9856 60.0726 42.7319 60.0569 43.4782C60.0491 43.9496 60.379 43.8553 60.654 43.871C60.9525 43.8868 61.1567 43.8553 61.1489 43.4625C61.1253 42.5827 61.1332 41.7107 61.141 40.8308C61.141 40.6737 61.196 40.493 61.2824 40.3751C61.5731 40.0138 61.9188 39.9352 62.3587 40.108C62.7594 40.2652 62.8851 40.5794 62.8772 40.98C62.8693 41.8049 62.8929 42.6298 62.8615 43.4547C62.8615 43.8239 63.0343 43.8946 63.3486 43.871Z" fill="black"/>
<path d="M42.6481 49.1817C42.2631 48.2154 41.4461 47.7519 40.4798 47.6419C40.0713 47.5948 39.6078 47.8147 39.1993 47.9876C38.9243 48.0976 38.6415 48.294 38.4687 48.5296C38.0995 49.0246 37.8638 49.5823 37.958 50.2422C37.9973 50.5408 37.9659 50.8472 37.9659 51.1457C37.9659 51.4442 37.9895 51.7506 37.958 52.0491C37.8559 52.9526 38.2252 53.6439 38.9165 54.1781C39.2229 54.4138 39.5685 54.6416 40.0006 54.6102C40.2834 54.5945 40.5898 54.6573 40.8648 54.5944C41.399 54.4688 41.9017 54.2802 42.2631 53.7853C42.5695 53.3689 42.7423 52.9526 42.7266 52.4262C42.7109 51.6563 42.7738 50.8864 42.7738 50.1165C42.7659 49.8023 42.758 49.4645 42.6481 49.1817ZM41.4382 52.8269C41.2418 53.526 40.5034 53.7539 39.8435 53.4475C39.3407 53.2118 39.1836 52.8976 39.1914 52.3791C39.1914 52.0805 39.0186 51.7742 39.0265 51.4756C39.05 50.8393 39.0972 50.1951 39.2307 49.5823C39.2857 49.3309 39.5607 49.0717 39.7963 48.9224C40.3541 48.5768 41.2811 48.9303 41.4618 49.5509C41.6111 50.0773 41.6818 50.635 41.7996 51.2085C41.6739 51.7506 41.5875 52.2926 41.4382 52.8269Z" fill="black"/>
<path d="M35.4363 43.3526C35.3499 43.1012 35.2556 42.8498 35.1613 42.5984C34.9414 42.0406 34.6978 41.4907 34.4857 40.9329C34.2265 40.2494 33.9908 39.5503 33.7551 38.8589C33.6451 38.529 33.5666 38.1912 33.4487 37.8691C33.3544 37.6177 33.268 37.3113 33.0795 37.1699C32.671 36.8792 32.0818 37.217 31.9718 37.7198C31.8932 38.0655 31.7833 38.4111 31.6576 38.7411C31.4454 39.3067 31.1941 39.8488 30.9898 40.4144C30.7777 41.0036 30.6284 41.6085 30.4163 42.1977C30.2356 42.7162 30.0157 43.219 29.7721 43.8161C30.0471 43.8318 30.2278 43.8553 30.4006 43.8553C31.0369 43.8553 31.0998 43.7846 31.2255 43.1404C31.2805 42.8498 31.4454 42.6062 31.799 42.6062C32.4039 42.6062 33.0009 42.5984 33.598 42.6141C33.7001 42.6141 33.8651 42.6612 33.8965 42.7319C34.0222 42.9833 34.1322 43.2504 34.1872 43.5175C34.2343 43.7611 34.3364 43.8632 34.5721 43.8553C34.7292 43.8553 34.8864 43.8553 35.0435 43.8553C35.452 43.8632 35.562 43.7218 35.4363 43.3526ZM33.0245 41.6242C32.9067 41.6242 32.7888 41.6242 32.671 41.6242C32.6317 41.6242 32.5924 41.6242 32.5531 41.6242C31.8775 41.6242 31.7518 41.3807 32.0582 40.7522C32.2389 40.383 32.3332 39.9823 32.4824 39.6053C32.5217 39.5031 32.6317 39.4324 32.7103 39.346C32.7967 39.4324 32.9224 39.5031 32.9538 39.5974C33.1266 40.0452 33.2445 40.5087 33.4252 40.9565C33.5901 41.3728 33.4644 41.6164 33.0245 41.6242Z" fill="black"/>
<path d="M66.4988 47.7912C66.1846 47.799 66.0039 47.9012 66.0274 48.2547C66.0589 48.6868 66.051 49.1188 66.0589 49.5509C66.0589 49.7866 65.9175 49.9516 65.7211 49.8102C65.3361 49.5195 64.9198 49.5981 64.5112 49.6295C64.0792 49.6609 63.6706 49.873 63.4585 50.2737C63.2464 50.6665 63.0579 51.0828 63.1129 51.5699C63.16 51.9941 63.1129 52.4341 63.1207 52.8661C63.1364 53.6046 63.3721 54.2724 64.1106 54.5002C64.5662 54.6416 65.1083 54.5709 65.5875 54.4845C65.7918 54.4452 65.9096 54.3823 66.1296 54.4923C66.3652 54.6102 66.6873 54.6023 66.9544 54.5473C67.033 54.5316 67.0959 54.1938 67.0959 54.0053C67.1116 53.0861 67.1037 52.1748 67.1037 51.2557C67.1037 50.2501 67.1037 49.2367 67.1037 48.2311C67.1194 47.8619 66.9859 47.7833 66.4988 47.7912ZM65.7525 53.3139C65.6818 53.4946 65.3597 53.5732 65.1476 53.691C64.6919 53.6439 64.5191 53.4082 64.3541 53.0625C64.0242 52.3791 64.1263 51.7349 64.3855 51.075C64.5191 50.745 64.8098 50.5643 65.2261 50.6193C65.5797 50.6665 65.8468 50.9493 65.886 51.2792C65.9096 51.5149 65.9882 51.7506 66.0432 51.9863C66.0432 52.002 66.0589 52.0098 66.0589 52.0255C65.9567 52.4498 65.9096 52.9054 65.7525 53.3139Z" fill="black"/>
<path d="M33.6844 47.7912C33.3937 47.7833 33.2052 47.8619 33.213 48.2075C33.2288 48.6239 33.2288 49.0481 33.213 49.4645C33.213 49.5981 33.1423 49.7316 33.1109 49.8573C32.9774 49.818 32.8517 49.7552 32.7181 49.7473C32.2546 49.7237 31.7125 49.5588 31.3355 49.7316C30.6049 50.0694 30.2356 50.7607 30.2278 51.6013C30.2278 51.9548 30.1885 52.3162 30.2356 52.6619C30.3456 53.4003 30.4242 54.2331 31.2648 54.4923C31.7283 54.6337 32.2782 54.5395 32.7731 54.4609C32.9695 54.4295 33.0638 54.3666 33.268 54.4845C33.488 54.6023 33.8179 54.5787 34.0851 54.5395C34.1479 54.5316 34.2029 54.2252 34.2029 54.0602C34.2107 53.1175 34.2108 52.1748 34.2108 51.2321C34.2108 50.2265 34.2029 49.221 34.2186 48.2075C34.2343 47.799 33.9751 47.799 33.6844 47.7912ZM32.7338 53.4239C32.5374 53.5889 32.1368 53.6203 31.8775 53.5496C31.7047 53.5025 31.5947 53.1725 31.4847 52.9526C31.4219 52.8269 31.3983 52.6854 31.3826 52.544C31.359 52.3319 31.3433 52.112 31.359 51.8999C31.3747 51.7113 31.4533 51.5228 31.469 51.3342C31.5004 50.9414 31.7597 50.6665 32.1446 50.6193C32.5924 50.5643 32.8595 50.745 32.9774 51.1771C33.0559 51.4678 33.1266 51.7584 33.2052 52.057C33.1895 52.5755 33.1188 53.0861 32.7338 53.4239Z" fill="black"/>
<path d="M117.712 52.709C117.712 52.2769 117.712 51.8449 117.712 51.4128C117.712 50.8943 117.484 50.4858 117.138 50.1008C116.526 49.4252 114.978 49.4566 114.302 49.928C114.122 50.0537 113.839 50.203 114.02 50.5251C114.216 50.8707 114.609 51.0514 114.829 50.8393C115.182 50.5015 115.591 50.6193 115.976 50.6272C116.282 50.635 116.494 50.9807 116.479 51.3107C116.463 51.6877 116.188 51.6013 115.96 51.617C115.74 51.6249 115.512 51.6327 115.292 51.617C114.844 51.5856 114.507 51.8291 114.161 52.0491C113.65 52.3712 113.705 52.8818 113.713 53.3768C113.721 53.8324 114.255 54.5709 114.703 54.5866C115.222 54.6023 115.771 54.7673 116.266 54.4609C116.321 54.4295 116.416 54.453 116.486 54.4688C116.738 54.5159 116.981 54.5787 117.233 54.6102C117.57 54.6494 117.696 54.4609 117.696 54.1388C117.704 53.6517 117.712 53.1804 117.712 52.709ZM115.819 53.6046C115.74 53.6046 115.661 53.6046 115.583 53.6046C115.528 53.6046 115.481 53.6046 115.426 53.6046C115.088 53.636 114.789 53.5103 114.734 53.1725C114.679 52.819 114.978 52.6619 115.277 52.5598C115.442 52.5048 115.599 52.4419 115.764 52.4183C116.274 52.3476 116.455 52.4498 116.471 52.8269C116.51 53.3218 116.274 53.5889 115.819 53.6046Z" fill="black"/>
<path d="M59.8841 52.6776C59.8841 52.2848 59.8841 51.892 59.8841 51.4992C59.8762 50.3679 59.1063 49.6138 57.9751 49.6059C57.7787 49.6059 57.5666 49.5509 57.3937 49.6138C57.0009 49.7552 56.6317 49.9359 56.2625 50.1323C56.1996 50.1637 56.1289 50.3522 56.1603 50.3994C56.3253 50.6115 56.4981 50.8314 56.7181 50.9807C56.7731 51.02 57.0009 50.8707 57.1188 50.7686C57.4723 50.4779 58.3286 50.5329 58.5643 50.9021C58.6507 51.0435 58.6507 51.2792 58.6114 51.4521C58.5957 51.5228 58.3836 51.5778 58.25 51.5935C57.9908 51.617 57.7237 51.6013 57.4644 51.6013C56.5374 51.6013 55.9011 52.2298 55.9011 53.1332C55.9011 53.9738 56.5217 54.6102 57.3544 54.5866C57.7315 54.5787 58.1086 54.4766 58.4857 54.4216C58.5486 54.4138 58.6114 54.4295 58.6743 54.4452C58.9335 54.4923 59.2006 54.5552 59.4598 54.5866C59.7505 54.618 59.8919 54.4609 59.8841 54.1624C59.8762 53.6753 59.8841 53.1804 59.8841 52.6776ZM57.9908 53.6125C57.9122 53.6125 57.8337 53.6125 57.7551 53.6125C57.7472 53.636 57.7394 53.6517 57.7315 53.6753C57.5351 53.6046 57.2995 53.581 57.1423 53.4553C56.7888 53.1725 56.8202 52.874 57.2209 52.6619C57.4487 52.544 57.708 52.4655 57.9594 52.4341C58.5171 52.3555 58.6271 52.4419 58.6428 52.8426C58.6743 53.3453 58.4543 53.5967 57.9908 53.6125Z" fill="black"/>
<path d="M55.9011 41.962C55.9011 41.585 55.909 41.2 55.8932 40.8229C55.8775 40.5558 55.8697 40.273 55.7754 40.0295C55.5476 39.4403 55.0605 39.1889 54.4556 39.0161C53.6543 38.7882 53.0179 39.0239 52.4052 39.4717C52.2638 39.5738 52.0517 39.7388 52.2795 39.9038C52.4916 40.053 52.5702 40.5165 53.0179 40.2416C53.4579 39.9666 53.945 39.6602 54.432 40.1316C54.6049 40.3044 54.6834 40.5794 54.8013 40.8072C54.6127 40.8936 54.432 41.0193 54.2356 41.0508C53.89 41.1057 53.5364 41.09 53.1829 41.1136C52.3502 41.1529 51.8003 41.8992 51.9181 42.6926C51.9967 43.219 52.3738 43.9025 53.0258 43.9025C53.9057 43.9025 54.7855 43.8946 55.6654 43.871C55.7518 43.871 55.8854 43.6668 55.8932 43.549C55.9168 43.0069 55.9011 42.4805 55.9011 41.962ZM54.2356 42.9676C53.9135 43.1247 53.5914 43.1562 53.3322 42.889C53.1908 42.7398 53.0415 42.5041 53.0572 42.3156C53.0808 42.0406 53.2615 41.8128 53.6229 41.8678C53.7486 41.8913 53.8821 41.8678 54.0157 41.8678C54.0392 41.8678 54.0707 41.8599 54.0942 41.8678C54.3456 41.9149 54.6756 41.7342 54.8248 42.0642C54.9112 42.2684 54.4949 42.8419 54.2356 42.9676Z" fill="black"/>
<path d="M71.1024 49.7866C70.5368 49.5195 69.979 49.5038 69.4212 49.7787C68.4864 50.2344 68.18 51.0907 68.1328 52.0413C68.1171 52.4262 68.2821 52.819 68.3449 53.2118C68.4628 53.911 69.0441 54.5316 69.7355 54.5787C70.3875 54.6259 71.071 54.7123 71.6602 54.3195C71.833 54.2017 72.108 53.9581 72.0765 53.8717C71.9823 53.6203 71.7702 53.4003 71.558 53.2275C71.5031 53.1882 71.2595 53.3375 71.126 53.4396C70.8353 53.6832 69.9319 53.6832 69.6726 53.4082C69.5391 53.2589 69.4055 53.0782 69.3584 52.8897C69.2798 52.5519 69.4369 52.4183 69.7826 52.4262C70.1204 52.4341 70.4582 52.4262 70.8039 52.4262C70.8039 52.4341 70.8039 52.4341 70.8039 52.4419C71.1731 52.4419 71.5345 52.4419 71.9037 52.4419C72.2022 52.4419 72.3751 52.3162 72.3436 51.9863C72.2651 51.0671 72.0451 50.2344 71.1024 49.7866ZM70.7175 51.6092C70.5446 51.617 70.3796 51.6092 70.2068 51.6092C70.034 51.6092 69.869 51.6092 69.6962 51.6092C69.3898 51.617 69.2877 51.4521 69.3741 51.185C69.4762 50.855 69.6962 50.6272 70.0733 50.6036C70.631 50.5722 70.9688 50.7293 71.0788 51.075C71.1967 51.4363 71.0867 51.6013 70.7175 51.6092Z" fill="black"/>
<path d="M103.98 49.9359C103.39 49.5038 102.738 49.4488 102.071 49.7945C101.481 50.1008 101.12 50.5565 100.908 51.2164C100.633 52.057 100.759 52.819 101.112 53.581C101.23 53.8324 101.379 54.1309 101.599 54.2566C102.401 54.7201 103.249 54.783 104.113 54.3745C104.954 53.9817 104.985 53.8324 104.192 53.1961C104.184 53.1882 104.168 53.1882 104.066 53.149C103.744 53.691 103.202 53.6203 102.683 53.5889C102.283 53.5653 101.969 53.1725 102 52.7797C102.039 52.3005 102.401 52.4262 102.683 52.4262C103.312 52.4183 103.933 52.4341 104.561 52.4341C104.86 52.4341 105.009 52.2926 104.993 51.9706C104.97 51.1378 104.663 50.4308 103.98 49.9359ZM103.728 51.4206C103.713 51.4992 103.5 51.5778 103.367 51.6013C103.202 51.6327 103.029 51.6092 102.864 51.6092C102.77 51.6092 102.683 51.617 102.589 51.6092C102.369 51.5778 102.055 51.7427 102.008 51.3421C101.969 51.0514 102.196 50.7057 102.503 50.635C102.919 50.5408 103.32 50.5879 103.61 50.9257C103.72 51.0436 103.76 51.2635 103.728 51.4206Z" fill="black"/>
<path d="M48.4222 49.598C47.4088 49.653 46.4896 50.3679 46.4504 51.3656C46.4268 52.0727 46.3011 52.7954 46.6389 53.5103C46.9139 54.0995 47.3616 54.4609 47.888 54.5552C48.6972 54.6966 49.5692 54.7359 50.2291 54.0524C50.3155 53.966 50.3941 53.7617 50.3469 53.6674C50.1741 53.2982 49.7813 53.2197 49.4121 53.3925C48.5793 53.7853 47.7466 53.7303 47.5502 52.7954C47.4952 52.5205 47.5345 52.4262 47.8016 52.4262C48.1944 52.4262 48.5872 52.4262 48.9721 52.4262C49.3492 52.4262 49.7341 52.4498 50.1112 52.4105C50.2526 52.3948 50.4726 52.2219 50.4805 52.1198C50.4962 51.7349 50.504 51.3107 50.3783 50.9571C50.127 50.2658 49.4199 49.5431 48.4222 49.598ZM49.1764 51.6092C48.9328 51.6249 48.6815 51.6092 48.4301 51.6092C48.3358 51.6092 48.2415 51.6249 48.1551 51.6092C47.9351 51.562 47.6209 51.562 47.5266 51.4206C47.4088 51.2399 47.888 50.6665 48.1472 50.6193C48.6343 50.5172 49.1764 50.7764 49.3806 51.2164C49.4828 51.4206 49.4278 51.5935 49.1764 51.6092Z" fill="black"/>
<path d="M68.8556 42.9833C68.5806 42.6141 68.4157 42.5827 68.1171 42.7241C67.7086 42.9126 67.3315 43.1326 66.8052 42.9362C66.4517 42.8105 66.381 42.5512 66.2081 42.3391C66.0117 42.0877 66.1217 41.8913 66.4438 41.8835C66.8366 41.8756 67.2294 41.8835 67.6222 41.8835C67.8579 41.8835 68.0936 41.8835 68.3292 41.8835C69.2484 41.8835 69.1148 41.9306 69.1227 41.0743C69.1227 39.9823 68.2271 38.9846 67.1508 38.8982C67.0409 38.8904 66.923 38.9296 66.813 38.9689C66.6402 39.0239 66.4752 39.0946 66.3024 39.1417C65.8232 39.2753 65.124 40.0923 65.1319 40.5872C65.1397 41.145 65.124 41.7028 65.1319 42.2606C65.1397 42.8812 65.6661 43.7218 66.2474 43.8475C67.088 44.0282 67.9522 44.1146 68.7142 43.549C68.9106 43.384 69.0441 43.2347 68.8556 42.9833ZM66.2238 40.5008C66.436 40.1316 66.7502 39.8881 67.1901 39.8959C67.5044 39.9038 67.96 40.3987 68.0229 40.7758C68.0386 40.8543 67.9129 41.0193 67.8343 41.0272C67.5829 41.0743 67.3158 41.0665 67.0566 41.0743C67.0566 41.0665 67.0566 41.0586 67.0566 41.0507C66.8759 41.0507 66.6952 41.0586 66.5067 41.0507C66.1453 41.035 66.0432 40.8229 66.2238 40.5008Z" fill="black"/>
<path d="M86.6337 50.5879C86.1859 49.8416 85.471 49.4724 84.5833 49.6216C84.0569 49.708 83.5541 49.8887 83.3027 50.4386C83.2006 50.6665 83.1378 50.9179 83.0199 51.1457C82.58 52.002 82.8471 52.8269 83.1613 53.6203C83.4599 54.3745 84.104 54.673 84.9132 54.6102C84.9289 54.6416 84.9368 54.6809 84.9525 54.7123C85.3296 54.5866 85.7695 54.5316 86.0759 54.3038C86.3901 54.076 86.6808 53.6989 86.7908 53.3375C86.9322 52.874 86.9165 52.3555 86.8929 51.8606C86.8694 51.4206 86.8379 50.9336 86.6337 50.5879ZM85.8166 51.7977C85.7774 52.0805 85.8088 52.3712 85.8088 52.6619C85.8088 53.1725 85.3453 53.6125 84.8346 53.6046C84.4104 53.5967 84.0962 53.3061 84.0726 52.874C84.0569 52.6147 84.0726 52.3476 84.0726 52.0884C84.0883 51.617 83.9626 51.1143 84.4654 50.7764C84.7797 50.5643 85.086 50.5486 85.3767 50.7843C85.7067 51.0514 85.8795 51.3578 85.8166 51.7977Z" fill="black"/>
<path d="M46.686 43.0854C46.686 43.9025 46.5446 43.871 47.4952 43.8789C47.8173 43.8789 47.9351 43.7689 47.9273 43.4468C47.9037 42.567 47.9037 41.6949 47.9194 40.8151C47.9273 40.3201 47.7152 39.9273 47.4638 39.5345C47.1652 39.0789 46.6153 39.1417 46.2147 38.8982C46.1675 38.8746 46.0811 38.8904 46.0261 38.9139C45.704 39.0396 45.3898 39.181 44.9734 39.3539C44.9577 39.3224 44.9341 39.2203 44.887 39.2125C44.6199 39.1496 44.3449 39.0868 44.0778 39.0946C44.0229 39.0946 43.9443 39.4246 43.9443 39.6053C43.9286 40.9015 43.9443 42.1977 43.9286 43.494C43.9207 43.9025 44.1643 43.8789 44.4392 43.8868C44.722 43.8868 44.9656 43.8946 44.942 43.4861C44.9184 43.0147 44.9184 42.5434 44.9342 42.072C44.9499 41.5378 44.8085 40.9722 45.1698 40.4773C45.2955 40.2966 45.8062 39.9273 46.0026 39.9588C46.3011 40.0059 46.6782 40.4223 46.6782 40.7365C46.686 41.5143 46.686 42.2998 46.686 43.0854Z" fill="black"/>
<path d="M92.0464 51.617C92.0543 50.8157 91.8579 50.1323 91.0566 49.7552C90.5774 49.5273 90.0903 49.5352 89.6346 49.7316C89.3832 49.8416 89.2418 49.8494 88.9983 49.7237C88.7941 49.6216 88.4798 49.6216 88.2598 49.7002C88.142 49.7395 88.0713 50.0458 88.0634 50.2344C88.0399 50.8786 88.0556 51.5149 88.0556 52.1591C88.0556 52.8426 88.0713 53.5182 88.0477 54.2017C88.032 54.6023 88.252 54.618 88.5427 54.6102C88.8333 54.6023 89.1397 54.6494 89.1319 54.2017C89.1162 53.691 89.1083 53.1804 89.124 52.6697C89.1397 52.1434 88.9983 51.5856 89.3047 51.1064C89.4382 50.9021 89.6739 50.7136 89.9017 50.635C90.2317 50.5251 90.5852 50.6586 90.7345 50.9807C90.8759 51.2792 90.9544 51.6249 90.9623 51.9548C90.9937 52.6854 90.9937 53.4239 90.9623 54.1545C90.9466 54.5473 91.1273 54.6259 91.4572 54.618C91.7636 54.6102 92.0621 54.673 92.0464 54.1859C92.0229 53.3139 92.0386 52.4655 92.0464 51.617Z" fill="black"/>
<path d="M74.0955 40.2966C74.0798 39.5503 73.1135 38.7568 72.3908 38.8982C72.3044 38.9139 72.2258 38.9689 72.1394 39.0003C72.0294 39.0396 71.9194 39.1182 71.8094 39.1182C71.4716 39.1103 71.126 39.0789 70.7882 39.0553C70.3875 39.0318 70.2697 39.1496 70.2697 39.5424C70.2775 40.1787 70.2697 40.8229 70.2697 41.4593C70.2697 42.1035 70.2697 42.7398 70.2697 43.384C70.2697 43.8239 70.3168 43.871 70.8117 43.871C71.3381 43.871 71.3538 43.8632 71.3538 43.3997C71.3538 42.5512 71.3459 41.6949 71.3538 40.8465C71.3538 40.6972 71.3852 40.5244 71.4638 40.4066C71.6759 40.0923 72.1158 39.9431 72.4143 40.0373C72.9171 40.2023 73.0978 40.438 73.0978 40.9486C73.0978 41.7735 73.1135 42.5984 73.09 43.4233C73.0742 43.8239 73.2628 43.8868 73.5849 43.871C73.8913 43.8553 74.1977 43.9103 74.1741 43.4233C74.127 42.3863 74.1191 41.3414 74.0955 40.2966Z" fill="black"/>
<path d="M53.7878 51.6092C53.5286 51.6013 53.2458 51.6642 53.0101 51.5856C52.7823 51.5071 52.5466 51.3107 52.4209 51.0985C52.3266 50.9414 52.7273 50.6115 53.0179 50.6193C53.4107 50.6272 53.8193 50.5329 54.1885 50.8079C54.4163 50.9728 54.7463 50.7764 54.8955 50.4386C55.0134 50.1872 54.872 50.0066 54.6756 49.9359C54.2828 49.7945 53.9214 49.5745 53.45 49.6059C52.9708 49.6373 52.5073 49.653 52.0674 49.8809C51.3918 50.2265 51.1797 51.4521 51.596 51.9313C52.1067 52.5126 52.7587 52.654 53.4893 52.6226C53.8271 52.6069 54.1414 52.8583 54.1571 53.1018C54.1728 53.3453 53.8271 53.6282 53.4815 53.6203C53.0337 53.6125 52.5623 53.7224 52.1695 53.4003C52.1067 53.3453 51.9967 53.3375 51.9103 53.3218C51.5332 53.2589 51.3839 53.5653 51.2268 53.801C51.1875 53.8638 51.3525 54.1545 51.486 54.2331C51.981 54.5395 52.5152 54.7359 53.1201 54.5944C53.1279 54.6337 53.1279 54.673 53.1358 54.7123C53.5522 54.6102 53.9842 54.5237 54.3927 54.398C55.304 54.1074 55.3512 52.874 54.9741 52.2534C54.7148 51.8056 54.2906 51.617 53.7878 51.6092Z" fill="black"/>
<path d="M39.0972 43.5332C39.6706 44.036 40.3934 44.0282 41.0847 43.8239C41.2733 43.7689 41.3675 43.7296 41.5639 43.8239C42.1217 44.1067 42.5224 43.8396 42.5145 43.2347C42.5145 42.6691 42.5145 42.1113 42.5145 41.5457H42.5224C42.5224 40.8622 42.5302 40.1866 42.5224 39.5031C42.5145 39.1025 42.4124 39.0553 41.886 39.0475C41.5325 39.0396 41.4382 39.2046 41.4461 39.5345C41.4618 40.438 41.4618 41.3414 41.454 42.2449C41.454 42.6848 40.9119 43.0933 40.4955 42.9833C39.9613 42.8498 39.7099 42.512 39.7099 41.9463C39.7099 41.1372 39.7099 40.328 39.7099 39.511C39.7099 39.0396 39.7021 39.0396 39.0657 39.0318C38.7122 39.0318 38.7122 39.2596 38.7122 39.5031C38.7122 40.5637 38.6887 41.6242 38.7279 42.6769C38.7279 42.9833 38.8772 43.3447 39.0972 43.5332Z" fill="black"/>
<path d="M98.4962 51.6013C98.2919 51.617 98.0484 51.6642 97.8756 51.5856C97.6477 51.4835 97.4042 51.3107 97.2942 51.0985C97.1921 50.9179 97.6085 50.6115 97.9227 50.6115C98.2919 50.6115 98.669 50.5565 99.0147 50.8079C99.2346 50.965 99.6353 50.7607 99.7217 50.4386C99.761 50.2972 99.6353 49.9987 99.5096 49.9359C99.1325 49.763 98.7554 49.5509 98.2998 49.5981C97.8677 49.6452 97.4513 49.6452 97.0271 49.8337C96.2258 50.1872 96.0687 51.3578 96.4851 51.9234C96.8386 52.4026 97.3492 52.599 97.9306 52.599C98.1112 52.599 98.3234 52.544 98.4726 52.6147C98.6769 52.709 98.9204 52.8583 98.999 53.0468C99.0461 53.1568 98.8026 53.526 98.669 53.5339C98.2055 53.5732 97.6792 53.636 97.2628 53.4632C96.6265 53.1961 96.6029 53.1332 96.1708 53.636C95.998 53.8403 95.998 53.9738 96.2415 54.1388C96.76 54.4766 97.2942 54.7044 97.9306 54.5709C97.9384 54.6102 97.9463 54.6573 97.9463 54.6966C98.3862 54.5787 98.834 54.4845 99.2661 54.3509C99.9338 54.1388 100.35 52.9447 99.9338 52.3948C99.5882 51.9313 99.1482 51.5542 98.4962 51.6013Z" fill="black"/>
<path d="M50.7633 42.8733C50.5512 42.8655 50.4098 42.8105 50.4098 42.567C50.4098 41.8206 50.4098 41.0743 50.4098 40.328C50.4098 40.0845 50.5197 39.9273 50.7947 39.9431C51.1168 39.9666 51.2425 39.8017 51.2425 39.4953C51.2425 39.1575 51.0304 39.1103 50.7711 39.1339C50.4962 39.1496 50.3941 39.0239 50.4098 38.7568C50.4255 38.5054 50.4333 38.254 50.4019 38.0105C50.3862 37.8926 50.3076 37.7198 50.2055 37.6727C49.6085 37.4056 49.1764 37.6884 49.1764 38.3247C49.1764 38.4583 49.1685 38.584 49.1842 38.7175C49.1999 38.9375 49.1607 39.0868 48.9093 39.1653C48.7993 39.1967 48.705 39.3931 48.6893 39.5188C48.6736 39.6288 48.76 39.8409 48.8464 39.8645C49.1607 39.9588 49.1842 40.1866 49.1842 40.4458C49.1842 40.7758 49.1842 41.0979 49.1842 41.4278C49.1842 41.7185 49.1607 42.0092 49.1842 42.292C49.2549 43.1483 49.6556 44.0439 50.7476 43.8789C51.0382 43.8318 51.2504 43.8239 51.2504 43.4547C51.2425 43.0226 51.1718 42.8969 50.7633 42.8733Z" fill="black"/>
<path d="M120.956 54.2017C120.933 53.9424 121.082 53.5653 120.587 53.6046C120.257 53.6282 120.194 53.4553 120.194 53.1725C120.202 52.4655 120.21 51.7584 120.194 51.0514C120.187 50.7372 120.273 50.5722 120.611 50.6036C120.823 50.6272 120.972 50.5486 120.964 50.3051C120.956 50.0851 120.996 49.8102 120.674 49.8102C120.242 49.8102 120.179 49.5745 120.194 49.2288C120.21 49.0324 120.226 48.8282 120.187 48.6396C120.163 48.5375 120.029 48.3961 119.935 48.3804C119.063 48.2311 118.953 48.3332 118.969 49.1974C118.977 49.4881 118.945 49.7237 118.623 49.8652C118.521 49.9123 118.466 50.1715 118.466 50.3287C118.466 50.4229 118.631 50.5093 118.71 50.6036C118.796 50.7057 118.937 50.8157 118.953 50.9257C118.985 51.3028 118.961 51.6799 118.961 52.0648C118.961 52.3948 118.953 52.7169 118.961 53.0468C118.977 53.8481 119.566 54.7201 120.571 54.6023C120.87 54.5787 120.988 54.4845 120.956 54.2017Z" fill="black"/>
<path d="M45.6726 53.6203C45.1698 53.6439 45.1698 53.3689 45.1698 53.0075C45.1777 51.4363 45.1698 49.8652 45.1855 48.294C45.1855 47.9562 45.0598 47.8069 44.7378 47.799C44.6435 47.799 44.5571 47.7833 44.4628 47.7833C44.015 47.7833 43.9364 47.8697 43.9364 48.3018C43.9364 49.1424 43.9364 49.9751 43.9364 50.8157C43.9364 51.5778 43.9364 52.3319 43.9364 53.094C43.9364 54.0917 44.6906 54.7359 45.6726 54.5866C45.9633 54.5395 45.9476 54.3431 45.924 54.1467C45.9083 53.9503 46.0497 53.6046 45.6726 53.6203Z" fill="black"/>
<path d="M75.5882 42.7084C75.5882 43.109 75.7846 43.4233 76.0674 43.6904C76.3973 44.0125 76.8137 43.8318 77.1908 43.871C77.4265 43.8946 77.615 43.8396 77.5914 43.5411C77.5679 43.2661 77.6621 42.9362 77.2301 42.8812C76.798 42.8262 76.6566 42.6455 76.6566 42.2134C76.6644 41.7028 76.6644 41.1922 76.6723 40.6815C76.6801 40.0923 76.6959 40.0609 77.285 39.9431C77.5836 39.8802 77.5993 39.6838 77.5993 39.4403C77.5993 39.1967 77.4736 39.1339 77.2536 39.126C76.6801 39.1025 76.6487 39.0553 76.6566 38.474C76.6566 38.3562 76.6723 38.2383 76.6723 38.1205C76.6801 37.6884 76.6094 37.6334 76.1224 37.6334C75.6117 37.6334 75.5882 37.6491 75.5882 38.1126C75.5882 38.3326 75.6196 38.5604 75.5803 38.7804C75.5567 38.9139 75.4153 39.0161 75.3289 39.1339C75.2504 39.236 75.1089 39.3303 75.1011 39.4324C75.0932 39.5817 75.1482 39.8566 75.2268 39.8724C75.6353 39.9666 75.5882 40.2573 75.5882 40.548C75.5882 40.8858 75.5882 41.2314 75.5882 41.5692C75.5882 41.9463 75.5882 42.3313 75.5882 42.7084Z" fill="black"/>
<path d="M111.757 49.6923C111.474 49.8887 111.262 49.8573 110.979 49.7002C110.516 49.4409 109.942 49.6923 109.989 50.2894C110.044 50.9021 109.997 51.5149 109.997 52.1277C109.997 52.7797 109.989 53.4318 109.997 54.0838C110.005 54.5159 110.131 54.6023 110.681 54.5944C111.152 54.5866 111.231 54.5316 111.231 54.0995C111.239 53.2118 111.254 52.3241 111.231 51.4363C111.223 51.0357 111.459 50.8 111.749 50.69C111.961 50.6115 112.252 50.7372 112.503 50.7686C112.645 50.7843 112.849 50.8472 112.92 50.7764C113.132 50.58 113.289 50.3287 113.462 50.1008C113.478 50.0851 113.43 50.0066 113.399 49.9673C113.124 49.6609 112.095 49.4566 111.757 49.6923Z" fill="black"/>
<path d="M94.8981 50.6115C95.1338 50.6193 95.3774 50.6429 95.3774 50.2658C95.3774 49.9123 95.2203 49.763 94.8746 49.7787C94.6389 49.7944 94.5446 49.653 94.5368 49.4409C94.5289 49.2838 94.5289 49.1267 94.5368 48.9696C94.5446 48.3568 94.5446 48.3725 93.9476 48.3568C93.6019 48.3489 93.4134 48.4118 93.4762 48.836C93.5391 49.2681 93.5155 49.7002 92.9656 49.8809C92.8713 49.9123 92.8163 50.1872 92.8163 50.3444C92.8163 50.4308 92.9813 50.58 93.0834 50.5958C93.3662 50.6272 93.4684 50.7764 93.4684 51.0357C93.4684 51.4285 93.4684 51.8213 93.4684 52.2141H93.4762C93.4762 52.5283 93.4526 52.8426 93.4841 53.1568C93.5233 53.5653 93.4527 54.021 93.869 54.2959C94.199 54.508 94.5446 54.6573 94.9689 54.618C95.2831 54.5866 95.3774 54.4373 95.3774 54.1702C95.3774 53.9031 95.4009 53.6203 95.0081 53.6203C94.6703 53.6203 94.5525 53.4318 94.5525 53.1175C94.5525 52.4105 94.5603 51.7035 94.5446 50.9964C94.5289 50.7215 94.6232 50.5958 94.8981 50.6115Z" fill="black"/>
<path d="M107.554 49.7473C107.334 49.8887 107.185 49.8573 106.957 49.7316C106.761 49.6216 106.446 49.6138 106.226 49.6845C106.109 49.7237 106.022 50.0223 106.014 50.203C105.991 50.855 106.007 51.5071 106.007 52.167C106.007 52.8504 105.999 53.526 106.014 54.2095C106.014 54.3352 106.077 54.5237 106.164 54.5709C106.651 54.8301 107.051 54.5473 107.083 53.9895C107.138 53.0547 106.926 52.112 107.24 51.1928C107.421 50.6743 107.947 50.4465 108.418 50.7529C108.67 50.9179 108.866 50.9257 109.055 50.6665C109.11 50.58 109.188 50.5015 109.267 50.4386C109.447 50.2815 109.416 50.1323 109.267 49.9751C108.882 49.5823 108.002 49.4566 107.554 49.7473Z" fill="black"/>
<path d="M36.9132 39.0396C36.2847 39.0239 36.2062 39.0789 36.2062 39.5345C36.2062 41.0272 36.2062 42.5198 36.2062 44.0125C36.2062 44.2481 36.2612 44.5388 36.1512 44.6959C36.049 44.8373 35.7427 44.8295 35.5227 44.8688C35.1692 44.9395 35.2242 45.2144 35.2163 45.458C35.2085 45.6543 35.2242 45.8429 35.4834 45.8507C35.8134 45.8586 36.1355 45.8743 36.4654 45.8429C36.7482 45.8193 37.2039 45.3165 37.2117 45.0259C37.2274 44.0203 37.2196 43.0147 37.2196 42.0092C37.2432 42.0092 37.2667 42.0092 37.2903 42.0092C37.2903 41.2 37.2746 40.383 37.2981 39.5738C37.2981 39.2753 37.2903 39.0475 36.9132 39.0396Z" fill="black"/>
<path d="M35.9076 47.8147C35.5934 47.7912 35.4206 47.9562 35.4677 48.3018C35.4834 48.4432 35.4677 48.5925 35.4677 48.7339C35.4677 48.9067 35.452 49.0796 35.4756 49.2445C35.4913 49.3624 35.5463 49.5745 35.5934 49.5745C35.727 49.5823 35.8841 49.5273 36.0019 49.4566C36.1512 49.3624 36.2769 49.221 36.4183 49.0953C36.6854 48.8596 36.8896 48.2547 36.6775 48.0111C36.5204 47.8383 36.1669 47.8305 35.9076 47.8147Z" fill="black"/>
<path d="M36.8111 37.1306C36.5754 37.1778 36.1747 36.9656 36.1983 37.5313C36.2297 38.1833 36.2219 38.2069 36.7954 38.2069C37.361 38.2069 37.4474 38.1362 37.4474 37.6884C37.4474 37.1385 37.4474 37.1385 36.8111 37.1306Z" fill="black"/>
<path d="M3.57245 27.0278C3.706 27.3499 3.79242 27.6877 3.93383 28.002C4.07523 28.3398 4.17736 28.654 3.87098 28.9683C3.67458 29.1804 3.74528 29.4003 4.00453 29.4239C4.41304 29.4553 4.53088 29.691 4.55445 30.0445C4.5623 30.1624 4.5623 30.2959 4.62515 30.3823C4.87654 30.7359 4.83726 31.0187 4.4916 31.2936C4.24021 31.4979 4.24807 31.7179 4.50731 31.9457C4.82941 32.2363 5.19864 32.3542 5.63072 32.417C6.39275 32.5349 7.13906 32.7706 7.90109 32.857C8.74168 32.9512 9.59798 32.9512 10.4464 32.9512C12.6697 32.9355 14.8929 32.8962 17.1161 32.8648C17.2183 32.8648 17.3283 32.8491 17.4304 32.8255C18.1846 32.6763 18.9309 32.4956 19.6929 32.3778C20.5099 32.2521 20.7692 31.7336 20.3371 31.0344C20.2664 30.9244 20.2428 30.7516 20.2743 30.6259C20.345 30.2566 20.4942 29.9031 20.5335 29.5417C20.5649 29.2432 20.6435 29.1175 20.9656 29.1568C21.2327 29.1882 21.327 29.0782 21.1777 28.8033C21.0913 28.654 21.0206 28.4576 21.0441 28.2926C21.1148 27.8684 21.1934 27.4363 21.3505 27.0357C21.6098 26.3758 21.9554 25.7552 22.2225 25.1031C22.2775 24.9617 22.2068 24.6553 22.0968 24.5846C21.7433 24.3647 21.3112 24.2547 20.9577 24.0269C20.6828 23.854 20.5414 23.9247 20.4314 24.1604C20.2743 24.4982 20.1486 24.8439 20.015 25.1895C19.8815 25.5273 19.6301 25.7002 19.3708 25.6138C18.868 25.4566 18.3731 25.2838 17.8703 25.1424C17.6111 25.0717 17.5954 24.9617 17.6582 24.7182C17.7682 24.3097 17.8153 23.8854 17.8703 23.4612C17.8782 23.3748 17.7918 23.2805 17.7525 23.202C17.1554 23.3984 16.6526 23.1863 16.0556 22.9113C15.977 23.1391 15.8749 23.3434 15.8356 23.5634C15.7885 23.8226 15.8199 24.0897 15.7963 24.349C15.7571 24.8125 15.5842 24.9381 15.1207 24.8596C14.7279 24.7889 14.3351 24.6946 13.9345 24.6632C13.6674 24.6396 13.5574 24.5532 13.5652 24.2861C13.5731 23.8776 13.581 23.4691 13.5495 23.0684C13.5417 22.9742 13.3846 22.8092 13.2903 22.8013C12.7168 22.7856 12.1747 22.7935 11.5227 22.7935C11.5227 23.3355 11.5306 23.8147 11.5148 24.294C11.507 24.4118 11.4206 24.6161 11.342 24.6318C10.7842 24.7417 10.2107 24.8282 9.64512 24.891C9.54299 24.8989 9.33874 24.7967 9.31517 24.7103C9.19733 24.2547 9.14234 23.7755 9.03235 23.3198C9.00879 23.2098 8.84381 23.037 8.77311 23.0449C8.29389 23.1234 7.82253 23.2727 7.33546 23.3512C6.96623 23.4062 6.95052 23.6576 7.09193 23.854C7.34332 24.2075 7.24905 24.5846 7.28047 24.9539C7.30404 25.2602 7.17049 25.3781 6.85625 25.4252C6.45559 25.4881 6.03137 25.5666 5.67785 25.763C5.37933 25.9359 5.25363 25.8102 5.15936 25.6138C4.93154 25.1503 4.72728 24.6789 4.54659 24.1997C4.43661 23.9169 4.32663 23.8776 4.05952 24.0347C3.67458 24.2547 3.28964 24.5139 2.87327 24.6396C2.4569 24.7653 2.5826 24.891 2.71615 25.1581C3.02253 25.7552 3.29749 26.3915 3.57245 27.0278ZM18.7502 31.8828C17.5954 32.0557 16.4091 32.0557 15.2621 32.1971C13.6281 32.3935 12.0019 32.3385 10.3836 32.2835C9.49586 32.2521 8.59242 32.2285 7.70469 32.1264C7.02122 32.0478 6.34561 31.8435 5.67 31.6864C5.60715 31.6707 5.55216 31.6 5.45789 31.5372C5.52073 31.4822 5.56001 31.4193 5.60715 31.4115C6.02352 31.3251 6.43203 31.2151 6.85625 31.1679C7.87753 31.058 8.8988 30.9323 9.92793 30.9087C11.6955 30.8694 13.4631 30.8851 15.2229 30.9087C15.6942 30.9165 16.1656 31.058 16.6448 31.1051C17.0297 31.1444 17.4304 31.1208 17.8153 31.1522C18.051 31.1758 18.2867 31.2622 18.5224 31.3093C18.6873 31.3408 18.8523 31.3643 19.0173 31.3879C19.1508 31.4036 19.2844 31.4193 19.4258 31.4272C19.4415 31.49 19.4572 31.5529 19.4651 31.6157C19.2294 31.71 18.9937 31.8435 18.7502 31.8828ZM20.2193 26.6586C20.5178 26.6743 20.777 26.9886 20.7613 27.3028C20.7456 27.6956 20.3921 28.167 20.1328 28.1591C20.1093 28.1905 20.0936 28.2219 20.07 28.2534C19.8186 28.0805 19.3787 27.9313 19.3472 27.7192C19.2687 27.2557 19.8736 26.635 20.2193 26.6586ZM17.5168 25.928C17.5247 25.6452 17.6896 25.6138 17.9175 25.7395C18.0274 25.8023 18.1453 25.8573 18.2631 25.8966C18.6245 25.9987 18.9937 26.093 19.5044 26.2265C19.0801 26.7607 18.7738 27.2321 18.3731 27.617C18.106 27.8841 17.5482 27.6013 17.5247 27.2164C17.5011 26.7922 17.5011 26.3601 17.5168 25.928ZM16.4248 25.8966C16.7548 25.9044 17.0219 26.1794 17.0219 26.4936C17.014 26.8472 16.6919 27.3971 16.5034 27.3892C16.0949 27.3656 15.7728 27.0514 15.7806 26.6665C15.7806 26.1323 15.9927 25.8809 16.4248 25.8966ZM16.6369 28.0491C16.8019 28.1041 16.9905 28.1041 17.1711 28.1434C17.4697 28.2062 17.7603 28.2769 18.051 28.3476C18.436 28.4419 18.8209 28.544 19.2058 28.6462C19.5122 28.7326 19.8186 28.8111 20.1093 28.9368C20.1878 28.9683 20.2507 29.1882 20.2271 29.2904C20.0779 29.7931 19.8972 30.2881 19.74 30.7359C19.3394 30.6966 18.9937 30.6573 18.6559 30.6416C18.3967 30.6259 18.2631 30.508 18.2788 30.2488C18.2945 29.911 18.3103 29.5732 18.3338 29.2354C18.3652 28.8583 18.1767 28.5755 17.8625 28.4498C17.5247 28.3162 17.1004 28.3712 16.8962 28.6854C16.6919 28.9918 16.5819 29.4003 16.5427 29.7696C16.472 30.3195 16.4013 30.4059 15.8592 30.2331C15.7099 30.1859 15.5528 30.1467 15.4035 30.1545C15.0736 30.1624 14.995 29.9974 15.05 29.7067C15.0815 29.526 15.1286 29.3453 15.1286 29.1647C15.1207 28.9211 15.1207 28.6462 15.0186 28.4341C14.9322 28.2534 14.7122 28.1355 14.5551 27.9941C14.563 27.9548 14.5708 27.9234 14.5708 27.8841C15.2543 27.9313 15.9535 27.8134 16.6369 28.0491ZM14.013 25.2131C14.4765 25.276 14.94 25.3938 15.49 25.5038C15.2621 25.9908 15.0579 26.4622 14.8065 26.91C14.7358 27.0435 14.5001 27.1378 14.343 27.1378C14.2252 27.1378 14.0602 26.9886 14.0052 26.8629C13.8324 26.4779 13.6909 26.0773 13.5652 25.6766C13.471 25.4017 13.6831 25.166 14.013 25.2131ZM14.1309 27.727C14.1623 27.727 14.2016 27.7506 14.3116 27.7977C14.1466 27.9234 14.0288 28.0884 13.8795 28.1198C13.6045 28.1827 13.5417 28.3476 13.5103 28.5912C13.4474 29.039 13.3767 29.4789 13.2746 29.9188C13.251 30.0053 13.1096 30.1231 13.0153 30.1309C12.6618 30.1545 12.3083 30.1467 11.9626 30.1388C11.6955 30.1309 11.562 29.9817 11.5463 29.7146C11.5384 29.5417 11.5306 29.3768 11.5463 29.2039C11.6013 28.6854 11.5148 28.2377 10.7921 28.0177C11.0513 27.8684 11.1927 27.727 11.3342 27.7192C12.2533 27.7113 13.196 27.727 14.1309 27.727ZM13.0389 26.2737C13.0389 26.9021 13.0389 26.9021 12.5833 26.91C12.0255 26.9179 12.0255 26.9179 12.0255 26.2658C12.0255 25.8023 12.2533 25.4252 12.5283 25.4331C12.8111 25.4488 13.0389 25.818 13.0389 26.2737ZM12.2769 24.1211C12.4418 24.239 12.5675 24.3254 12.7011 24.4197C12.5518 24.4825 12.3947 24.6003 12.2454 24.6003C12.1119 24.6003 11.9862 24.4589 11.8605 24.3725C11.9783 24.294 12.104 24.2233 12.2769 24.1211ZM10.2265 25.4017C10.5564 25.3859 10.8864 25.2917 11.2163 25.2681C11.3263 25.2602 11.452 25.3702 11.5777 25.4252C11.3577 26.038 11.2006 26.5722 10.9649 27.0671C10.8549 27.3107 10.5486 27.3342 10.3679 27.1143C10.1479 26.855 9.97507 26.5408 9.78653 26.2501C9.76296 26.2108 9.76296 26.148 9.73939 26.1008C9.45658 25.4174 9.45658 25.4252 10.2265 25.4017ZM8.0425 26.6115C8.0425 25.928 8.12892 25.8416 8.72597 25.8966C9.18947 25.9437 9.11877 26.3915 9.26018 26.6665C9.37802 26.9021 9.27589 27.1221 9.00093 27.2242C8.87523 27.2635 8.76525 27.3342 8.63955 27.3578C8.22319 27.4521 8.05821 27.3185 8.0425 26.8786C8.0425 26.8 8.0425 26.7057 8.0425 26.6115ZM10.3914 27.947C10.3914 28.0098 10.3914 28.0491 10.3836 28.057C9.66869 28.3319 9.76296 28.9368 9.79438 29.5025C9.81795 29.9031 9.79438 30.2174 9.27589 30.1781C9.26018 30.1781 9.25232 30.1859 9.23661 30.1859C8.63956 30.3431 8.33317 30.1781 8.31746 29.5417C8.3096 29.0233 8.07392 28.7169 7.71255 28.4419C7.66541 28.4026 7.61828 28.3555 7.579 28.3084C7.57114 28.3005 7.579 28.2848 7.57114 28.1748C8.52171 28.2769 9.40944 27.6799 10.3914 27.947ZM6.09422 26.1558C6.29062 26.1165 6.48702 26.0537 6.66771 25.9673C7.15478 25.7395 7.47687 25.928 7.47687 26.5879C7.42188 26.8629 7.35903 27.2478 7.24905 27.617C7.17049 27.8999 6.83268 28.002 6.62057 27.7742C6.30633 27.4363 6.01566 27.0593 5.75641 26.6743C5.615 26.4622 5.80355 26.2108 6.09422 26.1558ZM6.62843 28.4498C6.73055 28.4183 6.85625 28.4341 7.02908 28.4262C6.95838 28.5598 6.94266 28.6305 6.90338 28.6619C6.4006 29.0075 6.51059 29.5025 6.61271 29.9738C6.70699 30.4059 6.58915 30.6023 6.14136 30.6494C5.82712 30.6809 5.50502 30.7201 5.13579 30.7673C5.02581 30.3352 4.85298 29.856 4.79798 29.3689C4.78227 29.2354 5.09651 29.0075 5.30077 28.9211C5.73285 28.7247 6.18064 28.5912 6.62843 28.4498ZM4.67229 26.7136C4.77442 26.6508 5.03366 26.8393 5.21435 26.9414C5.28505 26.9807 5.31648 27.0907 5.36361 27.1692C5.70928 27.7584 5.63072 27.947 4.96296 28.167C4.86869 28.1984 4.78227 28.2534 4.58587 28.3555C4.48374 27.9548 4.33448 27.6249 4.32663 27.2792C4.31877 27.0907 4.49946 26.8157 4.67229 26.7136Z" fill="black"/>
<path d="M21.4605 43.0147C19.5594 41.0743 17.6504 39.1417 15.7335 37.217C14.7594 36.235 13.7774 35.2609 12.7954 34.2789C12.6461 34.1375 12.5126 33.949 12.2847 34.1846C11.342 35.1509 10.3993 36.1093 9.45658 37.0678C7.65756 38.8904 5.85068 40.7129 4.04381 42.5198C3.06967 43.494 2.05625 44.4367 1.07425 45.403C1.02712 45.4501 1.01926 45.5365 0.97998 45.6465C1.02712 45.7172 1.0664 45.8036 1.12924 45.8665C1.27065 46 1.43563 46.11 1.56918 46.2435C4.17736 48.9146 6.78555 51.5935 9.39373 54.2566C10.2972 55.1837 11.2399 56.0714 12.1355 57.0062C12.4026 57.2812 12.5754 57.2655 12.8032 57.0219C12.8975 56.9277 12.9839 56.8334 13.0782 56.7391C14.5315 55.2701 15.977 53.801 17.4304 52.3319C19.5122 50.2344 21.5941 48.1368 23.6759 46.0471C23.8801 45.835 23.943 45.6544 23.7152 45.4108C22.9453 44.6174 22.2225 43.8003 21.4605 43.0147ZM10.8707 54.8458C10.7057 54.7516 10.525 54.6652 10.3679 54.5473C10.2343 54.4452 10.1086 54.3273 10.0144 54.1859C9.92008 54.0524 9.77082 53.8089 9.81795 53.746C9.96721 53.5496 10.1793 53.3611 10.3993 53.2904C10.5014 53.2589 10.7371 53.4946 10.8314 53.6517C10.9335 53.8324 10.9335 54.0681 10.9885 54.3195C10.9571 54.4845 10.9099 54.6652 10.8707 54.8458ZM10.9335 48.3489C11.2635 48.3332 11.5855 48.3411 11.9155 48.3489C12.1905 48.3568 12.2847 48.239 12.2769 47.9719C12.2612 47.6576 12.2612 47.3434 12.269 47.0291C12.269 46.9113 12.3083 46.7935 12.324 46.6756C12.3633 46.6678 12.4104 46.6678 12.4497 46.6599C12.4811 46.7778 12.544 46.8877 12.544 47.0056C12.5597 47.3355 12.5518 47.6576 12.544 47.9876C12.5361 48.2311 12.6304 48.3568 12.8818 48.3489C13.2196 48.3411 13.5653 48.3411 13.9031 48.3489C14.178 48.3568 14.2723 48.239 14.2644 47.9719C14.2566 47.7126 14.2801 47.4534 14.3037 47.1156C14.6022 47.4141 14.6258 49.0089 14.3666 49.3545C14.3194 49.1974 14.2566 49.0953 14.2644 48.9853C14.2801 48.7025 14.1466 48.6239 13.8873 48.6239C12.9053 48.6318 11.9312 48.6318 10.9492 48.6239C10.6743 48.6239 10.525 48.6946 10.5486 49.001C10.5564 49.0953 10.47 49.1895 10.4229 49.2917C10.3679 49.1895 10.2736 49.0953 10.2736 48.9931C10.2579 48.5061 10.2657 48.0269 10.2736 47.5398C10.2736 47.4219 10.3207 47.312 10.3443 47.1941C10.4071 47.1941 10.4621 47.202 10.525 47.202C10.5328 47.4534 10.5643 47.6969 10.5564 47.9483C10.5328 48.239 10.635 48.3647 10.9335 48.3489ZM14.4137 49.8102C13.1175 49.8652 11.8212 49.9044 10.4229 49.8259C10.7999 49.5273 14.1544 49.5352 14.4137 49.8102ZM10.9728 53.2118C10.9256 53.2118 10.8864 53.149 10.8392 53.1332C10.25 52.8818 10.2265 52.8426 10.3679 52.2062C10.4229 51.9784 10.4386 51.727 10.5564 51.5385C10.6664 51.3578 10.9178 51.1143 11.0513 51.1457C11.232 51.1928 11.4049 51.4442 11.4991 51.6485C11.5698 51.8134 11.5148 52.0334 11.5148 52.2298C11.5463 52.2377 11.5777 52.2455 11.6091 52.2612C11.507 52.5676 11.4206 52.874 11.2949 53.1725C11.2713 53.2197 11.0828 53.2118 10.9728 53.2118ZM12.1198 56.2992C11.727 55.8828 11.1456 55.5922 11.2713 54.8301C11.3263 54.4766 11.2949 54.0995 11.2792 53.7381C11.2635 53.471 11.3813 53.3296 11.6327 53.3454C11.8841 53.3689 12.2376 53.2746 12.2454 53.6989C12.2612 54.2881 12.2533 54.8694 12.2612 55.4586C12.2612 55.7257 12.2612 55.9928 12.2612 56.2599C12.214 56.2678 12.1669 56.2835 12.1198 56.2992ZM11.7977 52.1198C11.8212 51.892 11.8212 51.6485 11.7898 51.4206C11.7427 51.0593 11.9469 50.8472 12.2062 50.6822C12.5047 50.4858 12.9839 50.8236 13.0075 51.2714C13.0389 51.7742 13.0625 52.2926 12.9839 52.7876C12.9525 52.9918 12.6461 53.1568 12.489 53.3139C11.8134 53.1018 11.7427 52.6462 11.7977 52.1198ZM13.5338 55.1994C13.526 55.3643 13.4631 55.5607 13.361 55.6943C13.1489 55.9771 12.8975 56.2364 12.6147 56.5506C12.5833 56.4092 12.544 56.3228 12.544 56.2285C12.544 55.4586 12.5597 54.6887 12.544 53.911C12.5361 53.5339 12.7168 53.3532 13.0703 53.3296C13.361 53.3061 13.5417 53.3925 13.526 53.746C13.5103 54.2331 13.5495 54.7123 13.5338 55.1994ZM13.2981 52.7404C13.3139 52.3869 13.251 52.0255 13.3139 51.6877C13.3531 51.4835 13.5338 51.2164 13.7145 51.1535C13.8402 51.1064 14.1702 51.3264 14.233 51.4992C14.3823 51.8763 14.4216 52.3005 14.508 52.709C14.508 53.0311 14.2959 53.1804 13.7852 53.1647C13.5338 53.149 13.2824 53.1018 13.2981 52.7404ZM14.8222 54.2095C14.5708 54.508 14.2723 54.7751 13.9973 55.0501C13.9423 55.0187 13.8873 54.9872 13.8324 54.9637C13.8716 54.5395 13.8716 54.1074 13.9659 53.6989C14.0052 53.526 14.2801 53.2746 14.4058 53.2982C14.618 53.3296 14.8458 53.526 14.9715 53.7146C15.0343 53.8089 14.9243 54.076 14.8222 54.2095ZM22.7882 45.8586C19.363 45.8665 15.9299 45.8665 12.5047 45.8665C9.1659 45.8665 5.83497 45.8665 2.49618 45.8665C2.39406 45.8665 2.28407 45.8822 2.18194 45.8586C2.05625 45.8272 1.86771 45.7879 1.83628 45.7015C1.80486 45.6072 1.88342 45.4265 1.96983 45.3401C2.94397 44.3503 3.92597 43.3761 4.90011 42.3941C6.2042 41.0743 7.5083 39.7545 8.80453 38.419C9.92008 37.272 11.0278 36.1093 12.1276 34.9388C12.3633 34.6874 12.5204 34.6953 12.7639 34.9388C15.7256 37.9476 18.6952 40.9408 21.6648 43.9418C22.1125 44.3974 22.5761 44.8452 23.0081 45.3165C23.1103 45.4265 23.1417 45.5994 23.2124 45.7408C23.071 45.7879 22.9296 45.8586 22.7882 45.8586Z" fill="black"/>
<path d="M15.4743 38.8511C15.3643 38.6704 15.3014 38.4426 15.2857 38.2383C15.2621 37.9319 15.1207 37.7748 14.8301 37.6727C14.7672 37.8298 14.7201 37.9712 14.6651 38.1205C14.453 38.0026 14.2723 37.9005 14.0837 37.7905C14.1309 37.6884 14.2016 37.6098 14.2094 37.5313C14.2173 37.4134 14.2094 37.2406 14.1466 37.2013C14.068 37.1542 13.8638 37.1778 13.8088 37.2485C13.6909 37.3977 13.6202 37.5941 13.5417 37.7748C13.5024 37.8612 13.5024 37.9634 13.4553 38.1755C13.1725 37.7434 12.8975 37.8769 12.5833 38.1048C12.9682 37.3742 12.8582 36.6593 12.2769 36.4393C12.2769 36.7928 12.2926 37.1071 12.269 37.4213C12.2612 37.5627 12.2062 37.7984 12.1276 37.8141C11.9469 37.8534 11.727 37.8298 11.5541 37.7591C11.4441 37.712 11.4049 37.5234 11.3106 37.4213C11.2242 37.3192 11.1063 37.2406 11.0042 37.1542C10.9335 37.272 10.8078 37.3899 10.8078 37.5156C10.8078 37.8219 10.6507 37.9869 10.3836 38.1048C10.3522 38.0655 10.3286 38.0341 10.2972 38.0026C10.2029 37.9005 10.1165 37.8062 10.0222 37.712C9.93579 37.8298 9.83366 37.9319 9.77867 38.0655C9.66083 38.3247 9.60584 38.6154 9.46443 38.8589C9.2209 39.2674 9.21304 39.4481 9.54299 39.7702C9.62155 39.8488 9.70011 39.9352 9.74725 39.9823C9.2209 40.9643 10.2265 40.7208 10.5486 41.035C10.4621 41.09 10.3993 41.1215 10.3443 41.1764C10.25 41.2629 10.1636 41.365 10.0772 41.4593C10.2029 41.5221 10.3207 41.6321 10.4543 41.6399C10.7371 41.6635 11.0278 41.6399 11.3184 41.6478C11.5227 41.6557 11.6484 41.7264 11.5777 41.9699C11.452 42.3548 11.7112 42.5512 12.0019 42.6298C12.2612 42.7005 12.3397 42.8419 12.2926 43.0462C12.1905 43.494 12.0648 43.9339 11.9155 44.366C11.8369 44.5938 11.6798 44.8059 12.0412 44.9237C12.0883 44.9395 12.104 45.0494 12.1355 45.1044C12.1826 45.1987 12.2376 45.3637 12.2926 45.3637C12.4497 45.3715 12.6461 45.3558 12.7561 45.2616C12.9132 45.1359 13.0153 44.9316 13.1803 44.7116C13.1332 44.5152 13.141 44.1931 12.9839 43.9967C12.7482 43.6982 12.8032 43.384 12.7875 43.0697C12.7718 42.8419 12.8189 42.6926 13.0939 42.6219C13.4631 42.5277 13.5495 42.2684 13.3846 41.9306C13.2903 41.7421 13.361 41.6557 13.5495 41.6478C13.8009 41.6399 14.0445 41.6635 14.2959 41.6399C14.4608 41.6242 14.6258 41.5535 14.7908 41.4985C14.7122 41.3493 14.6258 41.2079 14.5472 41.0586C14.5394 41.0429 14.5472 41.0115 14.5472 40.9486C14.9479 40.8622 15.2936 40.6737 15.5057 40.2652C15.38 40.1787 15.2779 40.108 15.16 40.0216C15.2229 39.9588 15.27 39.9116 15.3171 39.8802C15.6942 39.5503 15.7335 39.2596 15.4743 38.8511ZM12.1512 40.5951C11.9469 40.3908 11.7427 40.1787 11.5384 39.9745C11.562 39.9588 11.5777 39.9352 11.6013 39.9195C11.8134 40.1159 12.0255 40.3123 12.2376 40.5087C12.2062 40.5401 12.1826 40.5715 12.1512 40.5951ZM12.2297 39.1496C11.9076 38.9218 11.672 38.7175 11.6405 38.364C11.7584 38.6468 12.4104 38.529 12.2297 39.1496ZM12.9446 39.0553C12.9132 39.0868 12.7954 39.0789 12.7718 39.0475C12.7404 38.9925 12.7168 38.8825 12.7404 38.8432C12.8504 38.6861 12.9918 38.5368 13.1725 38.3247C13.3453 38.7489 13.1096 38.8904 12.9446 39.0553ZM13.4788 39.9431C13.0468 39.346 12.9525 39.1732 13.4788 38.9296C13.4788 39.2517 13.4788 39.5503 13.4788 39.9431Z" fill="black"/>
</svg>
