<svg width="120" height="80" viewBox="0 0 120 80" fill="none" xmlns="http://www.w3.org/2000/svg">
<path fill-rule="evenodd" clip-rule="evenodd" d="M26.6039 24.228C29.7689 24.228 32.3326 26.7926 32.3326 29.9565L32.3309 50.8331C32.3326 53.9943 29.7689 56.559 26.6039 56.559H5.72772C2.56462 56.5609 0.000948455 53.9953 0 50.8331L0.000948455 29.9565C0.000948455 26.7926 2.56462 24.228 5.72772 24.228H26.6039ZM50.961 45.0246C52.0043 45.0246 52.9532 45.4443 53.5363 46.3247C54.0513 47.0976 54.1736 47.8984 54.1466 48.7788C54.1466 48.7788 54.1348 49.0667 54.1335 49.2246L54.1333 49.2525H49.415C49.4017 49.7953 49.5914 50.3105 49.9305 50.6366C50.1745 50.8673 50.5131 51.0707 50.9745 51.0707C51.462 51.0707 51.7608 50.9756 52.0043 50.7317C52.1399 50.5961 52.2533 50.4264 52.3239 50.2028L52.3438 50.1341H53.9702C53.9294 50.5552 53.6446 51.1113 53.3739 51.4366C52.7773 52.1403 51.8959 52.4249 51.0018 52.4249C50.0388 52.4249 49.3341 52.0863 48.7788 51.5582C48.0744 50.8808 47.695 49.8901 47.695 48.738C47.695 47.6134 48.0336 46.609 48.7112 45.918C49.2391 45.3767 49.9981 45.0246 50.961 45.0246ZM116.544 45.0246C117.752 45.0246 118.781 45.4039 119.187 46.4603C119.35 46.8758 119.385 47.3374 119.39 47.7825L119.39 47.8849V50.5009C119.39 50.8265 119.499 50.9488 119.783 50.9488C119.882 50.9488 119.98 50.9263 119.997 50.9222L120 50.9216V52.1674C119.715 52.289 119.566 52.3566 119.16 52.3566C118.428 52.3566 118.022 51.8964 117.968 51.3683C117.643 51.9376 116.829 52.4249 115.825 52.4249C114.144 52.4249 113.278 51.3683 113.278 50.2157C113.278 48.8972 114.284 48.1288 115.592 48.0128L115.662 48.0072L117.738 47.8581V47.4237C117.738 46.7586 117.507 46.3107 116.544 46.3107C115.78 46.3107 115.323 46.6438 115.26 47.2589L115.256 47.3139H113.617C113.711 45.729 114.971 45.0246 116.544 45.0246ZM69.9678 45.0246C71.1749 45.0246 72.204 45.4039 72.6107 46.4603C72.7736 46.8758 72.8089 47.3374 72.8132 47.7825L72.8136 47.8849V50.5009C72.8136 50.8265 72.922 50.9488 73.2068 50.9488C73.3053 50.9488 73.4038 50.9263 73.4209 50.9222L73.4235 50.9216V52.1674C73.1392 52.289 72.99 52.3566 72.5834 52.3566C71.8521 52.3566 71.446 51.8964 71.3912 51.3683C71.0661 51.9376 70.2526 52.4249 69.2489 52.4249C67.5677 52.4249 66.7013 51.3683 66.7013 50.2157C66.7013 48.8972 67.7076 48.1288 69.0156 48.0128L69.086 48.0072L71.1617 47.8581V47.4237C71.1617 46.7586 70.9309 46.3107 69.9678 46.3107C69.2033 46.3107 68.7462 46.6438 68.6838 47.2589L68.6793 47.3139H67.0399C67.1348 45.729 68.3941 45.0246 69.9678 45.0246ZM101.117 45.0246C102.188 45.0246 103.096 45.5258 103.585 46.1212C104.113 46.7854 104.41 47.5311 104.41 48.725C104.41 49.9179 104.113 50.6641 103.585 51.3282C103.096 51.9236 102.188 52.4249 101.117 52.4249C100.045 52.4249 99.1373 51.9236 98.6496 51.3282C98.1217 50.6641 97.8239 49.9179 97.8239 48.725C97.8239 47.5311 98.1217 46.7854 98.6496 46.1212C99.1373 45.5258 100.045 45.0246 101.117 45.0246ZM89.7037 45.0246C90.7475 45.0246 91.6964 45.4443 92.2795 46.3247C92.7945 47.0976 92.9169 47.8984 92.8894 48.7788C92.8894 48.7788 92.8776 49.0667 92.8762 49.2246L92.8761 49.2525H88.1582C88.1449 49.7953 88.3344 50.3105 88.6732 50.6366C88.9175 50.8673 89.2563 51.0707 89.7172 51.0707C90.2052 51.0707 90.5035 50.9756 90.7475 50.7317C90.8831 50.5961 90.9961 50.4264 91.0667 50.2028L91.0866 50.1341H92.7129C92.6726 50.5552 92.3879 51.1113 92.1166 51.4366C91.5205 52.1403 90.6391 52.4249 89.7445 52.4249C88.7816 52.4249 88.0769 52.0863 87.5216 51.5582C86.8176 50.8808 86.4382 49.8901 86.4382 48.738C86.4382 47.6134 86.7768 46.609 87.454 45.918C87.9823 45.3767 88.7408 45.0246 89.7037 45.0246ZM46.1618 42.4623V52.2482H44.6993L44.5909 51.4767C44.1703 52.1271 43.384 52.4114 42.6105 52.4114C41.9051 52.4114 41.3221 52.1674 40.8886 51.8143C40.049 51.1234 39.6428 50.0656 39.6428 48.7375C39.6428 47.3547 40.0625 46.2839 40.9021 45.5934C41.3356 45.2415 41.9051 45.0246 42.6245 45.0246C43.4893 45.0246 44.1266 45.3029 44.438 45.6515L44.469 45.6878V42.4623H46.1618ZM82.5597 45.0246C83.6305 45.0246 84.4848 45.5258 84.9726 46.1352C85.2801 46.532 85.4661 47.0496 85.5088 47.5737L85.5149 47.6662H83.8477C83.8337 47.4087 83.7522 47.192 83.6438 47.0161C83.4406 46.704 83.0747 46.4866 82.5597 46.4866C82.0985 46.4866 81.7599 46.6765 81.5292 46.9212C81.1226 47.3684 81.0545 48.0466 81.0545 48.711C81.0545 49.3756 81.1226 50.0402 81.5292 50.4877C81.7599 50.7317 82.0985 50.9349 82.5597 50.9349C83.0747 50.9349 83.4406 50.7181 83.6438 50.4061C83.7413 50.2477 83.8172 50.0564 83.8415 49.832L83.8477 49.7559H85.5149C85.4876 50.311 85.2982 50.8668 84.9726 51.287C84.4848 51.8964 83.6305 52.3974 82.5597 52.3974C81.4884 52.3974 80.5943 51.8828 80.1065 51.287C79.5787 50.6228 79.3345 49.7424 79.3345 48.711C79.3345 47.6802 79.5787 46.7994 80.1065 46.1352C80.5943 45.5391 81.4884 45.0246 82.5597 45.0246ZM96.0479 42.4488V50.1491C96.0479 50.5557 96.1428 50.8265 96.7259 50.8265C96.8584 50.8265 96.9054 50.816 96.9805 50.8137L97.0102 50.8132V52.235C96.6718 52.303 96.6042 52.3298 96.2651 52.3298C95.1342 52.3298 94.3696 51.7945 94.3422 50.5062L94.3414 50.4338V42.4488H96.0479ZM16.1678 51.5421C15.9732 51.5421 15.8131 51.701 15.8131 51.8945C15.8131 52.0941 15.9732 52.2501 16.1678 52.2501C16.3651 52.2501 16.5211 52.0941 16.5211 51.8945C16.5211 51.701 16.3651 51.5421 16.1678 51.5421ZM62.268 42.6387C63.041 42.6387 63.8412 42.7466 64.4914 43.1668C65.1954 43.627 65.6016 44.4268 65.6016 45.2538C65.6016 46.0408 65.236 46.9219 64.4238 47.2873C65.331 47.7075 65.8053 48.5587 65.8053 49.4493C65.8053 50.2996 65.5205 51.0702 64.8295 51.5985C64.1104 52.1478 63.2517 52.2421 62.3633 52.2479L62.268 52.2482H58.4452V42.6387H62.268ZM78.3853 45.1057C78.5265 45.1057 78.6673 45.1146 78.8083 45.1319L78.9141 45.1464V46.7716C78.7242 46.7313 78.521 46.704 78.331 46.704C77.1606 46.704 76.538 47.526 76.5149 48.6335L76.5143 48.6977V52.2482H74.8082V45.2007H76.2432L76.3924 46.2571C76.7175 45.4447 77.558 45.1057 78.3853 45.1057ZM109.563 45.0246C111.043 45.0246 111.918 46.0468 111.947 47.4727L111.947 47.5444V52.2482H110.255V47.9242C110.255 47.0972 109.983 46.5954 109.088 46.5954C108.491 46.5954 108.098 46.9748 107.867 47.4913C107.636 48.0178 107.636 48.7022 107.637 49.2799L107.637 49.3751V52.2482H105.944V45.2007H107.366L107.488 46.1079C107.908 45.3632 108.749 45.0246 109.563 45.0246ZM16.1645 33.6516C16.1645 33.6516 16.1599 33.6543 16.1507 33.6597L16.1293 33.6724C15.8665 33.8302 14.1435 34.9094 11.376 37.6745L11.2847 37.7661C8.38377 40.6828 7.43897 42.3734 7.43897 42.3734C7.43897 42.3734 7.44161 42.378 7.44701 42.3872L7.45975 42.4086C7.61762 42.6717 8.69762 44.3957 11.4671 47.1619C14.4393 50.1384 16.1645 51.0975 16.1645 51.0975C16.1645 51.0975 17.9453 50.0841 20.9599 47.073C23.931 44.0993 24.8927 42.3734 24.8927 42.3734C24.8927 42.3734 23.8771 40.5946 20.8651 37.5825C17.8943 34.6077 16.1645 33.6516 16.1645 33.6516ZM71.1617 49.1167L69.3707 49.2525C68.8553 49.2931 68.3538 49.6054 68.3538 50.1749C68.3538 50.7177 68.8285 51.0572 69.3572 51.0572C70.3939 51.0572 71.1311 50.5102 71.1607 49.5056L71.1617 49.4422V49.1167ZM117.738 49.1167L115.947 49.2525C115.432 49.2931 114.93 49.6054 114.93 50.1749C114.93 50.7177 115.405 51.0572 115.934 51.0572C116.97 51.0572 117.707 50.5102 117.737 49.5056L117.738 49.4422V49.1167ZM42.9501 46.4465C42.4206 46.4465 42.0543 46.6905 41.8103 47.0021C41.4579 47.4635 41.3628 48.1006 41.3628 48.711C41.3628 49.3215 41.4579 49.9726 41.8103 50.4334C42.0543 50.7454 42.4206 50.9896 42.9501 50.9896C44.2791 50.9896 44.5506 49.7279 44.5506 48.711C44.5506 47.694 44.2791 46.4465 42.9501 46.4465ZM16.1645 33.77L24.7668 42.3734L16.1645 50.9752L7.56275 42.3734L16.1645 33.77ZM101.117 46.5006C100.656 46.5006 100.276 46.704 100.045 46.948C99.6383 47.3957 99.544 48.0599 99.544 48.725C99.544 49.3891 99.6383 50.0537 100.045 50.5009C100.276 50.7454 100.656 50.9488 101.117 50.9488C101.578 50.9488 101.958 50.7454 102.188 50.5009C102.595 50.0537 102.69 49.3891 102.69 48.725C102.69 48.0599 102.595 47.3957 102.188 46.948C101.958 46.704 101.578 46.5006 101.117 46.5006ZM62.3899 48.0186H60.1793V50.6774H62.3356C63.1493 50.6774 64.0307 50.3805 64.0307 49.409C64.0307 48.3833 63.3122 48.0186 62.3899 48.0186ZM16.0422 42.4993H15.1675V49.3915L16.0422 50.2612V42.4993ZM18.0382 45.541H16.2933V50.2612L18.0382 48.5218V45.541ZM21.6345 44.9221L21.0142 45.541H18.9117V47.6449L18.0394 48.5203L21.6345 44.9221ZM14.2987 42.4993H13.427V47.6506L14.2987 48.5203V42.4993ZM89.6902 46.3782C89.1747 46.3782 88.7548 46.5954 88.5108 46.9212C88.2809 47.2154 88.1714 47.5211 88.1483 47.9405L88.1449 48.0205H91.1949C91.1814 47.4913 91.0323 47.0841 90.761 46.7854C90.5303 46.5414 90.1784 46.3782 89.6902 46.3782ZM50.947 46.3782C50.432 46.3782 50.0121 46.5954 49.7681 46.9212C49.5382 47.2154 49.4283 47.5211 49.4051 47.9405L49.4017 48.0205H52.4517C52.4382 47.4913 52.2891 47.0841 52.0183 46.7854C51.7876 46.5414 51.4352 46.3782 50.947 46.3782ZM12.5568 42.4993H11.6826V45.9059L12.5568 46.7766V42.4993ZM62.3356 44.142H60.1793V46.5566H62.3764C63.1631 46.5566 63.8277 46.2713 63.8277 45.3627C63.8277 44.4403 63.1218 44.142 62.3356 44.142ZM10.8141 42.4993H9.94123V44.1619L10.8141 45.0317V42.4993ZM24.0559 42.4993H18.9117V44.6698H21.8868L24.0559 42.4993ZM18.0377 42.4993H16.2933V44.6698H18.0377V42.4993ZM9.07055 42.4993H8.27907L9.07055 43.2922V42.4993ZM6.64559 42.0241C6.45211 42.0241 6.29087 42.179 6.29087 42.3774C6.29087 42.5711 6.45211 42.7326 6.64559 42.7326C6.84239 42.7326 7.00173 42.5711 7.00173 42.3774C7.00173 42.179 6.84239 42.0241 6.64559 42.0241ZM25.6851 42.0241C25.4893 42.0241 25.3313 42.179 25.3313 42.3774C25.3313 42.5711 25.4893 42.7326 25.6851 42.7326C25.8788 42.7326 26.0417 42.5711 26.0417 42.3774C26.0417 42.179 25.8788 42.0241 25.6851 42.0241ZM13.427 37.0978L8.27907 42.2506H13.427V40.0807H10.4529L11.3227 39.2086H13.427V37.0978ZM16.2933 34.4884V42.2506H17.1644V35.3581L16.2933 34.4884ZM18.0382 36.2314V42.2506H18.9084V37.1019L18.0382 36.2314ZM16.0424 40.0807H14.2987V42.2506H16.0424V40.0807ZM19.7815 37.9733V42.2506H20.6526V38.8459L19.7815 37.9733ZM21.5235 39.7151V42.2506H22.3937V40.5891L21.5235 39.7151ZM23.2701 41.46V42.2506H24.0559L23.2701 41.46ZM50.6475 31.5641V39.5897C50.6475 40.7952 49.9295 41.5537 48.6695 41.5537C48.4801 41.5537 48.2901 41.5537 48.0734 41.5264C47.8779 41.5021 47.6608 41.4666 47.392 41.4008L47.3004 41.3778V39.942C47.8022 39.9963 47.8697 40.0234 48.1272 40.0234C48.6378 40.0234 48.9208 39.7581 48.9398 39.3125L48.9408 39.2641V31.5641H50.6475ZM16.0422 34.4884L14.2987 36.2267V39.2086H16.0422V34.4884ZM54.2666 31.5641V35.8888C54.2666 36.7156 54.5921 37.2309 55.4875 37.2309C55.8811 37.2309 56.1524 37.0817 56.3558 36.8773C56.7466 36.5127 56.8621 35.9113 56.8707 35.3599L56.8713 35.2913V31.5641H58.5643V38.6118H57.1556L57.0337 37.6911C56.6951 38.3818 55.9079 38.788 55.0128 38.788C53.5327 38.788 52.6048 37.8055 52.5748 36.3418L52.5741 36.2682V31.5641H54.2666ZM96.034 31.3879C97.078 31.3879 98.0269 31.8078 98.6097 32.688C99.1247 33.461 99.2466 34.2617 99.2198 35.1419C99.2198 35.1419 99.2074 35.4299 99.206 35.5879L99.2058 35.6159H94.4887C94.4747 36.1586 94.6646 36.6741 95.0037 36.9999C95.2477 37.2306 95.5865 37.4341 96.0475 37.4341C96.5354 37.4341 96.8337 37.3392 97.078 37.095C97.2133 36.9594 97.3264 36.7899 97.3966 36.5666L97.4163 36.498H99.0434C99.0031 36.9186 98.7183 37.4746 98.4468 37.7997C97.8502 38.5037 96.9696 38.788 96.0743 38.788C95.1121 38.788 94.4071 38.4496 93.8518 37.9216C93.1478 37.2441 92.7687 36.2537 92.7687 35.1014C92.7687 33.9767 93.107 32.9725 93.7842 32.2818C94.3125 31.7403 95.0717 31.3879 96.034 31.3879ZM76.5138 31.3879C77.7212 31.3879 78.7503 31.7673 79.1564 32.8239C79.3202 33.2391 79.355 33.701 79.3592 34.1461L79.3596 34.2485V36.8643C79.3596 37.1898 79.468 37.3122 79.7528 37.3122C79.8513 37.3122 79.9498 37.2897 79.9669 37.2856L79.9695 37.2849V38.5305C79.6847 38.6526 79.5356 38.7202 79.1294 38.7202C78.3981 38.7202 77.9915 38.2597 77.9379 37.7319C77.6123 38.301 76.7986 38.788 75.7951 38.788C74.114 38.788 73.2475 37.7319 73.2475 36.5795C73.2475 35.2605 74.2537 34.4924 75.5616 34.3759L75.632 34.3703L77.7072 34.2212V33.7868C77.7072 33.1222 77.4767 32.674 76.5138 32.674C75.7495 32.674 75.2923 33.007 75.2294 33.6224L75.2248 33.6775H73.5859C73.681 32.0924 74.9401 31.3879 76.5138 31.3879ZM70.6021 29.3544V31.5641H72.3783V32.9588H70.6021V36.3898C70.6021 36.9323 70.8463 37.1633 71.3886 37.1633C71.7138 37.1633 71.9811 37.1514 72.3832 37.1072L72.4867 37.0955V38.5174C72.012 38.6391 71.5377 38.7067 71.036 38.7067C69.6383 38.7067 68.9345 37.9228 68.9102 36.61L68.9096 36.5392V32.9588H67.6216V31.5641H68.9096V29.7748L70.6021 29.3544ZM110.729 29.3544V31.5641H112.505V32.9588H110.729V36.3898C110.729 36.9323 110.973 37.1633 111.515 37.1633C111.841 37.1633 112.108 37.1514 112.51 37.1072L112.613 37.0955V38.5174C112.139 38.6391 111.664 38.7067 111.163 38.7067C109.765 38.7067 109.061 37.9228 109.037 36.61L109.036 36.5392V32.9588H107.748V31.5641H109.036V29.7748L110.729 29.3544ZM89.054 31.3879C90.5326 31.3879 91.3163 32.3563 91.3425 33.7796L91.3431 33.8537V38.6118H89.6639V34.233C89.6639 33.3654 89.4332 32.8639 88.5789 32.8639C87.6351 32.8639 87.2124 33.8396 87.1956 34.7079L87.1951 34.762V38.6118H85.5158V34.233C85.5158 33.3654 85.2851 32.8639 84.4308 32.8639C83.4871 32.8639 83.051 33.8396 83.0335 34.7088L83.033 34.763V38.6118H81.3538V31.5641H82.7627L82.8978 32.4983C83.291 31.8486 83.9694 31.3879 84.9055 31.3879C85.895 31.3879 86.5722 31.8211 86.924 32.5391C87.3447 31.8078 88.1042 31.3879 89.054 31.3879ZM64.2052 31.3879C65.6848 31.3879 66.5606 32.4099 66.5889 33.8361L66.5896 33.9077V38.6118H64.8966V34.2876C64.8966 33.4603 64.6251 32.9588 63.73 32.9588C63.133 32.9588 62.7399 33.3384 62.5091 33.8548C62.278 34.3812 62.278 35.0656 62.2786 35.6432L62.2787 35.7385V38.6118H60.5854V31.5641H62.0076L62.13 32.4715C62.5499 31.7265 63.391 31.3879 64.2052 31.3879ZM44.3597 29.0023L47.7353 38.6118H45.9052L45.2814 36.7683H41.4584L40.835 38.6118H39.0723L42.4484 29.0023H44.3597ZM104.332 31.3879C105.811 31.3879 106.687 32.4099 106.715 33.8361L106.716 33.9077V38.6118H105.023V34.2876C105.023 33.4603 104.752 32.9588 103.857 32.9588C103.26 32.9588 102.867 33.3384 102.636 33.8548C102.405 34.3812 102.405 35.0656 102.405 35.6432L102.405 35.7385V38.6118H100.712V31.5641H102.135L102.256 32.4715C102.677 31.7265 103.518 31.3879 104.332 31.3879ZM77.7072 35.4803L75.9167 35.6159C75.4015 35.6567 74.8993 35.969 74.8993 36.5385C74.8993 37.0813 75.374 37.4208 75.9035 37.4208C76.9396 37.4208 77.6766 36.8738 77.7063 35.869L77.7072 35.8056V35.4803ZM43.37 31.1439L42.0007 35.1976H44.7396L43.37 31.1439ZM96.0207 32.7418C95.5052 32.7418 95.085 32.959 94.841 33.2846C94.6114 33.5787 94.5019 33.8844 94.4782 34.3038L94.4747 34.3838H97.5252C97.5119 33.8548 97.3627 33.4477 97.0912 33.149C96.8608 32.905 96.5082 32.7418 96.0207 32.7418ZM16.1742 32.1543C15.1999 32.1543 14.2773 32.3703 13.4892 32.7497L13.7953 33.2111C14.4872 32.891 15.3085 32.6776 16.1645 32.6776C17.0309 32.6776 17.8478 32.891 18.5397 33.2111L18.8451 32.7497C18.0643 32.3745 17.1509 32.1543 16.1742 32.1543ZM18.7768 31.8491C18.6407 31.8657 18.5283 31.9655 18.4588 32.1113C18.5589 32.242 18.6917 32.3115 18.8257 32.3025C18.9648 32.2885 19.077 32.1875 19.1484 32.0395C19.0502 31.9093 18.9146 31.8344 18.7768 31.8491ZM13.1705 32.0395C13.244 32.1875 13.3561 32.2885 13.4946 32.3025C13.6307 32.3115 13.7633 32.242 13.8648 32.1113C13.7939 31.9655 13.6777 31.8657 13.5401 31.8491C13.4024 31.8344 13.2696 31.9093 13.1705 32.0395ZM17.6904 31.5736C17.6617 31.7353 17.6951 31.883 17.798 31.9781C17.9002 32.0661 18.0503 32.0872 18.2054 32.0395C18.2369 31.8806 18.2013 31.7322 18.1013 31.6381C18.0003 31.5468 17.8492 31.529 17.6904 31.5736ZM14.6377 31.566L14.6583 31.5451C14.7571 31.4389 14.805 31.3112 14.7774 31.1878C14.7516 31.0514 14.6432 30.9495 14.4872 30.894C14.3663 31.0073 14.3079 31.1482 14.3357 31.281C14.3628 31.4036 14.4581 31.5006 14.5926 31.5587L14.6287 31.5731L14.6283 31.5736C14.4732 31.529 14.321 31.5468 14.22 31.6381C14.1152 31.7322 14.0836 31.8806 14.113 32.0395C14.2686 32.0872 14.4187 32.0661 14.5213 31.9781C14.6136 31.8917 14.651 31.7617 14.6347 31.6173L14.6283 31.5745L14.6397 31.6131C14.6808 31.7418 14.7538 31.8389 14.8593 31.8843L14.8919 31.8963C15.0223 31.9387 15.1656 31.893 15.2889 31.7896C15.2516 31.6291 15.1608 31.5088 15.0299 31.4631C14.9125 31.4286 14.7793 31.4617 14.6627 31.5466L14.6377 31.566L14.6373 31.5665L14.633 31.5698L14.6377 31.566ZM19.4289 31.405C19.2693 31.4266 19.1415 31.5043 19.0808 31.6291C19.0241 31.7578 19.0571 31.9046 19.1484 32.0395C19.3077 32.0184 19.4395 31.9387 19.4967 31.815C19.5526 31.6898 19.5235 31.5392 19.4289 31.405ZM12.8876 31.405C12.7963 31.5392 12.7667 31.6898 12.8241 31.815C12.8805 31.9387 13.0066 32.0184 13.1705 32.0395C13.2634 31.9046 13.294 31.7578 13.2371 31.6291C13.1831 31.5043 13.0524 31.4266 12.8876 31.405ZM17.2927 31.4631C17.1561 31.5088 17.0684 31.6291 17.0279 31.7896C17.1557 31.893 17.3001 31.9387 17.4288 31.8963C17.563 31.8546 17.6524 31.7353 17.6904 31.5736C17.5663 31.469 17.4205 31.4251 17.2927 31.4631ZM15.7638 31.3927C15.6441 31.4621 15.581 31.5978 15.5741 31.7633C15.7195 31.837 15.8696 31.8546 15.9881 31.7829C16.0981 31.7219 16.1605 31.5986 16.1741 31.4545L16.1766 31.4147C16.0325 31.336 15.8807 31.3225 15.7638 31.3927ZM17.8385 30.894C17.6821 30.9495 17.5723 31.0514 17.5426 31.1878C17.5109 31.3225 17.5742 31.4621 17.6904 31.5736C17.8447 31.5181 17.954 31.4147 17.9827 31.281C18.0095 31.1482 17.9535 31.0073 17.8385 30.894ZM16.3368 31.7648L16.3651 31.7829C16.4832 31.8546 16.635 31.837 16.7805 31.7633C16.7739 31.5978 16.7111 31.4621 16.592 31.3927C16.4795 31.3283 16.3451 31.3343 16.2127 31.3964L16.1773 31.414L16.2102 31.3917C16.3186 31.3127 16.3909 31.213 16.4031 31.1017L16.405 31.068C16.405 30.9284 16.3151 30.8067 16.1766 30.7197C16.0381 30.8067 15.9502 30.9284 15.9502 31.068C15.9502 31.1928 16.0241 31.3048 16.1431 31.3917L16.1766 31.4145L16.1798 31.4583C16.1938 31.5878 16.247 31.6999 16.3368 31.7648ZM16.9536 28.8776C16.666 28.8776 16.3929 28.949 16.1645 29.0768C15.9395 28.949 15.668 28.8776 15.3773 28.8776C14.9076 28.8776 14.4872 29.0701 14.2297 29.3689C14.0518 29.2999 13.8546 29.2638 13.6535 29.2638C12.862 29.2638 12.2249 29.803 12.2249 30.4719C12.2249 30.772 12.3539 31.0478 12.5699 31.2594L12.6142 31.3009L13.0005 30.917C12.8615 30.7968 12.7736 30.6398 12.7736 30.4686C12.7736 30.1087 13.1636 29.8116 13.6535 29.8116C13.7652 29.8116 13.8731 29.8294 13.9795 29.8604C13.961 29.9339 13.9541 30.0079 13.9541 30.085C13.9541 30.3038 14.0195 30.5112 14.1405 30.6905L14.1749 30.7387L14.5695 30.3432C14.5261 30.2607 14.5005 30.1756 14.5005 30.085C14.5005 29.7172 14.8934 29.4244 15.3749 29.4244C15.552 29.4244 15.7168 29.463 15.8521 29.5315L15.9013 29.5586V30.337H16.4512V29.5441C16.5932 29.4704 16.7685 29.4244 16.9536 29.4244C17.4385 29.4244 17.8293 29.7172 17.8293 30.085C17.8293 30.1605 17.8148 30.2321 17.7824 30.3017L17.7608 30.3432L18.1544 30.7387C18.2981 30.5488 18.3777 30.3237 18.3777 30.085C18.3777 30.0079 18.3704 29.9339 18.354 29.8604C18.4588 29.8294 18.5658 29.8116 18.6824 29.8116C19.1659 29.8116 19.5595 30.1087 19.5595 30.4686C19.5595 30.6256 19.486 30.7705 19.366 30.8862L19.3321 30.917L19.716 31.3009C19.9555 31.0844 20.1094 30.792 20.1094 30.4719C20.1094 29.803 19.4697 29.2638 18.6824 29.2638C18.475 29.2638 18.2786 29.2999 18.1013 29.3689C17.8438 29.0701 17.426 28.8776 16.9536 28.8776ZM50.6881 28.8121V30.5592H48.8732V28.8121H50.6881ZM16.1714 27.7608C15.9635 27.7608 15.8001 27.927 15.8001 28.1335C15.8001 28.3374 15.9635 28.503 16.1714 28.503C16.3748 28.503 16.542 28.3374 16.542 28.1335C16.542 27.927 16.3748 27.7608 16.1714 27.7608Z" fill="black"/>
</svg>
