<svg width="121" height="80" viewBox="0 0 121 80" fill="none" xmlns="http://www.w3.org/2000/svg">
<path d="M53.1031 66.0818C52.7723 66.2401 52.4989 66.312 52.1681 66.0243C52.0098 65.8948 51.6789 65.9092 51.4344 65.9236C51.0316 65.9524 50.6144 66.0387 50.0102 66.125C49.8951 67.693 49.8376 69.4337 50.039 71.1888C50.2691 71.1888 50.4993 71.1888 50.7295 71.1888C50.7295 70.9299 50.7439 70.6853 50.7439 70.4263C50.7439 69.5057 50.7439 68.5994 50.7439 67.6787C50.7439 67.506 50.7295 67.3334 50.7726 67.1752C50.8733 66.8155 51.1323 66.6573 51.5063 66.7004C51.8947 66.7292 51.9235 66.9881 51.9235 67.3046C51.9091 68.2973 51.9091 69.2899 51.9235 70.2825C51.9235 70.5846 51.9667 70.9011 51.9954 71.2032C52.2688 71.2032 52.5277 71.2032 52.801 71.2032C52.801 69.8509 52.7867 68.513 52.8298 67.1608C52.8298 67.0025 53.0888 66.758 53.247 66.7436C53.4772 66.7292 53.7217 66.8587 53.9375 66.9881C54.0238 67.0313 54.0382 67.2327 54.0382 67.3622C54.0526 68.6425 54.0526 69.9228 54.067 71.2032C54.2972 71.2032 54.5273 71.2032 54.7575 71.2032C54.7575 69.7646 54.8438 68.3116 54.7431 66.8731C54.6568 65.9524 53.9375 65.679 53.1031 66.0818Z" fill="black"/>
<path d="M60.1522 67.5204C60.1522 66.9738 59.9364 66.499 59.4617 66.2976C58.9294 66.0675 58.3252 65.8517 57.7785 65.9236C57.2031 65.9955 56.527 66.2113 56.3112 66.9306C56.268 67.0601 56.2824 67.319 56.3543 67.3622C56.4838 67.4341 56.6852 67.391 56.8291 67.3622C56.9298 67.3334 57.0017 67.2183 57.0736 67.132C57.4908 66.686 58.2245 66.4703 58.728 66.7867C59.0013 66.9594 59.0876 67.391 59.2746 67.7074C59.0301 67.8081 58.7999 67.9376 58.541 67.9808C58.1382 68.0527 57.7066 68.0239 57.3038 68.1246C56.5989 68.2973 56.0522 68.9158 56.0235 69.4769C55.9803 70.1962 56.268 70.6709 56.9729 70.9874C56.9154 71.0593 56.8722 71.1313 56.8291 71.2032C57.9799 71.2032 59.1308 71.2032 60.2816 71.2032C60.2385 70.6278 60.1953 70.0523 60.181 69.4769C60.1378 68.8151 60.1522 68.1678 60.1522 67.5204ZM58.9294 70.0667C58.5266 70.4264 57.7354 70.4839 57.2606 70.225C56.7571 69.9372 56.714 69.2467 57.2319 68.9734C57.6059 68.772 58.0231 68.6713 58.4834 68.4987C58.7424 68.6281 59.1164 68.6857 59.2171 68.8727C59.4185 69.3043 59.289 69.7358 58.9294 70.0667Z" fill="black"/>
<path d="M111.438 66.1538C110.488 65.7078 109.582 65.7654 108.791 66.4703C108.604 66.6429 108.517 66.9306 108.416 67.1752C108.388 67.2327 108.56 67.4341 108.575 67.4341C108.819 67.319 109.107 67.2327 109.294 67.0457C109.941 66.3839 111.107 66.5854 111.438 67.4485C111.553 67.7362 111.481 67.8945 111.164 67.9232C110.689 67.9664 110.215 68.0383 109.754 68.0527C108.92 68.0959 108.287 68.8008 108.143 69.4481C108.028 69.9372 108.503 70.6565 109.107 71.0018C109.035 71.0593 108.963 71.1313 108.891 71.1888C109.582 71.1888 110.272 71.1888 110.963 71.1888C110.876 71.1313 110.79 71.0593 110.603 70.9155C110.963 70.8723 111.222 70.8148 111.452 70.8292C111.524 70.8292 111.581 71.0593 111.653 71.1888C111.927 71.1888 112.186 71.1888 112.459 71.1888C112.416 70.0667 112.358 68.9302 112.315 67.8081C112.301 67.1032 112.128 66.4846 111.438 66.1538ZM110.891 70.1674C110.632 70.2969 110.315 70.3257 110.143 70.3832C109.539 70.3688 109.179 70.153 109.049 69.6783C108.949 69.3043 109.409 68.7864 109.941 68.6713C110.143 68.6281 110.359 68.5994 110.56 68.6137C110.92 68.6281 111.351 68.513 111.452 69.0597C111.553 69.592 111.308 69.9516 110.891 70.1674Z" fill="black"/>
<path d="M19.685 71.0593C19.6562 69.8797 19.6562 68.6857 19.5843 67.506C19.5411 66.8731 19.239 66.3696 18.5916 66.0962C17.5702 65.6503 16.6783 65.8948 15.9015 66.5853C15.7432 66.7148 15.7864 67.0745 15.7432 67.3334C15.9878 67.2759 16.3762 67.3046 16.4769 67.1464C16.8941 66.4846 17.5271 66.5853 18.0594 66.7436C18.3615 66.8299 18.5341 67.3334 18.7499 67.6643C18.5053 67.765 18.2608 67.9376 18.0018 67.9664C17.3545 68.0239 16.7215 68.0239 16.1317 68.398C15.6282 68.7144 15.4268 69.1892 15.4268 69.6783C15.4411 70.1243 15.5562 70.6709 16.1317 70.8723C16.1892 70.9011 16.1892 71.0881 16.218 71.2032C16.8653 71.2032 17.5271 71.2032 18.1744 71.2032C18.1025 71.1313 18.045 71.0593 17.9443 70.9586C18.2032 70.9011 18.419 70.8004 18.6492 70.8004C18.8937 70.8004 19.0951 70.9155 18.865 71.2032C19.1671 71.2032 19.4836 71.2032 19.7857 71.2032C19.7569 71.1456 19.685 71.1025 19.685 71.0593ZM16.9948 70.3256C16.7359 70.2537 16.4338 69.9516 16.3762 69.6927C16.3187 69.4913 16.5201 69.1172 16.7215 68.959C17.2969 68.4843 17.9874 68.5706 18.6492 68.6857C18.9225 69.8365 18.1025 70.6709 16.9948 70.3256Z" fill="black"/>
<path d="M92.4195 65.938C91.2974 66.2689 90.7076 67.0601 90.6069 68.4123C90.5206 69.6064 91.0097 70.4983 92.0311 70.973C91.9879 71.0449 91.9304 71.1169 91.8872 71.1888C92.6209 71.1888 93.3402 71.1888 94.0739 71.1888C93.9876 71.1169 93.9156 71.0593 93.8293 70.9874C94.0595 70.8292 94.3184 70.7285 94.4911 70.5414C95.3686 69.5776 95.5268 68.1534 94.9082 67.0169C94.4335 66.1825 93.297 65.679 92.4195 65.938ZM93.3834 70.34C92.8223 70.5558 92.2181 70.3832 91.8585 69.9085C91.3406 69.2179 91.3981 67.7362 91.9448 67.0889C92.5202 66.4271 93.6279 66.5134 94.0163 67.2903C94.2177 67.6787 94.304 68.1246 94.4479 68.5562C94.376 69.4625 94.0163 70.0955 93.3834 70.34Z" fill="black"/>
<path d="M40.8177 65.8804C39.6237 65.8804 38.7749 66.6573 38.4728 68.0239C38.2139 69.1748 38.8612 70.4839 39.9545 71.0018C39.8682 71.0593 39.7819 71.1313 39.6812 71.1888C40.4149 71.1888 41.1342 71.1888 41.8678 71.1888C41.7815 71.1169 41.6952 71.0593 41.6233 70.9874C42.9612 70.3832 43.3064 69.405 42.918 67.4917C42.7454 66.6429 41.6952 65.8661 40.8177 65.8804ZM41.8535 69.8509C41.6377 70.153 41.1486 70.3688 40.7601 70.412C40.3286 70.4551 39.8538 70.2969 39.6668 69.779C39.523 69.3618 39.3791 68.9302 39.2209 68.4699C39.4079 67.9952 39.5373 67.5348 39.7819 67.1464C40.2566 66.3839 41.5657 66.499 41.9542 67.3334C42.3426 68.1822 42.4001 69.0741 41.8535 69.8509Z" fill="black"/>
<path d="M35.4806 64.7008C35.9409 64.298 36.4444 64.4563 36.9479 64.4563C37.0918 64.4563 37.2356 64.3124 37.3795 64.2261C37.2788 64.0678 37.2212 63.8377 37.0774 63.7657C36.8904 63.665 36.6314 63.6794 36.4012 63.665C35.2072 63.6219 34.5311 64.0103 34.3153 64.9022C34.1571 65.5496 34.1427 66.1538 33.2076 65.9524C33.1069 65.938 32.9487 66.2113 32.8192 66.3408C32.963 66.4559 33.0925 66.5997 33.2508 66.686C33.3371 66.7292 33.4809 66.7004 33.596 66.686C34.1139 66.5997 34.2578 66.8443 34.229 67.3334C34.1858 68.4267 34.2002 69.5057 34.2002 70.599C34.2002 70.786 34.1858 70.9874 34.1714 71.1744C34.4448 71.1744 34.7037 71.1744 34.977 71.1744C35.0346 70.7572 35.1353 70.34 35.1497 69.9229C35.1784 69.0022 35.1928 68.0959 35.1353 67.1752C35.1065 66.7148 35.3223 66.6717 35.6676 66.6717C35.9697 66.686 36.2862 66.7292 36.5883 66.686C36.7465 66.6573 36.8904 66.4846 37.0342 66.3696C36.8904 66.2257 36.7753 66.0099 36.6026 65.9524C36.4012 65.8804 36.1423 65.9668 35.9265 65.938C35.6676 65.8948 35.2791 65.8517 35.2072 65.6934C35.0634 65.3626 35.1353 65.0029 35.4806 64.7008Z" fill="black"/>
<path d="M75.4011 65.9092C74.4229 65.9811 73.7755 66.5134 73.4015 67.4341C72.898 68.6569 73.3871 70.5271 74.6674 70.9442C74.6243 71.0162 74.5811 71.1025 74.538 71.1744C75.2285 71.1744 75.919 71.1744 76.6095 71.1744C76.552 71.1025 76.5088 71.0306 76.4513 70.9586C76.6815 70.8435 76.926 70.7572 77.0986 70.599C77.8035 69.966 78.1488 68.0815 77.6741 67.2471C77.1706 66.3839 76.4369 65.8229 75.4011 65.9092ZM76.8685 69.1892C76.7102 70.0667 76.1636 70.5127 75.4443 70.4551C74.7969 70.412 74.1927 69.7358 74.1064 68.959C74.092 68.8295 74.1064 68.7001 74.1064 68.5562C74.0776 68.5562 74.0489 68.5418 74.0345 68.5418C74.1352 68.1678 74.1927 67.765 74.351 67.4053C74.5955 66.8155 75.1709 66.571 75.8758 66.686C76.3794 66.758 76.7965 67.2039 76.8541 67.7938C76.8829 68.2541 76.9404 68.7432 76.8685 69.1892Z" fill="black"/>
<path d="M22.9218 66.1106C22.6916 66.2113 22.4758 66.3839 22.26 66.5278C22.2025 66.4703 22.1593 66.4271 22.1161 66.3983C21.9579 66.2545 21.7997 66.0962 21.6414 65.9524C21.5263 66.1682 21.2962 66.3839 21.2962 66.5997C21.3249 68.0815 21.3969 69.5632 21.44 71.0449C21.44 71.0881 21.3393 71.1456 21.2818 71.2032C21.5551 71.2032 21.814 71.2032 22.0874 71.2032C22.1161 70.9155 22.1449 70.6421 22.1593 70.3544C22.1737 69.52 22.1593 68.6713 22.1737 67.8369C22.1737 67.6499 22.2168 67.4485 22.3032 67.3046C22.634 66.8155 23.4396 66.5134 23.9719 66.7436C24.5186 66.9738 24.6624 67.4629 24.6624 68.0095C24.6768 69.0741 24.7056 70.1386 24.72 71.2032C24.9501 71.2032 25.1803 71.2032 25.4105 71.2032C25.4537 70.0235 25.5544 68.8439 25.4968 67.6643C25.468 66.2113 24.2452 65.5208 22.9218 66.1106Z" fill="black"/>
<path d="M88.3627 68.4987C87.7873 68.2829 87.1831 68.1678 86.6364 67.9232C86.435 67.8369 86.2192 67.5204 86.2192 67.3046C86.2192 67.1032 86.4638 66.7724 86.6508 66.7436C87.2406 66.6285 87.8592 66.5422 88.3052 67.1752C88.4346 67.3622 88.8087 67.3766 89.0676 67.4629C89.0245 67.1895 89.0245 66.9018 88.9525 66.6285C88.9238 66.5134 88.7799 66.4271 88.6792 66.3408C87.9743 65.7654 86.6508 65.7654 85.9027 66.2832C84.8814 67.0025 85.2122 68.1966 86.1473 68.513C86.5357 68.6425 86.9385 68.772 87.3269 68.9158C87.6147 69.0309 87.9168 69.146 88.1757 69.333C88.5641 69.592 88.5497 69.8653 88.1901 70.1386C87.5283 70.6421 86.6076 70.5271 86.0754 69.8653C85.9891 69.7646 85.9027 69.6351 85.7877 69.6064C85.615 69.5632 85.3849 69.5344 85.2266 69.6064C85.1547 69.6351 85.1259 69.9804 85.1978 70.0811C85.4856 70.4407 85.8308 70.7428 86.1617 71.0737C86.1761 71.0593 86.0898 71.1313 86.0034 71.2032C86.809 71.2032 87.6147 71.2032 88.4203 71.2032C88.3339 71.1456 88.2476 71.0737 88.1613 71.0162C88.1901 70.9874 88.2045 70.9442 88.2332 70.9299C88.895 70.6997 89.3553 70.2393 89.3266 69.7215C89.3122 69.0885 88.9094 68.7001 88.3627 68.4987Z" fill="black"/>
<path d="M30.129 68.3836C29.6543 68.2109 29.1364 68.1246 28.6617 67.9232C28.4603 67.8369 28.2301 67.5492 28.2301 67.3478C28.2301 67.1464 28.4603 66.8443 28.6617 66.758C29.2083 66.499 29.9132 66.758 30.3736 67.1895C30.5462 67.3622 30.8771 67.3622 31.1504 67.4341C31.1217 67.1895 31.1073 66.945 31.0641 66.7148C31.0497 66.6285 30.9634 66.5422 30.8915 66.499C29.9564 65.7654 29.0357 65.6934 28.0431 66.2689C27.6115 66.5134 27.2663 66.9018 27.3526 67.4917C27.4245 68.0095 27.741 68.3548 28.2301 68.5274C28.6761 68.7001 29.122 68.8439 29.568 68.9878C29.9852 69.1172 30.4455 69.2323 30.5031 69.7646C30.5318 70.0955 29.9276 70.4551 29.381 70.4695C29.3234 70.4695 29.2515 70.4839 29.2083 70.4695C28.8199 70.2537 28.4603 70.0092 28.0575 69.8078C27.8273 69.6927 27.5684 69.6639 27.3238 69.592C27.3382 69.8078 27.2663 70.0667 27.367 70.2106C27.6115 70.5271 27.9424 70.7716 28.2445 71.0593C28.2445 71.0593 28.1582 71.1313 28.0863 71.2032C28.8919 71.2032 29.6975 71.2032 30.5031 71.2032C30.4311 71.1313 30.3448 71.0593 30.2441 70.973C30.3304 70.9442 30.3736 70.9011 30.4311 70.9011C31.0353 70.8292 31.2943 70.3544 31.3518 69.8797C31.395 69.5632 31.1217 69.1604 30.9059 68.8583C30.7189 68.6281 30.4024 68.4843 30.129 68.3836Z" fill="black"/>
<path d="M117.293 70.2969C116.99 70.2825 116.717 70.225 116.717 69.8365C116.746 68.0959 116.789 66.3696 116.803 64.6289C116.803 64.2692 116.76 63.8808 116.271 63.8521C115.739 63.8377 115.207 63.8089 114.689 63.8377C114.516 63.8521 114.358 64.0678 114.185 64.1973C114.358 64.3268 114.502 64.485 114.689 64.5857C114.775 64.6289 114.919 64.6001 115.034 64.6001C115.796 64.5426 115.94 64.672 115.926 65.4345C115.897 66.8011 115.883 68.1822 115.868 69.5488C115.868 70.2393 115.796 70.3257 115.12 70.2969C114.214 70.2681 114.171 70.3113 114.329 71.1744C115.71 71.1744 117.091 71.1744 118.472 71.1744C118.472 70.9155 118.472 70.6421 118.472 70.2969C118.026 70.2969 117.667 70.3113 117.293 70.2969Z" fill="black"/>
<path d="M98.6629 66.6573C99.2815 66.6285 99.6987 66.8443 100.001 67.4197C100.087 67.578 100.432 67.5923 100.648 67.6787C100.691 67.4629 100.864 67.1895 100.778 67.0457C100.432 66.3983 99.857 65.9955 99.1089 65.8948C98.3464 65.7941 97.6415 66.0099 97.1668 66.6141C96.0303 68.0527 96.3468 69.9085 97.8429 71.0162C97.771 71.0737 97.6991 71.1313 97.6128 71.1888C98.3464 71.1888 99.0657 71.1888 99.7994 71.1888C99.8282 71.0737 99.8138 70.9155 99.8857 70.8579C100.159 70.599 100.49 70.3976 100.72 70.1242C100.806 70.0092 100.706 69.7358 100.691 69.5344C100.49 69.5632 100.26 69.5632 100.073 69.6351C99.972 69.6783 99.9433 69.8653 99.8713 69.966C99.411 70.6565 98.0156 70.5846 97.6703 69.8365C97.2963 69.0165 97.2244 68.1534 97.6559 67.319C97.8573 66.9306 98.1738 66.6717 98.6629 66.6573Z" fill="black"/>
<path d="M65.0865 69.9372C65.0721 69.9516 65.0721 69.9804 65.0577 69.9804C64.6549 70.1386 64.2377 70.412 63.8349 70.412C63.3458 70.412 62.8999 70.0811 62.8136 69.5488C62.7272 68.9302 62.6985 68.2973 62.756 67.6787C62.7992 67.1895 63.1157 66.7867 63.6479 66.7004C64.209 66.5997 64.7556 66.6285 65.0865 67.2183C65.1153 67.2615 65.144 67.3334 65.1872 67.3478C65.4174 67.4485 65.6619 67.5492 65.8921 67.6499C65.8921 67.4053 65.9784 67.1032 65.8921 66.9018C65.5469 66.1538 64.5111 65.7366 63.6767 65.8948C62.7848 66.0531 61.9072 66.8874 61.8065 67.7506C61.6483 69.0597 61.6627 70.34 63.1588 70.9874C63.0437 71.0737 62.9718 71.1313 62.8999 71.1888C63.6335 71.1888 64.3528 71.1888 65.0865 71.1888C65.0146 71.1169 64.9283 71.0449 64.8851 70.9874C65.1584 70.8004 65.4174 70.6709 65.6332 70.4695C65.9353 70.2106 66.2661 69.8221 65.9065 69.52C65.5612 69.2036 65.3023 69.6495 65.0865 69.9372Z" fill="black"/>
<path d="M7.15493 70.3976C6.70897 70.4551 6.11915 70.3544 6.07599 69.6639C6.03284 68.7864 5.97529 67.9232 5.98968 67.0457C5.98968 66.9306 6.29178 66.7292 6.4788 66.7004C6.85283 66.6429 7.24124 66.7004 7.61527 66.6717C7.74475 66.6573 7.91738 66.5422 7.94615 66.4415C7.97492 66.3264 7.91737 66.1106 7.83106 66.0531C7.71597 65.9668 7.51457 65.9524 7.35633 65.9668C6.29178 66.0243 6.30617 66.0243 5.97529 65.0605C5.93214 64.931 5.70196 64.7871 5.55811 64.7871C5.41425 64.8015 5.1553 64.9885 5.1553 65.0892C5.21285 65.8085 4.91075 66.0531 4.22023 65.9668C4.10514 65.9524 3.9469 66.1969 3.80304 66.3264C3.96128 66.4559 4.10514 66.5853 4.26338 66.686C4.33531 66.7292 4.4504 66.7148 4.5511 66.7004C5.02583 66.6573 5.18408 66.8299 5.1553 67.3334C5.12653 68.2109 5.12653 69.0885 5.21285 69.966C5.24162 70.2681 5.55811 70.5558 5.71635 70.8579C5.77389 70.9586 5.74512 71.0881 5.75951 71.2032C6.49318 71.2032 7.21247 71.2032 7.94615 71.2032C7.93176 71.1744 7.8886 71.1313 7.90299 71.1025C8.04685 70.2825 8.04685 70.2825 7.15493 70.3976Z" fill="black"/>
<path d="M71.6752 70.3256C71.5457 70.2681 71.3731 70.2969 71.2292 70.2969C70.4668 70.34 70.4668 70.34 70.4812 69.5776C70.4812 68.5994 70.5099 67.6355 70.4668 66.6573C70.4524 66.4127 70.2366 66.0099 70.0784 65.9811C69.4886 65.8948 68.8844 65.9092 68.2802 65.9524C68.1219 65.9668 67.9637 66.2113 67.8198 66.3408C67.9637 66.4703 68.0931 66.6717 68.2658 66.7004C68.5103 66.758 68.798 66.7148 69.057 66.7004C69.4166 66.6717 69.5893 66.8299 69.5749 67.1895C69.5605 67.7794 69.5749 68.3692 69.5749 68.959C69.5749 70.2249 69.5749 70.2393 68.3089 70.2681C67.8486 70.2825 67.7623 70.4983 67.863 70.8867C67.8917 70.973 67.863 71.0737 67.863 71.16C69.2872 71.16 70.697 71.16 72.1212 71.16C72.078 71.0737 71.9773 70.9442 72.0061 70.9155C72.3513 70.4983 71.9198 70.4407 71.6752 70.3256Z" fill="black"/>
<path d="M106.748 71.1025C106.705 70.3113 106.705 70.3113 105.87 70.34C105.367 70.3544 105.151 70.1386 105.165 69.6064C105.194 68.6713 105.223 67.7362 105.252 66.8011C105.266 66.1106 105.079 65.9092 104.432 65.9236C103.957 65.938 103.497 65.8948 103.036 65.938C102.878 65.9524 102.734 66.1969 102.59 66.3264C102.734 66.4703 102.849 66.6717 103.022 66.7292C103.252 66.8011 103.511 66.7436 103.755 66.7292C104.187 66.7004 104.374 66.9018 104.36 67.3334C104.345 67.9088 104.345 68.4843 104.36 69.0453C104.374 70.2825 104.374 70.2825 103.137 70.2825C102.72 70.2825 102.518 70.4264 102.619 70.8723C102.633 70.973 102.605 71.0737 102.59 71.1888C104.014 71.1888 105.424 71.1888 106.848 71.1888C106.805 71.16 106.762 71.1313 106.748 71.1025Z" fill="black"/>
<path d="M8.01808 49.9985C6.50757 49.9842 4.98268 50.0273 3.47217 50.0417C3.47217 50.2719 3.47217 50.502 3.47217 50.7322C3.97567 50.761 4.47917 50.7898 4.96829 50.8041C5.44302 50.8185 5.64442 50.9768 5.63004 51.5234C5.58688 53.1203 5.60126 54.7315 5.63004 56.3427C5.63004 56.5153 5.87459 56.7023 6.00407 56.8749C6.16231 56.7023 6.32055 56.5297 6.46441 56.3427C6.49318 56.3139 6.46441 56.2276 6.46441 56.17C6.46441 54.9041 6.45003 53.6525 6.45003 52.3866C6.45003 50.8617 6.45003 50.8761 7.97492 50.8185C8.16194 50.8041 8.34895 50.5452 8.52158 50.4013C8.36334 50.2575 8.19071 49.9985 8.01808 49.9985Z" fill="black"/>
<path d="M10.5356 9.83342C10.9528 9.83342 11.183 9.68957 11.183 9.25799C11.183 8.8408 10.9096 8.81203 10.5787 8.81203C8.20509 8.82642 5.84582 8.81203 3.47217 8.81203C3.47217 9.11413 3.47217 9.43062 3.47217 9.73272C3.75988 9.76149 4.06199 9.83342 4.3497 9.83342C6.40687 9.83342 8.47842 9.81904 10.5356 9.83342Z" fill="black"/>
<path d="M10.4637 38.2022C10.8521 38.2022 11.1542 38.231 11.183 37.7418C11.2117 37.2671 10.924 37.1952 10.5356 37.1952C9.49981 37.2096 8.46404 37.1664 7.44265 37.1952C6.16231 37.2383 4.88198 37.3247 3.61603 37.3822C3.57287 37.3822 3.52971 37.3103 3.48655 37.2815C3.48655 37.5548 3.48655 37.8138 3.48655 38.0871C3.81743 38.1159 4.13392 38.1734 4.46479 38.1734C6.45003 38.2022 8.46404 38.1734 10.4637 38.2022Z" fill="black"/>
<path d="M48.2264 65.8804C47.6078 65.7797 47.0467 65.9524 46.5432 66.3552C46.4425 66.4415 46.198 66.4127 46.0685 66.3552C45.8815 66.2545 45.7376 66.0675 45.565 65.9236C45.4355 66.1538 45.191 66.3983 45.191 66.6285C45.2053 68.1534 45.2773 69.6639 45.3348 71.1888C45.565 71.1888 45.7952 71.1888 46.0253 71.1888C46.0397 70.2825 46.0829 69.3762 46.0685 68.4699C46.0541 67.8081 46.2843 67.2902 46.8597 67.0313C47.2625 66.8443 47.7516 66.8299 48.212 66.7867C48.5141 66.758 48.8018 66.7148 48.7299 66.3696C48.6579 66.1682 48.4134 65.9236 48.2264 65.8804Z" fill="black"/>
<path d="M13.4703 65.8948C13.0675 65.9236 12.6503 65.9668 12.2619 66.0818C11.9454 66.1682 11.6721 66.3696 11.4994 66.4559C11.183 66.2257 10.9672 66.0818 10.7658 65.938C10.6507 66.1969 10.4637 66.4559 10.4349 66.7292C10.3773 67.1608 10.4205 67.5924 10.4349 68.0239C10.478 69.0741 10.55 70.1242 10.5931 71.1744C10.8233 71.1744 11.0535 71.1744 11.2837 71.1744C11.298 70.2681 11.298 69.3762 11.3124 68.4699C11.3412 67.1752 12.0461 66.5853 13.3408 66.7724C13.6141 66.8155 13.8443 66.8155 13.8875 66.4559C13.945 66.1394 13.8587 65.8661 13.4703 65.8948Z" fill="black"/>
<path d="M7.94615 20.0186C8.44965 20.1336 8.83807 20.4357 8.92438 20.9393C9.0107 21.3708 9.05386 21.7449 9.6149 21.7017C10.0033 21.6729 10.4061 21.6729 10.7945 21.6298C10.8665 21.6154 10.9528 21.3564 10.924 21.2414C10.7945 20.7954 10.6651 20.3494 10.4637 19.9322C10.1184 19.2705 9.55736 18.9109 8.85246 18.5944C6.65143 17.6161 4.19146 19.141 3.86059 21.3421C3.7455 22.1477 3.75989 22.9676 3.71673 23.615C3.75989 24.4206 3.75989 25.0536 3.8462 25.6722C4.00444 26.8087 4.60865 27.6862 5.61565 28.2328C6.75213 28.8658 7.88861 28.8658 9.09701 28.3048C10.2047 27.8013 10.6507 26.9094 10.9384 25.8448C10.9672 25.7441 10.8233 25.4995 10.7514 25.4852C10.2335 25.4564 9.70122 25.4564 9.18333 25.4995C9.09701 25.4995 8.96754 25.7441 8.95316 25.888C8.85245 26.4922 8.49281 26.8087 7.93176 26.9813C6.70897 27.3409 5.74512 26.5929 5.70197 25.2406C5.6732 24.1473 5.70197 23.0683 5.6732 21.975C5.65881 21.3708 5.8746 20.8529 6.24863 20.4214C6.70897 19.9035 7.32756 19.8603 7.94615 20.0186Z" fill="black"/>
<path d="M31.9992 25.4276C32.6322 25.4132 33.2651 25.4132 33.8981 25.4132C33.8981 25.4276 33.8981 25.4276 33.8981 25.442C34.5455 25.442 35.1928 25.4564 35.8546 25.442C36.1423 25.442 36.4588 25.4276 36.4588 25.0104C36.4588 24.0034 36.3293 23.0108 35.6963 22.1764C34.6893 20.8529 32.9343 20.6228 31.395 21.3277C30.2873 21.8312 29.755 22.7519 29.4961 23.8596C29.2227 24.9817 29.381 26.0606 30.014 27.0244C31.2799 28.9521 34.0564 29.2398 35.8834 27.7581C36.1711 27.5279 36.2286 27.269 35.9841 26.9669C35.4949 26.3627 35.3223 26.2908 34.9051 26.6216C34.0995 27.269 32.402 27.3985 31.6252 26.1901C31.5245 26.0318 31.4669 25.7729 31.5245 25.6146C31.5532 25.4995 31.8266 25.442 31.9992 25.4276ZM31.6971 23.2266C32.3157 22.3634 33.2939 22.2052 34.0707 22.8813C34.3009 23.0827 34.3297 23.5143 34.4592 23.8452C34.2002 23.9315 33.9413 24.061 33.6679 24.1041C33.4234 24.1473 33.1788 24.1185 32.9343 24.1185C32.9343 24.1185 32.9343 24.1185 32.9343 24.1329C32.6609 24.1329 32.402 24.1617 32.1287 24.1329C31.9129 24.1041 31.5388 24.0466 31.5388 23.9603C31.5101 23.7157 31.5532 23.4136 31.6971 23.2266Z" fill="black"/>
<path d="M18.8937 22.7519C17.9443 20.594 14.9664 20.4789 13.5134 21.7592C12.8805 22.3203 12.5496 23.0396 12.4201 23.8739C12.1468 25.6866 12.5496 27.6286 14.5348 28.463C15.5275 28.8802 17.1531 28.7076 17.973 28.0314C18.9513 27.2115 19.426 26.1757 19.3253 24.881C19.3828 24.8666 19.4404 24.8522 19.4836 24.8378C19.3109 24.1329 19.1814 23.3992 18.8937 22.7519ZM17.1387 26.2764C16.8797 26.8086 16.5057 27.0388 16.0453 27.1108C15.5562 27.1971 15.0383 27.0388 14.765 26.5641C14.578 26.2332 14.4485 25.8592 14.3478 25.4852C14.2759 25.255 14.3047 24.996 14.2903 24.7515C14.3047 23.9027 14.3766 23.0827 15.2685 22.6224C15.9446 22.2771 16.7359 22.5217 17.0811 23.1978C17.5846 24.2192 17.6566 25.2118 17.1387 26.2764Z" fill="black"/>
<path d="M21.5551 28.1897C21.6414 28.3623 21.8572 28.5925 22.0298 28.6069C23.7705 28.6356 25.4968 28.6356 27.2375 28.6069C27.4389 28.6069 27.7842 28.3623 27.7985 28.2041C27.8992 27.0964 28.0143 26.895 26.8491 26.9525C26.6189 26.9669 26.3887 26.9669 26.1586 26.9669C25.7845 26.9669 25.6119 26.7655 25.6119 26.3915C25.6119 24.996 25.6119 23.6006 25.6119 22.2052C25.6263 22.2052 25.6407 22.2052 25.6551 22.2052C25.6551 20.9249 25.6407 19.6445 25.6694 18.3642C25.6838 17.9614 25.4824 17.8607 25.1516 17.8607C24.274 17.8751 23.3965 17.8895 22.5046 17.8895C21.4544 17.8895 21.4544 17.8895 21.5119 18.9252C21.5119 18.9828 21.5263 19.0403 21.5263 19.0979C21.5407 19.4287 21.7133 19.5582 22.0586 19.5438C22.4183 19.5151 22.7779 19.5438 23.1375 19.5151C23.6267 19.4719 23.7849 19.7021 23.7849 20.148C23.7849 22.2196 23.7705 24.2768 23.7849 26.3483C23.7849 26.7367 23.641 26.9381 23.2814 26.9669C22.9074 26.9813 22.519 26.9813 22.1305 26.9525C21.6846 26.9094 21.4832 27.1108 21.4976 27.5423C21.5263 27.7437 21.4688 28.0027 21.5551 28.1897Z" fill="black"/>
<path d="M49.3341 28.276C50.4993 28.9521 51.6933 28.7939 52.9017 28.3335C53.4916 28.1034 53.1175 27.643 53.1607 27.2978C53.1751 27.2115 52.7435 26.9957 52.4989 26.9813C51.9954 26.9381 51.4776 27.0244 50.974 26.9813C50.4562 26.9237 50.1397 26.4922 50.1253 26.0318C50.0677 24.9817 50.1109 23.9315 50.1253 22.8957C50.1253 22.608 50.2116 22.3778 50.6 22.4066C51.1755 22.4354 51.7509 22.4066 52.3119 22.4498C52.9161 22.5073 52.873 22.1189 52.9017 21.7305C52.9305 21.3133 52.8586 21.0112 52.3407 21.0256C51.794 21.0543 51.233 21.0399 50.6863 21.0687C50.2835 21.0831 50.1109 20.9536 50.1109 20.5077C50.1253 19.1698 50.1109 19.1842 48.7299 19.1986C48.3558 19.1986 48.1976 19.2849 48.2264 19.7308C48.3271 21.0112 48.2983 21.0112 47.0323 21.0399C46.8453 21.0399 46.5576 21.1838 46.5001 21.3277C46.2411 22.0757 46.5001 22.421 47.2913 22.421C47.3776 22.421 47.4783 22.4066 47.5646 22.4066C48.0537 22.3778 48.2839 22.5792 48.2551 23.0971C48.2264 23.5575 48.2551 24.0178 48.2551 24.4638C48.2695 24.4638 48.2839 24.4638 48.2983 24.4638C48.2983 25.1543 48.2983 25.8304 48.2983 26.5209C48.2695 27.3265 48.6867 27.902 49.3341 28.276Z" fill="black"/>
<path d="M42.7022 23.3848C42.8605 23.7301 43.0762 23.874 43.4647 23.802C43.6804 23.7589 43.9106 23.8164 44.1264 23.8164C44.5292 23.802 44.7018 23.5575 44.5724 23.1547C44.0545 21.6585 43.0763 20.9536 41.4794 20.9393C40.0408 20.8529 38.6742 21.6729 38.1563 23.241C37.7103 24.5932 37.7967 25.9023 38.4728 27.082C39.2209 28.3911 40.5156 28.8802 41.9973 28.65C43.2633 28.463 44.1408 27.7006 44.5724 26.4922C44.6155 26.3771 44.4573 26.0462 44.3278 26.0174C43.551 25.7873 42.9324 26.0174 42.472 26.636C41.9829 27.2978 40.458 27.2402 40.2279 26.4922C39.9977 25.7441 39.897 24.9385 39.897 24.1617C39.897 23.7301 40.0984 23.2122 40.3861 22.8957C41.2205 22.0182 42.3426 22.5792 42.7022 23.3848Z" fill="black"/>
<path d="M66.7409 22.4354C67.2731 22.3634 67.9061 22.8526 68.2226 23.5287C68.2801 23.6582 68.4959 23.7733 68.6542 23.802C68.8987 23.8452 69.1433 23.802 69.4022 23.802C70.0064 23.802 70.1503 23.6582 70.0352 23.0683C69.9921 22.8669 69.9057 22.6655 69.805 22.4929C69.2728 21.6154 68.5247 21.0687 67.4745 20.9824C66.3668 20.8961 65.3455 21.0112 64.4967 21.8599C63.7199 22.6224 63.4753 23.6006 63.4321 24.5932C63.3602 26.9094 64.4967 28.6356 66.9135 28.837C67.4745 28.65 68.05 28.4774 68.611 28.2616C69.3303 27.9883 69.7619 27.3985 70.0208 26.7079C70.2222 26.1469 70.064 26.003 69.4598 26.003C69.2152 26.003 68.9563 25.9599 68.7117 26.0174C68.5247 26.0606 68.2945 26.1901 68.2082 26.3483C67.9637 26.8087 67.3163 27.1971 66.7696 27.1395C66.1654 27.082 65.5756 26.6216 65.5325 26.0606C65.4605 25.3701 65.4461 24.6652 65.4749 23.9747C65.5037 23.1547 66.0791 22.5217 66.7409 22.4354Z" fill="black"/>
<path d="M57.1599 26.9525C56.9729 26.9381 56.7859 26.9669 56.5845 26.9525C55.5631 26.9094 55.52 26.9813 55.5487 27.9739C55.5631 28.4342 55.7501 28.6213 56.2105 28.6213C56.9873 28.6069 57.7785 28.6213 58.5554 28.6213V28.6069C59.3753 28.6069 60.1953 28.5925 61.0153 28.6069C61.5044 28.6069 61.7058 28.3767 61.7346 27.9164C61.7778 27.082 61.6483 26.9525 60.7708 26.9525C60.6269 26.9525 60.4543 26.8806 60.3248 26.9094C59.7062 27.082 59.6199 26.7511 59.6199 26.2476C59.6343 24.7083 59.6199 23.1547 59.6487 21.6154C59.6631 21.1407 59.4617 21.0112 59.0589 21.0112C58.1669 21.0112 57.275 21.0256 56.3831 21.0112C55.5631 21.0112 55.52 21.0687 55.5343 21.8743C55.5487 22.4354 55.7501 22.6943 56.3399 22.5936C56.5557 22.5505 56.8003 22.5936 57.0305 22.5936C57.6491 22.5936 57.7498 22.6943 57.7498 23.3273C57.7498 24.3199 57.7354 25.3125 57.7641 26.3051C57.7785 26.7799 57.6059 26.9669 57.1599 26.9525Z" fill="black"/>
<path d="M48.399 57.7093C48.5716 57.3209 48.6579 56.8462 48.6723 56.4146C48.7011 55.0767 48.7011 53.7532 48.6723 52.4154C48.6723 52.1996 48.5572 51.8975 48.399 51.8111C48.2695 51.7392 47.9962 51.9406 47.7948 52.0413C47.7229 52.0701 47.6653 52.1276 47.579 52.1852C46.5145 51.3508 45.0615 51.7104 44.6443 52.8469C44.299 53.7676 44.2271 54.6595 44.5868 55.6234C45.0183 56.7742 46.126 57.3065 47.205 56.803C47.3488 56.7311 47.5358 56.7311 47.6941 56.7023C47.6941 56.9181 47.766 57.1627 47.6941 57.3353C47.3488 58.1121 46.313 58.3855 45.5794 57.9251C45.3348 57.7669 45.0471 57.6805 44.7306 57.5367C44.5868 58.3279 45.0903 58.4718 45.5074 58.6875C46.6439 59.263 47.8955 58.8602 48.399 57.7093ZM47.579 55.6953C47.3201 56.17 46.8022 56.3571 46.2555 56.1988C45.6801 56.0406 45.4355 55.5515 45.2917 55.0336C45.0903 54.3287 45.2053 53.6381 45.565 53.0196C45.8239 52.588 46.2411 52.3722 46.7878 52.5017C47.392 52.6455 47.7804 53.0483 47.8092 53.5662C47.8236 53.8539 47.8092 54.1273 47.8092 54.415C47.8379 54.415 47.8523 54.4294 47.8811 54.4294C47.7804 54.8466 47.7948 55.3357 47.579 55.6953Z" fill="black"/>
<path d="M68.1219 58.889C68.3089 58.8458 68.5103 58.5293 68.5679 58.3135C68.6398 57.9826 68.5822 57.6374 68.5966 57.2921C68.611 56.7023 68.7117 56.6448 69.2728 56.8749C70.0496 57.1914 70.9415 56.9325 71.445 56.2564C72.1068 55.3788 71.9773 54.3718 71.8622 53.3936C71.7184 52.0701 70.2654 51.3508 69.0714 51.955C68.8987 52.0413 68.6254 51.9262 68.4096 51.8975C68.237 51.8687 68.0068 51.768 67.8917 51.8399C67.7623 51.9118 67.6903 52.1564 67.6903 52.329C67.6759 53.3217 67.6759 54.3143 67.6759 55.3069C67.6759 56.3139 67.6759 57.3209 67.6759 58.3423C67.6616 58.6588 67.7623 58.9753 68.1219 58.889ZM69.6036 52.4585C70.1791 52.401 70.884 52.8757 70.9415 53.4367C70.9991 54.0266 71.0134 54.6451 70.9415 55.235C70.8696 55.8679 70.3373 56.2564 69.69 56.242C68.9131 56.2276 68.5391 55.8104 68.5966 55.0192C68.6254 54.5732 68.5822 54.1129 68.5535 53.6669C68.5391 52.962 68.8987 52.5304 69.6036 52.4585Z" fill="black"/>
<path d="M100.519 52.6455C100.044 51.509 97.9293 51.322 97.0373 52.4154C96.8359 52.6599 96.5482 52.8901 96.8647 53.1634C97.138 53.3936 97.4258 53.2066 97.6272 52.9332C98.1738 52.2571 99.1377 52.2427 99.6699 52.9332C99.7994 53.0915 99.7994 53.3936 99.7563 53.6094C99.7419 53.7101 99.4542 53.782 99.2815 53.7964C98.7924 53.8683 98.3033 53.8683 97.8142 53.9546C97.1236 54.0697 96.6202 54.7027 96.577 55.3932C96.5338 56.0262 96.8791 56.4434 97.3682 56.7455C98.0012 57.1195 98.6773 57.1195 99.2959 56.7167C99.5405 56.5585 99.6987 56.5441 99.9577 56.7167C100.13 56.8318 100.447 56.8749 100.634 56.7886C100.749 56.7455 100.792 56.4146 100.792 56.2132C100.806 55.5515 100.792 54.8897 100.792 54.228C100.806 54.2136 100.835 54.2136 100.85 54.1992C100.749 53.6813 100.706 53.1346 100.519 52.6455ZM99.5261 55.8104C99.0657 56.1844 98.5622 56.3427 98.0443 56.1413C97.7998 56.0406 97.4833 55.6809 97.4977 55.4507C97.4977 55.1774 97.7566 54.8178 98.0012 54.6595C98.2889 54.4869 98.6917 54.4869 99.1808 54.3862C99.3678 54.4725 99.8138 54.5588 99.857 54.7315C99.9433 55.0911 99.9145 55.4939 99.5261 55.8104Z" fill="black"/>
<path d="M58.6129 53.7676C58.1382 53.8539 57.6634 53.8683 57.1887 53.969C56.1098 54.2136 55.6638 55.3788 56.2968 56.2851C56.7859 56.9613 57.721 57.1914 58.5697 56.8174C58.9006 56.6735 59.1883 56.5441 59.5624 56.803C59.9076 57.0476 60.2385 56.8318 60.2097 56.4578C60.1666 55.8535 60.1378 55.235 60.0946 54.6308C60.109 54.6308 60.1234 54.6308 60.1378 54.6308C60.1378 54.2855 60.1378 53.9402 60.1378 53.595C60.1378 52.6887 59.6343 51.955 58.8862 51.7824C57.7641 51.5234 56.7427 51.8687 56.3112 52.6599C56.2392 52.7894 56.2536 52.9764 56.2392 53.1346C56.4406 53.1346 56.6564 53.1922 56.8291 53.1346C56.9585 53.1059 57.0448 52.9189 57.1599 52.8182C57.7066 52.329 58.3971 52.2571 58.9006 52.7031C59.0876 52.8613 59.1596 53.221 59.1739 53.4943C59.2027 53.5806 58.8287 53.7245 58.6129 53.7676ZM59.3034 54.8753C59.3753 55.4507 58.8862 56.0549 58.282 56.1844C58.1094 56.2132 57.9368 56.242 57.7785 56.2132C57.3182 56.1413 56.9298 55.9399 56.8866 55.422C56.8578 54.9616 57.1743 54.6883 57.5771 54.5732C57.8361 54.4869 58.1238 54.4869 58.2676 54.4581C58.7568 54.5157 59.2315 54.2711 59.3034 54.8753Z" fill="black"/>
<path d="M74.538 56.7167C75.5737 57.2058 76.5664 57.0907 77.4727 56.3427C77.5734 56.2564 77.6741 56.0262 77.6453 55.9686C77.559 55.8536 77.3864 55.7528 77.2425 55.7528C77.0986 55.7528 76.926 55.8392 76.7965 55.9399C75.9046 56.5728 74.6818 56.2276 74.2934 55.2062C74.1495 54.8322 74.2503 54.6164 74.6962 54.6308C75.1134 54.6451 75.545 54.6308 75.9622 54.6308C76.3937 54.6308 76.8397 54.6308 77.2713 54.6308C77.6165 54.6308 77.8035 54.4581 77.7748 54.0985C77.7604 53.8539 77.7604 53.595 77.7172 53.3504C77.5302 52.1852 75.8183 51.322 74.7969 51.8687C73.7755 52.4297 73.2145 53.3073 73.2576 54.4725C73.2864 55.3932 73.6173 56.2707 74.538 56.7167ZM74.538 53.0339C75.1997 52.2715 76.0629 52.1996 76.7102 53.0915C76.8253 53.2497 76.8685 53.5518 76.7965 53.7245C76.7534 53.8395 76.4513 53.8971 76.2643 53.9259C76.0341 53.9546 75.8039 53.9402 75.6169 53.9402C75.3867 53.9259 75.1997 53.9402 75.0127 53.9115C74.7825 53.8827 74.5524 53.8252 74.3222 53.7676C74.3941 53.5087 74.3797 53.2066 74.538 53.0339Z" fill="black"/>
<path d="M10.8665 51.9838C10.1328 52.401 9.80191 53.0339 9.60051 53.8252C9.35595 54.7315 9.8163 56.1269 10.6075 56.6304C11.5426 57.2346 12.938 57.1051 13.7148 56.3571C13.8155 56.2707 13.8875 55.9974 13.8299 55.9399C13.7292 55.8248 13.5278 55.7816 13.3696 55.7528C13.2833 55.7385 13.1682 55.8392 13.0675 55.9111C12.0173 56.6735 10.8521 56.1125 10.5356 55.1343C10.4205 54.8034 10.5068 54.6164 10.8808 54.6164C11.3268 54.6164 11.7584 54.6164 12.2043 54.6164C12.3914 54.6164 12.5784 54.6164 12.7798 54.6164C14.3334 54.6451 14.2327 54.4294 13.9162 53.149C13.5854 51.955 12.1468 51.2645 10.8665 51.9838ZM12.6359 53.9115C12.3626 53.9115 12.1036 53.9115 11.8303 53.9115C11.6001 53.9115 11.37 53.9259 11.1398 53.9115C10.5356 53.8827 10.4061 53.6957 10.7082 53.1778C10.9959 52.6887 11.4563 52.401 12.0317 52.4729C12.5208 52.5304 12.8949 52.8325 13.0387 53.336C13.1682 53.7101 13.0387 53.9115 12.6359 53.9115Z" fill="black"/>
<path d="M28.0287 52.0269C27.0936 52.6168 26.8635 53.4655 26.9066 54.5876C26.8059 55.2925 27.18 55.9255 27.7554 56.4721C28.5178 57.2058 29.9276 57.1483 30.6901 56.4146C31.7834 55.3644 31.7259 53.6525 30.9634 52.5592C30.3161 51.6529 28.9494 51.4515 28.0287 52.0269ZM30.201 55.7097C29.9564 56.2132 29.4961 56.2995 28.9782 56.242C28.4459 56.1844 28.1006 55.8679 27.9424 55.3932C27.7122 54.6883 27.6978 53.969 27.9712 53.2785C28.1582 52.775 28.7768 52.401 29.2803 52.4297C29.7838 52.4585 30.3592 53.0195 30.5462 53.6525C30.6038 53.8683 30.6182 54.0985 30.6469 54.3287C30.6757 54.343 30.7045 54.3574 30.7476 54.3862C30.5606 54.8178 30.4168 55.2781 30.201 55.7097Z" fill="black"/>
<path d="M40.7601 51.7248C40.7314 51.6817 40.7026 51.6241 40.6882 51.581C40.2422 51.8111 39.7675 52.0269 39.3359 52.2859C38.8181 52.588 38.6886 53.149 38.5303 53.6669C38.1851 54.8178 38.7317 56.6448 40.3429 56.9756C41.5514 57.2346 42.6015 56.5441 43.0187 55.1199C43.4359 53.6669 42.5152 51.5522 40.7601 51.7248ZM41.8822 55.6378C41.6233 56.0837 41.2205 56.2851 40.6882 56.2564C40.1991 56.2276 39.8538 55.9974 39.6524 55.5658C39.4798 55.1918 39.3791 54.8034 39.3072 54.5732C39.3503 53.6669 39.5086 53.0195 40.1703 52.588C40.7601 52.1996 41.5945 52.5592 41.8535 53.0339C42.3138 53.8971 42.3713 54.7746 41.8822 55.6378Z" fill="black"/>
<path d="M23.7417 51.7248C23.2382 51.768 22.7635 52.0125 22.3032 52.1564C22.0298 52.0125 21.7997 51.8975 21.5695 51.7824C21.4688 52.0413 21.3105 52.3146 21.2962 52.5736C21.2674 53.7964 21.2674 55.0192 21.2674 56.242C21.2674 56.5297 21.2386 56.8749 21.7277 56.8749C22.2025 56.8749 22.1737 56.5585 22.1737 56.2564C22.1737 55.422 22.1593 54.5732 22.1593 53.7388C22.1593 53.595 22.1593 53.4223 22.2169 53.2929C22.5046 52.6887 23.2239 52.329 23.8137 52.4873C24.3172 52.6168 24.6624 53.1634 24.6624 53.8252C24.6624 54.6595 24.6481 55.5083 24.6337 56.3427C24.6337 56.6448 24.7056 56.9325 25.0509 56.8606C25.2379 56.8174 25.4968 56.5441 25.5112 56.3714C25.5544 55.3788 25.5544 54.3862 25.4968 53.3936C25.4824 52.6167 24.9645 51.6241 23.7417 51.7248Z" fill="black"/>
<path d="M36.2286 56.17C35.8114 56.2132 35.6388 56.0406 35.6532 55.6234C35.6676 54.7315 35.6532 53.8252 35.6532 52.9332C35.6532 52.0125 35.6676 51.0919 35.6388 50.1856C35.6244 49.9985 35.423 49.6533 35.2935 49.6389C34.6606 49.5957 34.0132 49.6389 33.3658 49.6964C33.2364 49.7108 33.035 49.9266 33.035 50.0561C33.035 50.1855 33.2364 50.3869 33.3658 50.4157C33.6536 50.4733 33.97 50.4445 34.2721 50.4301C34.6174 50.4157 34.7756 50.5452 34.7613 50.9192C34.7469 52.4873 34.7325 54.0553 34.7613 55.6234C34.7613 56.0981 34.5742 56.2276 34.1427 56.17C33.8837 56.1413 33.6104 56.1413 33.3515 56.1988C33.222 56.2276 33.035 56.3858 33.035 56.4865C33.035 56.6016 33.1932 56.7886 33.3083 56.8318C33.5097 56.8893 33.7543 56.8749 33.97 56.8749C34.9051 56.8893 35.8258 56.9037 36.7609 56.9037C37.0198 56.9037 37.3507 56.9469 37.3507 56.5441C37.3651 56.17 37.0774 56.1557 36.7897 56.17C36.6026 56.17 36.4156 56.1557 36.2286 56.17Z" fill="black"/>
<path d="M94.9226 56.17C94.6925 56.1269 94.4191 56.1269 94.1889 56.17C93.7286 56.242 93.5847 56.0406 93.5991 55.609C93.6135 54.7315 93.5991 53.8539 93.5991 52.962C93.5991 52.0701 93.6135 51.1638 93.5848 50.2719C93.5704 50.0417 93.3977 49.6245 93.297 49.6245C92.6209 49.5814 91.9448 49.6245 91.2686 49.6964C91.1535 49.7108 90.9953 49.9554 90.9809 50.1136C90.9665 50.1999 91.1823 50.387 91.3118 50.4013C91.5851 50.4445 91.8728 50.4301 92.1606 50.4157C92.5346 50.4157 92.736 50.502 92.7216 50.9768C92.6784 52.2571 92.6928 53.5374 92.6928 54.8178C92.6928 56.0693 92.6928 56.0693 91.47 56.17C91.2974 56.1844 91.1248 56.3858 90.9665 56.5009C91.1392 56.6304 91.3118 56.8462 91.4844 56.8606C92.3044 56.9037 93.1388 56.8893 93.9588 56.8893C94.2897 56.8893 94.6205 56.9325 94.9226 56.8749C95.0665 56.8462 95.1672 56.6304 95.2823 56.4865C95.1672 56.3714 95.0665 56.1988 94.9226 56.17Z" fill="black"/>
<path d="M17.599 57.0044C18.4765 57.0044 19.1095 56.5728 19.6274 55.9399C19.7137 55.8392 19.7425 55.5802 19.6706 55.5083C19.5699 55.3932 19.3253 55.2925 19.2102 55.3357C19.0376 55.3932 18.8937 55.5802 18.7786 55.7385C18.1744 56.5153 16.8366 56.4146 16.5632 55.5514C16.4194 55.0767 16.218 54.5444 16.2755 54.0697C16.3906 53.0196 16.8797 52.3722 17.786 52.4585C18.2895 52.516 18.6779 52.7462 18.865 53.2497C18.9944 53.5806 19.2965 53.6525 19.5555 53.5087C19.685 53.4367 19.7857 53.0627 19.7137 52.962C19.239 52.2571 18.6923 51.6241 17.8436 51.7104C16.9229 51.6961 15.959 52.2571 15.7001 52.8613C15.2829 53.8108 15.2397 54.7458 15.6569 55.7241C15.959 56.429 16.8222 57.0044 17.599 57.0044Z" fill="black"/>
<path d="M53.0168 55.5514C53.0456 55.0192 53.0168 54.4869 53.0168 53.9546C53.0312 53.9546 53.0312 53.9546 53.0456 53.9546C53.0456 53.4224 53.0312 52.8901 53.0456 52.3578C53.06 51.9838 52.9161 51.7824 52.5277 51.7968C52.1393 51.7968 51.7653 51.768 51.3768 51.7824C51.0316 51.7968 50.4849 51.581 50.4849 52.1708C50.4849 52.7462 50.9884 52.6311 51.3912 52.6024C52.053 52.5736 52.1537 52.7031 52.1393 53.3792C52.1249 53.8683 52.1393 54.3718 52.1393 54.8753C52.1393 56.0549 52.1393 56.055 50.974 56.1413C50.9165 56.1413 50.8446 56.1269 50.8014 56.17C50.6719 56.2995 50.4849 56.429 50.4849 56.5585C50.4849 56.6735 50.7151 56.8893 50.8446 56.8893C51.9954 56.9181 53.1463 56.9181 54.2972 56.8893C54.4266 56.8893 54.6568 56.6448 54.628 56.5585C54.5993 56.4002 54.441 56.2132 54.2828 56.1557C54.0814 56.0837 53.8368 56.1413 53.6066 56.1557C53.1895 56.1844 53.0024 55.9974 53.0168 55.5514Z" fill="black"/>
<path d="M46.6152 9.83342C48.7155 9.81904 50.8158 9.81904 52.9161 9.80465C53.7361 9.80465 53.8656 9.57448 53.5059 8.82642C51.0747 8.82642 48.6435 8.82642 46.1836 8.82642C45.9246 9.50255 46.0829 9.83342 46.6152 9.83342Z" fill="black"/>
<path d="M12.7078 9.83342C14.7506 9.83342 16.7934 9.83342 18.8362 9.83342C19.6706 9.83342 19.8432 9.60325 19.5411 8.82642C17.0955 8.82642 14.6499 8.82642 12.1756 8.82642C11.9454 9.58887 12.0893 9.83342 12.7078 9.83342Z" fill="black"/>
<path d="M15.8296 38.2022C16.9373 38.2022 18.045 38.2022 19.1527 38.2022C19.4548 38.2022 19.685 38.1303 19.6993 37.785C19.6993 37.4541 19.5411 37.2527 19.1958 37.224C19.0232 37.2096 18.8506 37.2096 18.6779 37.2096C17.5271 37.2096 16.3906 37.2096 15.2397 37.2096C14.3478 37.2096 13.4415 37.2096 12.5496 37.2096C12.1612 37.2096 12.0605 37.4541 12.0605 37.7706C12.0605 38.1015 12.2331 38.231 12.5784 38.231C13.6717 38.2166 14.7506 38.231 15.8439 38.231C15.8296 38.2022 15.8296 38.2022 15.8296 38.2022Z" fill="black"/>
<path d="M21.1955 9.84781C23.1375 9.83342 25.094 9.81904 27.0361 9.80465C27.2806 9.80465 27.554 9.84781 27.7554 9.74711C27.9424 9.66079 28.187 9.40185 28.187 9.22922C28.1726 8.97028 27.9568 8.78326 27.5971 8.79765C26.5038 8.82642 25.4249 8.81203 24.3316 8.81203C23.2814 8.81203 22.2312 8.81203 21.1811 8.81203C20.8646 8.81203 20.6056 8.78326 20.6344 9.27238C20.6488 9.70395 20.7927 9.84781 21.1955 9.84781Z" fill="black"/>
<path d="M53.1319 38.1734C53.3333 38.159 53.5347 37.8857 53.7361 37.7275C53.5635 37.5548 53.4052 37.224 53.2326 37.224C51.0316 37.1952 48.8449 37.1952 46.6439 37.1952C46.2843 37.1952 46.0397 37.3534 46.0397 37.7275C46.0397 38.1303 46.3418 38.2022 46.6727 38.2022C47.7372 38.2022 48.8018 38.2022 49.8807 38.2022V38.1878C50.9597 38.1878 52.053 38.2166 53.1319 38.1734Z" fill="black"/>
<path d="M55.1315 9.84781C56.9585 9.84781 58.7999 9.83342 60.6269 9.83342C60.9578 9.83342 61.303 9.90535 61.5908 9.80465C61.8353 9.73272 62.1518 9.47378 62.1806 9.25799C62.2237 8.95589 61.9648 8.78326 61.5764 8.79765C60.483 8.82642 59.4041 8.81203 58.3108 8.81203C57.2462 8.81203 56.1673 8.82642 55.1028 8.81203C54.7431 8.81203 54.5561 8.91273 54.5705 9.28676C54.5849 9.63202 54.7431 9.84781 55.1315 9.84781Z" fill="black"/>
<path d="M38.3721 9.83342C40.3861 9.81904 42.3857 9.80465 44.3997 9.80465C45.1478 9.80465 45.2197 9.68956 45.0183 8.8408C42.6015 8.8408 40.1703 8.8408 37.7535 8.8408C37.4082 9.53132 37.6096 9.83342 38.3721 9.83342Z" fill="black"/>
<path d="M28.1582 37.7706C28.1726 37.3103 27.8417 37.1808 27.4245 37.1808C26.3887 37.1952 25.3673 37.1808 24.3316 37.1808V37.1952C23.267 37.1952 22.1881 37.1952 21.1235 37.1952C20.7495 37.1952 20.62 37.3678 20.6056 37.7131C20.5913 38.0871 20.807 38.2166 21.1235 38.2166C23.2239 38.2166 25.3242 38.2022 27.4245 38.1878C27.7554 38.2022 28.1582 38.231 28.1582 37.7706Z" fill="black"/>
<path d="M61.5764 37.2096C61.4325 37.1376 61.2023 37.1952 61.0153 37.1952C59.0876 37.1952 57.1599 37.1952 55.2322 37.1808C54.8582 37.1808 54.6136 37.224 54.5993 37.6843C54.5849 38.159 54.8582 38.2166 55.2322 38.2166C56.268 38.2022 57.2894 38.2166 58.3252 38.2166C58.3252 38.2022 58.3252 38.2022 58.3252 38.1878C59.4185 38.1878 60.4974 38.2166 61.5908 38.1734C61.8065 38.159 62.0079 37.8857 62.2093 37.7418C61.9936 37.5548 61.8065 37.339 61.5764 37.2096Z" fill="black"/>
<path d="M41.3787 38.2022V38.2166C42.472 38.2166 43.551 38.2022 44.6443 38.2166C45.0759 38.2166 45.119 37.972 45.119 37.6268C45.119 37.2671 44.9176 37.1664 44.6011 37.1952C44.4285 37.2096 44.2559 37.2096 44.0833 37.2096C42.1556 37.2096 40.2279 37.2096 38.3002 37.1952C37.883 37.1952 37.5233 37.339 37.5665 37.7706C37.5809 37.9432 38.0268 38.1734 38.2858 38.1878C39.3216 38.231 40.3429 38.2022 41.3787 38.2022Z" fill="black"/>
<path d="M29.9276 9.83342C31.8985 9.81904 33.8693 9.83342 35.8402 9.83342C35.9697 9.83342 36.1711 9.87658 36.2286 9.81904C36.3869 9.64641 36.5307 9.41624 36.5739 9.20045C36.6314 8.9415 36.4588 8.81203 36.1711 8.81203C33.8693 8.82642 31.5676 8.81203 29.2515 8.81203C28.9926 9.61764 29.1652 9.83342 29.9276 9.83342Z" fill="black"/>
<path d="M69.9345 38.2022C70.2654 38.2022 70.6394 38.1734 70.6394 37.7418C70.6394 37.339 70.3517 37.1664 69.9489 37.1664C67.8486 37.1808 65.7482 37.1808 63.6479 37.1808C63.2451 37.1808 63.13 37.3822 63.13 37.7562C63.13 38.1303 63.3171 38.1878 63.6335 38.1878C64.6837 38.1734 65.7339 38.1878 66.784 38.1878C66.784 38.1878 66.784 38.1878 66.784 38.2022C67.8342 38.2166 68.8844 38.2166 69.9345 38.2022Z" fill="black"/>
<path d="M63.7774 9.83342C65.7626 9.83342 67.7479 9.81904 69.7331 9.84781C70.5531 9.8622 70.7545 9.61764 70.4668 8.82642C68.1651 8.82642 65.8633 8.82642 63.5472 8.84081C63.4034 8.84081 63.1876 9.02782 63.1444 9.17168C63.0149 9.58887 63.2739 9.83342 63.7774 9.83342Z" fill="black"/>
<path d="M29.755 38.2022C30.8052 38.2022 31.8553 38.2022 32.9055 38.2022C32.9055 38.2022 32.9055 38.2022 32.9055 38.1878C33.97 38.1878 35.049 38.1878 36.1135 38.1878C36.4012 38.1878 36.6314 38.1446 36.617 37.7562C36.6026 37.411 36.5163 37.152 36.0991 37.1808C35.9121 37.1952 35.7251 37.1952 35.5381 37.1952C33.6248 37.1952 31.7115 37.1808 29.8126 37.1808C29.4097 37.1808 29.1364 37.339 29.122 37.7706C29.1076 38.2166 29.4385 38.2022 29.755 38.2022Z" fill="black"/>
<path d="M83.0975 51.7824C82.3495 51.6097 81.6589 51.7536 81.0979 52.4297C80.954 52.2283 80.8965 52.0845 80.8102 52.0125C80.6519 51.8975 80.4505 51.7536 80.3067 51.7824C80.1628 51.8255 79.9758 52.0557 79.9758 52.2139C79.947 53.5806 79.947 54.9616 79.9614 56.3283C79.9614 56.6448 80.0909 56.8893 80.4793 56.8749C80.8533 56.8606 80.8965 56.616 80.8821 56.3283C80.8821 55.5658 80.8821 54.8034 80.8821 54.0409C80.8821 53.221 81.3856 52.7031 82.2056 52.6599C82.4933 52.6455 82.7954 52.7031 83.0544 52.6311C83.2414 52.5736 83.3852 52.3434 83.5435 52.1852C83.3852 52.0413 83.2701 51.8111 83.0975 51.7824Z" fill="black"/>
<path d="M59.735 19.1266C59.7206 18.4793 59.3466 18.134 58.6704 18.1484C58.0087 18.1628 57.6059 18.5512 57.6203 19.1554C57.6347 19.7452 58.0806 20.148 58.7136 20.148C59.3466 20.1336 59.7494 19.7308 59.735 19.1266Z" fill="black"/>
<path d="M75.4011 65.1612C75.9478 65.4057 76.0916 64.8734 76.4081 64.6577C76.5664 64.5426 76.6958 64.3843 76.8829 64.2117C76.739 64.0966 76.6527 63.9815 76.5807 63.9959C76.3362 64.0391 76.0341 64.0678 75.9046 64.2261C75.6888 64.4706 75.5737 64.8303 75.4011 65.1612Z" fill="black"/>
<path d="M69.9345 65.1036C70.1071 65.1324 70.3373 64.8878 70.7113 64.672C70.3805 64.4275 70.2078 64.1973 70.0352 64.1973C69.8482 64.1973 69.6756 64.4275 69.4886 64.5713C69.6324 64.7584 69.7619 65.0748 69.9345 65.1036Z" fill="black"/>
<path d="M104.691 65.0892C104.892 65.1036 105.122 64.8878 105.467 64.7152C105.151 64.4563 104.964 64.1829 104.777 64.1829C104.59 64.1829 104.403 64.4706 104.216 64.6289C104.374 64.7871 104.532 65.0748 104.691 65.0892Z" fill="black"/>
<path d="M53.0312 50.4301C53.0312 50.2719 52.7147 49.9554 52.614 49.9842C52.4126 50.0273 52.1681 50.2575 52.1249 50.4445C52.0818 50.5884 52.3407 50.7898 52.5565 51.1206C52.7867 50.8041 53.0312 50.6171 53.0312 50.4301Z" fill="black"/>
</svg>
