<svg width="121" height="80" viewBox="0 0 121 80" fill="none" xmlns="http://www.w3.org/2000/svg">
<path d="M19.0978 39.3731C18.1451 38.2103 16.9683 37.6289 15.5673 37.6289C14.9508 37.6289 14.3764 37.741 13.8441 37.9651C13.3257 38.1893 12.8774 38.4975 12.4991 38.8898C12.1208 39.2681 11.8196 39.7234 11.5955 40.2558C11.3853 40.7881 11.2802 41.3625 11.2802 41.979C11.2802 42.6094 11.3853 43.1908 11.5955 43.7232C11.8196 44.2556 12.1208 44.7179 12.4991 45.1102C12.8914 45.5025 13.3467 45.8107 13.8651 46.0349C14.3834 46.259 14.9438 46.3711 15.5463 46.3711C16.8632 46.3711 18.0471 45.8107 19.0978 44.6899V49.5654L18.6775 49.7125C18.0471 49.9366 17.4586 50.0978 16.9122 50.1958C16.3659 50.3079 15.8265 50.3639 15.2941 50.3639C14.2013 50.3639 13.1506 50.1608 12.1419 49.7545C11.1471 49.3342 10.2645 48.7528 9.49397 48.0103C8.73743 47.2537 8.12799 46.3641 7.66566 45.3414C7.20333 44.3046 6.97217 43.1768 6.97217 41.958C6.97217 40.7391 7.19633 39.6253 7.64465 38.6166C8.10698 37.5939 8.71641 36.7182 9.47295 35.9897C10.2435 35.2472 11.1331 34.6728 12.1419 34.2665C13.1506 33.8462 14.2083 33.636 15.3151 33.636C15.9456 33.636 16.562 33.7061 17.1644 33.8462C17.7809 33.9723 18.4253 34.1754 19.0978 34.4556V39.3731ZM25.5228 42C25.5228 42.6304 25.6419 43.2119 25.88 43.7442C26.1182 44.2766 26.4404 44.7389 26.8467 45.1312C27.253 45.5235 27.7224 45.8317 28.2547 46.0559C28.8011 46.266 29.3755 46.3711 29.978 46.3711C30.5804 46.3711 31.1478 46.266 31.6802 46.0559C32.2266 45.8317 32.7029 45.5235 33.1092 45.1312C33.5295 44.7389 33.8587 44.2766 34.0969 43.7442C34.3351 43.2119 34.4542 42.6304 34.4542 42C34.4542 41.3695 34.3351 40.7881 34.0969 40.2558C33.8587 39.7234 33.5295 39.261 33.1092 38.8688C32.7029 38.4765 32.2266 38.1753 31.6802 37.9651C31.1478 37.741 30.5804 37.6289 29.978 37.6289C29.3755 37.6289 28.8011 37.741 28.2547 37.9651C27.7224 38.1753 27.253 38.4765 26.8467 38.8688C26.4404 39.261 26.1182 39.7234 25.88 40.2558C25.6419 40.7881 25.5228 41.3695 25.5228 42ZM21.2147 42C21.2147 40.8232 21.4319 39.7304 21.8662 38.7217C22.3005 37.6989 22.9029 36.8093 23.6735 36.0528C24.444 35.2962 25.3617 34.7078 26.4264 34.2875C27.5052 33.8532 28.689 33.636 29.978 33.636C31.2529 33.636 32.4297 33.8532 33.5085 34.2875C34.5872 34.7078 35.5119 35.2962 36.2825 36.0528C37.067 36.8093 37.6764 37.6989 38.1108 38.7217C38.5451 39.7304 38.7622 40.8232 38.7622 42C38.7622 43.1768 38.5451 44.2766 38.1108 45.2993C37.6764 46.3081 37.067 47.1907 36.2825 47.9472C35.5119 48.7038 34.5872 49.2992 33.5085 49.7335C32.4297 50.1538 31.2529 50.3639 29.978 50.3639C28.689 50.3639 27.5052 50.1538 26.4264 49.7335C25.3617 49.2992 24.444 48.7038 23.6735 47.9472C22.9029 47.1907 22.3005 46.3081 21.8662 45.2993C21.4319 44.2766 21.2147 43.1768 21.2147 42ZM44.9576 42C44.9576 42.6304 45.0766 43.2119 45.3148 43.7442C45.553 44.2766 45.8752 44.7389 46.2815 45.1312C46.6878 45.5235 47.1571 45.8317 47.6895 46.0559C48.2359 46.266 48.8103 46.3711 49.4127 46.3711C50.0152 46.3711 50.5826 46.266 51.1149 46.0559C51.6613 45.8317 52.1377 45.5235 52.544 45.1312C52.9643 44.7389 53.2935 44.2766 53.5317 43.7442C53.7698 43.2119 53.8889 42.6304 53.8889 42C53.8889 41.3695 53.7698 40.7881 53.5317 40.2558C53.2935 39.7234 52.9643 39.261 52.544 38.8688C52.1377 38.4765 51.6613 38.1753 51.1149 37.9651C50.5826 37.741 50.0152 37.6289 49.4127 37.6289C48.8103 37.6289 48.2359 37.741 47.6895 37.9651C47.1571 38.1753 46.6878 38.4765 46.2815 38.8688C45.8752 39.261 45.553 39.7234 45.3148 40.2558C45.0766 40.7881 44.9576 41.3695 44.9576 42ZM40.6495 42C40.6495 40.8232 40.8666 39.7304 41.3009 38.7217C41.7353 37.6989 42.3377 36.8093 43.1082 36.0528C43.8788 35.2962 44.7964 34.7078 45.8612 34.2875C46.94 33.8532 48.1238 33.636 49.4127 33.636C50.6876 33.636 51.8645 33.8532 52.9432 34.2875C54.022 34.7078 54.9467 35.2962 55.7172 36.0528C56.5018 36.8093 57.1112 37.6989 57.5455 38.7217C57.9798 39.7304 58.197 40.8232 58.197 42C58.197 43.1768 57.9798 44.2766 57.5455 45.2993C57.1112 46.3081 56.5018 47.1907 55.7172 47.9472C54.9467 48.7038 54.022 49.2992 52.9432 49.7335C51.8645 50.1538 50.6876 50.3639 49.4127 50.3639C48.1238 50.3639 46.94 50.1538 45.8612 49.7335C44.7964 49.2992 43.8788 48.7038 43.1082 47.9472C42.3377 47.1907 41.7353 46.3081 41.3009 45.2993C40.8666 44.2766 40.6495 43.1768 40.6495 42ZM64.9177 41.3485H66.2834C67.7965 41.3485 68.553 40.6901 68.553 39.3731C68.553 38.0562 67.7965 37.3977 66.2834 37.3977H64.9177V41.3485ZM64.9177 49.9226H60.7988V34.0774H67.3551C69.1344 34.0774 70.4934 34.5397 71.432 35.4643C72.3847 36.389 72.8611 37.6919 72.8611 39.3731C72.8611 41.0543 72.3847 42.3573 71.432 43.2819C70.4934 44.2066 69.1344 44.6689 67.3551 44.6689H64.9177V49.9226Z" fill="black"/>
<path d="M86.4525 39.3731C85.4998 38.2103 84.323 37.6289 82.922 37.6289C82.3056 37.6289 81.7311 37.741 81.1988 37.9651C80.6804 38.1893 80.2321 38.4975 79.8538 38.8898C79.4755 39.2681 79.1743 39.7234 78.9502 40.2558C78.74 40.7881 78.6349 41.3625 78.6349 41.979C78.6349 42.6094 78.74 43.1908 78.9502 43.7232C79.1743 44.2556 79.4755 44.7179 79.8538 45.1102C80.2461 45.5025 80.7014 45.8107 81.2198 46.0349C81.7381 46.259 82.2985 46.3711 82.901 46.3711C84.2179 46.3711 85.4018 45.8107 86.4525 44.6899V49.5654L86.0322 49.7125C85.4018 49.9366 84.8133 50.0978 84.2669 50.1958C83.7206 50.3079 83.1812 50.3639 82.6488 50.3639C81.556 50.3639 80.5053 50.1608 79.4965 49.7545C78.5018 49.3342 77.6192 48.7528 76.8487 48.0103C76.0921 47.2537 75.4827 46.3641 75.0204 45.3414C74.558 44.3046 74.3269 43.1768 74.3269 41.958C74.3269 40.7391 74.551 39.6253 74.9993 38.6166C75.4617 37.5939 76.0711 36.7182 76.8276 35.9897C77.5982 35.2472 78.4878 34.6728 79.4965 34.2665C80.5053 33.8462 81.563 33.636 82.6698 33.636C83.3003 33.636 83.9167 33.7061 84.5191 33.8462C85.1356 33.9723 85.78 34.1754 86.4525 34.4556V39.3731ZM98.0434 44.0384L96.1941 38.7637L94.3448 44.0384H98.0434ZM99.1362 47.1697H93.252L92.3063 49.9226H87.9142L93.9455 34.0774H98.4427L104.474 49.9226H100.082L99.1362 47.1697ZM111.589 37.5658V49.9226H107.47V37.5658H104.086V34.0774H114.972V37.5658H111.589Z" fill="black"/>
</svg>
