<svg width="121" height="80" viewBox="0 0 121 80" fill="none" xmlns="http://www.w3.org/2000/svg">
<path d="M28.2115 24.2077H19.55C18.9558 24.2077 18.4759 24.6876 18.4759 25.3047V54.5116C18.4759 55.1058 18.9558 55.5857 19.55 55.5857H28.2115C28.8057 55.5857 29.2856 55.1058 29.2856 54.5116V25.2818C29.2856 24.6876 28.8057 24.2077 28.2115 24.2077Z" fill="black"/>
<path d="M10.8885 31.7951H15.2307C15.8249 31.7951 16.3048 32.275 16.3048 32.8692V54.5345C16.3048 55.1287 15.8249 55.6086 15.2307 55.6086H10.8885C7.89465 55.6086 5.47217 53.1861 5.47217 50.1923V37.2114C5.47217 34.2176 7.89465 31.7951 10.8885 31.7951Z" fill="black"/>
<path d="M97.6636 40.2281C96.7493 40.251 96.0409 41.028 96.064 41.9421V42.0564C96.0866 42.9705 96.8638 43.679 97.7781 43.6561C98.6923 43.6333 99.4007 42.8563 99.3776 41.9421V41.8278C99.355 40.9137 98.5778 40.2052 97.6636 40.2281Z" fill="black"/>
<path d="M79.8149 41.9421C79.8149 41.028 80.569 40.2738 81.4832 40.2738C82.3975 40.2738 83.1516 41.028 83.1516 41.9421C83.1516 42.8563 82.3975 43.6105 81.4832 43.6105C80.569 43.5876 79.8149 42.8563 79.8149 41.9421Z" fill="black"/>
<path fill-rule="evenodd" clip-rule="evenodd" d="M53.6704 40.8908H56.1389C56.2759 40.8908 56.3899 40.9823 56.3899 41.1194V55.3572C56.3899 55.4943 56.2985 55.6086 56.1614 55.6086H53.6704C53.5333 55.6086 53.4191 55.5172 53.4191 55.38V54.6716C53.4191 54.5802 53.3505 54.5573 53.2819 54.6259C52.7106 55.38 51.8193 55.8143 50.8595 55.7914C48.8712 55.7914 47.4086 54.6259 46.7915 52.729C46.5401 51.9063 46.4258 51.0378 46.4258 50.1923C46.403 49.301 46.5401 48.4326 46.8144 47.5869C47.4314 45.8501 48.8026 44.6617 50.9052 44.6617C51.9793 44.6617 52.7334 45.0502 53.2591 45.713C53.3276 45.8044 53.3962 45.7587 53.3962 45.6673V41.1651C53.4191 41.0051 53.5333 40.9137 53.6704 40.8908ZM51.5222 53.2547C52.1849 53.2547 52.6649 52.9119 52.9848 52.3405C53.2591 51.8377 53.4191 51.0836 53.4191 50.2151C53.4191 49.2781 53.282 48.5468 52.962 47.9983C52.6878 47.4956 52.1393 47.1756 51.5451 47.1756C50.9281 47.1528 50.3567 47.4727 50.0596 47.9983C49.7168 48.524 49.5339 49.2781 49.5339 50.238C49.5111 50.9693 49.6711 51.6778 49.9682 52.3405C50.2881 52.9119 50.8823 53.2547 51.5222 53.2547Z" fill="black"/>
<path fill-rule="evenodd" clip-rule="evenodd" d="M58.2184 47.8612C58.858 45.8729 60.5494 44.5931 62.7891 44.5931C65.6684 44.5931 67.3599 46.4443 67.7028 49.0724C67.771 49.6895 67.7942 50.2837 67.771 50.8779C67.771 51.015 67.6571 51.1293 67.4969 51.1293H61.0063C60.938 51.1293 60.8924 51.175 60.9149 51.2435C60.9606 51.5407 61.0294 51.8149 61.1433 52.0892C61.4863 52.7976 62.149 53.2547 63.383 53.2547C64.229 53.2547 65.0057 52.8661 65.5088 52.1577C65.6227 52.0206 65.7141 51.9977 65.8517 52.112L67.3599 53.5975C67.4738 53.666 67.4969 53.8031 67.4056 53.9174C67.4056 53.9289 67.3999 53.9345 67.3943 53.9403C67.3886 53.946 67.3824 53.9517 67.3824 53.9631C66.4456 55.1287 64.8686 55.7914 63.1089 55.7686C60.7096 55.7686 59.0413 54.5802 58.3329 52.6605C58.0125 51.8377 57.8755 50.9693 57.8986 50.1009C57.8755 49.3467 57.9668 48.5925 58.2184 47.8612ZM64.6633 49.2096C64.7316 49.2096 64.7773 49.1639 64.7547 49.0953C64.7367 49.0052 64.722 48.9221 64.7085 48.8434C64.687 48.7225 64.6678 48.6118 64.6402 48.5011C64.3887 47.6555 63.7491 47.1756 62.8117 47.1756C61.8749 47.1756 61.3035 47.6327 61.052 48.4326C60.9837 48.6611 60.938 48.8668 60.9149 49.0953C60.9149 49.141 60.9606 49.1867 61.0063 49.2096H64.6633Z" fill="black"/>
<path d="M76.0214 49.0039L78.4438 48.6383H78.4669C78.604 48.6154 78.6722 48.4783 78.6497 48.364C78.6497 48.1126 78.5808 47.8612 78.4895 47.6098C77.9413 45.9415 76.1584 44.6389 73.8505 44.6389C71.6108 44.6389 69.8511 45.8044 69.1878 47.7013C68.9137 48.5011 68.7998 49.3239 68.8223 50.1466C68.8223 50.9922 68.9368 51.8377 69.1878 52.6376C69.8737 54.5573 71.5877 55.7914 73.8042 55.7914C75.9757 55.7914 77.8268 54.6716 78.4438 52.7748C78.5126 52.5691 78.5583 52.3862 78.5808 52.1805V52.1577C78.604 52.0206 78.5126 51.9063 78.375 51.9063L75.9526 51.5407H75.93C75.8155 51.5178 75.7016 51.6092 75.6785 51.7464C75.6785 51.7692 75.6784 51.792 75.6559 51.8149C75.6559 51.8606 75.6559 51.9063 75.6328 51.952C75.3812 52.7519 74.6503 53.2775 73.8042 53.2547C72.9588 53.2775 72.2047 52.729 71.9989 51.9063C71.8392 51.3578 71.7704 50.7636 71.7936 50.1923C71.7704 49.5981 71.8392 49.0039 72.022 48.4554C72.2735 47.6784 72.8906 47.1985 73.8042 47.1985C74.7642 47.1985 75.4726 47.7698 75.6559 48.4554L75.7241 48.7982V48.8211C75.7698 48.9582 75.8843 49.0268 76.0214 49.0039Z" fill="black"/>
<path d="M82.6947 44.776H80.2035C80.0664 44.776 79.9751 44.8902 79.9751 45.0274V55.3572C79.9751 55.5172 80.089 55.6314 80.2266 55.6086H82.7173C82.8544 55.6086 82.9457 55.4943 82.9457 55.3572V45.0045C82.9457 44.8674 82.8318 44.776 82.6947 44.776Z" fill="black"/>
<path fill-rule="evenodd" clip-rule="evenodd" d="M91.6992 40.8908H94.1673C94.3043 40.8908 94.4183 40.9823 94.4183 41.1194V55.3572C94.4183 55.4943 94.3269 55.6086 94.1898 55.6086H91.6992C91.5615 55.6086 91.4476 55.5172 91.4476 55.38V54.6716C91.4476 54.5802 91.3788 54.5573 91.3106 54.6259C90.7392 55.38 89.8475 55.8143 88.8881 55.7914C86.8994 55.7914 85.437 54.6259 84.8199 52.729C84.5684 51.9063 84.4544 51.0378 84.4544 50.1923C84.4313 49.301 84.5684 48.4326 84.843 47.5869C85.4601 45.8501 86.8312 44.6617 88.9338 44.6617C90.0077 44.6617 90.7618 45.0502 91.2874 45.713C91.3562 45.8044 91.4245 45.7587 91.4245 45.6673V41.1651C91.4476 41.0051 91.539 40.9137 91.6992 40.8908ZM89.5277 53.2547C90.1904 53.2547 90.6704 52.9119 90.9902 52.3405C91.2874 51.8377 91.4245 51.0836 91.4245 50.2151C91.4245 49.2781 91.2874 48.5468 90.9676 47.9983C90.6935 47.4956 90.1447 47.1756 89.5508 47.1756C88.9338 47.1528 88.3625 47.4727 88.0652 47.9983C87.7223 48.524 87.5396 49.2781 87.5396 50.238C87.5165 50.9693 87.6766 51.6778 87.9739 52.3405C88.2937 52.9119 88.8881 53.2547 89.5277 53.2547Z" fill="black"/>
<path d="M98.9433 44.776C99.0804 44.776 99.1948 44.8674 99.1948 45.0045V55.3572C99.1948 55.4943 99.1035 55.6086 98.9664 55.6086H96.4752C96.3381 55.6314 96.2237 55.5172 96.2237 55.3572V45.0274C96.2237 44.8902 96.3156 44.776 96.4526 44.776H98.9433Z" fill="black"/>
<path d="M112.953 44.6617C111.65 44.6617 110.553 45.1874 109.913 46.3529C109.868 46.4443 109.822 46.4443 109.776 46.3529C109.227 45.3016 108.154 44.6617 106.737 44.6617C105.571 44.6617 104.657 45.0502 104.063 45.9415C103.994 46.0329 103.926 45.9872 103.926 45.8958V45.0502C103.926 44.9131 103.811 44.8217 103.674 44.8217H101.183C101.046 44.8217 100.955 44.9359 100.955 45.0731V55.4029C100.955 55.5401 101.069 55.6314 101.206 55.6314H103.697C103.834 55.6314 103.926 55.5172 103.926 55.3801V48.7068C104.063 47.7698 104.68 47.1985 105.594 47.1985C106.6 47.1985 107.262 47.9298 107.262 49.0724V55.4029C107.262 55.5401 107.376 55.6314 107.513 55.6314H109.982C110.119 55.6314 110.211 55.5172 110.211 55.3801V49.0496C110.211 47.9069 110.896 47.1985 111.879 47.1985C112.861 47.1985 113.502 47.9298 113.502 49.0724V55.4029C113.502 55.5401 113.615 55.6314 113.753 55.6314H116.244C116.381 55.6314 116.472 55.5172 116.472 55.3801V48.4097C116.472 46.0329 115.169 44.6389 112.953 44.6617Z" fill="black"/>
<path d="M43.3174 49.3243C43.7965 52.2771 41.7913 55.0593 38.8386 55.5385C35.8858 56.0177 33.1036 54.0125 32.6245 51.0597C32.1452 48.107 34.1504 45.3248 37.1032 44.8456C40.056 44.3664 42.8381 46.3716 43.3174 49.3243Z" fill="black"/>
</svg>
