<svg width="120" height="80" viewBox="0 0 120 80" fill="none" xmlns="http://www.w3.org/2000/svg">
<path d="M40.4296 37.7228H43.7921V39.0602H38.8756V32.7495H43.7638V34.0872H40.4296V35.2738H43.4907V36.5361H40.4296V37.7228Z" fill="black"/>
<path d="M48.0089 34.3321H49.5158V39.0602H48.0089V38.6081C47.6511 38.9848 47.1519 39.2015 46.5584 39.2015C45.4564 39.2015 44.7218 38.4198 44.7218 37.2329V34.3321H46.2194V36.9129C46.2194 37.4685 46.5491 37.8453 47.0294 37.8453C47.6229 37.8453 48.0089 37.4403 48.0089 36.5265V34.3321Z" fill="black"/>
<path d="M52.107 35.2363C52.4459 34.671 52.964 34.2661 53.7364 34.2661C53.8682 34.2661 53.9624 34.2754 54.0756 34.3036L54.0096 35.8109H53.7364C52.6815 35.8109 52.107 36.3569 52.107 37.5814V39.0602H50.6V34.3321H52.107V35.2363Z" fill="black"/>
<path fill-rule="evenodd" clip-rule="evenodd" d="M54.4276 36.6961C54.4276 35.2078 55.6145 34.2096 57.0461 34.2096C58.4495 34.2096 59.6362 35.2078 59.6362 36.6961C59.6362 38.1938 58.4495 39.1922 57.0461 39.1922C55.6145 39.1922 54.4276 38.1938 54.4276 36.6961ZM55.8781 36.6961C55.8781 37.4403 56.434 37.9206 57.0461 37.9206C57.63 37.9206 58.1859 37.4403 58.1859 36.6961C58.1859 35.9616 57.63 35.4717 57.0461 35.4717C56.434 35.4717 55.8781 35.9616 55.8781 36.6961Z" fill="black"/>
<path fill-rule="evenodd" clip-rule="evenodd" d="M61.941 34.7089C62.3082 34.379 62.7981 34.1907 63.4102 34.1907C64.6632 34.1907 65.7182 35.2078 65.7182 36.6961C65.7182 38.1938 64.6632 39.2015 63.4102 39.2015C62.7981 39.2015 62.3082 39.013 61.941 38.6834V40.6614H60.4341V34.3321H61.941V34.7089ZM61.941 36.6961C61.941 37.4307 62.4874 37.9206 63.0995 37.9206C63.7587 37.9206 64.239 37.4307 64.239 36.6961C64.239 35.9709 63.7587 35.4717 63.0995 35.4717C62.4874 35.4717 61.941 35.9709 61.941 36.6961Z" fill="black"/>
<path fill-rule="evenodd" clip-rule="evenodd" d="M68.7545 34.1907C70.0915 34.1907 71.1657 35.1514 71.1938 36.6961L71.1945 37.0822H67.7283C67.8505 37.6475 68.2369 37.9959 68.7455 37.9959C69.0935 37.9959 69.4985 37.911 69.7531 37.4496L71.0902 37.7228C70.6852 38.7212 69.8286 39.2015 68.7449 39.2015C67.3796 39.2015 66.2492 38.1938 66.2492 36.6961C66.2492 35.2078 67.3796 34.1907 68.7545 34.1907ZM69.7058 36.1591C69.5644 35.6506 69.1876 35.4152 68.7545 35.4152C68.3309 35.4152 67.8978 35.6788 67.7564 36.1591H69.7058Z" fill="black"/>
<path fill-rule="evenodd" clip-rule="evenodd" d="M75.4962 34.3321H77.0035V39.0602H75.4962V38.6834C75.129 39.013 74.6396 39.2015 74.0273 39.2015C72.7747 39.2015 71.7197 38.1938 71.7197 36.6961C71.7197 35.2078 72.7747 34.1907 74.0273 34.1907C74.6396 34.1907 75.129 34.379 75.4962 34.7089V34.3321ZM73.1982 36.6961C73.1982 37.4307 73.6787 37.9206 74.3383 37.9206C74.9499 37.9206 75.4962 37.4307 75.4962 36.6961C75.4962 35.9709 74.9499 35.4717 74.3383 35.4717C73.6787 35.4717 73.1982 35.9709 73.1982 36.6961Z" fill="black"/>
<path d="M79.599 34.7842C79.9572 34.4075 80.4563 34.1907 81.0493 34.1907C82.1516 34.1907 82.8867 34.9724 82.8867 36.1591V39.0602H81.389V36.4794C81.389 35.9237 81.0596 35.547 80.5791 35.547C79.9854 35.547 79.599 35.952 79.599 36.8657V39.0602H78.0924V34.3321H79.599V34.7842Z" fill="black"/>
<path d="M89.4231 37.7888C90.2234 37.7888 90.8645 37.3365 91.0807 36.3947L92.6059 36.6961C92.3142 38.2785 91.0423 39.2015 89.4225 39.2015C87.5486 39.2015 86.0695 37.7603 86.0695 35.9048C86.0695 34.0589 87.5486 32.6084 89.4225 32.6084C90.9764 32.6084 92.2956 33.5315 92.5969 35.0289L91.0711 35.387C90.8734 34.4732 90.233 34.0305 89.4231 34.0305C88.4244 34.0305 87.6241 34.8311 87.6241 35.9048C87.6241 36.9786 88.4244 37.7888 89.4231 37.7888Z" fill="black"/>
<path fill-rule="evenodd" clip-rule="evenodd" d="M97.001 34.3321H98.5083V39.0602H97.001V38.6834C96.6338 39.013 96.1438 39.2015 95.5315 39.2015C94.2789 39.2015 93.2239 38.1938 93.2239 36.6961C93.2239 35.2078 94.2789 34.1907 95.5315 34.1907C96.1438 34.1907 96.6338 34.379 97.001 34.7089V34.3321ZM94.703 36.6961C94.703 37.4307 95.1835 37.9206 95.8431 37.9206C96.4547 37.9206 97.001 37.4307 97.0017 36.6961C97.0017 35.9709 96.4553 35.4717 95.8431 35.4717C95.1835 35.4717 94.703 35.9709 94.703 36.6961Z" fill="black"/>
<path fill-rule="evenodd" clip-rule="evenodd" d="M101.104 34.7089C101.471 34.379 101.961 34.1907 102.573 34.1907C103.826 34.1907 104.881 35.2078 104.881 36.6961C104.881 38.1938 103.826 39.2015 102.573 39.2015C101.961 39.2015 101.471 39.013 101.104 38.6834V40.6614H99.5972V34.3321H101.104V34.7089ZM101.104 36.6961C101.104 37.4307 101.65 37.9206 102.262 37.9206C102.922 37.9206 103.402 37.4307 103.402 36.6961C103.402 35.9709 102.922 35.4717 102.262 35.4717C101.65 35.4717 101.104 35.9709 101.104 36.6961Z" fill="black"/>
<path d="M105.607 32.938C105.607 32.4764 105.965 32.081 106.473 32.081C106.982 32.081 107.35 32.4764 107.35 32.938C107.35 33.4184 106.982 33.7762 106.473 33.7762C105.965 33.7762 105.607 33.4184 105.607 32.938Z" fill="black"/>
<path d="M107.227 34.3321V39.0602H105.72V34.3321H107.227Z" fill="black"/>
<path d="M110.811 37.8546C111.017 37.8546 111.3 37.7792 111.499 37.6663L111.847 38.853C111.479 39.0508 111.094 39.2015 110.556 39.2015C109.379 39.2015 108.673 38.5609 108.673 37.3178V35.5281H107.816V34.3321H108.673V32.938H110.179V34.3321H111.573V35.5281H110.179V37.1671C110.179 37.6567 110.415 37.8546 110.811 37.8546Z" fill="black"/>
<path fill-rule="evenodd" clip-rule="evenodd" d="M115.898 34.3321H117.405V39.0602H115.898V38.6834C115.53 39.013 115.041 39.2015 114.429 39.2015C113.176 39.2015 112.121 38.1938 112.121 36.6961C112.121 35.2078 113.176 34.1907 114.429 34.1907C115.041 34.1907 115.53 34.379 115.898 34.7089V34.3321ZM113.6 36.6961C113.6 37.4307 114.079 37.9206 114.74 37.9206C115.351 37.9206 115.898 37.4307 115.898 36.6961C115.898 35.9709 115.351 35.4717 114.74 35.4717C114.08 35.4717 113.6 35.9709 113.6 36.6961Z" fill="black"/>
<path d="M120 32.2788V39.0602H118.492V32.2788H120Z" fill="black"/>
<path fill-rule="evenodd" clip-rule="evenodd" d="M38.5645 46.5073C38.5645 45.019 39.7514 44.0205 41.183 44.0205C42.5864 44.0205 43.773 45.019 43.773 46.5073C43.773 48.005 42.5864 49.0034 41.183 49.0034C39.7514 49.0034 38.5645 48.005 38.5645 46.5073ZM40.015 46.5073C40.015 47.2515 40.5709 47.732 41.183 47.732C41.7669 47.732 42.3225 47.2515 42.3225 46.5073C42.3225 45.7725 41.7669 45.2826 41.183 45.2826C40.5709 45.2826 40.015 45.7725 40.015 46.5073Z" fill="black"/>
<path d="M46.3048 43.8417V44.1433H47.6046V45.3393H46.3048V48.8711H44.8074V45.339H44.129V44.1431H44.8074V43.7753C44.8074 42.6641 45.5702 41.9574 46.71 41.9574C47.03 41.9574 47.341 42.0235 47.6424 42.1555L47.3221 43.3235C47.1808 43.2761 47.03 43.2482 46.9171 43.2482C46.5593 43.2482 46.3048 43.4647 46.3048 43.8417Z" fill="black"/>
<path fill-rule="evenodd" clip-rule="evenodd" d="M50.4585 48.8713V42.561L52.9546 42.5607C55.0361 42.5607 56.4113 43.8417 56.4113 45.7158C56.4113 47.5904 55.0361 48.8713 52.9546 48.8713H50.4585ZM52.0126 43.9077V47.5244H52.8978C54.0752 47.5244 54.8476 46.8088 54.8476 45.7158C54.8476 44.6236 54.0752 43.9077 52.8978 43.9077H52.0126Z" fill="black"/>
<path fill-rule="evenodd" clip-rule="evenodd" d="M59.554 44.0019C60.8917 44.0019 61.9657 44.9623 61.9937 46.5073V46.8931H58.5274C58.6498 47.4584 59.0362 47.8074 59.5447 47.8074C59.8932 47.8074 60.2984 47.7219 60.5525 47.2608L61.8898 47.5337C61.4851 48.5321 60.6278 49.0127 59.5447 49.0127C58.1789 49.0127 57.0487 48.005 57.0487 46.5073C57.0487 45.019 58.1789 44.0019 59.554 44.0019ZM60.5053 45.97C60.3639 45.4615 59.9875 45.2264 59.554 45.2264C59.1302 45.2264 58.697 45.4903 58.5556 45.97H60.5053Z" fill="black"/>
<path d="M67.2486 44.8028C67.6247 44.3129 68.1903 44.0019 68.9247 44.0019C69.9324 44.0019 70.7333 44.7647 70.7333 45.9139V48.8713H69.2357V46.2344C69.2357 45.6977 68.887 45.3582 68.4443 45.3582C67.8883 45.3582 67.5217 45.7632 67.5217 46.5547V48.8713H66.0145V46.2344C66.0145 45.6977 65.6658 45.3582 65.2141 45.3582C64.6678 45.3582 64.3095 45.7632 64.3095 46.5547V48.8713H62.8025V44.1433H64.3095V44.5765C64.63 44.2187 65.0913 44.0019 65.7036 44.0019C66.3625 44.0019 66.928 44.2844 67.2486 44.8028Z" fill="black"/>
<path fill-rule="evenodd" clip-rule="evenodd" d="M71.4927 46.5073C71.4927 45.019 72.6795 44.0205 74.1106 44.0205C75.5142 44.0205 76.701 45.019 76.701 46.5073C76.701 48.005 75.5142 49.0034 74.1106 49.0034C72.6795 49.0034 71.4927 48.005 71.4927 46.5073ZM72.9431 46.5073C72.9431 47.2515 73.4984 47.732 74.1106 47.732C74.6947 47.732 75.2507 47.2515 75.2507 46.5073C75.2507 45.7725 74.6947 45.2826 74.1106 45.2826C73.4984 45.2826 72.9431 45.7725 72.9431 46.5073Z" fill="black"/>
<path d="M78.6599 46.5073C78.6599 47.2041 79.1122 47.694 79.7904 47.694C80.2702 47.694 80.6566 47.4397 80.8172 46.8649L82.2016 47.1666C81.9662 48.2872 80.9675 49.0127 79.7904 49.0127C78.3778 49.0127 77.2096 48.005 77.2096 46.5073C77.2096 45.019 78.3772 44.0019 79.7904 44.0019C80.9394 44.0019 81.938 44.708 82.2016 45.8199L80.789 46.1588C80.6573 45.5843 80.2708 45.3207 79.7904 45.3207C79.1122 45.3207 78.6599 45.8199 78.6599 46.5073Z" fill="black"/>
<path d="M84.4843 45.0477C84.8234 44.4823 85.3416 44.0773 86.1137 44.0773C86.2455 44.0773 86.3396 44.0866 86.4528 44.1151L86.3869 45.6226H86.1137C85.0588 45.6226 84.4843 46.1684 84.4843 47.3926V48.8716H82.9776V44.1436H84.4843V45.0477Z" fill="black"/>
<path fill-rule="evenodd" clip-rule="evenodd" d="M90.5869 44.1433H92.0936V48.8713H90.5869V48.4948C90.2191 48.8239 89.7297 49.0127 89.1168 49.0127C87.8641 49.0127 86.8092 48.005 86.8092 46.5073C86.8092 45.019 87.8641 44.0019 89.1168 44.0019C89.7297 44.0019 90.2191 44.1901 90.5869 44.5198V44.1433ZM88.2889 46.5073C88.2889 47.2422 88.7687 47.732 89.4283 47.732C90.0406 47.732 90.5869 47.2422 90.5869 46.5073C90.5869 45.7818 90.0406 45.2826 89.4283 45.2826C88.7687 45.2826 88.2889 45.7818 88.2889 46.5073Z" fill="black"/>
<path d="M94.3417 46.5073C94.3417 47.2041 94.794 47.694 95.4721 47.694C95.9526 47.694 96.339 47.4397 96.4989 46.8649L97.8834 47.1666C97.6479 48.2872 96.6493 49.0127 95.4721 49.0127C94.0595 49.0127 92.8913 48.005 92.8913 46.5073C92.8913 45.019 94.0595 44.0019 95.4721 44.0019C96.6211 44.0019 97.6198 44.708 97.8834 45.8199L96.4708 46.1588C96.339 45.5843 95.9526 45.3207 95.4721 45.3207C94.794 45.3207 94.3417 45.8199 94.3417 46.5073Z" fill="black"/>
<path d="M101.933 44.134H103.554L100.822 50.4723H99.1923L99.9549 48.7111L97.9966 44.134H99.6165L100.737 46.8931L101.933 44.134Z" fill="black"/>
<path d="M2.75818 45.0872C2.05236 45.0872 1.34654 44.8177 0.807925 44.2791C-0.269308 43.2022 -0.269308 41.4559 0.807925 40.3786L10.3771 30.8083L10.3779 30.8073C10.8777 30.3086 11.5675 30 12.3295 30C13.0915 30 13.7811 30.3086 14.2808 30.8073L14.2821 30.8083L16.2454 32.7719L14.4528 34.5648C14.3979 34.6117 14.345 34.6604 14.2941 34.7113L14.2928 34.7123L8.61638 40.3893L4.70844 44.2791C4.16983 44.8177 3.464 45.0872 2.75818 45.0872Z" fill="#828282"/>
<path d="M29.7324 45.0872C29.0265 45.0872 28.3207 44.8177 27.7821 44.2791L23.8712 40.3869L18.1975 34.7126L18.1967 34.7115C18.1458 34.6609 18.0926 34.6119 18.038 34.5653L16.2451 32.7722L18.2084 30.8086L18.2095 30.8075C18.7092 30.3086 19.3991 30 20.1611 30C20.9228 30 21.6124 30.3086 22.1124 30.8073L22.1134 30.8083L31.6826 40.3783C32.7598 41.4559 32.7598 43.2019 31.6826 44.2789C31.144 44.8177 30.4382 45.0872 29.7324 45.0872Z" fill="#8F8F8F"/>
<path d="M18.0386 34.565C17.556 34.1529 16.93 33.9039 16.2457 33.9039C15.5615 33.9039 14.9358 34.1529 14.4531 34.5648L16.2457 32.7719L18.0386 34.565Z" fill="#535353"/>
<path d="M25.8163 48.9909C25.1105 48.9909 24.4047 48.7214 23.8661 48.1834L18.2467 42.59C17.7429 42.0586 17.035 41.7226 16.245 41.7226C15.4548 41.7226 14.7471 42.0586 14.2434 42.59L8.62396 48.1834C8.08535 48.7214 7.3795 48.9909 6.67372 48.9909C5.96762 48.9909 5.2618 48.7214 4.72345 48.1834C3.64622 47.1064 3.64622 45.3598 4.72345 44.2828L8.61596 40.3895L10.3274 38.6863C10.3793 38.6315 10.4336 38.5787 10.4896 38.5281L8.63912 40.3788C7.56216 41.4563 7.56216 43.2024 8.63912 44.2794C9.17774 44.818 9.88358 45.0874 10.5894 45.0874C11.2955 45.0874 12.0013 44.818 12.5399 44.2794L16.245 40.5913L19.9501 44.2794C20.4887 44.818 21.1946 45.0874 21.9003 45.0874C22.6064 45.0874 23.3123 44.818 23.8509 44.2794C24.9279 43.2024 24.9279 41.4561 23.8509 40.3788L22.0007 38.5287C22.0566 38.579 22.1107 38.6317 22.1623 38.6863L23.8711 40.3871L27.7666 44.2831C28.8438 45.3601 28.8438 47.1067 27.7666 48.1837C27.2279 48.7214 26.5221 48.9909 25.8163 48.9909Z" fill="#9A9A9A"/>
<path d="M21.9011 45.0871C21.1953 45.0871 20.4895 44.8177 19.9508 44.2791L16.2457 40.591L18.1601 38.686C18.6638 38.1543 19.3715 37.8188 20.1617 37.8188C20.8705 37.8188 21.5132 38.089 22.0015 38.5284L23.8516 40.3786C24.9286 41.456 24.9286 43.2021 23.8516 44.2791C23.313 44.8177 22.6072 45.0871 21.9011 45.0871ZM8.6167 40.3892L14.2931 34.7123L14.2942 34.7112C14.345 34.6603 14.3983 34.6116 14.4531 34.5648L10.4903 38.5279C10.4344 38.5785 10.3801 38.6312 10.3282 38.686L8.6167 40.3892Z" fill="#595959"/>
<path d="M10.59 45.0872C9.88421 45.0872 9.17837 44.8178 8.63976 44.2792C7.56279 43.2022 7.56279 41.4559 8.63976 40.3786L10.4902 38.5279C10.9787 38.0889 11.6212 37.819 12.3297 37.819C13.1199 37.819 13.8276 38.1544 14.3313 38.6861L16.2456 40.5911L12.5406 44.2792C12.0019 44.8178 11.2961 45.0872 10.59 45.0872ZM23.8717 40.3869L22.163 38.6861C22.1113 38.6315 22.0573 38.5788 22.0014 38.5285L18.0386 34.5651C18.0931 34.6117 18.1461 34.6607 18.197 34.7113L18.198 34.7124L23.8717 40.3869Z" fill="#6B6B6B"/>
<path d="M16.2457 40.591L14.3313 38.686C13.8277 38.1543 13.12 37.8188 12.3297 37.8188C11.6213 37.8188 10.9788 38.0888 10.4902 38.5279L14.453 34.5648C14.9357 34.1529 15.5614 33.9039 16.2457 33.9039C16.9299 33.9039 17.5559 34.1529 18.0386 34.565L22.0014 38.5284C21.5131 38.0891 20.8704 37.8188 20.1616 37.8188C19.3714 37.8188 18.6637 38.1543 18.16 38.686L16.2457 40.591Z" fill="#5E5E5E"/>
</svg>
