<svg width="121" height="80" viewBox="0 0 121 80" fill="none" xmlns="http://www.w3.org/2000/svg">
<path d="M107.41 49.7693C107.41 49.5251 107.41 49.2808 107.41 49.051C107.41 48.8067 107.41 48.5769 107.41 48.3326C107.41 47.6287 107.395 47.6287 106.706 47.643C106.677 47.643 106.634 47.643 106.605 47.643C106.361 47.643 106.26 47.7723 106.26 48.0166C106.275 48.5338 106.275 49.051 106.26 49.5682C106.26 49.8555 106.246 50.1428 106.189 50.4158C106.088 50.8755 105.686 51.1341 105.24 51.0767C104.781 51.0192 104.579 50.775 104.579 50.2434C104.579 49.6544 104.579 49.051 104.579 48.4619C104.579 47.5999 104.551 47.5856 103.703 47.643C103.459 47.6574 103.358 47.758 103.358 48.0022C103.373 48.7636 103.33 49.5394 103.387 50.3009C103.416 50.7175 103.531 51.1772 103.761 51.522C104.192 52.1541 105.24 52.2403 105.872 51.7806C106.074 51.6369 106.145 51.6657 106.347 51.795C106.562 51.9386 106.907 51.9386 107.18 51.9099C107.28 51.8955 107.395 51.5938 107.41 51.4071C107.424 50.8755 107.41 50.3152 107.41 49.7693Z" fill="black"/>
<path d="M97.9565 47.5999C97.4105 47.5568 96.8359 47.5281 96.448 48.0453C96.4336 48.074 96.3905 48.074 96.2756 48.1028C96.2756 47.5281 95.8733 47.643 95.5285 47.643C95.5142 47.643 95.4998 47.643 95.4998 47.643C95.1981 47.6143 95.0975 47.758 95.0975 48.0597C95.1119 49.1803 95.0975 50.3152 95.0975 51.4358C95.0975 51.9243 95.1693 51.9961 95.6578 51.9961C96.2037 51.9961 96.2612 51.9386 96.2612 51.4502C96.2612 50.7893 96.2468 50.1141 96.2612 49.4532C96.2756 48.9217 96.7784 48.4619 97.2812 48.4907C97.7266 48.505 97.9996 48.8642 97.9996 49.4532C97.9996 50.1428 97.9996 50.8324 97.9996 51.522C97.9996 51.9243 98.0858 52.0105 98.488 52.0105C98.5886 52.0105 98.6892 52.0105 98.8041 52.0105C99.0196 52.0105 99.1633 51.8955 99.1633 51.68C99.1489 50.6887 99.1633 49.6831 99.1058 48.6918C99.0627 48.074 98.5455 47.643 97.9565 47.5999Z" fill="black"/>
<path d="M73.1741 55.99C72.6569 55.674 71.8093 55.6883 71.3208 56.0331C71.2202 56.0906 70.9904 56.1481 70.976 56.1193C70.7892 55.7171 70.4301 55.8464 70.1284 55.832C69.8123 55.8176 69.6974 55.9613 69.6974 56.263C69.7117 56.8376 69.6974 57.4123 69.6974 57.987C69.6974 58.5904 69.6974 59.1794 69.6974 59.7828C69.6974 60.0701 69.8123 60.2138 70.114 60.1994C70.2146 60.1994 70.3151 60.1994 70.4301 60.1994C70.8467 60.1851 70.9185 60.1276 70.9185 59.7253C70.9185 59.0645 70.9042 58.418 70.9329 57.7715C70.9473 57.5272 71.0335 57.2543 71.1771 57.0531C71.407 56.7371 71.7662 56.6796 72.1397 56.7658C72.4989 56.852 72.5994 57.1106 72.6138 57.441C72.6425 57.8289 72.6856 58.2168 72.7 58.6047C72.7144 59.007 72.7 59.4093 72.7 59.8115C72.7 60.0989 72.8293 60.2425 73.1166 60.2282C73.2316 60.2282 73.3465 60.2282 73.4614 60.2282C73.72 60.2282 73.8349 60.0989 73.8349 59.8403C73.8349 58.9639 73.8637 58.1019 73.8206 57.2255C73.7775 56.7227 73.6194 56.2774 73.1741 55.99Z" fill="black"/>
<path d="M102.468 51.1485C101.979 51.1341 101.735 50.933 101.721 50.5164C101.692 49.9848 101.706 49.4389 101.706 48.8929C101.706 48.6631 101.835 48.5338 102.08 48.5481C102.195 48.5481 102.31 48.5481 102.424 48.5625C102.697 48.5769 102.798 48.4476 102.812 48.189C102.841 47.7005 102.798 47.643 102.295 47.6287C101.706 47.6287 101.706 47.6287 101.706 47.0396C101.721 46.4075 101.677 46.3644 101.103 46.3644C100.528 46.3644 100.485 46.4075 100.485 46.9965C100.485 47.0827 100.485 47.1546 100.485 47.2408C100.514 47.5137 100.399 47.6574 100.111 47.643C99.8385 47.6287 99.6804 47.7149 99.6804 48.0309C99.6948 48.3183 99.7236 48.5625 100.097 48.5625C100.384 48.5481 100.471 48.7349 100.471 48.9791C100.471 49.2377 100.471 49.482 100.471 49.7406C100.471 49.9992 100.442 50.2721 100.471 50.5307C100.542 51.0623 100.643 51.6082 101.218 51.8237C101.577 51.9674 101.993 52.0105 102.381 52.0536C102.712 52.0823 102.798 51.953 102.812 51.5076C102.855 51.2347 102.712 51.1628 102.468 51.1485Z" fill="black"/>
<path d="M110.771 51.1772C110.297 51.1628 109.981 50.9042 109.967 50.502C109.938 49.9704 109.953 49.4532 109.967 48.9217C109.967 48.7062 110.082 48.5769 110.312 48.5769C110.455 48.5769 110.585 48.5769 110.728 48.5769C110.958 48.5769 111.073 48.4476 111.102 48.2177C111.145 47.758 111.059 47.6718 110.57 47.6574C109.967 47.6574 109.967 47.643 109.967 47.0684C109.967 46.9391 110.01 46.7954 109.953 46.6948C109.895 46.5655 109.766 46.4075 109.651 46.3931C108.889 46.3788 108.775 46.2782 108.803 47.1115C108.803 47.1402 108.803 47.1833 108.803 47.212C108.846 47.5281 108.688 47.6574 108.387 47.643C108.114 47.6287 107.913 47.6718 107.913 48.0309C107.927 48.4332 107.999 48.5481 108.372 48.5625C108.703 48.5769 108.818 48.7349 108.803 49.0366C108.789 49.4963 108.818 49.9561 108.789 50.4158C108.731 51.7519 109.737 52.1398 110.771 52.0536C111.174 52.0248 111.073 51.6513 111.102 51.3927C111.131 51.1341 110.929 51.1772 110.771 51.1772Z" fill="black"/>
<path d="M89.2934 47.6287C89.0348 47.6287 88.9055 47.7292 88.8193 47.9735C88.6469 48.4619 88.4458 48.9217 88.2446 49.3958C88.1297 49.6544 88.0291 49.9273 87.8855 50.1716C87.7706 50.3583 87.6413 50.3583 87.5551 50.1285C87.2965 49.482 87.0379 48.8355 86.7793 48.189C86.5638 47.6287 86.5637 47.6287 86.0035 47.6287C85.3282 47.6287 85.3139 47.6574 85.6012 48.3039C86.0897 49.3814 86.5494 50.4733 87.0091 51.5795C87.124 51.8668 87.3252 51.9817 87.6125 51.9817C87.8998 51.9817 88.1872 52.0248 88.3452 51.6369C88.8049 50.5595 89.279 49.482 89.7819 48.4045C90.1554 47.643 90.141 47.6143 89.2934 47.6287Z" fill="black"/>
<path d="M79.8546 48.2752C79.8546 47.6861 79.8546 47.1115 79.8546 46.5224C79.8546 45.7754 79.8546 45.7754 79.1219 45.7897C78.6621 45.7897 78.6334 45.8328 78.6334 46.2782C78.6334 47.5425 78.6334 48.8067 78.6334 50.0566C78.6334 50.8037 78.4179 51.0192 77.6708 51.0335C77.4553 51.0335 77.2829 51.0623 77.2686 51.3352C77.2398 51.7519 77.3404 51.9961 77.6134 52.0248C78.1593 52.0823 78.6909 51.9674 79.165 51.68C79.6678 51.364 79.8258 50.8468 79.8546 50.2865C79.8833 49.64 79.8546 48.9648 79.8546 48.2752Z" fill="black"/>
<path d="M69.7836 46.5512C69.7836 45.7754 69.7836 45.7897 69.0078 45.7897C68.6917 45.7897 68.5911 45.9047 68.5911 46.2207C68.6055 47.0971 68.5911 47.9878 68.5911 48.8642C68.5911 49.7406 68.5911 50.6026 68.5911 51.4789C68.5911 51.6226 68.6486 51.8955 68.7204 51.9099C68.9934 51.9674 69.2951 51.9817 69.5537 51.9099C69.6686 51.8812 69.7692 51.5795 69.7692 51.4071C69.7979 49.7837 69.7836 48.1746 69.7836 46.5512Z" fill="black"/>
<path d="M87.512 55.7889C87.1097 55.8751 86.7218 56.0331 86.2764 56.1624C86.2477 55.7027 85.8598 55.832 85.5437 55.8176C85.2708 55.8033 85.1271 55.9182 85.1271 56.1912C85.1271 57.4123 85.1271 58.6191 85.1271 59.8403C85.1271 60.0989 85.2564 60.2138 85.515 60.1994C85.6012 60.1994 85.7018 60.1994 85.788 60.1994C86.2046 60.1994 86.2764 60.1276 86.2764 59.7253C86.2764 59.0932 86.2764 58.4611 86.2764 57.8289C86.2764 57.3117 86.6069 56.9382 87.1097 56.8376C87.2534 56.8089 87.397 56.7946 87.5551 56.7802C87.943 56.7515 87.9429 56.7514 87.9429 56.1768C87.9429 55.8464 87.7705 55.7314 87.512 55.7889Z" fill="black"/>
<path d="M90.8881 55.7889C90.572 55.8607 90.2703 55.9757 89.9543 56.0762C89.8537 56.105 89.6526 56.1481 89.6382 56.1193C89.4945 55.7889 89.1928 55.832 88.9342 55.832C88.5607 55.832 88.4745 55.9182 88.4745 56.3061C88.4745 56.8664 88.4745 57.4267 88.4745 57.987C88.4745 58.5329 88.4745 59.0932 88.4745 59.6391C88.4745 60.142 88.5463 60.2138 89.0204 60.2138C89.5664 60.2138 89.6095 60.1707 89.6095 59.6679C89.6095 59.0788 89.6095 58.5042 89.6095 57.9151C89.6095 57.556 89.7244 57.2112 90.0548 57.0388C90.3278 56.9095 90.6295 56.852 90.9312 56.8089C91.3478 56.7514 91.276 56.4498 91.2904 56.1912C91.2904 55.9038 91.1754 55.7314 90.8881 55.7889Z" fill="black"/>
<path d="M62.8158 54.7258C62.8158 53.9931 62.8158 53.9931 62.1836 53.9931C62.0831 53.9931 61.9825 53.9931 61.8676 53.9931C61.6521 53.9787 61.4797 54.0649 61.5084 54.2948C61.5659 54.6108 61.2786 55.0131 61.6952 55.2573C61.7239 55.2717 61.767 55.2573 61.7957 55.2717C61.9969 55.3292 62.0112 55.4441 61.8963 55.6021C61.8676 55.6452 61.8245 55.6883 61.7814 55.7314C61.6377 55.9182 61.6234 56.0906 61.8101 56.2486C61.9969 56.4066 62.1549 56.3348 62.2986 56.1481C62.6721 55.6883 62.8445 55.1999 62.8158 54.7258Z" fill="black"/>
<path d="M52.0696 58.7771C51.2363 57.1394 50.4174 55.4872 49.5842 53.835C48.8371 52.3696 48.0757 50.933 47.3573 49.4676C47.1849 49.1084 46.9982 48.6918 46.9982 48.3039C46.9838 38.98 46.9838 29.6417 46.9838 20.3178C46.9838 20.1741 46.9838 20.0161 46.9838 19.8724C46.9982 19.5995 46.8689 19.4702 46.5959 19.4702C46.3373 19.4702 46.0643 19.4702 45.8057 19.4702C32.6603 19.4702 19.5292 19.4702 6.38381 19.4702C6.26888 19.4702 6.13958 19.4989 5.98155 19.5133C5.98155 19.6569 5.98155 19.7862 5.98155 19.9012C5.98155 33.1471 5.98155 46.3788 5.98155 59.6248C5.98155 59.7684 5.95282 59.9121 5.99592 60.0414C6.02465 60.142 6.13958 60.2713 6.22578 60.2856C6.45565 60.3144 6.69988 60.2856 6.94411 60.2856C21.009 60.2856 35.0595 60.2856 49.1244 60.2856C49.3399 60.2856 49.5698 60.2856 49.7709 60.3144C49.8858 60.3431 49.9864 60.458 50.087 60.5299C50.9633 60.5299 51.8397 60.5299 52.7017 60.5299C52.8166 60.2138 52.7592 59.9408 52.5724 59.6679C52.3856 59.3949 52.2276 59.0788 52.0696 58.7771ZM45.4897 56.1768C43.8375 56.1768 42.1854 56.1768 40.5332 56.1768C30.5628 56.1481 20.6067 56.1193 10.6363 56.0906C10.3059 56.0906 10.2053 55.9613 10.2053 55.6452C10.2053 45.1432 10.2053 34.6269 10.2053 24.1249C10.2053 23.7227 10.2484 23.6796 10.6794 23.6796C15.952 23.6796 21.2245 23.6796 26.497 23.6796C31.7121 23.6796 36.9272 23.6796 42.1423 23.6796C42.7888 23.6796 42.7888 23.6939 42.7888 24.3404C42.7888 32.6874 42.7888 41.0488 42.8031 49.3958C42.8031 49.798 43.0043 50.2147 43.191 50.5738C44.0386 52.2978 44.9294 54.0074 45.7914 55.7171C45.9638 56.105 45.9063 56.1768 45.4897 56.1768Z" fill="black"/>
<path d="M60.5028 46.465C60.5028 45.7897 60.5028 45.8041 59.8132 45.7897C59.4971 45.7897 59.3822 45.8903 59.3965 46.2064C59.4109 46.7379 59.4109 47.2551 59.3965 47.7867C59.3965 47.8729 59.3247 47.9591 59.2816 48.0453C59.2098 48.0022 59.1236 47.9735 59.0517 47.9304C58.9224 47.8442 58.8075 47.6718 58.6782 47.643C57.9742 47.4994 57.2846 47.485 56.7243 48.0597C55.9916 48.8067 55.9198 50.4158 56.5807 51.3209C57.141 52.0823 58.5202 52.3409 59.0805 51.6226C59.2098 51.4502 59.3247 51.5076 59.4109 51.6944C59.5258 51.953 59.8275 52.0392 60.2298 51.953C60.5028 51.8955 60.5028 51.68 60.5028 51.4645C60.5028 50.5882 60.5028 49.6975 60.5028 48.8211C60.4884 48.0453 60.4884 47.2551 60.5028 46.465ZM59.023 50.8468C58.7213 51.1485 58.3478 51.1628 57.9742 51.0479C57.572 50.9186 57.3996 50.5738 57.3134 50.1859C57.2846 50.0423 57.299 49.8842 57.2846 49.8411C57.2846 48.9648 57.7444 48.4332 58.4052 48.4907C58.6207 48.505 58.8793 48.62 59.0374 48.778C59.5546 49.2521 59.5258 50.344 59.023 50.8468Z" fill="black"/>
<path d="M68.2463 57.872C67.9159 57.1537 67.5855 56.4354 67.2551 55.7171C67.0252 55.2142 66.8097 54.7114 66.5511 54.2373C66.3356 53.835 65.5885 53.8638 65.3874 54.2517C65.1001 54.8263 64.8558 55.4154 64.5829 55.99C64.0082 57.2399 63.4335 58.4754 62.8589 59.7253C62.7152 60.0414 62.8014 60.1707 63.1462 60.1851C63.218 60.1851 63.2899 60.1851 63.3473 60.1851C63.8071 60.1851 63.922 60.1276 64.0657 59.7972C64.1806 59.5529 64.2955 59.2943 64.3817 59.0357C64.4679 58.8059 64.6116 58.7053 64.8415 58.7053C65.6029 58.7053 66.35 58.6909 67.1114 58.7197C67.2407 58.7197 67.4131 58.8202 67.4993 58.9352C67.6286 59.0932 67.7004 59.2943 67.7723 59.4811C68.0452 60.1707 68.0883 60.2138 68.821 60.1707C69.1371 60.1563 69.2089 60.0414 69.094 59.7541C68.821 59.1363 68.5337 58.5042 68.2463 57.872ZM66.666 57.8433C66.4362 57.8433 66.2063 57.8433 65.9764 57.8433C65.7322 57.8433 65.5023 57.8433 65.2581 57.8433C65.057 57.8289 64.9564 57.7284 65.0426 57.5272C65.2725 56.967 65.5167 56.4067 65.7609 55.8607C65.804 55.7745 65.919 55.6883 66.0052 55.674C66.0626 55.674 66.1632 55.7889 66.2063 55.8751C66.4505 56.4067 66.666 56.9382 66.8959 57.4698C67.0108 57.714 66.939 57.8289 66.666 57.8433Z" fill="black"/>
<path d="M78.3748 53.9931C78.3461 53.9931 78.303 53.9931 78.2742 53.9931C77.9869 53.9787 77.8576 54.1224 77.8576 54.4097C77.8576 54.8838 77.872 55.3435 77.8576 55.8176C77.8576 55.9326 77.8001 56.0475 77.757 56.1624C77.6565 56.1193 77.5415 56.105 77.4553 56.0475C76.6221 55.4297 75.3003 55.8464 74.8837 56.7658C74.5102 57.5703 74.5389 58.3605 74.855 59.1938C75.2141 60.1707 76.8663 60.6879 77.5415 59.8834C77.5846 59.8259 77.8145 59.8403 77.8145 59.869C77.9294 60.2713 78.2599 60.1994 78.5472 60.1994C79.0213 60.1994 79.0788 60.142 79.0788 59.6535C79.0788 58.8059 79.0788 57.9582 79.0788 57.1106C79.0788 56.2917 79.0788 55.4872 79.0788 54.6683C79.0788 54.0074 79.05 53.9787 78.3748 53.9931ZM77.01 59.3087C76.6364 59.3805 76.3204 59.2656 76.0761 58.9926C75.6308 58.4898 75.6308 57.556 76.0761 57.0388C76.3347 56.7227 76.6795 56.6365 77.0674 56.7083C77.4553 56.7802 77.6708 57.0675 77.7858 57.4267C77.8432 57.6134 77.8432 57.8146 77.872 58.0013C77.8576 58.7771 77.5846 59.1938 77.01 59.3087Z" fill="black"/>
<path d="M59.8275 53.9931C59.454 53.9931 59.3965 54.0505 59.3965 54.4672C59.3965 54.97 59.4109 55.4728 59.3965 55.9757C59.3965 56.0619 59.3391 56.1624 59.296 56.2486C59.2241 56.2199 59.1236 56.2055 59.0661 56.1481C58.319 55.5016 57.0548 55.6883 56.5232 56.536C55.9629 57.4554 55.9773 58.4036 56.4657 59.3374C56.9542 60.3 58.2759 60.5586 59.0805 59.8403C59.2385 59.6966 59.3247 59.6966 59.4109 59.8977C59.5258 60.1851 59.7988 60.2713 60.2298 60.1851C60.5171 60.1276 60.5028 59.9121 60.5028 59.6966C60.5028 58.8202 60.5028 57.9582 60.5028 57.0819C60.5028 56.2055 60.5028 55.3435 60.5028 54.4672C60.4884 54.0218 60.4453 53.9931 59.8275 53.9931ZM59.1092 58.9495C58.7931 59.4524 57.9455 59.438 57.5863 58.9639C57.2128 58.4754 57.2128 57.9295 57.3708 57.3836C57.5145 56.8951 57.9886 56.6222 58.4771 56.6796C58.9512 56.7371 59.3247 57.1393 59.3965 57.6565C59.4109 57.7715 59.4109 57.8864 59.4109 58.0013C59.4396 58.0157 59.4684 58.0301 59.4827 58.0301C59.3534 58.3605 59.2672 58.6909 59.1092 58.9495Z" fill="black"/>
<path d="M82.067 55.7745C80.8459 55.674 79.8402 56.6509 79.8402 58.0013C79.8258 59.3949 80.9033 60.2425 81.9521 60.2569C83.3744 60.2856 84.2651 59.3662 84.2651 58.0013C84.2795 56.7084 83.3887 55.6883 82.067 55.7745ZM82.9434 58.8202C82.7422 59.2369 82.3543 59.3518 81.8946 59.3087C81.4062 59.2656 81.1476 58.9352 81.0757 58.5185C81.0183 58.1737 81.0039 57.8002 81.0901 57.4698C81.2194 56.9238 81.7078 56.6078 82.2107 56.6652C82.6848 56.7083 83.0296 57.125 83.1014 57.6853C83.1158 57.7715 83.1158 57.872 83.1301 57.9582C83.1445 57.9582 83.1589 57.9582 83.1732 57.9726C83.087 58.2599 83.0583 58.5616 82.9434 58.8202Z" fill="black"/>
<path d="M85.1702 49.798C85.2851 48.4763 84.222 47.5999 83.1876 47.5568C81.4636 47.4706 80.7453 48.6056 80.7453 49.798C80.7453 51.1197 81.6647 52.0392 82.9003 52.0536C84.2364 52.0823 85.2708 51.2059 85.1702 49.798ZM83.9203 50.4732C83.7623 50.9186 83.4606 51.1197 82.929 51.1054C82.4405 51.091 82.1388 50.8755 82.0239 50.4158C81.9808 50.2147 81.9664 50.0135 81.9377 49.8124C81.9664 49.4245 81.9664 49.0653 82.2681 48.7636C82.7853 48.2464 83.5899 48.4188 83.8772 49.0941C84.0927 49.5538 84.0927 49.9992 83.9203 50.4732Z" fill="black"/>
<path d="M94.2211 55.8033C93.4885 55.7027 92.7845 55.8033 92.0949 56.0906C91.7788 56.2199 91.7645 56.4354 91.98 56.8664C92.1236 57.1681 92.296 57.0244 92.5115 56.9526C92.8851 56.8233 93.273 56.7227 93.6752 56.6796C94.0056 56.6509 94.3648 57.0388 94.3217 57.3405C94.2642 57.7284 93.9482 57.5847 93.7183 57.6134C93.2299 57.6853 92.7127 57.7284 92.2386 57.8577C91.8363 57.9582 91.6064 58.3749 91.6064 58.7915C91.6208 59.6966 92.3535 60.3287 93.0862 60.2425C93.4741 60.1994 93.8333 60.0558 94.2786 59.9552C94.4941 60.2282 94.4941 60.2138 95.04 60.2138C95.2843 60.2138 95.3992 60.1132 95.3992 59.869C95.3992 58.9639 95.4136 58.0588 95.3848 57.1537C95.3848 56.4641 94.8676 55.8895 94.2211 55.8033ZM94.1349 58.9639C93.8333 59.4524 93.3304 59.5242 92.9425 59.165C92.6839 58.9352 92.7414 58.5329 93.0718 58.4036C93.2873 58.3174 93.5316 58.2743 93.8045 58.2025C93.9626 58.2743 94.2211 58.3174 94.2642 58.4323C94.3217 58.576 94.2211 58.8202 94.1349 58.9639Z" fill="black"/>
<path d="M74.4383 48.9935C74.4383 48.4619 74.2085 48.0453 73.7488 47.7723C73.1885 47.4419 71.5076 47.5568 71.0335 47.9735C70.7749 48.2033 70.9616 48.4476 71.0478 48.6631C71.134 48.8786 71.3064 48.8067 71.4932 48.7493C71.838 48.6343 72.1828 48.4907 72.542 48.4619C72.7575 48.4476 73.0448 48.5625 73.2028 48.7062C73.3178 48.8067 73.3321 49.0797 73.3178 49.2665C73.3034 49.3383 73.0592 49.3958 72.9155 49.4101C72.5563 49.4389 72.1972 49.4101 71.8524 49.4676C71.3926 49.5538 70.9042 49.6831 70.7174 50.1859C70.5163 50.7462 70.7892 51.4214 71.3064 51.7806C71.8093 52.1254 72.5276 52.1398 72.973 51.7662C73.1597 51.6082 73.2459 51.6226 73.4471 51.7806C73.6338 51.9243 73.9499 51.9386 74.2085 51.9099C74.3091 51.8955 74.3953 51.5938 74.4096 51.4071C74.4384 51.0192 74.424 50.6313 74.424 50.2434C74.4383 49.8411 74.4383 49.4101 74.4383 48.9935ZM73.1885 50.7606C73.0592 50.933 72.858 51.0623 72.6425 51.1341C72.3408 51.2347 71.9386 51.0192 71.8524 50.7462C71.7518 50.4733 71.8667 50.2865 72.2834 50.1285C72.4558 50.071 72.6425 50.0566 72.8868 50.0135C73.0017 50.0566 73.2747 50.0997 73.3034 50.2003C73.3465 50.3727 73.289 50.6169 73.1885 50.7606Z" fill="black"/>
<path d="M93.9769 50.0423C94.2355 50.0423 94.3648 49.913 94.3217 49.64C94.2642 49.3239 94.2068 49.0079 94.1206 48.7062C93.9625 48.189 93.6034 47.7867 93.1006 47.6718C91.9225 47.3844 90.7444 47.6287 90.3278 49.0797C89.8393 50.8037 91.0174 52.3265 93 52.0105C93.3448 51.953 93.7039 51.7806 94.0056 51.5938C94.293 51.4214 94.1206 51.1341 94.0056 50.9186C93.8907 50.7031 93.6896 50.7319 93.5028 50.8611C93.0431 51.1772 92.5259 51.1485 92.0518 51.0048C91.8363 50.9473 91.6352 50.6888 91.5202 50.4733C91.3766 50.2147 91.5202 50.0423 91.8219 50.0279C92.1667 50.0279 92.5115 50.0279 92.8563 50.0279C93.2155 50.0566 93.6034 50.0566 93.9769 50.0423ZM92.3535 49.4245C92.1524 49.4389 91.9656 49.4389 91.7645 49.4389C91.5059 49.4245 91.4053 49.2665 91.4915 49.0222C91.6064 48.6918 92.0231 48.4188 92.411 48.4188C92.7845 48.4188 93.1149 48.6774 93.2155 49.051C93.273 49.2665 93.2155 49.4245 92.9713 49.4389C92.7558 49.4245 92.5546 49.4245 92.3535 49.4245Z" fill="black"/>
<path d="M64.2812 51.9817C64.5829 51.8955 64.8989 51.7806 65.1575 51.6082C65.4592 51.4071 65.215 51.1485 65.1144 50.933C65.0139 50.7175 64.7984 50.7749 64.6403 50.8755C64.2093 51.1628 63.7496 51.1197 63.2755 51.0623C62.9163 51.0192 62.7296 50.7462 62.6003 50.4445C62.4854 50.1859 62.629 50.0423 62.9163 50.0423C63.2468 50.0423 63.5772 50.0423 63.922 50.0423C64.2955 50.0423 64.6547 50.0423 65.0282 50.0423C65.2294 50.0423 65.3874 49.9704 65.4018 49.7262C65.4449 49.0222 65.2725 48.3901 64.7122 47.9304C64.0657 47.3988 63.2899 47.4275 62.5859 47.7005C61.2067 48.2464 61.1493 50.0423 61.6234 50.9473C62.1405 51.9386 63.3186 52.2403 64.2812 51.9817ZM62.5859 49.0941C62.6577 48.778 63.0456 48.4476 63.3761 48.4188C63.8071 48.3757 64.1662 48.5769 64.3243 48.9504C64.4536 49.2521 64.3386 49.4389 64.0082 49.4532C63.8214 49.4532 63.6347 49.4532 63.4623 49.4532C63.2611 49.4532 63.0456 49.4532 62.8445 49.4532C62.6146 49.4245 62.5284 49.2952 62.5859 49.0941Z" fill="black"/>
<path d="M115.714 34.0091C115.383 32.788 114.679 32.0122 113.386 31.7823C112.481 31.6243 111.619 31.6674 110.829 32.0984C110.369 32.3426 109.967 32.7305 109.55 33.0609C109.392 33.1902 109.249 33.3195 109.105 33.0609C108.703 32.357 108.099 31.9404 107.309 31.7967C106.03 31.5525 104.852 31.6961 103.847 32.6156C103.761 32.6874 103.631 32.7018 103.516 32.7592C103.488 32.6587 103.445 32.5437 103.43 32.4432C103.416 31.9835 103.358 31.926 102.87 31.926C102.051 31.926 101.246 31.926 100.428 31.926C99.9103 31.926 99.8816 31.9547 99.8816 32.4719C99.8816 34.1528 99.8816 35.8193 99.8816 37.5002C99.8816 38.8363 99.8816 40.158 99.8816 41.4941C99.8816 41.7096 99.9103 41.882 100.198 41.882C101.203 41.882 102.195 41.882 103.2 41.882C103.473 41.882 103.545 41.7384 103.545 41.4798C103.531 40.7614 103.531 40.0287 103.545 39.3104C103.559 38.2042 103.545 37.1123 103.603 36.0061C103.617 35.7044 103.746 35.374 103.89 35.101C104.235 34.4689 105.327 34.2246 105.786 34.8855C105.959 35.1441 106.074 35.5033 106.074 35.8193C106.102 37.6726 106.088 39.5403 106.074 41.3936C106.074 41.8102 106.117 41.882 106.533 41.882C107.453 41.882 108.372 41.882 109.292 41.882C109.723 41.882 109.766 41.8246 109.766 41.4079C109.766 39.6696 109.751 37.9456 109.766 36.2072C109.766 35.7619 109.881 35.3309 110.197 34.9717C110.513 34.6125 111.145 34.4114 111.576 34.5694C112.036 34.7418 112.237 35.1154 112.28 35.5895C112.294 35.7906 112.323 35.9774 112.323 36.1785C112.323 37.9312 112.323 39.6839 112.323 41.4367C112.323 41.8389 112.366 41.882 112.783 41.8964C113.458 41.8964 114.133 41.8964 114.808 41.8964C115.196 41.8964 115.584 41.8677 115.972 41.8533C115.972 39.3679 115.972 36.8968 115.972 34.4114C115.886 34.2534 115.757 34.1384 115.714 34.0091Z" fill="black"/>
<path d="M65.8471 35.532C65.8471 34.9573 65.8471 34.3827 65.8471 33.808C65.8471 33.2046 65.8328 33.1902 65.2294 33.1902C63.6634 33.1902 62.1118 33.1902 60.5459 33.1902C59.9712 33.1902 59.9568 33.1759 59.9568 32.6156C59.9568 32.1415 59.9568 31.6818 59.9568 31.2077C59.9568 30.6617 59.9999 30.6043 60.5746 30.6043C62.3129 30.6043 64.0369 30.6043 65.7753 30.6043C66.1776 30.6043 66.2207 30.5612 66.2207 30.1445C66.2207 29.4406 66.2207 28.751 66.2207 28.047C66.2207 27.7884 66.1345 27.6735 65.8615 27.6735C62.8014 27.6735 59.727 27.6735 56.6669 27.6735C56.3508 27.6735 56.2646 27.8028 56.2646 28.1188C56.279 30.3313 56.2646 32.5437 56.2646 34.7562C56.2646 36.983 56.2646 39.2098 56.2646 41.4367C56.2646 41.7527 56.3939 41.8677 56.6956 41.8677C57.6582 41.8677 58.6207 41.8677 59.5833 41.8677C59.8563 41.8677 59.9712 41.7671 59.9712 41.4798C59.9568 39.9138 59.9568 38.3622 59.9568 36.7963C59.9568 36.1641 59.9856 36.1354 60.6177 36.1354C62.1693 36.1354 63.7209 36.1354 65.2725 36.1354C65.804 36.121 65.8471 36.0779 65.8471 35.532Z" fill="black"/>
<path d="M88.101 39.8276C88.3308 40.6321 88.8049 41.3361 89.6526 41.6378C90.1841 41.8246 90.7588 41.9539 91.3191 42.0113C92.2673 42.1119 93.1293 41.8533 93.862 41.2355C94.0056 41.1206 94.1493 41.0057 94.293 40.8907C94.3217 41.0919 94.3792 41.2786 94.3792 41.4798C94.3648 41.7815 94.4941 41.882 94.7814 41.882C95.6722 41.8677 96.5485 41.8677 97.4393 41.882C97.7697 41.882 97.8703 41.7527 97.8703 41.4223C97.8559 39.9282 97.8703 38.434 97.8703 36.9543C97.8703 35.4458 97.8703 33.9229 97.8703 32.4144C97.8703 31.9978 97.7984 31.9404 97.3818 31.9404C96.5485 31.9404 95.7009 31.9404 94.8676 31.9404C94.3217 31.9404 94.2642 31.9978 94.2642 32.5581C94.2642 34.1528 94.2786 35.7475 94.2642 37.3422C94.2642 38.118 94.0056 38.7788 93.2442 39.1524C92.7127 39.411 91.9656 39.2817 91.6926 38.7645C91.5346 38.4628 91.4628 38.0749 91.4628 37.7157C91.434 36.0061 91.4484 34.2965 91.4484 32.5868C91.4484 31.9835 91.4197 31.9547 90.8306 31.9547C89.9974 31.9547 89.1785 31.9547 88.3452 31.9547C87.828 31.9547 87.7993 31.9835 87.7993 32.5006C87.7993 34.2821 87.7705 36.0636 87.8136 37.8307C87.828 38.4772 87.8998 39.1667 88.101 39.8276Z" fill="black"/>
<path d="M79.8258 41.8533C80.8171 41.8533 81.794 41.8533 82.7853 41.8533C83.0296 41.8533 83.1301 41.7384 83.1301 41.4941C83.1158 39.9282 83.1158 38.3479 83.1158 36.7819C83.1158 35.9199 83.6617 35.0866 84.6243 34.9861C85.3139 34.9142 86.0178 34.8137 86.7074 34.7275C87.1097 34.6844 87.1815 34.5694 87.1241 34.1815C87.0953 34.0091 87.0953 33.8367 87.0809 33.6643C87.0522 33.1184 87.0091 32.5725 86.9804 32.0122C86.966 31.7105 86.7936 31.6099 86.5207 31.653C86.2764 31.6818 86.0466 31.7105 85.8023 31.7392C84.9547 31.8254 84.1502 32.0122 83.518 32.6299C83.3744 32.7736 83.202 32.8885 83.0439 33.0178C83.0152 32.8167 82.9721 32.6012 82.9577 32.4001C82.9434 32.0122 82.8572 31.9116 82.4693 31.9116C81.636 31.9116 80.8171 31.9116 79.9839 31.9116C79.5098 31.9116 79.4523 31.9691 79.4523 32.4432C79.4523 33.9373 79.4523 35.4314 79.4523 36.9112C79.4523 38.4197 79.4523 39.9138 79.4523 41.4223C79.4236 41.724 79.5241 41.8533 79.8258 41.8533Z" fill="black"/>
<path d="M71.2059 30.5037C71.3208 30.6474 71.565 30.7479 71.7662 30.7623C72.2259 30.8054 72.6856 30.7767 73.1454 30.7767C73.5476 30.7767 73.6051 30.7048 73.4327 30.3457C72.8868 29.1963 72.3265 28.0614 71.7949 26.912C71.68 26.6822 71.5507 26.5816 71.3064 26.5816C70.8754 26.5816 70.4301 26.5816 69.9991 26.5816C69.9991 26.5816 69.9991 26.5816 69.9991 26.5672C69.5393 26.5672 69.0796 26.5672 68.6199 26.5672C68.5337 26.5672 68.4187 26.6247 68.3756 26.6965C68.3469 26.7396 68.39 26.8833 68.4331 26.9408C69.3382 28.1332 70.2577 29.3256 71.2059 30.5037Z" fill="black"/>
<path d="M70.0565 41.5947C71.0766 41.997 72.1397 42.0832 73.2316 41.9826C74.4958 41.8533 75.6451 41.4367 76.5646 40.5172C77.5703 39.5115 77.9151 38.2329 77.9725 36.8537C77.9438 36.552 77.9007 36.236 77.872 35.9343C77.7858 34.9861 77.3979 34.1672 76.7945 33.4488C76.2342 32.788 75.5589 32.2708 74.7113 32.0697C73.9499 31.8973 73.1597 31.6818 72.3983 31.6818C71.6369 31.6818 70.8467 31.8829 70.114 32.1128C68.7779 32.5294 67.8297 33.4632 67.37 34.7706C66.8241 36.3078 66.8384 37.8738 67.5711 39.3822C68.074 40.4597 68.9503 41.1781 70.0565 41.5947ZM70.6743 35.963C70.818 35.3165 71.0766 34.7706 71.7087 34.5407C72.4127 34.2821 73.131 34.3396 73.7057 34.8568C74.1798 35.2878 74.2516 35.9199 74.3378 36.5233C74.3521 36.6239 74.3378 36.7244 74.3378 36.8394C74.3234 37.4715 74.2516 38.0749 73.8781 38.6064C73.4758 39.2098 72.6856 39.4253 71.838 39.2098C71.2921 39.0805 70.7892 38.4628 70.6887 37.8307C70.5881 37.2129 70.5306 36.5951 70.6743 35.963Z" fill="black"/>
</svg>
