<svg width="81" height="80" viewBox="0 0 81 80" fill="none" xmlns="http://www.w3.org/2000/svg">
<path d="M23.5735 50.4703C25.168 50.476 26.7567 50.476 28.3512 50.4703C28.5978 50.4703 28.701 50.5735 28.6895 50.8144C28.6838 52.9423 28.6838 55.0701 28.6895 57.198C28.6895 57.4159 28.5978 57.5134 28.3798 57.5134H26.8657C26.6477 57.5134 26.5502 57.4217 26.5674 57.198C26.5751 57.0758 26.5725 56.9512 26.57 56.8256C26.5687 56.7625 26.5674 56.6992 26.5674 56.6359C26.5273 56.6244 26.4929 56.613 26.4585 56.6015C26.3781 56.6597 26.2999 56.7201 26.2218 56.7804C26.0769 56.8921 25.9324 57.0036 25.7759 57.1005C24.2847 58.0124 22.696 58.0353 21.0786 57.5364C19.249 56.9686 18.0675 55.6781 17.471 53.9058C16.6107 51.3535 16.8171 48.8873 18.4517 46.6734C20.2986 44.167 23.9176 43.559 26.5043 45.2911C27.4507 45.922 28.116 46.8053 28.5748 47.8434C28.6666 48.0442 28.615 48.1646 28.4085 48.2449C27.812 48.4858 27.227 48.7324 26.6363 48.9848C26.3667 49.0995 26.2979 48.9217 26.2233 48.7267C25.9709 48.0327 25.5809 47.4362 24.9558 47.0232C23.5104 46.0654 21.4342 46.4554 20.5165 47.9753C19.3637 49.891 19.2776 51.9443 20.3674 53.9173C21.4801 55.9419 24.1069 55.9476 25.363 54.8579C25.9365 54.3646 26.2462 53.7337 26.3896 53.0053C26.4527 52.7014 26.3437 52.5981 26.034 52.6039C25.6412 52.6125 25.247 52.611 24.8521 52.6096C24.457 52.6082 24.0611 52.6067 23.6653 52.6153C23.3556 52.6211 23.2294 52.5293 23.2409 52.2081C23.2605 51.8101 23.2549 51.4078 23.2493 51.0049C23.2484 50.9378 23.2474 50.8701 23.2466 50.8029C23.2466 50.5735 23.3326 50.4703 23.5735 50.4703Z" fill="black"/>
<path d="M48.7293 57.2668C48.6432 57.393 48.4425 57.502 48.2876 57.5077C47.7885 57.5249 47.2894 57.5228 46.7926 57.5206C46.6274 57.5199 46.462 57.5192 46.2974 57.5192C46.243 57.5192 46.186 57.4981 46.1299 57.4774C46.1032 57.4675 46.0767 57.4577 46.0508 57.4503C46.0568 57.4292 46.0621 57.4074 46.0673 57.3853C46.0821 57.3234 46.0973 57.2602 46.1311 57.2095C47.0487 55.7757 47.9665 54.3417 48.8956 52.9136C49.0332 52.7071 49.0103 52.5522 48.8784 52.3572C48.0754 51.1471 47.2839 49.9311 46.4924 48.7152C46.4561 48.6628 46.4283 48.6075 46.3911 48.5333C46.3754 48.5021 46.358 48.4675 46.3376 48.4284C46.379 48.4223 46.4167 48.4162 46.4517 48.4105C46.5475 48.3949 46.6233 48.3826 46.6989 48.3826C46.8723 48.3826 47.0462 48.3841 47.2205 48.3856C47.6284 48.3893 48.0384 48.3929 48.4482 48.3768C48.7637 48.3654 48.9587 48.4743 49.1193 48.7382C49.3685 49.1448 49.6311 49.5448 49.8942 49.9457L49.895 49.9468C49.9768 50.0714 50.0587 50.1961 50.1402 50.3212C50.1834 50.3841 50.2294 50.4416 50.2873 50.514C50.3138 50.5472 50.3429 50.5837 50.3753 50.6251C50.4044 50.5863 50.4309 50.5521 50.4552 50.5207C50.5027 50.4593 50.5419 50.4087 50.5761 50.3556C50.6863 50.185 50.7956 50.0145 50.9047 49.8441L50.9053 49.8432C51.1591 49.4468 51.4128 49.0506 51.6773 48.6579C51.7519 48.5489 51.8895 48.4055 52.0042 48.3998C52.5849 48.3826 53.1656 48.3847 53.7464 48.3869C53.9399 48.3876 54.1335 48.3883 54.3271 48.3883C54.3443 48.417 54.3672 48.4514 54.3902 48.4858C54.3253 48.5886 54.2609 48.6915 54.1965 48.7942C54.0276 49.0638 53.8591 49.3327 53.6847 49.5985C53.5222 49.8469 53.3606 50.0952 53.1992 50.3434L53.1987 50.3442L53.1976 50.3458L53.1965 50.3475C52.766 51.0091 52.3367 51.669 51.8952 52.3228C51.7404 52.5522 51.7404 52.73 51.8952 52.9652C52.6388 54.1038 53.371 55.2499 54.1042 56.3974L54.1047 56.3982C54.2762 56.6667 54.4478 56.9352 54.6196 57.2037C54.6421 57.239 54.6591 57.2779 54.6809 57.3275C54.698 57.3665 54.718 57.412 54.7458 57.4675C54.7022 57.4742 54.6616 57.4814 54.6231 57.4883C54.5297 57.5048 54.4484 57.5192 54.3672 57.5192C54.1357 57.5215 53.9033 57.5201 53.6703 57.5187C53.3204 57.5166 52.9691 57.5146 52.6179 57.5249C52.3598 57.5306 52.1935 57.4331 52.0558 57.2209C51.6643 56.6103 51.2614 56.0072 50.8594 55.4056L50.8583 55.4039C50.766 55.2658 50.6738 55.1278 50.5818 54.9898C50.3983 54.7145 50.3409 54.7203 50.1631 55.007C50.0397 55.2033 49.9171 55.3999 49.7945 55.5964C49.4445 56.1578 49.0945 56.719 48.7293 57.2668Z" fill="black"/>
<path d="M41.0667 49.9828C41.3879 49.9828 41.4797 50.1089 41.4682 50.4186C41.4559 50.9965 41.4582 51.5772 41.4606 52.1567C41.4615 52.3883 41.4625 52.6196 41.4625 52.8505H41.5141C41.5141 53.1897 41.5134 53.529 41.5128 53.8684V53.8795C41.5115 54.5636 41.5102 55.2487 41.5141 55.9362C41.5198 56.5843 41.8353 57.0546 42.4203 57.3069C43.4068 57.7371 44.4334 57.6281 45.4543 57.4561C45.5289 57.4446 45.6207 57.2725 45.6264 57.175C45.6372 56.9101 45.6367 56.6474 45.6363 56.3841C45.636 56.2259 45.6357 56.0667 45.6379 55.9075C45.6379 55.6838 45.5633 55.6035 45.3224 55.6437C45.0643 55.6895 44.8005 55.7067 44.5367 55.701C44.0319 55.6781 43.8025 55.4773 43.7222 54.9898C43.6763 54.7317 43.6649 54.4679 43.6591 54.2041C43.657 53.7292 43.6573 53.2543 43.6575 52.7792V52.7779C43.658 51.9852 43.6584 51.1915 43.6477 50.3957C43.6419 50.0688 43.7681 49.9713 44.0721 49.9828C44.308 49.9893 44.544 49.9884 44.7799 49.9874C44.9569 49.9867 45.134 49.986 45.3109 49.9885C45.5404 49.9885 45.6436 49.891 45.6379 49.6558C45.6264 49.3576 45.6207 49.0593 45.6379 48.7668C45.6551 48.4743 45.5232 48.3826 45.2479 48.3883C45.0119 48.3948 44.7759 48.3939 44.5399 48.393C44.363 48.3923 44.186 48.3916 44.009 48.394C43.7452 48.3998 43.6419 48.3023 43.6477 48.027C43.6529 47.6594 43.6522 47.2906 43.6515 46.9218C43.6506 46.4791 43.6497 46.0362 43.6591 45.5951C43.6649 45.2911 43.5788 45.1535 43.2519 45.165C42.7816 45.1822 42.3113 45.1822 41.8467 45.165C41.5485 45.1535 41.4395 45.2682 41.4452 45.5664C41.4575 46.1276 41.4552 46.6916 41.4529 47.2565C41.4519 47.4826 41.451 47.7089 41.451 47.9352C41.451 48.3711 41.4338 48.394 40.9807 48.394H40.8086C40.7553 48.394 40.7061 48.3937 40.6609 48.3934C40.3994 48.3917 40.2668 48.3909 40.2002 48.4568C40.1317 48.5246 40.1333 48.6632 40.1365 48.9444C40.1368 48.9787 40.1372 49.015 40.1376 49.0536L40.138 49.0715C40.1605 49.9714 40.1607 49.9828 41.0667 49.9828Z" fill="black"/>
<path fill-rule="evenodd" clip-rule="evenodd" d="M57.6996 48.7898C59.9536 47.4018 63.6473 48.1072 64.6452 51.2732C64.7141 51.4912 64.788 51.704 64.8619 51.9169C64.8989 52.0233 64.9358 52.1297 64.9722 52.2368V53.6764C64.9358 53.7834 64.8982 53.8899 64.8606 53.9963C64.7854 54.2091 64.7102 54.422 64.6452 54.6399C64.0946 56.504 62.4371 57.7486 60.487 57.783C59.3285 57.8059 58.2617 57.5593 57.3268 56.8538C56.0822 55.9132 55.566 54.5998 55.5259 53.0971C55.4742 51.2904 56.1051 49.7648 57.6996 48.7898ZM60.4125 55.7641C61.29 55.7182 61.9037 55.2708 62.2593 54.4908C62.7468 53.424 62.7181 52.3458 62.1675 51.3248C61.485 50.0516 59.7701 49.7304 58.7262 50.6538C58.0667 51.2388 57.8086 51.9959 57.8372 52.8849C57.8086 53.4871 57.929 54.0721 58.2617 54.6055C58.7607 55.397 59.4604 55.81 60.4125 55.7641Z" fill="black"/>
<path fill-rule="evenodd" clip-rule="evenodd" d="M38.6621 54.9111C38.5286 54.8316 38.3953 54.7522 38.2621 54.6744C37.7665 54.3895 37.7631 54.3933 37.3979 54.7922L37.3903 54.8005C36.6275 55.6379 35.6524 55.7698 34.6143 55.5461C33.6966 55.3454 33.1805 54.6973 32.9224 53.8312C32.8076 53.4584 32.8478 53.4126 33.2378 53.4126H39.0765C39.5354 53.4126 39.564 53.3896 39.5181 52.9537C39.4723 52.4891 39.4149 52.0246 39.3231 51.5657C38.9274 49.6099 37.5968 48.3711 35.618 48.1646C33.8458 47.9811 32.3259 48.4801 31.2648 49.9942C30.5135 51.0725 30.3815 52.2999 30.4848 53.5674C30.5938 54.8923 31.1042 56.0279 32.1825 56.8424C34.2186 58.3909 37.6369 58.1099 39.478 55.6723C39.6099 55.506 39.5411 55.42 39.3862 55.3339C39.143 55.1976 38.9021 55.0541 38.6621 54.9111ZM32.951 51.4854C33.3066 50.0688 35.1592 49.4092 36.3292 50.2925C36.725 50.5907 36.9142 51.0151 37.0462 51.474C37.1092 51.6976 37.0232 51.7894 36.7881 51.7894C36.3823 51.7856 35.9766 51.7869 35.5726 51.7881C35.3712 51.7888 35.1702 51.7894 34.9699 51.7894C34.7747 51.7894 34.5795 51.7888 34.3845 51.7881C33.9951 51.7869 33.6066 51.7856 33.2206 51.7894C33.0027 51.7894 32.8879 51.7321 32.951 51.4854Z" fill="black"/>
<path d="M52.7193 64.5362L52.7215 64.5361C53.0569 64.526 53.3919 64.516 53.7261 64.5028C53.8305 64.4985 53.9349 64.5158 54.0371 64.5327C54.0785 64.5396 54.1195 64.5464 54.16 64.5517C54.163 64.5792 54.1646 64.6083 54.1661 64.6373C54.1676 64.6663 54.1692 64.6953 54.1722 64.7228C54.0825 64.7403 53.9937 64.7598 53.9051 64.7792C53.7767 64.8074 53.6485 64.8356 53.5183 64.8573C51.3489 65.2239 49.2833 65.9023 47.3461 66.9473C47.2687 66.9874 47.1967 67.0342 47.125 67.0809C47.0439 67.1336 46.9631 67.1862 46.8756 67.2284C46.8144 67.2569 46.7425 67.2691 46.6705 67.2813C46.6345 67.2874 46.5985 67.2935 46.5639 67.3017C46.5822 67.2671 46.5972 67.227 46.6121 67.1869C46.642 67.1068 46.6718 67.0267 46.7289 66.99L46.8027 66.945C47.2481 66.6729 47.6898 66.4031 48.1589 66.1773C48.3796 66.0691 48.6036 65.9673 48.8287 65.865C49.2267 65.6841 49.6285 65.5014 50.0228 65.2789L50.0076 65.2774L49.9886 65.2752L49.9594 65.2717L49.9297 65.268C49.8389 65.2567 49.7488 65.2454 49.6622 65.2545C47.7448 65.4085 45.8597 65.7518 43.9707 66.0958L43.9694 66.096L43.9617 66.0975L43.9604 66.0977C43.6796 66.1488 43.3983 66.2001 43.1172 66.2506C41.2105 66.5928 39.2917 66.8617 37.3728 67.1245C35.6128 67.3628 33.8405 67.3567 32.0744 67.2284C31.0116 67.1556 29.9526 67.0519 28.8913 66.9481L28.8891 66.9479C28.6148 66.921 28.3403 66.8942 28.0656 66.8678C27.9987 66.8595 27.9318 66.8139 27.8649 66.7683C27.834 66.7473 27.8031 66.7263 27.7722 66.7089C27.8089 66.6723 27.8425 66.6341 27.8761 66.5959C27.9097 66.5577 27.9433 66.5195 27.98 66.4828C27.9961 66.4668 28.0189 66.4558 28.0422 66.4445C28.0633 66.4343 28.0848 66.424 28.1022 66.4095C28.7744 65.9267 29.4833 65.8228 30.3328 65.9145C31.9156 66.0917 33.5228 66.1345 35.1178 66.1406C37.4485 66.1522 39.7572 65.8613 42.0647 65.5705L42.4389 65.5234C44.9506 65.2056 47.4744 64.9245 49.9983 64.68C50.8995 64.5908 51.8105 64.5635 52.7193 64.5362Z" fill="#B61030"/>
<path d="M52.6994 60.995L52.7051 60.983C52.8076 60.7662 52.9206 60.5272 52.6566 60.3412C52.4733 60.2128 52.1311 60.3473 52.0272 60.6223C51.7583 61.325 51.5077 62.0339 51.2755 62.7489C51.1655 63.085 51.0983 63.4761 51.4894 63.69C51.8805 63.9039 52.1555 63.6289 52.4122 63.3723C52.5711 63.2134 52.6689 63.2195 52.8094 63.4089C53.0355 63.7084 53.4266 63.7023 53.7016 63.4334C53.9033 63.2317 53.8666 62.9873 53.5916 62.9506C53.28 62.9078 53.2677 62.7428 53.335 62.5167C53.4572 62.1073 53.5794 61.7039 53.7261 61.3067C53.7994 61.1112 53.8483 60.9156 53.6283 60.8545C53.4755 60.8117 53.2677 60.8912 53.115 60.9706C53.0464 61.0098 53.0092 61.1157 52.9751 61.2129C52.9667 61.2369 52.9585 61.2604 52.95 61.2823C52.9199 61.3574 52.895 61.4336 52.8701 61.5096C52.8344 61.6188 52.7987 61.7278 52.7483 61.8323C52.5405 62.2478 52.3205 62.6573 51.9722 62.9689C51.9539 62.9598 51.9371 62.9521 51.9202 62.9445C51.9097 62.9397 51.8987 62.9347 51.8878 62.9295L51.8786 62.9251L51.8683 62.92C51.8733 62.8901 51.8769 62.8598 51.8805 62.8295C51.8902 62.7483 51.8999 62.6673 51.9355 62.5961C52.066 62.3122 52.2036 62.0283 52.3415 61.7435C52.4618 61.4952 52.5828 61.2454 52.6994 60.995Z" fill="#B61030"/>
<path d="M35.7747 63.3653C35.5918 63.5215 35.4085 63.6779 35.2278 63.8367C35.1763 63.8808 35.1315 63.9338 35.0747 64.0009C35.0371 64.0453 34.9941 64.0961 34.9406 64.1545C35.0045 64.1613 35.0573 64.169 35.1029 64.1757C35.1793 64.1868 35.2353 64.195 35.2889 64.1911C35.3503 64.1885 35.4129 64.1811 35.4762 64.1737C35.5576 64.1642 35.6402 64.1545 35.7228 64.1545C35.9733 64.1606 36.2361 64.2217 36.2178 64.515C36.1995 64.7961 35.9611 64.845 35.6983 64.8389C35.3989 64.8328 35.0933 64.8634 34.7939 64.9C34.525 64.9367 34.2622 64.9184 34.1094 64.6739C33.9506 64.4234 34.0544 64.1606 34.2378 63.9711C34.5392 63.6656 34.8515 63.371 35.1638 63.0763C35.32 62.929 35.4763 62.7815 35.6311 62.6328C35.683 62.5809 35.7348 62.5276 35.7867 62.4742C35.8386 62.4208 35.8909 62.3669 35.9428 62.315C35.9336 62.2967 35.9229 62.2799 35.9122 62.2631C35.9016 62.2463 35.8908 62.2295 35.8817 62.2112C35.8185 62.2213 35.7554 62.2329 35.6922 62.2444C35.5659 62.2675 35.4396 62.2906 35.3133 62.3028L35.2828 62.3072C35.1206 62.3306 34.9498 62.3553 34.8061 62.315C34.69 62.2845 34.5372 62.1378 34.5311 62.0339C34.525 61.9362 34.6717 61.7345 34.7633 61.7284C35.4172 61.6612 36.0711 61.6 36.725 61.6123C37.0917 61.6184 37.2078 61.9423 36.9817 62.2417C36.8402 62.4285 36.662 62.589 36.4859 62.7477L36.4439 62.7856C36.2248 62.9811 35.9998 63.1731 35.7747 63.3653Z" fill="#B61030"/>
<path d="M48.7089 63.0667C48.5805 63.2073 48.5072 63.5251 48.5744 63.6901C48.6844 63.9406 48.9717 64.0078 49.2711 63.9589C49.5828 63.9101 49.9005 63.8856 50.2122 63.8795C50.4505 63.8734 50.6889 63.8428 50.7072 63.5739C50.7317 63.2928 50.4872 63.2256 50.255 63.2134C50.1733 63.2097 50.0917 63.2195 50.0114 63.2291C49.9595 63.2354 49.9082 63.2415 49.8578 63.2439C49.7896 63.2477 49.7191 63.2468 49.6229 63.2456C49.5639 63.2448 49.4953 63.2439 49.4117 63.2439C49.4734 63.175 49.5213 63.1182 49.5619 63.07C49.6256 62.9944 49.671 62.9404 49.7233 62.8956C49.879 62.7602 50.0364 62.6257 50.1939 62.491L50.1981 62.4874C50.4657 62.2586 50.7337 62.0295 50.9944 61.7956C51.1717 61.6367 51.3489 61.4595 51.4894 61.264C51.6789 60.989 51.5689 60.6773 51.245 60.6712C50.5911 60.6528 49.9372 60.7078 49.2894 60.769C49.1855 60.7812 49.0022 61.0134 49.0267 61.0867C49.0755 61.2151 49.2405 61.3678 49.3689 61.3862C49.53 61.4086 49.7011 61.3785 49.8699 61.3488C49.9315 61.3379 49.9929 61.3271 50.0533 61.3189C50.1287 61.311 50.2014 61.2979 50.2749 61.2847C50.3147 61.2776 50.3548 61.2704 50.3956 61.264C50.408 61.2818 50.42 61.2991 50.4317 61.3162L50.4923 61.4046L50.5178 61.4412C50.4728 61.4705 50.4259 61.498 50.3791 61.5254C50.2798 61.5836 50.1811 61.6414 50.1022 61.7162L50.0928 61.7247C49.6132 62.1618 49.14 62.5931 48.7089 63.0667Z" fill="#B61030"/>
<path d="M38.0026 62.4771C37.9488 62.6137 37.8982 62.7425 37.8494 62.8712C37.77 63.0789 37.6967 63.2806 37.6294 63.4823C37.5561 63.7145 37.5195 63.9162 37.8433 64.0262C38.0694 64.1056 38.1122 64.3378 37.9045 64.4845C37.7517 64.5945 37.5072 64.7045 37.3606 64.6495C37.1956 64.5884 36.9756 64.3378 36.9878 64.1851C37.0306 63.6106 37.1467 63.0423 37.2689 62.4801C37.3117 62.2906 37.4278 62.1012 37.5561 61.9484C37.6172 61.869 37.8067 61.8384 37.9045 61.8751C37.9709 61.9 38.0175 61.9756 38.0636 62.0503C38.0854 62.0856 38.107 62.1207 38.1306 62.1501C38.0858 62.2659 38.0433 62.3738 38.0026 62.4771Z" fill="#B61030"/>
<path d="M33.7794 62.7123L33.784 62.7007C33.8681 62.4907 33.9517 62.2821 33.6816 62.15C33.4066 62.0217 33.2111 62.1806 33.1378 62.4189C33.0006 62.8436 32.8859 63.2747 32.7658 63.7262C32.72 63.8983 32.6733 64.0735 32.6244 64.2522C32.663 64.3183 32.6971 64.3871 32.7307 64.455C32.8093 64.6133 32.8854 64.7668 33.0094 64.8695C33.1194 64.955 33.3883 64.9245 33.5472 64.8572C33.8344 64.7289 33.8405 64.4295 33.5716 64.3072C33.3089 64.1911 33.3028 64.0078 33.3761 63.8C33.4922 63.4334 33.6328 63.0728 33.7794 62.7123Z" fill="#B61030"/>
<path d="M38.1183 60.4756C38.4117 60.4756 38.6439 60.7078 38.6439 61.0073C38.6439 61.2884 38.3933 61.545 38.1183 61.5512C37.8311 61.5573 37.55 61.27 37.5622 60.995C37.5806 60.7201 37.8433 60.4695 38.1183 60.4756Z" fill="#B61030"/>
<path d="M34.4333 61.3128C34.4333 61.0073 34.2133 60.7873 33.9017 60.7873C33.6022 60.7873 33.3517 61.0256 33.3517 61.3067C33.3517 61.5756 33.6083 61.8262 33.9017 61.8323C34.2072 61.8445 34.4333 61.6184 34.4333 61.3128Z" fill="#B61030"/>
<path fill-rule="evenodd" clip-rule="evenodd" d="M31.1822 59.9806C31.2861 60.06 31.3472 60.3167 31.2983 60.445C31.1389 60.8847 30.9401 61.3144 30.7416 61.7431L30.675 61.8873C30.6533 61.9394 30.6377 61.9945 30.6108 62.09C30.5999 62.129 30.587 62.1746 30.5711 62.2295C30.6753 62.1703 30.763 62.1184 30.8412 62.0721C30.9649 61.999 31.0652 61.9397 31.17 61.8873C31.9889 61.4778 32.6489 61.8689 32.6672 62.7856C32.6916 63.8489 32.1844 64.7839 31.3961 65.12C30.8766 65.34 30.3755 65.2789 29.905 64.9673C29.8673 64.9422 29.8328 64.913 29.7984 64.8839C29.749 64.8421 29.6998 64.8005 29.6422 64.7717C29.3122 64.6128 29.2327 64.3623 29.3428 64.02C29.4955 63.5525 29.6468 63.085 29.798 62.6175C29.9493 62.15 30.1005 61.6825 30.2533 61.215C30.345 60.9339 30.4366 60.6589 30.5344 60.3839C30.5454 60.3583 30.5558 60.3316 30.5663 60.3047C30.591 60.2415 30.6163 60.1768 30.6505 60.1212C30.785 59.9195 31.005 59.84 31.1822 59.9806ZM31.8177 62.4311C31.6833 62.3639 31.4205 62.4434 31.2616 62.5411C30.7422 62.8528 30.4183 63.3478 30.1922 63.8856C30.1433 64.0139 30.2044 64.2584 30.3022 64.3684C30.6505 64.7717 31.3105 64.6984 31.61 64.1911C31.7592 63.9396 31.8609 63.6523 31.9626 63.3646C32.0067 63.24 32.0508 63.1153 32.0989 62.9934C32.0667 62.9215 32.0404 62.8468 32.0155 62.7758C31.9597 62.6173 31.9106 62.4776 31.8177 62.4311Z" fill="#B61030"/>
<path fill-rule="evenodd" clip-rule="evenodd" d="M42.9216 61.4656C42.957 61.4972 42.9912 61.5316 43.0254 61.5662C43.1038 61.6451 43.1825 61.7244 43.2761 61.7711C43.3579 61.8121 43.4698 61.793 43.5758 61.775C43.5869 61.7731 43.5979 61.7712 43.6089 61.7694C43.6182 61.7679 43.6275 61.7664 43.6366 61.765C43.784 61.7491 43.9288 61.728 44.0743 61.7067C44.152 61.6954 44.2302 61.684 44.3088 61.6734C44.318 61.6856 44.3256 61.6994 44.3333 61.7131C44.3409 61.7268 44.3486 61.7406 44.3577 61.7528C44.3387 61.7748 44.3196 61.7971 44.3005 61.8195C44.2398 61.8907 44.1783 61.9628 44.1133 62.0278C43.6184 62.5105 43.1231 62.9935 42.6161 63.4639C42.561 63.514 42.4731 63.5353 42.3927 63.5549C42.3821 63.5575 42.3716 63.56 42.3613 63.5626C42.3544 63.5643 42.3477 63.566 42.3411 63.5678C42.2451 63.5897 42.1468 63.6067 42.0482 63.6238C41.9268 63.6448 41.8051 63.6658 41.6872 63.6961C41.6075 63.7189 41.5304 63.7536 41.4529 63.7885C41.3641 63.8285 41.2746 63.8688 41.1799 63.8917C40.8927 63.965 40.74 63.8061 40.6911 63.5434C40.6398 63.2702 40.8112 63.2514 41.0028 63.2304C41.0169 63.2288 41.0312 63.2273 41.0455 63.2256C41.7972 63.1461 42.4877 62.3823 42.5061 61.6245C42.5122 61.3006 42.4144 61.0073 42.1088 60.8545C41.8033 60.6956 41.4611 60.7323 41.2166 60.9645C40.4222 61.7223 40.0005 62.6573 40.0799 63.7695C40.1166 64.2522 40.465 64.5334 40.9538 64.515C41.18 64.5089 41.4183 64.4661 41.6261 64.3806C41.8105 64.3077 41.9858 64.2047 42.1585 64.1033C42.2319 64.0602 42.3048 64.0174 42.3777 63.9773C42.7566 64.3806 42.7811 64.3867 43.3372 64.3195L43.3913 64.3128C43.6254 64.284 43.8685 64.254 44.1011 64.2767C44.3822 64.3011 44.6266 64.24 44.6388 63.9406C44.6511 63.6472 44.3883 63.5861 44.1377 63.5923C44.0696 63.5949 44.0015 63.6009 43.9334 63.6068C43.8426 63.6148 43.7518 63.6228 43.6611 63.6228C43.6131 63.6228 43.565 63.6097 43.4879 63.5887C43.4472 63.5776 43.3984 63.5643 43.3372 63.5495L43.568 63.3453C43.8407 63.1041 44.0809 62.8917 44.3211 62.6756C44.4138 62.5924 44.5078 62.5106 44.6017 62.4287C44.8668 62.1978 45.1314 61.9672 45.3661 61.71C45.6594 61.3861 45.5249 61.0439 45.0788 61.0317C44.4616 61.0195 43.8383 61.0806 43.2272 61.1417C43.1608 61.1651 43.0969 61.2484 43.0324 61.3326C42.9959 61.3802 42.9591 61.4281 42.9216 61.4656ZM41.6872 61.4228C41.9072 61.9911 41.4794 62.5961 40.9294 62.5839C41.0446 62.1668 41.3029 61.868 41.5889 61.5369C41.6214 61.4994 41.6542 61.4614 41.6872 61.4228Z" fill="#B61030"/>
<path fill-rule="evenodd" clip-rule="evenodd" d="M47.0283 60.2006C47.6272 59.944 48.1406 60.2434 48.2261 60.8912C48.2872 61.3801 48.3422 61.8628 48.11 62.3395C48.0183 62.5412 47.9817 62.7856 47.9878 63.0117C47.9922 63.1167 48.0623 63.2217 48.131 63.3245C48.1582 63.3653 48.1852 63.4057 48.2078 63.4456C48.2265 63.4788 48.2529 63.5134 48.279 63.5476C48.3296 63.6139 48.3788 63.6783 48.3667 63.7267C48.3361 63.8306 48.2139 63.9528 48.11 63.9834C47.835 64.0628 47.5845 63.9773 47.4561 63.7145C47.3156 63.4273 47.1872 63.5067 47.0222 63.6717C46.9245 63.7695 46.8084 63.8673 46.6861 63.9467C46.3806 64.1545 46.0445 64.3012 45.6961 64.1117C45.3295 63.9101 45.2928 63.5312 45.2745 63.1095C45.4272 62.1562 45.8 61.264 46.5089 60.5306C46.6495 60.3901 46.8389 60.2801 47.0283 60.2006ZM46.4172 63.3662C47.0834 62.7856 47.5111 62.0767 47.5661 61.1784C47.5722 61.0623 47.5172 60.8606 47.4439 60.8301C47.3339 60.7995 47.1506 60.8484 47.0589 60.9278C46.3806 61.5145 46.0567 62.2784 45.9222 63.2134C45.9341 63.2489 45.9516 63.2944 45.9714 63.3458C45.9926 63.4005 46.0163 63.462 46.0383 63.5251C46.0825 63.5061 46.1296 63.4915 46.1763 63.4771C46.2654 63.4495 46.3531 63.4223 46.4172 63.3662Z" fill="#B61030"/>
<path d="M51.8359 21.8406C52.0224 21.7619 52.217 21.6798 52.4449 21.5852C52.2578 21.5425 52.0962 21.5059 51.9476 21.4722C51.6948 21.415 51.4791 21.3661 51.2391 21.3103V22.0905C51.4491 22.0038 51.638 21.9241 51.8359 21.8406Z" fill="#B61030"/>
<path d="M52.436 19.2356C52.4715 19.7233 52.0814 20.1666 51.6469 20.1932C51.177 20.2286 50.6273 19.7055 50.6805 19.2268C50.6894 19.1204 50.8579 18.9697 50.9731 18.9431C51.114 18.9124 51.2592 18.9199 51.4057 18.9274C51.4711 18.9308 51.5369 18.9342 51.6026 18.9342C51.6144 18.9342 51.6262 18.9332 51.6381 18.9322C51.6617 18.9302 51.6854 18.9283 51.709 18.9342C51.7887 18.9562 51.8855 18.9407 51.9821 18.9252C52.1971 18.8907 52.4115 18.8564 52.436 19.2356Z" fill="#B61030"/>
<path d="M45.7598 13.9692C45.6951 14.2049 45.6449 14.3924 45.5978 14.5682C45.5545 14.7296 45.5139 14.8811 45.4673 15.0508C45.6978 15.0774 45.9283 15.104 46.3007 15.1395L46.2776 15.0904C46.0859 14.682 45.9474 14.387 45.7598 13.9692Z" fill="#B61030"/>
<path d="M37.8425 15.1218C37.9932 14.7051 38.1085 14.3948 38.2769 13.9426C38.3383 14.1195 38.3923 14.2758 38.4438 14.4247C38.5187 14.6415 38.5882 14.8426 38.667 15.0686C38.5961 15.0733 38.5277 15.078 38.4593 15.0828C38.2712 15.0958 38.0831 15.1088 37.8425 15.1218Z" fill="#B61030"/>
<path d="M30.3423 23.3102C30.4433 23.2995 30.5458 23.2887 30.6433 23.2608V23.9258C30.3624 23.8845 30.0969 23.8432 29.7392 23.7875L29.6592 23.7751C29.7835 23.3694 30.0575 23.3404 30.3423 23.3102Z" fill="#B61030"/>
<path d="M31.2019 25.8763C31.2196 26.2398 30.7408 26.6299 30.2798 26.6299C29.7567 26.6299 29.3134 26.2842 29.3223 25.8763C29.3311 25.4951 29.7833 25.1404 30.2532 25.1493C30.7231 25.1582 31.1841 25.5128 31.2019 25.8763Z" fill="#B61030"/>
<path d="M29.4109 28.2968C29.4818 28.0928 29.668 27.8003 29.8364 27.7737C30.1822 27.7293 30.395 28.0131 30.3241 28.35C30.3054 28.4682 30.1906 28.569 30.0748 28.6707C30.0256 28.7139 29.9762 28.7572 29.9339 28.8021C29.5438 28.7223 29.3045 28.6337 29.4109 28.2968Z" fill="#B61030"/>
<path d="M34.9247 39.2512C34.8912 39.3299 34.8529 39.4201 34.8103 39.5301C34.7281 39.2247 34.6537 38.966 34.5742 38.6896C34.5336 38.5487 34.4917 38.4031 34.4468 38.2445C34.5589 38.2663 34.6567 38.2848 34.7453 38.3015C34.9091 38.3325 35.0415 38.3576 35.1739 38.3863C35.1591 38.4484 35.1453 38.5105 35.1315 38.5725C35.1039 38.6967 35.0763 38.8208 35.0409 38.9449C35.0143 39.0406 34.9749 39.1332 34.9247 39.2512Z" fill="#B61030"/>
<path d="M36.7697 38.7144C36.3707 38.7942 36.4771 39.1311 36.548 39.2907C36.703 39.6597 36.987 39.5925 37.2773 39.5239C37.3357 39.51 37.3944 39.4962 37.4523 39.4858C37.4523 38.9627 37.3814 38.5903 36.7697 38.7144Z" fill="#B61030"/>
<path d="M39.6511 38.741C39.4738 38.6346 39.128 38.7587 38.8798 38.8563C38.8089 38.8829 38.7823 39.273 38.8266 39.2996C39.0651 39.4188 39.3224 39.5005 39.5774 39.5814C39.6258 39.5968 39.674 39.6121 39.7221 39.6276C39.738 39.6085 39.7528 39.5893 39.7673 39.5706C39.7931 39.5373 39.8178 39.5052 39.8462 39.4769C39.8308 39.4026 39.8214 39.3173 39.8119 39.2313C39.7884 39.0196 39.7646 38.804 39.6511 38.741Z" fill="#B61030"/>
<path d="M41.2382 38.342C41.3624 38.2889 41.5485 38.28 41.6727 38.3332C41.7525 38.3686 41.8411 38.5637 41.8234 38.6612C41.7745 38.8385 41.6961 39.0073 41.6027 39.2084C41.5607 39.2989 41.5155 39.3962 41.4687 39.5035C41.4307 39.3865 41.3956 39.284 41.3637 39.1908C41.2989 39.0017 41.2473 38.8511 41.2116 38.6967C41.185 38.5814 41.185 38.3598 41.2382 38.342Z" fill="#B61030"/>
<path d="M47.225 39.5148C46.8862 39.5677 46.4999 39.628 46.4781 39.2641C46.4586 38.976 46.6433 38.973 46.8726 38.9691C47.0596 38.966 47.2763 38.9624 47.4356 38.803V39.4857C47.3705 39.4921 47.2989 39.5033 47.225 39.5148Z" fill="#B61030"/>
<path d="M46.611 37.9342C46.3096 37.9431 46.2741 38.0849 46.3893 38.342C46.5755 38.7853 46.9568 38.7055 47.2405 38.6169C47.3354 38.5872 47.3946 38.4266 47.4658 38.2333C47.5011 38.1377 47.5393 38.034 47.5863 37.9342C47.4186 37.9342 47.2777 37.933 47.1533 37.9319C46.9428 37.93 46.778 37.9286 46.611 37.9342Z" fill="#B61030"/>
<path d="M52.0275 27.29C51.7519 27.1832 51.5065 27.0881 51.2569 26.9846C51.1958 27.3436 51.161 27.5479 51.2461 27.6345C51.3585 27.7489 51.6802 27.6576 52.4272 27.4456C52.2856 27.3901 52.1532 27.3387 52.0275 27.29Z" fill="#B61030"/>
<path d="M52.2853 32.0294C52.2941 31.9939 52.303 31.9585 52.3119 31.9141C52.1014 31.8332 51.8942 31.7522 51.6563 31.6593C51.5034 31.5995 51.3378 31.5348 51.1504 31.462C51.1744 31.6338 51.193 31.7732 51.2094 31.8964C51.2294 32.0465 51.2462 32.1728 51.2657 32.3042C51.5949 32.2219 51.8674 32.1459 52.1363 32.0709L52.2853 32.0294Z" fill="#B61030"/>
<path fill-rule="evenodd" clip-rule="evenodd" d="M44.0551 12.6936C47.1211 12.6952 50.1883 12.6969 53.2606 12.6836C53.7305 12.6836 53.8546 12.8255 53.8635 13.2776C53.8635 16.6822 53.8679 20.0846 53.8723 23.4869C53.8768 26.8893 53.8812 30.2916 53.8812 33.6962C53.8812 34.7424 53.8635 35.7886 53.7305 36.8171C53.4379 39.069 51.4696 40.8068 49.191 40.8157C43.7384 40.8423 38.2858 40.8423 32.8332 40.8157C30.7142 40.8068 28.9055 39.2641 28.3203 37.2515C28.1076 36.4979 28.081 35.7709 28.081 35.0261C28.0774 32.1357 28.0767 29.2439 28.076 26.3518C28.0749 22.0138 28.0739 17.6751 28.0632 13.3397C28.0632 12.8077 28.2228 12.6836 28.7193 12.6836C31.7915 12.6969 34.8588 12.6952 37.9248 12.6936C38.9466 12.693 39.9683 12.6925 40.9899 12.6925C42.0116 12.6925 43.0333 12.693 44.0551 12.6936ZM50.8756 23.5711C51.1593 23.2431 51.9307 23.181 52.2676 23.4559C52.6222 23.7485 52.6311 24.0322 52.3296 24.378C52.2477 24.4662 52.1836 24.5724 52.1184 24.6807C52.0919 24.7246 52.0652 24.7689 52.037 24.8124C52.0548 24.8301 52.0747 24.8479 52.0947 24.8656C52.1146 24.8833 52.1346 24.9011 52.1523 24.9188C52.1898 24.8947 52.2314 24.8722 52.2735 24.8494C52.3709 24.7966 52.4717 24.7421 52.5335 24.6617C52.7995 24.3336 52.9148 23.9612 52.702 23.5445C52.4715 23.0746 52.0282 22.915 51.5849 22.9062C50.7781 22.8973 50.3259 23.4736 50.4678 24.2095C50.5026 24.3766 50.5264 24.5491 50.5522 24.7357C50.5593 24.7867 50.5665 24.8389 50.5741 24.8922H51.1593C51.7711 24.8922 51.8863 24.6883 51.5583 23.9524C51.5255 24.0343 51.5024 24.1078 51.4818 24.1733C51.4468 24.2848 51.4191 24.373 51.3632 24.44C51.3012 24.5287 51.115 24.6351 51.0529 24.5996C50.6983 24.4134 50.6185 23.8726 50.8756 23.5711ZM51.9572 22.1082L52.5424 21.8954C52.6399 21.86 52.7375 21.8245 52.8261 21.7891C52.8306 21.7492 52.8328 21.707 52.835 21.6649C52.8372 21.6228 52.8394 21.5807 52.8439 21.5408C52.4084 21.38 51.978 21.2192 51.5374 21.0546L51.1061 20.8936C50.9111 20.8227 50.716 20.7517 50.5121 20.6719C50.4166 20.915 50.5931 21.0284 50.7669 21.1402C50.9482 21.2567 51.1266 21.3715 50.9908 21.6295C50.9144 21.7768 50.8347 21.9242 50.7515 22.0778L50.7504 22.0799C50.6989 22.1751 50.646 22.2727 50.5919 22.3742C50.5476 22.4628 50.5032 22.5516 50.45 22.6491C50.6537 22.5694 50.8574 22.4985 51.0611 22.4277C51.3626 22.3213 51.6647 22.2146 51.9572 22.1082ZM50.3614 18.5795C50.3658 18.6106 50.3724 18.6438 50.3791 18.6771C50.3857 18.7103 50.3924 18.7436 50.3968 18.7746C50.4159 18.8824 50.4319 18.9883 50.4475 19.0916C50.4974 19.4215 50.5434 19.726 50.6717 19.9892C50.6983 20.0513 50.7426 20.1045 50.7869 20.1577C50.8756 20.2552 50.9997 20.3262 51.1416 20.3793C51.3544 20.4503 51.6026 20.468 51.8331 20.4325L51.8687 20.4238C51.9301 20.4087 51.9955 20.3927 52.0548 20.3705C52.1257 20.3439 52.1966 20.3084 52.2587 20.273C52.4715 20.14 52.6577 19.8385 52.7552 19.5193C52.835 19.28 52.8616 19.0317 52.8261 18.8455C52.8084 18.7835 52.7907 18.7214 52.7641 18.6771L52.7463 18.6593C52.7375 18.6416 52.7197 18.6327 52.6931 18.6239C52.6887 18.6239 52.6821 18.6216 52.6754 18.6194C52.6688 18.6172 52.6621 18.615 52.6577 18.615C52.6045 18.5973 52.5513 18.5884 52.507 18.5884C52.1789 18.5795 51.8509 18.5795 51.5051 18.5795H50.3614ZM45.8485 13.5081C45.8042 13.517 45.7599 13.517 45.7156 13.517C45.4407 14.2617 45.1659 15.0065 44.8555 15.8399C44.9218 15.8151 44.988 15.8057 45.047 15.7974L45.0595 15.7956C45.0847 15.7884 45.11 15.7826 45.1341 15.7771C45.1691 15.7692 45.2016 15.7618 45.2279 15.7513C45.2545 15.7335 45.2811 15.7158 45.2988 15.6981C45.5028 15.4498 45.6889 15.3168 45.8751 15.3168C45.9195 15.3168 45.9727 15.3257 46.017 15.3434C46.1411 15.3877 46.2564 15.4764 46.3894 15.6183C46.416 15.6449 46.4426 15.6715 46.4692 15.7069L46.4958 15.7335C46.5224 15.7601 46.5578 15.7779 46.611 15.8045C46.6366 15.8173 46.6645 15.83 46.6951 15.8441C46.7494 15.869 46.8122 15.8978 46.8859 15.9374C46.7917 15.6925 46.7063 15.4609 46.6236 15.2363C46.5897 15.1442 46.5559 15.0523 46.5224 14.9622C46.4592 14.7913 46.3976 14.6236 46.3369 14.4583L46.3361 14.4559C46.2522 14.2275 46.1701 14.0037 46.0879 13.783C46.0702 13.7343 46.0525 13.6879 46.0348 13.6414C46.0171 13.5949 45.9993 13.548 45.9815 13.4993C45.9594 13.5037 45.9372 13.5037 45.915 13.5037C45.8929 13.5037 45.8707 13.5037 45.8485 13.5081ZM43.7248 13.5763C43.495 13.5913 43.2641 13.6063 43.0291 13.6234C43.0291 14.3947 43.0291 15.0952 43.038 15.7956H44.6871V15.6449C44.6221 15.6449 44.5571 15.6458 44.4921 15.6468C44.362 15.6488 44.232 15.6508 44.1019 15.6449L44.058 15.6432C43.3989 15.6182 43.1418 15.6085 43.4281 14.7583H44.5009C44.5098 14.7051 44.5098 14.6607 44.5098 14.6075C44.4418 14.6016 44.3728 14.5997 44.3039 14.5977C44.166 14.5937 44.028 14.5898 43.898 14.5543C43.6675 14.4923 43.2862 14.3504 43.2862 14.2529C43.3021 13.927 43.5675 13.9503 43.8075 13.9714C43.8352 13.9738 43.8626 13.9762 43.8891 13.978C43.9285 13.982 43.968 13.9789 44.0074 13.9759C44.0566 13.972 44.1059 13.9682 44.1551 13.978C44.5452 14.049 44.5541 13.8539 44.4654 13.5259C44.2174 13.5442 43.9718 13.5602 43.7248 13.5763ZM42.1799 13.5602C41.8242 13.5586 41.4647 13.5569 41.1052 13.5702C41.0633 13.5702 41.0214 13.6227 40.9768 13.6787C40.9553 13.7056 40.9332 13.7334 40.9101 13.7564C40.9421 13.7788 40.9729 13.8104 41.003 13.8412C41.0564 13.8959 41.1074 13.9482 41.1584 13.9426C41.6194 13.9071 41.6726 14.1642 41.646 14.5366C41.6194 14.8824 41.6194 15.237 41.6283 15.5917C41.6344 15.659 41.6617 15.7222 41.6897 15.7869C41.7022 15.8159 41.7149 15.8452 41.7258 15.8754C41.7702 15.8754 41.8145 15.8665 41.8588 15.8577C41.8588 15.7355 41.8594 15.6138 41.8599 15.4925C41.8616 15.1296 41.8632 14.7691 41.85 14.4036C41.8322 14.1022 41.912 13.9337 42.2489 13.9337C42.3314 13.9337 42.4185 13.8701 42.5035 13.808C42.5373 13.7833 42.5708 13.7588 42.6036 13.7387C42.5903 13.7076 42.5792 13.6788 42.5681 13.65C42.557 13.6212 42.5459 13.5924 42.5326 13.5613C42.4156 13.5613 42.2979 13.5608 42.1799 13.5602ZM39.8145 13.6015C39.7851 13.6369 39.7576 13.67 39.7576 13.7032C39.7487 14.3504 39.7398 15.0065 39.7487 15.6626C39.7487 15.7247 39.8462 15.8399 39.9083 15.8399C40.2072 15.8532 40.5012 15.8516 40.7977 15.8499C40.8969 15.8493 40.9963 15.8488 41.0963 15.8488V15.6803L40.9455 15.6565C40.659 15.611 40.3665 15.5647 39.9969 15.5119V13.5613L39.864 13.5347C39.8506 13.5581 39.8322 13.5802 39.8145 13.6015ZM37.3726 15.6449C37.3668 15.6564 37.3686 15.6718 37.3705 15.6885C37.3715 15.6973 37.3726 15.7066 37.3726 15.7158C37.3726 15.7247 37.3726 15.7335 37.3815 15.7424C37.3992 15.7779 37.4258 15.8133 37.4524 15.8399C37.4524 15.8488 37.4524 15.8488 37.4613 15.8488H37.479C37.4879 15.8488 37.5056 15.8488 37.5233 15.8399L37.5369 15.8356C37.561 15.8279 37.5883 15.8193 37.6031 15.8045L37.6208 15.7867C37.7893 15.636 37.9223 15.5296 38.0287 15.4587C38.0819 15.4232 38.1351 15.3966 38.1794 15.3789C38.3922 15.2991 38.5429 15.3966 38.8355 15.6715C38.871 15.6981 38.9064 15.7335 38.9419 15.769C38.9699 15.797 39.0145 15.8084 39.0627 15.8207C39.0754 15.824 39.0885 15.8273 39.1015 15.8311C39.1131 15.8349 39.1231 15.8371 39.1321 15.8391C39.1436 15.8416 39.1536 15.8438 39.1635 15.8488C39.1687 15.8253 39.177 15.8003 39.1855 15.7749C39.2057 15.7139 39.2266 15.6506 39.2079 15.6005C39.0483 15.1484 38.871 14.7051 38.6936 14.2618C38.6667 14.1877 38.6347 14.1188 38.6014 14.0472C38.5909 14.0245 38.5802 14.0015 38.5695 13.978C38.5252 13.8805 38.4808 13.783 38.4365 13.6943C38.4232 13.6633 38.4077 13.6323 38.3922 13.6012C38.3767 13.5702 38.3612 13.5392 38.3479 13.5081L38.1351 13.5347C38.073 13.7121 38.0087 13.8872 37.9445 14.0623C37.8802 14.2374 37.8159 14.4125 37.7538 14.5898C37.6209 14.9355 37.4967 15.2903 37.3726 15.6449ZM35.5462 13.5436C35.4575 13.5525 35.3689 13.5525 35.2802 13.5525C35.2625 14.315 35.2625 15.0774 35.2802 15.8399C35.3024 15.8488 35.3267 15.8599 35.3511 15.8709C35.3755 15.882 35.3999 15.8931 35.4221 15.902C35.4799 15.7836 35.5377 15.6643 35.5963 15.5434L35.5978 15.5404C35.7274 15.2731 35.8612 14.9971 36.0072 14.7051C36.1903 14.8746 36.2982 15.0701 36.3994 15.2534C36.5626 15.5492 36.7083 15.8131 37.1243 15.8842C37.0423 15.7421 36.951 15.6075 36.8629 15.4776C36.6653 15.1864 36.4839 14.9189 36.4594 14.643C36.441 14.3974 36.5969 14.139 36.7534 13.8797C36.8229 13.7645 36.8925 13.6492 36.947 13.5347C36.9293 13.5081 36.9204 13.4904 36.9116 13.4638C36.5126 13.8539 36.1136 14.244 35.6348 14.7051C35.5994 14.1997 35.5728 13.8716 35.5462 13.5436ZM35.2447 16.9482C35.0674 16.9482 34.7926 17.0368 34.7305 17.1698C34.1542 18.3313 34.3847 19.9272 35.2625 20.7872C36.486 21.993 37.9755 22.6313 39.6778 22.7732C40.4491 22.8353 40.591 22.9594 40.591 23.713C40.591 24.3418 40.59 24.9716 40.589 25.6018V25.6049C40.587 26.8659 40.5851 28.129 40.591 29.3873C40.591 29.4219 40.5886 29.4566 40.5863 29.4904C40.5737 29.6731 40.5628 29.832 40.9367 29.8395C41.342 29.8473 41.3362 29.6769 41.3289 29.461C41.3279 29.4312 41.3269 29.4007 41.3269 29.3696V23.6953C41.3269 23.0303 41.4687 22.8707 42.1337 22.7998C42.2468 22.7898 42.3611 22.7911 42.4749 22.7923C42.6642 22.7944 42.8519 22.7964 43.0291 22.7466C44.1817 22.4008 45.2722 22.0018 46.2652 21.2482C47.276 20.4769 47.8966 18.7037 47.338 17.4269C47.1785 17.0634 47.01 16.9304 46.611 16.9304C45.2016 16.9437 43.7972 16.9421 42.3904 16.9404C41.921 16.9399 41.4513 16.9393 40.9811 16.9393C40.502 16.9393 40.0235 16.9388 39.5453 16.9382C38.1118 16.9365 36.6807 16.9349 35.2447 16.9482ZM45.0595 25.0518C45.556 25.2823 47.4533 25.2646 47.8079 25.0074C47.4267 24.378 47.0189 23.8105 46.2121 23.9435C45.6092 24.041 45.1925 24.4223 45.0595 25.0518ZM30.2709 20.7094C30.4038 20.6995 30.5369 20.6897 30.6699 20.6808C30.6832 20.7074 30.6964 20.7318 30.7097 20.7561C30.723 20.7805 30.7363 20.8049 30.7496 20.8315C30.2709 21.133 29.7921 21.4344 29.3311 21.7447C29.265 21.7868 29.2233 21.8655 29.1812 21.945C29.1612 21.9828 29.1412 22.0208 29.1183 22.055C29.1471 22.0708 29.1767 22.0904 29.2066 22.1102C29.2779 22.1574 29.351 22.2058 29.4197 22.2058C29.996 22.2235 30.5812 22.2324 31.1575 22.2146C31.218 22.2146 31.2826 22.1486 31.3457 22.0841C31.3751 22.0541 31.4042 22.0244 31.4323 22.0018C31.4046 21.9824 31.3769 21.9587 31.3492 21.935C31.2883 21.8828 31.2273 21.8306 31.1664 21.8245C30.8769 21.8114 30.5874 21.8129 30.2689 21.8145H30.2658C30.1561 21.8151 30.0429 21.8157 29.9251 21.8157C30.0951 21.5404 30.3686 21.3834 30.6477 21.2232C30.98 21.0325 31.3202 20.8373 31.5033 20.4325C31.3121 20.4325 31.1274 20.432 30.9476 20.4314C30.4269 20.4297 29.9474 20.4282 29.4729 20.4414C29.3961 20.4473 29.3193 20.5084 29.2424 20.5695C29.204 20.6 29.1656 20.6306 29.1272 20.6542C29.1656 20.666 29.204 20.6818 29.2424 20.6975C29.3193 20.7291 29.3961 20.7606 29.4729 20.7606C29.7389 20.7488 30.0049 20.7291 30.2709 20.7094ZM29.3045 23.3938C29.2602 23.4293 29.2247 23.4736 29.1892 23.5179L29.1736 23.5391C29.1548 23.5645 29.1393 23.5856 29.1183 23.6066C29.136 23.6243 29.1626 23.6509 29.1804 23.6775C29.1981 23.6953 29.2136 23.7152 29.2291 23.7352C29.2446 23.7551 29.2602 23.7751 29.2779 23.7928C29.2956 23.8194 29.3222 23.8371 29.3488 23.8549C29.3577 23.8593 29.3643 23.8615 29.371 23.8637C29.3776 23.8659 29.3843 23.8682 29.3931 23.8726C29.853 24.0404 30.3171 24.1994 30.7826 24.3589C30.9812 24.427 31.1803 24.4952 31.3791 24.5641L31.3259 24.4843C31.2993 24.4445 31.2728 24.4023 31.2462 24.3602C31.2196 24.3181 31.193 24.276 31.1664 24.2361C31.0334 24.0144 30.9358 23.7839 30.9092 23.5445C30.9004 23.5179 30.9004 23.4825 30.9004 23.4559C30.9004 23.3938 30.9092 23.3318 30.9181 23.2697C30.9181 23.2403 30.9242 23.217 30.9313 23.1897L30.9358 23.1722C31.0354 23.1116 31.1264 23.0531 31.2142 22.9968C31.3062 22.9377 31.3948 22.8808 31.4855 22.8264L31.3791 22.6668C31.2993 22.6934 31.2173 22.72 31.1353 22.7466C31.0533 22.7732 30.9713 22.7998 30.8915 22.8264C30.4039 22.986 29.9162 23.1456 29.4286 23.314C29.4156 23.314 29.4074 23.3188 29.397 23.3248C29.3931 23.327 29.389 23.3294 29.3843 23.3318C29.3577 23.3495 29.3311 23.3672 29.3045 23.3938ZM29.3222 25.2291C29.2336 25.3355 29.1715 25.4507 29.136 25.6015C29.1183 25.6813 29.1094 25.7611 29.1094 25.8586C29.1094 26.0004 29.136 26.1512 29.1892 26.2842C29.3311 26.6211 29.6325 26.8871 29.9872 26.9846C30.0581 27.0023 30.129 27.02 30.2088 27.02H30.3241C30.6344 27.0023 30.9358 26.8605 31.1398 26.6388C31.1531 26.6255 31.1641 26.61 31.1752 26.5945C31.1863 26.579 31.1974 26.5634 31.2107 26.5501C31.3259 26.3994 31.4057 26.231 31.4323 26.0448C31.4323 26.0214 31.4348 26.0004 31.4371 25.9807C31.4392 25.963 31.4412 25.9463 31.4412 25.9295C31.4501 25.7699 31.4235 25.6192 31.3703 25.4862C31.3437 25.4241 31.3082 25.3621 31.2727 25.3C31.2195 25.2114 31.1486 25.1316 31.06 25.0695C31.0068 25.0252 30.9447 24.9897 30.8738 24.9542C30.8383 24.9365 30.8028 24.9188 30.7674 24.9099C30.6255 24.8567 30.4571 24.8301 30.2709 24.839C30.1911 24.839 30.1202 24.8479 30.0492 24.8567C29.7567 24.901 29.4995 25.0252 29.3222 25.2291ZM29.2602 32.916C29.934 32.916 30.6167 32.9071 31.2905 32.8894C31.3437 32.8894 31.4412 32.8096 31.4412 32.7741C31.4412 32.384 31.4235 31.9939 31.4057 31.6038H31.2018C31.1955 31.6671 31.1835 31.7305 31.1715 31.7938C31.1499 31.9078 31.1284 32.0218 31.1398 32.1358C31.1841 32.5347 31.0334 32.6766 30.6344 32.65C30.3 32.6257 29.9614 32.6305 29.5815 32.636C29.4078 32.6385 29.2243 32.6411 29.0296 32.6411C29.0824 32.7045 29.1213 32.7609 29.1522 32.8059C29.1992 32.8741 29.2281 32.916 29.2602 32.916ZM30.1605 30.0174C30.1566 30.176 30.1527 30.3333 30.1645 30.4867C30.1911 30.8236 30.0138 31.0275 29.7301 30.9743C29.6148 30.9566 29.4907 30.6463 29.4463 30.4601C29.4048 30.2938 29.395 30.1196 29.3851 29.9428C29.3802 29.8556 29.3753 29.7677 29.3665 29.6799C29.3311 29.6799 29.2978 29.6821 29.2646 29.6843C29.2313 29.6865 29.1981 29.6887 29.1626 29.6887C29.1626 29.8087 29.1621 29.9281 29.1615 30.0472C29.1599 30.4035 29.1582 30.7574 29.1715 31.1162C29.1804 31.1605 29.3133 31.2314 29.3843 31.2314C30.067 31.2403 30.7496 31.2403 31.4146 31.2403V29.671C31.2373 29.7508 31.1486 29.8661 31.1398 29.9902C31.1327 30.0745 31.141 30.1629 31.1492 30.25C31.1616 30.3829 31.1737 30.5126 31.1309 30.6197C31.0883 30.7354 30.9745 30.8218 30.8615 30.9077C30.81 30.9468 30.7586 30.9859 30.7142 31.0275C30.6818 30.9833 30.6425 30.941 30.6035 30.8991C30.5253 30.815 30.4482 30.7321 30.4305 30.6374C30.3924 30.4344 30.3997 30.2269 30.407 30.0214C30.4099 29.9396 30.4127 29.8581 30.4127 29.7774H30.1645C30.1645 29.8575 30.1625 29.9377 30.1605 30.0174ZM31.1752 28.9972C31.2107 28.9972 31.2461 28.9883 31.2905 28.9617C31.3424 28.9358 31.4038 28.8955 31.4817 28.8445L31.483 28.8437C31.5109 28.8255 31.5418 28.8052 31.5742 28.7844C31.4927 28.7572 31.4345 28.7367 31.3895 28.7209C31.361 28.7108 31.3377 28.7026 31.3171 28.6957C31.2816 28.6869 31.2639 28.6869 31.2373 28.6869C31.2095 28.6869 31.1841 28.6893 31.1599 28.6916C31.1378 28.6937 31.1166 28.6957 31.0954 28.6957C31.0744 28.6957 31.0534 28.6968 31.0327 28.6978C30.9923 28.6997 30.9533 28.7016 30.9181 28.6957C30.8826 28.6957 30.8472 28.6869 30.8206 28.678C30.8076 28.678 30.7994 28.6732 30.7889 28.6672C30.7851 28.665 30.781 28.6626 30.7762 28.6603C30.7053 28.6248 30.661 28.5539 30.6433 28.4386C30.6344 28.3677 30.6344 28.279 30.6433 28.1726V28.1194C30.6433 28.084 30.6344 28.0485 30.6167 28.013L30.5901 27.9598C30.5723 27.9244 30.5457 27.8801 30.5191 27.8446C30.3773 27.6584 30.1468 27.4633 29.9606 27.3747C29.934 27.3658 29.8985 27.3658 29.8542 27.3747C29.8187 27.3836 29.7921 27.3924 29.7567 27.4101C29.6325 27.4722 29.4995 27.5697 29.3843 27.685C29.3399 27.7293 29.2956 27.7825 29.2602 27.8269C29.2557 27.8357 29.2513 27.8424 29.2469 27.849C29.2424 27.8557 29.238 27.8623 29.2336 27.8712C29.1981 27.9332 29.1804 28.0042 29.1626 28.0751C29.1449 28.146 29.136 28.2258 29.136 28.3056C29.1272 28.4652 29.136 28.6337 29.1449 28.7844C29.1449 28.8287 29.1892 28.8819 29.2513 28.9262C29.3045 28.9706 29.3754 29.006 29.4286 29.006C29.8719 29.0149 30.3063 29.0149 30.7408 29.006C30.8826 29.006 31.0334 29.006 31.1752 28.9972ZM35.7501 37.9253C35.7678 37.8721 35.759 37.8012 35.7412 37.748C35.7346 37.7183 35.7268 37.6873 35.7186 37.655C35.7049 37.6009 35.6903 37.5431 35.6792 37.482C35.4221 37.8544 35.2359 38.0406 34.9788 38.0406C34.7571 38.0317 34.4734 37.8899 34.0567 37.5973C34.0212 37.5677 33.9779 37.5382 33.9345 37.5086C33.9129 37.4938 33.8912 37.4791 33.8705 37.4643C33.8794 37.4953 33.8905 37.5263 33.9015 37.5574C33.9126 37.5884 33.9237 37.6194 33.9326 37.6505L34.101 38.1558C34.1542 38.3065 34.2074 38.4573 34.2517 38.5991C34.2606 38.6213 34.2673 38.6457 34.2739 38.6701C34.2806 38.6945 34.2872 38.7188 34.2961 38.741C34.3272 38.8345 34.3543 38.9306 34.3816 39.0274C34.4242 39.1785 34.4671 39.331 34.5266 39.4769C34.5355 39.4946 34.5421 39.5101 34.5488 39.5256C34.5554 39.5412 34.5621 39.5567 34.5709 39.5744C34.5887 39.6187 34.633 39.6542 34.6773 39.6897C34.7128 39.7163 34.7482 39.734 34.7837 39.7517C34.8191 39.7695 34.8635 39.7872 34.899 39.7961C34.9078 39.8005 34.9167 39.8027 34.9256 39.8049C34.9344 39.8071 34.9433 39.8094 34.9522 39.8138H34.9788C34.9887 39.8138 34.9987 39.8082 35.0102 39.8017C35.0192 39.7967 35.0292 39.7911 35.0408 39.7872C35.0763 39.7695 35.1117 39.734 35.1383 39.7074C35.156 39.6808 35.1649 39.6631 35.1738 39.6453C35.3245 39.2198 35.4753 38.7942 35.6171 38.3598C35.6614 38.2093 35.7059 38.0669 35.7501 37.9253ZM37.8514 39.4946C37.8602 39.4592 37.8602 39.4237 37.8602 39.3882V39.2818C37.8543 38.9213 37.8563 38.5608 37.8583 38.2003C37.8592 38.02 37.8602 37.8396 37.8602 37.6593L37.5942 37.5795C37.541 37.6859 37.4879 37.8012 37.4435 37.9076C37.4365 37.9251 37.4309 37.9412 37.4256 37.9565C37.4174 37.9799 37.4099 38.0014 37.3992 38.0228C37.3948 38.0406 37.3881 38.0605 37.3815 38.0805C37.3748 38.1004 37.3682 38.1204 37.3637 38.1381C37.3488 38.178 37.3366 38.2207 37.3241 38.2646C37.3144 38.2988 37.3044 38.3337 37.2928 38.3686C37.2884 38.3864 37.2817 38.4063 37.2751 38.4263C37.2684 38.4462 37.2618 38.4662 37.2573 38.4839C37.2219 38.4573 37.1864 38.4307 37.1421 38.4041C37.1256 38.3935 37.1091 38.3831 37.0927 38.3727C36.9856 38.3048 36.8821 38.2392 36.8052 38.147C36.6737 37.9958 36.5618 37.8252 36.4513 37.6567C36.4127 37.5979 36.3743 37.5394 36.3353 37.482C36.3042 37.4997 36.2754 37.5197 36.2466 37.5396C36.2178 37.5596 36.189 37.5796 36.1579 37.5973C36.3087 37.8721 36.4594 38.147 36.619 38.4307L36.6048 38.4424C36.5525 38.4857 36.483 38.5431 36.4505 38.608C36.4417 38.6346 36.4239 38.6701 36.4062 38.6967C36.3973 38.71 36.3885 38.7255 36.3796 38.741C36.3707 38.7565 36.3619 38.772 36.353 38.7853C36.3503 38.7906 36.3477 38.7952 36.345 38.7994L36.3397 38.8075C36.3353 38.8141 36.3308 38.8208 36.3264 38.8297C36.2821 38.8917 36.2466 38.9449 36.22 39.007C36.1934 39.0513 36.1757 39.0956 36.1668 39.1311C36.1491 39.1843 36.1491 39.2286 36.1668 39.2641C36.2289 39.3794 36.3264 39.4857 36.4505 39.5833C36.5746 39.6808 36.7076 39.7606 36.8406 39.8227C36.9116 39.8581 37.0091 39.8404 37.1066 39.8227C37.1343 39.8192 37.1634 39.813 37.1928 39.8068C37.2385 39.7971 37.285 39.7872 37.3283 39.7872H37.3992C37.541 39.8138 37.6297 39.7961 37.7006 39.7606C37.7272 39.7429 37.7538 39.7251 37.7716 39.7074L37.7753 39.7032L37.7793 39.6978L37.7849 39.6897C37.7893 39.683 37.7937 39.6764 37.7982 39.6719C37.8159 39.6365 37.8336 39.5921 37.8425 39.5478C37.8425 39.5389 37.8447 39.5301 37.8469 39.5212C37.8491 39.5123 37.8514 39.5035 37.8514 39.4946ZM39.3675 39.8581C39.4029 39.8493 39.4295 39.8493 39.465 39.8493C39.6149 39.8377 39.7648 39.8037 39.9171 39.7691C39.999 39.7505 40.0817 39.7318 40.1654 39.7163C40.1211 39.6099 40.1033 39.5035 40.0856 39.3882C40.0767 39.3616 40.0767 39.3439 40.0767 39.3173C40.0679 39.273 40.0679 39.2286 40.0679 39.1843C40.0628 39.0424 40.0693 38.9006 40.0758 38.7587C40.0807 38.6524 40.0856 38.5459 40.0856 38.4396C40.0856 38.4174 40.0834 38.3952 40.0812 38.3731C40.079 38.3509 40.0767 38.3287 40.0767 38.3066C40.0679 38.28 40.0679 38.2534 40.0679 38.2356C40.0679 38.1913 40.059 38.147 40.0501 38.1026C40.0501 38.0731 40.0423 38.0435 40.0344 38.014C40.0304 37.9992 40.0265 37.9844 40.0235 37.9697C40.0058 37.8987 39.9881 37.8367 39.9526 37.7746C39.9171 37.7125 39.8817 37.6505 39.8374 37.5884C39.8285 37.7214 39.8196 37.8633 39.8108 38.014C39.8019 38.1647 39.793 38.3332 39.7842 38.5371C39.7037 38.5019 39.6262 38.4753 39.5547 38.4507C39.5001 38.432 39.449 38.4144 39.4029 38.3952C39.3409 38.3686 39.2788 38.3332 39.2345 38.2888C39.1517 38.2116 39.0965 38.1104 39.0409 38.0086C39.0071 37.9468 38.9732 37.8848 38.933 37.8278C38.9241 37.8101 38.9064 37.7835 38.8887 37.7657C38.871 37.748 38.8444 37.7214 38.8178 37.7037C38.8089 37.6992 38.8023 37.6948 38.7956 37.6904C38.789 37.686 38.7823 37.6815 38.7734 37.6771C38.7468 37.6682 38.7114 37.6505 38.6848 37.6327C38.6626 37.6194 38.6404 37.6084 38.6183 37.5973C38.5961 37.5862 38.5739 37.5751 38.5518 37.5618C38.5562 37.5884 38.5584 37.615 38.5606 37.6416C38.5629 37.6682 38.5651 37.6948 38.5695 37.7214C38.5784 37.8012 38.5872 37.8633 38.6138 37.9165C38.6227 37.9342 38.6316 37.9431 38.6404 37.9519C38.9508 38.2445 38.9773 38.4839 38.6316 38.7765C38.5429 38.8563 38.4897 38.9361 38.4542 39.0158C38.4365 39.0513 38.4277 39.0779 38.4277 39.1134C38.4188 39.1488 38.4188 39.1754 38.4277 39.2109C38.4277 39.2375 38.4365 39.2818 38.4542 39.3084C38.472 39.335 38.4897 39.3705 38.5074 39.4059C38.5429 39.4591 38.5784 39.5035 38.6316 39.5567C38.6449 39.57 38.6604 39.5833 38.6759 39.5966C38.6914 39.6099 38.7069 39.6232 38.7202 39.6365C38.9241 39.8049 39.1458 39.8581 39.3675 39.8581ZM41.8588 39.3971C41.912 39.3084 41.9652 39.2109 41.9918 39.1134C42.1425 38.608 42.2844 38.1026 42.4262 37.5884C42.4082 37.6064 42.3908 37.6245 42.3736 37.6422C42.3232 37.6942 42.2752 37.7438 42.2223 37.7835C42.1514 37.8367 42.0805 37.881 42.0184 37.9165C41.9563 37.9519 41.8943 37.9785 41.8234 37.9962L41.8021 37.9989C41.7398 38.0068 41.6832 38.014 41.6194 38.014C41.513 38.0051 41.4066 37.9785 41.2914 37.9342C41.2713 37.9292 41.2512 37.9185 41.2296 37.9069C41.2129 37.898 41.1954 37.8887 41.1761 37.881C41.1141 37.8465 41.052 37.8067 40.9816 37.7614L40.919 37.7214C40.8569 37.6819 40.7984 37.6352 40.7366 37.5859C40.7014 37.5577 40.6651 37.5287 40.6264 37.4997C40.6209 37.5164 40.6153 37.5314 40.6103 37.5449C40.5993 37.5743 40.591 37.5968 40.591 37.615V37.6416C40.6131 37.7214 40.6375 37.799 40.6619 37.8766C40.6863 37.9541 40.7107 38.0317 40.7328 38.1115C40.7591 38.206 40.7884 38.3004 40.8172 38.3931C40.837 38.4569 40.8566 38.5199 40.8747 38.5814C40.8888 38.645 40.9086 38.703 40.9295 38.7644L40.9456 38.8119C41.0165 39.0424 41.0963 39.273 41.185 39.5035C41.2027 39.5567 41.2471 39.601 41.3091 39.6365C41.3535 39.6631 41.3978 39.6897 41.4421 39.7074C41.513 39.734 41.584 39.7695 41.646 39.8049C41.6815 39.7384 41.717 39.6697 41.7524 39.601C41.7879 39.5323 41.8233 39.4636 41.8588 39.3971ZM44.4255 39.6852C44.4278 39.6609 44.43 39.6365 44.43 39.6099C44.149 39.5779 43.8634 39.5506 43.5567 39.5213C43.4376 39.5099 43.3151 39.4981 43.1887 39.4857C43.4817 39.1259 43.7539 38.7869 44.019 38.4567C44.2111 38.2174 44.3996 37.9827 44.5896 37.748C44.1995 37.5086 43.0557 37.5352 42.639 37.8721L42.7652 37.8832L42.7675 37.8834C43.2151 37.9226 43.5927 37.9557 44.0221 37.9962C43.5434 38.5903 43.1267 39.0956 42.577 39.7606H44.4211C44.4211 39.734 44.4233 39.7096 44.4255 39.6852ZM45.1304 37.4022C45.4673 37.9696 45.4141 39.5833 45.1304 39.8138V37.4022ZM47.4054 39.6791C47.4855 39.6671 47.5669 39.6549 47.6484 39.6453C47.7015 39.6365 47.7459 39.6365 47.7902 39.6365L47.7636 38.6169C47.7547 38.28 47.7459 37.9519 47.737 37.6239C47.5498 37.6239 47.386 37.6213 47.2358 37.6189C47.1088 37.6169 46.9906 37.615 46.877 37.615C46.7972 37.615 46.7174 37.615 46.6376 37.6239C46.4426 37.6327 46.2564 37.7214 46.15 37.8367C46.0436 37.9519 45.9904 38.1026 46.0525 38.2622L46.1589 38.5282L46.1742 38.5661C46.2042 38.6401 46.2323 38.7095 46.2475 38.7853C46.2564 38.8031 46.2652 38.8297 46.2652 38.8474C46.283 38.9538 46.2918 39.069 46.2652 39.1932C46.2564 39.2375 46.2387 39.2907 46.2209 39.3439C46.2032 39.3794 46.2475 39.4591 46.3184 39.5389C46.3628 39.5833 46.4071 39.6276 46.4514 39.6631C46.4559 39.6675 46.4625 39.6719 46.4692 39.6764C46.4758 39.6808 46.4825 39.6852 46.4869 39.6897C46.5224 39.7074 46.5578 39.7251 46.5844 39.734C46.5933 39.7429 46.6022 39.7429 46.611 39.7429H46.7617C46.9036 39.7429 47.0632 39.7251 47.205 39.7074C47.2701 39.6993 47.3374 39.6892 47.4054 39.6791ZM49.4393 34.0863C49.4304 33.7494 49.4216 33.4036 49.4216 33.0667C49.4157 32.3908 49.4176 31.7149 49.4196 31.0235V31.0193C49.4206 30.6693 49.4216 30.3146 49.4216 29.9547C49.4393 25.6901 49.457 21.4167 49.4659 17.1521C49.4659 17.1477 49.4637 17.141 49.4615 17.1344C49.4592 17.1277 49.457 17.1211 49.457 17.1166C49.4393 17.0368 49.3595 16.9304 49.2974 16.9038C49.2886 16.895 49.2797 16.895 49.2708 16.895C49.0283 16.8758 48.7811 16.8797 48.5458 16.8833C48.4544 16.8847 48.3646 16.8861 48.2778 16.8861L48.3044 17.1255C48.3158 17.1936 48.3255 17.2601 48.335 17.325C48.3478 17.4121 48.3601 17.4964 48.3754 17.5777C48.3984 17.7084 48.4148 17.8325 48.4304 17.9499L48.4374 18.0032C48.464 18.2072 48.4729 18.4111 48.464 18.6061C48.4197 19.5193 48.0651 20.2907 47.5331 20.9645C47.3558 21.1862 47.1519 21.4078 46.9391 21.6117C46.9364 21.6144 46.9329 21.6171 46.9291 21.62C46.9203 21.6268 46.9098 21.6348 46.9036 21.6472C46.8992 21.6561 46.8925 21.6627 46.8859 21.6694C46.8792 21.676 46.8726 21.6827 46.8681 21.6915C46.8599 21.7025 46.8517 21.7126 46.8437 21.7224C46.8259 21.7443 46.8095 21.7646 46.7972 21.7891C46.7795 21.8157 46.7617 21.8511 46.744 21.8866C46.7263 21.9132 46.7174 21.9486 46.7174 21.9841C46.6997 22.188 46.6997 22.3919 46.6997 22.587C46.6997 22.6901 46.7019 22.7909 46.7042 22.8906C46.7064 22.9881 46.7085 23.0846 46.7085 23.181C47.9587 23.5534 48.464 24.3425 48.4197 25.3532C48.4108 25.566 48.3665 25.7611 48.3044 25.9384C48.3 25.9517 48.2934 25.9672 48.2867 25.9827C48.2801 25.9982 48.2734 26.0137 48.269 26.027C48.2557 26.0536 48.2424 26.0825 48.2291 26.1113C48.2158 26.1401 48.2025 26.1689 48.1892 26.1955C48.1449 26.2842 48.1005 26.364 48.0473 26.4349C47.9587 26.559 47.8523 26.6743 47.7459 26.7718C47.7281 26.7984 47.7104 26.8161 47.6838 26.8339C47.3646 27.091 46.9923 27.2506 46.6553 27.2772C46.5756 27.286 46.4869 27.286 46.4071 27.286C45.6801 27.286 45.157 27.0378 44.8112 26.6122C44.7935 26.5856 44.7757 26.5612 44.758 26.5368C44.7403 26.5125 44.7226 26.4881 44.7048 26.4615C44.6339 26.364 44.5718 26.2487 44.5186 26.1334C44.4388 25.9561 44.3768 25.7611 44.3324 25.5571C44.3071 25.4642 44.2979 25.3713 44.2894 25.2861L44.2881 25.2734V25.0872C44.2881 24.9276 44.3236 24.7769 44.3679 24.6351C44.3791 24.6089 44.3888 24.5827 44.3982 24.5571C44.411 24.5222 44.4235 24.4885 44.4388 24.4577C44.4451 24.4452 44.4503 24.4337 44.4551 24.423C44.464 24.4034 44.4717 24.3863 44.4832 24.3691C44.758 23.8371 45.3166 23.385 46.1057 23.1101V22.3122C45.8428 22.4101 45.583 22.511 45.3244 22.6114C45.1382 22.6837 44.9524 22.7559 44.7669 22.8264C44.7226 22.8441 44.6782 22.8596 44.6339 22.8751C44.5896 22.8907 44.5452 22.9062 44.5009 22.9239L43.9689 23.1101C43.9424 23.119 43.9136 23.1278 43.8848 23.1367C43.856 23.1455 43.8271 23.1544 43.8005 23.1633C43.6214 23.2081 43.4352 23.2458 43.251 23.2831C43.1433 23.3049 43.0362 23.3266 42.9316 23.3495C42.8163 23.3761 42.71 23.4027 42.5947 23.4381C42.5415 23.4559 42.4883 23.5002 42.4351 23.5534C42.3996 23.5889 42.3731 23.6332 42.3465 23.6775C42.3329 23.6911 42.3245 23.7098 42.3174 23.7258C42.3152 23.7307 42.3131 23.7354 42.311 23.7396C42.2933 23.7839 42.2844 23.8283 42.2844 23.8637C42.2755 25.1934 42.2755 26.5142 42.2755 27.8438V29.1745C42.2755 29.2607 42.283 29.3469 42.2906 29.4355C42.2948 29.4836 42.299 29.5324 42.3021 29.5823C42.6834 29.4848 43.038 29.4228 43.3749 29.3962C43.5434 29.3784 43.703 29.3696 43.8625 29.3696C43.9024 29.3696 43.9401 29.3718 43.9778 29.374C44.0155 29.3762 44.0532 29.3784 44.0931 29.3784C44.2438 29.3873 44.3856 29.405 44.5274 29.4227C44.8821 29.4759 45.2013 29.5735 45.485 29.7065C45.6535 29.7863 45.8131 29.8749 45.9638 29.9813C46.0613 30.0434 46.1589 30.1232 46.2475 30.203C46.3894 30.3182 46.5135 30.4512 46.6288 30.5931C46.7795 30.7793 46.9125 30.9832 47.0366 31.2048C47.0634 31.245 47.0851 31.2902 47.1056 31.3328C47.1122 31.3466 47.1188 31.3604 47.1253 31.3733C47.1873 31.4885 47.2405 31.6038 47.2848 31.7279C47.3646 31.9141 47.4267 32.1003 47.4799 32.2954L47.4267 32.2688C47.3912 32.2422 47.3646 32.2156 47.3469 32.1801C47.3203 32.1446 47.3026 32.1092 47.2848 32.0737C47.2671 32.0382 47.2494 32.0028 47.2228 31.9673C47.2183 31.9584 47.2117 31.9518 47.205 31.9451C47.1984 31.9385 47.1918 31.9318 47.1873 31.923C47.01 31.7191 46.8327 31.524 46.6288 31.3556C46.5756 31.3112 46.5135 31.2669 46.4515 31.2226C46.2298 31.0807 45.9904 30.9743 45.6978 30.9388C45.5914 30.93 45.5028 30.93 45.423 30.9477C45.3786 30.9566 45.3343 30.9743 45.2988 31.0009C45.2368 31.0364 45.1925 31.0984 45.1659 31.1871C45.1481 31.2403 45.1304 31.3024 45.1304 31.3733C45.1215 31.5151 45.1215 31.6481 45.1304 31.7811C45.1393 31.985 45.1836 32.1801 45.2545 32.3574C45.3254 32.5347 45.4318 32.7121 45.5826 32.8628C45.6535 32.9337 45.7156 33.0046 45.7776 33.0756C45.7953 33.0977 45.8131 33.1221 45.8308 33.1465C45.8485 33.1709 45.8663 33.1953 45.884 33.2174C45.9195 33.2706 45.9461 33.315 45.9727 33.3682C45.9904 33.3948 45.9993 33.4214 46.0081 33.448C46.0347 33.5011 46.0436 33.5543 46.0525 33.6075C46.0613 33.6607 46.0613 33.7139 46.0525 33.776C46.0436 33.8913 45.9993 34.0154 45.9106 34.1572L45.884 34.2104C45.8543 34.2997 45.8644 34.4128 45.8743 34.5232C45.8792 34.5773 45.884 34.6307 45.884 34.6803V36.1166C45.7876 36.1089 45.6946 36.1029 45.6049 36.0971C45.4884 36.0895 45.3774 36.0823 45.2722 36.0723C45.1792 36.0634 45.0861 36.0568 44.993 36.0501C44.8999 36.0435 44.8068 36.0368 44.7137 36.028C44.7093 36.0058 44.7026 35.9814 44.696 35.9571C44.6893 35.9327 44.6826 35.9083 44.6782 35.8861C44.7137 35.8684 44.7492 35.8418 44.7757 35.8152C44.8289 35.762 44.8821 35.7088 44.9176 35.6556C44.9265 35.6423 44.9331 35.6268 44.9398 35.6113C44.9464 35.5958 44.9531 35.5802 44.9619 35.5669C44.9664 35.5581 44.9686 35.5514 44.9708 35.5448C44.973 35.5382 44.9752 35.5315 44.9797 35.5226C45.0417 35.363 45.0417 35.1857 45.0329 35.0084C45.0329 34.9862 45.0307 34.9618 45.0284 34.9375C45.0262 34.9131 45.024 34.8887 45.024 34.8665C45.024 34.8355 45.0218 34.8022 45.0196 34.769C45.0174 34.7357 45.0151 34.7025 45.0151 34.6715V34.6271C45.0151 34.5651 45.024 34.503 45.0329 34.441C45.0506 34.3168 45.0506 34.2193 45.024 34.1306C44.9619 33.9356 44.8024 33.8203 44.5541 33.7494C44.3856 33.6962 44.2261 33.6341 44.0753 33.5632C43.7739 33.4125 43.499 33.2263 43.2597 32.9869C43.1355 32.8717 43.0203 32.7387 42.9139 32.5968C42.8695 32.5436 42.7809 32.5081 42.6834 32.4993C42.639 32.4904 42.5858 32.4904 42.5326 32.4904C42.4794 32.4904 42.4351 32.4904 42.3908 32.4993C41.8943 32.5702 41.3978 32.6569 40.9013 32.7436C40.653 32.7869 40.4048 32.8303 40.1565 32.8717C40.1388 32.8451 40.1233 32.8162 40.1078 32.7874C40.0923 32.7586 40.0767 32.7298 40.059 32.7032C40.035 32.7991 40.003 32.8939 39.971 32.9884C39.9084 33.1737 39.8462 33.3576 39.8462 33.5455C39.8515 33.9232 39.8856 34.3009 39.9196 34.6786C39.9423 34.9304 39.965 35.1822 39.9792 35.434V35.4605C39.9792 35.5315 39.9703 35.6201 39.9526 35.6999C39.9437 35.7354 39.9349 35.762 39.926 35.7886C39.9083 35.8329 39.8817 35.8595 39.864 35.8684C39.7398 35.895 39.6246 35.9127 39.5004 35.9216C39.4827 35.9216 39.4628 35.9238 39.4428 35.926C39.4229 35.9282 39.4029 35.9305 39.3852 35.9305C39.2256 35.9393 39.0749 35.9482 38.933 35.9571C38.9641 35.8216 38.9996 35.695 39.0334 35.5749C39.1056 35.3178 39.1696 35.0901 39.1635 34.8665C39.1635 34.8133 39.1635 34.7513 39.1547 34.6981C39.1369 34.503 39.097 34.308 39.0571 34.1129C39.0172 33.9179 38.9773 33.7228 38.9596 33.5277C38.9242 33.1199 38.8532 32.7564 38.6759 32.4372C38.5429 32.1801 38.339 31.9584 38.0464 31.7545C37.7982 31.5861 37.6031 31.3201 37.4347 31.0364C37.3533 30.9032 37.2843 30.7639 37.2173 30.6287L37.1775 30.5487C37.1654 30.5244 37.1532 30.5011 37.1414 30.4785C37.1188 30.4352 37.0975 30.3945 37.08 30.3537C37.0665 30.3401 37.0581 30.3214 37.0509 30.3054L37.0478 30.2984L37.0445 30.2916L37.0367 30.2785L37.0226 30.2541C37.0066 30.2261 36.9923 30.2012 36.9736 30.1764L36.958 30.1552C36.9392 30.1298 36.9237 30.1088 36.9027 30.0877C36.7697 29.9458 36.6101 29.9281 36.3619 29.9902C36.5588 30.361 36.752 30.7204 36.9192 31.0314C37.0076 31.1959 37.0893 31.3479 37.1598 31.4797C37.155 31.5665 37.1475 31.6507 37.1403 31.7322C37.1343 31.8005 37.1284 31.8672 37.1243 31.9319C37.1066 32.1446 37.0889 32.3397 37.0711 32.5347L37.0445 32.9071C37.0401 32.9381 37.0379 32.9692 37.0357 33.0002C37.0335 33.0312 37.0312 33.0623 37.0268 33.0933H36.2289C36.2111 32.916 36.2111 32.7298 36.2111 32.5525V32.1446C36.2111 31.923 36.1845 31.6925 36.1136 31.4619C36.0604 31.2758 35.9718 31.0984 35.8299 30.9123C35.821 31.0807 35.8122 31.2403 35.8033 31.3822C35.7984 31.5151 35.7907 31.6372 35.7834 31.7544C35.7775 31.848 35.7718 31.9388 35.7678 32.0294C35.7501 32.0249 35.7324 32.0183 35.7146 32.0116C35.6969 32.005 35.6792 31.9983 35.6614 31.9939C35.5584 31.9608 35.4614 31.9307 35.3661 31.9011C35.2319 31.8595 35.101 31.8189 34.961 31.7723C34.9522 31.7457 34.9433 31.6925 34.9433 31.6304V31.5595C34.9433 31.5063 34.9455 31.4553 34.9477 31.4043C34.9499 31.3533 34.9522 31.3024 34.9522 31.2492C34.9522 30.9477 34.9078 30.6551 34.5532 30.4246C34.5089 30.398 34.4734 30.3626 34.4468 30.3271C34.3049 30.1586 34.3936 29.9458 34.5355 29.8217C34.5798 29.7863 34.6241 29.7597 34.6684 29.7419C34.6773 29.7419 34.684 29.7397 34.6906 29.7375C34.6973 29.7353 34.7039 29.7331 34.7128 29.7331C34.8901 29.6976 35.032 29.6267 35.1649 29.5291C35.1915 29.5025 35.2181 29.4848 35.2447 29.4671C35.3423 29.3873 35.4398 29.2986 35.5285 29.21C35.5506 29.1878 35.575 29.1678 35.5994 29.1479C35.6238 29.128 35.6481 29.108 35.6703 29.0858C35.7235 29.0415 35.7678 29.006 35.821 28.9706C35.8742 28.9351 35.9274 28.8997 35.9895 28.8731C36.3973 28.6869 36.6367 28.3854 36.548 27.8889V27.7737C36.548 27.7648 36.5503 27.7537 36.5525 27.7426C36.5547 27.7315 36.5569 27.7205 36.5569 27.7116C36.5613 27.6894 36.568 27.6673 36.5746 27.6451C36.5813 27.6229 36.5879 27.6008 36.5924 27.5786C36.6101 27.5077 36.6279 27.4367 36.6456 27.357C36.6667 27.3622 36.6846 27.3706 36.7013 27.3785C36.7127 27.3838 36.7235 27.3888 36.7342 27.3924C36.7859 27.4163 36.8341 27.4366 36.8794 27.4557C36.9352 27.4792 36.9868 27.501 37.0357 27.5254C37.0711 27.5387 37.1044 27.5542 37.1376 27.5697C37.1709 27.5853 37.2041 27.6008 37.2396 27.6141C37.2529 27.5963 37.264 27.5786 37.2751 27.5609C37.2861 27.5431 37.2972 27.5254 37.3105 27.5077C37.315 27.4988 37.3216 27.4899 37.3283 27.4811C37.3349 27.4722 37.3416 27.4633 37.346 27.4545C37.3753 27.4084 37.4085 27.3604 37.4457 27.3067C37.4873 27.2466 37.5339 27.1794 37.5854 27.0998C37.6563 27.2328 37.7183 27.3569 37.7715 27.4633L37.8514 27.6229C37.8647 27.6495 37.878 27.6739 37.8913 27.6983C37.9046 27.7227 37.9179 27.7471 37.9312 27.7737C38.0021 27.9155 38.0819 28.0662 38.1617 28.2081C38.176 28.2319 38.1903 28.2564 38.2047 28.2811C38.2441 28.3485 38.2848 28.4182 38.3301 28.4829C38.3922 28.5805 38.4542 28.6691 38.5163 28.7489C38.5345 28.7793 38.5569 28.8055 38.5806 28.8332C38.5914 28.8459 38.6027 28.8591 38.6138 28.8731C38.7468 29.0415 38.9064 29.1834 39.0837 29.3075C39.1059 29.3208 39.1303 29.3363 39.1547 29.3518C39.179 29.3673 39.2034 29.3829 39.2256 29.3962C39.3231 29.4493 39.4295 29.5025 39.5359 29.5469C39.5891 29.5735 39.6423 29.5912 39.7044 29.6089V23.5889C39.2657 23.453 38.8314 23.3213 38.4013 23.191L38.3975 23.1899C38.2117 23.1336 38.0267 23.0775 37.8425 23.0214C37.6555 22.9645 37.4693 22.9076 37.284 22.8509C36.863 22.7223 36.4462 22.5948 36.0338 22.4717V23.2165C36.3087 23.314 36.5569 23.4293 36.7786 23.58C36.8318 23.6155 36.885 23.6509 36.9382 23.6953C37.1332 23.8549 37.3017 24.041 37.4258 24.2627C37.5144 24.4311 37.5854 24.6085 37.6208 24.8124C37.6297 24.8744 37.6386 24.9453 37.6474 25.0162C37.6563 25.0516 37.6563 25.0872 37.6563 25.1227C37.6652 25.3089 37.6474 25.5039 37.612 25.7167C37.5233 26.231 37.2219 26.6831 36.8052 26.9757C36.7697 27.0023 36.7254 27.0289 36.681 27.0555C36.5569 27.1353 36.4151 27.1885 36.2643 27.2328C36.1668 27.2594 36.0693 27.2772 35.9629 27.286C35.5196 27.3304 35.1295 27.2683 34.7926 27.1264C34.234 26.887 33.8439 26.4171 33.6843 25.7522L33.6577 25.6192C33.6222 25.433 33.6045 25.2291 33.6134 25.0429C33.6222 24.901 33.6488 24.7681 33.6932 24.6439C33.7552 24.4666 33.8439 24.2982 33.9503 24.1474C34.0567 23.9967 34.1808 23.8637 34.3138 23.7396C34.3847 23.6775 34.4557 23.6243 34.5266 23.5711C34.633 23.4913 34.7571 23.4204 34.8812 23.3584C35.0054 23.2963 35.1383 23.2431 35.2802 23.1988V21.9132C35.2713 21.8689 35.2625 21.8334 35.2359 21.8068L34.8812 21.4521C34.7571 21.3369 34.6418 21.2128 34.5355 21.0886L34.4025 20.929C34.3682 20.888 34.3393 20.8469 34.3075 20.8018L34.2783 20.7606C34.1986 20.6454 34.1187 20.53 34.0478 20.4059C33.8084 19.9981 33.6754 19.5903 33.6045 19.1647C33.5691 18.9519 33.5513 18.7391 33.5513 18.5175C33.5425 18.083 33.5957 17.6397 33.6666 17.1787C33.671 17.1388 33.6777 17.1011 33.6843 17.0634C33.691 17.0258 33.6976 16.9881 33.702 16.9482C33.64 16.9482 33.5602 16.9393 33.4893 16.9304L33.4675 16.928C33.3964 16.92 33.3312 16.9127 33.2587 16.9127C33.1612 16.9038 33.0814 16.9038 33.0016 16.9038C32.9307 16.9038 32.8598 16.9038 32.8066 16.9127C32.4785 16.9393 32.4785 17.0812 32.4874 17.6663C32.4874 17.755 32.4896 17.8437 32.4918 17.9323C32.494 18.021 32.4963 18.1096 32.4963 18.1983C32.4963 19.5149 32.4985 20.8315 32.5007 22.1481C32.5029 23.4647 32.5051 24.7814 32.5051 26.098V30.0434C32.5051 31.3556 32.4963 32.6766 32.4874 33.9888C32.4874 34.0774 32.4874 34.1572 32.4963 34.2459C32.5051 34.4143 32.5406 34.5739 32.5849 34.7335C32.5894 34.7513 32.596 34.7712 32.6027 34.7911C32.6093 34.8111 32.616 34.8311 32.6204 34.8488C32.647 34.9286 32.6736 34.9995 32.709 35.0704L32.7622 35.1768C32.7794 35.2044 32.7953 35.2319 32.8109 35.2589C32.8354 35.3015 32.8592 35.3428 32.8864 35.3808C33.0194 35.5758 33.1789 35.7443 33.3563 35.895C33.3975 35.9362 33.4494 35.9721 33.4995 36.0068C33.5141 36.0169 33.5285 36.0269 33.5425 36.0368C33.702 36.1432 33.8794 36.2319 34.0744 36.3028C34.1542 36.3294 34.234 36.356 34.3138 36.3738C34.5177 36.4181 34.7305 36.4447 34.9522 36.4447C37.9666 36.427 40.9811 36.427 43.9955 36.4358C44.9974 36.4447 46.0081 36.4447 47.01 36.4447C47.2848 36.4447 47.5508 36.4092 47.7902 36.3383L47.8081 36.3339C47.8398 36.3263 47.8758 36.3177 47.9055 36.3028C47.9204 36.2972 47.9358 36.2916 47.9514 36.2859C48.0097 36.2646 48.0712 36.2421 48.1271 36.2142L48.2335 36.161C48.261 36.1438 48.2885 36.1279 48.3155 36.1123C48.3581 36.0878 48.3995 36.064 48.4374 36.0368C48.6679 35.8861 48.863 35.6999 49.0137 35.4871C49.0581 35.434 49.1024 35.363 49.1378 35.301C49.1556 35.2744 49.1733 35.2389 49.191 35.2035C49.2004 35.1816 49.2109 35.1586 49.2217 35.1349C49.2415 35.0914 49.2625 35.0455 49.2797 34.9995C49.3063 34.9375 49.3329 34.8577 49.3506 34.7867C49.4127 34.5651 49.4482 34.3257 49.4393 34.0863ZM34.3648 25.1745C35.305 25.2167 36.1963 25.2567 37.1509 25.1227C36.0516 23.4913 35.1206 23.5091 34.1985 25.167L34.3648 25.1745ZM50.4798 26.4818C50.4346 26.5136 50.3936 26.5425 50.3525 26.5767C50.8933 26.8427 51.0618 27.1176 51.0263 27.4101C51.0263 27.4633 51.0086 27.5165 50.982 27.5786C50.9675 27.6292 50.9413 27.6739 50.9129 27.7223C50.9066 27.7331 50.8998 27.7447 50.8933 27.7559C50.88 27.7737 50.8667 27.7936 50.8534 27.8136C50.8401 27.8335 50.8268 27.8535 50.8135 27.8712C50.6805 28.0485 50.5032 28.2347 50.317 28.4209C50.3924 28.3935 50.4679 28.3713 50.5392 28.3504L50.6007 28.3322C50.7869 28.279 50.9643 28.2258 51.1327 28.1726C51.5494 28.0485 51.9129 27.9332 52.2764 27.8003C52.374 27.7648 52.4626 27.6939 52.5513 27.6141L52.6133 27.552C52.6488 27.5077 52.6931 27.4633 52.7375 27.4279C52.7463 27.419 52.7574 27.4102 52.7685 27.4013C52.7796 27.3924 52.7907 27.3836 52.7995 27.3747C52.6222 27.2594 52.4449 27.153 52.2676 27.0466C52.1878 27.0023 52.108 26.9668 52.0282 26.9402C51.5228 26.7718 51.0263 26.6122 50.521 26.4526L50.4798 26.4818ZM52.7995 30.3182C52.2498 30.2739 51.7001 30.2296 51.1416 30.1764C51.3506 29.9912 51.5597 29.8744 51.7579 29.7637C51.8539 29.7101 51.9474 29.6579 52.037 29.6001C52.2228 29.4862 52.3923 29.3481 52.5648 29.2076C52.6475 29.1402 52.731 29.0722 52.8173 29.006C52.3828 28.7312 50.6628 28.7933 50.4766 29.0947C50.709 29.1113 50.9395 29.126 51.168 29.1405C51.4276 29.157 51.6849 29.1734 51.9395 29.1922C51.7263 29.4296 51.4728 29.5922 51.2198 29.7544C50.9153 29.9497 50.6115 30.1445 50.3791 30.4689H52.7729C52.7818 30.4246 52.7906 30.3714 52.7995 30.3182ZM50.9643 32.1624C50.9111 32.2776 50.8401 32.384 50.7426 32.4993C50.6362 32.6323 50.5032 32.7653 50.3614 32.8983H50.5476C50.7899 32.8127 51.0381 32.7329 51.2827 32.6542L51.4608 32.5968C51.6115 32.5525 51.7622 32.4993 51.9129 32.4461C51.9883 32.4195 52.0637 32.3907 52.139 32.3618C52.2144 32.333 52.2897 32.3042 52.3651 32.2776C52.4272 32.2599 52.4804 32.2156 52.5335 32.1624C52.5572 32.1446 52.5808 32.119 52.6045 32.0934C52.6163 32.0806 52.6281 32.0678 52.6399 32.056C52.6843 31.9939 52.7375 31.9407 52.7906 31.8875C52.7198 31.8344 52.6487 31.7811 52.569 31.7279C52.5513 31.7146 52.5313 31.7013 52.5114 31.688L52.4941 31.6765L52.4823 31.6685C52.4724 31.6617 52.4628 31.6549 52.4538 31.6481C52.4183 31.6215 52.3828 31.5949 52.3385 31.5772C52.3208 31.5683 52.303 31.5617 52.2853 31.555C52.2676 31.5484 52.2498 31.5417 52.2321 31.5329C52.1612 31.5063 52.0902 31.4797 52.0104 31.4619C51.9849 31.4568 51.9624 31.4488 51.941 31.4412C51.9253 31.4356 51.9102 31.4302 51.8952 31.4265C51.6647 31.3556 51.4364 31.2824 51.2081 31.2093C50.9798 31.1361 50.7515 31.063 50.521 30.992L50.388 31.125C50.9909 31.4442 51.115 31.7723 50.9908 32.1092L50.9643 32.1624ZM52.4318 34.7664C52.5432 34.831 52.6544 34.8955 52.7641 34.9463L52.7748 34.9324L52.7885 34.9154C52.8063 34.8935 52.8228 34.8733 52.835 34.8488L52.6754 34.7006C52.3528 34.4009 52.0171 34.0891 51.6292 33.7317C52.0612 33.6909 52.3882 33.6651 52.7 33.6406L52.7818 33.6341C52.7641 33.5721 52.7552 33.5011 52.7463 33.4302H50.4589L50.4323 33.5366C50.7292 33.6471 51.0206 33.7629 51.3151 33.8799C51.3988 33.9132 51.4828 33.9466 51.5671 33.9799C51.5671 34.0109 51.5649 34.0398 51.5627 34.0686C51.5605 34.0974 51.5583 34.1262 51.5583 34.1572C51.4787 34.205 51.3992 34.2504 51.32 34.2957C51.1786 34.3764 51.0386 34.4564 50.9022 34.5473C50.7838 34.6284 50.6785 34.7269 50.5709 34.8276C50.5256 34.87 50.4796 34.9132 50.4323 34.9552C50.4678 34.9995 50.5121 35.0527 50.5564 35.097C50.6741 35.0298 50.7901 34.9474 50.906 34.8651C51.1566 34.6872 51.4068 34.5095 51.6735 34.4853C51.915 34.4667 52.1738 34.6168 52.4318 34.7664ZM50.4323 25.9206C50.6185 25.6813 52.3651 25.6281 52.9236 25.9206H50.4323Z" fill="#B61030"/>
</svg>
