<svg width="121" height="80" viewBox="0 0 121 80" fill="none" xmlns="http://www.w3.org/2000/svg">
<path d="M49.2309 32.8893C51.7436 32.8983 54.2473 32.8983 56.7601 32.8893C57.1487 32.8893 57.3114 33.052 57.2934 33.4316C57.2843 36.7849 57.2843 40.1383 57.2934 43.4916C57.2934 43.8351 57.1487 43.9887 56.8053 43.9887H54.4191C54.0756 43.9887 53.9219 43.8441 53.9491 43.4916C53.9611 43.2991 53.9571 43.1027 53.9531 42.9048C53.9511 42.8054 53.9491 42.7056 53.9491 42.6058C53.8858 42.5878 53.8316 42.5697 53.7773 42.5516C53.6507 42.6434 53.5274 42.7385 53.4043 42.8335C53.176 43.0097 52.9484 43.1853 52.7017 43.338C50.3517 44.7751 47.8479 44.8113 45.299 44.0249C42.4157 43.1301 40.5537 41.0964 39.6137 38.3034C38.2579 34.2812 38.5833 30.3946 41.1593 26.9056C44.0698 22.9557 49.7732 21.9976 53.8496 24.7273C55.341 25.7216 56.3895 27.1135 57.1126 28.7495C57.2572 29.0659 57.1759 29.2557 56.8505 29.3822C55.9104 29.7619 54.9885 30.1505 54.0575 30.5482C53.6327 30.729 53.5242 30.4488 53.4067 30.1415C53.009 29.0478 52.3944 28.1078 51.4092 27.457C49.1314 25.9475 45.8594 26.5622 44.4132 28.9574C42.5965 31.9763 42.4609 35.2122 44.1782 38.3215C45.9317 41.5122 50.0715 41.5212 52.0509 39.8038C52.9548 39.0265 53.4429 38.0323 53.6688 36.8843C53.7683 36.4053 53.5965 36.2426 53.1085 36.2516C52.4895 36.2652 51.8682 36.2629 51.2458 36.2607C50.6232 36.2584 49.9992 36.2562 49.3755 36.2697C48.8874 36.2788 48.6885 36.1341 48.7066 35.628C48.7376 35.0007 48.7288 34.3667 48.7199 33.7318C48.7184 33.626 48.7169 33.5193 48.7156 33.4135C48.7156 33.0519 48.8512 32.8893 49.2309 32.8893Z" fill="black"/>
<path d="M88.8745 43.6001C88.7389 43.799 88.4226 43.9707 88.1785 43.9797C87.3919 44.0069 86.6053 44.0034 85.8225 44.0001C85.5622 43.9989 85.3015 43.9978 85.0421 43.9978C84.9564 43.9978 84.8665 43.9646 84.7781 43.9319C84.736 43.9164 84.6943 43.901 84.6535 43.8893C84.6629 43.8561 84.6712 43.8216 84.6795 43.7869C84.7028 43.6893 84.7267 43.5897 84.78 43.5097C86.2261 41.2501 87.6724 38.9903 89.1366 36.7397C89.3536 36.4144 89.3174 36.1703 89.1095 35.863C87.8441 33.9558 86.5968 32.0396 85.3494 30.1234C85.2922 30.0408 85.2484 29.9536 85.1897 29.8368C85.1649 29.7876 85.1375 29.7331 85.1054 29.6715C85.1706 29.6618 85.2301 29.6522 85.2853 29.6432C85.4363 29.6186 85.5557 29.5992 85.6748 29.5992C85.9481 29.5992 86.2222 29.6016 86.4968 29.6041C87.1396 29.6098 87.7857 29.6155 88.4316 29.5902C88.9288 29.5721 89.2361 29.7438 89.4892 30.1596C89.8819 30.8004 90.2957 31.4307 90.7104 32.0625L90.7116 32.0644C90.8405 32.2607 90.9695 32.4572 91.098 32.6543C91.1662 32.7534 91.2386 32.8441 91.3298 32.9582C91.3716 33.0106 91.4175 33.068 91.4686 33.1333C91.5145 33.0722 91.5562 33.0183 91.5945 32.9688C91.6694 32.872 91.7311 32.7922 91.785 32.7085C91.9587 32.4397 92.1309 32.1709 92.3028 31.9024L92.3037 31.901L92.3043 31.9C92.7044 31.2753 93.1036 30.652 93.5204 30.033C93.6379 29.8613 93.8548 29.6353 94.0356 29.6263C94.9508 29.5992 95.8659 29.6026 96.7811 29.606C97.0862 29.6071 97.3912 29.6082 97.6963 29.6082C97.7234 29.6534 97.7595 29.7077 97.7957 29.7619C97.6935 29.924 97.5919 30.086 97.4905 30.2479C97.2243 30.6728 96.9588 31.0965 96.6839 31.5154C96.4279 31.9068 96.1732 32.2982 95.9188 32.6893L95.918 32.6906L95.9163 32.6931L95.9145 32.6959C95.2362 33.7384 94.5596 34.7783 93.8639 35.8088C93.6198 36.1703 93.6198 36.4505 93.8639 36.8211C95.0357 38.6154 96.1896 40.4215 97.3451 42.23L97.3459 42.2312C97.6162 42.6543 97.8865 43.0775 98.1572 43.5007C98.1927 43.5563 98.2196 43.6177 98.2539 43.6957C98.2808 43.7571 98.3123 43.8289 98.3561 43.9165C98.2875 43.927 98.2235 43.9383 98.1628 43.9491C98.0155 43.9751 97.8875 43.9978 97.7595 43.9978C97.3947 44.0014 97.0284 43.9993 96.6613 43.9971C96.1097 43.9938 95.5562 43.9906 95.0027 44.0068C94.596 44.0159 94.3339 43.8622 94.1169 43.5278C93.4999 42.5655 92.8649 41.6151 92.2314 40.6669L92.2297 40.6643C92.0843 40.4467 91.939 40.2292 91.794 40.0117C91.5048 39.5779 91.4144 39.5869 91.1342 40.0389C90.9397 40.3481 90.7465 40.658 90.5533 40.9677L90.5528 40.9685C90.0011 41.8531 89.4501 42.7368 88.8745 43.6001Z" fill="black"/>
<path d="M76.7989 32.121C77.305 32.121 77.4497 32.3198 77.4316 32.8079C77.4122 33.7185 77.4159 34.6338 77.4196 35.547C77.4211 35.9119 77.4225 36.2765 77.4225 36.6403H77.5039C77.5039 37.1749 77.5029 37.7095 77.5019 38.2445V38.262C77.4999 39.34 77.4979 40.4197 77.5039 41.5031C77.5129 42.5245 78.0101 43.2657 78.932 43.6634C80.4867 44.3413 82.1046 44.1695 83.7135 43.8984C83.831 43.8803 83.9756 43.6091 83.9846 43.4555C84.0016 43.0379 84.0009 42.6239 84.0002 42.209V42.208C83.9997 41.9588 83.9993 41.7088 84.0027 41.4579C84.0027 41.1054 83.8852 40.9789 83.5056 41.0421C83.0988 41.1144 82.6831 41.1416 82.2673 41.1325C81.4719 41.0964 81.1103 40.78 80.9838 40.0117C80.9115 39.605 80.8934 39.1892 80.8844 38.7734C80.881 38.0251 80.8814 37.2767 80.8818 36.5279V36.526C80.8825 35.2767 80.8832 34.0259 80.8663 32.7717C80.8572 32.2565 81.0561 32.1029 81.5351 32.121C81.907 32.1313 82.2788 32.1298 82.6507 32.1283C82.9296 32.1272 83.2086 32.1261 83.4875 32.13C83.849 32.13 84.0117 31.9763 84.0027 31.6058C83.9846 31.1357 83.9756 30.6657 84.0027 30.2048C84.0298 29.7438 83.8219 29.5992 83.3881 29.6082C83.0162 29.6185 82.6443 29.6171 82.2724 29.6156C81.9935 29.6145 81.7146 29.6134 81.4357 29.6173C81.0199 29.6263 80.8572 29.4726 80.8663 29.0388C80.8745 28.4595 80.8734 27.8784 80.8723 27.2971C80.8709 26.5994 80.8696 25.9016 80.8844 25.2064C80.8934 24.7273 80.7578 24.5104 80.2426 24.5285C79.5014 24.5556 78.7603 24.5556 78.0281 24.5285C77.5581 24.5104 77.3864 24.6912 77.3954 25.1612C77.4148 26.0455 77.4111 26.9344 77.4074 27.8246C77.4059 28.181 77.4045 28.5376 77.4045 28.8942C77.4045 29.5811 77.3773 29.6173 76.6633 29.6173H76.3921C76.3081 29.6173 76.2306 29.6168 76.1593 29.6163C75.7473 29.6136 75.5382 29.6123 75.4334 29.7161C75.3254 29.823 75.3279 30.0414 75.3329 30.4846C75.3335 30.5386 75.3341 30.5959 75.3346 30.6567L75.3353 30.685C75.3707 32.1031 75.3711 32.121 76.7989 32.121Z" fill="black"/>
<path d="M110.335 55.5715L110.336 55.5714L110.338 55.5714C110.834 55.5565 111.33 55.5416 111.824 55.5221C111.978 55.5157 112.133 55.5413 112.284 55.5664C112.345 55.5765 112.406 55.5866 112.466 55.5944C112.47 55.6351 112.472 55.6781 112.475 55.721C112.477 55.7639 112.479 55.8069 112.484 55.8475C112.351 55.8733 112.22 55.9022 112.089 55.9309C111.899 55.9726 111.709 56.0143 111.516 56.0464C108.308 56.5887 105.253 57.592 102.387 59.1376C102.273 59.1969 102.166 59.2662 102.06 59.3352C101.94 59.4133 101.821 59.491 101.691 59.5534C101.601 59.5955 101.495 59.6136 101.388 59.6317C101.335 59.6407 101.282 59.6498 101.23 59.6618C101.258 59.6106 101.28 59.5514 101.302 59.4921C101.346 59.3736 101.39 59.2551 101.475 59.2009L101.584 59.1342C102.242 58.7318 102.896 58.3328 103.59 57.9987C103.916 57.8387 104.247 57.6882 104.58 57.5369C105.169 57.2692 105.763 56.9991 106.346 56.67L106.324 56.6677L106.296 56.6646L106.253 56.6594L106.209 56.6539C106.074 56.6371 105.941 56.6204 105.813 56.6339C102.977 56.8617 100.189 57.3695 97.3951 57.8783L97.3931 57.8786L97.3816 57.8807L97.3797 57.881C96.9645 57.9567 96.5484 58.0325 96.1327 58.1072C93.3126 58.6133 90.4744 59.011 87.6363 59.3997C85.0332 59.7522 82.4119 59.7432 79.7998 59.5534C78.2277 59.4457 76.6614 59.2924 75.0917 59.1388L75.0884 59.1385C74.6827 59.0988 74.2767 59.0591 73.8704 59.0201C73.7714 59.0077 73.6725 58.9403 73.5735 58.873C73.5279 58.8419 73.4822 58.8108 73.4365 58.7851C73.4907 58.7309 73.5404 58.6744 73.5901 58.618C73.6398 58.5615 73.6896 58.5049 73.7438 58.4506C73.7676 58.4269 73.8013 58.4106 73.8359 58.394C73.8671 58.379 73.8989 58.3636 73.9246 58.3422C74.9189 57.6281 75.9673 57.4745 77.2237 57.6101C79.5647 57.8722 81.9419 57.9354 84.301 57.9445C87.7483 57.9616 91.163 57.5313 94.576 57.1012L95.1294 57.0316C98.8443 56.5616 102.577 56.1458 106.31 55.7842C107.643 55.6523 108.991 55.6118 110.335 55.5715Z" fill="black"/>
<path d="M110.305 50.3339L110.314 50.3161C110.465 49.9954 110.632 49.6419 110.242 49.3668C109.971 49.1769 109.465 49.3758 109.311 49.7825C108.913 50.822 108.543 51.8705 108.199 52.928C108.037 53.4251 107.937 54.0036 108.516 54.32C109.094 54.6363 109.501 54.2296 109.88 53.8499C110.115 53.6149 110.26 53.624 110.468 53.9042C110.802 54.3471 111.381 54.338 111.788 53.9403C112.086 53.6421 112.032 53.2805 111.625 53.2263C111.164 53.163 111.146 52.919 111.245 52.5845C111.426 51.9789 111.607 51.3824 111.824 50.7949C111.932 50.5056 112.005 50.2164 111.679 50.126C111.453 50.0627 111.146 50.1802 110.92 50.2977C110.818 50.3557 110.764 50.5124 110.713 50.6561C110.701 50.6917 110.688 50.7264 110.676 50.7587C110.631 50.8699 110.595 50.9826 110.558 51.095C110.505 51.2565 110.452 51.4176 110.378 51.5722C110.07 52.1868 109.745 52.7924 109.23 53.2534C109.203 53.2398 109.178 53.2285 109.153 53.2172C109.137 53.2101 109.121 53.2028 109.105 53.1951L109.091 53.1886L109.076 53.1811C109.083 53.1369 109.089 53.092 109.094 53.0471C109.108 52.927 109.123 52.8073 109.175 52.702C109.368 52.2821 109.572 51.8622 109.776 51.4409L109.776 51.4398C109.954 51.0725 110.133 50.7042 110.305 50.3339Z" fill="black"/>
<path d="M85.2726 53.8397C85.0021 54.0706 84.7311 54.3019 84.4637 54.5369C84.3876 54.6021 84.3213 54.6804 84.2373 54.7797C84.1816 54.8455 84.1181 54.9205 84.0389 55.0069C84.1335 55.017 84.2116 55.0284 84.279 55.0382C84.392 55.0547 84.4748 55.0668 84.5541 55.0611C84.645 55.0572 84.7375 55.0463 84.8311 55.0354C84.9516 55.0212 85.0738 55.0069 85.1959 55.0069C85.5665 55.0159 85.9551 55.1063 85.928 55.5402C85.9009 55.956 85.5484 56.0283 85.1597 56.0192C84.7168 56.0102 84.2649 56.0554 83.822 56.1096C83.4243 56.1638 83.0356 56.1367 82.8096 55.7752C82.5746 55.4046 82.7283 55.0159 82.9995 54.7357C83.4453 54.2839 83.9072 53.848 84.3692 53.4122C84.6002 53.1943 84.8313 52.9762 85.0603 52.7563C85.137 52.6796 85.2137 52.6006 85.2904 52.5216L85.2911 52.5209C85.3678 52.4419 85.4445 52.363 85.5213 52.2863C85.5077 52.2592 85.4919 52.2343 85.4761 52.2095C85.4603 52.1846 85.4444 52.1597 85.4309 52.1326C85.3375 52.1477 85.244 52.1647 85.1506 52.1818C84.9638 52.216 84.7771 52.2501 84.5903 52.2682L84.545 52.2747C84.3052 52.3093 84.0526 52.3458 83.8401 52.2863C83.6683 52.2411 83.4424 52.0241 83.4333 51.8705C83.4243 51.7259 83.6412 51.4276 83.7768 51.4185C84.7439 51.3191 85.7111 51.2287 86.6782 51.2468C87.2205 51.2558 87.3923 51.7349 87.0578 52.1778C86.8485 52.454 86.585 52.6915 86.3246 52.9262L86.2624 52.9822C85.9384 53.2714 85.6056 53.5554 85.2726 53.8397Z" fill="black"/>
<path d="M104.403 53.398C104.213 53.6059 104.105 54.0759 104.204 54.32C104.367 54.6906 104.792 54.79 105.235 54.7177C105.696 54.6454 106.166 54.6092 106.627 54.6002C106.979 54.5911 107.332 54.546 107.359 54.1482C107.395 53.7325 107.033 53.633 106.69 53.615C106.569 53.6095 106.448 53.624 106.33 53.6383C106.253 53.6475 106.177 53.6566 106.102 53.6602C106.001 53.6658 105.897 53.6644 105.755 53.6626C105.668 53.6615 105.566 53.6602 105.443 53.6602C105.534 53.5583 105.605 53.4741 105.665 53.4029C105.759 53.2911 105.826 53.2113 105.903 53.145C106.134 52.9447 106.367 52.7457 106.6 52.5465L106.6 52.5458L106.606 52.5412C107.002 52.2028 107.398 51.864 107.784 51.518C108.046 51.283 108.308 51.0209 108.516 50.7316C108.796 50.3249 108.633 49.8639 108.154 49.8549C107.187 49.8278 106.22 49.9091 105.262 49.9995C105.108 50.0176 104.837 50.361 104.873 50.4695C104.945 50.6593 105.189 50.8853 105.379 50.9124C105.618 50.9455 105.871 50.901 106.12 50.8571C106.211 50.841 106.302 50.8251 106.392 50.813C106.503 50.8012 106.611 50.7819 106.719 50.7624C106.778 50.7518 106.837 50.7412 106.898 50.7316C106.916 50.758 106.934 50.7836 106.951 50.8089L107.041 50.9396L107.079 50.9938C107.012 51.0372 106.943 51.0778 106.873 51.1183C106.727 51.2044 106.581 51.2899 106.464 51.4005L106.45 51.4132C105.741 52.0596 105.041 52.6976 104.403 53.398Z" fill="black"/>
<path d="M88.5679 52.526C88.4883 52.728 88.4134 52.9184 88.3413 53.1088C88.2238 53.4161 88.1154 53.7144 88.0159 54.0127C87.9075 54.3561 87.8532 54.6544 88.3323 54.8171C88.6667 54.9346 88.73 55.2781 88.4227 55.495C88.1967 55.6577 87.8352 55.8204 87.6182 55.7391C87.3742 55.6487 87.0488 55.2781 87.0669 55.0521C87.1301 54.2025 87.3019 53.3619 87.4827 52.5303C87.5459 52.2501 87.7177 51.9699 87.9075 51.744C87.9979 51.6265 88.2781 51.5813 88.4227 51.6355C88.5209 51.6723 88.5899 51.7842 88.6581 51.8947C88.6903 51.9469 88.7223 51.9987 88.7571 52.0422C88.6909 52.2135 88.6281 52.3731 88.5679 52.526Z" fill="black"/>
<path d="M82.3215 52.8738L82.3283 52.8567C82.4527 52.5461 82.5764 52.2375 82.1769 52.0422C81.7702 51.8524 81.4809 52.0874 81.3725 52.4399C81.1696 53.0681 80.9999 53.7057 80.8222 54.3734C80.7545 54.628 80.6856 54.8871 80.6132 55.1515C80.6702 55.2492 80.7207 55.3509 80.7705 55.4514C80.8866 55.6855 80.9992 55.9126 81.1826 56.0644C81.3453 56.191 81.743 56.1458 81.9781 56.0463C82.4029 55.8565 82.4119 55.4136 82.0142 55.2329C81.6255 55.0611 81.6165 54.79 81.725 54.4826C81.8967 53.9403 82.1046 53.407 82.3215 52.8738Z" fill="black"/>
<path d="M88.739 49.5656C89.1729 49.5656 89.5164 49.9091 89.5164 50.352C89.5164 50.7678 89.1458 51.1474 88.739 51.1564C88.3142 51.1655 87.8984 50.7406 87.9165 50.3339C87.9436 49.9272 88.3323 49.5566 88.739 49.5656Z" fill="black"/>
<path d="M83.2887 50.8039C83.2887 50.352 82.9633 50.0266 82.5023 50.0266C82.0594 50.0266 81.6888 50.3791 81.6888 50.7949C81.6888 51.1926 82.0685 51.5632 82.5023 51.5722C82.9543 51.5903 83.2887 51.2559 83.2887 50.8039Z" fill="black"/>
<path fill-rule="evenodd" clip-rule="evenodd" d="M103.011 30.2409C106.563 28.0536 112.384 29.1653 113.957 34.1547C114.065 34.4981 114.182 34.8336 114.298 35.169C114.357 35.3367 114.415 35.5044 114.472 35.6732V37.9419C114.415 38.1106 114.356 38.2783 114.296 38.446C114.178 38.7815 114.059 39.1169 113.957 39.4604C113.089 42.3979 110.477 44.3593 107.404 44.4136C105.578 44.4497 103.897 44.0611 102.424 42.9493C100.462 41.467 99.6487 39.3971 99.5854 37.029C99.5041 34.1818 100.498 31.7775 103.011 30.2409ZM107.286 41.2319C108.669 41.1596 109.636 40.4546 110.197 39.2254C110.965 37.5442 110.92 35.8449 110.052 34.236C108.977 32.2294 106.274 31.7233 104.629 33.1785C103.59 34.1004 103.183 35.2935 103.228 36.6945C103.183 37.6436 103.373 38.5655 103.897 39.4061C104.683 40.6535 105.786 41.3043 107.286 41.2319Z" fill="black"/>
<path fill-rule="evenodd" clip-rule="evenodd" d="M73.0094 39.8877C72.799 39.7625 72.5889 39.6373 72.379 39.5146C71.598 39.0658 71.5927 39.0716 71.0171 39.7003L71.0051 39.7134C69.803 41.0331 68.2664 41.241 66.6304 40.8885C65.1842 40.5721 64.3707 39.5507 63.964 38.1859C63.7832 37.5984 63.8465 37.5261 64.4611 37.5261H73.6625C74.3856 37.5261 74.4308 37.4899 74.3585 36.803C74.2862 36.0709 74.1958 35.3387 74.0511 34.6156C73.4275 31.5334 71.3305 29.5811 68.2122 29.2557C65.4192 28.9665 63.0239 29.7528 61.3518 32.139C60.1677 33.8383 59.9598 35.7726 60.1225 37.7701C60.2943 39.8581 61.0987 41.6477 62.798 42.9312C66.0067 45.3717 71.3938 44.9288 74.2952 41.0873C74.5031 40.8252 74.3946 40.6896 74.1506 40.554C73.7673 40.3392 73.3876 40.113 73.0094 39.8877ZM64.0092 34.4891C64.5696 32.2565 67.4891 31.2171 69.3329 32.609C69.9566 33.0791 70.2549 33.7479 70.4628 34.471C70.5622 34.8235 70.4266 34.9681 70.056 34.9681C69.4166 34.9621 68.7772 34.9641 68.1405 34.9661C67.8232 34.9671 67.5065 34.9681 67.1908 34.9681C66.8831 34.9681 66.5755 34.9671 66.2682 34.9661C65.6545 34.9641 65.0423 34.9621 64.434 34.9681C64.0905 34.9681 63.9097 34.8778 64.0092 34.4891Z" fill="black"/>
<path fill-rule="evenodd" clip-rule="evenodd" d="M78.4801 48.8335C78.6337 48.951 78.7241 49.3306 78.6518 49.5204C78.4161 50.1706 78.1219 50.8062 77.8284 51.4403L77.7298 51.6535C77.6977 51.7306 77.6748 51.8122 77.635 51.9535C77.6188 52.011 77.5998 52.0786 77.5762 52.1597C77.7303 52.0721 77.86 51.9954 77.9758 51.927C78.1587 51.8188 78.307 51.731 78.462 51.6535C79.6732 51.048 80.6493 51.6264 80.6765 52.9822C80.7126 54.555 79.9624 55.9379 78.7964 56.435C78.0281 56.7604 77.287 56.67 76.591 56.209C76.5353 56.1719 76.4842 56.1287 76.4333 56.0857C76.3603 56.0239 76.2876 55.9624 76.2023 55.9198C75.7142 55.6848 75.5967 55.3142 75.7594 54.808C75.9854 54.1166 76.2091 53.4251 76.4328 52.7336C76.6565 52.0422 76.8802 51.3507 77.1062 50.6593C77.2418 50.2435 77.3773 49.8368 77.522 49.43C77.5382 49.3922 77.5536 49.3527 77.5692 49.3128C77.6057 49.2194 77.643 49.1237 77.6937 49.0414C77.8925 48.7431 78.2179 48.6256 78.4801 48.8335ZM79.4201 52.458C79.2212 52.3586 78.8326 52.4761 78.5976 52.6207C77.8293 53.0817 77.3502 53.8138 77.0158 54.6092C76.9435 54.799 77.0339 55.1606 77.1785 55.3232C77.6937 55.9198 78.6699 55.8113 79.1128 55.0611C79.3335 54.689 79.4838 54.2641 79.6344 53.8386C79.6996 53.6543 79.7648 53.4698 79.8359 53.2895C79.7883 53.1833 79.7495 53.0727 79.7125 52.9678C79.6301 52.7333 79.5574 52.5267 79.4201 52.458Z" fill="black"/>
<path fill-rule="evenodd" clip-rule="evenodd" d="M95.8434 51.0299C95.8956 51.0766 95.9462 51.1276 95.9969 51.1786C96.1128 51.2953 96.2293 51.4126 96.3676 51.4818C96.4887 51.5423 96.6541 51.5142 96.8109 51.4875C96.8273 51.4847 96.8437 51.4819 96.8598 51.4793C96.8736 51.477 96.8873 51.4748 96.9009 51.4728C97.1189 51.4492 97.333 51.418 97.5483 51.3865C97.6632 51.3698 97.7788 51.3529 97.8951 51.3372C97.9087 51.3553 97.92 51.3756 97.9313 51.396C97.9426 51.4162 97.9539 51.4367 97.9674 51.4547C97.9393 51.4872 97.9111 51.5202 97.8828 51.5534C97.7931 51.6586 97.7021 51.7652 97.6059 51.8614C96.874 52.5753 96.1414 53.2897 95.3914 53.9855C95.31 54.0596 95.1799 54.0912 95.061 54.12C95.0453 54.1239 95.0298 54.1276 95.0146 54.1315C95.0045 54.134 94.9945 54.1366 94.9847 54.1392C94.8428 54.1716 94.6973 54.1968 94.5515 54.222C94.372 54.253 94.192 54.2841 94.0175 54.329C93.8996 54.3627 93.7857 54.414 93.6711 54.4656C93.5396 54.5248 93.4073 54.5844 93.2673 54.6182C92.8425 54.7267 92.6165 54.4917 92.5442 54.103C92.4685 53.699 92.7219 53.6712 93.0052 53.6401C93.0262 53.6378 93.0473 53.6355 93.0685 53.633C94.1802 53.5155 95.2016 52.3857 95.2287 51.2649C95.2378 50.7858 95.0932 50.352 94.6412 50.126C94.1893 49.891 93.6831 49.9452 93.3216 50.2887C92.1465 51.4095 91.5229 52.7924 91.6404 54.4375C91.6946 55.1515 92.2098 55.5673 92.9329 55.5402C93.2673 55.5311 93.6198 55.4679 93.9272 55.3413C94.1999 55.2335 94.4593 55.0812 94.7146 54.9312C94.8232 54.8674 94.9311 54.8041 95.0389 54.7448C95.5993 55.3413 95.6355 55.3504 96.458 55.2509L96.538 55.2411C96.8842 55.1984 97.2438 55.1541 97.5878 55.1877C98.0036 55.2238 98.3651 55.1334 98.3832 54.6905C98.4013 54.2567 98.0126 54.1663 97.6421 54.1753C97.5413 54.1792 97.4406 54.1881 97.3399 54.1969C97.2056 54.2087 97.0713 54.2205 96.937 54.2205C96.866 54.2205 96.795 54.2012 96.6809 54.17C96.6207 54.1536 96.5485 54.1339 96.458 54.1121L96.7994 53.8101C97.2028 53.4533 97.5581 53.1392 97.9132 52.8195C98.0504 52.6966 98.1894 52.5754 98.3283 52.4544C98.7204 52.1128 99.1118 51.7718 99.4588 51.3914C99.8927 50.9124 99.6938 50.4062 99.034 50.3881C98.1211 50.37 97.1992 50.4604 96.2953 50.5508C96.1971 50.5855 96.1026 50.7086 96.0072 50.8332C95.9532 50.9036 95.8989 50.9744 95.8434 51.0299ZM94.0175 50.9666C94.3429 51.8072 93.7102 52.702 92.8967 52.6839C93.0672 52.067 93.4491 51.625 93.8722 51.1354C93.9202 51.0798 93.9688 51.0237 94.0175 50.9666Z" fill="black"/>
<path fill-rule="evenodd" clip-rule="evenodd" d="M101.917 49.1589C102.803 48.7793 103.562 49.2222 103.689 50.1803C103.779 50.9034 103.861 51.6174 103.517 52.3224C103.382 52.6207 103.327 52.9823 103.337 53.3167C103.343 53.472 103.447 53.6273 103.548 53.7793C103.589 53.8396 103.629 53.8994 103.662 53.9584C103.69 54.0076 103.729 54.0588 103.767 54.1092C103.842 54.2073 103.915 54.3026 103.897 54.3742C103.852 54.5279 103.671 54.7087 103.517 54.7539C103.111 54.8714 102.74 54.7448 102.55 54.3561C102.342 53.9313 102.152 54.0488 101.908 54.2929C101.764 54.4375 101.592 54.5821 101.411 54.6996C100.959 55.0069 100.462 55.2239 99.947 54.9437C99.4047 54.6454 99.3505 54.085 99.3233 53.4613C99.5493 52.0513 100.101 50.7316 101.149 49.647C101.357 49.4391 101.637 49.2764 101.917 49.1589ZM101.014 53.8409C101.999 52.9823 102.632 51.9338 102.713 50.6051C102.722 50.4334 102.641 50.1351 102.532 50.0899C102.369 50.0447 102.098 50.117 101.963 50.2345C100.959 51.1022 100.48 52.2321 100.281 53.615C100.299 53.6675 100.325 53.7348 100.354 53.8108C100.385 53.8918 100.421 53.9827 100.453 54.0759C100.519 54.0479 100.588 54.0264 100.657 54.0049C100.789 53.9641 100.919 53.9239 101.014 53.8409Z" fill="black"/>
<path d="M31.7077 29.6517C31.8979 29.5715 32.0962 29.4878 32.3286 29.3913C32.1378 29.3478 31.9731 29.3105 31.8216 29.2762C31.5639 29.2178 31.344 29.168 31.0993 29.1111V29.9065C31.3134 29.8181 31.506 29.7369 31.7077 29.6517Z" fill="black"/>
<path d="M32.3195 26.9961C32.3557 27.4932 31.958 27.9451 31.5151 27.9722C31.036 28.0084 30.4756 27.4751 30.5298 26.987C30.5389 26.8786 30.7106 26.7249 30.8281 26.6978C30.9718 26.6666 31.1198 26.6742 31.2691 26.6819C31.3358 26.6853 31.4029 26.6887 31.4699 26.6887C31.4819 26.6887 31.494 26.6877 31.506 26.6867C31.5301 26.6847 31.5542 26.6827 31.5783 26.6887C31.6596 26.7112 31.7582 26.6954 31.8568 26.6796C32.076 26.6444 32.2946 26.6094 32.3195 26.9961Z" fill="black"/>
<path d="M25.5133 21.6271C25.4474 21.8674 25.3961 22.0586 25.3481 22.2378C25.304 22.4023 25.2627 22.5567 25.2151 22.7298C25.4501 22.7569 25.6851 22.784 26.0647 22.8202L26.0412 22.7702C25.8458 22.3538 25.7046 22.053 25.5133 21.6271Z" fill="black"/>
<path d="M17.4418 22.8021C17.5955 22.3773 17.713 22.061 17.8847 21.6C17.9473 21.7803 18.0024 21.9397 18.0548 22.0915C18.1312 22.3125 18.2021 22.5175 18.2824 22.7479C18.2101 22.7527 18.1404 22.7575 18.0706 22.7624C17.8789 22.7756 17.6871 22.7889 17.4418 22.8021Z" fill="black"/>
<path d="M9.7956 31.15C9.89862 31.1391 10.003 31.128 10.1025 31.0996V31.7775C9.81611 31.7354 9.54546 31.6933 9.18081 31.6366L9.09917 31.6239C9.22592 31.2103 9.5053 31.1807 9.7956 31.15Z" fill="black"/>
<path d="M10.6719 33.766C10.69 34.1366 10.2019 34.5343 9.73188 34.5343C9.1986 34.5343 8.74667 34.1818 8.7557 33.766C8.76474 33.3774 9.22572 33.0158 9.70477 33.0248C10.1838 33.0339 10.6538 33.3954 10.6719 33.766Z" fill="black"/>
<path d="M8.84603 36.2336C8.91834 36.0257 9.10815 35.7274 9.27988 35.7003C9.63239 35.6551 9.84932 35.9444 9.77701 36.2878C9.75798 36.4084 9.64098 36.5111 9.5229 36.6148C9.47276 36.6588 9.42242 36.703 9.37931 36.7488C8.98161 36.6674 8.73756 36.5771 8.84603 36.2336Z" fill="black"/>
<path d="M14.4673 47.4013C14.4331 47.4816 14.3941 47.5734 14.3506 47.6856C14.2668 47.3743 14.191 47.1105 14.1099 46.8287C14.0685 46.6851 14.0258 46.5367 13.9801 46.375C14.0943 46.3972 14.194 46.416 14.2843 46.4331C14.4513 46.4647 14.5863 46.4903 14.7212 46.5196C14.7062 46.5829 14.6921 46.6461 14.678 46.7094C14.6499 46.8359 14.6218 46.9625 14.5857 47.089C14.5586 47.1866 14.5184 47.2809 14.4673 47.4013Z" fill="black"/>
<path d="M16.3481 46.854C15.9414 46.9354 16.0498 47.2789 16.1221 47.4416C16.2802 47.8178 16.5697 47.7493 16.8656 47.6793C16.9252 47.6652 16.985 47.651 17.0441 47.6404C17.0441 47.1071 16.9718 46.7275 16.3481 46.854Z" fill="black"/>
<path d="M19.2857 46.8812C19.1049 46.7727 18.7524 46.8992 18.4993 46.9987C18.427 47.0258 18.3999 47.4235 18.4451 47.4506C18.6883 47.5722 18.9506 47.6554 19.2106 47.7379C19.2598 47.7536 19.309 47.7692 19.358 47.785C19.3743 47.7655 19.3894 47.746 19.4042 47.7269C19.4304 47.6929 19.4556 47.6603 19.4845 47.6314C19.4689 47.5557 19.4593 47.4686 19.4496 47.381C19.4257 47.1652 19.4014 46.9454 19.2857 46.8812Z" fill="black"/>
<path d="M20.9037 46.4744C21.0302 46.4202 21.22 46.4112 21.3466 46.4654C21.4279 46.5015 21.5183 46.7004 21.5002 46.7998C21.4504 46.9805 21.3705 47.1526 21.2753 47.3576C21.2324 47.4499 21.1864 47.5491 21.1387 47.6585C21.0999 47.5392 21.0641 47.4347 21.0316 47.3397C20.9655 47.1469 20.9129 46.9934 20.8766 46.836C20.8495 46.7185 20.8495 46.4925 20.9037 46.4744Z" fill="black"/>
<path d="M27.007 47.67C26.6617 47.7239 26.2678 47.7854 26.2456 47.4144C26.2257 47.1208 26.414 47.1176 26.6477 47.1137C26.8384 47.1105 27.0593 47.1069 27.2217 46.9444V47.6404C27.1554 47.6469 27.0824 47.6583 27.007 47.67Z" fill="black"/>
<path d="M26.3811 46.0586C26.0738 46.0677 26.0376 46.2123 26.1551 46.4744C26.3449 46.9263 26.7336 46.845 27.0228 46.7546C27.1196 46.7244 27.1799 46.5607 27.2525 46.3636C27.2885 46.2661 27.3275 46.1604 27.3753 46.0586C27.2044 46.0586 27.0608 46.0574 26.9339 46.0563H26.933C26.7184 46.0544 26.5513 46.053 26.3811 46.0586Z" fill="black"/>
<path d="M31.903 35.2073C31.622 35.0983 31.3719 35.0013 31.1174 34.8959C31.0551 35.2618 31.0197 35.4702 31.1064 35.5584C31.221 35.675 31.549 35.582 32.3105 35.3659C32.1662 35.3093 32.0312 35.2569 31.903 35.2073Z" fill="black"/>
<path d="M32.1658 40.0389C32.1749 40.0027 32.1839 39.9666 32.193 39.9214C31.9784 39.8389 31.7672 39.7563 31.5246 39.6616C31.3687 39.6007 31.1999 39.5347 31.0089 39.4604C31.0333 39.6356 31.0523 39.7777 31.069 39.9033C31.0894 40.0563 31.1065 40.1851 31.1264 40.3191C31.4621 40.2352 31.7398 40.1577 32.0139 40.0812L32.1658 40.0389Z" fill="black"/>
<path fill-rule="evenodd" clip-rule="evenodd" d="M23.7754 20.3266C26.9011 20.3283 30.0281 20.33 33.1601 20.3165C33.6392 20.3165 33.7657 20.4611 33.7747 20.9221C33.7747 24.3929 33.7793 27.8615 33.7838 31.3301C33.7883 34.7987 33.7928 38.2673 33.7928 41.7381C33.7928 42.8047 33.7747 43.8713 33.6392 44.9198C33.3409 47.2156 31.3343 48.9872 29.0114 48.9962C23.4526 49.0233 17.8938 49.0233 12.335 48.9962C10.1747 48.9872 8.33084 47.4144 7.73429 45.3626C7.51736 44.5944 7.49025 43.8532 7.49025 43.0939C7.48663 40.1473 7.48591 37.1991 7.48518 34.2507C7.4841 29.8283 7.48301 25.4052 7.47217 20.9853C7.47217 20.443 7.63486 20.3165 8.14103 20.3165C11.2731 20.33 14.4 20.3283 17.5257 20.3266C18.5674 20.3261 19.609 20.3255 20.6506 20.3255C21.6921 20.3255 22.7337 20.3261 23.7754 20.3266ZM30.7287 31.416C31.0179 31.0815 31.8043 31.0183 32.1478 31.2985C32.5093 31.5967 32.5184 31.886 32.2111 32.2385C32.1275 32.3285 32.0622 32.4368 31.9957 32.5471C31.9687 32.5919 31.9415 32.637 31.9128 32.6814C31.9309 32.6995 31.9512 32.7175 31.9715 32.7356C31.9919 32.7537 32.0122 32.7718 32.0303 32.7898C32.0685 32.7653 32.1109 32.7423 32.1539 32.7191C32.2532 32.6653 32.3559 32.6097 32.4189 32.5277C32.6901 32.1933 32.8076 31.8137 32.5907 31.3888C32.3557 30.9098 31.9037 30.7471 31.4518 30.7381C30.6293 30.729 30.1683 31.3165 30.3129 32.0667C30.3484 32.2371 30.3727 32.4129 30.3991 32.6032C30.4063 32.6552 30.4136 32.7084 30.4214 32.7627H31.0179C31.6416 32.7627 31.7591 32.5548 31.4247 31.8046C31.3913 31.8882 31.3677 31.9631 31.3468 32.0298C31.311 32.1435 31.2828 32.2334 31.2258 32.3018C31.1626 32.3921 30.9727 32.5006 30.9095 32.4645C30.5479 32.2746 30.4666 31.7233 30.7287 31.416ZM31.8314 29.9246L32.428 29.7077C32.5274 29.6715 32.6268 29.6353 32.7172 29.5992C32.7217 29.5585 32.724 29.5156 32.7263 29.4726C32.7285 29.4297 32.7308 29.3868 32.7353 29.3461C32.2914 29.1822 31.8526 29.0183 31.4034 28.8505L30.9637 28.6863C30.7649 28.614 30.566 28.5416 30.3581 28.4603C30.2608 28.7081 30.4407 28.8237 30.6179 28.9377C30.8027 29.0565 30.9846 29.1735 30.8462 29.4365C30.7683 29.5867 30.687 29.737 30.6022 29.8936L30.6011 29.8957C30.5485 29.9927 30.4947 30.0923 30.4395 30.1957C30.3943 30.2861 30.3491 30.3766 30.2948 30.4759C30.5025 30.3947 30.7102 30.3225 30.9178 30.2502C31.2252 30.1418 31.5331 30.033 31.8314 29.9246ZM30.2045 26.3272C30.209 26.3588 30.2158 26.3927 30.2225 26.4266C30.2293 26.4605 30.2361 26.4944 30.2406 26.526C30.26 26.636 30.2763 26.7439 30.2923 26.8493C30.3431 27.1855 30.3901 27.496 30.5208 27.7643C30.5479 27.8276 30.5931 27.8818 30.6383 27.9361C30.7287 28.0355 30.8552 28.1078 30.9999 28.162C31.2168 28.2343 31.4699 28.2524 31.7049 28.2163L31.7412 28.2073C31.8037 28.192 31.8704 28.1757 31.9309 28.153C32.0032 28.1259 32.0755 28.0897 32.1387 28.0536C32.3557 27.918 32.5455 27.6107 32.6449 27.2853C32.7263 27.0412 32.7534 26.7882 32.7172 26.5983C32.6991 26.5351 32.6811 26.4718 32.6539 26.4266L32.6359 26.4085C32.6268 26.3905 32.6088 26.3814 32.5816 26.3724C32.5771 26.3724 32.5703 26.3701 32.5636 26.3679C32.5568 26.3656 32.55 26.3633 32.5455 26.3633C32.4913 26.3453 32.437 26.3362 32.3918 26.3362C32.0574 26.3272 31.723 26.3272 31.3705 26.3272H30.2045ZM25.6038 21.1571C25.5586 21.1661 25.5134 21.1661 25.4682 21.1661C25.188 21.9253 24.9078 22.6846 24.5914 23.5342C24.659 23.5089 24.7265 23.4994 24.7867 23.4908L24.7993 23.489C24.8251 23.4817 24.8509 23.4758 24.8754 23.4702C24.9111 23.4621 24.9443 23.4546 24.9711 23.4438C24.9982 23.4258 25.0253 23.4077 25.0434 23.3896C25.2513 23.1365 25.4411 23.001 25.6309 23.001C25.6761 23.001 25.7303 23.01 25.7755 23.0281C25.902 23.0733 26.0196 23.1637 26.1551 23.3083C26.1822 23.3354 26.2094 23.3625 26.2365 23.3987L26.2636 23.4258C26.2907 23.4529 26.3269 23.471 26.3811 23.4981C26.4072 23.5111 26.4356 23.5242 26.4669 23.5385C26.5222 23.5639 26.5862 23.5932 26.6613 23.6337C26.5652 23.3839 26.4783 23.1478 26.3939 22.9188L26.3936 22.9179C26.359 22.824 26.3249 22.7313 26.2907 22.6394C26.2263 22.4652 26.1636 22.2942 26.1017 22.1257L26.1008 22.1233C26.0153 21.8904 25.9316 21.6623 25.8478 21.4373C25.8298 21.3876 25.8117 21.3403 25.7937 21.2929C25.7756 21.2455 25.7574 21.1977 25.7394 21.148C25.7168 21.1525 25.6942 21.1525 25.6716 21.1525C25.649 21.1525 25.6264 21.1525 25.6038 21.1571ZM23.4387 21.2266C23.2044 21.2418 22.9691 21.2571 22.7295 21.2746C22.7295 22.0609 22.7295 22.775 22.7385 23.489H24.4197V23.3354C24.3534 23.3354 24.2872 23.3364 24.2209 23.3374C24.0883 23.3394 23.9557 23.3414 23.8231 23.3354L23.7784 23.3337C23.1064 23.3082 22.8443 23.2983 23.1362 22.4315H24.2299C24.2389 22.3773 24.2389 22.3321 24.2389 22.2779C24.1696 22.2718 24.0993 22.2698 24.029 22.2678C23.8884 22.2638 23.7478 22.2598 23.6153 22.2236C23.3803 22.1604 22.9916 22.0157 22.9916 21.9163C23.0078 21.5841 23.2783 21.6078 23.523 21.6293C23.5512 21.6318 23.5791 21.6342 23.6062 21.6361C23.6464 21.6401 23.6866 21.637 23.7267 21.6339C23.777 21.63 23.8272 21.6261 23.8774 21.6361C24.2751 21.7084 24.2841 21.5096 24.1937 21.1751C23.9409 21.1939 23.6904 21.2102 23.4387 21.2266ZM21.8637 21.2102C21.5011 21.2085 21.1346 21.2068 20.7681 21.2203C20.7254 21.2203 20.6826 21.2739 20.6371 21.331C20.6152 21.3584 20.5927 21.3867 20.5692 21.4101C20.6018 21.433 20.6332 21.4652 20.6639 21.4966C20.7183 21.5524 20.7703 21.6057 20.8223 21.6C21.2923 21.5638 21.3466 21.8259 21.3194 22.2056C21.2923 22.5581 21.2923 22.9196 21.3014 23.2812C21.3076 23.3498 21.3354 23.4142 21.3639 23.4802C21.3767 23.5098 21.3896 23.5396 21.4008 23.5704C21.446 23.5704 21.4912 23.5614 21.5364 23.5523C21.5364 23.4278 21.5369 23.3038 21.5375 23.1801C21.5392 22.81 21.5409 22.4425 21.5273 22.07C21.5092 21.7627 21.5906 21.5909 21.9341 21.5909C22.0182 21.5909 22.1069 21.5261 22.1936 21.4627C22.2281 21.4376 22.2622 21.4126 22.2956 21.3921C22.2821 21.3604 22.2708 21.331 22.2595 21.3017C22.2482 21.2723 22.2369 21.2429 22.2233 21.2113C22.104 21.2113 21.984 21.2107 21.8637 21.2102ZM19.4522 21.2523C19.4223 21.2883 19.3942 21.3221 19.3942 21.3559C19.3852 22.0157 19.3761 22.6846 19.3852 23.3535C19.3852 23.4167 19.4846 23.5342 19.5479 23.5342C19.8526 23.5478 20.1523 23.5461 20.4546 23.5444C20.5557 23.5438 20.6571 23.5433 20.759 23.5433V23.3715L20.6053 23.3472C20.3132 23.3009 20.015 23.2536 19.6382 23.1998V21.2113L19.5027 21.1842C19.489 21.208 19.4703 21.2305 19.4522 21.2523ZM16.9628 23.3354C16.9569 23.3472 16.9587 23.3629 16.9607 23.3799C16.9617 23.3889 16.9628 23.3983 16.9628 23.4077C16.9628 23.4167 16.9628 23.4258 16.9718 23.4348C16.9899 23.471 17.017 23.5071 17.0441 23.5342C17.0441 23.5433 17.0441 23.5433 17.0532 23.5433H17.0713C17.0803 23.5433 17.0984 23.5433 17.1164 23.5342L17.1302 23.5298C17.1548 23.522 17.1826 23.5132 17.1978 23.4981L17.2159 23.48C17.3876 23.3263 17.5232 23.2179 17.6317 23.1456C17.6859 23.1094 17.7401 23.0823 17.7853 23.0642C18.0022 22.9829 18.1559 23.0823 18.4542 23.3625C18.4903 23.3896 18.5265 23.4258 18.5626 23.4619C18.5912 23.4905 18.6367 23.5021 18.6858 23.5147C18.6988 23.518 18.7121 23.5214 18.7253 23.5252C18.7372 23.5292 18.7474 23.5314 18.7565 23.5334C18.7683 23.536 18.7785 23.5382 18.7886 23.5433C18.7939 23.5193 18.8024 23.4938 18.811 23.4679C18.8315 23.4058 18.8529 23.3412 18.8338 23.2902C18.6711 22.8292 18.4903 22.3773 18.3096 21.9254C18.2821 21.8499 18.2495 21.7796 18.2155 21.7066C18.2048 21.6835 18.1939 21.6601 18.183 21.6361C18.1378 21.5367 18.0926 21.4373 18.0474 21.3469C18.0339 21.3152 18.0181 21.2836 18.0022 21.252C17.9864 21.2203 17.9706 21.1887 17.957 21.1571L17.7401 21.1842C17.6768 21.365 17.6113 21.5435 17.5458 21.722C17.4803 21.9005 17.4147 22.079 17.3515 22.2598C17.2159 22.6123 17.0893 22.9739 16.9628 23.3354ZM15.1008 21.1932C15.0104 21.2023 14.92 21.2023 14.8297 21.2023C14.8116 21.9796 14.8116 22.7569 14.8297 23.5342C14.8523 23.5433 14.8771 23.5546 14.902 23.5659C14.9268 23.5772 14.9517 23.5885 14.9743 23.5975C15.0332 23.4768 15.0922 23.3552 15.1519 23.232L15.1534 23.2289C15.2855 22.9564 15.422 22.675 15.5708 22.3773C15.7575 22.5501 15.8675 22.7495 15.9706 22.9363C16.137 23.2379 16.2855 23.5069 16.7097 23.5794C16.6261 23.4345 16.533 23.2972 16.4432 23.1648C16.2418 22.868 16.0568 22.5953 16.0318 22.314C16.013 22.0636 16.172 21.8002 16.3316 21.5358C16.4024 21.4185 16.4734 21.3009 16.5289 21.1842C16.5109 21.1571 16.5018 21.139 16.4928 21.1119C16.086 21.5096 15.6793 21.9073 15.1912 22.3773C15.1551 21.8621 15.1279 21.5277 15.1008 21.1932ZM14.7935 24.6641C14.6127 24.6641 14.3325 24.7545 14.2693 24.89C13.6817 26.0741 13.9168 27.7011 14.8116 28.5778C16.0589 29.8071 17.5774 30.4579 19.3128 30.6025C20.0992 30.6658 20.2438 30.7923 20.2438 31.5606C20.2438 32.2017 20.2428 32.8437 20.2418 33.4862L20.2418 33.4872V33.4894C20.2398 34.7748 20.2378 36.0625 20.2438 37.3453C20.2438 37.3807 20.2414 37.416 20.239 37.4505C20.2262 37.6367 20.2151 37.7987 20.5963 37.8063C21.0095 37.8143 21.0036 37.6406 20.9961 37.4204C20.9951 37.3901 20.994 37.359 20.994 37.3273V31.5425C20.994 30.8646 21.1387 30.7019 21.8166 30.6296C21.9319 30.6194 22.0485 30.6207 22.1644 30.622C22.3575 30.6241 22.5488 30.6262 22.7295 30.5754C23.9045 30.2229 25.0163 29.8161 26.0286 29.0478C27.059 28.2615 27.6917 26.4537 27.1223 25.1522C26.9596 24.7816 26.7878 24.646 26.3811 24.646C24.9443 24.6595 23.5125 24.6579 22.0783 24.6562C21.5998 24.6556 21.1209 24.655 20.6415 24.655C20.1532 24.655 19.6653 24.6545 19.1778 24.6539C17.7164 24.6522 16.2574 24.6505 14.7935 24.6641ZM24.7993 32.9254C25.3055 33.1604 27.2398 33.1424 27.6013 32.8802C27.2127 32.2385 26.7969 31.66 25.9744 31.7956C25.3597 31.895 24.9349 32.2837 24.7993 32.9254ZM9.72279 28.4985C9.85835 28.4884 9.99399 28.4784 10.1295 28.4694C10.1431 28.4965 10.1567 28.5213 10.1702 28.5462C10.1838 28.571 10.1973 28.5959 10.2109 28.623C9.7228 28.9303 9.23471 29.2376 8.7647 29.554C8.69731 29.5969 8.65484 29.6771 8.61195 29.7582C8.59156 29.7967 8.57107 29.8354 8.54777 29.8704C8.57716 29.8864 8.60734 29.9064 8.63783 29.9265C8.71052 29.9747 8.78505 30.024 8.85509 30.024C9.4426 30.0421 10.0392 30.0511 10.6267 30.033C10.6883 30.033 10.7542 29.9657 10.8185 29.9C10.8485 29.8694 10.8781 29.8391 10.9069 29.8161C10.8786 29.7963 10.8504 29.7722 10.8221 29.748C10.76 29.6948 10.6978 29.6416 10.6357 29.6353C10.3406 29.6219 10.0455 29.6234 9.72079 29.6251H9.71764C9.60577 29.6257 9.49039 29.6263 9.37029 29.6263C9.54361 29.3457 9.82244 29.1857 10.107 29.0223C10.4457 28.8279 10.7925 28.6289 10.9792 28.2163C10.7843 28.2163 10.596 28.2157 10.4127 28.2151C9.88181 28.2134 9.39307 28.2119 8.90932 28.2253C8.83098 28.2313 8.75265 28.2936 8.67431 28.3559C8.63515 28.387 8.59598 28.4181 8.55681 28.4422C8.59598 28.4543 8.63515 28.4704 8.67431 28.4864C8.75265 28.5186 8.83098 28.5507 8.90932 28.5507C9.18048 28.5387 9.45164 28.5186 9.72279 28.4985ZM8.73758 31.2352C8.69239 31.2713 8.65624 31.3165 8.62008 31.3617L8.60412 31.3833C8.58502 31.4092 8.56923 31.4307 8.54777 31.4521C8.56585 31.4702 8.59297 31.4973 8.61104 31.5244C8.62912 31.5425 8.64494 31.5628 8.66076 31.5832C8.67657 31.6035 8.69239 31.6239 8.71047 31.6419C8.72855 31.669 8.75566 31.6871 8.78278 31.7052C8.79182 31.7097 8.7986 31.712 8.80537 31.7142C8.81215 31.7165 8.81893 31.7188 8.82797 31.7233C9.29674 31.8943 9.76994 32.0565 10.2445 32.2191C10.4469 32.2885 10.6499 32.358 10.8526 32.4283L10.7984 32.3469C10.7713 32.3063 10.7442 32.2634 10.7171 32.2204C10.69 32.1775 10.6628 32.1345 10.6357 32.0939C10.5001 31.8679 10.4007 31.6329 10.3736 31.3888C10.3645 31.3617 10.3645 31.3256 10.3645 31.2985C10.3645 31.2352 10.3736 31.1719 10.3826 31.1086C10.3826 31.0787 10.3888 31.0549 10.3961 31.0271L10.4007 31.0092C10.5022 30.9475 10.595 30.8879 10.6845 30.8304C10.7783 30.7702 10.8686 30.7122 10.9611 30.6567L10.8526 30.494C10.7713 30.5211 10.6877 30.5483 10.6041 30.5754C10.5205 30.6025 10.4369 30.6296 10.3555 30.6567C9.85838 30.8194 9.36125 30.9821 8.86413 31.1538C8.85089 31.1538 8.8425 31.1587 8.83186 31.1648C8.82797 31.1671 8.82378 31.1695 8.81893 31.1719C8.79182 31.19 8.7647 31.2081 8.73758 31.2352ZM8.75566 33.1062C8.66527 33.2147 8.602 33.3322 8.56585 33.4858C8.54777 33.5672 8.53873 33.6485 8.53873 33.7479C8.53873 33.8926 8.56585 34.0462 8.62008 34.1818C8.7647 34.5253 9.07202 34.7964 9.43356 34.8959C9.50587 34.9139 9.57818 34.932 9.65953 34.932H9.77703C10.0934 34.9139 10.4007 34.7693 10.6086 34.5433C10.6222 34.5298 10.6334 34.514 10.6447 34.4982C10.656 34.4823 10.6673 34.4665 10.6809 34.453C10.7984 34.2993 10.8798 34.1276 10.9069 33.9378C10.9069 33.9139 10.9094 33.8926 10.9118 33.8724C10.9139 33.8544 10.9159 33.8373 10.9159 33.8203C10.9249 33.6576 10.8978 33.5039 10.8436 33.3683C10.8165 33.305 10.7803 33.2418 10.7442 33.1785C10.6899 33.0881 10.6176 33.0068 10.5272 32.9435C10.473 32.8983 10.4097 32.8622 10.3374 32.826C10.3013 32.8079 10.2651 32.7898 10.229 32.7808C10.0843 32.7266 9.91261 32.6995 9.7228 32.7085C9.64145 32.7085 9.56914 32.7175 9.49683 32.7266C9.19856 32.7718 8.93644 32.8983 8.75566 33.1062ZM8.69239 40.9427C9.37933 40.9427 10.0753 40.9337 10.7622 40.9156C10.8165 40.9156 10.9159 40.8343 10.9159 40.7981C10.9159 40.4004 10.8978 40.0027 10.8798 39.605H10.6719C10.6654 39.6696 10.6532 39.7341 10.641 39.7987C10.619 39.9149 10.597 40.0311 10.6086 40.1473C10.6538 40.5541 10.5001 40.6987 10.0934 40.6716C9.75248 40.6468 9.40733 40.6517 9.02004 40.6573H9.01911C8.84196 40.6599 8.6558 40.6625 8.45738 40.6625C8.51123 40.7271 8.55082 40.7846 8.58238 40.8305C8.63029 40.9 8.6597 40.9427 8.69239 40.9427ZM9.61029 37.9878C9.60629 38.1494 9.60231 38.3098 9.61434 38.4661C9.64145 38.8096 9.46068 39.0175 9.17144 38.9633C9.05394 38.9452 8.9274 38.6288 8.8822 38.439C8.83983 38.2695 8.82989 38.0919 8.8198 37.9116C8.81482 37.8227 8.80981 37.7332 8.80085 37.6436C8.7647 37.6436 8.7308 37.6459 8.69691 37.6481C8.66301 37.6504 8.62912 37.6527 8.59297 37.6527C8.59297 37.7749 8.5924 37.8967 8.59183 38.0181C8.59014 38.3814 8.58846 38.7421 8.602 39.1079C8.61104 39.1531 8.74662 39.2254 8.81893 39.2254C9.51491 39.2344 10.2109 39.2344 10.8888 39.2344V37.6346C10.708 37.7159 10.6176 37.8334 10.6086 37.96C10.6014 38.0459 10.6099 38.1361 10.6182 38.2249C10.6308 38.3603 10.6432 38.4925 10.5996 38.6017C10.5561 38.7197 10.4401 38.8078 10.3249 38.8953C10.2724 38.9352 10.22 38.975 10.1747 39.0175C10.1417 38.9724 10.1016 38.9294 10.0619 38.8866C9.98213 38.8008 9.9036 38.7163 9.8855 38.6198C9.8467 38.4129 9.85416 38.2013 9.86155 37.9918C9.86449 37.9084 9.86742 37.8254 9.86742 37.743H9.61434C9.61434 37.8247 9.61231 37.9064 9.61029 37.9878ZM10.6447 36.9476C10.6809 36.9476 10.7171 36.9386 10.7622 36.9115C10.8152 36.885 10.8778 36.844 10.9572 36.792L10.9585 36.7912L10.9596 36.7905C10.988 36.7719 11.0185 36.7519 11.0515 36.7307C10.9684 36.703 10.9091 36.6821 10.8632 36.6659C10.8341 36.6557 10.8104 36.6473 10.7894 36.6403C10.7532 36.6313 10.7351 36.6313 10.708 36.6313C10.6797 36.6313 10.6538 36.6337 10.6291 36.6361C10.6066 36.6383 10.585 36.6403 10.5634 36.6403C10.542 36.6403 10.5205 36.6414 10.4994 36.6424C10.4583 36.6444 10.4185 36.6463 10.3826 36.6403C10.3465 36.6403 10.3103 36.6313 10.2832 36.6222C10.27 36.6222 10.2616 36.6174 10.2509 36.6113C10.247 36.609 10.2428 36.6066 10.238 36.6042C10.1657 36.568 10.1205 36.4957 10.1024 36.3782C10.0934 36.3059 10.0934 36.2155 10.1024 36.107V36.0528C10.1024 36.0167 10.0934 35.9805 10.0753 35.9443L10.0482 35.8901C10.0301 35.854 10.003 35.8088 9.97588 35.7726C9.83126 35.5828 9.59626 35.3839 9.40645 35.2936C9.37933 35.2845 9.34318 35.2845 9.29798 35.2936C9.26183 35.3026 9.23471 35.3116 9.19856 35.3297C9.07202 35.393 8.93644 35.4924 8.81893 35.6099C8.77374 35.6551 8.72855 35.7093 8.69239 35.7545C8.68787 35.7636 8.68335 35.7703 8.67883 35.7771C8.67431 35.7839 8.66979 35.7907 8.66527 35.7997C8.62912 35.863 8.61104 35.9353 8.59297 36.0076C8.57489 36.0799 8.56585 36.1613 8.56585 36.2426C8.55681 36.4053 8.56585 36.5771 8.57489 36.7307C8.57489 36.7759 8.62008 36.8301 8.68335 36.8753C8.73758 36.9205 8.80989 36.9567 8.86413 36.9567C9.31606 36.9657 9.75896 36.9657 10.2019 36.9567C10.3465 36.9567 10.5001 36.9567 10.6447 36.9476ZM15.3087 46.0496C15.3268 45.9954 15.3177 45.923 15.2997 45.8688C15.2929 45.8385 15.2849 45.8069 15.2766 45.774C15.2626 45.7189 15.2477 45.6599 15.2364 45.5977C14.9743 45.9773 14.7845 46.1671 14.5223 46.1671C14.2964 46.158 14.0071 46.0134 13.5823 45.7152C13.5462 45.685 13.502 45.6549 13.4578 45.6248C13.4357 45.6097 13.4136 45.5946 13.3925 45.5796C13.4015 45.6112 13.4128 45.6428 13.4241 45.6745C13.4354 45.7061 13.4467 45.7378 13.4558 45.7694L13.6275 46.2846C13.6817 46.4382 13.736 46.5919 13.7812 46.7365C13.7902 46.7591 13.797 46.784 13.8038 46.8088C13.8105 46.8337 13.8173 46.8585 13.8264 46.8811C13.8581 46.9764 13.8858 47.0745 13.9136 47.1731C13.957 47.3271 14.0008 47.4826 14.0614 47.6314C14.0704 47.6494 14.0772 47.6652 14.084 47.6811C14.0907 47.6969 14.0975 47.7127 14.1066 47.7308C14.1246 47.776 14.1698 47.8121 14.215 47.8483C14.2512 47.8754 14.2873 47.8935 14.3235 47.9115C14.3596 47.9296 14.4048 47.9477 14.441 47.9567C14.45 47.9613 14.4591 47.9635 14.4681 47.9658C14.4772 47.968 14.4862 47.9703 14.4952 47.9748H14.5223C14.5325 47.9748 14.5426 47.9691 14.5544 47.9625C14.5636 47.9574 14.5737 47.9517 14.5856 47.9477C14.6218 47.9296 14.6579 47.8935 14.685 47.8664C14.7031 47.8393 14.7122 47.8212 14.7212 47.8031C14.8748 47.3693 15.0285 46.9354 15.1731 46.4925C15.2182 46.3391 15.2636 46.1939 15.3087 46.0496ZM17.4509 47.6494C17.4599 47.6133 17.4599 47.5771 17.4599 47.541V47.4325C17.4539 47.065 17.4559 46.6974 17.4579 46.3299C17.4589 46.1461 17.4599 45.9622 17.4599 45.7784L17.1888 45.6971C17.1345 45.8055 17.0803 45.923 17.0351 46.0315C17.028 46.0493 17.0222 46.0658 17.0168 46.0813C17.0085 46.1052 17.0009 46.1271 16.9899 46.149C16.9854 46.1671 16.9786 46.1874 16.9718 46.2078C16.9651 46.2281 16.9583 46.2485 16.9537 46.2665C16.9385 46.3072 16.9261 46.3507 16.9134 46.3955C16.9035 46.4303 16.8933 46.4659 16.8814 46.5015C16.8769 46.5196 16.8701 46.5399 16.8634 46.5603C16.8566 46.5806 16.8498 46.6009 16.8453 46.619C16.8091 46.5919 16.773 46.5648 16.7278 46.5377C16.711 46.5269 16.6942 46.5162 16.6775 46.5057C16.5683 46.4365 16.4627 46.3696 16.3843 46.2756C16.2503 46.1215 16.1362 45.9475 16.0235 45.7758C15.9842 45.7158 15.945 45.6561 15.9053 45.5977C15.8736 45.6157 15.8443 45.6361 15.8149 45.6564C15.7855 45.6767 15.7561 45.6971 15.7245 45.7152C15.8781 45.9954 16.0318 46.2756 16.1945 46.5648L16.1801 46.5768C16.1267 46.6209 16.0558 46.6794 16.0228 46.7456C16.0137 46.7727 15.9956 46.8088 15.9776 46.8359C15.9685 46.8495 15.9595 46.8653 15.9505 46.8811C15.9414 46.897 15.9324 46.9128 15.9233 46.9263C15.9206 46.9318 15.9179 46.9364 15.9152 46.9407L15.9098 46.9489C15.9053 46.9557 15.9007 46.9625 15.8962 46.9715C15.851 47.0348 15.8149 47.089 15.7878 47.1523C15.7606 47.1975 15.7426 47.2427 15.7335 47.2788C15.7154 47.3331 15.7154 47.3783 15.7335 47.4144C15.7968 47.5319 15.8962 47.6404 16.0228 47.7398C16.1493 47.8392 16.2849 47.9206 16.4205 47.9839C16.4928 48.02 16.5922 48.0019 16.6916 47.9839C16.7199 47.9803 16.7495 47.974 16.7794 47.9677C16.8261 47.9578 16.8735 47.9477 16.9176 47.9477H16.9899C17.1345 47.9748 17.2249 47.9567 17.2972 47.9206C17.3243 47.9025 17.3515 47.8844 17.3695 47.8664C17.3708 47.8651 17.3721 47.8636 17.3734 47.862L17.3774 47.8566L17.3831 47.8483C17.3876 47.8415 17.3921 47.8347 17.3966 47.8302C17.4147 47.794 17.4328 47.7489 17.4418 47.7037C17.4418 47.6946 17.4441 47.6856 17.4464 47.6765C17.4486 47.6675 17.4509 47.6585 17.4509 47.6494ZM18.9965 48.02C19.0326 48.011 19.0598 48.011 19.0959 48.011C19.2487 47.9992 19.4015 47.9645 19.5568 47.9293C19.6404 47.9103 19.7246 47.8912 19.81 47.8754C19.7648 47.7669 19.7467 47.6585 19.7286 47.541C19.7196 47.5139 19.7196 47.4958 19.7196 47.4687C19.7105 47.4235 19.7105 47.3783 19.7105 47.3331C19.7054 47.1885 19.712 47.0438 19.7187 46.8992C19.7236 46.7908 19.7286 46.6823 19.7286 46.5738C19.7286 46.5512 19.7264 46.5286 19.7241 46.506C19.7218 46.4834 19.7196 46.4608 19.7196 46.4382C19.7105 46.4111 19.7105 46.384 19.7105 46.3659C19.7105 46.3207 19.7015 46.2756 19.6925 46.2304C19.6925 46.2002 19.6844 46.1701 19.6764 46.14C19.6724 46.1249 19.6684 46.1098 19.6654 46.0948C19.6473 46.0225 19.6292 45.9592 19.593 45.8959C19.5569 45.8327 19.5207 45.7694 19.4755 45.7061C19.4665 45.8417 19.4575 45.9863 19.4484 46.14C19.4394 46.2936 19.4303 46.4654 19.4213 46.6733C19.3393 46.6374 19.2603 46.6102 19.1874 46.5852C19.1317 46.5661 19.0796 46.5482 19.0326 46.5286C18.9694 46.5015 18.9061 46.4654 18.8609 46.4202C18.7766 46.3415 18.7202 46.2383 18.6636 46.1345C18.6291 46.0715 18.5946 46.0082 18.5536 45.9502C18.5446 45.9321 18.5265 45.905 18.5084 45.8869C18.4903 45.8688 18.4632 45.8417 18.4361 45.8236C18.4271 45.8191 18.4203 45.8146 18.4135 45.8101C18.4067 45.8056 18.3999 45.801 18.3909 45.7965C18.3638 45.7875 18.3276 45.7694 18.3005 45.7513C18.2779 45.7377 18.2553 45.7265 18.2327 45.7152C18.2101 45.7039 18.1875 45.6926 18.1649 45.679C18.1695 45.7061 18.1717 45.7332 18.174 45.7603C18.1762 45.7874 18.1785 45.8146 18.183 45.8417C18.192 45.923 18.2011 45.9863 18.2282 46.0405C18.2372 46.0586 18.2463 46.0677 18.2553 46.0767C18.5717 46.375 18.5988 46.619 18.2463 46.9173C18.1559 46.9986 18.1017 47.08 18.0655 47.1613C18.0474 47.1975 18.0384 47.2246 18.0384 47.2608C18.0294 47.2969 18.0294 47.324 18.0384 47.3602C18.0384 47.3873 18.0474 47.4325 18.0655 47.4596C18.0836 47.4867 18.1017 47.5229 18.1197 47.559C18.1559 47.6133 18.192 47.6585 18.2463 47.7127C18.2598 47.7263 18.2757 47.7398 18.2915 47.7534C18.3073 47.7669 18.3231 47.7805 18.3367 47.7941C18.5446 47.9658 18.7705 48.02 18.9965 48.02ZM21.5364 47.55C21.5906 47.4596 21.6448 47.3602 21.6719 47.2608C21.8256 46.7456 21.9702 46.2304 22.1148 45.7061C22.0965 45.7245 22.0787 45.7429 22.0612 45.7609C22.0098 45.814 21.9609 45.8645 21.9069 45.905C21.8346 45.9592 21.7623 46.0044 21.6991 46.0405C21.6358 46.0767 21.5725 46.1038 21.5002 46.1219L21.4786 46.1246C21.415 46.1327 21.3573 46.14 21.2923 46.14C21.1839 46.1309 21.0754 46.1038 20.9579 46.0586C20.9374 46.0535 20.917 46.0426 20.8948 46.0308C20.8779 46.0218 20.86 46.0122 20.8404 46.0044C20.7771 45.9692 20.7138 45.9286 20.642 45.8825L20.5783 45.8417C20.515 45.8014 20.4553 45.7538 20.3923 45.7035C20.3564 45.6748 20.3194 45.6453 20.28 45.6157C20.2743 45.6327 20.2686 45.648 20.2635 45.6617C20.2523 45.6918 20.2438 45.7146 20.2438 45.7332V45.7603C20.2664 45.8417 20.2913 45.9208 20.3161 45.9999C20.341 46.079 20.3659 46.1581 20.3884 46.2394C20.4152 46.3357 20.4451 46.432 20.4745 46.5265C20.4947 46.5915 20.5146 46.6557 20.5331 46.7184C20.5475 46.7833 20.5676 46.8424 20.589 46.905L20.6054 46.9535C20.6777 47.1885 20.759 47.4235 20.8494 47.6585C20.8675 47.7127 20.9127 47.7579 20.976 47.7941C21.0212 47.8212 21.0664 47.8483 21.1115 47.8664C21.1839 47.8935 21.2562 47.9296 21.3194 47.9658C21.3556 47.898 21.3917 47.8279 21.4279 47.7579C21.4641 47.6878 21.5002 47.6178 21.5364 47.55ZM24.1531 47.8438C24.1553 47.8189 24.1576 47.7941 24.1576 47.7669C23.8711 47.7344 23.58 47.7065 23.2673 47.6766C23.1459 47.665 23.0211 47.653 22.8922 47.6404C23.1909 47.2735 23.4683 46.928 23.7386 46.5913C23.9345 46.3473 24.1266 46.1081 24.3203 45.8688C23.9226 45.6248 22.7566 45.6519 22.3318 45.9954L22.4604 46.0066L22.4613 46.0067L22.4627 46.0068C22.919 46.0468 23.304 46.0806 23.7418 46.1219C23.2537 46.7275 22.8289 47.2427 22.2685 47.9206H24.1485C24.1485 47.8935 24.1508 47.8686 24.1531 47.8438ZM24.8716 45.5163C25.2151 46.0948 25.1609 47.7398 24.8716 47.9748V45.5163ZM27.1909 47.8375C27.2726 47.8253 27.3556 47.8129 27.4386 47.8031C27.4929 47.7941 27.5381 47.7941 27.5832 47.7941L27.5561 46.7546C27.5471 46.4111 27.5381 46.0767 27.529 45.7423C27.3382 45.7423 27.1712 45.7396 27.018 45.7372C26.8885 45.7351 26.7681 45.7332 26.6523 45.7332C26.5709 45.7332 26.4895 45.7332 26.4082 45.7423C26.2094 45.7513 26.0196 45.8417 25.9111 45.9592C25.8026 46.0767 25.7484 46.2304 25.8117 46.3931L25.9201 46.6642L25.9357 46.7028C25.9663 46.7783 25.995 46.849 26.0105 46.9263C26.0196 46.9444 26.0286 46.9715 26.0286 46.9896C26.0467 47.0981 26.0557 47.2156 26.0286 47.3421C26.0196 47.3873 26.0015 47.4415 25.9834 47.4958C25.9653 47.5319 26.0105 47.6133 26.0828 47.6946C26.128 47.7398 26.1732 47.785 26.2184 47.8212C26.2229 47.8257 26.2297 47.8302 26.2365 47.8347C26.2433 47.8392 26.25 47.8438 26.2546 47.8483C26.2907 47.8664 26.3269 47.8844 26.354 47.8935C26.363 47.9025 26.3721 47.9025 26.3811 47.9025H26.5348C26.6794 47.9025 26.8421 47.8844 26.9867 47.8664C27.053 47.8581 27.1217 47.8478 27.1909 47.8375ZM29.2644 42.1358C29.2554 41.7924 29.2464 41.4399 29.2464 41.0964C29.2404 40.4073 29.2423 39.7183 29.2443 39.0134V39.0091C29.2453 38.6523 29.2464 38.2907 29.2464 37.9238C29.2644 33.5762 29.2825 29.2196 29.2916 24.872C29.2916 24.8674 29.2893 24.8607 29.287 24.8539C29.2848 24.8471 29.2825 24.8403 29.2825 24.8358C29.2644 24.7545 29.1831 24.646 29.1198 24.6189C29.1108 24.6098 29.1017 24.6098 29.0927 24.6098C28.8454 24.5903 28.5934 24.5942 28.3536 24.5979C28.2604 24.5994 28.1689 24.6008 28.0804 24.6008L28.1075 24.8448C28.1191 24.9143 28.129 24.9821 28.1387 25.0482C28.1517 25.137 28.1643 25.223 28.1798 25.3058C28.2033 25.4391 28.22 25.5656 28.2359 25.6853L28.2431 25.7397C28.2702 25.9476 28.2792 26.1555 28.2702 26.3543C28.225 27.2853 27.8634 28.0717 27.3211 28.7586C27.1403 28.9846 26.9325 29.2105 26.7155 29.4184C26.7128 29.4212 26.7092 29.4239 26.7053 29.4269C26.6964 29.4338 26.6857 29.442 26.6794 29.4546C26.6749 29.4636 26.6681 29.4704 26.6613 29.4772C26.6545 29.4839 26.6477 29.4907 26.6432 29.4998C26.6348 29.511 26.6264 29.5213 26.6183 29.5313C26.6002 29.5536 26.5834 29.5742 26.5709 29.5992C26.5528 29.6263 26.5348 29.6625 26.5167 29.6986C26.4986 29.7257 26.4896 29.7619 26.4896 29.798C26.4715 30.0059 26.4715 30.2138 26.4715 30.4127C26.4715 30.5178 26.4738 30.6206 26.4761 30.7222C26.4783 30.8216 26.4805 30.9199 26.4805 31.0183C27.755 31.3979 28.2702 32.2023 28.225 33.2327C28.216 33.4497 28.1708 33.6485 28.1075 33.8293C28.103 33.8428 28.0962 33.8587 28.0894 33.8745C28.0826 33.8903 28.0759 33.9061 28.0713 33.9197C28.0578 33.9468 28.0442 33.9762 28.0307 34.0055C28.0171 34.0349 28.0035 34.0643 27.99 34.0914C27.9448 34.1818 27.8996 34.2631 27.8454 34.3355C27.755 34.462 27.6465 34.5795 27.5381 34.6789C27.52 34.706 27.5019 34.7241 27.4748 34.7422C27.1494 35.0043 26.7698 35.167 26.4263 35.1941C26.3449 35.2032 26.2546 35.2032 26.1732 35.2032C25.432 35.2032 24.8988 34.9501 24.5462 34.5162C24.5282 34.4891 24.5101 34.4643 24.492 34.4394C24.4739 34.4145 24.4559 34.3897 24.4378 34.3626C24.3655 34.2631 24.3022 34.1456 24.248 34.0281C24.1666 33.8474 24.1034 33.6485 24.0582 33.4406C24.0323 33.3459 24.0229 33.2512 24.0143 33.1643L24.013 33.1514V32.9616C24.013 32.7989 24.0491 32.6452 24.0943 32.5006C24.1058 32.4739 24.1156 32.4472 24.1252 32.4212C24.1383 32.3855 24.151 32.3512 24.1666 32.3198C24.173 32.307 24.1783 32.2954 24.1832 32.2844C24.1922 32.2645 24.2001 32.247 24.2118 32.2294C24.492 31.6871 25.0615 31.2262 25.8659 30.946V30.1325C25.5979 30.2323 25.333 30.3352 25.0694 30.4376C24.8796 30.5113 24.6902 30.5848 24.5011 30.6567C24.4559 30.6748 24.4107 30.6906 24.3655 30.7064C24.3203 30.7222 24.2751 30.7381 24.2299 30.7561L23.6876 30.946C23.6605 30.955 23.6312 30.964 23.6018 30.973C23.5724 30.9821 23.543 30.9911 23.5158 31.0002C23.3333 31.0458 23.1435 31.0843 22.9556 31.1223C22.8458 31.1446 22.7367 31.1667 22.63 31.19C22.5125 31.2171 22.4041 31.2442 22.2866 31.2804C22.2323 31.2985 22.1781 31.3437 22.1239 31.3979C22.0877 31.434 22.0606 31.4792 22.0335 31.5244C22.0197 31.5382 22.0112 31.5573 22.0039 31.5736C22.0016 31.5786 21.9995 31.5834 21.9973 31.5877C21.9793 31.6329 21.9702 31.6781 21.9702 31.7142C21.9612 33.0698 21.9612 34.4163 21.9612 35.7718V37.1284C21.9612 37.2163 21.9688 37.3041 21.9766 37.3944C21.9808 37.4435 21.9851 37.4933 21.9883 37.5442C22.377 37.4448 22.7385 37.3815 23.082 37.3544C23.2537 37.3363 23.4164 37.3273 23.5791 37.3273C23.6198 37.3273 23.6582 37.3295 23.6966 37.3318C23.735 37.334 23.7735 37.3363 23.8141 37.3363C23.9677 37.3453 24.1123 37.3634 24.2569 37.3815C24.6185 37.4357 24.9439 37.5352 25.2332 37.6707C25.4049 37.7521 25.5676 37.8425 25.7213 37.9509C25.8207 38.0142 25.9201 38.0955 26.0105 38.1769C26.1551 38.2944 26.2817 38.43 26.3992 38.5746C26.5528 38.7644 26.6884 38.9723 26.815 39.1983C26.8423 39.2392 26.8644 39.2853 26.8853 39.3288C26.892 39.3428 26.8987 39.3568 26.9053 39.37C26.9686 39.4875 27.0228 39.605 27.068 39.7315C27.1494 39.9214 27.2127 40.1112 27.2669 40.31L27.2127 40.2829C27.1765 40.2558 27.1494 40.2287 27.1313 40.1925C27.1042 40.1564 27.0861 40.1202 27.068 40.0841C27.05 40.0479 27.0319 40.0117 27.0048 39.9756C27.0002 39.9666 26.9935 39.9598 26.9867 39.953C26.9799 39.9462 26.9731 39.9394 26.9686 39.9304C26.7878 39.7225 26.6071 39.5237 26.3992 39.3519C26.345 39.3067 26.2817 39.2616 26.2185 39.2164C25.9925 39.0718 25.7484 38.9633 25.4501 38.9271C25.3416 38.9181 25.2513 38.9181 25.1699 38.9361C25.1247 38.9452 25.0795 38.9633 25.0434 38.9904C24.9801 39.0265 24.9349 39.0898 24.9078 39.1802C24.8897 39.2344 24.8716 39.2977 24.8716 39.37C24.8626 39.5146 24.8626 39.6502 24.8716 39.7858C24.8807 39.9937 24.9259 40.1925 24.9982 40.3733C25.0705 40.5541 25.179 40.7348 25.3326 40.8885C25.4049 40.9608 25.4682 41.0331 25.5315 41.1054C25.5495 41.128 25.5676 41.1529 25.5857 41.1777C25.6038 41.2026 25.6219 41.2275 25.6399 41.25C25.6761 41.3043 25.7032 41.3495 25.7303 41.4037C25.7484 41.4308 25.7574 41.4579 25.7665 41.4851C25.7936 41.5393 25.8026 41.5935 25.8117 41.6477C25.8207 41.702 25.8207 41.7562 25.8117 41.8195C25.8026 41.937 25.7574 42.0635 25.667 42.2081L25.6399 42.2624C25.6096 42.3533 25.62 42.4687 25.6301 42.5812C25.635 42.6364 25.6399 42.6909 25.6399 42.7414V44.2057C25.5417 44.1978 25.4468 44.1917 25.3554 44.1858C25.2366 44.178 25.1235 44.1707 25.0163 44.1605C24.9214 44.1515 24.8264 44.1447 24.7315 44.1379C24.6366 44.1311 24.5417 44.1243 24.4468 44.1153C24.4423 44.0927 24.4355 44.0679 24.4287 44.043C24.422 44.0181 24.4152 43.9933 24.4107 43.9707C24.4468 43.9526 24.483 43.9255 24.5101 43.8984C24.5643 43.8441 24.6186 43.7899 24.6547 43.7357C24.6637 43.7221 24.6705 43.7063 24.6773 43.6905C24.6841 43.6747 24.6909 43.6589 24.6999 43.6453C24.7044 43.6363 24.7067 43.6295 24.7089 43.6227C24.7112 43.616 24.7135 43.6091 24.718 43.6001C24.7813 43.4374 24.7813 43.2566 24.7722 43.0759C24.7722 43.0533 24.77 43.0284 24.7677 43.0036C24.7654 42.9787 24.7632 42.9538 24.7632 42.9312C24.7632 42.8996 24.7609 42.8657 24.7587 42.8318C24.7564 42.7979 24.7541 42.764 24.7541 42.7324V42.6872C24.7541 42.6239 24.7632 42.5607 24.7722 42.4974C24.7903 42.3708 24.7903 42.2714 24.7632 42.181C24.6999 41.9822 24.5372 41.8647 24.2841 41.7924C24.1124 41.7381 23.9497 41.6749 23.796 41.6026C23.4887 41.4489 23.2085 41.2591 22.9645 41.015C22.8379 40.8975 22.7204 40.762 22.612 40.6173C22.5668 40.5631 22.4764 40.527 22.377 40.5179C22.3318 40.5089 22.2775 40.5089 22.2233 40.5089C22.1691 40.5089 22.1239 40.5089 22.0787 40.5179C21.5725 40.5902 21.0664 40.6786 20.5602 40.767C20.3071 40.8112 20.054 40.8554 19.8009 40.8975C19.7829 40.8704 19.767 40.841 19.7512 40.8117C19.7354 40.7823 19.7196 40.7529 19.7015 40.7258C19.6771 40.8235 19.6444 40.9202 19.6118 41.0166C19.548 41.2054 19.4846 41.393 19.4846 41.5845C19.49 41.9695 19.5247 42.3546 19.5594 42.7396C19.5826 42.9963 19.6057 43.253 19.6202 43.5097V43.5368C19.6202 43.6091 19.6111 43.6995 19.593 43.7809C19.584 43.817 19.575 43.8441 19.5659 43.8713C19.5479 43.9165 19.5207 43.9436 19.5027 43.9526C19.3761 43.9797 19.2586 43.9978 19.1321 44.0068C19.114 44.0068 19.0937 44.0091 19.0733 44.0114C19.053 44.0136 19.0326 44.0159 19.0146 44.0159C18.8519 44.0249 18.6982 44.034 18.5536 44.043C18.5853 43.9049 18.6215 43.7759 18.6559 43.6535C18.7295 43.3913 18.7948 43.1592 18.7886 42.9312C18.7886 42.877 18.7886 42.8137 18.7796 42.7595C18.7615 42.5607 18.7208 42.3618 18.6801 42.163C18.6395 41.9641 18.5988 41.7652 18.5807 41.5664C18.5446 41.1506 18.4722 40.78 18.2915 40.4546C18.1559 40.1925 17.948 39.9666 17.6497 39.7587C17.3966 39.5869 17.1978 39.3158 17.0261 39.0265C16.9431 38.8908 16.8727 38.7488 16.8045 38.6109L16.7639 38.5294C16.7515 38.5046 16.7391 38.4808 16.7271 38.4578C16.704 38.4137 16.6823 38.3721 16.6645 38.3306C16.6507 38.3167 16.6422 38.2977 16.6349 38.2814L16.6316 38.2742L16.6284 38.2673L16.6204 38.2539L16.606 38.229C16.5896 38.2005 16.5751 38.1751 16.556 38.1498L16.5401 38.1282C16.521 38.1023 16.5052 38.0808 16.4837 38.0594C16.3482 37.9148 16.1855 37.8967 15.9324 37.96C16.1332 38.338 16.3302 38.7044 16.5005 39.0214L16.5011 39.0225C16.5913 39.1902 16.674 39.3441 16.7459 39.4785C16.7409 39.567 16.7334 39.6528 16.726 39.7359C16.7198 39.8056 16.7138 39.8735 16.7097 39.9394C16.6916 40.1564 16.6736 40.3552 16.6555 40.5541L16.6284 40.9337C16.6238 40.9653 16.6216 40.997 16.6193 41.0286C16.6171 41.0602 16.6148 41.0919 16.6103 41.1235H15.7968C15.7787 40.9427 15.7787 40.7529 15.7787 40.5721V40.1564C15.7787 39.9304 15.7516 39.6954 15.6793 39.4604C15.6251 39.2706 15.5347 39.0898 15.3901 38.9C15.381 39.0717 15.372 39.2344 15.3629 39.379C15.3579 39.5146 15.3501 39.639 15.3426 39.7585C15.3366 39.854 15.3308 39.9465 15.3268 40.0389C15.3087 40.0343 15.2906 40.0276 15.2726 40.0208C15.2545 40.014 15.2364 40.0072 15.2183 40.0027C15.1132 39.9689 15.0144 39.9383 14.9172 39.9081C14.7804 39.8657 14.647 39.8243 14.5043 39.7767C14.4952 39.7496 14.4862 39.6954 14.4862 39.6321V39.5598C14.4862 39.5056 14.4884 39.4536 14.4907 39.4016C14.493 39.3497 14.4952 39.2977 14.4952 39.2435C14.4952 38.9361 14.45 38.6379 14.0885 38.4029C14.0433 38.3757 14.0071 38.3396 13.98 38.3034C13.8354 38.1317 13.9258 37.9148 14.0704 37.7882C14.1156 37.7521 14.1608 37.725 14.206 37.7069C14.215 37.7069 14.2218 37.7046 14.2286 37.7024C14.2354 37.7001 14.2421 37.6978 14.2512 37.6978C14.432 37.6617 14.5766 37.5894 14.7122 37.49C14.7393 37.4628 14.7664 37.4448 14.7935 37.4267C14.8929 37.3453 14.9924 37.255 15.0827 37.1646C15.1053 37.142 15.1302 37.1216 15.1551 37.1013C15.1799 37.081 15.2048 37.0606 15.2274 37.038C15.2816 36.9928 15.3268 36.9567 15.381 36.9205C15.4353 36.8844 15.4895 36.8482 15.5528 36.8211C15.9685 36.6313 16.2126 36.324 16.1222 35.8178V35.7003C16.1222 35.6913 16.1244 35.68 16.1267 35.6687C16.129 35.6574 16.1312 35.6461 16.1312 35.637C16.1357 35.6144 16.1425 35.5918 16.1493 35.5692C16.1561 35.5466 16.1629 35.524 16.1674 35.5014C16.1855 35.4292 16.2035 35.3568 16.2216 35.2755C16.2431 35.2809 16.2614 35.2894 16.2784 35.2974C16.29 35.3028 16.301 35.308 16.312 35.3116C16.3647 35.336 16.4138 35.3567 16.46 35.3762C16.5169 35.4001 16.5695 35.4223 16.6193 35.4472C16.6555 35.4608 16.6894 35.4766 16.7233 35.4924C16.7572 35.5082 16.7911 35.524 16.8272 35.5376C16.8408 35.5195 16.8521 35.5014 16.8634 35.4834C16.8747 35.4653 16.886 35.4472 16.8995 35.4291C16.904 35.4201 16.9108 35.4111 16.9176 35.402C16.9244 35.393 16.9312 35.3839 16.9357 35.3749C16.9655 35.328 16.9994 35.279 17.0374 35.2243C17.0798 35.163 17.1272 35.0945 17.1797 35.0134C17.252 35.1489 17.3153 35.2754 17.3695 35.3839L17.4509 35.5466C17.4644 35.5738 17.478 35.5986 17.4916 35.6235C17.5051 35.6483 17.5187 35.6732 17.5322 35.7003C17.6045 35.8449 17.6859 35.9986 17.7672 36.1432C17.7818 36.1675 17.7964 36.1924 17.8111 36.2177C17.8512 36.2863 17.8927 36.3574 17.939 36.4234C18.0022 36.5228 18.0655 36.6132 18.1288 36.6946C18.1473 36.7255 18.1701 36.7522 18.1943 36.7805C18.2054 36.7935 18.2168 36.8069 18.2282 36.8211C18.3638 36.9928 18.5265 37.1374 18.7073 37.264C18.7298 37.2775 18.7547 37.2934 18.7796 37.3092C18.8044 37.325 18.8293 37.3408 18.8519 37.3544C18.9513 37.4086 19.0598 37.4628 19.1682 37.508C19.2225 37.5352 19.2767 37.5532 19.34 37.5713V31.434C18.8928 31.2955 18.45 31.1613 18.0116 31.0285L18.0077 31.0273C17.8182 30.9699 17.6296 30.9127 17.4418 30.8556C17.2512 30.7975 17.0614 30.7395 16.8724 30.6818C16.4433 30.5506 16.0184 30.4207 15.5979 30.2952V31.0544C15.8781 31.1538 16.1312 31.2713 16.3572 31.425C16.4114 31.4612 16.4657 31.4973 16.5199 31.5425C16.7187 31.7052 16.8905 31.895 17.017 32.121C17.1074 32.2927 17.1797 32.4735 17.2159 32.6814C17.2249 32.7446 17.2339 32.8169 17.243 32.8891C17.252 32.9253 17.252 32.9616 17.252 32.9977C17.2611 33.1875 17.243 33.3864 17.2068 33.6033C17.1164 34.1276 16.8091 34.5885 16.3843 34.8868C16.3482 34.9139 16.303 34.941 16.2578 34.9682C16.1312 35.0495 15.9866 35.1037 15.833 35.1489C15.7335 35.1761 15.6341 35.1941 15.5256 35.2032C15.0737 35.2484 14.676 35.1851 14.3325 35.0405C13.7631 34.7964 13.3654 34.3174 13.2027 33.6395L13.1756 33.5039C13.1394 33.3141 13.1213 33.1062 13.1304 32.9164C13.1394 32.7718 13.1665 32.6362 13.2117 32.5096C13.275 32.3289 13.3654 32.1571 13.4739 32.0035C13.5823 31.8498 13.7089 31.7142 13.8444 31.5877C13.9168 31.5244 13.9891 31.4702 14.0614 31.416C14.1698 31.3346 14.2964 31.2623 14.4229 31.199C14.5495 31.1358 14.685 31.0815 14.8297 31.0363V29.7257C14.8206 29.6805 14.8116 29.6444 14.7845 29.6173L14.4229 29.2557C14.2964 29.1382 14.1789 29.0117 14.0704 28.8851L13.9348 28.7224C13.8999 28.6806 13.8704 28.6387 13.838 28.5927L13.8083 28.5507C13.727 28.4333 13.6456 28.3156 13.5733 28.1892C13.3292 27.7734 13.1937 27.3576 13.1213 26.9237C13.0852 26.7068 13.0671 26.4899 13.0671 26.2639C13.0581 25.821 13.1123 25.3691 13.1846 24.8991C13.1891 24.8584 13.1959 24.82 13.2027 24.7816C13.2095 24.7432 13.2163 24.7047 13.2208 24.6641C13.1575 24.6641 13.0762 24.655 13.0038 24.646L12.9817 24.6435C12.9092 24.6354 12.8427 24.6279 12.7688 24.6279C12.6694 24.6189 12.5881 24.6189 12.5067 24.6189C12.4344 24.6189 12.3621 24.6189 12.3079 24.6279C11.9734 24.655 11.9734 24.7997 11.9825 25.3962C11.9825 25.4866 11.9847 25.577 11.987 25.6674C11.9893 25.7578 11.9915 25.8481 11.9915 25.9385C11.9915 27.2808 11.9938 28.623 11.996 29.9653C11.9983 31.3075 12.0005 32.6497 12.0005 33.992V38.0142C12.0005 39.3519 11.9915 40.6987 11.9825 42.0364C11.9825 42.1268 11.9825 42.2081 11.9915 42.2985C12.0005 42.4703 12.0367 42.633 12.0819 42.7957C12.0864 42.8137 12.0932 42.8341 12.1 42.8544C12.1067 42.8747 12.1135 42.8951 12.1181 42.9132C12.1452 42.9945 12.1723 43.0668 12.2084 43.1391L12.2627 43.2476C12.2802 43.2757 12.2964 43.3037 12.3123 43.3313C12.3373 43.3747 12.3616 43.4168 12.3892 43.4555C12.5248 43.6543 12.6875 43.8261 12.8683 43.9797C12.9103 44.0218 12.9632 44.0584 13.0143 44.0937C13.0292 44.104 13.0438 44.1142 13.0581 44.1243C13.2208 44.2328 13.4015 44.3232 13.6004 44.3955C13.6817 44.4226 13.7631 44.4497 13.8444 44.4678C14.0523 44.513 14.2693 44.5401 14.4952 44.5401C17.5684 44.522 20.6415 44.522 23.7147 44.5311C24.7361 44.5401 25.7665 44.5401 26.7878 44.5401C27.068 44.5401 27.3392 44.504 27.5832 44.4317L27.6015 44.4272C27.6338 44.4195 27.6705 44.4107 27.7007 44.3955C27.716 44.3898 27.7317 44.3841 27.7476 44.3782C27.807 44.3565 27.8697 44.3336 27.9267 44.3051L28.0352 44.2509C28.0632 44.2334 28.0913 44.2172 28.1188 44.2013C28.1622 44.1763 28.2044 44.152 28.2431 44.1243C28.4781 43.9707 28.6769 43.7809 28.8306 43.564C28.8758 43.5097 28.921 43.4374 28.9571 43.3741C28.9752 43.347 28.9933 43.3109 29.0113 43.2747C29.0209 43.2524 29.0316 43.229 29.0426 43.2049C29.0628 43.1605 29.0842 43.1137 29.1017 43.0668C29.1289 43.0036 29.156 42.9222 29.1741 42.8499C29.2373 42.6239 29.2735 42.3799 29.2644 42.1358ZM13.8965 33.0505C14.8549 33.0935 15.7636 33.1343 16.7368 32.9977C15.616 31.3346 14.667 31.3527 13.7269 33.0429L13.8965 33.0505ZM30.3252 34.3833C30.2791 34.4157 30.2373 34.4452 30.1954 34.4801C30.7468 34.7512 30.9185 35.0314 30.8824 35.3297C30.8824 35.3839 30.8643 35.4382 30.8372 35.5014C30.8224 35.553 30.7957 35.5986 30.7667 35.6479C30.7603 35.6589 30.7533 35.6707 30.7468 35.6822C30.7332 35.7003 30.7197 35.7206 30.7061 35.741C30.6926 35.7613 30.679 35.7816 30.6654 35.7997C30.5299 35.9805 30.3491 36.1703 30.1593 36.3601C30.2361 36.3322 30.313 36.3096 30.3857 36.2883L30.4485 36.2697C30.6383 36.2155 30.8191 36.1613 30.9908 36.107C31.4156 35.9805 31.7862 35.863 32.1568 35.7274C32.2562 35.6913 32.3466 35.6189 32.437 35.5376L32.5003 35.4743C32.5364 35.4291 32.5816 35.3839 32.6268 35.3478C32.6359 35.3388 32.6472 35.3297 32.6585 35.3207C32.6698 35.3116 32.6811 35.3026 32.6901 35.2936C32.5093 35.1761 32.3286 35.0676 32.1478 34.9591C32.0664 34.9139 31.9851 34.8778 31.9037 34.8507C31.3885 34.6789 30.8824 34.5162 30.3672 34.3535L30.3252 34.3833ZM32.6901 38.2944C32.1297 38.2492 31.5693 38.204 30.9999 38.1498C31.213 37.961 31.4261 37.842 31.6282 37.7291C31.7261 37.6745 31.8213 37.6213 31.9128 37.5623C32.1021 37.4462 32.2749 37.3054 32.4508 37.1622C32.5351 37.0934 32.6203 37.0241 32.7082 36.9567C32.2653 36.6765 30.5118 36.7397 30.322 37.0471C30.5589 37.064 30.7938 37.0789 31.0268 37.0938C31.2914 37.1106 31.5538 37.1273 31.8133 37.1465C31.5959 37.3885 31.3376 37.5542 31.0796 37.7196C30.7692 37.9187 30.4595 38.1173 30.2225 38.4481H32.663C32.672 38.4029 32.681 38.3486 32.6901 38.2944ZM30.8191 40.1744C30.7649 40.2919 30.6926 40.4004 30.5931 40.5179C30.4847 40.6535 30.3491 40.7891 30.2045 40.9247H30.3943C30.6414 40.8374 30.8943 40.7561 31.1438 40.6758L31.3253 40.6173C31.4789 40.5721 31.6326 40.5179 31.7862 40.4637C31.8631 40.4366 31.9399 40.4072 32.0167 40.3778C32.0936 40.3484 32.1704 40.3191 32.2472 40.2919C32.3105 40.2739 32.3647 40.2287 32.4189 40.1744C32.443 40.1564 32.4672 40.1302 32.4913 40.1041C32.5033 40.0911 32.5154 40.078 32.5274 40.066C32.5726 40.0027 32.6268 39.9485 32.681 39.8943C32.6088 39.8401 32.5364 39.7857 32.4551 39.7315C32.437 39.718 32.4167 39.7044 32.3963 39.6909L32.3787 39.6791L32.3667 39.6709C32.3566 39.664 32.3468 39.6571 32.3376 39.6502C32.3014 39.6231 32.2653 39.596 32.2201 39.5779C32.202 39.5689 32.1839 39.5621 32.1659 39.5553C32.1478 39.5485 32.1297 39.5417 32.1116 39.5327C32.0393 39.5056 31.967 39.4785 31.8857 39.4604C31.8596 39.4552 31.8366 39.447 31.8149 39.4392C31.7988 39.4335 31.7835 39.4281 31.7682 39.4242C31.5332 39.3519 31.3004 39.2774 31.0677 39.2028C30.8349 39.1282 30.6022 39.0537 30.3672 38.9813L30.2316 39.1169C30.8462 39.4423 30.9728 39.7767 30.8462 40.1202L30.8191 40.1744ZM32.3152 42.8292C32.4288 42.895 32.5422 42.9608 32.6539 43.0126L32.6649 42.9984L32.6789 42.9811C32.697 42.9588 32.7138 42.9381 32.7263 42.9132L32.5636 42.7621C32.2346 42.4565 31.8924 42.1387 31.497 41.7743C31.9374 41.7327 32.2708 41.7065 32.5886 41.6814L32.672 41.6749C32.6539 41.6116 32.6449 41.5393 32.6359 41.467H30.3039L30.2768 41.5754C30.5794 41.688 30.8766 41.8061 31.1768 41.9254C31.2621 41.9594 31.3477 41.9934 31.4337 42.0274C31.4337 42.059 31.4315 42.0884 31.4292 42.1178C31.4269 42.1471 31.4247 42.1765 31.4247 42.2081C31.3436 42.2568 31.2625 42.3032 31.1818 42.3493C31.0377 42.4316 30.8949 42.5131 30.7558 42.6058C30.6351 42.6885 30.5278 42.7889 30.4181 42.8916C30.3719 42.9348 30.325 42.9788 30.2768 43.0216C30.3129 43.0668 30.3581 43.1211 30.4033 43.1662C30.5233 43.0977 30.6416 43.0137 30.7597 42.9298C31.0152 42.7484 31.2702 42.5673 31.5422 42.5426C31.7884 42.5236 32.0522 42.6767 32.3152 42.8292ZM30.2768 33.8112C30.4666 33.5672 32.2472 33.5129 32.8166 33.8112H30.2768Z" fill="black"/>
</svg>
