<svg width="121" height="80" viewBox="0 0 121 80" fill="none" xmlns="http://www.w3.org/2000/svg">
<path d="M56.1637 34.1228C54.7994 32.5921 53.0393 31.8562 50.7345 31.8562C46.187 31.8562 42.5696 35.4085 42.5696 39.8486C42.5696 44.2586 46.2707 47.9639 50.6394 47.9639C52.7623 47.9639 54.4635 47.167 55.9476 45.4834V46.5262C55.9476 49.5875 53.7938 51.6701 50.6084 51.6701C48.7584 51.6701 47.3631 50.9663 46.2676 49.4656H43.0895C43.6662 50.7513 43.969 51.1802 44.9095 52.068C46.5177 53.5987 48.2468 54.3035 50.4616 54.3035C55.3751 54.3035 58.8849 51.1192 58.8849 46.5521V31.9792H56.1637V34.1228ZM55.9518 39.9715C55.7998 43.0639 53.555 45.3604 50.6436 45.3604C47.761 45.3604 45.3953 42.9109 45.3953 39.9106C45.3953 36.9102 47.761 34.4597 50.6735 34.4597C53.616 34.4597 55.9817 36.7872 55.9817 39.6956C55.9817 39.7876 55.9518 39.8796 55.9518 39.9715Z" fill="black"/>
<path d="M109.602 31.8562C107.639 31.8562 106.081 32.5301 105.07 33.8778V31.9658H102.28V47.5659H105.315V39.2367C105.315 36.2663 106.785 34.4597 109.266 34.4597C110.643 34.4597 111.838 35.0416 112.45 36.0214C112.91 36.7252 113.094 37.736 113.094 39.2367V47.5659H115.972V38.1608C115.972 34.3936 113.4 31.8562 109.602 31.8562Z" fill="black"/>
<path d="M67.8457 31.6454L67.5284 31.6578C65.8417 31.724 64.5311 32.4288 63.5079 33.7869V31.9875H60.8321V47.5659H63.7612V39.2057C63.7612 36.0017 64.898 35.0127 67.4581 34.7822C67.6741 34.7698 67.8457 34.7698 67.8457 34.7698V31.6454Z" fill="black"/>
<path d="M65.5926 49.91H66.7295C67.4953 49.91 68.1258 50.2449 68.1258 51.0769V51.0996C68.1258 51.9481 67.4891 52.2778 66.7295 52.2778H66.0825V53.9025H65.5957V49.91H65.5926ZM66.7605 51.8923C67.3299 51.8923 67.6369 51.6133 67.6369 51.0996V51.0769C67.6369 50.5125 67.302 50.3007 66.7605 50.3007H66.0794V51.8923H66.7605Z" fill="black"/>
<path d="M70.3065 49.91L71.6584 53.9025H71.1778L70.7871 52.7522H69.1397L68.7542 53.9025H68.2942L69.6678 49.91H70.3065ZM70.6579 52.3667L69.9655 50.312L69.273 52.3667H70.6579Z" fill="black"/>
<path d="M73.6014 49.91C74.3662 49.91 74.9977 50.2201 74.9977 51.021V51.0427C74.9977 51.7021 74.5564 52.0267 74.0086 52.1321L75.2323 53.9025H74.6897L73.5012 52.1662H72.8811V53.9025H72.3953V49.91H73.6014ZM73.6345 51.7766C74.204 51.7766 74.512 51.5306 74.512 51.0386V51.0169C74.512 50.4753 74.1761 50.2934 73.6345 50.2934H72.8862V51.7766H73.6345Z" fill="black"/>
<path d="M76.6783 50.3058H75.5166V49.91H78.3257V50.3058H77.164V53.9025H76.6783V50.3058Z" fill="black"/>
<path d="M80.0517 52.16L78.7164 49.91H79.2642L80.308 51.7642L81.3137 49.91H81.7994L80.5375 52.1662V53.9025H80.0517V52.16Z" fill="black"/>
<path d="M83.7972 51.9316V51.8861C83.7972 50.7492 84.59 49.8594 85.7609 49.8594C86.9319 49.8594 87.7092 50.7534 87.7092 51.8758V51.9202C87.7092 53.0478 86.933 53.9532 85.7723 53.9532C84.5931 53.9532 83.7952 53.0478 83.7952 51.9316H83.7972ZM87.2079 51.914V51.8696C87.2079 50.9766 86.6829 50.25 85.7609 50.25C84.839 50.25 84.2975 50.9311 84.2975 51.8809V51.9254C84.2975 52.8917 84.9393 53.5511 85.7723 53.5511C86.6601 53.5511 87.2069 52.8804 87.2069 51.914H87.2079Z" fill="black"/>
<path d="M88.4998 49.91H90.8335V50.3058H88.9856V51.7187H90.4263V52.1156H88.9856V53.9025H88.4998V49.91Z" fill="black"/>
<path d="M92.9109 51.9316V51.8861C92.9109 50.7027 93.7037 49.848 94.7878 49.848C95.6147 49.848 96.3237 50.2893 96.4074 51.1554H95.9268C95.8234 50.5467 95.4741 50.2335 94.7899 50.2335C93.9631 50.2335 93.4101 50.8753 93.4101 51.8809V51.9254C93.4101 52.9424 93.9269 53.5563 94.7847 53.5563C95.4379 53.5563 95.8896 53.2266 95.9909 52.5786H96.4425C96.303 53.5005 95.6663 53.9532 94.7734 53.9532C93.6168 53.9532 92.9078 53.1594 92.9078 51.9316H92.9109Z" fill="black"/>
<path d="M98.2274 49.91H98.8641L100.216 53.9025H99.7354L99.3447 52.7522H97.6972L97.3117 53.9025H96.8539L98.2274 49.91ZM99.2165 52.3667L98.523 50.312L97.8306 52.3667H99.2165Z" fill="black"/>
<path d="M100.936 49.91H101.567L103.511 53.2101V49.91H103.974V53.9025H103.416L101.399 50.4795V53.9025H100.936V49.91Z" fill="black"/>
<path d="M106.091 49.91H106.727L108.079 53.9025H107.598L107.208 52.7522H105.56L105.175 53.9025H104.717L106.091 49.91ZM107.079 52.3667L106.386 50.312L105.694 52.3667H107.079Z" fill="black"/>
<path d="M108.821 49.91H109.876C111.251 49.91 111.898 50.7585 111.898 51.8737V51.9244C111.898 53.0302 111.261 53.9067 109.866 53.9067H108.821V49.91ZM109.855 53.5057C110.882 53.5057 111.396 52.8917 111.396 51.914V51.8696C111.396 50.9487 110.949 50.3007 109.845 50.3007H109.304V53.5046L109.855 53.5057Z" fill="black"/>
<path d="M113.607 49.91H114.244L115.595 53.9025H115.113L114.723 52.7522H113.077L112.692 53.9025H112.234L113.607 49.91ZM114.595 52.3667L113.903 50.312L113.211 52.3667H114.595Z" fill="black"/>
<path d="M101.086 39.4641C101.086 34.8246 97.4781 31.4697 93.0784 31.4697C88.5515 31.4697 84.9424 35.0457 84.9424 39.8082C84.9424 39.8868 84.9424 39.9633 84.9424 40.0387C84.9352 43.9517 87.92 47.8285 92.9523 47.8285C96.3722 47.8285 99.0946 45.934 100.379 43.0742H97.1495C96.3226 44.4002 94.8281 45.2023 92.883 45.2023C90.2475 45.2023 88.012 43.068 87.9758 40.972H100.991C101.055 40.314 101.087 39.8127 101.086 39.4682V39.4641ZM93.1497 34.0597C95.7676 34.0597 97.8192 35.9542 98.1179 38.2776H87.9458C87.9458 38.2631 87.9458 38.2424 87.951 38.2125C88.3138 35.9191 90.5576 34.0597 93.1497 34.0597Z" fill="black"/>
<path d="M83.7972 39.4641C83.7972 34.8246 80.1881 31.4697 75.7884 31.4697C71.2615 31.4697 67.6534 35.0457 67.6534 39.8082C67.6534 39.8868 67.6534 39.9633 67.6534 40.0387C67.6452 43.9517 70.6311 47.8285 75.6623 47.8285C79.0833 47.8285 81.8046 45.934 83.0903 43.0742H79.8564C79.0295 44.4002 77.5351 45.2023 75.591 45.2023C72.9544 45.2023 70.7199 43.068 70.6827 40.972H83.699C83.7631 40.314 83.7948 39.8127 83.7941 39.4682L83.7972 39.4641ZM75.8576 34.0597C78.4745 34.0597 80.5271 35.9542 80.8258 38.2776H70.6538C70.6538 38.2631 70.6538 38.2424 70.6538 38.2125C71.0176 35.9191 73.2604 34.0597 75.8535 34.0597H75.8576Z" fill="black"/>
<path d="M8.53223 38.8181C8.53751 38.8261 8.54338 38.8337 8.5498 38.8409C9.19656 39.6757 9.9235 40.4452 10.7202 41.1384C11.1633 40.5041 11.7007 39.9412 12.3139 39.4692C12.4018 39.4021 12.4876 39.3308 12.5785 39.2687C12.5743 39.2643 12.5698 39.2602 12.5651 39.2563C11.8877 38.5756 11.3169 37.7965 10.8721 36.9454C10.1654 37.3697 9.50872 37.8724 8.91464 38.444C8.78648 38.5659 8.65935 38.6889 8.53223 38.8181ZM16.2538 38.2621C16.1256 38.1505 16.0119 38.0306 15.8941 37.9127C15.3319 37.358 14.8787 36.7028 14.5577 35.9811C14.3127 35.9645 14.0669 35.9645 13.8219 35.9811C12.9696 36.0499 12.1393 36.2863 11.3786 36.6766C11.8066 37.5067 12.3649 38.2629 13.0322 38.9163C13.0474 38.9328 13.0629 38.9483 13.0787 38.9628L13.1077 38.9463C14.1371 38.3727 15.2378 38.2197 16.2538 38.2621ZM17.9891 33.1544C17.9792 32.7409 18.0107 32.3275 18.0831 31.9203C18.1889 31.347 18.3531 30.786 18.573 30.246C17.6084 29.7527 16.455 29.3951 15.1127 29.1732C14.8319 30.0932 14.6469 31.0398 14.5608 31.9978C15.5292 32.0585 16.4751 32.3156 17.341 32.7534C17.5664 32.8713 17.783 33.0053 17.9891 33.1544ZM11.1956 41.526C11.8911 42.0724 12.6649 42.5107 13.4911 42.8262C13.8615 42.3635 14.304 41.9636 14.8016 41.6417C15.1837 41.3935 15.5886 41.1824 16.0109 41.0113C15.9179 40.9947 15.8259 40.9782 15.7349 40.9586C14.7529 40.7596 13.833 40.3275 13.0529 39.6987C12.3233 40.1829 11.6929 40.8021 11.1956 41.5229V41.526ZM20.8488 26.6617C19.6808 25.8535 18.4449 25.148 17.155 24.5533C16.3957 25.8322 15.7722 27.1869 15.2946 28.5955C16.6479 28.8228 17.822 29.1853 18.8169 29.6827C19.3545 28.5885 20.038 27.5722 20.8488 26.6617ZM15.8176 46.1335C15.9597 45.4362 16.222 44.7689 16.5928 44.1615C16.7005 43.9666 16.8185 43.7775 16.9462 43.5951C15.9048 43.8418 14.8174 43.8162 13.7888 43.5207L13.7671 43.5538C13.314 44.2723 13.0142 45.0766 12.8865 45.9164C13.8443 46.1535 14.8353 46.2268 15.8176 46.1335ZM12.2385 45.7449C12.3891 44.8822 12.7004 44.0555 13.1563 43.3078C12.343 42.9793 11.5781 42.5419 10.8825 42.0076C10.3716 42.8609 9.96427 43.772 9.66912 44.7217C10.4943 45.1366 11.354 45.4789 12.2385 45.7449ZM25.0987 32.1456C24.6626 30.2935 23.3934 28.5758 21.3201 27.0079C20.5219 27.895 19.8493 28.8875 19.3213 29.9576C20.1228 30.4138 20.8277 31.0219 21.3966 31.7477C23.2735 34.1879 22.4601 37.5582 22.2327 38.3489L22.3299 38.4202C22.5095 38.2259 22.7071 38.0491 22.92 37.8921C23.0857 38.0823 23.2299 38.2903 23.35 38.5122C23.382 38.4998 23.4172 38.4895 23.4534 38.4781C23.5743 38.4357 23.7045 38.3954 23.8513 38.3582L23.875 38.352H23.8947C23.936 38.3406 23.9732 38.3293 24.0187 38.32C24.0902 38.5696 24.1332 38.8265 24.1469 39.0858C24.2616 39.093 24.3825 39.1075 24.5127 39.1282C24.6161 39.1458 24.7194 39.1613 24.8435 39.1892C24.8048 39.4342 24.7397 39.6744 24.6492 39.9054C24.7442 39.9602 24.8445 40.0253 24.9468 40.0976C25.0171 40.1472 25.0853 40.1917 25.1597 40.2496C25.0165 40.4614 24.8505 40.6569 24.6647 40.8325C24.7891 41.007 24.9007 41.1905 24.9985 41.3813L25.0212 41.4237C24.8002 41.5566 24.5652 41.6648 24.3205 41.7461C24.3634 41.9691 24.3886 42.1951 24.3959 42.4221C24.3959 42.4221 24.3608 42.4221 24.3071 42.4314H24.2419C24.3226 42.4954 24.4207 42.5698 24.5293 42.6505C25.0434 43.0301 25.5906 43.3629 26.1643 43.6447C25.9205 43.0941 25.6008 42.5802 25.2145 42.1182C25.6408 42.6217 26.0213 43.1623 26.3514 43.7336C27.3436 44.1935 28.5611 44.5604 29.8654 44.485C32.8306 44.3176 35.8237 42.1079 38.7714 37.9096C37.892 37.2274 36.9748 36.5952 36.0242 36.0162C34.9907 38.661 33.5437 40.4914 31.6978 41.4784C31.0786 41.8064 30.406 42.0216 29.7114 42.1141C27.665 42.4034 25.3096 41.4609 25.2155 41.4257C25.8739 41.6097 28.9125 42.3321 31.4374 40.9761C34.0305 39.5819 35.801 36.3562 36.7084 31.3808C35.48 31.1041 34.2346 30.9087 32.9805 30.7958C33.151 33.6153 32.6125 35.8726 31.3651 37.5396C29.5243 40.0005 25.5607 40.2268 25.4646 40.2268C25.8461 40.1608 26.2233 40.0721 26.5943 39.9612C27.8345 39.5964 29.7104 38.8047 30.9175 37.1882C32.7014 34.7987 32.9226 31.0584 31.5852 26.0705C30.3685 26.3325 29.1701 26.6736 27.9978 27.0917C29.4716 29.692 29.9987 32.0681 29.5564 34.1869C28.9114 37.2689 25.939 38.8378 25.3458 39.1189C26.1803 38.5342 26.925 37.8309 27.5565 37.0311C28.1859 36.2291 28.7605 35.2276 29.0034 34.0628C29.606 31.1596 28.2458 27.6952 24.9623 23.7678C23.7835 24.5966 22.6908 25.5415 21.7005 26.5883C23.8637 28.2348 25.1897 30.0517 25.6527 32.0226C26.2925 34.7553 24.7546 37.1686 24.1138 38.0264V38.0202C24.1138 38.0202 24.0425 38.1174 23.9536 38.2135C24.3198 37.5672 24.6167 36.8841 24.8393 36.1754C25.1959 35.0416 25.4419 33.5998 25.0987 32.1456ZM25.8687 50.433C26.2792 49.6153 26.5556 48.737 26.6873 47.8316L26.6935 47.7706C25.7248 47.322 24.8835 46.6384 24.2461 45.7821C24.2759 46.839 24.0433 47.8869 23.5691 48.832C24.2257 49.5084 25.0065 50.052 25.8687 50.433ZM10.6169 33.0613C10.4525 33.1068 10.2851 33.1564 10.1166 33.2081C10.1166 33.2257 10.1259 33.2432 10.1301 33.2619C10.3612 34.2471 10.6883 35.2074 11.1068 36.1289C11.8599 35.7426 12.6762 35.4944 13.517 35.3961C13.6027 35.3868 13.6885 35.3713 13.7753 35.3651C13.9595 35.3553 14.1441 35.3553 14.3283 35.3651C14.3138 35.3196 14.2973 35.2752 14.2838 35.2287C14.2704 35.1822 14.2477 35.1315 14.2332 35.0788C14.0245 34.2657 13.932 33.4271 13.9583 32.588C12.8278 32.5887 11.703 32.748 10.6169 33.0613ZM19.8742 48.3483C19.899 48.4372 19.9187 48.5271 19.9476 48.617C20.2261 49.4338 20.6486 50.1941 21.1951 50.8619C21.8111 50.3413 22.348 49.7338 22.7888 49.0584C22.8208 49.0088 22.8508 48.955 22.8818 48.9064C22.2595 48.132 21.826 47.2233 21.6157 46.2523C21.1964 47.0706 20.6018 47.7862 19.8742 48.3483ZM19.098 45.3821C18.2869 46.0264 17.3277 46.458 16.3075 46.6378C16.307 46.6437 16.307 46.6496 16.3075 46.6554C16.2126 47.5312 16.2784 48.417 16.5018 49.2692C17.4296 49.0601 18.3164 48.6987 19.1259 48.1995L19.1921 48.1551L19.2417 48.122C19.0587 47.1454 19.0975 46.1401 19.3554 45.1806C19.2693 45.2501 19.1835 45.3173 19.098 45.3821ZM26.3679 44.1636C25.5585 43.7 24.8234 43.1175 24.1872 42.4355C24.0071 42.4426 23.8268 42.4364 23.6477 42.4169C23.5917 42.6352 23.5195 42.8491 23.4316 43.0566C23.2303 42.9874 23.0358 42.8995 22.8508 42.7941C22.8136 42.7735 22.7774 42.7518 22.7402 42.729L22.7288 42.7414C22.588 42.9092 22.4349 43.0664 22.271 43.2117C22.0854 43.0325 21.9203 42.8332 21.779 42.6174C21.6953 42.6577 21.6023 42.6959 21.5051 42.7342C21.408 42.7724 21.2778 42.8189 21.1496 42.8572C21.0548 42.6106 20.9886 42.354 20.9522 42.0924C20.8251 42.0924 20.6866 42.0872 20.5388 42.0738C20.452 42.0665 20.3703 42.0624 20.2752 42.0489C20.2935 41.7968 20.3389 41.5473 20.4106 41.3048C20.2211 41.2171 20.0377 41.1166 19.8618 41.004L19.8453 40.9927C19.9644 40.7774 20.1061 40.5754 20.268 40.3901C20.1599 40.2611 20.0595 40.1258 19.9672 39.985C19.9373 39.9416 19.9094 39.8992 19.8804 39.8517C20.0853 39.7032 20.3057 39.5774 20.5378 39.4765C20.4767 39.2594 20.4324 39.0379 20.4055 38.814C20.7095 38.7562 21.0199 38.7395 21.3284 38.7644C21.4092 38.5049 21.5151 38.254 21.6447 38.0151C21.8482 38.1055 22.0424 38.2156 22.2245 38.3437C22.3351 37.5365 22.6224 34.3512 20.9088 32.127C20.403 31.4824 19.7811 30.9381 19.0753 30.522C18.8797 31.0055 18.7336 31.5076 18.6392 32.0206C18.5476 32.5323 18.5002 33.051 18.4976 33.5709C20.2639 35.1863 20.8747 38.3107 20.8943 38.4285C20.7352 37.8972 20.0448 35.8891 18.5389 34.3977C18.653 35.6294 19.1099 36.8045 19.8577 37.7898C18.9037 36.5433 18.2722 35.2824 18.0624 33.9657C17.7521 33.711 17.4165 33.4886 17.0609 33.3022C16.2703 32.9049 15.4085 32.6691 14.5257 32.6087C14.4997 33.3905 14.585 34.1721 14.7789 34.93C14.8223 35.0933 14.8823 35.2535 14.9288 35.4147C17.462 35.793 19.7729 38.3975 19.7192 38.3344C19.2665 37.9303 17.4206 36.411 15.1613 36.0472C15.3331 36.4663 15.5406 36.8698 15.7814 37.2534C15.9188 37.4733 16.0682 37.6855 16.229 37.889C16.3323 38.0192 16.4357 38.1505 16.5504 38.2745C16.6279 38.2807 16.7033 38.29 16.7798 38.2983C18.1482 38.4461 19.6593 39.0848 19.7492 39.1251C18.9541 38.8965 18.136 38.7578 17.31 38.7117C17.1994 38.7117 17.0868 38.7034 16.9721 38.7003L18.3229 39.6481C17.7906 39.3722 17.2811 39.0542 16.7995 38.6972C15.7659 38.6972 14.6208 38.8646 13.5748 39.4C14.3085 40.0069 15.1461 40.4758 16.0471 40.7839C16.1504 40.818 16.2538 40.8511 16.3571 40.88C17.6242 40.4232 19.2644 40.3054 19.3626 40.2971C18.5497 40.4514 17.7561 40.694 16.9958 41.0206C17.3953 41.0912 17.8006 41.123 18.2061 41.1157C17.7359 41.1447 17.2642 41.1426 16.7943 41.1095C15.8703 41.5322 14.8874 42.1502 14.1485 43.038C15.1274 43.3171 16.1507 43.4066 17.1633 43.3016L17.2015 43.2964C17.8521 42.5072 18.6301 41.8324 19.5032 41.2996C18.8358 41.8608 18.2407 42.5027 17.7317 43.2106C18.4171 43.0727 19.0754 42.8242 19.681 42.4748C19.0185 42.8647 18.3157 43.1818 17.5849 43.4204C17.032 44.2135 16.6336 45.1038 16.4109 46.0446C17.3941 45.8782 18.337 45.5275 19.19 45.0111C19.2748 44.9594 19.3616 44.9139 19.4432 44.8571C19.7936 43.6881 20.5419 42.4965 20.5894 42.4169C20.2762 43.0938 20.0354 43.8019 19.8711 44.5294C20.3416 44.1531 20.7567 43.7122 21.1041 43.2199C20.7238 43.7708 20.2938 44.2856 19.8194 44.7578C19.6067 45.7483 19.5822 46.77 19.7471 47.7695C20.4476 47.2476 21.0555 46.6118 21.5454 45.8885C21.5392 45.8492 21.532 45.81 21.5248 45.7717C21.4948 45.6105 21.4772 45.442 21.4576 45.2725C21.348 44.239 21.5 43.0205 21.5103 42.9275C21.512 43.7737 21.6161 44.6167 21.8204 45.4379C22.108 44.9287 22.3243 44.3823 22.4632 43.8142C22.3328 44.458 22.1404 45.0876 21.8886 45.6942C22.1415 46.6664 22.5829 47.5794 23.1877 48.3814C23.6642 47.4947 23.9603 46.5224 24.059 45.5206C23.4963 44.7128 23.0671 43.8198 22.7878 42.8758C22.8436 42.9988 22.9428 43.2034 23.0864 43.4628C23.3756 43.9915 23.7092 44.4946 24.0838 44.9666C24.0865 44.5474 24.0485 44.1289 23.9701 43.7171C24.0805 44.1777 24.1603 44.6452 24.2089 45.1165C24.8424 45.8834 25.6858 46.6606 26.7493 47.1732C26.8227 46.1548 26.6938 45.1319 26.37 44.1636H26.3679ZM19.5466 49.1648C19.497 49.0398 19.4432 48.9137 19.404 48.7865C19.3936 48.7576 19.3895 48.7287 19.3802 48.6997L19.3575 48.7121C18.5186 49.2235 17.6034 49.5975 16.6465 49.8201C17.0005 50.8776 17.4941 51.8831 18.1141 52.8101C19.0505 52.3783 19.9371 51.8457 20.7579 51.2215C20.2537 50.601 19.8467 49.9075 19.5507 49.1648H19.5466ZM23.2766 49.3385C23.2721 49.3471 23.2669 49.3554 23.2611 49.3633C22.7907 50.0865 22.218 50.7378 21.561 51.297C22.2738 52.0585 23.0814 52.7254 23.9639 53.2814C24.5876 52.5538 25.1387 51.767 25.6093 50.9322C24.7439 50.5446 23.9552 50.0048 23.2808 49.3385H23.2766ZM21.1258 51.6567C20.2917 52.2973 19.3907 52.8459 18.4386 53.2927C19.1784 54.3364 20.0003 55.3193 20.8964 56.2321C21.8637 55.4694 22.7647 54.6261 23.5898 53.7113C22.6863 53.1331 21.8598 52.4427 21.13 51.6567H21.1258ZM24.46 53.5925C25.6881 54.3119 26.9779 54.9203 28.3141 55.4105C28.7879 54.2861 29.1897 53.1328 29.5171 51.9574C28.3606 51.8382 27.2245 51.5689 26.1374 51.1564C25.6617 52.0218 25.1011 52.8378 24.4641 53.5925H24.46ZM29.8892 45.0586C28.7643 45.1059 27.6473 44.8511 26.6542 44.3207C27.1227 45.2802 27.3424 46.3422 27.2929 47.4088C30.0318 48.4186 33.6233 47.6621 37.9817 45.1547C37.4159 44.0554 36.7796 42.9939 36.0769 41.9766C34.0316 43.9041 31.9614 44.9377 29.8892 45.0586ZM27.2351 47.9835C27.0933 48.9105 26.8107 49.8105 26.3969 50.6521C28.395 51.4217 30.9995 51.6763 34.2104 51.4159C34.1632 50.1686 34.0352 48.9258 33.8269 47.6951C31.2999 48.5313 29.0975 48.6263 27.2351 47.9835ZM10.3978 41.6283C9.57321 40.9314 8.81797 40.1565 8.14259 39.3142C7.33334 40.2791 6.60727 41.3108 5.97217 42.3983C6.96424 43.1678 8.01942 43.8524 9.12651 44.4447C9.4372 43.4588 9.86394 42.5134 10.3978 41.6283ZM13.1304 50.2066C13.453 51.5466 13.8901 52.8564 14.4368 54.1216C15.5155 53.8437 16.5711 53.483 17.5943 53.0426C16.9592 52.0804 16.4556 51.0376 16.0967 49.942C15.1188 50.1254 14.1253 50.2127 13.1304 50.2025V50.2066ZM9.98641 32.6221C11.4444 32.1756 12.778 31.9589 13.9872 31.972C14.0697 30.9947 14.2522 30.0285 14.5319 29.0884C12.8801 28.8941 11.2142 28.8492 9.55439 28.9541C9.55439 29.0512 9.5544 29.1918 9.5699 29.3582C9.62649 30.4551 9.76573 31.5461 9.98641 32.6221ZM10.5983 36.4017C10.169 35.4723 9.83185 34.503 9.5916 33.5078C8.45124 34.0397 7.35798 34.6672 6.32357 35.3837C6.86283 36.4144 7.47919 37.4028 8.16739 38.3406C8.89021 37.5917 9.70735 36.9399 10.5983 36.4017ZM15.9416 49.386C15.717 48.5137 15.6446 47.6092 15.7277 46.7122C14.7495 46.7874 13.7656 46.7104 12.8111 46.4838C12.7333 47.5346 12.8029 48.5911 13.0178 49.6227C13.9978 49.6394 14.9771 49.5601 15.9416 49.386ZM12.1475 46.3133C11.2351 46.0497 10.3468 45.7088 9.49238 45.2942C9.14377 46.5493 8.89528 47.8301 8.74927 49.1245C9.90277 49.3767 11.0749 49.5347 12.254 49.5968C12.0693 48.5123 12.0335 47.4076 12.1475 46.3133Z" fill="black"/>
</svg>
