<svg width="80" height="80" viewBox="0 0 80 80" fill="none" xmlns="http://www.w3.org/2000/svg">
<path d="M37.2023 37.0603C36.4086 36.1645 35.3845 35.7338 34.0435 35.7338C31.3977 35.7338 29.293 37.8128 29.293 40.4114C29.293 42.9924 31.4464 45.1609 33.9882 45.1609C35.2233 45.1609 36.2131 44.6946 37.0766 43.7092V44.3195C37.0766 46.1112 35.8235 47.33 33.9702 47.33C32.8938 47.33 32.082 46.9181 31.4446 46.0398H29.5955C29.9311 46.7923 30.1072 47.0433 30.6545 47.5629C31.5901 48.4588 32.5961 48.8713 33.8848 48.8713C36.7435 48.8713 38.7856 47.0076 38.7856 44.3347V35.8058H37.2023V37.0603ZM37.079 40.4834C36.9906 42.2932 35.6846 43.6372 33.9906 43.6372C32.3135 43.6372 30.9371 42.2037 30.9371 40.4477C30.9371 38.6917 32.3135 37.2575 34.0081 37.2575C35.72 37.2575 37.0965 38.6197 37.0965 40.3219C37.0965 40.3757 37.079 40.4295 37.079 40.4834Z" fill="#3D9B35"/>
<path d="M68.294 35.7338C67.1515 35.7338 66.2453 36.1282 65.6572 36.917V35.7979H64.0336V44.9281H65.7997V40.0533C65.7997 38.3149 66.6548 37.2575 68.098 37.2575C68.8995 37.2575 69.5947 37.5981 69.9507 38.1715C70.2183 38.5834 70.3253 39.175 70.3253 40.0533V44.9281H72V39.4236C72 37.2188 70.5033 35.7338 68.294 35.7338Z" fill="#3D9B35"/>
<path d="M43.9991 35.6104L43.8145 35.6177C42.8332 35.6564 42.0707 36.0689 41.4754 36.8637V35.8106H39.9185V44.9281H41.6227V40.0351C41.6227 38.16 42.2841 37.5811 43.7736 37.4462C43.8993 37.439 43.9991 37.439 43.9991 37.439V35.6104Z" fill="#3D9B35"/>
<path d="M42.6882 46.2999H43.3497C43.7953 46.2999 44.1621 46.4959 44.1621 46.9828V46.9961C44.1621 47.4928 43.7917 47.6857 43.3497 47.6857H42.9733V48.6366H42.69V46.2999H42.6882ZM43.3677 47.4601C43.6991 47.4601 43.8777 47.2968 43.8777 46.9961V46.9828C43.8777 46.6526 43.6828 46.5286 43.3677 46.5286H42.9715V47.4601H43.3677Z" fill="#3D9B35"/>
<path d="M45.4309 46.2999L46.2174 48.6366H45.9378L45.7105 47.9634H44.752L44.5277 48.6366H44.2601L45.0593 46.2999H45.4309ZM45.6353 47.7377L45.2325 46.5352L44.8296 47.7377H45.6353Z" fill="#3D9B35"/>
<path d="M47.3479 46.2999C47.7929 46.2999 48.1603 46.4814 48.1603 46.9502V46.9629C48.1603 47.3488 47.9036 47.5387 47.5849 47.6004L48.2968 48.6366H47.9811L47.2896 47.6204H46.9288V48.6366H46.6462V46.2999H47.3479ZM47.3672 47.3923C47.6985 47.3923 47.8777 47.2484 47.8777 46.9605V46.9478C47.8777 46.6308 47.6823 46.5243 47.3672 46.5243H46.9318V47.3923H47.3672Z" fill="#3D9B35"/>
<path d="M49.1381 46.5316H48.4622V46.2999H50.0966V46.5316H49.4207V48.6366H49.1381V46.5316Z" fill="#3D9B35"/>
<path d="M51.1008 47.6168L50.3239 46.2999H50.6426L51.25 47.3851L51.835 46.2999H52.1177L51.3834 47.6204V48.6366H51.1008V47.6168Z" fill="#3D9B35"/>
<path d="M53.28 47.4831V47.4565C53.28 46.7911 53.7413 46.2703 54.4226 46.2703C55.1039 46.2703 55.5561 46.7935 55.5561 47.4504V47.4764C55.5561 48.1364 55.1045 48.6662 54.4292 48.6662C53.7431 48.6662 53.2788 48.1364 53.2788 47.4831H53.28ZM55.2644 47.4728V47.4468C55.2644 46.9242 54.9589 46.4989 54.4226 46.4989C53.8862 46.4989 53.5711 46.8976 53.5711 47.4534V47.4795C53.5711 48.045 53.9445 48.4309 54.4292 48.4309C54.9457 48.4309 55.2638 48.0384 55.2638 47.4728H55.2644Z" fill="#3D9B35"/>
<path d="M56.0161 46.2999H57.3739V46.5316H56.2987V47.3585H57.137V47.5907H56.2987V48.6366H56.0161V46.2999Z" fill="#3D9B35"/>
<path d="M58.5826 47.4831V47.4565C58.5826 46.7639 59.0438 46.2636 59.6746 46.2636C60.1556 46.2636 60.5681 46.5219 60.6168 47.0288H60.3372C60.2771 46.6725 60.0738 46.4893 59.6758 46.4893C59.1947 46.4893 58.873 46.8649 58.873 47.4534V47.4795C58.873 48.0747 59.1737 48.434 59.6728 48.434C60.0528 48.434 60.3156 48.241 60.3745 47.8617H60.6373C60.5561 48.4013 60.1857 48.6662 59.6661 48.6662C58.9933 48.6662 58.5808 48.2017 58.5808 47.4831H58.5826Z" fill="#3D9B35"/>
<path d="M61.6758 46.2999H62.0462L62.8327 48.6366H62.5531L62.3258 47.9634H61.3673L61.143 48.6366H60.8766L61.6758 46.2999ZM62.2513 47.7377L61.8478 46.5352L61.4449 47.7377H62.2513Z" fill="#3D9B35"/>
<path d="M63.2519 46.2999H63.6187L64.7498 48.2313V46.2999H65.0192V48.6366H64.6945L63.5213 46.6332V48.6366H63.2519V46.2999Z" fill="#3D9B35"/>
<path d="M66.2507 46.2999H66.6211L67.4077 48.6366H67.128L66.9007 47.9634H65.9422L65.7179 48.6366H65.4515L66.2507 46.2999ZM66.8256 47.7377L66.4227 46.5352L66.0198 47.7377H66.8256Z" fill="#3D9B35"/>
<path d="M67.8394 46.2999H68.4534C69.2531 46.2999 69.6296 46.7965 69.6296 47.4492V47.4788C69.6296 48.1261 69.2591 48.639 68.4473 48.639H67.8394V46.2999ZM68.4407 48.4043C69.0385 48.4043 69.3373 48.045 69.3373 47.4728V47.4468C69.3373 46.9078 69.0775 46.5286 68.4353 46.5286H68.1202V48.4037L68.4407 48.4043Z" fill="#3D9B35"/>
<path d="M70.6242 46.2999H70.9946L71.7805 48.6366H71.5003L71.273 47.9634H70.3157L70.0914 48.6366H69.825L70.6242 46.2999ZM71.199 47.7377L70.7961 46.5352L70.3932 47.7377H71.199Z" fill="#3D9B35"/>
<path d="M63.3391 40.1864C63.3391 37.471 61.2398 35.5076 58.68 35.5076C56.0461 35.5076 53.9463 37.6005 53.9463 40.3878C53.9463 40.4338 53.9463 40.4785 53.9463 40.5227C53.9421 42.8128 55.6787 45.0817 58.6066 45.0817C60.5964 45.0817 62.1803 43.9729 62.9278 42.2992H61.0486C60.5675 43.0753 59.698 43.5447 58.5663 43.5447C57.0329 43.5447 55.7323 42.2956 55.7112 41.0689H63.2837C63.321 40.6838 63.3395 40.3904 63.3391 40.1888V40.1864ZM58.7215 37.0234C60.2446 37.0234 61.4383 38.1322 61.612 39.492H55.6938C55.6938 39.4835 55.6938 39.4714 55.6968 39.4539C55.9078 38.1116 57.2133 37.0234 58.7215 37.0234Z" fill="#3D9B35"/>
<path d="M53.28 40.1864C53.28 37.471 51.1802 35.5076 48.6203 35.5076C45.9865 35.5076 43.8873 37.6005 43.8873 40.3878C43.8873 40.4338 43.8873 40.4785 43.8873 40.5227C43.8825 42.8128 45.6197 45.0817 48.547 45.0817C50.5374 45.0817 52.1207 43.9729 52.8687 42.2992H50.9872C50.5061 43.0753 49.6366 43.5447 48.5055 43.5447C46.9715 43.5447 45.6714 42.2956 45.6498 41.0689H53.2229C53.2602 40.6838 53.2786 40.3904 53.2782 40.1888L53.28 40.1864ZM48.6606 37.0234C50.1832 37.0234 51.3774 38.1322 51.5512 39.492H45.6329C45.6329 39.4835 45.6329 39.4714 45.6329 39.4539C45.8446 38.1116 47.1495 37.0234 48.6582 37.0234H48.6606Z" fill="#3D9B35"/>
<path d="M9.48949 39.8083C9.49256 39.813 9.49598 39.8175 9.49971 39.8216C9.87601 40.3102 10.299 40.7606 10.7625 41.1663C11.0203 40.795 11.333 40.4656 11.6898 40.1894C11.7409 40.1501 11.7908 40.1083 11.8437 40.072C11.8412 40.0695 11.8386 40.067 11.8359 40.0648C11.4417 39.6664 11.1097 39.2104 10.8509 38.7123C10.4397 38.9606 10.0576 39.2548 9.71198 39.5893C9.63742 39.6607 9.56345 39.7327 9.48949 39.8083ZM13.982 39.4829C13.9075 39.4176 13.8413 39.3474 13.7728 39.2784C13.4457 38.9537 13.182 38.5703 12.9952 38.1479C12.8527 38.1382 12.7096 38.1382 12.5671 38.1479C12.0712 38.1882 11.5881 38.3265 11.1455 38.555C11.3946 39.0408 11.7194 39.4834 12.1077 39.8658C12.1165 39.8755 12.1255 39.8845 12.1347 39.893L12.1516 39.8833C12.7505 39.5476 13.3909 39.4581 13.982 39.4829ZM14.9916 36.4936C14.9859 36.2516 15.0042 36.0096 15.0464 35.7713C15.1079 35.4358 15.2034 35.1074 15.3314 34.7914C14.7702 34.5027 14.0991 34.2934 13.3181 34.1635C13.1547 34.702 13.0471 35.256 12.997 35.8167C13.5605 35.8522 14.1108 36.0027 14.6146 36.2589C14.7457 36.3279 14.8717 36.4063 14.9916 36.4936ZM11.0391 41.3931C11.4437 41.7129 11.894 41.9694 12.3747 42.1541C12.5902 41.8833 12.8476 41.6492 13.1371 41.4609C13.3594 41.3156 13.595 41.192 13.8407 41.0919C13.7866 41.0822 13.7331 41.0725 13.6801 41.061C13.1088 40.9446 12.5736 40.6917 12.1197 40.3237C11.6952 40.6071 11.3284 40.9694 11.0391 41.3913V41.3931ZM16.6555 32.6937C15.9759 32.2206 15.2569 31.8078 14.5064 31.4597C14.0646 32.2082 13.7018 33.0011 13.424 33.8254C14.2113 33.9585 14.8944 34.1706 15.4733 34.4617C15.7861 33.8213 16.1838 33.2265 16.6555 32.6937ZM13.7283 44.0897C13.8109 43.6816 13.9635 43.291 14.1793 42.9356C14.2419 42.8215 14.3106 42.7108 14.3849 42.6041C13.779 42.7485 13.1463 42.7335 12.5478 42.5605L12.5352 42.5799C12.2716 43.0004 12.0972 43.4712 12.0229 43.9627C12.5802 44.1014 13.1567 44.1443 13.7283 44.0897ZM11.6459 43.8622C11.7335 43.3574 11.9146 42.8735 12.1798 42.4359C11.7066 42.2437 11.2616 41.9877 10.8569 41.675C10.5597 42.1744 10.3227 42.7076 10.151 43.2634C10.6311 43.5062 11.1312 43.7066 11.6459 43.8622ZM19.1282 35.9032C18.8744 34.8192 18.136 33.8139 16.9297 32.8963C16.4653 33.4154 16.074 33.9963 15.7668 34.6226C16.2331 34.8896 16.6432 35.2455 16.9742 35.6703C18.0662 37.0984 17.593 39.071 17.4607 39.5337L17.5172 39.5754C17.6217 39.4617 17.7367 39.3582 17.8606 39.2663C17.957 39.3777 18.0409 39.4994 18.1107 39.6293C18.1294 39.622 18.1498 39.616 18.1709 39.6093C18.2412 39.5845 18.317 39.5609 18.4024 39.5391L18.4162 39.5355H18.4276C18.4517 39.5289 18.4733 39.5222 18.4998 39.5168C18.5414 39.6629 18.5664 39.8132 18.5744 39.965C18.6411 39.9692 18.7115 39.9777 18.7872 39.9898C18.8474 40.0001 18.9075 40.0091 18.9797 40.0255C18.9572 40.1689 18.9193 40.3095 18.8666 40.4447C18.9219 40.4767 18.9803 40.5148 19.0398 40.5572C19.0807 40.5862 19.1204 40.6122 19.1637 40.6461C19.0804 40.7701 18.9838 40.8845 18.8756 40.9872C18.9481 41.0894 19.013 41.1968 19.0699 41.3084L19.0831 41.3332C18.9545 41.4111 18.8178 41.4743 18.6754 41.522C18.7003 41.6524 18.715 41.7847 18.7193 41.9175C18.7193 41.9175 18.6988 41.9175 18.6676 41.923H18.6297C18.6766 41.9605 18.7337 42.004 18.7969 42.0512C19.096 42.2734 19.4144 42.4682 19.7482 42.6331C19.6063 42.3108 19.4203 42.0101 19.1955 41.7397C19.4436 42.0344 19.6649 42.3508 19.857 42.6851C20.4343 42.9543 21.1426 43.169 21.9015 43.1249C23.6267 43.0269 25.3682 41.7337 27.0832 39.2766C26.5715 38.8773 26.0379 38.5073 25.4848 38.1685C24.8835 39.7164 24.0416 40.7876 22.9677 41.3653C22.6074 41.5572 22.216 41.6832 21.8119 41.7373C20.6213 41.9067 19.2509 41.355 19.1961 41.3344C19.5792 41.4421 21.3471 41.8649 22.8161 41.0713C24.3249 40.2553 25.3549 38.3675 25.8829 35.4556C25.1682 35.2936 24.4436 35.1792 23.7139 35.1132C23.8131 36.7633 23.4998 38.0844 22.774 39.0601C21.7031 40.5003 19.397 40.6328 19.3411 40.6328C19.563 40.5941 19.7825 40.5422 19.9983 40.4773C20.7199 40.2638 21.8113 39.8005 22.5137 38.8544C23.5516 37.4559 23.6802 35.2668 22.9021 32.3477C22.1942 32.501 21.497 32.7007 20.8149 32.9453C21.6724 34.4672 21.9791 35.8578 21.7217 37.0978C21.3465 38.9016 19.6171 39.8198 19.2719 39.9843C19.7574 39.6421 20.1908 39.2305 20.5581 38.7625C20.9244 38.2931 21.2587 37.707 21.4 37.0252C21.7506 35.3261 20.9592 33.2986 19.0488 31C18.363 31.4851 17.7272 32.0381 17.151 32.6507C18.4096 33.6143 19.1811 34.6777 19.4505 35.8312C19.8227 37.4305 18.9279 38.8429 18.5551 39.345V39.3413C18.5551 39.3413 18.5136 39.3982 18.4619 39.4545C18.675 39.0762 18.8477 38.6764 18.9773 38.2616C19.1847 37.5981 19.3278 36.7543 19.1282 35.9032ZM19.5762 46.606C19.815 46.1275 19.9758 45.6134 20.0524 45.0835L20.056 45.0478C19.4924 44.7853 19.003 44.3852 18.6321 43.884C18.6494 44.5026 18.5141 45.1159 18.2382 45.669C18.6202 46.0649 19.0745 46.383 19.5762 46.606ZM10.7024 36.4391C10.6068 36.4657 10.5093 36.4948 10.4113 36.525C10.4113 36.5353 10.4167 36.5456 10.4191 36.5565C10.5536 37.1331 10.7439 37.6951 10.9874 38.2344C11.4256 38.0083 11.9005 37.8631 12.3897 37.8055C12.4396 37.8001 12.4895 37.791 12.54 37.7874C12.6472 37.7817 12.7546 37.7817 12.8617 37.7874C12.8533 37.7608 12.8437 37.7348 12.8359 37.7076C12.8281 37.6803 12.8148 37.6507 12.8064 37.6198C12.685 37.1439 12.6312 36.6532 12.6465 36.1621C11.9887 36.1625 11.3343 36.2558 10.7024 36.4391ZM16.0885 45.3859C16.1029 45.438 16.1143 45.4906 16.1312 45.5432C16.2932 46.0212 16.539 46.4662 16.857 46.857C17.2154 46.5524 17.5278 46.1968 17.7842 45.8015C17.8029 45.7725 17.8203 45.741 17.8383 45.7126C17.4762 45.2594 17.224 44.7275 17.1017 44.1592C16.8578 44.6381 16.5118 45.057 16.0885 45.3859ZM15.6369 43.6499C15.1649 44.027 14.6068 44.2796 14.0133 44.3849C14.013 44.3883 14.013 44.3917 14.0133 44.3951C13.9581 44.9077 13.9964 45.4262 14.1263 45.9249C14.6662 45.8025 15.1821 45.591 15.6531 45.2988L15.6916 45.2728L15.7205 45.2535C15.614 44.6819 15.6366 44.0936 15.7866 43.532C15.7365 43.5727 15.6866 43.612 15.6369 43.6499ZM19.8666 42.9368C19.3957 42.6655 18.968 42.3246 18.5978 41.9254C18.4931 41.9296 18.3881 41.9259 18.2839 41.9145C18.2513 42.0423 18.2093 42.1675 18.1582 42.2889C18.0411 42.2484 17.9279 42.197 17.8203 42.1353C17.7986 42.1232 17.7776 42.1105 17.756 42.0972L17.7493 42.1045C17.6674 42.2026 17.5783 42.2946 17.483 42.3797C17.3749 42.2748 17.2789 42.1582 17.1967 42.0319C17.148 42.0555 17.0939 42.0778 17.0374 42.1002C16.9808 42.1226 16.9051 42.1498 16.8305 42.1722C16.7754 42.0279 16.7368 41.8777 16.7157 41.7246C16.6417 41.7246 16.5611 41.7216 16.4751 41.7137C16.4246 41.7095 16.3771 41.707 16.3218 41.6992C16.3324 41.5516 16.3588 41.4056 16.4006 41.2637C16.2903 41.2123 16.1836 41.1535 16.0813 41.0876L16.0716 41.081C16.141 40.955 16.2234 40.8368 16.3176 40.7283C16.2547 40.6528 16.1963 40.5736 16.1426 40.4912C16.1252 40.4658 16.1089 40.441 16.0921 40.4132C16.2113 40.3263 16.3395 40.2527 16.4745 40.1936C16.439 40.0666 16.4132 39.9369 16.3976 39.8059C16.5744 39.7721 16.7551 39.7623 16.9345 39.7769C16.9816 39.625 17.0432 39.4781 17.1185 39.3383C17.2369 39.3913 17.3499 39.4557 17.4559 39.5307C17.5202 39.0583 17.6874 37.194 16.6904 35.8923C16.3961 35.515 16.0343 35.1964 15.6236 34.9529C15.5099 35.2359 15.4248 35.5298 15.3699 35.83C15.3166 36.1295 15.289 36.4331 15.2875 36.7373C16.3152 37.6828 16.6706 39.5113 16.682 39.5803C16.5894 39.2694 16.1877 38.0941 15.3116 37.2212C15.3779 37.9421 15.6437 38.6298 16.0788 39.2065C15.5238 38.477 15.1564 37.739 15.0343 36.9684C14.8538 36.8193 14.6585 36.6892 14.4517 36.5801C13.9917 36.3475 13.4902 36.2096 12.9766 36.1742C12.9615 36.6318 13.0111 37.0892 13.1239 37.5327C13.1492 37.6283 13.1841 37.7221 13.2111 37.8164C14.685 38.0378 16.0295 39.5621 15.9983 39.5252C15.7349 39.2887 14.6609 38.3995 13.3464 38.1866C13.4463 38.4319 13.5671 38.6681 13.7072 38.8925C13.7871 39.0212 13.8741 39.1454 13.9676 39.2645C14.0277 39.3407 14.0879 39.4176 14.1546 39.4901C14.1997 39.4938 14.2436 39.4992 14.2881 39.5041C15.0843 39.5906 15.9634 39.9644 16.0157 39.988C15.5531 39.8542 15.0771 39.773 14.5966 39.746C14.5322 39.746 14.4667 39.7412 14.3999 39.7394L15.1859 40.294C14.8762 40.1326 14.5798 39.9465 14.2995 39.7375C13.6982 39.7375 13.0319 39.8355 12.4234 40.1489C12.8502 40.5041 13.3376 40.7785 13.8618 40.9588C13.9219 40.9788 13.982 40.9981 14.0421 41.0151C14.7794 40.7477 15.7337 40.6787 15.7908 40.6739C15.3178 40.7642 14.8561 40.9062 14.4138 41.0973C14.6462 41.1386 14.882 41.1573 15.1179 41.153C14.8443 41.17 14.5699 41.1687 14.2965 41.1493C13.7589 41.3967 13.1871 41.7585 12.7571 42.2781C13.3267 42.4414 13.9221 42.4938 14.5112 42.4323L14.5334 42.4293C14.912 41.9674 15.3646 41.5724 15.8726 41.2606C15.4843 41.5891 15.1381 41.9647 14.8419 42.3791C15.2407 42.2983 15.6237 42.1529 15.976 41.9484C15.5906 42.1766 15.1817 42.3622 14.7565 42.5019C14.4348 42.966 14.203 43.4871 14.0734 44.0377C14.6455 43.9403 15.1941 43.735 15.6904 43.4328C15.7397 43.4025 15.7902 43.3759 15.8377 43.3427C16.0416 42.6585 16.4769 41.9611 16.5046 41.9145C16.3224 42.3107 16.1823 42.7251 16.0867 43.1509C16.3604 42.9306 16.6019 42.6726 16.8041 42.3845C16.5828 42.7069 16.3326 43.0082 16.0566 43.2846C15.9328 43.8643 15.9185 44.4622 16.0145 45.0472C16.4221 44.7417 16.7758 44.3696 17.0608 43.9463C17.0572 43.9233 17.053 43.9004 17.0488 43.878C17.0314 43.7836 17.0211 43.685 17.0097 43.5858C16.946 42.9809 17.0344 42.2678 17.0404 42.2133C17.0413 42.7086 17.1019 43.202 17.2208 43.6826C17.3881 43.3846 17.514 43.0648 17.5948 42.7323C17.5189 43.1091 17.407 43.4776 17.2605 43.8326C17.4076 44.4016 17.6644 44.9359 18.0163 45.4053C18.2935 44.8863 18.4658 44.3173 18.5232 43.731C18.1959 43.2582 17.9461 42.7356 17.7836 42.1831C17.8161 42.2551 17.8738 42.3748 17.9574 42.5267C18.1256 42.8361 18.3197 43.1305 18.5377 43.4068C18.5393 43.1614 18.5171 42.9165 18.4715 42.6755C18.5358 42.9451 18.5822 43.2187 18.6104 43.4945C18.9791 43.9433 19.4697 44.3982 20.0885 44.6982C20.1312 44.1022 20.0562 43.5035 19.8678 42.9368H19.8666ZM15.8978 45.8638C15.869 45.7906 15.8377 45.7168 15.8149 45.6424C15.8089 45.6255 15.8064 45.6085 15.801 45.5916L15.7878 45.5989C15.2997 45.8982 14.7673 46.1171 14.2105 46.2473C14.4165 46.8662 14.7037 47.4547 15.0644 47.9972C15.6092 47.7445 16.125 47.4328 16.6026 47.0675C16.3093 46.7044 16.0725 46.2985 15.9003 45.8638H15.8978ZM18.068 45.9654C18.0654 45.9705 18.0624 45.9753 18.059 45.9799C17.7853 46.4032 17.4521 46.7844 17.0698 47.1117C17.4846 47.5574 17.9544 47.9477 18.4679 48.2731C18.8308 47.8472 19.1514 47.3867 19.4252 46.8982C18.9218 46.6714 18.4629 46.3554 18.0704 45.9654H18.068ZM16.8167 47.3222C16.3314 47.6971 15.8072 48.0182 15.2532 48.2797C15.6836 48.8905 16.1618 49.4657 16.6832 50C17.246 49.5536 17.7702 49.0601 18.2502 48.5247C17.7246 48.1863 17.2437 47.7822 16.8191 47.3222H16.8167ZM18.7566 48.4551C19.4711 48.8762 20.2215 49.2322 20.9989 49.5191C21.2746 48.8611 21.5084 48.1861 21.6989 47.4982C21.026 47.4284 20.365 47.2708 19.7325 47.0294C19.4557 47.5359 19.1296 48.0135 18.759 48.4551H18.7566ZM21.9153 43.4606C21.2609 43.4883 20.611 43.3391 20.0332 43.0287C20.3058 43.5903 20.4336 44.2118 20.4048 44.8361C21.9983 45.4271 24.0879 44.9843 26.6237 43.5169C26.2945 42.8735 25.9243 42.2522 25.5155 41.6568C24.3255 42.7849 23.121 43.3898 21.9153 43.4606ZM20.3711 45.1724C20.2887 45.715 20.1242 46.2417 19.8835 46.7342C21.046 47.1847 22.5614 47.3337 24.4295 47.1812C24.4021 46.4513 24.3276 45.7239 24.2064 45.0037C22.7362 45.493 21.4547 45.5487 20.3711 45.1724ZM10.5749 41.453C10.0952 41.0451 9.65574 40.5916 9.26279 40.0987C8.79195 40.6634 8.36951 41.2672 8 41.9036C8.5772 42.354 9.19113 42.7547 9.83525 43.1013C10.016 42.5243 10.2643 41.971 10.5749 41.453ZM12.1648 46.4735C12.3525 47.2578 12.6068 48.0243 12.9249 48.7648C13.5525 48.6022 14.1666 48.3911 14.7619 48.1333C14.3925 47.5702 14.0994 46.9599 13.8906 46.3187C13.3217 46.426 12.7436 46.4771 12.1648 46.4711V46.4735ZM10.3356 36.182C11.1838 35.9207 11.9597 35.7939 12.6633 35.8016C12.7113 35.2296 12.8175 34.6641 12.9802 34.1139C12.0192 34.0002 11.0499 33.9739 10.0842 34.0353C10.0842 34.0922 10.0842 34.1744 10.0932 34.2718C10.1262 34.9138 10.2072 35.5523 10.3356 36.182ZM10.6915 38.3941C10.4418 37.8501 10.2456 37.2829 10.1059 36.7004C9.44237 37.0117 8.80629 37.379 8.20445 37.7983C8.5182 38.4015 8.87682 38.98 9.27722 39.5289C9.69777 39.0905 10.1732 38.7091 10.6915 38.3941ZM13.8004 45.9933C13.6697 45.4827 13.6276 44.9533 13.6759 44.4284C13.1068 44.4724 12.5344 44.4273 11.979 44.2947C11.9338 44.9097 11.9743 45.5281 12.0993 46.1318C12.6694 46.1415 13.2392 46.0951 13.8004 45.9933ZM11.5929 44.1949C11.0621 44.0407 10.5453 43.8412 10.0481 43.5985C9.84529 44.3331 9.70072 45.0827 9.61577 45.8402C10.2869 45.9878 10.9688 46.0803 11.6549 46.1166C11.5474 45.4819 11.5266 44.8354 11.5929 44.1949Z" fill="#3D9B35"/>
</svg>
