<svg width="121" height="80" viewBox="0 0 121 80" fill="none" xmlns="http://www.w3.org/2000/svg">
<path d="M13.4715 48.2821C13.4529 48.2636 13.4436 48.2357 13.4436 48.1893V44.8189C13.4436 44.791 13.4622 44.7539 13.4715 44.726C13.49 44.7075 13.5179 44.6982 13.5643 44.6982H13.7872C13.815 44.6982 13.8522 44.7167 13.88 44.726C13.8986 44.7446 13.9079 44.7724 13.9079 44.8189V48.1893C13.9079 48.2171 13.8893 48.2543 13.88 48.2821C13.8614 48.3007 13.8336 48.31 13.7872 48.31H13.5643C13.5272 48.31 13.4993 48.31 13.4715 48.2821Z" fill="black"/>
<path d="M14.5857 45.6359C14.5671 45.6174 14.5671 45.5895 14.5671 45.5617L14.6692 44.8467C14.6878 44.7446 14.7342 44.6982 14.8085 44.6982H15.1428C15.1706 44.6982 15.1892 44.7167 15.2077 44.726C15.2263 44.7446 15.2356 44.7539 15.2356 44.791C15.2356 44.8282 15.2356 44.856 15.217 44.8653L14.9571 45.5431C14.9385 45.5709 14.9292 45.6081 14.8921 45.6359C14.8735 45.6545 14.8456 45.6638 14.7992 45.6638H14.6507C14.6135 45.6638 14.6042 45.6638 14.5857 45.6359Z" fill="black"/>
<path d="M15.7927 48.0407C15.5791 47.8272 15.477 47.5301 15.4492 47.168V46.8337C15.4677 46.4716 15.5884 46.1838 15.7927 45.9609C16.0063 45.7474 16.2755 45.6267 16.6283 45.6267C17.009 45.6267 17.2969 45.7474 17.4918 45.9888C17.7054 46.2302 17.7982 46.5459 17.7982 46.9544V47.0472C17.7982 47.0751 17.7797 47.1122 17.7704 47.1401C17.7518 47.1587 17.724 47.168 17.6775 47.168H15.9041V47.2144C15.9227 47.4372 15.9784 47.6229 16.0991 47.7715C16.2198 47.92 16.3869 47.9943 16.6005 47.9943C16.7676 47.9943 16.8883 47.9665 16.9905 47.9015C17.0926 47.8365 17.1761 47.7808 17.2133 47.7065C17.2411 47.6601 17.2783 47.6415 17.2876 47.6322C17.3061 47.6136 17.334 47.6136 17.3804 47.6136H17.6033C17.6311 47.6136 17.6682 47.6322 17.6775 47.6415C17.6961 47.6601 17.7054 47.6879 17.7054 47.7065C17.7054 47.7808 17.659 47.8736 17.5661 47.9757C17.4733 48.0779 17.3433 48.1707 17.1761 48.245C17.009 48.3193 16.814 48.3657 16.6005 48.3657C16.2848 48.375 16.0063 48.2543 15.7927 48.0407ZM17.3433 46.7966C17.3433 46.5366 17.2783 46.3602 17.1483 46.2023C17.009 46.0538 16.8419 45.9795 16.6376 45.9795C16.4148 45.9795 16.2477 46.0538 16.127 46.2023C16.0062 46.3509 15.9413 46.5459 15.9413 46.778V46.7966H17.3433Z" fill="black"/>
<path d="M18.1696 48.2821C18.1511 48.2636 18.1418 48.2357 18.1418 48.2079C18.1418 48.18 18.1603 48.1429 18.1696 48.115L19.061 46.9637L18.2253 45.8773C18.1975 45.8495 18.1789 45.8124 18.1789 45.7845C18.1789 45.7566 18.1975 45.7195 18.2068 45.7102C18.2253 45.6916 18.2532 45.6824 18.2811 45.6824H18.5225C18.5689 45.6824 18.6153 45.7102 18.6617 45.7566L19.3395 46.648L20.0173 45.7566C20.0359 45.7288 20.0638 45.7102 20.0823 45.6917C20.1009 45.6731 20.1288 45.6731 20.1566 45.6731H20.3794C20.4073 45.6731 20.4259 45.6917 20.4537 45.7009C20.4723 45.7195 20.4816 45.7474 20.4816 45.7752C20.4816 45.8031 20.463 45.8402 20.4537 45.8681L19.6181 46.973L20.5094 48.1057C20.5373 48.1336 20.5373 48.1707 20.5373 48.1986C20.5373 48.2264 20.5187 48.2636 20.5094 48.2729C20.4909 48.2914 20.463 48.3007 20.4352 48.3007H20.1937C20.1473 48.3007 20.1009 48.2729 20.0545 48.2264L19.3302 47.2887L18.606 48.2264C18.5875 48.2543 18.5596 48.2729 18.541 48.2914C18.5225 48.31 18.4946 48.31 18.4668 48.31H18.2439C18.2161 48.31 18.1882 48.31 18.1696 48.2821Z" fill="black"/>
<path d="M21.1315 49.2478C21.113 49.2292 21.1037 49.2013 21.1037 49.1549V45.7845C21.1037 45.7566 21.1222 45.7195 21.1315 45.6917C21.1501 45.6731 21.1779 45.6638 21.2244 45.6638H21.4379C21.4658 45.6638 21.5029 45.6824 21.5308 45.6917C21.5493 45.7102 21.5586 45.7381 21.5586 45.7845V46.0073C21.7536 45.7474 22.0414 45.6174 22.4036 45.6174C22.7657 45.6174 23.0256 45.7195 23.2021 45.9516C23.3878 46.1745 23.4713 46.4623 23.4899 46.8151C23.4899 46.843 23.4899 46.908 23.4899 46.9823C23.4899 47.0565 23.4899 47.1215 23.4899 47.1494C23.4713 47.4929 23.3878 47.7808 23.2021 48.0129C23.0164 48.2357 22.7657 48.3564 22.4036 48.3564C22.0414 48.3564 21.7722 48.2171 21.5679 47.9665V49.1456C21.5679 49.1735 21.5493 49.2106 21.5401 49.2385C21.5215 49.2571 21.4936 49.2663 21.4472 49.2663H21.2244C21.1965 49.2756 21.1687 49.2663 21.1315 49.2478ZM22.8307 47.7343C22.9328 47.5858 22.9978 47.3908 23.0164 47.1308C23.0164 47.103 23.0164 47.0565 23.0164 46.9823C23.0164 46.3323 22.775 45.9981 22.2921 45.9981C22.0507 45.9981 21.865 46.0723 21.7629 46.2395C21.6422 46.388 21.5772 46.583 21.5679 46.7966C21.5679 46.8244 21.5679 46.8987 21.5679 46.9915C21.5679 47.0844 21.5679 47.1587 21.5679 47.1865C21.5679 47.4001 21.6422 47.5765 21.7629 47.7343C21.8836 47.8829 22.0693 47.9572 22.2921 47.9572C22.5428 47.9665 22.7192 47.8922 22.8307 47.7343Z" fill="black"/>
<path d="M24.3441 48.0407C24.1305 47.8272 24.0284 47.5301 24.0006 47.168V46.8337C24.0191 46.4716 24.1398 46.1838 24.3441 45.9609C24.5577 45.7474 24.8269 45.6267 25.1797 45.6267C25.5604 45.6267 25.8483 45.7474 26.0432 45.9888C26.2568 46.2302 26.3496 46.5459 26.3496 46.9544V47.0472C26.3496 47.0751 26.3311 47.1122 26.3218 47.1401C26.3032 47.1587 26.2754 47.168 26.2289 47.168H24.4555V47.2144C24.4741 47.4372 24.5298 47.6229 24.6505 47.7715C24.7712 47.92 24.9383 47.9943 25.1519 47.9943C25.319 47.9943 25.4397 47.9665 25.5419 47.9015C25.644 47.8365 25.7276 47.7808 25.7647 47.7065C25.7925 47.6601 25.8297 47.6415 25.839 47.6322C25.8575 47.6136 25.8854 47.6136 25.9318 47.6136H26.1547C26.1825 47.6136 26.2197 47.6322 26.2289 47.6415C26.2382 47.6508 26.2568 47.6879 26.2568 47.7065C26.2568 47.7808 26.2104 47.8736 26.1175 47.9757C26.0247 48.0779 25.8947 48.1707 25.7276 48.245C25.5604 48.3193 25.3654 48.3657 25.1519 48.3657C24.8269 48.375 24.5577 48.2543 24.3441 48.0407ZM25.8854 46.7966C25.8854 46.5366 25.8204 46.3602 25.6904 46.2023C25.5511 46.0538 25.384 45.9795 25.1797 45.9795C24.9569 45.9795 24.7898 46.0538 24.6691 46.2023C24.5484 46.3509 24.4834 46.5459 24.4834 46.778V46.7966H25.8854ZM24.9662 45.2088C24.9662 45.181 24.9848 45.1624 24.994 45.1438L25.3747 44.6889C25.4026 44.661 25.4397 44.6239 25.4676 44.6146C25.4954 44.596 25.5326 44.596 25.5697 44.596H25.904C25.969 44.596 25.9968 44.6239 25.9968 44.6889C25.9968 44.7167 25.9782 44.7353 25.969 44.7539L25.3747 45.2367C25.3469 45.2645 25.3283 45.2831 25.3004 45.2831C25.2726 45.2831 25.2354 45.3017 25.2076 45.3017H25.059C24.9755 45.2831 24.9662 45.2553 24.9662 45.2088Z" fill="black"/>
<path d="M26.9996 48.2821C26.981 48.2636 26.9717 48.2357 26.9717 48.1893V45.7845C26.9717 45.7566 26.9903 45.7195 26.9996 45.6917C27.0182 45.6638 27.046 45.6638 27.0924 45.6638H27.306C27.3338 45.6638 27.371 45.6824 27.3988 45.6917C27.4174 45.7102 27.4267 45.7381 27.4267 45.7845V46.0073C27.566 45.7845 27.8074 45.6638 28.1416 45.6638H28.3366C28.3645 45.6638 28.4016 45.6824 28.4295 45.6917C28.448 45.7102 28.4573 45.7381 28.4573 45.7845V45.9702C28.4573 45.9981 28.4387 46.0352 28.4295 46.063C28.4109 46.0816 28.383 46.0909 28.3366 46.0909H28.0488C27.8631 46.0909 27.7145 46.1559 27.6124 46.258C27.5103 46.3602 27.4453 46.518 27.4453 46.6944V48.1893C27.4453 48.2171 27.4267 48.2543 27.4174 48.2821C27.3895 48.3007 27.371 48.31 27.3246 48.31H27.1017C27.046 48.31 27.0182 48.31 26.9996 48.2821Z" fill="black"/>
<path d="M28.8658 45.1346C28.8473 45.116 28.838 45.0881 28.838 45.0417V44.7817C28.838 44.7539 28.8566 44.7167 28.8658 44.6889C28.8844 44.661 28.9123 44.661 28.9587 44.661H29.2651C29.293 44.661 29.3301 44.6796 29.358 44.6889C29.3858 44.7167 29.3858 44.7353 29.3858 44.7817V45.0417C29.3858 45.0696 29.3672 45.1067 29.358 45.1346C29.3301 45.1531 29.3115 45.1624 29.2651 45.1624H28.9587C28.9216 45.1624 28.8937 45.1624 28.8658 45.1346ZM28.9123 48.2821C28.8937 48.2636 28.8844 48.2357 28.8844 48.1893V45.7845C28.8844 45.7566 28.903 45.7195 28.9123 45.6917C28.9308 45.6731 28.9587 45.6638 29.0051 45.6638H29.228C29.2558 45.6638 29.293 45.6824 29.3208 45.6917C29.3394 45.7102 29.3487 45.7381 29.3487 45.7845V48.1893C29.3487 48.2171 29.3301 48.2543 29.3208 48.2821C29.3022 48.3007 29.2744 48.31 29.228 48.31H29.0051C28.9587 48.31 28.9401 48.31 28.9123 48.2821Z" fill="black"/>
<path d="M30.3143 48.0407C30.1007 47.8272 29.9986 47.5301 29.9708 47.168V46.8337C29.9893 46.4716 30.11 46.1838 30.3143 45.9609C30.5278 45.7474 30.7971 45.6267 31.1499 45.6267C31.5306 45.6267 31.8185 45.7474 32.0134 45.9888C32.227 46.2302 32.3198 46.5459 32.3198 46.9544V47.0472C32.3198 47.0751 32.3013 47.1122 32.292 47.1401C32.2734 47.1587 32.2456 47.168 32.1991 47.168H30.4257V47.2144C30.4443 47.4372 30.5 47.6229 30.6207 47.7715C30.7414 47.92 30.9085 47.9943 31.1221 47.9943C31.2892 47.9943 31.4099 47.9665 31.512 47.9015C31.6142 47.8365 31.6977 47.7808 31.7349 47.7065C31.7627 47.6601 31.7999 47.6415 31.8092 47.6322C31.8277 47.6136 31.8556 47.6136 31.902 47.6136H32.1249C32.1527 47.6136 32.1898 47.6322 32.1991 47.6415C32.2177 47.6601 32.227 47.6879 32.227 47.7065C32.227 47.7808 32.1806 47.8736 32.0877 47.9757C31.9949 48.0779 31.8649 48.1707 31.6977 48.245C31.5306 48.3193 31.3356 48.3657 31.1221 48.3657C30.7971 48.375 30.5278 48.2543 30.3143 48.0407ZM31.8556 46.7966C31.8556 46.5366 31.7906 46.3602 31.6606 46.2023C31.5213 46.0538 31.3542 45.9795 31.1499 45.9795C30.9271 45.9795 30.76 46.0538 30.6393 46.2023C30.5186 46.3509 30.4536 46.5459 30.4536 46.778V46.7966H31.8556Z" fill="black"/>
<path d="M32.9791 48.2821C32.9605 48.2636 32.9512 48.2357 32.9512 48.1893V45.7845C32.9512 45.7566 32.9698 45.7195 32.9791 45.6917C32.9976 45.6731 33.0255 45.6638 33.0719 45.6638H33.2855C33.3133 45.6638 33.3505 45.6824 33.3783 45.6917C33.3969 45.7102 33.4062 45.7381 33.4062 45.7845V46.0073C33.5083 45.8866 33.629 45.7845 33.7497 45.7195C33.889 45.6545 34.0561 45.6174 34.2511 45.6174C34.5854 45.6174 34.8268 45.7195 35.0032 45.9331C35.1889 46.1466 35.2724 46.4159 35.2724 46.7687V48.2079C35.2724 48.2357 35.2539 48.2729 35.2446 48.3007C35.226 48.3193 35.1982 48.3286 35.1517 48.3286H34.9289C34.901 48.3286 34.8639 48.31 34.836 48.3007C34.8175 48.2821 34.8082 48.2543 34.8082 48.2079V46.8058C34.8082 46.5644 34.7432 46.3694 34.6225 46.2302C34.5018 46.0909 34.3347 46.0352 34.1118 46.0352C33.8983 46.0352 33.7219 46.1095 33.6012 46.2487C33.4619 46.388 33.4062 46.583 33.4062 46.8244V48.2264C33.4062 48.2543 33.3876 48.2914 33.3783 48.3193C33.3597 48.3379 33.3319 48.3471 33.2855 48.3471H33.0626C33.0255 48.31 32.9884 48.31 32.9791 48.2821Z" fill="black"/>
<path d="M36.2288 48.05C36.0338 47.8365 35.9131 47.5486 35.9131 47.1865V46.7966C35.9317 46.4344 36.0338 46.1466 36.2288 45.9331C36.4238 45.7195 36.7116 45.6267 37.0737 45.6267C37.3151 45.6267 37.5287 45.6731 37.6958 45.7659C37.8629 45.8588 37.9836 45.9609 38.0765 46.0816C38.1508 46.2209 38.1972 46.3416 38.2158 46.4716C38.2158 46.4994 38.2158 46.5366 38.1879 46.5459C38.16 46.5737 38.1229 46.5737 38.095 46.5737H37.8722C37.8444 46.5737 37.8072 46.5551 37.7979 46.5459C37.7794 46.5273 37.7701 46.4994 37.7515 46.453C37.6865 46.2859 37.6029 46.1652 37.4915 46.1095C37.3894 46.0352 37.2501 46.0073 37.083 46.0073C36.8694 46.0073 36.7023 46.0723 36.5723 46.2023C36.4516 46.3416 36.3773 46.5366 36.3773 46.8058V47.1772C36.3959 47.4465 36.4516 47.6415 36.5723 47.7808C36.693 47.92 36.8787 47.9757 37.083 47.9757C37.2501 47.9757 37.3894 47.9479 37.4915 47.8736C37.5937 47.7993 37.6772 47.6879 37.7329 47.5301C37.7515 47.4836 37.7608 47.4558 37.7794 47.4372C37.7979 47.4186 37.8258 47.4094 37.8536 47.4094H38.0765C38.1043 47.4094 38.1415 47.4279 38.1693 47.4372C38.1972 47.4651 38.1972 47.4836 38.1972 47.5115C38.1972 47.6322 38.1508 47.7715 38.0579 47.8922C37.9651 48.0314 37.8444 48.1336 37.6772 48.2264C37.5101 48.3193 37.2965 48.3657 37.0551 48.3657C36.7116 48.375 36.4238 48.2636 36.2288 48.05Z" fill="black"/>
<path d="M39.0235 48.0407C38.81 47.8272 38.7079 47.5301 38.68 47.168V46.8337C38.6986 46.4716 38.8193 46.1838 39.0235 45.9609C39.2371 45.7474 39.5064 45.6267 39.8592 45.6267C40.2399 45.6267 40.5277 45.7474 40.7227 45.9888C40.9362 46.2302 41.0291 46.5459 41.0291 46.9544V47.0472C41.0291 47.0751 41.0105 47.1122 41.0012 47.1401C40.9827 47.1587 40.9548 47.168 40.9084 47.168H39.135V47.2144C39.1535 47.4372 39.2092 47.6229 39.3299 47.7715C39.4506 47.92 39.6178 47.9943 39.8313 47.9943C39.9985 47.9943 40.1192 47.9665 40.2213 47.9015C40.3234 47.8365 40.407 47.7808 40.4441 47.7065C40.472 47.6601 40.5091 47.6415 40.5184 47.6322C40.537 47.6136 40.5648 47.6136 40.6113 47.6136H40.8341C40.862 47.6136 40.8991 47.6322 40.9084 47.6415C40.9269 47.6601 40.9362 47.6879 40.9362 47.7065C40.9362 47.7808 40.8898 47.8736 40.797 47.9757C40.7041 48.0779 40.5741 48.1707 40.407 48.245C40.2399 48.3193 40.0449 48.3657 39.8313 48.3657C39.5156 48.375 39.2371 48.2543 39.0235 48.0407ZM40.5741 46.7966C40.5741 46.5366 40.5091 46.3602 40.3791 46.2023C40.2399 46.0538 40.0727 45.9795 39.8685 45.9795C39.6456 45.9795 39.4785 46.0538 39.3578 46.2023C39.2371 46.3509 39.1721 46.5459 39.1721 46.778V46.7966H40.5741Z" fill="black"/>
<path d="M43.081 48.0222C42.8953 47.7993 42.8118 47.4929 42.7932 47.1494V46.8523C42.8118 46.5087 42.8953 46.2209 43.081 45.9795C43.2667 45.7381 43.5174 45.6359 43.8796 45.6359C44.2231 45.6359 44.5016 45.7566 44.7152 46.0166V44.8374C44.7152 44.8096 44.7338 44.7724 44.743 44.7446C44.7616 44.726 44.7895 44.7167 44.8359 44.7167H45.0587C45.0866 44.7167 45.1237 44.7353 45.1516 44.7446C45.1702 44.7632 45.1794 44.791 45.1794 44.8374V48.2079C45.1794 48.2357 45.1609 48.2729 45.1516 48.3007C45.133 48.3193 45.1052 48.3286 45.0587 48.3286H44.8452C44.8173 48.3286 44.7802 48.31 44.7709 48.3007C44.7523 48.2821 44.743 48.2543 44.743 48.2079V47.9943C44.5481 48.2543 44.2788 48.3843 43.8981 48.3843C43.5174 48.375 43.2482 48.2543 43.081 48.0222ZM44.5016 47.7343C44.6223 47.5858 44.6873 47.3908 44.6966 47.1772C44.6966 47.1494 44.6966 47.0751 44.6966 46.9823C44.6966 46.8894 44.6966 46.8151 44.6966 46.7873C44.6966 46.5737 44.6223 46.3973 44.5016 46.258C44.3809 46.1095 44.1952 46.0352 43.9724 46.0352C43.731 46.0352 43.5453 46.1095 43.4432 46.258C43.341 46.4066 43.276 46.6016 43.2575 46.8615V47.0101C43.2575 47.6601 43.4989 47.9943 43.9817 47.9943C44.2138 47.9665 44.3809 47.8922 44.5016 47.7343Z" fill="black"/>
<path d="M46.1544 48.0407C45.9408 47.8272 45.8387 47.5301 45.8108 47.168V46.8337C45.8294 46.4716 45.9501 46.1838 46.1544 45.9609C46.3679 45.7474 46.6372 45.6267 46.99 45.6267C47.3707 45.6267 47.6585 45.7474 47.8535 45.9888C48.067 46.2302 48.1599 46.5459 48.1599 46.9544V47.0472C48.1599 47.0751 48.1413 47.1122 48.132 47.1401C48.1135 47.1587 48.0856 47.168 48.0392 47.168H46.2658V47.2144C46.2843 47.4372 46.3401 47.6229 46.4608 47.7715C46.5815 47.92 46.7486 47.9943 46.9621 47.9943C47.1293 47.9943 47.25 47.9665 47.3521 47.9015C47.4542 47.8365 47.5378 47.7808 47.5749 47.7065C47.6028 47.6601 47.6399 47.6415 47.6492 47.6322C47.6678 47.6136 47.6956 47.6136 47.7421 47.6136H47.9649C47.9928 47.6136 48.0299 47.6322 48.0392 47.6415C48.0578 47.6601 48.067 47.6879 48.067 47.7065C48.067 47.7808 48.0206 47.8736 47.9278 47.9757C47.8349 48.0779 47.7049 48.1707 47.5378 48.245C47.3707 48.3193 47.1757 48.3657 46.9621 48.3657C46.6372 48.375 46.3586 48.2543 46.1544 48.0407ZM47.6956 46.7966C47.6956 46.5366 47.6307 46.3602 47.5007 46.2023C47.3614 46.0538 47.1943 45.9795 46.99 45.9795C46.7672 45.9795 46.6 46.0538 46.4793 46.2023C46.3586 46.3509 46.2936 46.5459 46.2936 46.778V46.7966H47.6956ZM46.7672 45.2088C46.7672 45.181 46.7857 45.1624 46.795 45.1438L47.1757 44.6889C47.2035 44.661 47.2407 44.6239 47.2685 44.6146C47.2964 44.596 47.3335 44.596 47.3707 44.596H47.7049C47.7699 44.596 47.7978 44.6239 47.7978 44.6889C47.7978 44.7167 47.7792 44.7353 47.7699 44.7539L47.1757 45.2367C47.1478 45.2645 47.1293 45.2831 47.1014 45.2831C47.0736 45.2831 47.0364 45.3017 47.0086 45.3017H46.86C46.7857 45.2831 46.7672 45.2553 46.7672 45.2088Z" fill="black"/>
<path d="M48.8098 48.2821C48.7913 48.2636 48.782 48.2357 48.782 48.1893V45.7845C48.782 45.7566 48.8006 45.7195 48.8098 45.6917C48.8284 45.6731 48.8563 45.6638 48.9027 45.6638H49.1162C49.1441 45.6638 49.1812 45.6824 49.1905 45.6917C49.2091 45.7102 49.2184 45.7381 49.2184 45.7845V45.9516C49.4041 45.7288 49.6455 45.6081 49.9612 45.6081C50.3418 45.6081 50.5925 45.7566 50.7504 46.0723C50.8247 45.9331 50.9454 45.8124 51.0939 45.7288C51.2425 45.6359 51.4096 45.6081 51.5953 45.6081C51.8646 45.6081 52.0967 45.7009 52.2731 45.8959C52.4588 46.0909 52.5331 46.3602 52.5331 46.7316V48.1986C52.5331 48.2264 52.5145 48.2636 52.5052 48.2914C52.4867 48.31 52.4588 48.3193 52.4124 48.3193H52.1988C52.171 48.3193 52.1338 48.3007 52.106 48.2914C52.0874 48.2729 52.0781 48.245 52.0781 48.1986V46.778C52.0781 46.5087 52.0131 46.3137 51.911 46.1838C51.8089 46.063 51.651 45.9981 51.4746 45.9981C51.3075 45.9981 51.1682 46.063 51.0475 46.1838C50.9268 46.3045 50.8618 46.4994 50.8618 46.7594V48.18C50.8618 48.2079 50.8432 48.245 50.834 48.2729C50.8154 48.2914 50.7875 48.3007 50.7411 48.3007H50.5183C50.4904 48.3007 50.4533 48.2821 50.4254 48.2729C50.4068 48.2543 50.3976 48.2264 50.3976 48.18V46.7594C50.3976 46.4902 50.3326 46.3045 50.2119 46.1838C50.0912 46.063 49.9519 45.9981 49.7755 45.9981C49.6083 45.9981 49.4691 46.063 49.3484 46.1838C49.2277 46.3045 49.1627 46.4994 49.1627 46.7594V48.1986C49.1627 48.2264 49.1441 48.2636 49.1348 48.2914C49.1162 48.31 49.0884 48.3193 49.042 48.3193H48.8191C48.8563 48.31 48.8284 48.31 48.8098 48.2821Z" fill="black"/>
<path d="M53.4987 48.05C53.3037 47.8365 53.1923 47.5672 53.183 47.2144V46.7873C53.2016 46.4437 53.3037 46.1559 53.5173 45.9423C53.7308 45.7288 54.0001 45.6267 54.3808 45.6267C54.7429 45.6267 55.0307 45.7288 55.2443 45.9423C55.4578 46.1559 55.56 46.4252 55.5785 46.7873C55.5785 46.8615 55.5971 46.9358 55.5971 47.0008C55.5971 47.0751 55.5971 47.1494 55.5785 47.2144C55.56 47.5579 55.4578 47.8458 55.2629 48.05C55.0679 48.2636 54.78 48.3657 54.3994 48.3657C54.0187 48.375 53.7123 48.2636 53.4987 48.05ZM54.8729 47.7808C54.9936 47.6415 55.0679 47.4465 55.0864 47.1865C55.0864 47.1587 55.0864 47.0937 55.0864 46.9915C55.0864 46.8987 55.0864 46.8244 55.0864 46.7966C55.0679 46.5366 55.0122 46.3416 54.8729 46.2023C54.7522 46.063 54.5665 45.9888 54.3622 45.9888C54.1487 45.9888 53.9723 46.063 53.8515 46.2023C53.7308 46.3416 53.6566 46.5366 53.638 46.7966V47.1865C53.6566 47.4465 53.7123 47.6415 53.8515 47.7808C53.9723 47.92 54.1579 47.9943 54.3622 47.9943C54.5851 47.9757 54.7522 47.92 54.8729 47.7808Z" fill="black"/>
<path d="M56.4049 48.05C56.2099 47.8365 56.0892 47.5486 56.0892 47.1865V46.7966C56.1078 46.4344 56.2099 46.1466 56.4049 45.9331C56.5999 45.7195 56.8877 45.6267 57.2498 45.6267C57.4912 45.6267 57.7048 45.6731 57.8719 45.7659C58.039 45.8588 58.1597 45.9609 58.2526 46.0816C58.3269 46.2209 58.3733 46.3416 58.3919 46.4716C58.3919 46.4994 58.3919 46.5366 58.364 46.5459C58.3362 46.5737 58.299 46.5737 58.2712 46.5737H58.0483C58.0205 46.5737 57.9833 46.5551 57.974 46.5459C57.9555 46.5273 57.9462 46.4994 57.9276 46.453C57.8626 46.2859 57.7791 46.1652 57.6676 46.1095C57.5655 46.0352 57.4262 46.0073 57.2591 46.0073C57.0456 46.0073 56.8784 46.0723 56.7484 46.2023C56.6277 46.3416 56.5535 46.5366 56.5535 46.8058V47.1772C56.572 47.4465 56.6277 47.6415 56.7484 47.7808C56.8691 47.92 57.0548 47.9757 57.2591 47.9757C57.4262 47.9757 57.5655 47.9479 57.6676 47.8736C57.7698 47.7993 57.8533 47.6879 57.9091 47.5301C57.9276 47.4836 57.9369 47.4558 57.9555 47.4372C57.974 47.4186 58.0019 47.4094 58.0298 47.4094H58.2526C58.2805 47.4094 58.3176 47.4279 58.3454 47.4372C58.3733 47.4651 58.3733 47.4836 58.3733 47.5115C58.3733 47.6322 58.3269 47.7715 58.234 47.8922C58.1412 48.0314 58.0205 48.1336 57.8533 48.2264C57.6862 48.3193 57.4727 48.3657 57.2313 48.3657C56.9063 48.375 56.6185 48.2636 56.4049 48.05Z" fill="black"/>
<path d="M59.0325 48.2821C59.014 48.2636 59.0047 48.2357 59.0047 48.1893V45.7845C59.0047 45.7566 59.0232 45.7195 59.0325 45.6917C59.0511 45.6638 59.079 45.6638 59.1254 45.6638H59.3389C59.3668 45.6638 59.4039 45.6824 59.4318 45.6917C59.4503 45.7102 59.4596 45.7381 59.4596 45.7845V46.0073C59.5989 45.7845 59.8403 45.6638 60.1746 45.6638H60.3696C60.3974 45.6638 60.4345 45.6824 60.4624 45.6917C60.481 45.7102 60.4903 45.7381 60.4903 45.7845V45.9702C60.4903 45.9981 60.4717 46.0352 60.4624 46.063C60.4438 46.0816 60.416 46.0909 60.3696 46.0909H60.0632C59.8775 46.0909 59.7289 46.1559 59.6268 46.258C59.5246 46.3602 59.4596 46.518 59.4596 46.6944V48.1893C59.4596 48.2171 59.4411 48.2543 59.4318 48.2821C59.4039 48.3007 59.3854 48.31 59.3389 48.31H59.1161C59.079 48.31 59.0511 48.31 59.0325 48.2821Z" fill="black"/>
<path d="M61.1402 48.2636C61.0009 48.1986 60.8802 48.0964 60.8059 47.9943C60.7131 47.8736 60.6852 47.7529 60.6852 47.6043C60.6852 47.3815 60.7781 47.1958 60.9545 47.0565C61.1402 46.9173 61.3909 46.8151 61.6973 46.7687L62.4494 46.6666V46.5087C62.4494 46.1652 62.2544 45.9795 61.8459 45.9795C61.6973 45.9795 61.558 46.0073 61.4652 46.0723C61.3723 46.1373 61.298 46.2116 61.2516 46.2952C61.2331 46.323 61.2238 46.3602 61.2052 46.3694C61.1866 46.388 61.1773 46.388 61.1402 46.388H60.9545C60.9266 46.388 60.8895 46.3694 60.8802 46.3602C60.8617 46.3416 60.8524 46.3137 60.8524 46.2859C60.8524 46.2116 60.8802 46.1188 60.9545 46.0166C61.0288 45.9145 61.1402 45.8216 61.2888 45.7474C61.4373 45.6731 61.623 45.6267 61.8459 45.6267C62.2265 45.6267 62.4958 45.7195 62.6629 45.8866C62.8301 46.0723 62.9043 46.2766 62.9043 46.5551V48.2079C62.9043 48.2357 62.8858 48.2729 62.8765 48.3007C62.8579 48.3193 62.8301 48.3286 62.7836 48.3286H62.5608C62.5329 48.3286 62.4958 48.31 62.4865 48.3007C62.4679 48.2821 62.4587 48.2543 62.4587 48.2079V47.985C62.3844 48.0872 62.273 48.1986 62.1244 48.2729C61.9851 48.3471 61.7901 48.375 61.5766 48.375C61.4373 48.375 61.2888 48.3286 61.1402 48.2636ZM62.2544 47.7808C62.3937 47.6322 62.4679 47.4186 62.4679 47.1494V47.0101L61.8737 47.103C61.6323 47.1308 61.4466 47.1958 61.3166 47.2701C61.1959 47.3444 61.1309 47.4558 61.1309 47.5765C61.1309 47.7158 61.1959 47.8179 61.298 47.8922C61.4188 47.9665 61.5395 47.9943 61.7066 47.9943C61.9201 47.9943 62.1244 47.92 62.2544 47.7808Z" fill="black"/>
<path d="M63.8793 47.4186V46.0538H63.4707C63.4429 46.0538 63.4057 46.0352 63.3964 46.0259C63.3779 46.0073 63.3686 45.9795 63.3686 45.9516V45.7845C63.3686 45.7566 63.3871 45.7195 63.3964 45.6917C63.415 45.6731 63.4429 45.6638 63.4707 45.6638H63.8793V44.8189C63.8793 44.791 63.8978 44.7539 63.9071 44.726C63.9257 44.7075 63.9535 44.6982 63.9814 44.6982H64.2042C64.2321 44.6982 64.2692 44.7167 64.2971 44.726C64.3156 44.7446 64.3249 44.7724 64.3249 44.8189V45.6638H64.9563C64.9842 45.6638 65.0213 45.6824 65.0491 45.6917C65.0677 45.7102 65.077 45.7381 65.077 45.7845V45.9516C65.077 45.9795 65.0584 46.0166 65.0491 46.0259C65.0306 46.0445 65.0027 46.0538 64.9563 46.0538H64.3249V47.3815C64.3249 47.5486 64.3528 47.6879 64.4178 47.7715C64.4828 47.8643 64.5663 47.9107 64.7056 47.9107H65.0213C65.0491 47.9107 65.0863 47.9293 65.0956 47.9386C65.1141 47.9572 65.1234 47.985 65.1234 48.0314V48.1986C65.1234 48.2264 65.1049 48.2636 65.0956 48.2914C65.077 48.31 65.0491 48.3193 65.0213 48.3193H64.6778C64.1299 48.31 63.8793 48.0222 63.8793 47.4186Z" fill="black"/>
<path d="M65.6155 45.1346C65.597 45.116 65.5877 45.0881 65.5877 45.0417V44.7817C65.5877 44.7539 65.6062 44.7167 65.6155 44.6889C65.6341 44.661 65.662 44.661 65.7084 44.661H66.0148C66.0426 44.661 66.0798 44.6796 66.1076 44.6889C66.1355 44.7167 66.1355 44.7353 66.1355 44.7817V45.0417C66.1355 45.0696 66.1169 45.1067 66.1076 45.1346C66.0798 45.1531 66.0612 45.1624 66.0148 45.1624H65.7084C65.662 45.1624 65.6341 45.1624 65.6155 45.1346ZM65.6434 48.2821C65.6248 48.2636 65.6155 48.2357 65.6155 48.1893V45.7845C65.6155 45.7566 65.6341 45.7195 65.6434 45.6917C65.662 45.6731 65.6898 45.6638 65.7362 45.6638H65.9591C65.9869 45.6638 66.0241 45.6824 66.0519 45.6917C66.0705 45.7102 66.0798 45.7381 66.0798 45.7845V48.1893C66.0798 48.2171 66.0612 48.2543 66.0519 48.2821C66.0334 48.3007 66.0055 48.31 65.9591 48.31H65.7362C65.7084 48.31 65.6712 48.31 65.6434 48.2821Z" fill="black"/>
<path d="M68.6703 49.2478C68.6517 49.2292 68.6424 49.2013 68.6424 49.1549V47.9757C68.4474 48.2357 68.1782 48.3657 67.8253 48.3657C67.4632 48.3657 67.2033 48.245 67.0268 48.0222C66.8411 47.7993 66.7576 47.5115 66.739 47.1587V46.8244C66.7576 46.4809 66.8411 46.193 67.0268 45.9609C67.2125 45.7381 67.4632 45.6267 67.8253 45.6267C68.1874 45.6267 68.4753 45.7659 68.661 46.0166V45.7938C68.661 45.7659 68.6795 45.7288 68.6888 45.7009C68.7074 45.6824 68.7353 45.6731 68.7817 45.6731H68.9952C69.0231 45.6731 69.0602 45.6917 69.0881 45.7009C69.1067 45.7195 69.1159 45.7474 69.1159 45.7938V49.1642C69.1159 49.1921 69.0974 49.2292 69.0881 49.2571C69.0695 49.2756 69.0417 49.2849 68.9952 49.2849H68.7724C68.7167 49.2756 68.6888 49.2663 68.6703 49.2478ZM68.4474 47.7343C68.5681 47.5858 68.6424 47.4001 68.6424 47.1865C68.6424 47.1587 68.6424 47.0844 68.6424 46.9915C68.6424 46.8987 68.6424 46.8244 68.6424 46.7966C68.6238 46.583 68.5681 46.388 68.4474 46.2395C68.3267 46.0909 68.141 46.0166 67.9182 46.0166C67.6768 46.0166 67.4911 46.0909 67.3889 46.2395C67.2868 46.388 67.2218 46.583 67.2032 46.843V46.9915C67.2032 47.6415 67.4447 47.9757 67.9275 47.9757C68.141 47.9665 68.3174 47.8922 68.4474 47.7343Z" fill="black"/>
<path d="M70.1094 48.05C69.9237 47.8365 69.8494 47.5672 69.8494 47.2144V45.7752C69.8494 45.7474 69.868 45.7102 69.8773 45.6824C69.8959 45.6638 69.9237 45.6545 69.9701 45.6545H70.193C70.2208 45.6545 70.258 45.6731 70.2858 45.6824C70.3044 45.7009 70.3137 45.7288 70.3137 45.7752V47.1772C70.3137 47.6879 70.5365 47.9479 70.9822 47.9479C71.1958 47.9479 71.3722 47.8736 71.4929 47.7343C71.6136 47.5951 71.6879 47.4001 71.6879 47.1587V45.7566C71.6879 45.7288 71.7064 45.6916 71.7157 45.6638C71.7343 45.6452 71.7621 45.6359 71.8086 45.6359H72.0314C72.0593 45.6359 72.0964 45.6545 72.1242 45.6638C72.1428 45.6824 72.1521 45.7102 72.1521 45.7566V48.18C72.1521 48.2079 72.1335 48.245 72.1242 48.2729C72.1057 48.2914 72.0778 48.3007 72.0314 48.3007H71.8178C71.79 48.3007 71.7529 48.2821 71.725 48.2729C71.7064 48.2543 71.6971 48.2264 71.6971 48.18V47.9572C71.595 48.0964 71.4836 48.18 71.3536 48.2636C71.2143 48.3286 71.0472 48.3657 70.8522 48.3657C70.5272 48.375 70.2766 48.2636 70.1094 48.05Z" fill="black"/>
<path d="M73.127 48.0407C72.9135 47.8272 72.8113 47.5301 72.7835 47.168V46.8337C72.8021 46.4716 72.9228 46.1838 73.127 45.9609C73.3406 45.7474 73.6098 45.6267 73.9627 45.6267C74.3433 45.6267 74.6312 45.7474 74.8262 45.9888C75.0397 46.2302 75.1326 46.5459 75.1326 46.9544V47.0472C75.1326 47.0751 75.114 47.1122 75.1047 47.1401C75.0861 47.1587 75.0583 47.168 75.0119 47.168H73.2384V47.2144C73.257 47.4372 73.3127 47.6229 73.4334 47.7715C73.5541 47.92 73.7213 47.9943 73.9348 47.9943C74.1019 47.9943 74.2226 47.9665 74.3248 47.9015C74.4269 47.8365 74.5105 47.7808 74.5476 47.7065C74.5755 47.6601 74.6126 47.6415 74.6219 47.6322C74.6405 47.6136 74.6683 47.6136 74.7147 47.6136H74.9376C74.9654 47.6136 75.0026 47.6322 75.0119 47.6415C75.0304 47.6601 75.0397 47.6879 75.0397 47.7065C75.0397 47.7808 74.9933 47.8736 74.9004 47.9757C74.8076 48.0779 74.6776 48.1707 74.5105 48.245C74.3433 48.3193 74.1484 48.3657 73.9348 48.3657C73.6191 48.375 73.3406 48.2543 73.127 48.0407ZM74.6776 46.7966C74.6776 46.5366 74.6126 46.3602 74.4826 46.2023C74.3433 46.0538 74.1762 45.9795 73.9719 45.9795C73.7491 45.9795 73.582 46.0538 73.4613 46.2023C73.3406 46.3509 73.2756 46.5459 73.2756 46.778V46.7966H74.6776Z" fill="black"/>
<path d="M5.85784 31.7086C3.11879 31.6157 0.899701 33.8534 0.97398 36.5924C1.04826 39.0715 3.06308 41.0863 5.54216 41.1606C8.2812 41.2535 10.5003 39.0158 10.4074 36.2953C10.3332 33.7977 8.32763 31.7829 5.85784 31.7086ZM7.77982 38.7837H5.75571C4.55796 38.7837 3.45305 37.818 3.35092 36.6203C3.23021 35.1811 4.4094 33.9741 5.84856 34.0669C7.00917 34.1319 7.98409 35.0604 8.06765 36.2303C8.13265 36.9545 7.8541 37.6231 7.38985 38.0873L7.87267 38.5701C7.92838 38.663 7.89124 38.7837 7.77982 38.7837Z" fill="black"/>
<path d="M15.5234 40.0093C15.022 40.0093 14.5857 39.9072 14.2235 39.6936C13.8614 39.48 13.5736 39.1922 13.3786 38.8208V42.4326C13.3786 42.5069 13.3136 42.5719 13.2393 42.5719H12.6451C11.9302 42.5719 11.3452 41.9963 11.3452 41.272V33.4356C11.3452 33.3613 11.4102 33.2963 11.4845 33.2963H12.2366C12.7194 33.2963 13.1001 33.6863 13.1001 34.1598V34.3548C13.3415 33.9741 13.6479 33.6863 14.01 33.482C14.3721 33.2684 14.8085 33.1663 15.3099 33.1663C15.7463 33.1663 16.1548 33.2592 16.5355 33.4263C16.9162 33.612 17.2319 33.8534 17.5011 34.1505C17.7704 34.4569 17.9839 34.819 18.1325 35.2276C18.2811 35.6361 18.3553 36.0911 18.3553 36.5553C18.3553 37.0567 18.2811 37.5116 18.1418 37.9202C18.0025 38.3473 17.8075 38.7094 17.5475 39.0065C17.2876 39.3129 16.9997 39.5543 16.6376 39.7307C16.2941 39.9071 15.932 40.0093 15.5234 40.0093ZM14.8456 38.3194C15.0592 38.3194 15.2727 38.273 15.4399 38.1709C15.6256 38.078 15.7741 37.948 15.9041 37.7902C16.0434 37.6231 16.1455 37.4466 16.2105 37.2331C16.2848 37.0195 16.3127 36.7967 16.3127 36.5646C16.3127 36.3232 16.2662 36.1003 16.1919 35.8961C16.1177 35.6825 16.0063 35.5154 15.8577 35.3668C15.7184 35.2183 15.5513 35.0976 15.3563 35.0233C15.1613 34.9304 14.9478 34.9026 14.7249 34.9026C14.4557 34.9026 14.1771 34.9769 13.9264 35.144C13.6665 35.3111 13.4715 35.5247 13.3322 35.8125V37.1774C13.4715 37.5116 13.6665 37.7995 13.9357 38.0223C14.205 38.2359 14.5299 38.3194 14.8456 38.3194Z" fill="black"/>
<path d="M22.5428 40.0093C21.9857 40.0093 21.5029 39.9164 21.0572 39.74C20.6209 39.5543 20.2402 39.3129 19.9338 38.9972C19.6274 38.6908 19.386 38.3287 19.2374 37.9202C19.0888 37.5116 18.996 37.0845 18.996 36.6481C18.996 36.1653 19.0703 35.7289 19.2374 35.3018C19.4045 34.8747 19.6274 34.5126 19.9338 34.1969C20.2402 33.8812 20.6023 33.6213 21.0572 33.4449C21.4936 33.2592 21.995 33.1756 22.5521 33.1756C23.1092 33.1756 23.6106 33.2684 24.047 33.4449C24.4834 33.6306 24.8455 33.8812 25.1519 34.1876C25.4583 34.5033 25.6811 34.8654 25.8297 35.274C25.9782 35.6825 26.0525 36.1189 26.0525 36.5739C26.0525 36.6946 26.0525 36.7967 26.034 36.9174C26.034 36.9824 26.0154 37.0381 26.0154 37.1031C25.9968 37.1681 25.9504 37.2052 25.8761 37.2052H21.113C21.1779 37.9945 21.6236 38.4494 22.4871 38.5516C22.515 38.5516 22.5521 38.5516 22.5893 38.5516C22.8771 38.5516 23.1649 38.4773 23.4342 38.338C23.6013 38.2452 23.7406 38.143 23.8427 38.0037C23.9448 37.8645 24.1305 37.7902 24.2977 37.8366L25.5419 38.1802C25.6161 38.1987 25.6626 38.3009 25.6161 38.3659C25.3562 38.8208 24.9848 39.2015 24.4834 39.4893C23.9448 39.8422 23.2949 40.0093 22.5428 40.0093ZM23.9356 35.9703C23.8891 35.5432 23.7406 35.2183 23.4806 34.9769C23.2206 34.7355 22.8864 34.6148 22.515 34.6148C22.125 34.6148 21.7908 34.7355 21.5493 34.9954C21.2894 35.2368 21.1408 35.5711 21.113 35.9796H23.9356V35.9703Z" fill="black"/>
<path d="M33.1926 39.8886H32.5984C31.8834 39.8886 31.2985 39.3129 31.2985 38.5887V36.1839C31.2985 35.7475 31.2242 35.4318 31.0571 35.2276C30.89 35.0326 30.6764 34.9397 30.4071 34.9397C30.2679 34.9397 30.1193 34.9676 29.98 35.0326C29.8408 35.0976 29.6922 35.1718 29.5715 35.274C29.4322 35.3761 29.3115 35.4968 29.2094 35.6547C29.1073 35.7939 29.0237 35.9611 28.968 36.1189V39.7679C28.968 39.8422 28.903 39.9072 28.8287 39.9072H28.2345C27.5195 39.9072 26.9346 39.3315 26.9346 38.6073V33.4356C26.9346 33.3613 26.9996 33.2963 27.0739 33.2963H27.8909C28.3737 33.2963 28.7544 33.6863 28.7544 34.1598V34.4012C28.9958 34.0112 29.3487 33.7048 29.7851 33.4913C30.2214 33.2777 30.7414 33.1756 31.3171 33.1756C31.7442 33.1756 32.0877 33.2499 32.3477 33.3984C32.6077 33.547 32.8027 33.7605 32.9512 34.0019C33.0905 34.2434 33.1926 34.5126 33.239 34.819C33.2855 35.1069 33.3133 35.3947 33.3133 35.6639V39.7493C33.3226 39.8236 33.2669 39.8886 33.1926 39.8886Z" fill="black"/>
<path d="M37.2594 40.0093C36.7023 40.0093 36.1359 39.9164 35.5974 39.74C35.096 39.5729 34.6596 39.3315 34.2975 39.0251C34.2511 38.9787 34.2325 38.9229 34.2697 38.858L34.7061 38.1152C34.8268 37.9016 35.096 37.8459 35.3096 37.9666C35.5788 38.1337 35.8574 38.273 36.1081 38.3566C36.4888 38.5051 36.8509 38.5794 37.213 38.5794C37.473 38.5794 37.6679 38.533 37.8165 38.4401C37.9558 38.3473 38.0301 38.2173 38.0301 38.0316C38.0301 37.8459 37.9372 37.7159 37.7608 37.6045C37.5751 37.5024 37.2594 37.3909 36.8044 37.2702C36.3681 37.1495 35.9874 37.0288 35.681 36.9081C35.3746 36.7874 35.1239 36.6667 34.9382 36.5182C34.7432 36.3789 34.6039 36.2118 34.5296 36.0353C34.4368 35.8496 34.4089 35.6268 34.4089 35.3854C34.4089 35.0511 34.4739 34.754 34.6039 34.4662C34.7432 34.1969 34.9196 33.9555 35.161 33.7698C35.3839 33.5748 35.6717 33.4263 35.9967 33.3149C36.3123 33.2127 36.6652 33.1477 37.0366 33.1477C37.538 33.1477 37.9929 33.2127 38.4293 33.3427C38.8193 33.4634 39.2185 33.6863 39.5899 33.9927C39.6363 34.0391 39.6549 34.1134 39.6178 34.1598L39.135 34.9026C39.0143 35.0976 38.745 35.1626 38.5407 35.0419C38.2993 34.8933 38.0858 34.7819 37.8908 34.7076C37.603 34.5869 37.3151 34.5219 37.0459 34.5219C36.8323 34.5219 36.6373 34.5683 36.498 34.6612C36.3495 34.754 36.2752 34.884 36.2752 35.0883C36.2752 35.274 36.3495 35.404 36.5166 35.4968C36.6837 35.5897 36.9901 35.6918 37.4265 35.8032C37.8908 35.9239 38.29 36.0632 38.6057 36.1839C38.9214 36.3046 39.2 36.4532 39.3949 36.611C39.5899 36.7596 39.7385 36.9453 39.8313 37.1402C39.9242 37.3352 39.9706 37.5766 39.9706 37.8552C39.9706 38.5051 39.7292 39.0344 39.2464 39.415C38.7357 39.8143 38.0858 40.0093 37.2594 40.0093Z" fill="black"/>
<path d="M47.3428 35.2925C47.1943 34.884 46.9529 34.5219 46.6465 34.2062C46.3401 33.8905 45.9779 33.6491 45.5415 33.4541C45.1052 33.2684 44.6038 33.1663 44.0467 33.1663C43.4896 33.1663 42.9882 33.2592 42.5518 33.4541C42.1154 33.6398 41.7347 33.8905 41.4469 34.2062C41.1405 34.5219 40.9177 34.884 40.7691 35.2925C40.6205 35.7011 40.5463 36.1375 40.5463 36.5924C40.5463 37.0474 40.6205 37.4838 40.7691 37.8923C40.9177 38.3194 41.1498 38.663 41.4469 38.9787C41.7533 39.2943 42.1154 39.5358 42.5518 39.7215C42.9882 39.9072 43.4896 39.9907 44.0467 39.9907C44.6038 39.9907 45.1052 39.8979 45.5415 39.7215C45.9779 39.545 46.3586 39.2851 46.665 38.9787C46.9714 38.663 47.1943 38.3009 47.3428 37.8923C47.4914 37.4838 47.5657 37.0474 47.5657 36.5924C47.5842 36.1375 47.5099 35.7104 47.3428 35.2925ZM44.2138 38.3194C44.186 38.3194 44.0931 38.338 44.0652 38.338H42.6632C42.5425 38.338 42.4961 38.1987 42.5704 38.1152L42.8582 37.8273C42.5425 37.5116 42.3568 37.0845 42.3568 36.6203C42.3568 35.7289 43.0532 34.9861 43.926 34.9119C43.9538 34.9119 43.9724 34.9119 44.0003 34.9119C44.0281 34.9119 44.0467 34.9119 44.0745 34.9119C44.1024 34.9119 44.121 34.9119 44.1488 34.9119C44.1767 34.9119 44.1952 34.9119 44.2231 34.9119C45.0959 34.9861 45.7922 35.7289 45.7922 36.6203C45.783 37.5024 45.0959 38.2266 44.2138 38.3194Z" fill="black"/>
<path d="M50.5833 40.0093C49.9055 40.0093 49.3855 39.7957 49.042 39.3779C48.6984 38.9508 48.5313 38.338 48.5313 37.5209V33.4356C48.5313 33.3613 48.5963 33.2963 48.6706 33.2963H49.2648C49.9797 33.2963 50.5647 33.872 50.5647 34.5962V37.0753C50.5647 37.4838 50.639 37.7902 50.8061 37.9945C50.9547 38.208 51.1868 38.3101 51.4839 38.3101C51.7532 38.3101 52.0131 38.2359 52.2545 38.0966C52.4495 37.9945 52.6167 37.8273 52.7838 37.5859C52.8766 37.4466 52.9231 37.2795 52.9231 37.1217V33.4356C52.9231 33.3613 52.9881 33.2963 53.0623 33.2963H53.6566C54.3715 33.2963 54.9565 33.872 54.9565 34.5962V37.6323C54.9565 37.8273 54.9843 37.9759 55.0493 38.0595C55.0957 38.1244 55.17 38.1616 55.2721 38.1802C55.3371 38.1987 55.3743 38.2452 55.3743 38.3009V39.7864C55.3743 39.8514 55.3278 39.9072 55.2721 39.9072C55.1236 39.935 55.0029 39.9536 54.8822 39.9721C54.7429 39.9907 54.6222 39.9907 54.5201 39.9907C53.7958 39.9907 53.3873 39.7029 53.2945 39.1458L53.2666 38.7373C52.9602 39.1736 52.5888 39.4893 52.1431 39.7029C51.6232 39.9072 51.1218 40.0093 50.5833 40.0093Z" fill="black"/>
<path d="M60.6388 34.884C60.6388 34.9583 60.5738 35.0047 60.5181 35.0047C60.0817 35.0233 59.6825 35.0976 59.3204 35.2461C58.9304 35.3947 58.6426 35.6268 58.4754 35.9239V39.7493C58.4754 39.8236 58.4104 39.8886 58.3362 39.8886H57.7419C57.027 39.8886 56.442 39.3129 56.442 38.5887V33.417C56.442 33.3427 56.507 33.2777 56.5813 33.2777H57.4262C57.9091 33.2777 58.2897 33.6677 58.2897 34.1412V34.6055C58.5126 34.1691 58.8004 33.8162 59.1625 33.5656C59.5246 33.3056 59.9053 33.1849 60.2953 33.1756C60.3881 33.1756 60.4624 33.1756 60.4903 33.1756C60.5181 33.1756 60.5831 33.1756 60.611 33.1942V34.884H60.6388Z" fill="black"/>
<path d="M60.7595 36.5739C60.7595 36.1189 60.8338 35.6825 61.0009 35.274C61.1681 34.8654 61.3909 34.5033 61.6973 34.1876C62.0037 33.872 62.3658 33.6306 62.8208 33.4449C63.2572 33.2592 63.7585 33.1756 64.3156 33.1756C65.0677 33.1756 65.7177 33.3427 66.2376 33.6584C66.7019 33.9462 67.0733 34.3269 67.324 34.7819C67.3704 34.8562 67.324 34.949 67.2497 34.9676L65.7362 35.4225C65.5877 35.469 65.402 35.4225 65.2998 35.3018C65.0584 35.014 64.7242 34.8747 64.3156 34.8747C63.8885 34.8747 63.545 35.0233 63.2757 35.339C62.9879 35.6454 62.8486 36.0632 62.8486 36.5832C62.8486 36.8431 62.8765 37.0845 62.9693 37.2981C63.0436 37.5116 63.155 37.6881 63.285 37.8459C63.4243 37.9945 63.5728 38.1152 63.7493 38.1894C63.935 38.2823 64.1114 38.3101 64.3249 38.3101C64.5849 38.3101 64.8077 38.2452 65.0213 38.1244C65.142 38.0502 65.2441 37.9759 65.337 37.8645C65.4391 37.7438 65.6248 37.6788 65.7919 37.7438L67.3054 38.208C67.3797 38.2359 67.4261 38.3101 67.3797 38.3937C67.1383 38.8487 66.7761 39.2108 66.2933 39.5172C65.7641 39.8514 65.1141 40 64.3621 40C63.805 40 63.3222 39.9072 62.8765 39.7122C62.4401 39.5265 62.0594 39.2758 61.753 38.9601C61.4466 38.6444 61.2052 38.2823 61.0566 37.8738C60.8338 37.4652 60.7595 37.0288 60.7595 36.5739Z" fill="black"/>
<path d="M71.3907 40.0093C70.8337 40.0093 70.3508 39.9164 69.9052 39.74C69.4595 39.5636 69.0881 39.3129 68.7817 38.9972C68.4753 38.6908 68.2339 38.3287 68.0853 37.9202C67.9368 37.5116 67.8439 37.0845 67.8439 36.6481C67.8439 36.1653 67.9182 35.7289 68.0853 35.3018C68.2524 34.8747 68.4753 34.5126 68.7817 34.1969C69.0881 33.8812 69.4502 33.6213 69.9052 33.4449C70.3416 33.2592 70.8429 33.1756 71.4 33.1756C71.9571 33.1756 72.4585 33.2684 72.8949 33.4449C73.3313 33.6306 73.6934 33.8812 73.9998 34.1876C74.3062 34.5033 74.529 34.8654 74.6776 35.274C74.8262 35.6825 74.9004 36.1189 74.9004 36.5739C74.9004 36.6946 74.9004 36.7967 74.8819 36.9174C74.8819 36.9824 74.8633 37.0381 74.8633 37.1031C74.8447 37.1681 74.7983 37.2052 74.724 37.2052H69.9609C70.0259 37.9945 70.4715 38.4494 71.335 38.5516C71.3629 38.5516 71.4 38.5516 71.4372 38.5516C71.725 38.5516 72.0128 38.4773 72.2821 38.338C72.4492 38.2452 72.5885 38.143 72.6906 38.0037C72.7928 37.8645 72.9785 37.7902 73.1456 37.8366L74.3898 38.1802C74.464 38.1987 74.5105 38.3009 74.464 38.3659C74.2041 38.8208 73.8327 39.2015 73.3313 39.4893C72.8113 39.8422 72.1614 40.0093 71.3907 40.0093ZM72.802 35.9703C72.7556 35.5432 72.6071 35.2183 72.3471 34.9769C72.0871 34.7355 71.7529 34.6148 71.3815 34.6148C70.9915 34.6148 70.6572 34.7355 70.4158 34.9954C70.1559 35.2368 70.0073 35.5711 69.9794 35.9796H72.802V35.9703Z" fill="black"/>
<path d="M80.9542 40.0093C80.4528 40.0093 80.0164 39.9072 79.6543 39.6936C79.2922 39.48 79.0044 39.1922 78.8094 38.8208V42.4326C78.8094 42.5069 78.7444 42.5719 78.6701 42.5719H78.0759C77.3609 42.5719 76.776 41.9963 76.776 41.272V33.4356C76.776 33.3613 76.841 33.2963 76.9153 33.2963H77.6673C78.1502 33.2963 78.5308 33.6863 78.5308 34.1598V34.3548C78.7722 33.9741 79.0786 33.6863 79.4408 33.482C79.8029 33.2684 80.2393 33.1663 80.7406 33.1663C81.177 33.1663 81.5856 33.2592 81.9663 33.4263C82.3469 33.612 82.6626 33.8534 82.9319 34.1505C83.2012 34.4569 83.4147 34.819 83.5633 35.2276C83.7118 35.6361 83.7861 36.0911 83.7861 36.5553C83.7861 37.0567 83.7118 37.5116 83.5725 37.9202C83.4333 38.3473 83.2383 38.7094 82.9783 39.0065C82.7183 39.3129 82.4305 39.5543 82.0684 39.7307C81.7249 39.9071 81.3627 40.0093 80.9542 40.0093ZM80.2671 38.3194C80.4807 38.3194 80.6942 38.273 80.8614 38.1709C81.0471 38.078 81.1956 37.948 81.3256 37.7902C81.4649 37.6231 81.567 37.4466 81.632 37.2331C81.7063 37.0195 81.7341 36.7967 81.7341 36.5646C81.7341 36.3232 81.6877 36.1003 81.6134 35.8961C81.5392 35.6825 81.4277 35.5154 81.2792 35.3668C81.1399 35.2183 80.9728 35.0976 80.7778 35.0233C80.5828 34.9304 80.3693 34.9026 80.1464 34.9026C79.8772 34.9026 79.5986 34.9769 79.3479 35.144C79.0879 35.3111 78.893 35.5247 78.7537 35.8125V37.1774C78.893 37.5116 79.0879 37.7995 79.3572 38.0223C79.6265 38.2452 79.9514 38.3194 80.2671 38.3194Z" fill="black"/>
<path d="M91.2326 35.2925C91.084 34.884 90.8426 34.5219 90.5362 34.2062C90.2298 33.8905 89.8677 33.6491 89.4313 33.4541C88.9949 33.2684 88.4935 33.1663 87.9365 33.1663C87.3794 33.1663 86.878 33.2592 86.4416 33.4541C86.0052 33.6398 85.6245 33.8905 85.3367 34.2062C85.0303 34.5219 84.8074 34.884 84.6589 35.2925C84.5103 35.7011 84.436 36.1375 84.436 36.5924C84.436 37.0474 84.5103 37.4838 84.6589 37.8923C84.8074 38.3194 85.0396 38.663 85.3367 38.9787C85.6431 39.2943 86.0052 39.5358 86.4416 39.7215C86.878 39.9072 87.3794 39.9907 87.9365 39.9907C88.4935 39.9907 88.9949 39.8979 89.4313 39.7215C89.8677 39.5358 90.2484 39.2851 90.5548 38.9787C90.8612 38.663 91.084 38.3009 91.2326 37.8923C91.3812 37.4838 91.4554 37.0474 91.4554 36.5924C91.474 36.1375 91.3997 35.7104 91.2326 35.2925ZM89.4313 38.0873C89.5056 38.1616 89.4592 38.3101 89.3385 38.3101H87.9457C87.7229 38.3101 87.5094 38.2637 87.3144 38.1709C86.683 37.9109 86.228 37.3074 86.228 36.5832C86.228 35.7197 86.878 34.9954 87.7136 34.8933C87.7415 34.8933 87.76 34.8933 87.7879 34.8747C87.8157 34.8747 87.8343 34.8747 87.8622 34.8747C87.89 34.8747 87.9086 34.8747 87.9365 34.8747C87.9643 34.8747 87.9829 34.8747 88.0107 34.8747C88.0386 34.8747 88.0572 34.8747 88.085 34.8747C88.9578 34.949 89.6449 35.6918 89.6449 36.5832C89.6449 37.0195 89.4778 37.4188 89.2178 37.7066C89.1713 37.7531 89.1713 37.8459 89.2178 37.8923L89.4313 38.0873Z" fill="black"/>
<path d="M92.5789 30.7244H93.591C94.0738 30.7244 94.4545 31.1143 94.4545 31.5879V37.5488C94.4545 38.0502 94.668 38.3009 95.0858 38.3009C95.188 38.3009 95.2994 38.2823 95.4201 38.2544C95.4851 38.2359 95.5408 38.2266 95.6058 38.1894C95.6801 38.1616 95.7729 38.208 95.7915 38.2823L96.005 39.5265C96.0236 39.5915 95.9865 39.6472 95.9308 39.6657C95.6986 39.7586 95.4479 39.8514 95.1601 39.9072C94.8259 39.9721 94.5287 40.0093 94.2409 40.0093C93.6652 40.0093 93.2103 39.8607 92.9132 39.5543C92.6068 39.2479 92.4489 38.8115 92.4489 38.2544V30.8636C92.4489 30.7708 92.5046 30.7244 92.5789 30.7244Z" fill="black"/>
<path d="M96.6828 32.3864V31.6157C96.6828 31.1143 97.0728 30.7244 97.5742 30.7244H98.5305C98.6234 30.7244 98.6977 30.7987 98.6977 30.8915V32.1171C98.6977 32.3585 98.5027 32.5535 98.2613 32.5535H96.8407C96.7571 32.5349 96.6828 32.4607 96.6828 32.3864ZM96.6828 39.7215V33.4449C96.6828 33.352 96.7571 33.2777 96.85 33.2777H97.8063C98.3077 33.2777 98.6977 33.6677 98.6977 34.1691V39.7215C98.6977 39.8143 98.6234 39.8886 98.5305 39.8886H96.8407C96.7571 39.8886 96.6828 39.8143 96.6828 39.7215Z" fill="black"/>
<path d="M104.315 39.415C104.334 39.48 104.296 39.5358 104.241 39.5636C103.981 39.6657 103.712 39.7586 103.396 39.8514C103.034 39.9536 102.69 40 102.319 40C102.059 40 101.836 39.9721 101.604 39.9072C101.381 39.8422 101.177 39.74 101.019 39.6007C100.852 39.4615 100.712 39.2851 100.629 39.0529C100.536 38.8301 100.48 38.5516 100.48 38.2359V34.8097H99.7654C99.6912 34.8097 99.6262 34.7447 99.6262 34.6705V33.417C99.6262 33.3427 99.6912 33.2777 99.7654 33.2777H100.48V31.3186C100.48 31.2443 100.545 31.1793 100.62 31.1793H101.632C102.115 31.1793 102.495 31.5693 102.495 32.0428V33.287H103.702C103.777 33.287 103.842 33.352 103.842 33.4263V33.9555C103.842 34.4383 103.452 34.819 102.978 34.819H102.495V37.5674C102.495 37.7809 102.551 37.948 102.662 38.0316C102.764 38.1244 102.904 38.1802 103.071 38.1802C103.219 38.1802 103.377 38.1523 103.544 38.1059C103.647 38.078 103.739 38.0409 103.814 38.0037C103.888 37.9759 103.962 38.0223 103.999 38.0966L104.315 39.415Z" fill="black"/>
<path d="M105.123 32.4142V31.5786C105.123 31.0958 105.513 30.7151 105.986 30.7151H106.998C107.073 30.7151 107.138 30.7801 107.138 30.8544V32.1171C107.138 32.3585 106.943 32.5535 106.701 32.5535H105.253C105.179 32.5349 105.123 32.4792 105.123 32.4142ZM105.123 39.7493V33.417C105.123 33.3427 105.188 33.2777 105.262 33.2777H106.274C106.757 33.2777 107.138 33.6677 107.138 34.1412V39.74C107.138 39.8143 107.073 39.8793 106.998 39.8793H105.244C105.179 39.8886 105.123 39.8236 105.123 39.7493Z" fill="black"/>
<path d="M108.113 36.5739C108.113 36.1189 108.187 35.6825 108.354 35.274C108.521 34.8654 108.744 34.5033 109.05 34.1876C109.357 33.872 109.719 33.6306 110.174 33.4449C110.61 33.2592 111.112 33.1756 111.669 33.1756C112.421 33.1756 113.071 33.3427 113.591 33.6584C114.064 33.9462 114.417 34.3269 114.677 34.7819C114.723 34.8562 114.677 34.949 114.603 34.9676L113.089 35.4225C112.941 35.469 112.755 35.4225 112.653 35.3018C112.411 35.014 112.077 34.8747 111.669 34.8747C111.242 34.8747 110.898 35.0233 110.629 35.339C110.341 35.6454 110.202 36.0632 110.202 36.5832C110.202 36.8431 110.23 37.0845 110.322 37.2981C110.397 37.5116 110.508 37.6881 110.638 37.8459C110.777 37.9945 110.926 38.1152 111.112 38.1894C111.297 38.2823 111.474 38.3101 111.687 38.3101C111.947 38.3101 112.17 38.2452 112.384 38.1244C112.504 38.0502 112.606 37.9759 112.699 37.8645C112.801 37.7438 112.987 37.6788 113.154 37.7438L114.668 38.208C114.742 38.2359 114.788 38.3101 114.742 38.3937C114.501 38.8487 114.138 39.2108 113.656 39.5172C113.126 39.8514 112.476 40 111.724 40C111.167 40 110.684 39.9072 110.239 39.7122C109.802 39.5265 109.422 39.2758 109.115 38.9601C108.809 38.6444 108.568 38.2823 108.419 37.8738C108.205 37.4652 108.113 37.0288 108.113 36.5739Z" fill="black"/>
<path d="M118.261 40.0093C117.704 40.0093 117.138 39.9164 116.599 39.74C116.098 39.5729 115.661 39.3315 115.299 39.0251C115.253 38.9787 115.234 38.9229 115.271 38.858L115.708 38.1152C115.828 37.9016 116.098 37.8459 116.311 37.9666C116.58 38.1337 116.859 38.273 117.11 38.3566C117.49 38.5051 117.852 38.5794 118.215 38.5794C118.475 38.5794 118.67 38.533 118.818 38.4401C118.957 38.3473 119.032 38.2173 119.032 38.0316C119.032 37.8459 118.939 37.7159 118.762 37.6045C118.586 37.5024 118.261 37.3909 117.806 37.2702C117.37 37.1495 116.989 37.0288 116.683 36.9081C116.376 36.7874 116.125 36.6667 115.94 36.5182C115.745 36.3789 115.605 36.2118 115.531 36.0353C115.438 35.8496 115.411 35.6268 115.411 35.3854C115.411 35.0511 115.475 34.754 115.605 34.4662C115.745 34.1969 115.921 33.9555 116.163 33.7698C116.385 33.5748 116.673 33.4263 116.998 33.3149C117.314 33.2127 117.667 33.1477 118.038 33.1477C118.54 33.1477 118.994 33.2127 119.431 33.3427C119.821 33.4634 120.22 33.6863 120.591 33.9927C120.638 34.0391 120.656 34.1134 120.619 34.1598L120.137 34.9026C120.016 35.0976 119.747 35.1626 119.542 35.0419C119.301 34.8933 119.087 34.7819 118.892 34.7076C118.605 34.5869 118.317 34.5219 118.047 34.5219C117.834 34.5219 117.639 34.5683 117.5 34.6612C117.351 34.754 117.277 34.884 117.277 35.0883C117.277 35.274 117.351 35.404 117.518 35.4968C117.685 35.5897 117.992 35.6918 118.428 35.8032C118.892 35.9239 119.292 36.0632 119.607 36.1839C119.923 36.3046 120.192 36.4532 120.396 36.611C120.591 36.7596 120.74 36.9453 120.833 37.1402C120.926 37.3352 120.972 37.5766 120.972 37.8552C120.972 38.5051 120.731 39.0344 120.248 39.415C119.747 39.8143 119.097 40.0093 118.261 40.0093Z" fill="black"/>
</svg>
