<svg width="121" height="80" viewBox="0 0 121 80" fill="none" xmlns="http://www.w3.org/2000/svg">
<path d="M78.8771 43.0742C78.8009 42.1026 78.7024 41.131 78.5636 40.1639C78.4427 39.2953 78.2636 38.4311 78.098 37.5715C78.0577 37.37 77.9681 37.1775 77.9055 36.976C77.7935 36.5999 77.6726 36.2238 77.5831 35.8432C77.5204 35.5924 77.5204 35.3238 77.4622 35.0731C77.3637 34.6611 77.2204 34.2582 77.1309 33.8463C76.9786 33.1164 76.8667 32.3777 76.7279 31.6478C76.6473 31.2404 76.5085 30.8419 76.4548 30.43C76.3831 29.9017 76.316 29.3868 76.0294 28.9166C75.9443 28.7778 75.9264 28.5898 75.8996 28.4241C75.7563 27.5644 75.622 26.7048 75.4787 25.8451C75.2414 24.4034 75.2324 22.9482 75.2772 21.4976C75.3041 20.6648 75.3936 19.832 75.4877 19.0036C75.5862 18.1305 75.716 17.2619 75.8548 16.3933C75.9264 15.9635 76.0563 15.5426 76.1637 15.1172C76.2264 14.871 76.3205 14.6337 76.3697 14.3874C76.4995 13.7382 76.5936 13.08 76.7368 12.4353C76.8667 11.8487 77.0906 11.2801 76.8219 10.6712C76.7637 10.5413 76.7189 10.4921 76.5936 10.501C76.4816 10.51 76.3339 10.4652 76.3339 10.6533C76.3339 10.81 76.2354 10.8816 76.11 10.9219C75.9309 10.9756 75.7518 11.0159 75.5727 11.0652C75.1698 11.1726 74.7668 11.2801 74.3638 11.3876C73.934 11.504 73.5042 11.6159 73.0743 11.7368C72.8907 11.7905 72.7072 11.8577 72.5326 11.9338C72.2684 12.0457 72.0087 12.1801 71.7445 12.2875C71.561 12.3636 71.3595 12.4084 71.1714 12.4756C70.3476 12.7532 69.5282 13.0397 68.7044 13.3173C68.579 13.3621 68.4402 13.371 68.3148 13.4113C68.1268 13.4785 67.9387 13.5546 67.7552 13.6352C67.4552 13.7651 67.1641 13.9039 66.8641 14.0292C66.7074 14.0964 66.5373 14.1322 66.3806 14.1949C65.6463 14.4814 64.9075 14.759 64.1867 15.0725C63.5777 15.3366 63.018 15.6993 62.3688 15.8918C61.9882 16.0038 61.639 16.2142 61.2719 16.3799C61.1913 16.4157 61.1062 16.447 61.0301 16.4918C60.4256 16.8276 59.8839 17.253 59.2705 17.5843C58.6794 17.9067 58.1332 18.341 57.681 18.8693C57.3183 19.2991 57.175 19.7737 57.2377 20.32C57.269 20.5797 57.3586 20.8394 57.5959 20.9603C57.9407 21.1394 58.3033 21.3408 58.6794 21.4035C59.2481 21.502 59.8346 21.5244 60.4167 21.5199C62.1763 21.502 63.9314 21.4573 65.6911 21.4214C65.6911 21.4035 65.6911 21.3901 65.6911 21.3722C66.1209 21.408 66.5507 21.4483 66.9806 21.4752C67.7014 21.5155 68.2119 21.9319 68.6641 22.4333C68.8253 22.6124 68.9506 22.8676 68.9909 23.1005C69.0536 23.4676 69.0715 23.8571 69.0312 24.2288C68.982 24.6765 68.9148 25.1422 68.7402 25.5541C68.4581 26.2347 67.9522 26.7719 67.4417 27.2958C67.2403 27.5018 67.0209 27.6943 66.7925 27.8734C66.3985 28.1779 66.0045 28.4868 65.5791 28.7465C65.109 29.042 64.6075 29.2883 64.115 29.5524C63.918 29.6599 63.712 29.7405 63.524 29.8614C63.0763 30.139 62.6419 30.4434 62.1897 30.7121C61.7509 30.9762 61.2942 31.2091 60.851 31.4643C60.748 31.5225 60.6629 31.612 60.5734 31.6881C60.2197 32.006 59.9018 32.3732 59.4316 32.5254C59.3779 32.5433 59.3287 32.5836 59.2839 32.6239C58.6839 33.1702 58.0795 33.7075 57.4974 34.2761C57.2332 34.5313 57.0273 34.8492 56.8079 35.1447C56.6646 35.3417 56.5571 35.5656 56.4094 35.7581C56.0825 36.1835 55.9616 37.0924 56.2392 37.5446C56.575 38.0819 57.072 38.4983 57.6228 38.7401C58.2183 39.0042 58.8899 39.152 59.5391 39.2371C60.4301 39.358 61.3345 39.3893 62.2345 39.4251C63.3359 39.4744 64.4374 39.4833 65.5388 39.5236C66.197 39.546 66.8507 39.6311 67.4507 39.9266C68.0775 40.2311 68.579 40.7146 68.8208 41.3414C69.1745 42.2593 69.282 43.2264 68.8924 44.1801C68.7626 44.4935 68.5611 44.7801 68.4312 45.0935C68.3104 45.3756 68.1492 45.6174 67.9208 45.8144C67.8357 45.886 67.7641 45.9756 67.6925 46.0606C67.3835 46.4323 67.1015 46.8263 66.7701 47.1755C66.197 47.78 65.6015 48.362 65.0015 48.9441C64.7822 49.1545 64.518 49.3157 64.2941 49.5217C63.8553 49.9291 63.4255 50.3545 62.9957 50.7754C62.6867 51.0753 62.3688 51.3664 62.0644 51.6708C61.7554 51.9798 61.4554 52.3022 61.1465 52.6111C60.9808 52.7812 60.7928 52.929 60.6226 53.0947C60.2779 53.4349 59.9421 53.7752 59.6018 54.12C59.351 54.3752 59.1048 54.6304 58.8675 54.8946C58.6078 55.1811 58.3526 55.4722 58.1018 55.7632C57.7616 56.1662 57.3899 56.5467 57.287 57.1019C57.2646 57.2228 57.175 57.3258 57.1258 57.4422C57.0228 57.6885 56.8795 57.9303 56.8437 58.1855C56.7721 58.6422 56.7497 59.1034 56.7407 59.5645C56.7273 60.2227 57.0855 60.6212 57.7437 60.6749C58.7332 60.76 59.7227 60.7152 60.6987 60.5093C61.2763 60.3884 61.8584 60.2943 62.4315 60.1645C62.7494 60.0929 63.0539 59.972 63.3583 59.869C63.618 59.7839 63.8688 59.6765 64.1329 59.6003C64.9747 59.3496 65.8164 59.1123 66.6582 58.8705C66.7074 58.8571 66.7522 58.8302 66.8015 58.8078C67.3701 58.5392 67.9343 58.2571 68.5118 57.9974C69.0402 57.7601 69.5775 57.5363 70.1192 57.3392C70.7102 57.1199 71.2207 56.7617 71.758 56.4393C72.2236 56.1572 72.6982 55.8975 73.1683 55.6289C73.334 55.5304 73.5086 55.4408 73.6564 55.3244C74.0146 55.0334 74.3593 54.7289 74.7086 54.4289C74.8922 54.2722 75.1071 54.1334 75.2638 53.9543C75.6444 53.5155 76.0026 53.0633 76.3607 52.6066C76.5712 52.338 76.7727 52.0604 76.9428 51.7649C77.2204 51.2813 77.4219 50.753 77.7353 50.3008C78.1741 49.6694 78.4383 48.9531 78.5995 48.2367C78.8099 47.3054 78.895 46.3382 78.9442 45.3801C79.0024 44.61 78.9397 43.8354 78.8771 43.0742Z" fill="black"/>
<path d="M55.0124 36.5596C55.008 35.5611 55.0124 34.5626 55.008 33.5642C54.9945 31.1688 54.9766 28.7778 54.9677 26.3824C54.9632 25.3526 54.9677 24.3273 54.9677 23.2975C55.008 22.7736 54.7796 22.5632 54.296 22.5721C53.2976 22.5945 52.4334 23.0557 51.52 23.3646C51.4439 23.3915 51.3812 23.4497 51.3141 23.499C50.9783 23.7586 50.6604 24.0452 50.3022 24.2691C49.7962 24.5914 49.3619 24.972 49.0082 25.4511C48.8426 25.6705 48.6948 25.9033 48.5157 26.1138C48.0814 26.6197 47.6695 27.1346 47.4993 27.8018C47.468 27.9226 47.3919 28.0301 47.3471 28.151C47.2352 28.4644 47.1098 28.7778 47.0247 29.1002C46.8859 29.6196 46.774 30.1434 46.6576 30.6673C46.5859 30.9807 46.5053 31.2941 46.4695 31.6076C46.3665 32.4896 46.268 33.3672 46.1919 34.2537C46.0755 35.6417 45.977 37.0297 45.883 38.4222C45.8337 39.152 45.8337 39.8818 45.78 40.6116C45.6815 41.9549 45.5337 43.2981 45.4487 44.6458C45.3367 46.4144 45.2696 48.1874 45.1621 49.9605C45.1173 50.7261 45.0278 51.4873 44.9517 52.2529C44.8621 53.1573 44.7547 54.0573 44.6741 54.9617C44.598 55.8438 44.5487 56.7303 44.4815 57.6169C44.3696 59.0272 44.2577 60.4376 44.1368 61.848C44.0607 62.7166 43.9801 63.5852 43.8771 64.4494C43.7831 65.2419 43.6398 66.0254 43.5458 66.8179C43.4965 67.2523 43.3801 67.6597 43.2144 68.0627C43.098 68.3492 43.013 68.6582 42.9816 68.9671C42.9458 69.3343 43.1338 69.5044 43.5055 69.4999C43.7786 69.4954 44.0562 69.4686 44.3293 69.4507C44.9472 69.4104 45.5651 69.3745 46.1516 69.1507C46.4382 69.0432 46.7292 68.9492 47.0292 68.8865C47.6157 68.7611 48.0903 68.4209 48.5918 68.1298C49.1112 67.8254 49.5948 67.4672 50.0873 67.1179C50.235 67.0105 50.3694 66.8806 50.4947 66.7418C50.7858 66.4194 51.0633 66.0926 51.3454 65.7657C51.6678 65.3896 52.0305 65.0404 52.2096 64.5568C52.2678 64.4001 52.3708 64.2569 52.4469 64.1046C52.5678 63.8673 52.6797 63.6255 52.7916 63.3882C52.8677 63.2271 52.908 63.0435 53.011 62.9047C53.217 62.6271 53.3244 62.3181 53.3961 61.9868C53.4632 61.6734 53.5617 61.3689 53.6423 61.06C53.7408 60.6794 53.8393 60.2988 53.9199 59.9138C54.0184 59.4392 54.099 58.9646 54.1841 58.4855C54.2871 57.9303 54.408 57.3751 54.4796 56.8154C54.5468 56.2915 54.5692 55.7632 54.7706 55.2617C55.0214 54.6439 55.0841 53.9857 55.0841 53.3275C55.0841 51.0664 55.0706 48.8098 55.0617 46.5487C55.0393 43.213 55.0259 39.8863 55.0124 36.5596Z" fill="black"/>
</svg>
