<svg width="121" height="80" viewBox="0 0 121 80" fill="none" xmlns="http://www.w3.org/2000/svg">
<path d="M113.121 37.3245C113.033 36.907 112.957 36.4769 112.805 36.0721C112.552 35.3764 112.261 34.6807 111.945 34.0102C111.641 33.3651 111.35 32.7073 110.946 32.1127C110.263 31.1007 109.529 30.1014 108.745 29.1653C108.125 28.4189 107.404 27.7485 106.683 27.0907C106.139 26.5847 105.506 26.1799 104.937 25.6992C103.887 24.8137 102.711 24.1053 101.496 23.4855C100.143 22.7897 98.7258 22.1952 97.3217 21.6006C95.4874 20.829 93.5646 20.3862 91.6039 20.0826C90.4148 19.8929 89.2004 19.8423 87.9987 19.7411C86.3668 19.779 84.7729 19.9814 83.217 20.3862C82.1165 20.6772 81.0539 21.0693 79.9913 21.4741C78.7895 21.9295 77.6763 22.5747 76.6137 23.2957C74.0585 25.0288 71.9839 27.2172 70.39 29.8737C69.4918 31.3664 68.8087 32.935 68.3027 34.5921C67.9359 35.8191 67.6702 37.0715 67.5184 38.3491C67.3666 39.6268 67.3666 40.8918 67.5058 42.1568C67.6323 43.3206 67.8473 44.459 68.1762 45.5849C68.5178 46.7613 68.9099 47.8998 69.4412 49.0004C70.2761 50.7587 71.3767 52.3273 72.7555 53.6935C73.3121 54.2501 73.894 54.7814 74.5012 55.2621C75.0072 55.6669 75.5511 56.0464 76.133 56.3247C76.8541 56.6789 77.5245 57.0837 78.2962 57.362C78.7516 57.5264 79.1943 57.7794 79.675 57.9059C79.6877 57.9059 79.6877 57.9186 79.7003 57.9186C80.0925 58.0704 80.472 58.2601 80.8768 58.374C81.3448 58.5005 81.8002 58.7408 82.3062 58.7408C82.4454 58.7408 82.5845 58.8673 82.7363 58.9053C83.002 58.9685 83.2676 59.0065 83.5206 59.0571C83.6851 59.095 83.8495 59.1456 84.0139 59.1583C84.5705 59.1836 85.1398 59.1203 85.6711 59.2342C85.9494 59.2974 86.2277 59.4113 86.5313 59.4239C86.9614 59.4366 87.4041 59.5251 87.8342 59.5251C88.3402 59.5251 88.8336 59.4366 89.3396 59.4113C89.8835 59.386 90.4401 59.4113 90.9967 59.3354C91.8569 59.2342 92.7171 59.0824 93.5773 58.9179C94.3363 58.7788 95.0953 58.627 95.8543 58.4625C96.1958 58.3866 96.5121 58.2222 96.8536 58.1842C97.3723 58.1083 97.8783 58.0577 98.321 57.7415C98.3716 57.7035 98.4349 57.7162 98.4981 57.7035C98.6752 57.6782 98.865 57.6656 99.0421 57.615C99.2445 57.5644 99.4342 57.4885 99.6366 57.4252C99.8896 57.3493 100.155 57.2861 100.408 57.1975C100.661 57.109 100.902 56.9825 101.142 56.8813C101.294 56.818 101.458 56.7674 101.61 56.7042C101.774 56.6409 101.926 56.5397 102.091 56.5018C102.673 56.3753 103.229 56.2361 103.723 55.8819C103.912 55.7428 104.127 55.5404 104.317 55.553C104.608 55.5783 104.747 55.4139 104.924 55.2874C106.139 54.4398 107.227 53.4531 108.251 52.3906C109.225 51.3786 110.073 50.2527 110.832 49.0636C111.54 47.9631 112.097 46.7993 112.552 45.5722C113.121 44.0163 113.4 42.4098 113.463 40.7653C113.514 39.5762 113.349 38.4503 113.121 37.3245ZM78.0305 46.989C74.5392 46.9258 71.6423 44.2566 71.5158 40.74C71.3767 36.7805 74.3747 33.9849 77.8787 33.9217C81.7876 33.8458 84.3555 36.7679 84.5452 39.9936C84.7856 44.0163 81.6864 46.9005 78.0305 46.989ZM101.243 43.9657C101.559 44.3578 101.901 44.7373 102.141 45.1674C102.483 45.762 102.344 46.3186 101.736 46.7107C101.42 46.9131 100.56 46.6601 100.282 46.3059C99.5987 45.4584 98.9156 44.6108 98.2451 43.7633C97.9415 43.3838 97.6253 43.0043 97.347 42.5995C97.1952 42.3718 96.9928 42.3212 96.7524 42.3212C96.2085 42.3212 95.6519 42.3212 95.1079 42.3212C95.0573 42.3212 95.0067 42.3212 94.9561 42.3212C94.3869 42.2959 94.3869 42.2959 94.3869 42.8652C94.3869 43.8012 94.3869 44.7373 94.3995 45.6734C94.3995 46.2427 93.8809 46.736 93.3243 46.7107C92.5526 46.6728 92.1731 46.2174 92.1731 45.4331C92.1858 43.6495 92.1858 41.8532 92.1858 40.0695C92.1858 38.4756 92.1731 36.8817 92.1731 35.3005C92.1731 34.6933 92.7803 34.1241 93.3875 34.1241C94.9941 34.1241 96.6006 34.1241 98.2072 34.1241C98.321 34.1241 98.4475 34.1241 98.5487 34.162C99.2571 34.4024 100.016 34.453 100.674 34.8831C101.218 35.2373 101.61 35.6673 101.952 36.2239C102.154 36.5528 102.255 36.9197 102.331 37.2486C102.483 37.8811 102.559 38.5389 102.255 39.184C102.129 39.4497 102.091 39.7659 101.952 40.0189C101.572 40.7147 101.015 41.2333 100.294 41.5622C100.054 41.6761 99.8137 41.7899 99.5607 41.9038C100.143 42.6375 100.699 43.2953 101.243 43.9657Z" fill="black"/>
<path d="M58.1702 34.1747C56.9052 34.0988 55.6275 34.162 54.3499 34.162C54.1728 34.162 53.9957 34.2 53.8312 34.2759C53.2873 34.4909 53.1102 34.9463 53.1102 35.4902C53.1102 37.1221 53.1102 38.7539 53.1102 40.3858C53.1102 41.9923 53.0975 43.6115 53.1228 45.218C53.1228 45.509 53.1861 45.8126 53.2873 46.0782C53.4391 46.4577 53.768 46.7107 54.1728 46.6981C55.9817 46.6348 57.7907 46.9005 59.5869 46.483C60.4218 46.2933 61.1935 45.9897 61.8766 45.4837C63.1542 44.5476 63.9891 43.3206 64.3054 41.7393C64.6343 40.1075 64.4192 38.5642 63.5464 37.16C62.3193 35.174 60.4218 34.3138 58.1702 34.1747ZM61.9525 41.714C61.6362 42.8019 61.0164 43.6368 60.0044 44.1555C59.2454 44.5476 58.4232 44.712 57.563 44.6994C56.9811 44.6867 56.3992 44.6994 55.8299 44.6994C55.3745 44.6994 55.3239 44.6488 55.3239 44.1934C55.3239 42.9411 55.3239 41.6887 55.3239 40.4364C55.3239 39.184 55.3239 37.9317 55.3239 36.6793C55.3239 36.2239 55.3872 36.1733 55.8299 36.1733C56.4751 36.1733 57.1202 36.1607 57.7527 36.1733C58.9038 36.1986 59.9538 36.5022 60.814 37.3118C61.3832 37.8431 61.7627 38.5009 61.9651 39.2726C62.1928 40.0822 62.1928 40.8918 61.9525 41.714Z" fill="black"/>
<path d="M34.1479 46.6854C34.869 46.5969 35.2738 45.8632 34.9196 45.2307C34.7172 44.8638 34.3883 44.6994 33.9582 44.6994C32.086 44.712 30.2138 44.6994 28.329 44.6994C27.8609 44.6994 27.7977 44.6361 27.7977 44.1681C27.7977 43.4091 27.7977 42.6501 27.7977 41.8911C27.7977 41.4231 27.8736 41.3472 28.3543 41.3472C29.8343 41.3472 31.3017 41.3472 32.7818 41.3472C32.9462 41.3472 33.1233 41.3472 33.2878 41.3345C33.9202 41.2586 34.2871 40.7147 34.11 40.1075C33.9835 39.6394 33.6293 39.3991 33.0095 39.3991C31.4662 39.3991 29.9102 39.3991 28.3669 39.3991C27.8736 39.3991 27.7977 39.3232 27.7977 38.8298C27.7977 38.1341 27.7977 37.4383 27.7977 36.7426C27.7977 36.1733 27.823 36.148 28.4049 36.148C30.2518 36.148 32.086 36.148 33.9329 36.148C34.5527 36.148 34.9575 35.7432 34.9575 35.1866C34.9575 34.6048 34.5148 34.162 33.9076 34.162C31.5421 34.162 29.1892 34.162 26.8236 34.162C26.6718 34.162 26.5074 34.2 26.3682 34.2506C25.799 34.453 25.6092 34.9084 25.6219 35.4649C25.6219 37.1221 25.6219 38.7919 25.6219 40.449C25.6219 42.1062 25.6219 43.7759 25.6219 45.4331C25.6219 46.2427 26.0773 46.6854 26.8869 46.6854C29.1892 46.6854 31.5041 46.6854 33.8064 46.6854C33.9202 46.6854 34.0341 46.6981 34.1479 46.6854Z" fill="black"/>
<path d="M18.0319 42.4477C17.9813 41.967 17.7789 41.5369 17.488 41.1574C16.7796 40.2593 15.755 39.8924 14.7177 39.5888C13.7689 39.3105 12.7822 39.1714 11.8967 38.7033C11.0239 38.2353 10.7076 37.1474 11.6437 36.401C12.2256 35.9456 12.9087 35.8571 13.6171 35.9709C14.452 36.1101 15.249 36.3631 15.9447 36.8691C16.4001 37.198 17.1338 37.0209 17.45 36.5528C17.7789 36.0848 17.6651 35.5661 17.1464 35.1866C15.7676 34.2 14.199 33.8837 12.5419 34.0482C11.9726 34.1114 11.3781 34.2379 10.8847 34.4909C9.18964 35.3511 8.4939 37.0715 9.08844 38.8804C9.25289 39.3864 9.55649 39.8292 10.0119 40.1707C10.7962 40.7526 11.7196 41.0183 12.6304 41.2839C13.478 41.5243 14.3635 41.6381 15.1351 42.0935C15.6917 42.4224 15.9827 42.9031 15.8688 43.5356C15.7676 44.1175 15.3755 44.497 14.8189 44.6994C13.5412 45.1548 12.3395 44.8638 11.1757 44.2693C10.7329 44.0416 10.3281 43.7254 9.87274 43.5103C9.39204 43.2826 8.83545 43.523 8.5698 44.0163C8.35475 44.4084 8.50655 44.9903 8.91135 45.2813C10.3028 46.2933 11.8461 46.8499 13.5792 46.8499C14.6671 46.8499 15.7044 46.6728 16.6025 46.0276C17.8675 45.1548 18.1964 43.9025 18.0319 42.4477Z" fill="black"/>
<path d="M43.7492 34.0988C43.0914 34.0988 42.674 34.5542 42.674 35.2626C42.674 36.9829 42.674 38.6907 42.674 40.4111C42.674 42.1821 42.674 43.9404 42.674 45.7114C42.674 46.268 43.1041 46.7107 43.6607 46.7487C44.3817 46.7866 44.8751 46.3059 44.8877 45.5343C44.8877 42.1188 44.8877 38.6907 44.8877 35.2752C44.8751 34.5921 44.3817 34.0988 43.7492 34.0988Z" fill="black"/>
<path d="M15.7044 55.3506C15.0592 54.8952 14.4014 54.8573 13.7436 55.3253C13.6045 55.4265 13.5033 55.4518 13.3768 55.2747C13.3009 55.1609 13.0985 55.0723 12.972 55.0976C12.8961 55.1103 12.7822 55.3253 12.7822 55.4518C12.7696 56.1855 12.7696 56.9192 12.7696 57.6656C12.7696 58.3993 12.7696 59.133 12.7696 59.8793C12.7696 60.0944 12.8075 60.2588 13.0732 60.2588C13.3262 60.2588 13.3894 60.0944 13.3894 59.8793C13.3894 59.4492 13.3768 59.0191 13.3768 58.589C13.3768 58.4752 13.44 58.3613 13.478 58.2475C13.5792 58.2854 13.693 58.3107 13.7816 58.374C14.2876 58.7408 15.1478 58.7282 15.6538 58.3487C16.3242 57.8427 16.4127 57.1469 16.3116 56.4006C16.2483 55.9578 16.0586 55.6036 15.7044 55.3506ZM14.5912 58.1083C13.9334 58.1336 13.4021 57.5517 13.4021 56.856C13.3894 56.1223 13.8954 55.553 14.5532 55.5404C15.2743 55.5277 15.755 56.0211 15.755 56.7801C15.7423 57.6656 15.2616 58.083 14.5912 58.1083Z" fill="black"/>
<path d="M41.3331 54.2374C41.3331 54.0224 41.2446 53.8706 41.0042 53.8706C40.7765 53.8706 40.7006 54.035 40.7006 54.2374C40.7006 54.4904 40.7259 54.7434 40.7006 54.9964C40.688 55.1229 40.65 55.2747 40.5741 55.338C40.5235 55.3759 40.3464 55.3 40.2452 55.2368C39.7898 54.9332 39.1067 54.9205 38.626 55.2115C37.9176 55.6416 37.7152 56.2994 37.7785 57.071C37.8291 57.6909 38.1327 58.1716 38.664 58.4372C39.2079 58.7155 39.8025 58.7408 40.3338 58.336C40.4729 58.2348 40.5741 58.2475 40.7133 58.3613C40.8145 58.4499 41.0295 58.5511 41.1054 58.5005C41.2193 58.4372 41.3078 58.2475 41.3078 58.0957C41.3331 57.4632 41.3205 56.8307 41.3205 56.2108C41.3331 55.5657 41.3331 54.8952 41.3331 54.2374ZM39.5874 58.0957C38.879 58.1083 38.3857 57.6023 38.373 56.8433C38.3604 56.097 38.8537 55.5277 39.5242 55.5277C40.1061 55.5277 40.7386 55.9199 40.7006 56.7927C40.7259 57.5644 40.2705 58.0957 39.5874 58.0957Z" fill="black"/>
<path d="M32.2252 55.1988C31.7065 54.9205 31.1499 54.9332 30.6439 55.1862C29.8723 55.5783 29.5813 56.312 29.7331 57.2734C29.8343 57.9439 30.4036 58.4878 31.1879 58.6143C31.833 58.7155 32.4023 58.5131 32.8071 57.9945C32.883 57.8933 32.845 57.7162 32.8577 57.5644C32.6932 57.5897 32.5288 57.6023 32.377 57.6276C32.3517 57.6276 32.339 57.6782 32.3137 57.7035C31.7698 58.3487 30.8337 58.2601 30.4036 57.5264C30.2518 57.2608 30.3403 57.071 30.6566 57.0584C30.9981 57.0457 31.3523 57.0584 31.6939 57.0584V57.0457C32.0607 57.0457 32.4276 57.0457 32.7944 57.0457C33.0221 57.0457 33.1359 56.9192 33.1359 56.6789C33.1233 56.0084 32.8197 55.5151 32.2252 55.1988ZM32.1493 56.5271C31.8963 56.5397 31.6433 56.5271 31.3903 56.5271C31.1373 56.5271 30.8843 56.5397 30.6313 56.5271C30.3656 56.5144 30.2644 56.35 30.4036 56.1223C30.6313 55.7428 30.9602 55.5024 31.4029 55.5151C31.8204 55.5277 32.1746 55.6795 32.3896 56.0843C32.5541 56.3753 32.4908 56.5144 32.1493 56.5271Z" fill="black"/>
<path d="M19.3096 55.1229C18.715 54.8699 17.8169 55.047 17.3994 55.5024C16.8808 56.097 16.8049 56.7927 17.0326 57.5138C17.2603 58.2095 17.7789 58.5511 18.4873 58.6396C19.0692 58.7155 19.8029 58.3993 20.0686 57.9186C20.1192 57.8174 20.0939 57.6656 20.1065 57.5391C19.98 57.5391 19.8409 57.5011 19.727 57.5517C19.6132 57.6023 19.512 57.7162 19.4234 57.8174C18.9301 58.336 18.0066 58.2095 17.6651 57.577C17.488 57.2355 17.5765 57.0837 17.956 57.071C18.2849 57.0584 18.6138 57.071 18.9301 57.071V57.0584C19.2716 57.0584 19.6005 57.0584 19.9421 57.0584C20.1824 57.0584 20.3089 56.9445 20.3089 56.6915C20.3342 55.9831 19.9547 55.3886 19.3096 55.1229ZM19.3981 56.5397C19.1451 56.5524 18.8921 56.5397 18.6391 56.5397C18.3988 56.5397 18.1584 56.5524 17.9181 56.5397C17.6145 56.5271 17.5133 56.35 17.6524 56.097C17.8675 55.7175 18.209 55.5277 18.6391 55.5277C19.0819 55.5277 19.4234 55.7301 19.6385 56.1349C19.765 56.3373 19.6511 56.5271 19.3981 56.5397Z" fill="black"/>
<path d="M10.3028 55.0091C9.26554 55.0091 8.4939 55.7807 8.48125 56.818C8.48125 57.868 9.21494 58.6396 10.2396 58.6523C11.3022 58.6523 12.0359 57.8933 12.0359 56.8054C12.0359 55.7175 11.1757 54.9964 10.3028 55.0091ZM10.2396 58.0957C9.55649 58.083 9.06314 57.5517 9.07579 56.8307C9.08844 56.0843 9.59444 55.5277 10.2522 55.5404C10.9606 55.553 11.4413 56.059 11.4413 56.8054C11.4287 57.577 10.948 58.1083 10.2396 58.0957Z" fill="black"/>
<path d="M35.0081 55.1356C34.7804 55.2368 34.616 55.2621 34.3883 55.1356C34.0594 54.9585 33.8443 55.1103 33.8443 55.4898C33.8443 55.9199 33.8443 56.35 33.8443 56.7801C33.8443 57.2102 33.8443 57.6403 33.8443 58.0704C33.8443 58.3107 33.857 58.5258 34.1732 58.5384C34.4136 58.5511 34.5148 58.3993 34.5148 58.0451C34.5148 57.5391 34.5021 57.0331 34.5148 56.5271C34.5274 56.1602 34.6033 55.8187 34.9955 55.6416C35.7545 55.2874 36.4249 55.6922 36.4629 56.5524C36.4882 57.0837 36.4629 57.6276 36.4502 58.1589C36.4502 58.3487 36.5008 58.5005 36.7159 58.5258C36.9183 58.5384 37.0448 58.4119 37.0321 58.2222C37.0195 57.5264 37.0195 56.8307 36.9815 56.1476C36.9309 55.2241 35.843 54.7434 35.0081 55.1356Z" fill="black"/>
<path d="M22.0673 55.2241C21.9028 55.338 21.8016 55.3253 21.6625 55.1862C21.5739 55.1103 21.3842 55.0597 21.2703 55.0976C21.1944 55.1229 21.1185 55.3127 21.1185 55.4265C21.1059 55.8819 21.1059 56.3373 21.1059 56.7801C21.1059 57.2481 21.1059 57.7288 21.1059 58.1969C21.1059 58.3866 21.1565 58.5384 21.3842 58.5511C21.6245 58.5637 21.6878 58.3993 21.6878 58.1969C21.6878 58.1336 21.6878 58.0704 21.6878 58.0071C21.6878 57.4885 21.6751 56.9698 21.7004 56.4638C21.7257 55.8946 22.1305 55.5277 22.6871 55.5277C23.2564 55.5277 23.6232 55.8693 23.6738 56.4638C23.6865 56.6156 23.6738 56.7548 23.6738 56.9066C23.6738 57.3493 23.6612 57.7921 23.6738 58.2348C23.6738 58.4246 23.775 58.589 23.9774 58.5384C24.0913 58.5131 24.2431 58.3487 24.2557 58.2348C24.281 57.5644 24.2937 56.8813 24.2431 56.2108C24.1545 55.1862 22.9275 54.6422 22.0673 55.2241Z" fill="black"/>
<path d="M44.2932 56.8307C44.0149 56.6915 43.6986 56.6283 43.4077 56.5144C43.2559 56.4512 43.0914 56.3879 42.9776 56.2741C42.7372 56.0337 42.8005 55.7554 43.1041 55.6163C43.4583 55.4392 43.9137 55.553 44.1414 55.8693C44.2805 56.0464 44.445 56.2235 44.66 56.059C44.8751 55.8946 44.7106 55.6795 44.6094 55.5024C44.5841 55.4645 44.5335 55.4265 44.4956 55.3886C44.0655 55.0091 43.3571 54.8826 42.8384 55.1482C42.4969 55.3253 42.2312 55.5783 42.1933 55.9831C42.1553 56.3373 42.3704 56.5903 42.6487 56.7548C42.8764 56.8939 43.142 56.9698 43.395 57.071C43.5974 57.1469 43.8125 57.2102 44.0022 57.3114C44.3185 57.5011 44.3185 57.8047 44.0022 58.0071C43.6986 58.2095 43.2306 58.1716 42.9523 57.9059C42.8637 57.8174 42.7878 57.6909 42.674 57.6529C42.5475 57.6023 42.383 57.6403 42.2439 57.6403C42.2565 57.7794 42.2312 57.9312 42.3071 58.0324C42.5981 58.4878 43.0661 58.6017 43.648 58.6523C43.7998 58.6143 44.0528 58.589 44.2679 58.4878C44.6221 58.3234 44.8624 58.0071 44.8751 57.6276C44.8751 57.2608 44.6221 56.9825 44.2932 56.8307Z" fill="black"/>
<path d="M26.4568 55.5657C26.6465 55.5657 26.8363 55.5404 26.8363 55.3C26.8363 55.0344 26.6339 55.0597 26.4441 55.047C26.4188 55.047 26.3809 55.047 26.3556 55.047C26.0014 55.0344 25.9255 54.9711 25.9381 54.6169C25.9508 54.3766 25.9128 54.1868 25.6219 54.1868C25.3436 54.1868 25.2677 54.3766 25.3056 54.6169C25.3436 54.832 25.2803 54.9711 25.0526 55.047C24.9641 55.0723 24.8755 55.1988 24.8502 55.2874C24.8376 55.3633 24.9135 55.5151 24.9894 55.5404C25.3183 55.6542 25.3309 55.8946 25.3183 56.1729C25.3056 56.3879 25.3183 56.5903 25.3183 56.8054C25.3183 57.0204 25.3183 57.2481 25.3183 57.4632C25.3183 58.2981 25.5966 58.5764 26.4441 58.5637C26.6212 58.5637 26.811 58.5637 26.8236 58.336C26.8363 58.083 26.6465 58.0704 26.4568 58.0577C26.052 58.0324 25.9381 57.9186 25.9255 57.5138C25.9128 57.0457 25.9255 56.565 25.9255 56.097C25.9381 55.6416 26.0014 55.5783 26.4568 55.5657Z" fill="black"/>
<path d="M28.9362 55.0597C28.8476 55.0344 28.7211 55.0723 28.6452 55.1356C28.4175 55.2874 28.2025 55.3886 27.9874 55.1356C27.9495 55.0976 27.8736 55.0976 27.8356 55.085C27.5573 55.0976 27.5067 55.2494 27.5067 55.4645C27.5067 56.3626 27.5067 57.2481 27.5067 58.1463C27.5067 58.3613 27.532 58.5637 27.8103 58.5637C28.076 58.5637 28.1392 58.374 28.1266 58.1463C28.1266 57.7288 28.1139 57.3114 28.1266 56.8813C28.1392 56.0464 28.2531 55.8946 29.0374 55.6163C29.1386 55.5783 29.2651 55.4012 29.2524 55.3C29.2271 55.1988 29.0627 55.0976 28.9362 55.0597Z" fill="black"/>
<path d="M80.9906 37.2486C80.181 36.4896 79.1943 36.0089 77.9926 36.0974C77.5751 36.0974 77.1197 36.0468 76.6896 36.3378C76.3228 36.5781 75.8927 36.7299 75.5005 36.9323C75.0198 37.1853 74.7289 37.6281 74.4253 38.0582C74.0079 38.6401 73.7928 39.2979 73.7169 40.0063C73.6031 41.0942 73.932 42.0556 74.5771 42.9537C75.2602 43.9025 76.1836 44.3958 77.2715 44.6867C78.3847 44.9903 79.4094 44.6235 80.3455 44.0795C81.5978 43.3459 82.2556 42.1694 82.3948 40.7653C82.5339 39.3864 81.99 38.172 80.9906 37.2486Z" fill="black"/>
<path d="M97.7771 36.1227C96.7398 36.0215 95.6898 36.0974 94.6525 36.0974C94.4501 36.0974 94.3742 36.1733 94.3869 36.3757C94.3995 36.9956 94.3869 37.6154 94.3869 38.2353C94.3869 38.8678 94.3869 39.5003 94.3869 40.1328C94.3869 40.3225 94.4375 40.4617 94.6652 40.449C95.576 40.449 96.4868 40.4617 97.4102 40.449C98.1313 40.4364 98.8144 40.2846 99.4216 39.8798C99.7125 39.69 99.8264 39.4117 99.9908 39.1334C100.32 38.5642 100.294 37.9949 100.029 37.4257C99.6113 36.4516 98.6879 36.2113 97.7771 36.1227Z" fill="black"/>
</svg>
