<svg width="81" height="80" viewBox="0 0 81 80" fill="none" xmlns="http://www.w3.org/2000/svg">
<path fill-rule="evenodd" clip-rule="evenodd" d="M27.0899 37.9641C27.0827 38.4618 27.1793 38.9555 27.3737 39.4138C27.5681 39.872 27.856 40.2847 28.2189 40.6254C28.5819 40.9769 29.0106 41.2534 29.4806 41.4391C29.9505 41.6248 30.4524 41.7162 30.9576 41.708C31.4573 41.7166 31.9536 41.6238 32.4164 41.435C32.8791 41.2463 33.2988 40.9656 33.6499 40.6099C34.0127 40.2693 34.3005 39.8568 34.4949 39.3987C34.6892 38.9407 34.786 38.4471 34.7789 37.9495C34.7789 36.7312 34.3768 35.7616 33.5725 35.0405C32.8605 34.404 31.9837 34.0857 30.9421 34.0857C29.9005 34.0857 29.0186 34.4056 28.2962 35.0453C27.4926 35.7638 27.0905 36.7367 27.0899 37.9641ZM24.175 38.0173C24.175 35.8599 24.8822 34.1463 26.2966 32.8764C27.5658 31.7523 29.1163 31.1902 30.9479 31.1902C32.7796 31.1902 34.321 31.7523 35.5722 32.8764C36.9866 34.1457 37.6937 35.8502 37.6937 37.9902C37.6937 39.8212 37.032 41.3807 35.7086 42.6686C34.4026 43.9585 32.8247 44.6034 30.975 44.6034C29.1047 44.6034 27.5001 43.9688 26.1612 42.6996C24.8364 41.4071 24.1744 39.8463 24.175 38.0173Z" fill="#4D4D4D"/>
<path opacity="0.75" fill-rule="evenodd" clip-rule="evenodd" d="M41.1029 25.6343C41.1029 25.6343 42.9294 23.1683 53.7074 27.245C65.1355 31.5704 61.645 35.1392 61.4525 35.3433C61.26 35.5474 57.0682 38.2049 46.6684 35.6123C35.43 32.8077 41.1029 25.6343 41.1029 25.6343Z" fill="#E6E6E6"/>
<path d="M61.4516 32.2872C61.9769 31.8799 62.8533 31.848 63.6698 31.9544C66.1048 32.2727 68.1258 34.8567 68.1258 37.0914C68.1258 40.5432 63.2345 41.3403 62.5486 40.8102C62.2584 42.5776 60.2326 43.2906 58.6315 43.2906C57.5741 43.2906 56.7209 43.4474 56.034 43.2906C55.9073 34.5297 53.7828 34.074 54.6922 32.9789C55.679 31.7929 57.0788 31.0518 58.6344 31.0518C59.6647 31.0518 60.9775 31.6671 61.4516 32.2872Z" fill="url(#paint0_linear_601_4090)"/>
<path d="M61.4516 32.2872C60.9775 31.6671 59.6648 31.0518 58.6345 31.0518C57.0818 31.0518 55.6819 31.7929 54.6951 32.9789C53.7858 34.074 55.9102 34.5268 56.0369 43.2906C56.7238 43.4474 57.5771 43.2906 58.6345 43.2906C60.2355 43.2906 62.1172 42.6512 62.5515 40.8102C62.8892 39.3668 61.7911 37.0721 61.6809 35.8386C61.4758 33.6648 61.5783 33.7751 61.4516 32.2872Z" fill="url(#paint1_linear_601_4090)"/>
<path opacity="0.1" fill-rule="evenodd" clip-rule="evenodd" d="M59.4568 43.1958C59.4568 43.1958 63.8015 42.9424 62.2981 38.3403L61.8473 36.7925C62.7808 41.3181 59.4568 40.7608 59.4568 43.1958Z" fill="black"/>
<path fill-rule="evenodd" clip-rule="evenodd" d="M51.4051 46.4744H51.616L51.8336 46.5915L51.943 46.7395L51.9846 46.9407V52.6379L51.9062 52.8662L51.7853 52.9987L51.6044 53.078L51.4776 53.0935L51.3567 53.0674L51.1874 52.9716L51.0965 52.813L51.0481 52.6117V46.8875L51.1148 46.7027L51.2358 46.5644L51.4051 46.4744Z" fill="#4D4D4D"/>
<path fill-rule="evenodd" clip-rule="evenodd" d="M26.4863 46.3661H26.704L27.1635 46.4561L27.7014 46.6679L28.1058 46.9862L28.3351 47.2426L28.5227 47.5328L28.6379 47.8878L28.6678 48.0813V49.8933L28.5837 50.0578L28.366 50.0955H25.7917L25.574 50.1323L25.4589 50.259V51.3512L25.5199 51.5253L25.695 51.8156L25.8217 51.9316L26.1419 52.1068L26.3412 52.16L26.5705 52.1812L26.7765 52.1706L27.0058 52.1174L27.1809 52.0429L27.4711 51.8494L27.5863 51.712L27.6704 51.5582L27.7314 51.3938L27.7556 51.1925L27.8281 51.0281L27.9307 50.9013L28.1058 50.8104L28.3051 50.8007L28.4802 50.8907L28.5953 51.002L28.6678 51.1819V51.3676L28.5527 51.7488L28.2935 52.2045L28.0458 52.4483L27.7556 52.6495L27.4412 52.8139L26.8491 52.9784H26.4022L26.1535 52.9416L25.5915 52.7482L25.2896 52.5547L25.042 52.3273L24.7217 51.9239L24.655 51.7546L24.5525 51.3889L24.5225 48.2622L24.565 47.8433L24.6976 47.4989L24.982 47.0704L25.2471 46.8421L25.695 46.5615L26.287 46.397L26.4863 46.3661ZM26.4438 47.1874L26.1961 47.2406L25.9968 47.3306L25.695 47.5686L25.574 47.7263L25.4889 47.9014L25.4473 48.1287V48.9027L25.4773 49.131L25.6224 49.2577L25.8817 49.2838H27.3502L27.5979 49.2471L27.7314 49.1039L27.743 48.092L27.7014 47.8801L27.6163 47.7002L27.4953 47.5463L27.3386 47.4186L27.1635 47.3219L26.9633 47.2484L26.734 47.1952L26.4438 47.1874Z" fill="#4D4D4D"/>
<path fill-rule="evenodd" clip-rule="evenodd" d="M31.6379 46.3554H31.8671L32.3876 46.456L32.5927 46.5353L32.9555 46.7211L33.2573 46.9542L33.6201 47.3934L33.7768 47.7485L33.8252 47.9662L33.8378 52.4705L33.7952 52.6881L33.6801 52.841L33.5176 52.9522L33.3724 52.9793L33.2757 52.9687L33.1006 52.8623L32.9855 52.7143L32.9245 52.306V48.2467L32.8945 48.0194L32.8404 47.8288L32.6227 47.5105L32.4776 47.3828L32.1032 47.2193L31.8671 47.1816H31.6195L31.3476 47.23L30.9849 47.4205L30.8397 47.5473L30.653 47.8762L30.5921 48.0832L30.5805 52.5237L30.4953 52.751L30.3744 52.9048L30.1751 52.9793L29.9459 52.9261L29.7824 52.8149L29.6982 52.6349L29.6672 52.4066V48.1461L29.6982 47.9188L29.7524 47.7117L29.9159 47.3567L30.1451 47.0549L30.4354 46.8004L30.7672 46.5934L31.1725 46.4454L31.6379 46.3554Z" fill="#4D4D4D"/>
<path fill-rule="evenodd" clip-rule="evenodd" d="M36.6867 46.3661H36.9034L37.363 46.4561L37.9009 46.6679L38.3062 46.9862L38.5355 47.2406L38.7232 47.5309L38.8373 47.8859L38.8683 48.0794V49.8914L38.7831 50.0558L38.5655 50.0936H35.9912L35.7735 50.1303L35.6593 50.257V51.3493L35.7193 51.5234L35.8944 51.8136L36.0212 51.9297L36.3423 52.1048L36.5416 52.158L36.7709 52.1764L36.976 52.1658L37.2063 52.1126L37.3814 52.0381L37.6716 51.8446L37.7857 51.7072L37.8709 51.5534L37.9308 51.3889L37.955 51.1877L38.0276 51.0232L38.1311 50.8965L38.3062 50.8056L38.5055 50.7959L38.6806 50.8859L38.7957 50.9971L38.8683 51.1771V51.3628L38.7531 51.744L38.4929 52.1996L38.2453 52.4434L37.955 52.6446L37.6416 52.8149L37.0486 52.9794H36.6016L36.354 52.9426L35.7919 52.7491L35.4901 52.5556L35.2424 52.3283L34.9222 51.9249L34.8554 51.7556L34.7529 51.3899L34.7219 48.2632L34.7645 47.8443L34.898 47.4999L35.1814 47.0713L35.4475 46.843L35.8944 46.5625L36.4865 46.398L36.6867 46.3661ZM36.6442 47.1874L36.3965 47.2406L36.1972 47.3306L35.8944 47.5686L35.7735 47.7263L35.6893 47.9014L35.6468 48.1287V48.9027L35.6768 49.131L35.8219 49.2577L36.0821 49.2838H37.5507L37.7983 49.2471L37.9318 49.1L37.9444 48.0881L37.9018 47.8762L37.8177 47.6963L37.6967 47.5425L37.539 47.4148L37.3639 47.318L37.1647 47.2445L36.9354 47.1913L36.6442 47.1874Z" fill="#4D4D4D"/>
<path fill-rule="evenodd" clip-rule="evenodd" d="M42.1148 46.3661H42.5317L43.0213 46.4822L43.444 46.6679L43.7884 46.9117L43.9819 47.1129L44.2121 47.4467L44.3263 47.7118L44.3989 48.0136V48.1945L44.3573 48.3319L44.2663 48.448L44.1512 48.5225L43.9945 48.5757L43.8194 48.5486L43.6743 48.4857L43.5166 48.2574L43.3415 47.6856L43.1664 47.4844L43.0512 47.3935L42.792 47.2668L42.4718 47.1768L42.0848 47.1923L41.7762 47.2929L41.5353 47.4467L41.3476 47.6373L41.2141 47.8869L41.1841 48.0407L41.1725 52.396L41.1116 52.7143L41.039 52.8255L40.7797 52.9687L40.6762 52.9794L40.4769 52.8894L40.3628 52.7994L40.2902 52.6882L40.2593 52.5344V48.0136L40.3744 47.5744L40.7672 47.0017L40.9848 46.8217L41.3476 46.5934L41.6378 46.4822L42.1148 46.3661Z" fill="#4D4D4D"/>
<path fill-rule="evenodd" clip-rule="evenodd" d="M47.2509 46.4802H49.5049L49.77 46.5596L49.9393 46.724L49.9819 46.8033L49.9703 46.9678L49.801 47.1265L49.5465 47.2232C49.4684 47.2431 49.3962 47.2812 49.3356 47.3345L49.3231 47.4312L49.474 47.7862L49.5349 48.03V49.4676L49.384 49.9291L49.1238 50.2996L48.7668 50.5927L48.5424 50.7195L48.0587 50.9129L47.4424 51.0194L47.2189 51.1277L47.0564 51.2864L46.9955 51.5302L47.1464 51.7053L48.0596 51.8542L48.5433 52.0477L48.9487 52.3292L49.2631 52.6524L49.474 53.0654L49.5349 53.3034V53.5849L49.474 53.8287L49.2447 54.2312L48.9303 54.5649L48.7368 54.7033L48.2715 54.9258L47.7162 55.0786L47.3718 55.1048L47.039 55.0786L46.4895 54.9306L46.0358 54.7081L45.8423 54.5698L45.6711 54.4082L45.3876 54.0474L45.2357 53.5869V53.4592L45.2841 53.3373L45.436 53.1622L45.7194 53.0935L45.9913 53.1835L46.1364 53.3586L46.2873 53.8084L46.4082 53.9942L46.6017 54.1422L46.8136 54.2592L47.097 54.3279L47.4424 54.355L47.7742 54.3173L48.0161 54.2273L48.228 54.1006L48.3905 53.9361L48.5114 53.7426L48.5724 53.5153V53.3296L48.4514 53.0277L48.3005 52.8526L48.1186 52.7201L47.8768 52.603L46.9645 52.4656L46.6927 52.3805L46.4692 52.2644L46.2757 52.1154L46.1364 51.9413L46.0638 51.713V51.4479L46.2273 50.9981L46.2573 50.8443L46.2148 50.7649L45.822 50.4892L45.5085 50.1661L45.2967 49.7472L45.2357 49.5141L45.2241 48.1306L45.2667 47.8288L45.3567 47.6111L45.6169 47.2406L45.7804 47.0762L46.1674 46.8004L46.6636 46.607L47.2509 46.4802ZM47.2199 47.3335L46.652 47.5028L46.3686 47.7147L46.1993 48.0165L46.1867 49.2461L46.2293 49.4947L46.3502 49.6882L46.622 49.9059L46.743 49.9697L47.009 50.0539L47.3592 50.0858L47.7026 50.0481L47.9871 49.9736L48.108 49.9107L48.3914 49.7037L48.5549 49.4067V48.0494L48.4824 47.8162L48.3315 47.6518L48.138 47.5134L47.7636 47.3654L47.4124 47.3335H47.2199Z" fill="#4D4D4D"/>
<path fill-rule="evenodd" clip-rule="evenodd" d="M54.8858 46.3661L55.3879 46.3767L55.7923 46.4822L56.1434 46.6312L56.5778 46.9214L56.8922 47.3132L57.0557 47.6208L57.1708 47.9759V51.3618L57.0673 51.7275L56.6929 52.2993L56.2885 52.6282L55.7923 52.8662L55.3753 52.9561L54.9409 52.9832L54.6923 52.93L54.1186 52.7549L53.5508 52.3476L53.2363 51.9549L53.0429 51.4354V50.7891L53.1638 50.4341L53.2489 50.2861L53.4482 50.021L53.6959 49.7772L53.9861 49.576L54.3179 49.4222L54.7107 49.3109L54.9284 49.2838L55.9374 49.2683L56.1434 49.2209L56.2276 49.0671V47.9643L56.1734 47.8008L55.9857 47.5251L55.8406 47.408L55.5204 47.2426L55.3337 47.1894L55.086 47.1787L54.8558 47.2048L54.4814 47.3161L54.2038 47.5328L54.0161 47.8133L53.9251 48.1897L53.8584 48.3541L53.7384 48.4702L53.5691 48.5602L53.3331 48.5341L53.1764 48.4441L53.0729 48.3164L53.0312 48.1229L53.0429 47.9111L53.2363 47.3916L53.4356 47.1216L53.6833 46.8837L54.1186 46.5934L54.4814 46.4561L54.8858 46.3661ZM55.0009 50.081L54.5356 50.1922L54.3605 50.3083L54.2154 50.4302L54.0877 50.584L53.9967 50.7485L53.9426 51.2042L53.9851 51.4315L54.0577 51.625L54.3169 51.9152L54.6797 52.1087L54.9274 52.1619L55.1992 52.1725L55.4469 52.1348L55.653 52.0555L55.9848 51.8281L56.0999 51.6792L56.1841 51.4992L56.245 51.2873L56.2266 50.2696L56.1299 50.1216L55.8638 50.0848L55.0009 50.081Z" fill="#4D4D4D"/>
<path fill-rule="evenodd" clip-rule="evenodd" d="M51.9429 46.7395L51.9855 46.9407V52.6378L51.9062 52.8662L51.7852 52.9987L51.6043 53.078L51.4776 53.0935L51.3567 53.0674L51.1874 52.9706L51.0964 52.812L51.0481 52.6108V46.8875L51.1148 46.7027L51.2358 46.5644L51.405 46.4744H51.6159L51.8336 46.5915L51.9429 46.7395ZM28.6379 47.8869L28.6678 48.0803V49.8923L28.5837 50.0568L28.366 50.0945H25.7917L25.574 50.1313L25.4589 50.258V51.3502L25.5199 51.5243L25.695 51.8146L25.8217 51.9307L26.1419 52.1058L26.3412 52.159L26.5705 52.1803L26.7765 52.1696L27.0058 52.1164L27.1809 52.0419L27.4711 51.8484L27.5863 51.7111L27.6704 51.5572L27.7314 51.3928L27.7556 51.1916L27.8281 51.0271L27.9307 50.9004L28.1058 50.8094L28.3051 50.7997L28.4802 50.8897L28.5953 51.001L28.6678 51.1809V51.3667L28.5527 51.7478L28.2935 52.2035L28.0458 52.4473L27.7556 52.6485L27.4412 52.8129L26.8491 52.9774H26.4022L26.1535 52.9406L25.5915 52.7472L25.2896 52.5537L25.042 52.3263L24.7217 51.9229L24.655 51.7536L24.5525 51.3879L24.5225 48.2612L24.565 47.8423L24.6976 47.4979L24.982 47.0694L25.2471 46.8411L25.695 46.5605L26.287 46.3961L26.4863 46.3593H26.704L27.1635 46.4493L27.7014 46.6611L28.1058 46.9794L28.3351 47.2425L28.5227 47.5328L28.6379 47.8869ZM27.743 48.0881L27.7014 47.8762L27.6163 47.6963L27.4953 47.5424L27.3386 47.4147L27.1635 47.318L26.9633 47.2445L26.734 47.1913H26.4438L26.1961 47.2445L25.9968 47.3345L25.695 47.5724L25.574 47.7263L25.4889 47.9014L25.4473 48.1287V48.9026L25.4773 49.131L25.6224 49.2577L25.8817 49.2838H27.3502L27.5979 49.247L27.7314 49.1039L27.743 48.0881ZM33.7768 47.7485L33.6201 47.3935L33.2573 46.9523L32.9554 46.7192L32.5927 46.5334L32.3866 46.4541L31.8671 46.3574H31.6378L31.1725 46.4473L30.7671 46.5953L30.4353 46.8024L30.1451 47.0568L29.9158 47.3586L29.7523 47.7137L29.6981 47.9207L29.6672 48.1481V52.4047L29.6981 52.633L29.7823 52.8129L29.9458 52.9242L30.1751 52.9774L30.3744 52.9029L30.4953 52.7491L30.5804 52.5218L30.592 48.0813L30.653 47.8743L30.8397 47.5454L30.9848 47.4186L31.3476 47.2251L31.6194 47.1768H31.8671L32.1031 47.2145L32.4775 47.378L32.6226 47.5057L32.8403 47.824L32.8945 48.0175L32.9245 48.2448V52.308L32.9854 52.7162L33.1005 52.8642L33.2757 52.9706L33.3724 52.9813L33.5175 52.9542L33.68 52.8429L33.7952 52.6901L33.8377 52.4724L33.8251 47.9681L33.7768 47.7485ZM38.8373 47.8869L38.8683 48.0803V49.8923L38.7832 50.0568L38.5655 50.0945H35.9912L35.7735 50.1313L35.6594 50.258V51.3502L35.7193 51.5243L35.8944 51.8146L36.0212 51.9307L36.3424 52.1058L36.5417 52.159L36.7709 52.1764L36.976 52.1657L37.2063 52.1125L37.3814 52.038L37.6716 51.8446L37.7857 51.7072L37.8709 51.5534L37.9309 51.3889L37.955 51.1877L38.0276 51.0232L38.1311 50.8965L38.3062 50.8056L38.5055 50.7959L38.6806 50.8858L38.7957 50.9971L38.8683 51.177V51.3628L38.7532 51.7439L38.4929 52.1996L38.2453 52.4434L37.955 52.6446L37.6416 52.8149L37.0486 52.9793H36.6016L36.354 52.9426L35.7919 52.7491L35.4901 52.5556L35.2424 52.3283L34.9222 51.9249L34.8554 51.7556L34.7529 51.3899L34.7219 48.2632L34.7645 47.8443L34.898 47.4999L35.1815 47.0713L35.4475 46.843L35.8944 46.5625L36.4865 46.398L36.6868 46.3612H36.9035L37.363 46.4512L37.9009 46.6631L38.3062 46.9813L38.5355 47.2358L38.7232 47.526L38.8373 47.8869ZM37.9434 48.0881L37.9009 47.8762L37.8167 47.6963L37.6958 47.5424L37.5381 47.4147L37.363 47.318L37.1637 47.2445L36.9344 47.1913H36.6442L36.3965 47.2445L36.1973 47.3345L35.8944 47.5724L35.7735 47.7263L35.6894 47.9014L35.6468 48.1287V48.9026L35.6768 49.131L35.8219 49.2577L36.0821 49.2838H37.5507L37.7983 49.247L37.9318 49.1L37.9434 48.0881ZM44.2123 47.4467L43.9821 47.1129L43.7886 46.9117L43.4461 46.6679L43.0233 46.4822L42.5338 46.3661H42.1169L41.6399 46.4822L41.3497 46.5934L40.9869 46.8217L40.7693 47.0017L40.3765 47.5744L40.2594 48.0165V52.5343L40.2904 52.6882L40.3629 52.7994L40.4771 52.8894L40.6764 52.9793L40.7799 52.9687L41.0392 52.8255L41.1117 52.7143L41.1727 52.396L41.1843 48.0426L41.2143 47.8888L41.3478 47.6392L41.5345 47.4457L41.7763 47.2919L42.085 47.1951L42.4719 47.1797L42.7921 47.2696L43.0514 47.3964L43.1665 47.4873L43.3416 47.6885L43.5167 48.2603L43.6744 48.4886L43.8195 48.5524L43.9946 48.5786L44.1514 48.5253L44.2665 48.4509L44.3574 48.3348L44.399 48.1964V48.0165L44.3265 47.7146L44.2123 47.4467ZM49.9394 46.724L49.982 46.8033L49.9704 46.9678L49.8011 47.1265L49.5466 47.2232C49.4685 47.2431 49.3963 47.2812 49.3357 47.3345L49.3232 47.4312L49.4741 47.7862L49.535 48.03V49.4676L49.3841 49.9291L49.1239 50.2996L48.7669 50.5927L48.5425 50.7195L48.0588 50.9129L47.4425 51.0194L47.219 51.1277L47.0565 51.2864L46.9956 51.5302L47.1465 51.7053L48.0597 51.8542L48.5434 52.0477L48.9488 52.3292L49.2632 52.6524L49.4741 53.0654L49.535 53.3034V53.5849L49.4741 53.8287L49.2448 54.2312L48.9304 54.5649L48.7369 54.7033L48.2716 54.9258L47.7163 55.0786L47.3719 55.1048L47.0391 55.0786L46.4896 54.9306L46.0359 54.7081L45.8424 54.5698L45.6712 54.4082L45.3877 54.0474L45.2358 53.5869V53.4592L45.2842 53.3373L45.4361 53.1622L45.7195 53.0935L45.9914 53.1835L46.1365 53.3586L46.2874 53.8084L46.4083 53.9942L46.6018 54.1422L46.8137 54.2592L47.0971 54.3279L47.4425 54.355L47.7743 54.3173L48.0162 54.2273L48.228 54.1006L48.3906 53.9361L48.5115 53.7426L48.5725 53.5153V53.3296L48.4515 53.0277L48.3006 52.8526L48.1187 52.7201L47.8769 52.603L46.9646 52.4656L46.6928 52.3805L46.4693 52.2644L46.2758 52.1154L46.1365 51.9413L46.0639 51.713V51.4479L46.2274 50.9981L46.2574 50.8443L46.2149 50.7649L45.8221 50.4892L45.5086 50.1661L45.2968 49.7472L45.2358 49.514L45.2242 48.1306L45.2668 47.8288L45.3568 47.6111L45.617 47.2406L45.7805 47.0762L46.1675 46.8004L46.6637 46.607L47.25 46.4899H49.5041L49.7691 46.5692L49.9394 46.724ZM48.556 48.0494L48.4834 47.8162L48.3325 47.6518L48.139 47.5134L47.7647 47.3654L47.4135 47.3335H47.22L46.6521 47.5028L46.3687 47.7146L46.1994 48.0165L46.1868 49.2461L46.2294 49.4947L46.3503 49.6882L46.6221 49.9059L46.7431 49.9697L47.0091 50.0539L47.3593 50.0858L47.7027 50.0481L47.9872 49.9736L48.1081 49.9107L48.3915 49.7037L48.555 49.4067L48.556 48.0494ZM57.1709 47.9768V51.3628L57.0673 51.7285L56.6929 52.3002L56.2886 52.6291L55.7923 52.8671L55.3753 52.9571L54.941 52.9842L54.6923 52.931L54.1187 52.7559L53.5508 52.3486L53.2364 51.9558L53.0429 51.4363V50.7901L53.1638 50.435L53.2489 50.287L53.4482 50.0219L53.6959 49.7782L53.9861 49.5769L54.3179 49.4231L54.7107 49.3119L54.9284 49.2848L55.9374 49.2693L56.1435 49.2219L56.2276 49.0681V47.9652L56.1734 47.8017L55.9858 47.526L55.8407 47.4089L55.5204 47.2425L55.3337 47.1893L55.0861 47.1787L54.8558 47.2048L54.4814 47.3161L54.2038 47.5328L54.0161 47.8133L53.9252 48.1897L53.8584 48.3541L53.7385 48.4702L53.5692 48.5602L53.3331 48.5341L53.1764 48.4441L53.0729 48.3164L53.0313 48.1229L53.0429 47.911L53.2364 47.3915L53.4357 47.1216L53.6833 46.8836L54.1187 46.5934L54.4814 46.456L54.8858 46.3661L55.3879 46.3767L55.7923 46.4822L56.1435 46.6311L56.5778 46.9214L56.8922 47.3132L57.0557 47.6208L57.1709 47.9768ZM56.246 51.2835L56.2276 50.2657L56.1309 50.1177L55.8648 50.081H55.0009L54.5356 50.1922L54.3605 50.3083L54.2154 50.4302L54.0877 50.584L53.9968 50.7485L53.9426 51.2041L53.9851 51.4315L54.0577 51.625L54.317 51.9152L54.6798 52.1087L54.9274 52.1619L55.1993 52.1725L55.4469 52.1348L55.653 52.0555L55.9848 51.8281L56.0999 51.6791L56.1841 51.4992L56.246 51.2835Z" fill="url(#paint2_radial_601_4090)"/>
<path fill-rule="evenodd" clip-rule="evenodd" d="M50.0246 37.2327V42.1201C50.0246 42.7534 49.8433 43.2513 49.4809 43.6138C49.3155 43.7852 49.1173 43.9215 48.898 44.0146C48.6788 44.1077 48.443 44.1557 48.2049 44.1557C47.9667 44.1557 47.7309 44.1077 47.5117 44.0146C47.2925 43.9215 47.0942 43.7852 46.9288 43.6138C46.5851 43.2513 46.4132 42.7534 46.4132 42.1201V37.2327C46.4132 35.314 45.7434 34.3549 44.4039 34.3556C43.0289 34.3556 42.341 35.3146 42.3404 37.2327V42.1201C42.3404 42.7534 42.1685 43.2513 41.8247 43.6138C41.6624 43.789 41.4647 43.9279 41.2448 44.0213C41.0248 44.1147 40.7876 44.1604 40.5487 44.1555C40.3061 44.1588 40.0653 44.1124 39.8412 44.0192C39.6171 43.9261 39.4145 43.7881 39.2456 43.6138C38.9025 43.2513 38.7306 42.7534 38.73 42.1201V36.3107C38.73 34.8086 39.2911 33.5236 40.4133 32.4556C41.5355 31.3688 42.8115 30.8258 44.2414 30.8264C45.617 30.8264 46.9295 31.3243 48.1787 32.3201C49.3184 31.3424 50.5579 30.8535 51.8975 30.8535C52.6488 30.8418 53.3948 30.9825 54.0903 31.267C54.7858 31.5514 55.4164 31.9739 55.9442 32.5088C56.4872 33.026 56.9171 33.6501 57.2068 34.3418C57.4965 35.0334 57.6398 35.7776 57.6275 36.5274V42.1201C57.6275 42.7534 57.4463 43.2513 57.0838 43.6138C56.9185 43.7851 56.7204 43.9214 56.5012 44.0145C56.2821 44.1076 56.0464 44.1556 55.8083 44.1556C55.5702 44.1556 55.3345 44.1076 55.1154 44.0145C54.8962 43.9214 54.6981 43.7851 54.5327 43.6138C54.1883 43.2513 54.0161 42.7534 54.0161 42.1201V37.2327C54.0161 36.4368 53.9439 35.8757 53.7994 35.5494C53.455 34.7716 52.8575 34.3823 52.0068 34.3817C50.6853 34.3817 50.0246 35.332 50.0246 37.2327Z" fill="#8ED300"/>
<path fill-rule="evenodd" clip-rule="evenodd" d="M50.0246 37.2327V42.1201C50.0246 42.7534 49.8433 43.2513 49.4809 43.6138C49.3155 43.7852 49.1173 43.9215 48.898 44.0146C48.6788 44.1077 48.443 44.1557 48.2049 44.1557C47.9667 44.1557 47.7309 44.1077 47.5117 44.0146C47.2925 43.9215 47.0942 43.7852 46.9288 43.6138C46.5851 43.2513 46.4132 42.7534 46.4132 42.1201V37.2327C46.4132 35.314 45.7434 34.3549 44.4039 34.3556C43.0289 34.3556 42.341 35.3146 42.3404 37.2327V42.1201C42.3404 42.7534 42.1685 43.2513 41.8247 43.6138C41.6624 43.789 41.4647 43.9279 41.2448 44.0213C41.0248 44.1147 40.7876 44.1604 40.5487 44.1555C40.3061 44.1588 40.0653 44.1124 39.8412 44.0192C39.6171 43.9261 39.4145 43.7881 39.2456 43.6138C38.9025 43.2513 38.7306 42.7534 38.73 42.1201V36.3107C38.73 34.8086 39.2911 33.5236 40.4133 32.4556C41.5355 31.3688 42.8115 30.8258 44.2414 30.8264C45.617 30.8264 46.9295 31.3243 48.1787 32.3201C49.3184 31.3424 50.5579 30.8535 51.8975 30.8535C52.6488 30.8418 53.3948 30.9825 54.0903 31.267C54.7858 31.5514 55.4164 31.9739 55.9442 32.5088C56.4872 33.026 56.9171 33.6501 57.2068 34.3418C57.4965 35.0334 57.6398 35.7776 57.6275 36.5274V42.1201C57.6275 42.7534 57.4463 43.2513 57.0838 43.6138C56.9185 43.7851 56.7204 43.9214 56.5012 44.0145C56.2821 44.1076 56.0464 44.1556 55.8083 44.1556C55.5702 44.1556 55.3345 44.1076 55.1154 44.0145C54.8962 43.9214 54.6981 43.7851 54.5327 43.6138C54.1883 43.2513 54.0161 42.7534 54.0161 42.1201V37.2327C54.0161 36.4368 53.9439 35.8757 53.7994 35.5494C53.455 34.7716 52.8575 34.3823 52.0068 34.3817C50.6853 34.3817 50.0246 35.332 50.0246 37.2327Z" fill="url(#paint3_linear_601_4090)"/>
<path fill-rule="evenodd" clip-rule="evenodd" d="M13.6255 35.1073C13.6255 33.6742 14.2782 32.5778 15.5836 31.8181C16.3278 31.3827 17.2346 31.1654 18.3039 31.166C19.4648 31.166 20.4713 31.4017 21.3232 31.8732C22.2481 32.3988 22.7105 33.0696 22.7105 33.8854C22.7105 34.2124 22.5473 34.5391 22.221 34.8654C22.0764 35.0145 21.9029 35.1324 21.7111 35.2119C21.5193 35.2915 21.3132 35.3309 21.1056 35.3279C20.6889 35.3279 20.1449 35.1373 19.4735 34.7561C18.8209 34.3737 18.3494 34.1824 18.0592 34.1824C17.5871 34.1824 17.3514 34.3727 17.352 34.7532C17.352 35.0976 17.5513 35.3698 17.9499 35.5697C18.2214 35.7322 18.7473 35.9135 19.5277 36.1134C20.6519 36.4036 21.4316 36.6758 21.8669 36.9299C23.0459 37.6187 23.6354 38.6506 23.6354 40.0256C23.6354 41.3678 23.1549 42.4642 22.1939 43.3149C21.2504 44.1533 20.0172 44.5725 18.4945 44.5725C16.9718 44.5725 15.6571 44.192 14.5504 43.431C13.4985 42.7241 12.9725 41.9169 12.9725 41.0095C12.9702 40.773 13.0146 40.5383 13.1033 40.319C13.1919 40.0997 13.3231 39.9 13.4891 39.7315C13.8335 39.3688 14.2243 39.1869 14.6587 39.1869C15.2217 39.1869 15.8567 39.4952 16.5636 40.1117C17.4149 40.8554 18.1037 41.2272 18.63 41.2272C18.9558 41.2373 19.2775 41.1523 19.5558 40.9824C19.8276 40.8015 19.9631 40.5829 19.9631 40.3294C19.9631 39.8779 19.5642 39.5516 18.7664 39.3504C17.025 38.9337 15.7558 38.4178 14.9586 37.8025C14.0692 37.1118 13.6249 36.2134 13.6255 35.1073Z" fill="#4D4D4D"/>
<path fill-rule="evenodd" clip-rule="evenodd" d="M27.0899 37.9641C27.0827 38.4618 27.1793 38.9555 27.3737 39.4138C27.5681 39.872 27.856 40.2847 28.2189 40.6254C28.5818 40.977 29.0105 41.2536 29.4804 41.4394C29.9504 41.6252 30.4524 41.7164 30.9576 41.708C31.4573 41.7166 31.9536 41.6238 32.4164 41.435C32.8791 41.2463 33.2988 40.9656 33.6499 40.6099C34.0127 40.2693 34.3005 39.8568 34.4949 39.3987C34.6892 38.9407 34.786 38.4471 34.7789 37.9495C34.7789 36.7312 34.3768 35.7616 33.5725 35.0405C32.8605 34.404 31.9837 34.0857 30.9421 34.0857C29.9005 34.0857 29.0186 34.4056 28.2962 35.0453C27.4926 35.7638 27.0905 36.7367 27.0899 37.9641ZM24.175 38.0173C24.175 35.8599 24.8822 34.1463 26.2966 32.8764C27.5658 31.7523 29.1163 31.1902 30.9479 31.1902C32.7796 31.1902 34.321 31.7523 35.5722 32.8764C36.9866 34.1457 37.6937 35.8502 37.6937 37.9902C37.6937 39.8212 37.032 41.3807 35.7086 42.6686C34.4026 43.9585 32.8247 44.6034 30.975 44.6034C29.1047 44.6034 27.5001 43.9688 26.1612 42.6996C24.8364 41.4071 24.1744 39.8463 24.175 38.0173Z" fill="url(#paint4_radial_601_4090)"/>
<path opacity="0.8" fill-rule="evenodd" clip-rule="evenodd" d="M42.4969 26.6308C42.4969 26.6308 44.3234 24.1638 55.1014 28.2405C66.5295 32.5639 63.0342 36.1356 62.8466 36.3369C62.6589 36.5381 58.4622 39.1995 48.0625 36.6058C36.824 33.8042 42.4969 26.6308 42.4969 26.6308Z" fill="white"/>
<path fill-rule="evenodd" clip-rule="evenodd" d="M64.7815 35.1266C63.8422 34.046 63.7068 33.0099 64.3627 32.4401C65.0186 31.8703 66.0431 32.1547 66.9824 33.2353C67.9218 34.3159 67.9721 35.7622 67.2146 36.1898C66.4977 36.5942 65.7209 36.2063 64.7815 35.1266Z" fill="#4D4D4D"/>
<path fill-rule="evenodd" clip-rule="evenodd" d="M64.9615 35.0299C64.0221 33.9493 63.8867 32.9141 64.5426 32.3433C65.1985 31.7726 66.223 32.0589 67.1624 33.1395C68.1017 34.2201 68.152 35.6664 67.3945 36.094C66.6777 36.4984 65.9008 36.1105 64.9615 35.0299Z" fill="url(#paint5_radial_601_4090)"/>
<path d="M63.6294 31.9631C63.6294 31.9631 64.2098 27.4705 68.5806 28.522" stroke="#666666" stroke-width="0.0967418" stroke-miterlimit="3.86"/>
<path d="M63.6294 31.9631C63.6294 31.9631 64.2098 27.4705 68.5806 28.522" stroke="#666666" stroke-width="0.199288" stroke-miterlimit="3.86"/>
<path d="M63.2588 32.3337C63.2588 32.3337 62.8128 27.6494 67.2097 29.4662" stroke="#666666" stroke-width="0.199288" stroke-miterlimit="3.86"/>
<path d="M63.2588 32.3337C63.2588 32.3337 62.8128 27.6494 67.2097 29.4662" stroke="#666666" stroke-width="0.199288" stroke-miterlimit="3.86"/>
<path fill-rule="evenodd" clip-rule="evenodd" d="M68.4248 28.5191C68.4246 28.4648 68.4406 28.4117 68.4707 28.3665C68.5008 28.3212 68.5436 28.286 68.5938 28.2652C68.644 28.2444 68.6992 28.2391 68.7525 28.2497C68.8057 28.2604 68.8546 28.2867 68.8929 28.3253C68.9311 28.3638 68.9571 28.4129 68.9674 28.4662C68.9777 28.5195 68.9719 28.5747 68.9508 28.6247C68.9296 28.6748 68.8941 28.7174 68.8487 28.7471C68.8032 28.7769 68.75 28.7925 68.6957 28.7919C68.6237 28.7912 68.555 28.7621 68.5043 28.7111C68.4536 28.66 68.4251 28.5911 68.4248 28.5191Z" fill="#666666"/>
<path d="M67.316 29.8019C67.495 29.8019 67.6401 29.6568 67.6401 29.4778C67.6401 29.2988 67.495 29.1537 67.316 29.1537C67.137 29.1537 66.9919 29.2988 66.9919 29.4778C66.9919 29.6568 67.137 29.8019 67.316 29.8019Z" fill="#666666"/>
<path opacity="0.1" fill-rule="evenodd" clip-rule="evenodd" d="M63.492 34.9844C63.5089 35.3048 63.4604 35.6252 63.3494 35.9263C63.2385 36.2273 63.0675 36.5026 62.8467 36.7354C62.6533 36.9367 58.4624 39.5971 48.0627 37.0044C42.2911 35.5649 40.9734 32.9741 41.0692 30.7964C41.1505 34.4852 45.6103 36.2566 50.5721 37.1553C57.4186 38.3946 61.1276 37.4165 62.7877 36.4113C63.3933 35.827 63.492 34.9844 63.492 34.9844Z" fill="black"/>
<path opacity="0.15" fill-rule="evenodd" clip-rule="evenodd" d="M65.6153 32.3791C65.7789 32.4089 65.9339 32.4743 66.0695 32.5705C66.2051 32.6668 66.3179 32.7917 66.3999 32.9364C66.7046 33.4423 65.6646 32.9248 65.4944 32.6461C65.2931 32.324 65.6153 32.3791 65.6153 32.3791Z" fill="white"/>
<defs>
<linearGradient id="paint0_linear_601_4090" x1="61.2968" y1="43.3603" x2="61.2968" y2="31.0518" gradientUnits="userSpaceOnUse">
<stop stop-color="#1A1A1A"/>
<stop offset="0.35" stop-color="#1A1A1A"/>
<stop offset="1" stop-color="#666666"/>
</linearGradient>
<linearGradient id="paint1_linear_601_4090" x1="58.5397" y1="43.3603" x2="58.5397" y2="31.0518" gradientUnits="userSpaceOnUse">
<stop stop-color="#1A1A1A"/>
<stop offset="0.35" stop-color="#1A1A1A"/>
<stop offset="1" stop-color="#666666"/>
</linearGradient>
<radialGradient id="paint2_radial_601_4090" cx="0" cy="0" r="1" gradientUnits="userSpaceOnUse" gradientTransform="translate(46.5186 41.8695) scale(18.8695 18.8695)">
<stop stop-color="#D5E20F"/>
<stop offset="0.64" stop-color="#D5E20F" stop-opacity="0"/>
<stop offset="1" stop-color="#D5E20F" stop-opacity="0"/>
</radialGradient>
<linearGradient id="paint3_linear_601_4090" x1="48.1787" y1="30.8254" x2="48.1787" y2="44.1555" gradientUnits="userSpaceOnUse">
<stop stop-color="#D5E20F"/>
<stop offset="0.25" stop-color="#D5E20F"/>
<stop offset="1" stop-color="#D5E20F" stop-opacity="0"/>
</linearGradient>
<radialGradient id="paint4_radial_601_4090" cx="0" cy="0" r="1" gradientUnits="userSpaceOnUse" gradientTransform="translate(37.5786 37.7822) scale(13.3407 13.3407)">
<stop stop-color="#D5E20F" stop-opacity="0.8"/>
<stop offset="0.13" stop-color="#D5E20F" stop-opacity="0.8"/>
<stop offset="0.67" stop-color="#D5E20F" stop-opacity="0"/>
<stop offset="1" stop-color="#D5E20F" stop-opacity="0"/>
</radialGradient>
<radialGradient id="paint5_radial_601_4090" cx="0" cy="0" r="1" gradientUnits="userSpaceOnUse" gradientTransform="translate(66.8789 33.3185) scale(1.99578 1.99579)">
<stop stop-color="#B3B3B3"/>
<stop offset="1" stop-color="#4D4D4D"/>
</radialGradient>
</defs>
</svg>
