<svg width="121" height="80" viewBox="0 0 121 80" fill="none" xmlns="http://www.w3.org/2000/svg">
<path fill-rule="evenodd" clip-rule="evenodd" d="M101.196 21.8915C102.196 21.4833 103.474 21.3427 105.108 21.7024C105.128 21.7749 105.166 21.8417 105.22 21.896C105.301 21.978 105.412 22.0247 105.528 22.026C105.615 22.0269 105.7 22.0018 105.773 21.954C105.846 21.9061 105.903 21.8376 105.937 21.7572C105.971 21.6768 105.981 21.5881 105.964 21.5024C105.948 21.4167 105.906 21.3379 105.844 21.276C105.783 21.214 105.704 21.1718 105.619 21.1546C105.533 21.1374 105.444 21.1461 105.364 21.1795C105.283 21.2129 105.214 21.2695 105.166 21.3422C105.157 21.3551 105.149 21.3684 105.142 21.3821C103.471 21.0201 102.137 21.1614 101.075 21.5951C100.618 21.7818 100.214 22.0217 99.8569 22.2963C99.5907 22.3222 99.3447 22.3729 99.1175 22.4453C98.1367 22.7577 97.5345 23.4647 97.1693 24.2514C96.8055 25.0353 96.6722 25.9071 96.6283 26.5769C96.6175 26.7421 96.6121 26.8957 96.6101 27.0334C95.5669 26.9863 94.5508 27.1274 93.8854 27.6434C93.1235 26.6468 91.0136 25.6579 89.3578 25.6579C87.5123 25.6579 85.8032 26.3069 84.3969 27.4134C83.6943 26.8273 82.9045 26.3514 82.0544 26.0037C80.9367 25.5465 79.7379 25.3204 78.5303 25.3392C76.3775 25.3392 74.3853 26.1249 72.5538 27.6962C70.546 26.0958 68.4367 25.2957 66.2258 25.2957C63.9279 25.2946 61.8771 26.1674 60.0736 27.9139C58.27 29.6304 57.3683 31.6956 57.3683 34.1097V43.4461C57.3693 44.464 57.6455 45.2642 58.197 45.8467C58.4683 46.1269 58.7941 46.3486 59.1542 46.4983C59.5143 46.6481 59.9013 46.7226 60.2913 46.7174C60.6752 46.7253 61.0564 46.6518 61.4099 46.5017C61.7634 46.3517 62.081 46.1284 62.342 45.8467C62.8945 45.2642 63.1707 44.464 63.1707 43.4461V35.5914C63.1717 32.5088 64.2772 30.9675 66.487 30.9675C68.6399 30.9665 69.7163 32.5078 69.7163 35.5914V43.4461C69.7163 44.464 69.9926 45.2642 70.545 45.8467C70.8108 46.1222 71.1294 46.3413 71.4818 46.4909C71.8341 46.6405 72.213 46.7176 72.5958 46.7176C72.9786 46.7176 73.3574 46.6405 73.7098 46.4909C74.0621 46.3413 74.3807 46.1222 74.6465 45.8467C75.229 45.2642 75.5203 44.464 75.5203 43.4461V35.5914C75.5203 32.5368 76.5822 31.0095 78.706 31.0095C80.0732 31.0105 81.0335 31.636 81.5871 32.8861C81.8192 33.4106 81.9353 34.3123 81.9353 35.5914V43.4461C81.9353 44.464 82.2121 45.2642 82.7656 45.8467C83.0313 46.1221 83.3497 46.3412 83.7019 46.4908C84.0541 46.6404 84.4329 46.7175 84.8155 46.7175C85.1982 46.7175 85.577 46.6404 85.9292 46.4908C86.2814 46.3412 86.5998 46.1221 86.8655 45.8467C86.9986 45.7137 87.1164 45.5693 87.219 45.4136C87.3639 45.4062 87.512 45.3978 87.6633 45.3892C88.1884 45.3594 88.7523 45.3274 89.3578 45.3274C90.58 45.3274 91.9039 45.0956 93.0319 44.5351C93.3473 44.385 93.6665 44.2003 93.97 43.9729C94.8112 43.356 95.4369 42.5118 95.637 41.4072C95.6423 41.3862 95.6474 41.3652 95.6524 41.344C96.7694 42.19 104.612 40.9053 104.612 35.3644C104.612 34.5033 104.425 33.61 104.087 32.7423C104.302 31.7231 103.929 30.3164 102.929 29.1671C101.631 27.6731 100.231 27.126 99.1938 27.5853C98.6646 27.3635 98.113 27.2047 97.5469 27.1219C97.5488 27.1092 97.5515 27.091 97.5554 27.0676C97.5636 27.017 97.5767 26.9422 97.5959 26.8473C97.6343 26.6573 97.697 26.3869 97.7939 26.0672C97.988 25.4269 98.318 24.594 98.861 23.8152C99.1637 23.3809 99.532 22.9645 99.9792 22.6075C100.714 22.5541 101.635 22.6991 102.79 23.1426C102.797 23.4236 103.028 23.6492 103.31 23.6492C103.598 23.6492 103.831 23.416 103.831 23.1283C103.831 22.8406 103.598 22.6074 103.31 22.6074C103.132 22.6074 102.974 22.6973 102.88 22.8343C101.938 22.4747 101.131 22.3031 100.441 22.2794C100.674 22.1329 100.925 22.0022 101.196 21.8915ZM97.2291 27.0819C97.1297 27.071 97.0299 27.0615 96.9301 27.0535C96.9319 26.9169 96.937 26.7634 96.9479 26.5978C96.9905 25.9472 97.1195 25.1195 97.4599 24.3863C97.7988 23.6559 98.3424 23.0283 99.2147 22.7505C99.2709 22.7325 99.3286 22.716 99.3879 22.701C99.0852 22.9927 98.8238 23.3086 98.5982 23.632C98.03 24.447 97.6877 25.3136 97.4874 25.9743C97.3871 26.3051 97.322 26.5855 97.282 26.7839C97.2619 26.883 97.2481 26.9618 97.2392 27.0161L97.2349 27.0434C97.2326 27.0578 97.2309 27.0696 97.2295 27.0788L97.2291 27.0819ZM100.733 27.7911C100.995 27.8389 101.245 27.944 101.463 28.0987C101.68 28.2535 101.862 28.4542 101.994 28.6866C102.483 29.4998 100.812 28.668 100.538 28.2202C100.215 27.7025 100.733 27.7911 100.733 27.7911Z" fill="black"/>
<path d="M78.6034 50.8702L78.6718 51.1936V60.3497L78.5443 60.7166L78.35 60.9296L78.0592 61.0571L77.8556 61.082L77.6612 61.04L77.3891 60.8845L77.243 60.6296L77.1652 60.3062V51.1081L77.2725 50.8111L77.4669 50.5888L77.739 50.4442H78.0779L78.4277 50.6323L78.6034 50.8702Z" fill="black"/>
<path fill-rule="evenodd" clip-rule="evenodd" d="M41.1488 52.7142L41.197 53.0251V55.9372L41.0617 56.2015L40.7119 56.2622H36.5746L36.2248 56.3213L36.0398 56.5249V58.2803L36.1378 58.5601L36.4192 59.0266L36.6228 59.2131L37.1375 59.4946L37.4578 59.5801L37.8262 59.6143L38.1574 59.5972L38.5259 59.5117L38.8073 59.392L39.2737 59.081L39.4588 58.8602L39.594 58.613L39.692 58.3487L39.7308 58.0253L39.8474 57.761L40.0123 57.5573L40.2937 57.4112L40.614 57.3956L40.8954 57.5402L41.0804 57.719L41.197 58.0082V58.3067L41.012 58.9193L40.5953 59.6516L40.1973 60.0434L39.7308 60.3668L39.2255 60.6311L38.274 60.8954H37.5557L37.1562 60.8363L36.2528 60.5254L35.7677 60.2144L35.3697 59.849L34.8551 59.2007L34.7478 58.9286L34.583 58.3409L34.5348 53.3159L34.6032 52.6427L34.8162 52.0892L35.2733 51.4004L35.6993 51.0335L36.4192 50.5826L37.3707 50.3183L37.691 50.2592H38.0408L38.7793 50.4038L39.6438 50.7443L40.2937 51.2558L40.6622 51.6787L40.9638 52.1451L41.1488 52.7142ZM39.7106 53.0376L39.6438 52.6971L39.507 52.4079L39.3126 52.1607L39.0608 51.9554L38.7793 51.8L38.4575 51.6818L38.089 51.5963H37.6226L37.2246 51.6818L36.9043 51.8264L36.4192 52.2089L36.2248 52.4561L36.088 52.7375L36.0212 53.1029V54.3467L36.0693 54.7136L36.3025 54.9173L36.7193 54.9593H39.0794L39.4774 54.9002L39.692 54.6701L39.7106 53.0376Z" fill="black"/>
<path d="M49.4078 52.4918L49.1559 51.9212L48.5729 51.2123L48.0878 50.8376L47.5047 50.539L47.1736 50.4115L46.3386 50.2561H45.9702L45.2223 50.4007L44.5709 50.6385L44.0376 50.9713L43.5711 51.3802L43.2027 51.8653L42.9399 52.4359L42.8528 52.7686L42.8031 53.134V59.975L42.8528 60.3419L42.9881 60.6311L43.2509 60.8099L43.6193 60.8954L43.9396 60.7757L44.134 60.5285L44.2708 60.1631L44.2895 53.0267L44.3874 52.694L44.6875 52.1653L44.9207 51.9617L45.5038 51.6507L45.9407 51.573H46.3386L46.718 51.6336L47.3197 51.8964L47.5529 52.1016L47.9028 52.6131L47.9898 52.9241L48.038 53.2894V59.8195L48.136 60.4756L48.321 60.7135L48.6024 60.8845L48.7579 60.9016L48.9911 60.8581L49.2523 60.6793L49.4373 60.4336L49.5057 60.0838L49.4855 52.8448L49.4078 52.4918Z" fill="black"/>
<path fill-rule="evenodd" clip-rule="evenodd" d="M57.5408 52.7142L57.5906 53.0251V55.9372L57.4538 56.2015L57.1039 56.2622H52.9667L52.6169 56.3213L52.4334 56.5249V58.2803L52.5298 58.5601L52.8112 59.0266L53.0149 59.2131L53.5311 59.4946L53.8513 59.5801L54.2198 59.6081L54.5494 59.591L54.9195 59.5054L55.2009 59.3857L55.6673 59.0748L55.8508 58.854L55.9876 58.6068L56.084 58.3425L56.1229 58.0191L56.2395 57.7548L56.4058 57.5511L56.6873 57.4049L57.0076 57.3894L57.289 57.534L57.474 57.7128L57.5906 58.002V58.3005L57.4056 58.9131L56.9873 59.6454L56.5893 60.0372L56.1229 60.3606L55.6191 60.6342L54.666 60.8985H53.9478L53.5497 60.8395L52.6464 60.5285L52.1613 60.2175L51.7633 59.8522L51.2486 59.2038L51.1414 58.9317L50.9766 58.344L50.9268 53.319L50.9952 52.6458L51.2098 52.0923L51.6653 51.4035L52.0929 51.0366L52.8112 50.5857L53.7627 50.3214L54.0846 50.2623H54.4328L55.1713 50.4069L56.0358 50.7474L56.6873 51.2589L57.0558 51.6678L57.3574 52.1342L57.5408 52.7142ZM56.1042 53.0376L56.0358 52.6971L55.9005 52.4079L55.7062 52.1607L55.4528 51.9554L55.1713 51.8L54.8511 51.6818L54.4826 51.5963H54.0162L53.6181 51.6818L53.2978 51.8264L52.8112 52.2089L52.6169 52.4561L52.4816 52.7375L52.4132 53.1029V54.3467L52.4614 54.7136L52.6946 54.9173L53.1128 54.9593H55.473L55.871 54.9002L56.0856 54.6639L56.1042 53.0376Z" fill="black"/>
<path d="M66.1792 52.0068L65.8091 51.4704L65.4982 51.147L64.9478 50.7551L64.2684 50.4566L63.4816 50.2701H62.8116L62.045 50.4566L61.5786 50.6354L60.9955 51.0024L60.6457 51.2916L60.0145 52.212L59.8263 52.9225V60.1833L59.8761 60.4305L59.9927 60.6093L60.1762 60.7539L60.4965 60.8985L60.6628 60.8814L61.0795 60.6513L61.1961 60.4725L61.2941 59.961L61.3127 52.9645L61.3609 52.7173L61.5755 52.3162L61.8756 52.0052L62.2643 51.758L62.7602 51.6025L63.3821 51.5776L63.8968 51.7222L64.3134 51.9259L64.4985 52.0721L64.7799 52.3954L65.0613 53.3143L65.3147 53.6813L65.5479 53.7839L65.8294 53.8258L66.0812 53.7403L66.2663 53.6206L66.4124 53.434L66.4792 53.2117V52.9225L66.3626 52.4374L66.1792 52.0068Z" fill="black"/>
<path fill-rule="evenodd" clip-rule="evenodd" d="M75.3835 50.8453L75.4519 50.9728L75.4332 51.2371L75.1611 51.4921L74.7522 51.6476C74.6267 51.6796 74.5105 51.7408 74.4133 51.8264L74.3931 51.9819L74.6356 52.5525L74.7336 52.9443V55.2547L74.491 55.9963L74.0728 56.5918L73.4991 57.0629L73.1384 57.2666L72.361 57.5775L71.3706 57.7486L71.0114 57.9227L70.7502 58.1777L70.6523 58.5695L70.8948 58.8509L72.3625 59.0903L73.1399 59.4013L73.7914 59.8537L74.2967 60.373L74.6356 61.0369L74.7336 61.4194V61.8718L74.6356 62.2636L74.2671 62.9104L73.7618 63.4468L73.4509 63.6691L72.703 64.0267L71.8106 64.2724L71.2571 64.3144L70.7222 64.2724L69.8391 64.0345L69.1099 63.6769L68.799 63.4546L68.5238 63.1949L68.0682 62.615L67.8242 61.8749V61.6697L67.9019 61.4738L68.146 61.1924L68.6015 61.082L69.0384 61.2266L69.2716 61.508L69.5142 62.231L69.7085 62.5295L70.0195 62.7674L70.36 62.9555L70.8155 63.0659L71.3706 63.1094L71.9039 63.0488L72.2926 62.9042L72.6331 62.7005L72.8943 62.4362L73.0886 62.1252L73.1866 61.7599V61.4614L72.9922 60.9763L72.7497 60.6949L72.4574 60.4819L72.0687 60.2937L70.6025 60.0729L70.1656 59.9361L69.8065 59.7496L69.4955 59.5101L69.2716 59.2302L69.155 58.8633V58.4373L69.4178 57.7143L69.466 57.4671L69.3976 57.3396L68.7663 56.8965L68.2626 56.3772L67.9221 55.704L67.8242 55.3293L67.8055 53.106L67.8739 52.6209L68.0185 52.2711L68.4367 51.6756L68.6995 51.4113L69.3214 50.9682L70.119 50.6572L71.0612 50.4691H74.6838L75.1098 50.5966L75.3835 50.8453ZM73.1601 52.9754L73.0435 52.6007L72.801 52.3364L72.49 52.114L71.8883 51.8761L71.324 51.8248H71.013L70.1003 52.0969L69.6448 52.4374L69.3727 52.9225L69.3525 54.8986L69.4209 55.2982L69.6152 55.6092L70.0521 55.959L70.2465 56.0616L70.674 56.1969L71.2369 56.2482L71.7888 56.1876L72.2459 56.0678L72.4403 55.9668L72.8958 55.634L73.1586 55.1567L73.1601 52.9754Z" fill="black"/>
<path fill-rule="evenodd" clip-rule="evenodd" d="M87.0054 52.8588V58.3005L86.8391 58.8882L86.2374 59.8071L85.5875 60.3357L84.7899 60.7182L84.1197 60.8628L83.4217 60.9063L83.0221 60.8208L82.1001 60.5394L81.1875 59.8848L80.6822 59.2536L80.3712 58.4187V57.3801L80.5655 56.8095L80.7023 56.5716L81.0226 56.1456L81.4207 55.7538L81.8871 55.4304L82.4204 55.1832L83.0516 55.0044L83.4015 54.9608L85.0231 54.936L85.3543 54.8598L85.4895 54.6126V52.8401L85.4024 52.5774L85.1008 52.1342L84.8676 51.9461L84.353 51.6787L84.0529 51.5932L83.6549 51.5761L83.2849 51.6181L82.6831 51.7969L82.2369 52.1451L81.9353 52.596L81.7891 53.2008L81.6819 53.4651L81.4891 53.6517L81.217 53.7963L80.8376 53.7543L80.5857 53.6097L80.4194 53.4045L80.3525 53.0935L80.3712 52.753L80.6822 51.9181L81.0024 51.4843L81.4004 51.1019L82.1001 50.6354L82.6831 50.4147L83.3331 50.2701L84.14 50.2872L84.7899 50.4566L85.3543 50.6961L86.0523 51.1625L86.5576 51.7922L86.8204 52.2866L87.0054 52.8588ZM85.5191 58.173L85.4895 56.5374L85.334 56.2995L84.9065 56.2404H83.5181L82.7702 56.4192L82.4888 56.6058L82.2556 56.8017L82.0504 57.0489L81.9042 57.3132L81.8172 58.0455L81.8856 58.4109L82.0022 58.7218L82.4188 59.1883L83.0019 59.4992L83.3999 59.5847L83.8368 59.6018L84.2348 59.5412L84.566 59.4137L85.0993 59.0483L85.2843 58.8089L85.4196 58.5197L85.5191 58.173Z" fill="black"/>
<path d="M17.0218 32.1756C17.0218 29.8724 18.0707 28.1103 20.1687 26.8893C21.3648 26.1897 22.8221 25.8404 24.5407 25.8414C26.4064 25.8414 28.0239 26.2202 29.3931 26.9779C30.8795 27.8227 31.6227 28.9007 31.6227 30.2119C31.6227 30.7374 31.3604 31.2624 30.836 31.7869C30.6036 32.0264 30.3247 32.2159 30.0164 32.3437C29.7082 32.4715 29.377 32.5349 29.0433 32.53C28.3737 32.53 27.4994 32.2237 26.4204 31.6112C25.3714 30.9965 24.6137 30.6892 24.1473 30.6892C23.3886 30.6892 23.0097 30.995 23.0108 31.6065C23.0108 32.16 23.331 32.5974 23.9716 32.9187C24.408 33.1799 25.2533 33.4712 26.5075 33.7925C28.3141 34.259 29.5673 34.6964 30.2669 35.1048C32.1617 36.2118 33.1091 37.8702 33.1091 40.0801C33.1091 42.2371 32.3368 43.9991 30.7924 45.3663C29.276 46.7138 27.2942 47.3875 24.847 47.3875C22.3997 47.3875 20.2868 46.776 18.5081 45.5529C16.8176 44.4168 15.9723 43.1196 15.9723 41.6613C15.9686 41.2811 16.04 40.9039 16.1825 40.5515C16.3249 40.199 16.5357 39.8782 16.8025 39.6074C17.356 39.0244 17.9842 38.7321 18.6823 38.7321C19.5872 38.7321 20.6076 39.2275 21.7436 40.2184C23.1118 41.4135 24.2188 42.0111 25.0646 42.0111C25.5883 42.0274 26.1054 41.8907 26.5525 41.6177C26.9894 41.327 27.2071 40.9756 27.2071 40.5683C27.2071 39.8427 26.566 39.3182 25.2839 38.9948C22.4853 38.3252 20.4454 37.496 19.1643 36.5072C17.7349 35.3971 17.0207 33.9532 17.0218 32.1756Z" fill="black"/>
<path fill-rule="evenodd" clip-rule="evenodd" d="M37.3863 28.5902C35.1132 30.6311 33.9766 33.3852 33.9766 36.8523C33.9756 39.7919 35.0396 42.3003 37.1686 44.3775C39.3204 46.4173 41.8993 47.4373 44.9052 47.4373C47.8779 47.4373 50.4138 46.4007 52.5127 44.3277C54.6396 42.2578 55.7031 39.7515 55.7031 36.8088C55.7031 33.3696 54.5666 30.6301 52.2935 28.5902C50.2826 26.7836 47.8054 25.8803 44.8616 25.8803C41.9179 25.8803 39.4261 26.7836 37.3863 28.5902ZM39.1174 39.0967C38.805 38.3603 38.6496 37.5667 38.6612 36.7668C38.6622 34.7943 39.3085 33.2307 40.6 32.076C41.7609 31.0478 43.1783 30.5337 44.8523 30.5337C46.5263 30.5337 47.9354 31.0452 49.0797 32.0683C50.3723 33.2271 51.0186 34.7855 51.0186 36.7435C51.0299 37.5431 50.8745 38.3364 50.5621 39.0726C50.2496 39.8088 49.7872 40.4717 49.2041 41.0191C48.6398 41.5907 47.9654 42.0418 47.2216 42.3452C46.4779 42.6485 45.6803 42.7977 44.8772 42.7838C44.0652 42.7974 43.2584 42.6507 42.5032 42.3522C41.7479 42.0537 41.0589 41.6091 40.4756 41.044C39.8924 40.4964 39.4298 39.8332 39.1174 39.0967Z" fill="black"/>
<path d="M61.4154 16.8734C61.4154 16.8734 64.3508 12.9103 81.6726 19.4621C86.8688 21.4288 90.1459 23.2982 92.1669 24.9753C90.1894 23.7383 87.5115 22.4233 83.913 21.062C66.5912 14.5101 63.6558 18.4748 63.6558 18.4748C63.6558 18.4748 54.5386 30.0035 72.6004 34.5061C72.6227 34.5117 72.6449 34.5172 72.6672 34.5227C73.871 34.8381 75.1227 35.1102 76.3967 35.3459C79.8677 36.0113 82.8303 36.2852 85.3268 36.3167C90.9596 36.4202 94.4096 35.3174 96.2658 34.1936C97.239 33.2545 97.3976 31.9003 97.3976 31.9003C97.4247 32.4152 97.3468 32.9302 97.1685 33.414C96.9902 33.8978 96.7153 34.3403 96.3606 34.7144C96.0496 35.0378 89.3143 39.3135 72.6005 35.1467C67.1182 33.7793 64.1364 31.7657 62.6462 29.6248C55.4955 24.359 61.4154 16.8734 61.4154 16.8734Z" fill="black"/>
</svg>
