<svg width="80" height="80" viewBox="0 0 80 80" fill="none" xmlns="http://www.w3.org/2000/svg">
<path d="M33.0733 32.0181H34.995C34.995 30.0448 33.8084 29 31.5126 29C29.5006 29 28.1206 30.1092 28.1206 31.7214C28.1206 33.7335 29.694 34.1462 31.4223 34.5847C32.725 34.9201 33.3182 35.0748 33.3182 35.8874C33.3182 36.6096 32.6992 37.061 31.7319 37.061C30.5581 37.061 29.952 36.4807 29.952 35.3715H27.9915C27.9915 37.4609 29.4232 38.5959 31.706 38.5959C33.8471 38.5959 35.2916 37.4351 35.2916 35.6939C35.2916 33.6948 33.7955 33.2434 32.0672 32.8177C30.6227 32.4566 30.0681 32.2244 30.0681 31.5151C30.0681 30.9218 30.6356 30.5091 31.4739 30.5091C32.5186 30.5091 33.0733 31.0636 33.0733 32.0181Z" fill="black"/>
<path d="M39.9734 38.3508V36.9708C39.8573 37.0095 39.6768 37.0352 39.5091 37.0352C38.89 37.0352 38.6578 36.7515 38.6578 36.0293V33.1789H39.9088V31.8376H38.6578V30.135H36.8522V31.8376H35.7945V33.1789H36.8522V36.3517C36.8522 37.8736 37.5099 38.4798 39.019 38.4798C39.3285 38.4798 39.7283 38.4282 39.9734 38.3508Z" fill="black"/>
<path fill-rule="evenodd" clip-rule="evenodd" d="M46.8091 36.5967V34.2236C46.8091 32.5083 45.8547 31.6311 43.9974 31.6311C42.1273 31.6311 41.2244 32.6372 41.1599 33.8883H42.914C42.9398 33.2692 43.3267 32.8951 43.9974 32.8951C44.6293 32.8951 45.0679 33.2305 45.0679 34.0559V34.288C44.6552 34.3139 43.92 34.3913 43.4299 34.4686C41.534 34.7652 40.8891 35.4876 40.8891 36.558C40.8891 37.693 41.7274 38.5443 43.1204 38.5443C44.0232 38.5443 44.7583 38.2089 45.2484 37.5125H45.2742C45.2742 37.8349 45.3001 38.1187 45.3646 38.3895H46.9897C46.8736 37.9511 46.8091 37.4222 46.8091 36.5967ZM43.7524 35.5263C44.1392 35.4618 44.681 35.4101 45.0679 35.3844V35.6295C45.0679 36.2227 45.0035 36.5709 44.6939 36.8805C44.4359 37.1385 44.0361 37.2545 43.6621 37.2545C43.0301 37.2545 42.6948 36.9192 42.6948 36.429C42.6948 35.9002 43.0043 35.6552 43.7524 35.5263Z" fill="black"/>
<path fill-rule="evenodd" clip-rule="evenodd" d="M52.497 37.5253V38.3895H54.2511V29.2064H52.4454V32.6243H52.4196C52.0198 32.0053 51.3104 31.6699 50.5623 31.6699C48.9244 31.6699 47.8667 33.0241 47.8667 35.1135C47.8667 37.2029 48.9372 38.5572 50.5881 38.5572C51.3492 38.5572 52.0714 38.196 52.4712 37.5253H52.497ZM51.1685 37.1772C50.3044 37.1772 49.7498 36.3646 49.7498 35.1135C49.7498 33.8625 50.3044 33.0499 51.1685 33.0499C51.9811 33.0499 52.5357 33.8109 52.5357 35.1135C52.5357 36.4161 51.9811 37.1772 51.1685 37.1772Z" fill="black"/>
<path d="M59.4101 38.3508V36.9708C59.2939 37.0095 59.1134 37.0352 58.9457 37.0352C58.3267 37.0352 58.0945 36.7515 58.0945 36.0293V33.1789H59.3456V31.8376H58.0945V30.135H56.2888V31.8376H55.2312V33.1789H56.2888V36.3517C56.2888 37.8736 56.9466 38.4798 58.4557 38.4798C58.7652 38.4798 59.165 38.4282 59.4101 38.3508Z" fill="black"/>
<path d="M34.9176 50.5286V48.9035H30.584V41.3455H28.688V50.5286H34.9176Z" fill="black"/>
<path d="M35.756 43.9767V48.0007C35.756 49.7806 36.6975 50.6833 38.1678 50.6833C39.0062 50.6833 39.6639 50.2836 40.0896 49.7031H40.1154V50.5286H41.805V43.9767H39.9993V47.4848C39.9993 48.6714 39.4576 49.2647 38.7096 49.2647C38.0001 49.2647 37.5617 48.8132 37.5617 47.8201V43.9767H35.756Z" fill="black"/>
<path d="M45.2873 49.1099V49.084L48.4988 45.4469V43.9767H43.2366V45.3953H46.3191V45.4211L43.1076 49.0582V50.5286H48.6277V49.1099H45.2873Z" fill="black"/>
<path fill-rule="evenodd" clip-rule="evenodd" d="M55.7343 48.5423H53.89C53.7996 49.0711 53.3224 49.4581 52.6002 49.4581C51.8264 49.4581 51.1686 48.9809 51.117 47.6267H55.8246C55.8246 46.9043 55.7601 46.4014 55.6182 45.9499C55.2056 44.6215 54.0963 43.7702 52.5873 43.7702C50.5366 43.7702 49.3371 45.2664 49.3371 47.201C49.3371 49.2905 50.5366 50.7349 52.6002 50.7349C54.3414 50.7349 55.4764 49.7418 55.7343 48.5423ZM54.0189 46.4916H51.1557C51.2976 45.4985 51.8521 45.0471 52.5873 45.0471C53.3095 45.0471 53.9029 45.4985 54.0189 46.4916Z" fill="black"/>
<path d="M60.9063 43.9508V45.5114C60.7 45.4727 60.5194 45.4469 60.3388 45.4469C59.2297 45.4469 58.6363 46.1434 58.6363 47.4331V50.5286H56.8307V43.9767H58.4944V44.9052H58.5202C58.9588 44.1958 59.5391 43.8734 60.313 43.8734C60.4936 43.8734 60.7257 43.8992 60.9063 43.9508Z" fill="black"/>
<path d="M68 46.5045V50.5286H66.1943V46.6851C66.1943 45.692 65.7559 45.2406 65.0465 45.2406C64.2984 45.2406 63.7568 45.8339 63.7568 47.0205V50.5286H61.9511V43.9767H63.6406V44.802H63.6664C64.0921 44.2216 64.7498 43.8219 65.5882 43.8219C67.0585 43.8219 68 44.7247 68 46.5045Z" fill="black"/>
<path d="M24.438 30.0949H23.5496V29.2065H24.438V30.0949Z" fill="#0072BD"/>
<path d="M22.6611 30.0949H21.7728V29.2065H22.6611V30.0949Z" fill="#0072BD"/>
<path d="M18.2191 29.2065H19.1075V30.0949H19.9959V50.5287H12V29.2065H15.5538V30.0949H16.4422V29.2065H17.3306V30.0949H18.2191V29.2065Z" fill="#0072BD"/>
<path d="M19.9959 30.0949V29.2065H20.8844V30.0949H19.9959Z" fill="#0072BD"/>
</svg>
