<svg width="120" height="80" viewBox="0 0 120 80" fill="none" xmlns="http://www.w3.org/2000/svg">
<path d="M48.6204 27.1046H51.7774C51.7774 23.8627 49.828 22.1463 46.0565 22.1463C42.751 22.1463 40.4838 23.9686 40.4838 26.6172C40.4838 29.9227 43.0688 30.6008 45.9081 31.3212C48.0483 31.8721 49.0228 32.1264 49.0228 33.4613C49.0228 34.6478 48.0057 35.3894 46.4167 35.3894C44.4883 35.3894 43.4926 34.436 43.4926 32.6138H40.2718C40.2718 36.0464 42.6238 37.9109 46.3742 37.9109C49.8916 37.9109 52.2648 36.0039 52.2648 33.1435C52.2648 29.8592 49.8068 29.1175 46.9676 28.4183C44.5944 27.825 43.6833 27.4436 43.6833 26.2783C43.6833 25.3035 44.6156 24.6256 45.9929 24.6256C47.7091 24.6256 48.6204 25.5366 48.6204 27.1046Z" fill="black"/>
<path d="M59.9563 37.5083V35.2412C59.7656 35.3048 59.469 35.347 59.1935 35.347C58.1764 35.347 57.795 34.8809 57.795 33.6944V29.0116H59.8502V26.808H57.795V24.0109H54.8285V26.808H53.091V29.0116H54.8285V34.2241C54.8285 36.7243 55.9092 37.7202 58.3883 37.7202C58.8969 37.7202 59.5537 37.6355 59.9563 37.5083Z" fill="black"/>
<path fill-rule="evenodd" clip-rule="evenodd" d="M71.1864 34.6266V30.7279C71.1864 27.9099 69.6185 26.4689 66.5672 26.4689C63.4948 26.4689 62.0115 28.1216 61.9056 30.177H64.7873C64.8297 29.1599 65.4654 28.5454 66.5672 28.5454C67.6054 28.5454 68.3258 29.0963 68.3258 30.4525V30.8337C67.6479 30.8762 66.4401 31.0034 65.6349 31.1304C62.5201 31.6177 61.4606 32.8045 61.4606 34.563C61.4606 36.4277 62.8379 37.8262 65.1263 37.8262C66.6096 37.8262 67.8172 37.2752 68.6224 36.131H68.6648C68.6648 36.6608 68.7073 37.127 68.8133 37.5719H71.4831C71.2923 36.8516 71.1864 35.9827 71.1864 34.6266ZM66.1646 32.868C66.8002 32.7621 67.6902 32.6772 68.3258 32.6349V33.0375C68.3258 34.0121 68.22 34.5842 67.7114 35.0928C67.2875 35.5167 66.6308 35.7072 66.0163 35.7072C64.978 35.7072 64.4271 35.1563 64.4271 34.3511C64.4271 33.4824 64.9356 33.0799 66.1646 32.868Z" fill="black"/>
<path fill-rule="evenodd" clip-rule="evenodd" d="M80.5307 36.1522V37.5719H83.4125V22.4855H80.446V28.1005H80.4036C79.7467 27.0835 78.5813 26.5326 77.3524 26.5326C74.6615 26.5326 72.9238 28.7573 72.9238 32.1898C72.9238 35.6225 74.6825 37.8474 77.3948 37.8474C78.645 37.8474 79.8315 37.2541 80.4884 36.1522H80.5307ZM78.3483 35.5802C76.9286 35.5802 76.0175 34.2453 76.0175 32.1898C76.0175 30.1346 76.9286 28.7997 78.3483 28.7997C79.6832 28.7997 80.5943 30.0499 80.5943 32.1898C80.5943 34.33 79.6832 35.5802 78.3483 35.5802Z" fill="black"/>
<path d="M91.888 37.5083V35.2412C91.6972 35.3048 91.4005 35.347 91.1251 35.347C90.1081 35.347 89.7267 34.8809 89.7267 33.6944V29.0116H91.7821V26.808H89.7267V24.0109H86.7602V26.808H85.0227V29.0116H86.7602V34.2241C86.7602 36.7243 87.8409 37.7202 90.32 37.7202C90.8286 37.7202 91.4854 37.6355 91.888 37.5083Z" fill="black"/>
<path d="M51.6503 57.5146V54.8448H44.5308V42.4282H41.416V57.5146H51.6503Z" fill="black"/>
<path d="M53.0277 46.7508V53.3617C53.0277 56.2858 54.5744 57.7689 56.99 57.7689C58.3673 57.7689 59.4479 57.1122 60.1471 56.1585H60.1895V57.5146H62.9653V46.7508H59.9988V52.5141C59.9988 54.4635 59.1089 55.4382 57.88 55.4382C56.7145 55.4382 55.9942 54.6966 55.9942 53.065V46.7508H53.0277Z" fill="black"/>
<path d="M68.6863 55.184V55.1415L73.9624 49.1662V46.7508H65.3173V49.0815H70.3814V49.1239L65.1054 55.0991V57.5146H74.1741V55.184H68.6863Z" fill="black"/>
<path fill-rule="evenodd" clip-rule="evenodd" d="M85.8492 54.2515H82.8193C82.6708 55.1203 81.8869 55.7561 80.7004 55.7561C79.429 55.7561 78.3484 54.9721 78.2636 52.7472H85.9976C85.9976 51.5605 85.8916 50.7342 85.6585 49.9926C84.9806 47.8101 83.1582 46.4116 80.6792 46.4116C77.3101 46.4116 75.3395 48.8696 75.3395 52.048C75.3395 55.4806 77.3101 57.8537 80.7004 57.8537C83.5608 57.8537 85.4254 56.2221 85.8492 54.2515ZM83.0311 50.8826H78.3272C78.5603 49.251 79.4713 48.5094 80.6792 48.5094C81.8657 48.5094 82.8405 49.251 83.0311 50.8826Z" fill="black"/>
<path d="M94.3461 46.7083V49.2722C94.0072 49.2086 93.7104 49.1662 93.4138 49.1662C91.5916 49.1662 90.6168 50.3105 90.6168 52.4292V57.5146H87.6504V46.7508H90.3837V48.2763H90.4261C91.1465 47.1109 92.1 46.5812 93.3714 46.5812C93.668 46.5812 94.0494 46.6235 94.3461 46.7083Z" fill="black"/>
<path d="M106 50.9037V57.5146H103.034V51.2004C103.034 49.5688 102.313 48.8272 101.148 48.8272C99.9188 48.8272 99.029 49.8019 99.029 51.7513V57.5146H96.0625V46.7508H98.8382V48.1068H98.8806C99.5798 47.1533 100.66 46.4965 102.038 46.4965C104.453 46.4965 106 47.9796 106 50.9037Z" fill="black"/>
<path d="M34.4338 23.9451H32.9743V22.4856H34.4338V23.9451Z" fill="black"/>
<path d="M31.5147 23.9451H30.0553V22.4856H31.5147V23.9451Z" fill="black"/>
<path d="M24.217 22.4856H25.6766V23.9451H27.1362V57.5148H14V22.4856H19.8384V23.9451H21.2979V22.4856H22.7575V23.9451H24.217V22.4856Z" fill="black"/>
<path d="M27.1362 23.9451V22.4856H28.5957V23.9451H27.1362Z" fill="black"/>
</svg>
