<?xml version="1.0" standalone="no"?>
<!DOCTYPE svg PUBLIC "-//W3C//DTD SVG 1.1//EN" "http://www.w3.org/Graphics/SVG/1.1/DTD/svg11.dtd" >
<svg xmlns="http://www.w3.org/2000/svg" xmlns:xlink="http://www.w3.org/1999/xlink" version="1.1">
<metadata>
Created by FontForge 20201107 at Fri May 12 05:13:54 2023
 By Unknown
Copyright 2023, Kris Sowersby, Klim Type Foundry.
</metadata>
<defs>
<font id="SohneBreit-Dreiviertelfett" horiz-adv-x="800" >
  <font-face 
    font-family="Copyright Klim Type Foundry"
    font-weight="700"
    font-stretch="expanded"
    units-per-em="1000"
    panose-1="2 11 8 5 3 2 2 6 2 3"
    ascent="800"
    descent="-200"
    x-height="527"
    cap-height="718"
    bbox="-270 -214 1402 1019"
    underline-thickness="120"
    underline-position="-192"
    unicode-range="U+0020-FB04"
  />
<missing-glyph horiz-adv-x="600" 
d="M0 0v718h600v-718h-600zM132 242l51 -51l117 117l118 -117l50 51l-116 118l116 117l-50 51l-118 -117l-117 117l-51 -51l117 -117z" />
    <glyph glyph-name="ff" unicode="ff" horiz-adv-x="883" 
d="M118 535q0 66 29.5 109t85 64t133.5 21q33 0 67 -4.5t58 -12.5l-21 -125q-24 6 -46 9t-48 3q-51 0 -75.5 -16t-24.5 -51v-5h243v8q0 66 29.5 109t85 64t133.5 21q37 0 72.5 -5t59.5 -14l-21 -125q-25 7 -49 10.5t-52 3.5q-51 0 -75.5 -16t-24.5 -51v-5h194v-132h-194
v-395h-158v395h-243v-395h-158v395h-119v132h119v8z" />
    <glyph glyph-name="fi" unicode="fi" horiz-adv-x="741" 
d="M118 535q0 66 29.5 109t85 64t133.5 21q29 0 59.5 -3t53.5 -11l-23 -124q-20 5 -38.5 6.5t-41.5 1.5q-51 0 -75.5 -16t-24.5 -51v-5h181v-132h-181v-395h-158v395h-119v132h119v8zM518 581v137h163v-137h-163zM679 527v-527h-160v527h160z" />
    <glyph glyph-name="ffi" unicode="ffi" horiz-adv-x="1129" 
d="M118 535q0 66 29.5 109t85 64t133.5 21q33 0 67 -4.5t58 -12.5l-21 -125q-24 6 -46 9t-48 3q-51 0 -75.5 -16t-24.5 -51v-5h243v8q0 66 29.5 109t85 64t133.5 21q29 0 59.5 -3t53.5 -11l-23 -124q-20 5 -38.5 6.5t-41.5 1.5q-51 0 -75.5 -16t-24.5 -51v-5h181v-132h-181
v-395h-158v395h-243v-395h-158v395h-119v132h119v8zM919 581v137h163v-137h-163zM1080 527v-527h-160v527h160z" />
    <glyph glyph-name="fl" unicode="fl" horiz-adv-x="741" 
d="M118 535q0 66 29.5 109t85 64t133.5 21q29 0 59.5 -3t53.5 -11l-23 -124q-20 5 -38.5 6.5t-41.5 1.5q-51 0 -75.5 -16t-24.5 -51v-5h181v-132h-181v-395h-158v395h-119v132h119v8zM679 718v-718h-160v718h160z" />
    <glyph glyph-name="ffl" unicode="ffl" horiz-adv-x="1129" 
d="M118 535q0 66 29.5 109t85 64t133.5 21q33 0 67 -4.5t58 -12.5l-21 -125q-24 6 -46 9t-48 3q-51 0 -75.5 -16t-24.5 -51v-5h243v8q0 66 29.5 109t85 64t133.5 21q29 0 59.5 -3t53.5 -11l-23 -124q-20 5 -38.5 6.5t-41.5 1.5q-51 0 -75.5 -16t-24.5 -51v-5h181v-132h-181
v-395h-158v395h-243v-395h-158v395h-119v132h119v8zM1080 718v-718h-160v718h160z" />
    <glyph glyph-name="f_idieresis" unicode="f&#xef;" horiz-adv-x="737" 
d="M498 710l-21 -125q-25 7 -49 10.5t-52 3.5q-51 0 -75.5 -16t-24.5 -51v-5h194v-132h-194v-395h-158v395h-119v132h119v8q0 66 29.5 109t85 64t133.5 21q37 0 72.5 -5t59.5 -14zM650 581v137h160v-137h-160zM688 527v-527h-161v527h161z" />
    <glyph glyph-name="f_b" unicode="fb" horiz-adv-x="1175" 
d="M118 535q0 66 29.5 109t85 64t133.5 21q29 0 59.5 -3t53.5 -11l-23 -124q-20 5 -38.5 6.5t-41.5 1.5q-51 0 -75.5 -16t-24.5 -51v-5h181v-132h-181v-395h-158v395h-119v132h119v8zM679 60v-60h-160v718h160v-251q27 29 76 50t115 21q90 0 154 -37.5t97.5 -99.5t33.5 -138
q0 -75 -33.5 -137.5t-97.5 -99.5t-154 -37q-66 0 -115 21t-76 50zM674 266v-6q0 -31 12.5 -57t34.5 -45t52 -29.5t64 -10.5q44 0 81 16.5t59 49t22 79.5t-22 79.5t-59 49.5t-81 17q-34 0 -64 -10.5t-52 -30t-34.5 -45.5t-12.5 -57z" />
    <glyph glyph-name="f_h" unicode="fh" horiz-adv-x="1146" 
d="M118 535q0 66 29.5 109t85 64t133.5 21q29 0 59.5 -3t53.5 -11l-23 -124q-20 5 -38.5 6.5t-41.5 1.5q-51 0 -75.5 -16t-24.5 -51v-5h181v-132h-181v-395h-158v395h-119v132h119v8zM519 0v718h160v-255q21 22 49.5 38.5t64.5 26.5t78 10q69 0 120.5 -29t80.5 -82.5
t29 -126.5v-300h-160v253q0 45 -14 77t-42 49t-69 17q-43 0 -74 -17t-47 -49t-16 -78v-252h-160z" />
    <glyph glyph-name="f_j" unicode="fj" horiz-adv-x="728" 
d="M118 535q0 66 29.5 109t85 64t133.5 21q29 0 59.5 -3t53.5 -11l-23 -124q-20 5 -38.5 6.5t-41.5 1.5q-51 0 -75.5 -16t-24.5 -51v-5h181v-132h-181v-395h-158v395h-119v132h119v8zM518 581v137h163v-137h-163zM679 20q0 -72 -28 -117.5t-80 -67t-124 -21.5q-31 0 -64.5 6
t-53.5 13l22 118q23 -6 41.5 -9t39.5 -3q43 0 65 17.5t22 64.5v506h160v-507z" />
    <glyph glyph-name="f_k" unicode="fk" horiz-adv-x="1147" 
d="M118 535q0 66 29.5 109t85 64t133.5 21q29 0 59.5 -3t53.5 -11l-23 -124q-20 5 -38.5 6.5t-41.5 1.5q-51 0 -75.5 -16t-24.5 -51v-5h181v-132h-181v-395h-158v395h-119v132h119v8zM679 718v-415l259 224h216l-263 -222l270 -305h-198l-188 208l-96 -81v-127h-160v718h160
z" />
    <glyph glyph-name=".notdef" horiz-adv-x="600" 
d="M0 0v718h600v-718h-600zM132 242l51 -51l117 117l118 -117l50 51l-116 118l116 117l-50 51l-118 -117l-117 117l-51 -51l117 -117z" />
    <glyph glyph-name=".null" horiz-adv-x="0" 
 />
    <glyph glyph-name="CR" horiz-adv-x="276" 
 />
    <glyph glyph-name="space" unicode=" " horiz-adv-x="276" 
 />
    <glyph glyph-name="uni00A0" unicode="&#xa0;" horiz-adv-x="276" 
 />
    <glyph glyph-name="A" unicode="A" horiz-adv-x="890" 
d="M351 718h189l357 -718h-181l-76 154h-394l-76 -154h-178zM444 554l-130 -262h259z" />
    <glyph glyph-name="B" unicode="B" horiz-adv-x="818" 
d="M57 0v718h481q118 0 182 -49.5t64 -143.5q0 -41 -15.5 -71.5t-39 -50.5t-47.5 -30q52 -19 87.5 -62.5t35.5 -108.5q0 -95 -66.5 -148.5t-182.5 -53.5h-499zM217 430h304q50 0 77.5 19.5t27.5 56.5q0 38 -27.5 56.5t-77.5 18.5h-304v-151zM217 300v-162h325q48 0 75 22.5
t27 58.5t-27 58.5t-75 22.5h-325z" />
    <glyph glyph-name="C" unicode="C" horiz-adv-x="838" 
d="M191 359q0 -68 34 -118.5t92 -78.5t130 -28q61 0 107.5 19t79.5 53.5t51 82.5l148 -71q-27 -71 -81.5 -122.5t-131 -79t-173.5 -27.5q-92 0 -170 27.5t-135.5 77.5t-89 117.5t-31.5 147.5t31.5 147.5t89 117.5t135.5 77.5t170 27.5q97 0 173.5 -27.5t131 -79t81.5 -122.5
l-148 -71q-18 48 -51 82.5t-79.5 53.5t-107.5 19q-72 0 -130 -28t-92 -78.5t-34 -118.5z" />
    <glyph glyph-name="D" unicode="D" horiz-adv-x="865" 
d="M57 0v718h372q128 0 221 -44t143.5 -124.5t50.5 -190.5q0 -109 -50.5 -190t-143.5 -125t-221 -44h-372zM221 141h208q78 0 133.5 27t84.5 76t29 115t-29.5 115t-84.5 76t-134 27h-207v-436z" />
    <glyph glyph-name="E" unicode="E" horiz-adv-x="782" 
d="M57 718h696v-143h-532v-138h475v-141h-475v-153h532v-143h-696v718z" />
    <glyph glyph-name="F" unicode="F" horiz-adv-x="767" 
d="M221 0h-164v718h688v-143h-524v-163h467v-140h-467v-272z" />
    <glyph glyph-name="G" unicode="G" horiz-adv-x="899" 
d="M702 0v75q-20 -24 -58 -43.5t-87.5 -31t-106.5 -11.5q-94 0 -172.5 27.5t-136 77.5t-89 118t-31.5 148t32 147.5t90.5 117t138.5 77t176 27.5t173.5 -27t132.5 -77t82 -120l-153 -65q-18 45 -50.5 77.5t-79.5 50t-109 17.5q-74 0 -133.5 -28t-94 -79t-34.5 -120
q0 -68 33.5 -119t92.5 -79t133 -28q62 0 115 16.5t88 46.5t42 68h-303v135h464v-398h-155z" />
    <glyph glyph-name="H" unicode="H" horiz-adv-x="882" 
d="M658 718h167v-718h-167v296h-434v-296h-167v718h167v-280h434v280z" />
    <glyph glyph-name="I" unicode="I" horiz-adv-x="281" 
d="M224 718v-718h-167v718h167z" />
    <glyph glyph-name="J" unicode="J" horiz-adv-x="729" 
d="M0 194l150 89q11 -41 38 -74.5t67.5 -53t90.5 -19.5q54 0 93.5 17.5t61 52t21.5 86.5v426h167v-438q0 -88 -42.5 -153.5t-120 -101.5t-181.5 -36q-82 0 -152.5 26t-120 72.5t-72.5 106.5z" />
    <glyph glyph-name="K" unicode="K" horiz-adv-x="840" 
d="M224 718v-328l376 328h230l-352 -302l376 -416h-216l-281 312l-133 -114v-198h-167v718h167z" />
    <glyph glyph-name="L" unicode="L" horiz-adv-x="730" 
d="M57 0v718h167v-575h485v-143h-652z" />
    <glyph glyph-name="M" unicode="M" horiz-adv-x="1061" 
d="M598 0h-135l-243 553v-553h-163v718h252l224 -514l223 514h248v-718h-162v553z" />
    <glyph glyph-name="N" unicode="N" horiz-adv-x="871" 
d="M814 718v-718h-147l-448 505v-505h-162v718h169l426 -481v481h162z" />
    <glyph glyph-name="O" unicode="O" horiz-adv-x="895" 
d="M448 729q93 0 170.5 -27.5t135 -77.5t89 -117.5t31.5 -147.5t-31.5 -147.5t-89 -117.5t-135 -77.5t-170.5 -27.5t-171 27.5t-135.5 77.5t-89 117.5t-31.5 147.5t31.5 147.5t89 117.5t135.5 77.5t171 27.5zM448 584q-75 0 -133 -28t-91 -78.5t-33 -118.5t33 -118.5
t91 -78.5t133 -28t132.5 28t90.5 78.5t33 118.5t-33 118.5t-90.5 78.5t-132.5 28z" />
    <glyph glyph-name="P" unicode="P" horiz-adv-x="804" 
d="M224 250v-250h-167v718h452q85 0 147.5 -26.5t97.5 -78.5t35 -129q0 -76 -35 -128.5t-97.5 -79t-147.5 -26.5h-285zM224 390h276q59 0 91.5 25t32.5 69t-32.5 68.5t-91.5 24.5h-276v-187z" />
    <glyph glyph-name="Q" unicode="Q" horiz-adv-x="895" 
d="M21 359q0 80 31.5 147.5t89 117.5t135.5 77.5t171 27.5t170.5 -27.5t135 -77.5t89 -117.5t31.5 -147.5q0 -59 -17.5 -111.5t-49.5 -96t-77 -76.5q15 -16 34.5 -28.5t44 -21.5t54.5 -15l-89 -119q-38 9 -74.5 26t-67 40t-50.5 49q-31 -8 -65 -12.5t-69 -4.5
q-93 0 -171 27.5t-135.5 77.5t-89 117.5t-31.5 147.5zM704 359q0 68 -33 118.5t-90.5 78.5t-132.5 28t-133 -28t-91 -78.5t-33 -118.5t33 -118.5t91 -78.5t133 -28t132.5 28t90.5 78.5t33 118.5z" />
    <glyph glyph-name="R" unicode="R" horiz-adv-x="815" 
d="M224 255v-255h-167v718h457q84 0 146.5 -26.5t97.5 -78t35 -126.5q0 -81 -43 -136t-119 -79l179 -272h-191l-163 255h-232zM224 391h281q59 0 91.5 25t32.5 68q0 44 -32.5 68.5t-91.5 24.5h-281v-186z" />
    <glyph glyph-name="S" unicode="S" horiz-adv-x="784" 
d="M-14 140l105 121q42 -49 96 -78t111 -41.5t109 -12.5q56 0 98.5 9.5t66.5 28t24 44.5q0 30 -22.5 44.5t-77.5 23t-151 18.5q-64 7 -120 19t-98.5 33t-66.5 56.5t-24 89.5q0 72 43 124.5t120.5 81t181.5 28.5q81 0 153.5 -17t129.5 -46.5t91 -69.5l-105 -111
q-43 50 -117 77.5t-163 27.5q-56 0 -94 -10.5t-57 -27.5t-19 -39q0 -23 20 -36.5t69.5 -22t137.5 -18.5q71 -8 132.5 -19.5t109 -33t74 -58.5t26.5 -96q0 -80 -48.5 -133.5t-131.5 -80t-189 -26.5q-62 0 -124 10.5t-118 30.5t-100.5 48t-71.5 62z" />
    <glyph glyph-name="T" unicode="T" horiz-adv-x="824" 
d="M807 575h-311v-575h-167v575h-312v143h790v-143z" />
    <glyph glyph-name="U" unicode="U" horiz-adv-x="827" 
d="M414 -11q-125 0 -208 42t-124.5 119t-41.5 181v387h167v-374q0 -63 21 -110t66.5 -73t119.5 -26t119.5 26t66 73t20.5 110v374h167v-387q0 -104 -41.5 -181t-124 -119t-207.5 -42z" />
    <glyph glyph-name="V" unicode="V" horiz-adv-x="888" 
d="M538 0h-189l-357 718h184l270 -547l271 547h179z" />
    <glyph glyph-name="W" unicode="W" horiz-adv-x="1180" 
d="M508 718h168l165 -523l177 523h170l-248 -718h-187l-163 517l-164 -517h-186l-248 718h174l177 -523z" />
    <glyph glyph-name="X" unicode="X" horiz-adv-x="866" 
d="M847 718l-311 -343l340 -375h-210l-234 264l-236 -264h-206l338 374l-311 344h209l208 -234l208 234h205z" />
    <glyph glyph-name="Y" unicode="Y" horiz-adv-x="862" 
d="M434 434l242 284h196l-357 -420v-298h-167v298l-358 420h201z" />
    <glyph glyph-name="Z" unicode="Z" horiz-adv-x="802" 
d="M767 143v-143h-733v126l488 449h-484v143h724v-125l-488 -450h493z" />
    <glyph glyph-name="Aacute" unicode="&#xc1;" horiz-adv-x="890" 
d="M351 718h189l357 -718h-181l-76 154h-394l-76 -154h-178zM444 554l-130 -262h259zM368 757l112 156h220l-190 -156h-142z" />
    <glyph glyph-name="Abreve" unicode="&#x102;" horiz-adv-x="890" 
d="M351 718h189l357 -718h-181l-76 154h-394l-76 -154h-178zM444 554l-130 -262h259zM445 858q38 0 63.5 15t25.5 40h115q0 -46 -23.5 -82.5t-69 -57.5t-111.5 -21t-111.5 21t-69 57.5t-23.5 82.5h115q0 -25 25.5 -40t63.5 -15z" />
    <glyph glyph-name="Acircumflex" unicode="&#xc2;" horiz-adv-x="890" 
d="M351 718h189l357 -718h-181l-76 154h-394l-76 -154h-178zM444 554l-130 -262h259zM530 913l143 -156h-126l-102 64l-102 -64h-126l143 156h170z" />
    <glyph glyph-name="Adieresis" unicode="&#xc4;" horiz-adv-x="890" 
d="M351 718h189l357 -718h-181l-76 154h-394l-76 -154h-178zM444 554l-130 -262h259zM238 757v141h160v-141h-160zM492 757v141h160v-141h-160z" />
    <glyph glyph-name="Agrave" unicode="&#xc0;" horiz-adv-x="890" 
d="M351 718h189l357 -718h-181l-76 154h-394l-76 -154h-178zM444 554l-130 -262h259zM522 757h-142l-190 156h220z" />
    <glyph glyph-name="Amacron" unicode="&#x100;" horiz-adv-x="890" 
d="M351 718h189l357 -718h-181l-76 154h-394l-76 -154h-178zM444 554l-130 -262h259zM644 763h-398v121h398v-121z" />
    <glyph glyph-name="Aogonek" unicode="&#x104;" horiz-adv-x="890" 
d="M597 -93q0 76 106 119l-63 128h-394l-76 -154h-178l359 718h189l357 -718h-85q-64 -18 -87.5 -32t-23.5 -30q0 -13 16 -21t43 -8q21 0 52 6v-89q-45 -9 -79 -9q-36 0 -67 10t-50 30t-19 50zM444 554l-130 -262h259z" />
    <glyph glyph-name="Aring" unicode="&#xc5;" horiz-adv-x="890" 
d="M293 784q0 56 42 93.5t110 37.5t110 -37.5t42 -93.5q0 -28 -11.5 -52.5t-31.5 -42.5l343 -689h-181l-76 154h-394l-76 -154h-178l344 689q-20 18 -31.5 42.5t-11.5 52.5zM386 784q0 -22 16.5 -37t42.5 -15t42.5 15t16.5 37q0 23 -16.5 37t-42.5 14t-42.5 -14t-16.5 -37z
M444 554l-130 -262h259z" />
    <glyph glyph-name="Atilde" unicode="&#xc3;" horiz-adv-x="890" 
d="M351 718h189l357 -718h-181l-76 154h-394l-76 -154h-178zM444 554l-130 -262h259zM346 930q32 0 56.5 -7.5t45 -18t39 -18t37.5 -7.5q18 0 28 12.5t14 38.5h106q-3 -78 -36.5 -125t-92.5 -47q-31 0 -56 7.5t-45 18t-38.5 18t-38.5 7.5q-18 0 -27.5 -12.5t-14.5 -38.5
h-105q2 77 36 124.5t92 47.5z" />
    <glyph glyph-name="AE" unicode="&#xc6;" horiz-adv-x="1431" 
d="M628 718h774v-143h-532v-138h475v-141h-475v-153h532v-143h-696v154h-370l-136 -154h-211zM457 291h249v283z" />
    <glyph glyph-name="AEacute" unicode="&#x1fc;" horiz-adv-x="1431" 
d="M628 718h774v-143h-532v-138h475v-141h-475v-153h532v-143h-696v154h-370l-136 -154h-211zM457 291h249v283zM902 757l112 156h220l-190 -156h-142z" />
    <glyph glyph-name="Cacute" unicode="&#x106;" horiz-adv-x="838" 
d="M191 359q0 -68 34 -118.5t92 -78.5t130 -28q61 0 107.5 19t79.5 53.5t51 82.5l148 -71q-27 -71 -81.5 -122.5t-131 -79t-173.5 -27.5q-92 0 -170 27.5t-135.5 77.5t-89 117.5t-31.5 147.5t31.5 147.5t89 117.5t135.5 77.5t170 27.5q97 0 173.5 -27.5t131 -79t81.5 -122.5
l-148 -71q-18 48 -51 82.5t-79.5 53.5t-107.5 19q-72 0 -130 -28t-92 -78.5t-34 -118.5zM366 757l112 156h220l-190 -156h-142z" />
    <glyph glyph-name="Ccaron" unicode="&#x10c;" horiz-adv-x="838" 
d="M191 359q0 -68 34 -118.5t92 -78.5t130 -28q61 0 107.5 19t79.5 53.5t51 82.5l148 -71q-27 -71 -81.5 -122.5t-131 -79t-173.5 -27.5q-92 0 -170 27.5t-135.5 77.5t-89 117.5t-31.5 147.5t31.5 147.5t89 117.5t135.5 77.5t170 27.5q97 0 173.5 -27.5t131 -79t81.5 -122.5
l-148 -71q-18 48 -51 82.5t-79.5 53.5t-107.5 19q-72 0 -130 -28t-92 -78.5t-34 -118.5zM530 758h-170l-143 156h126l102 -64l102 64h126z" />
    <glyph glyph-name="Ccedilla" unicode="&#xc7;" horiz-adv-x="838" 
d="M21 359q0 80 31.5 147.5t89 117.5t135.5 77.5t170 27.5q145 0 245 -61t141 -168l-148 -71q-27 71 -87 113t-151 42q-72 0 -130 -28t-92 -78.5t-34 -118.5t34 -118.5t92 -78.5t130 -28q91 0 151 42t87 113l148 -71q-40 -105 -137.5 -166t-238.5 -63l-3 -9q52 -2 85 -22.5
t33 -56.5q0 -41 -43 -64.5t-103 -23.5q-42 0 -79.5 9.5t-60.5 26.5l45 67q19 -14 41 -20t45 -6q48 0 48 22q0 15 -26.5 20t-68.5 6l16 54q-107 12 -189.5 62t-129 128.5t-46.5 176.5z" />
    <glyph glyph-name="Ccircumflex" unicode="&#x108;" horiz-adv-x="838" 
d="M191 359q0 -68 34 -118.5t92 -78.5t130 -28q61 0 107.5 19t79.5 53.5t51 82.5l148 -71q-27 -71 -81.5 -122.5t-131 -79t-173.5 -27.5q-92 0 -170 27.5t-135.5 77.5t-89 117.5t-31.5 147.5t31.5 147.5t89 117.5t135.5 77.5t170 27.5q97 0 173.5 -27.5t131 -79t81.5 -122.5
l-148 -71q-18 48 -51 82.5t-79.5 53.5t-107.5 19q-72 0 -130 -28t-92 -78.5t-34 -118.5zM530 913l143 -156h-126l-102 64l-102 -64h-126l143 156h170z" />
    <glyph glyph-name="Cdotaccent" unicode="&#x10a;" horiz-adv-x="838" 
d="M191 359q0 -68 34 -118.5t92 -78.5t130 -28q61 0 107.5 19t79.5 53.5t51 82.5l148 -71q-27 -71 -81.5 -122.5t-131 -79t-173.5 -27.5q-92 0 -170 27.5t-135.5 77.5t-89 117.5t-31.5 147.5t31.5 147.5t89 117.5t135.5 77.5t170 27.5q97 0 173.5 -27.5t131 -79t81.5 -122.5
l-148 -71q-18 48 -51 82.5t-79.5 53.5t-107.5 19q-72 0 -130 -28t-92 -78.5t-34 -118.5zM354 757v141h172v-141h-172z" />
    <glyph glyph-name="Dcaron" unicode="&#x10e;" horiz-adv-x="865" 
d="M57 0v718h372q128 0 221 -44t143.5 -124.5t50.5 -190.5q0 -109 -50.5 -190t-143.5 -125t-221 -44h-372zM221 141h208q78 0 133.5 27t84.5 76t29 115t-29.5 115t-84.5 76t-134 27h-207v-436zM481 758h-170l-143 156h126l102 -64l102 64h126z" />
    <glyph glyph-name="Dcroat" unicode="&#x110;" horiz-adv-x="905" 
d="M97 0v296h-91v141h91v281h372q128 0 221 -44t143.5 -124.5t50.5 -190.5q0 -109 -50.5 -190t-143.5 -125t-221 -44h-372zM261 141h208q78 0 133.5 27t84.5 76t29 115t-29.5 115t-84.5 76t-134 27h-207v-140h157v-141h-157v-155z" />
    <glyph glyph-name="Eacute" unicode="&#xc9;" horiz-adv-x="782" 
d="M57 718h696v-143h-532v-138h475v-141h-475v-153h532v-143h-696v718zM316 757l112 156h220l-190 -156h-142z" />
    <glyph glyph-name="Ebreve" unicode="&#x114;" horiz-adv-x="782" 
d="M57 718h696v-143h-532v-138h475v-141h-475v-153h532v-143h-696v718zM403 858q38 0 63.5 15t25.5 40h115q0 -46 -23.5 -82.5t-69 -57.5t-111.5 -21t-111.5 21t-69 57.5t-23.5 82.5h115q0 -25 25.5 -40t63.5 -15z" />
    <glyph glyph-name="Ecaron" unicode="&#x11a;" horiz-adv-x="782" 
d="M57 718h696v-143h-532v-138h475v-141h-475v-153h532v-143h-696v718zM488 758h-170l-143 156h126l102 -64l102 64h126z" />
    <glyph glyph-name="Ecircumflex" unicode="&#xca;" horiz-adv-x="782" 
d="M57 718h696v-143h-532v-138h475v-141h-475v-153h532v-143h-696v718zM488 913l143 -156h-126l-102 64l-102 -64h-126l143 156h170z" />
    <glyph glyph-name="Edieresis" unicode="&#xcb;" horiz-adv-x="782" 
d="M57 718h696v-143h-532v-138h475v-141h-475v-153h532v-143h-696v718zM196 757v141h160v-141h-160zM450 757v141h160v-141h-160z" />
    <glyph glyph-name="Edotaccent" unicode="&#x116;" horiz-adv-x="782" 
d="M57 718h696v-143h-532v-138h475v-141h-475v-153h532v-143h-696v718zM317 757v141h172v-141h-172z" />
    <glyph glyph-name="Egrave" unicode="&#xc8;" horiz-adv-x="782" 
d="M57 718h696v-143h-532v-138h475v-141h-475v-153h532v-143h-696v718zM509 757h-142l-190 156h220z" />
    <glyph glyph-name="Emacron" unicode="&#x112;" horiz-adv-x="782" 
d="M57 718h696v-143h-532v-138h475v-141h-475v-153h532v-143h-696v718zM602 763h-398v121h398v-121z" />
    <glyph glyph-name="Eogonek" unicode="&#x118;" horiz-adv-x="782" 
d="M464 -93q0 27 14 50.5t42 42.5h-463v718h696v-143h-532v-138h475v-141h-475v-153h532v-143h-74q-64 -18 -87.5 -32t-23.5 -30q0 -13 16 -21t43 -8q11 0 23.5 1.5t28.5 4.5v-89q-22 -4 -42 -6.5t-37 -2.5q-36 0 -67 10t-50 30t-19 50z" />
    <glyph glyph-name="Eth" unicode="&#xd0;" horiz-adv-x="905" 
d="M97 0v296h-91v141h91v281h372q128 0 221 -44t143.5 -124.5t50.5 -190.5q0 -109 -50.5 -190t-143.5 -125t-221 -44h-372zM261 141h208q78 0 133.5 27t84.5 76t29 115t-29.5 115t-84.5 76t-134 27h-207v-140h157v-141h-157v-155z" />
    <glyph glyph-name="Gbreve" unicode="&#x11e;" horiz-adv-x="899" 
d="M702 0v75q-20 -24 -58 -43.5t-87.5 -31t-106.5 -11.5q-94 0 -172.5 27.5t-136 77.5t-89 118t-31.5 148t32 147.5t90.5 117t138.5 77t176 27.5t173.5 -27t132.5 -77t82 -120l-153 -65q-18 45 -50.5 77.5t-79.5 50t-109 17.5q-74 0 -133.5 -28t-94 -79t-34.5 -120
q0 -68 33.5 -119t92.5 -79t133 -28q62 0 115 16.5t88 46.5t42 68h-303v135h464v-398h-155zM459 858q38 0 63.5 15t25.5 40h115q0 -46 -23.5 -82.5t-69 -57.5t-111.5 -21t-111.5 21t-69 57.5t-23.5 82.5h115q0 -25 25.5 -40t63.5 -15z" />
    <glyph glyph-name="Gcircumflex" unicode="&#x11c;" horiz-adv-x="899" 
d="M702 0v75q-20 -24 -58 -43.5t-87.5 -31t-106.5 -11.5q-94 0 -172.5 27.5t-136 77.5t-89 118t-31.5 148t32 147.5t90.5 117t138.5 77t176 27.5t173.5 -27t132.5 -77t82 -120l-153 -65q-18 45 -50.5 77.5t-79.5 50t-109 17.5q-74 0 -133.5 -28t-94 -79t-34.5 -120
q0 -68 33.5 -119t92.5 -79t133 -28q62 0 115 16.5t88 46.5t42 68h-303v135h464v-398h-155zM544 913l143 -156h-126l-102 64l-102 -64h-126l143 156h170z" />
    <glyph glyph-name="Gcommaaccent" unicode="&#x122;" horiz-adv-x="899" 
d="M702 0v75q-20 -24 -58 -43.5t-87.5 -31t-106.5 -11.5q-94 0 -172.5 27.5t-136 77.5t-89 118t-31.5 148t32 147.5t90.5 117t138.5 77t176 27.5t173.5 -27t132.5 -77t82 -120l-153 -65q-18 45 -50.5 77.5t-79.5 50t-109 17.5q-74 0 -133.5 -28t-94 -79t-34.5 -120
q0 -68 33.5 -119t92.5 -79t133 -28q62 0 115 16.5t88 46.5t42 68h-303v135h464v-398h-155zM362 -123v90h160v-51q0 -68 -44.5 -99t-115.5 -31v59q32 0 43 9.5t14 22.5h-57z" />
    <glyph glyph-name="Gdotaccent" unicode="&#x120;" horiz-adv-x="899" 
d="M702 0v75q-20 -24 -58 -43.5t-87.5 -31t-106.5 -11.5q-94 0 -172.5 27.5t-136 77.5t-89 118t-31.5 148t32 147.5t90.5 117t138.5 77t176 27.5t173.5 -27t132.5 -77t82 -120l-153 -65q-18 45 -50.5 77.5t-79.5 50t-109 17.5q-74 0 -133.5 -28t-94 -79t-34.5 -120
q0 -68 33.5 -119t92.5 -79t133 -28q62 0 115 16.5t88 46.5t42 68h-303v135h464v-398h-155zM369 757v141h172v-141h-172z" />
    <glyph glyph-name="Hbar" unicode="&#x126;" horiz-adv-x="938" 
d="M937 457h-84v-457h-167v221h-434v-221h-167v457h-80v139h80v122h167v-122h434v122h167v-122h84v-139zM252 360h434v97h-434v-97z" />
    <glyph glyph-name="Hcircumflex" unicode="&#x124;" horiz-adv-x="882" 
d="M658 718h167v-718h-167v296h-434v-296h-167v718h167v-280h434v280zM520 913l143 -156h-126l-102 64l-102 -64h-126l143 156h170z" />
    <glyph glyph-name="Iacute" unicode="&#xcd;" horiz-adv-x="281" 
d="M224 718v-718h-167v718h167zM67 757l112 156h220l-190 -156h-142z" />
    <glyph glyph-name="Ibreve" unicode="&#x12c;" horiz-adv-x="281" 
d="M224 718v-718h-167v718h167zM140 858q38 0 63.5 15t25.5 40h115q0 -46 -23.5 -82.5t-69 -57.5t-111.5 -21t-111.5 21t-69 57.5t-23.5 82.5h115q0 -25 25.5 -40t63.5 -15z" />
    <glyph glyph-name="Icircumflex" unicode="&#xce;" horiz-adv-x="281" 
d="M224 718v-718h-167v718h167zM225 913l143 -156h-126l-102 64l-102 -64h-126l143 156h170z" />
    <glyph glyph-name="Idieresis" unicode="&#xcf;" horiz-adv-x="281" 
d="M224 718v-718h-167v718h167zM-67 757v141h160v-141h-160zM187 757v141h160v-141h-160z" />
    <glyph glyph-name="Idotaccent" unicode="&#x130;" horiz-adv-x="281" 
d="M224 718v-718h-167v718h167zM54 757v141h172v-141h-172z" />
    <glyph glyph-name="Igrave" unicode="&#xcc;" horiz-adv-x="281" 
d="M224 718v-718h-167v718h167zM216 757h-142l-190 156h220z" />
    <glyph glyph-name="Imacron" unicode="&#x12a;" horiz-adv-x="281" 
d="M224 718v-718h-167v718h167zM339 763h-398v121h398v-121z" />
    <glyph glyph-name="Iogonek" unicode="&#x12e;" horiz-adv-x="281" 
d="M9 -93q0 55 56 93h-8v718h167v-718q-64 -18 -87.5 -32t-23.5 -30q0 -13 16 -21t43 -8q21 0 52 6v-89q-45 -9 -79 -9q-36 0 -67 10t-50 30t-19 50z" />
    <glyph glyph-name="Itilde" unicode="&#x128;" horiz-adv-x="281" 
d="M224 718v-718h-167v718h167zM41 930q32 0 56.5 -7.5t45 -18t39 -18t37.5 -7.5q18 0 28 12.5t14 38.5h106q-3 -78 -36.5 -125t-92.5 -47q-31 0 -56 7.5t-45 18t-38.5 18t-38.5 7.5q-18 0 -27.5 -12.5t-14.5 -38.5h-105q2 77 36 124.5t92 47.5z" />
    <glyph glyph-name="Jcircumflex" unicode="&#x134;" horiz-adv-x="729" 
d="M0 194l150 89q11 -41 38 -74.5t67.5 -53t90.5 -19.5q54 0 93.5 17.5t61 52t21.5 86.5v426h167v-438q0 -88 -42.5 -153.5t-120 -101.5t-181.5 -36q-82 0 -152.5 26t-120 72.5t-72.5 106.5zM689 913l143 -156h-126l-102 64l-102 -64h-126l143 156h170z" />
    <glyph glyph-name="Kcommaaccent" unicode="&#x136;" horiz-adv-x="840" 
d="M224 718v-328l376 328h230l-352 -302l376 -416h-216l-281 312l-133 -114v-198h-167v718h167zM341 -123v90h160v-51q0 -68 -44.5 -99t-115.5 -31v59q32 0 43 9.5t14 22.5h-57z" />
    <glyph glyph-name="Lacute" unicode="&#x139;" horiz-adv-x="730" 
d="M57 0v718h167v-575h485v-143h-652zM68 757l112 156h220l-190 -156h-142z" />
    <glyph glyph-name="Lcaron" unicode="&#x13d;" horiz-adv-x="730" 
d="M57 0v718h167v-575h485v-143h-652zM325 550l23 168h171l-86 -168h-108z" />
    <glyph glyph-name="Lcommaaccent" unicode="&#x13b;" horiz-adv-x="730" 
d="M57 0v718h167v-575h485v-143h-652zM226 -123v90h160v-51q0 -68 -44.5 -99t-115.5 -31v59q32 0 43 9.5t14 22.5h-57z" />
    <glyph glyph-name="Ldot" unicode="&#x13f;" horiz-adv-x="730" 
d="M57 0v718h167v-575h485v-143h-652zM424 306v137h162v-137h-162z" />
    <glyph glyph-name="Lslash" unicode="&#x141;" horiz-adv-x="761" 
d="M91 0v233l-93 -37v139l93 37v346h167v-293l213 80v-139l-213 -80v-143h485v-143h-652z" />
    <glyph glyph-name="Nacute" unicode="&#x143;" horiz-adv-x="871" 
d="M814 718v-718h-147l-448 505v-505h-162v718h169l426 -481v481h162zM344 757l112 156h220l-190 -156h-142z" />
    <glyph glyph-name="Ncaron" unicode="&#x147;" horiz-adv-x="871" 
d="M814 718v-718h-147l-448 505v-505h-162v718h169l426 -481v481h162zM517 758h-170l-143 156h126l102 -64l102 64h126z" />
    <glyph glyph-name="Ncommaaccent" unicode="&#x145;" horiz-adv-x="871" 
d="M814 718v-718h-147l-448 505v-505h-162v718h169l426 -481v481h162zM352 -123v90h160v-51q0 -68 -44.5 -99t-115.5 -31v59q32 0 43 9.5t14 22.5h-57z" />
    <glyph glyph-name="Ntilde" unicode="&#xd1;" horiz-adv-x="871" 
d="M814 718v-718h-147l-448 505v-505h-162v718h169l426 -481v481h162zM333 930q32 0 56.5 -7.5t45 -18t39 -18t37.5 -7.5q18 0 28 12.5t14 38.5h106q-3 -78 -36.5 -125t-92.5 -47q-31 0 -56 7.5t-45 18t-38.5 18t-38.5 7.5q-18 0 -27.5 -12.5t-14.5 -38.5h-105
q2 77 36 124.5t92 47.5z" />
    <glyph glyph-name="Eng" unicode="&#x14a;" horiz-adv-x="871" 
d="M652 718h162v-699q0 -74 -29 -119t-81 -65.5t-122 -20.5q-31 0 -64.5 5.5t-53.5 12.5l22 121q23 -6 41.5 -9t39.5 -3q42 0 64.5 17.5t22.5 51.5v5l-435 486v-501h-162v718h169l426 -481v481z" />
    <glyph glyph-name="Oacute" unicode="&#xd3;" horiz-adv-x="895" 
d="M448 729q93 0 170.5 -27.5t135 -77.5t89 -117.5t31.5 -147.5t-31.5 -147.5t-89 -117.5t-135 -77.5t-170.5 -27.5t-171 27.5t-135.5 77.5t-89 117.5t-31.5 147.5t31.5 147.5t89 117.5t135.5 77.5t171 27.5zM448 584q-75 0 -133 -28t-91 -78.5t-33 -118.5t33 -118.5
t91 -78.5t133 -28t132.5 28t90.5 78.5t33 118.5t-33 118.5t-90.5 78.5t-132.5 28zM363 757l112 156h220l-190 -156h-142z" />
    <glyph glyph-name="Obreve" unicode="&#x14e;" horiz-adv-x="895" 
d="M448 729q93 0 170.5 -27.5t135 -77.5t89 -117.5t31.5 -147.5t-31.5 -147.5t-89 -117.5t-135 -77.5t-170.5 -27.5t-171 27.5t-135.5 77.5t-89 117.5t-31.5 147.5t31.5 147.5t89 117.5t135.5 77.5t171 27.5zM448 584q-75 0 -133 -28t-91 -78.5t-33 -118.5t33 -118.5
t91 -78.5t133 -28t132.5 28t90.5 78.5t33 118.5t-33 118.5t-90.5 78.5t-132.5 28zM448 858q38 0 63.5 15t25.5 40h115q0 -46 -23.5 -82.5t-69 -57.5t-111.5 -21t-111.5 21t-69 57.5t-23.5 82.5h115q0 -25 25.5 -40t63.5 -15z" />
    <glyph glyph-name="Ocircumflex" unicode="&#xd4;" horiz-adv-x="895" 
d="M448 729q93 0 170.5 -27.5t135 -77.5t89 -117.5t31.5 -147.5t-31.5 -147.5t-89 -117.5t-135 -77.5t-170.5 -27.5t-171 27.5t-135.5 77.5t-89 117.5t-31.5 147.5t31.5 147.5t89 117.5t135.5 77.5t171 27.5zM448 584q-75 0 -133 -28t-91 -78.5t-33 -118.5t33 -118.5
t91 -78.5t133 -28t132.5 28t90.5 78.5t33 118.5t-33 118.5t-90.5 78.5t-132.5 28zM533 913l143 -156h-126l-102 64l-102 -64h-126l143 156h170z" />
    <glyph glyph-name="Odieresis" unicode="&#xd6;" horiz-adv-x="895" 
d="M448 729q93 0 170.5 -27.5t135 -77.5t89 -117.5t31.5 -147.5t-31.5 -147.5t-89 -117.5t-135 -77.5t-170.5 -27.5t-171 27.5t-135.5 77.5t-89 117.5t-31.5 147.5t31.5 147.5t89 117.5t135.5 77.5t171 27.5zM448 584q-75 0 -133 -28t-91 -78.5t-33 -118.5t33 -118.5
t91 -78.5t133 -28t132.5 28t90.5 78.5t33 118.5t-33 118.5t-90.5 78.5t-132.5 28zM241 757v141h160v-141h-160zM495 757v141h160v-141h-160z" />
    <glyph glyph-name="Ograve" unicode="&#xd2;" horiz-adv-x="895" 
d="M448 729q93 0 170.5 -27.5t135 -77.5t89 -117.5t31.5 -147.5t-31.5 -147.5t-89 -117.5t-135 -77.5t-170.5 -27.5t-171 27.5t-135.5 77.5t-89 117.5t-31.5 147.5t31.5 147.5t89 117.5t135.5 77.5t171 27.5zM448 584q-75 0 -133 -28t-91 -78.5t-33 -118.5t33 -118.5
t91 -78.5t133 -28t132.5 28t90.5 78.5t33 118.5t-33 118.5t-90.5 78.5t-132.5 28zM535 757h-142l-190 156h220z" />
    <glyph glyph-name="Ohungarumlaut" unicode="&#x150;" horiz-adv-x="895" 
d="M448 729q93 0 170.5 -27.5t135 -77.5t89 -117.5t31.5 -147.5t-31.5 -147.5t-89 -117.5t-135 -77.5t-170.5 -27.5t-171 27.5t-135.5 77.5t-89 117.5t-31.5 147.5t31.5 147.5t89 117.5t135.5 77.5t171 27.5zM448 584q-75 0 -133 -28t-91 -78.5t-33 -118.5t33 -118.5
t91 -78.5t133 -28t132.5 28t90.5 78.5t33 118.5t-33 118.5t-90.5 78.5t-132.5 28zM504 757l94 156h180l-150 -156h-124zM263 757l89 156h184l-150 -156h-123z" />
    <glyph glyph-name="Omacron" unicode="&#x14c;" horiz-adv-x="895" 
d="M448 729q93 0 170.5 -27.5t135 -77.5t89 -117.5t31.5 -147.5t-31.5 -147.5t-89 -117.5t-135 -77.5t-170.5 -27.5t-171 27.5t-135.5 77.5t-89 117.5t-31.5 147.5t31.5 147.5t89 117.5t135.5 77.5t171 27.5zM448 584q-75 0 -133 -28t-91 -78.5t-33 -118.5t33 -118.5
t91 -78.5t133 -28t132.5 28t90.5 78.5t33 118.5t-33 118.5t-90.5 78.5t-132.5 28zM647 763h-398v121h398v-121z" />
    <glyph glyph-name="Oslash" unicode="&#xd8;" horiz-adv-x="895" 
d="M30 60l74 71q-40 47 -61.5 104.5t-21.5 123.5q0 80 31.5 147.5t89 117.5t135 77.5t170.5 27.5q72 0 135.5 -16.5t115.5 -48.5l76 73l91 -89l-70 -67q38 -46 58.5 -102t20.5 -120q0 -80 -31.5 -147.5t-89 -117.5t-135.5 -77.5t-171 -27.5q-70 0 -131.5 16t-112.5 45
l-83 -79zM187 359q0 -37 10 -69.5t28 -59.5l357 331q-29 14 -63 21t-72 7q-78 0 -136.5 -28t-91 -79.5t-32.5 -122.5zM707 359q0 35 -8.5 66.5t-25.5 56.5l-353 -328q28 -12 60 -18.5t67 -6.5q79 0 137 28t90.5 80t32.5 122z" />
    <glyph glyph-name="Oslashacute" unicode="&#x1fe;" horiz-adv-x="895" 
d="M30 60l74 71q-40 47 -61.5 104.5t-21.5 123.5q0 80 31.5 147.5t89 117.5t135 77.5t170.5 27.5q72 0 135.5 -16.5t115.5 -48.5l76 73l91 -89l-70 -67q38 -46 58.5 -102t20.5 -120q0 -80 -31.5 -147.5t-89 -117.5t-135.5 -77.5t-171 -27.5q-70 0 -131.5 16t-112.5 45
l-83 -79zM187 359q0 -37 10 -69.5t28 -59.5l357 331q-29 14 -63 21t-72 7q-78 0 -136.5 -28t-91 -79.5t-32.5 -122.5zM707 359q0 35 -8.5 66.5t-25.5 56.5l-353 -328q28 -12 60 -18.5t67 -6.5q79 0 137 28t90.5 80t32.5 122zM362 757l112 156h220l-190 -156h-142z" />
    <glyph glyph-name="Otilde" unicode="&#xd5;" horiz-adv-x="895" 
d="M448 729q93 0 170.5 -27.5t135 -77.5t89 -117.5t31.5 -147.5t-31.5 -147.5t-89 -117.5t-135 -77.5t-170.5 -27.5t-171 27.5t-135.5 77.5t-89 117.5t-31.5 147.5t31.5 147.5t89 117.5t135.5 77.5t171 27.5zM448 584q-75 0 -133 -28t-91 -78.5t-33 -118.5t33 -118.5
t91 -78.5t133 -28t132.5 28t90.5 78.5t33 118.5t-33 118.5t-90.5 78.5t-132.5 28zM349 930q32 0 56.5 -7.5t45 -18t39 -18t37.5 -7.5q18 0 28 12.5t14 38.5h106q-3 -78 -36.5 -125t-92.5 -47q-31 0 -56 7.5t-45 18t-38.5 18t-38.5 7.5q-18 0 -27.5 -12.5t-14.5 -38.5h-105
q2 77 36 124.5t92 47.5z" />
    <glyph glyph-name="OE" unicode="&#x152;" horiz-adv-x="1333" 
d="M24 359q0 110 50.5 190.5t143.5 124.5t221 44h865v-143h-512v-138h455v-141h-455v-153h512v-143h-865q-128 0 -221 44t-143.5 125t-50.5 190zM628 577h-188q-79 0 -134.5 -27t-84.5 -76t-29 -115t29 -115t84.5 -76t133.5 -27h189v436z" />
    <glyph glyph-name="Racute" unicode="&#x154;" horiz-adv-x="815" 
d="M224 255v-255h-167v718h457q84 0 146.5 -26.5t97.5 -78t35 -126.5q0 -81 -43 -136t-119 -79l179 -272h-191l-163 255h-232zM224 391h281q59 0 91.5 25t32.5 68q0 44 -32.5 68.5t-91.5 24.5h-281v-186zM317 757l112 156h220l-190 -156h-142z" />
    <glyph glyph-name="Rcaron" unicode="&#x158;" horiz-adv-x="815" 
d="M224 255v-255h-167v718h457q84 0 146.5 -26.5t97.5 -78t35 -126.5q0 -81 -43 -136t-119 -79l179 -272h-191l-163 255h-232zM224 391h281q59 0 91.5 25t32.5 68q0 44 -32.5 68.5t-91.5 24.5h-281v-186zM483 758h-170l-143 156h126l102 -64l102 64h126z" />
    <glyph glyph-name="Rcommaaccent" unicode="&#x156;" horiz-adv-x="815" 
d="M224 255v-255h-167v718h457q84 0 146.5 -26.5t97.5 -78t35 -126.5q0 -81 -43 -136t-119 -79l179 -272h-191l-163 255h-232zM224 391h281q59 0 91.5 25t32.5 68q0 44 -32.5 68.5t-91.5 24.5h-281v-186zM316 -123v90h160v-51q0 -68 -44.5 -99t-115.5 -31v59q32 0 43 9.5
t14 22.5h-57z" />
    <glyph glyph-name="Sacute" unicode="&#x15a;" horiz-adv-x="784" 
d="M-14 140l105 121q42 -49 96 -78t111 -41.5t109 -12.5q56 0 98.5 9.5t66.5 28t24 44.5q0 30 -22.5 44.5t-77.5 23t-151 18.5q-64 7 -120 19t-98.5 33t-66.5 56.5t-24 89.5q0 72 43 124.5t120.5 81t181.5 28.5q81 0 153.5 -17t129.5 -46.5t91 -69.5l-105 -111
q-43 50 -117 77.5t-163 27.5q-56 0 -94 -10.5t-57 -27.5t-19 -39q0 -23 20 -36.5t69.5 -22t137.5 -18.5q71 -8 132.5 -19.5t109 -33t74 -58.5t26.5 -96q0 -80 -48.5 -133.5t-131.5 -80t-189 -26.5q-62 0 -124 10.5t-118 30.5t-100.5 48t-71.5 62zM315 757l112 156h220
l-190 -156h-142z" />
    <glyph glyph-name="Scaron" unicode="&#x160;" horiz-adv-x="784" 
d="M-14 140l105 121q42 -49 96 -78t111 -41.5t109 -12.5q56 0 98.5 9.5t66.5 28t24 44.5q0 30 -22.5 44.5t-77.5 23t-151 18.5q-64 7 -120 19t-98.5 33t-66.5 56.5t-24 89.5q0 72 43 124.5t120.5 81t181.5 28.5q81 0 153.5 -17t129.5 -46.5t91 -69.5l-105 -111
q-43 50 -117 77.5t-163 27.5q-56 0 -94 -10.5t-57 -27.5t-19 -39q0 -23 20 -36.5t69.5 -22t137.5 -18.5q71 -8 132.5 -19.5t109 -33t74 -58.5t26.5 -96q0 -80 -48.5 -133.5t-131.5 -80t-189 -26.5q-62 0 -124 10.5t-118 30.5t-100.5 48t-71.5 62zM473 758h-170l-143 156h126
l102 -64l102 64h126z" />
    <glyph glyph-name="Scedilla" unicode="&#x15e;" horiz-adv-x="784" 
d="M-14 140l105 121q42 -49 96 -78t111 -41.5t109 -12.5q83 0 136 21.5t53 60.5q0 30 -22.5 44.5t-77.5 23t-151 18.5q-64 7 -120 19t-98.5 33t-66.5 56.5t-24 89.5q0 72 43 124.5t120.5 81t181.5 28.5q81 0 153.5 -17t129.5 -46.5t91 -69.5l-105 -111q-43 50 -117 77.5
t-163 27.5q-85 0 -127.5 -22.5t-42.5 -54.5q0 -23 20 -36.5t69.5 -22t137.5 -18.5q71 -8 132.5 -19.5t109 -33t74 -58.5t26.5 -96q0 -80 -48 -133.5t-130 -80t-185 -26.5l-3 -9q52 -2 85 -22.5t33 -56.5q0 -41 -43 -64.5t-103 -23.5q-42 0 -79.5 9.5t-60.5 26.5l45 67
q19 -14 41 -20t45 -6q48 0 48 22q0 15 -26.5 20t-68.5 6l16 54q-72 7 -140 26.5t-122.5 50.5t-86.5 71z" />
    <glyph glyph-name="Scircumflex" unicode="&#x15c;" horiz-adv-x="784" 
d="M-14 140l105 121q42 -49 96 -78t111 -41.5t109 -12.5q56 0 98.5 9.5t66.5 28t24 44.5q0 30 -22.5 44.5t-77.5 23t-151 18.5q-64 7 -120 19t-98.5 33t-66.5 56.5t-24 89.5q0 72 43 124.5t120.5 81t181.5 28.5q81 0 153.5 -17t129.5 -46.5t91 -69.5l-105 -111
q-43 50 -117 77.5t-163 27.5q-56 0 -94 -10.5t-57 -27.5t-19 -39q0 -23 20 -36.5t69.5 -22t137.5 -18.5q71 -8 132.5 -19.5t109 -33t74 -58.5t26.5 -96q0 -80 -48.5 -133.5t-131.5 -80t-189 -26.5q-62 0 -124 10.5t-118 30.5t-100.5 48t-71.5 62zM469 913l143 -156h-126
l-102 64l-102 -64h-126l143 156h170z" />
    <glyph glyph-name="Scommaaccent" unicode="&#x218;" horiz-adv-x="784" 
d="M-14 140l105 121q42 -49 96 -78t111 -41.5t109 -12.5q56 0 98.5 9.5t66.5 28t24 44.5q0 30 -22.5 44.5t-77.5 23t-151 18.5q-64 7 -120 19t-98.5 33t-66.5 56.5t-24 89.5q0 72 43 124.5t120.5 81t181.5 28.5q81 0 153.5 -17t129.5 -46.5t91 -69.5l-105 -111
q-43 50 -117 77.5t-163 27.5q-56 0 -94 -10.5t-57 -27.5t-19 -39q0 -23 20 -36.5t69.5 -22t137.5 -18.5q71 -8 132.5 -19.5t109 -33t74 -58.5t26.5 -96q0 -80 -48.5 -133.5t-131.5 -80t-189 -26.5q-62 0 -124 10.5t-118 30.5t-100.5 48t-71.5 62zM299 -123v90h160v-51
q0 -68 -44.5 -99t-115.5 -31v59q32 0 43 9.5t14 22.5h-57z" />
    <glyph glyph-name="Tbar" unicode="&#x166;" horiz-adv-x="824" 
d="M659 287h-163v-287h-167v287h-164v143h164v145h-312v143h790v-143h-311v-145h163v-143z" />
    <glyph glyph-name="Tcaron" unicode="&#x164;" horiz-adv-x="824" 
d="M807 575h-311v-575h-167v575h-312v143h790v-143zM497 758h-170l-143 156h126l102 -64l102 64h126z" />
    <glyph glyph-name="Tcommaaccent" unicode="&#x162;" horiz-adv-x="824" 
d="M554 -99q0 -27 -20 -47t-53 -30.5t-73 -10.5q-42 0 -79.5 9.5t-60.5 26.5l45 67q19 -14 41 -20t45 -6q25 0 36.5 6t11.5 16q0 15 -26.5 20t-68.5 6l18 62h-41v575h-312v143h790v-143h-311v-575h-54l-6 -20q52 -2 85 -22.5t33 -56.5z" />
    <glyph glyph-name="uni021A" unicode="&#x21a;" horiz-adv-x="824" 
d="M807 575h-311v-575h-167v575h-312v143h790v-143zM332 -123v90h160v-51q0 -68 -44.5 -99t-115.5 -31v59q32 0 43 9.5t14 22.5h-57z" />
    <glyph glyph-name="Thorn" unicode="&#xde;" horiz-adv-x="804" 
d="M509 134h-285v-134h-167v718h167v-115h285q85 0 147.5 -26.5t97.5 -78.5t35 -129q0 -76 -35 -128.5t-97.5 -79.5t-147.5 -27zM224 464v-191h276q59 0 91.5 25.5t32.5 70.5t-32.5 70t-91.5 25h-276z" />
    <glyph glyph-name="Uacute" unicode="&#xda;" horiz-adv-x="827" 
d="M414 -11q-125 0 -208 42t-124.5 119t-41.5 181v387h167v-374q0 -63 21 -110t66.5 -73t119.5 -26t119.5 26t66 73t20.5 110v374h167v-387q0 -104 -41.5 -181t-124 -119t-207.5 -42zM326 757l112 156h220l-190 -156h-142z" />
    <glyph glyph-name="Ubreve" unicode="&#x16c;" horiz-adv-x="827" 
d="M414 -11q-125 0 -208 42t-124.5 119t-41.5 181v387h167v-374q0 -63 21 -110t66.5 -73t119.5 -26t119.5 26t66 73t20.5 110v374h167v-387q0 -104 -41.5 -181t-124 -119t-207.5 -42zM415 858q38 0 63.5 15t25.5 40h115q0 -46 -23.5 -82.5t-69 -57.5t-111.5 -21t-111.5 21
t-69 57.5t-23.5 82.5h115q0 -25 25.5 -40t63.5 -15z" />
    <glyph glyph-name="Ucircumflex" unicode="&#xdb;" horiz-adv-x="827" 
d="M414 -11q-125 0 -208 42t-124.5 119t-41.5 181v387h167v-374q0 -63 21 -110t66.5 -73t119.5 -26t119.5 26t66 73t20.5 110v374h167v-387q0 -104 -41.5 -181t-124 -119t-207.5 -42zM500 913l143 -156h-126l-102 64l-102 -64h-126l143 156h170z" />
    <glyph glyph-name="Udieresis" unicode="&#xdc;" horiz-adv-x="827" 
d="M414 -11q-125 0 -208 42t-124.5 119t-41.5 181v387h167v-374q0 -63 21 -110t66.5 -73t119.5 -26t119.5 26t66 73t20.5 110v374h167v-387q0 -104 -41.5 -181t-124 -119t-207.5 -42zM208 757v141h160v-141h-160zM462 757v141h160v-141h-160z" />
    <glyph glyph-name="Ugrave" unicode="&#xd9;" horiz-adv-x="827" 
d="M414 -11q-125 0 -208 42t-124.5 119t-41.5 181v387h167v-374q0 -63 21 -110t66.5 -73t119.5 -26t119.5 26t66 73t20.5 110v374h167v-387q0 -104 -41.5 -181t-124 -119t-207.5 -42zM510 757h-142l-190 156h220z" />
    <glyph glyph-name="Uhungarumlaut" unicode="&#x170;" horiz-adv-x="827" 
d="M414 -11q-125 0 -208 42t-124.5 119t-41.5 181v387h167v-374q0 -63 21 -110t66.5 -73t119.5 -26t119.5 26t66 73t20.5 110v374h167v-387q0 -104 -41.5 -181t-124 -119t-207.5 -42zM461 757l94 156h180l-150 -156h-124zM220 757l89 156h184l-150 -156h-123z" />
    <glyph glyph-name="Umacron" unicode="&#x16a;" horiz-adv-x="827" 
d="M414 -11q-125 0 -208 42t-124.5 119t-41.5 181v387h167v-374q0 -63 21 -110t66.5 -73t119.5 -26t119.5 26t66 73t20.5 110v374h167v-387q0 -104 -41.5 -181t-124 -119t-207.5 -42zM614 763h-398v121h398v-121z" />
    <glyph glyph-name="Uogonek" unicode="&#x172;" horiz-adv-x="828" 
d="M542 3q-64 -15 -87 -31t-23 -33q0 -13 15.5 -21.5t43.5 -8.5q21 0 51 6v-89q-43 -9 -78 -9q-36 0 -67.5 10.5t-50.5 30.5t-19 50q0 47 39 83q-163 12 -244 103t-81 237v387h167v-374q0 -96 48 -152.5t159 -56.5t159 56.5t48 152.5v374h167v-387q0 -127 -61.5 -213
t-185.5 -115z" />
    <glyph glyph-name="Uring" unicode="&#x16e;" horiz-adv-x="827" 
d="M414 -11q-125 0 -208 42t-124.5 119t-41.5 181v387h167v-374q0 -63 21 -110t66.5 -73t119.5 -26t119.5 26t66 73t20.5 110v374h167v-387q0 -104 -41.5 -181t-124 -119t-207.5 -42zM273 860q0 36 18 66.5t50 48.5t74 18q43 0 74.5 -18t49.5 -48.5t18 -66.5t-18 -66.5
t-49.5 -49t-74.5 -18.5q-42 0 -74 18.5t-50 49t-18 66.5zM365 860q0 -22 14 -36.5t36 -14.5q23 0 36.5 14.5t13.5 36.5q0 23 -13.5 37t-36.5 14q-22 0 -36 -14t-14 -37z" />
    <glyph glyph-name="Utilde" unicode="&#x168;" horiz-adv-x="827" 
d="M414 -11q-125 0 -208 42t-124.5 119t-41.5 181v387h167v-374q0 -63 21 -110t66.5 -73t119.5 -26t119.5 26t66 73t20.5 110v374h167v-387q0 -104 -41.5 -181t-124 -119t-207.5 -42zM316 930q32 0 56.5 -7.5t45 -18t39 -18t37.5 -7.5q18 0 28 12.5t14 38.5h106
q-3 -78 -36.5 -125t-92.5 -47q-31 0 -56 7.5t-45 18t-38.5 18t-38.5 7.5q-18 0 -27.5 -12.5t-14.5 -38.5h-105q2 77 36 124.5t92 47.5z" />
    <glyph glyph-name="Wacute" unicode="&#x1e82;" horiz-adv-x="1180" 
d="M508 718h168l165 -523l177 523h170l-248 -718h-187l-163 517l-164 -517h-186l-248 718h174l177 -523zM518 757l112 156h220l-190 -156h-142z" />
    <glyph glyph-name="Wcircumflex" unicode="&#x174;" horiz-adv-x="1180" 
d="M508 718h168l165 -523l177 523h170l-248 -718h-187l-163 517l-164 -517h-186l-248 718h174l177 -523zM679 913l143 -156h-126l-102 64l-102 -64h-126l143 156h170z" />
    <glyph glyph-name="Wgrave" unicode="&#x1e80;" horiz-adv-x="1180" 
d="M508 718h168l165 -523l177 523h170l-248 -718h-187l-163 517l-164 -517h-186l-248 718h174l177 -523zM669 757h-142l-190 156h220z" />
    <glyph glyph-name="Wdieresis" unicode="&#x1e84;" horiz-adv-x="1180" 
d="M508 718h168l165 -523l177 523h170l-248 -718h-187l-163 517l-164 -517h-186l-248 718h174l177 -523zM383 757v141h160v-141h-160zM637 757v141h160v-141h-160z" />
    <glyph glyph-name="Yacute" unicode="&#xdd;" horiz-adv-x="862" 
d="M434 434l242 284h196l-357 -420v-298h-167v298l-358 420h201zM348 757l112 156h220l-190 -156h-142z" />
    <glyph glyph-name="Ycircumflex" unicode="&#x176;" horiz-adv-x="862" 
d="M434 434l242 284h196l-357 -420v-298h-167v298l-358 420h201zM518 913l143 -156h-126l-102 64l-102 -64h-126l143 156h170z" />
    <glyph glyph-name="Ydieresis" unicode="&#x178;" horiz-adv-x="862" 
d="M434 434l242 284h196l-357 -420v-298h-167v298l-358 420h201zM226 757v141h160v-141h-160zM480 757v141h160v-141h-160z" />
    <glyph glyph-name="Ygrave" unicode="&#x1ef2;" horiz-adv-x="862" 
d="M434 434l242 284h196l-357 -420v-298h-167v298l-358 420h201zM533 757h-142l-190 156h220z" />
    <glyph glyph-name="Zacute" unicode="&#x179;" horiz-adv-x="802" 
d="M767 143v-143h-733v126l488 449h-484v143h724v-125l-488 -450h493zM312 757l112 156h220l-190 -156h-142z" />
    <glyph glyph-name="Zcaron" unicode="&#x17d;" horiz-adv-x="802" 
d="M767 143v-143h-733v126l488 449h-484v143h724v-125l-488 -450h493zM485 758h-170l-143 156h126l102 -64l102 64h126z" />
    <glyph glyph-name="Zdotaccent" unicode="&#x17b;" horiz-adv-x="802" 
d="M767 143v-143h-733v126l488 449h-484v143h724v-125l-488 -450h493zM314 757v141h172v-141h-172z" />
    <glyph glyph-name="a" unicode="a" horiz-adv-x="673" 
d="M242 -11q-65 0 -115.5 19t-79 55.5t-28.5 88.5t28 86.5t76.5 54t110.5 25.5l210 19v3q0 30 -27.5 51t-91.5 21q-54 0 -92.5 -20t-50.5 -51l-144 39q17 48 58.5 83.5t102.5 55t133 19.5q126 0 196.5 -50t70.5 -149v-192q0 -21 13 -29.5t55 0.5v-118q-88 -16 -138 2.5
t-70 55.5q-36 -31 -91.5 -50t-125.5 -19zM444 202v28l-187 -19q-41 -4 -62 -15.5t-21 -37.5q0 -25 25.5 -38.5t71.5 -13.5q41 0 81 11.5t66 33t26 51.5z" />
    <glyph glyph-name="b" unicode="b" horiz-adv-x="706" 
d="M400 -11q-66 0 -115 21t-76 50v-60h-160v718h160v-251q27 29 76 50t115 21q90 0 154 -37.5t97.5 -99.5t33.5 -138q0 -75 -33.5 -137.5t-97.5 -99.5t-154 -37zM204 266v-6q0 -31 12.5 -57t34.5 -45t52 -29.5t64 -10.5q44 0 81 16.5t59 49t22 79.5t-22 79.5t-59 49.5
t-81 17q-34 0 -64 -10.5t-52 -30t-34.5 -45.5t-12.5 -57z" />
    <glyph glyph-name="c" unicode="c" horiz-adv-x="630" 
d="M177 263q0 -44 21 -76.5t57 -50t82 -17.5q39 0 69.5 14t51 37.5t29.5 51.5l138 -61q-14 -43 -52 -82.5t-97 -64.5t-138 -25q-92 0 -163.5 35t-112.5 96.5t-41 142.5q0 82 41 143.5t112.5 96.5t163.5 35q79 0 138 -25.5t97 -65t52 -83.5l-138 -59q-9 28 -29.5 51t-51 37
t-69.5 14q-46 0 -82 -17.5t-57 -49.5t-21 -77z" />
    <glyph glyph-name="d" unicode="d" horiz-adv-x="706" 
d="M306 -11q-90 0 -153.5 37t-97.5 99.5t-34 137.5q0 76 34 138t97.5 99.5t153.5 37.5q66 0 115 -21t76 -50v251h160v-718h-160v60q-27 -29 -76 -50t-115 -21zM502 266q0 31 -12.5 57t-34.5 45.5t-51.5 30t-64.5 10.5q-44 0 -81 -17t-59 -49.5t-22 -79.5t22 -79.5t59 -49
t81 -16.5q35 0 64.5 10.5t51.5 29.5t34.5 45t12.5 57v6z" />
    <glyph glyph-name="e" unicode="e" horiz-adv-x="658" 
d="M339 -11q-93 0 -165 34.5t-112.5 96.5t-40.5 144q0 78 40.5 140t112 98t164.5 36q95 0 161.5 -36.5t102 -98.5t35.5 -137v-44h-460q9 -33 31.5 -57t55.5 -36.5t74 -12.5q53 0 92.5 22.5t56.5 60.5l141 -51q-19 -46 -61 -82t-100.5 -56.5t-127.5 -20.5zM333 414
q-35 0 -65.5 -10.5t-53 -31.5t-33.5 -52h295q-3 22 -21 43.5t-49 36t-73 14.5z" />
    <glyph glyph-name="f" unicode="f" horiz-adv-x="482" 
d="M498 710l-21 -125q-25 7 -49 10.5t-52 3.5q-51 0 -75.5 -16t-24.5 -51v-5h194v-132h-194v-395h-158v395h-119v132h119v8q0 66 29.5 109t85 64t133.5 21q37 0 72.5 -5t59.5 -14z" />
    <glyph glyph-name="g" unicode="g" horiz-adv-x="702" 
d="M653 79q0 -85 -43.5 -144.5t-119.5 -90.5t-172 -31q-67 0 -126.5 15t-103.5 45t-67 74l127 72q14 -26 38.5 -45t58 -28.5t73.5 -9.5q45 0 85 14t65 42t25 71v18q-27 -28 -74.5 -49t-115.5 -21q-89 0 -153 35.5t-98 95.5t-34 132t34 132t98 96t153 36q68 0 115.5 -21
t74.5 -48v58h160v-448zM499 276q0 32 -13 57t-35.5 43t-52 27.5t-62.5 9.5q-44 0 -80.5 -16.5t-58.5 -47.5t-22 -75t22 -75t58.5 -47.5t80.5 -16.5q33 0 62.5 9.5t52 27.5t35.5 43.5t13 57.5v3z" />
    <glyph glyph-name="h" unicode="h" horiz-adv-x="677" 
d="M49 0v718h160v-255q21 22 49.5 38.5t64.5 26.5t78 10q69 0 120.5 -29t80.5 -82.5t29 -126.5v-300h-160v253q0 45 -14 77t-42 49t-69 17q-43 0 -74 -17t-47 -49t-16 -78v-252h-160z" />
    <glyph glyph-name="i" unicode="i" horiz-adv-x="259" 
d="M48 581v137h163v-137h-163zM209 527v-527h-160v527h160z" />
    <glyph glyph-name="j" unicode="j" horiz-adv-x="259" 
d="M48 581v137h163v-137h-163zM49 21v506h160v-507q0 -72 -28 -117.5t-80 -67t-124 -21.5q-31 0 -64.5 6t-53.5 13l22 118q23 -6 41.5 -9t39.5 -3q43 0 65 17.5t22 64.5z" />
    <glyph glyph-name="k" unicode="k" horiz-adv-x="677" 
d="M209 718v-415l259 224h216l-263 -222l270 -305h-198l-188 208l-96 -81v-127h-160v718h160z" />
    <glyph glyph-name="l" unicode="l" horiz-adv-x="259" 
d="M209 718v-718h-160v718h160z" />
    <glyph glyph-name="m" unicode="m" horiz-adv-x="1065" 
d="M209 257v-257h-160v527h160v-63q20 22 46.5 38.5t59.5 26t74 9.5q39 0 74 -10.5t63.5 -31t46.5 -49.5q23 26 53 46.5t69 32.5t88 12q74 0 127 -29t81 -83t28 -129v-297h-160v258q0 65 -28.5 101.5t-88.5 36.5q-42 0 -70.5 -16.5t-43 -47.5t-14.5 -75v-257h-160v258
q0 65 -28.5 101.5t-88.5 36.5q-42 0 -70.5 -16.5t-43 -47.5t-14.5 -75z" />
    <glyph glyph-name="n" unicode="n" horiz-adv-x="677" 
d="M49 0v527h160v-64q21 22 49.5 38.5t64.5 26.5t78 10q69 0 120.5 -29t80.5 -82.5t29 -126.5v-300h-160v253q0 45 -14 77t-42 49t-69 17q-43 0 -74 -17t-47 -49t-16 -78v-252h-160z" />
    <glyph glyph-name="o" unicode="o" horiz-adv-x="671" 
d="M650 263q0 -83 -42 -144.5t-113 -95.5t-160 -34q-88 0 -159.5 34t-113 95.5t-41.5 144.5t41.5 145t113 96t159.5 34q89 0 160 -34t113 -96t42 -145zM177 263q0 -46 21.5 -78t57.5 -49t79 -17q44 0 80 17t57.5 49t21.5 78t-21.5 78t-57.5 49t-80 17q-43 0 -79 -17
t-57.5 -49t-21.5 -78z" />
    <glyph glyph-name="p" unicode="p" horiz-adv-x="706" 
d="M400 -11q-66 0 -115 21t-76 50v-236h-160v703h160v-60q27 29 76 50t115 21q90 0 154 -37.5t97.5 -99.5t33.5 -138q0 -75 -33.5 -137.5t-97.5 -99.5t-154 -37zM204 266v-6q0 -31 12.5 -57t34.5 -45t52 -29.5t64 -10.5q44 0 81 16.5t59 49t22 79.5t-22 79.5t-59 49.5
t-81 17q-34 0 -64 -10.5t-52 -30t-34.5 -45.5t-12.5 -57z" />
    <glyph glyph-name="q" unicode="q" horiz-adv-x="706" 
d="M306 -11q-90 0 -153.5 37t-97.5 99.5t-34 137.5q0 76 34 138t97.5 99.5t153.5 37.5q66 0 115 -21t76 -50v60h160v-703h-160v236q-27 -29 -76 -50t-115 -21zM502 266q0 31 -12.5 57t-34.5 45.5t-51.5 30t-64.5 10.5q-44 0 -81 -17t-59 -49.5t-22 -79.5t22 -79.5t59 -49
t81 -16.5q35 0 64.5 10.5t51.5 29.5t34.5 45t12.5 57v6z" />
    <glyph glyph-name="r" unicode="r" horiz-adv-x="473" 
d="M462 524v-155q-18 3 -30.5 5t-33.5 2q-55 0 -98 -16t-67 -51.5t-24 -94.5v-214h-160v527h160v-91q23 34 52 54.5t64.5 30t78.5 9.5q18 0 32 -2t26 -4z" />
    <glyph glyph-name="s" unicode="s" horiz-adv-x="595" 
d="M-4 87l76 107q47 -43 108 -64.5t128 -21.5q36 0 62 5t40 15.5t14 26.5q0 18 -17.5 25.5t-54.5 12t-96 11.5q-47 6 -89 15t-74 25.5t-50 44t-18 69.5q0 54 32.5 94.5t93.5 63t144 22.5q93 0 164.5 -26.5t111.5 -64.5l-83 -96q-36 33 -87.5 51t-113.5 18q-51 0 -77.5 -12
t-26.5 -32q0 -14 13.5 -21.5t46 -12t89.5 -11.5q51 -6 96.5 -15t80.5 -25.5t55.5 -45t20.5 -73.5q0 -61 -38 -102t-103 -61t-148 -20q-61 0 -118 11.5t-104 33.5t-78 53z" />
    <glyph glyph-name="t" unicode="t" horiz-adv-x="527" 
d="M119 171v224h-120v132h120v146h157v-146h219v-132h-219v-188q0 -43 24.5 -60.5t74.5 -17.5q31 0 59.5 6.5t54.5 15.5l29 -127q-34 -13 -81.5 -22.5t-103.5 -9.5q-59 0 -108 18t-77.5 57.5t-28.5 103.5z" />
    <glyph glyph-name="u" unicode="u" horiz-adv-x="672" 
d="M622 527v-527h-160v63q-20 -21 -47.5 -38t-62.5 -26.5t-78 -9.5q-67 0 -118.5 28.5t-80.5 81t-29 125.5v303h160v-270q0 -42 13.5 -71t40.5 -44t68 -15q43 0 73 16t45.5 47t15.5 74v263h160z" />
    <glyph glyph-name="v" unicode="v" horiz-adv-x="674" 
d="M420 0h-166l-258 527h178l167 -357l166 357h171z" />
    <glyph glyph-name="w" unicode="w" horiz-adv-x="946" 
d="M406 527h142l116 -335l121 335h165l-209 -527h-147l-121 334l-121 -334h-147l-209 527h172l122 -335z" />
    <glyph glyph-name="x" unicode="x" horiz-adv-x="688" 
d="M490 0l-146 164l-151 -164h-195l248 266l-238 261h198l138 -155l142 155h194l-237 -256l247 -271h-200z" />
    <glyph glyph-name="y" unicode="y" horiz-adv-x="673" 
d="M410 -25q-28 -58 -61.5 -93.5t-77 -51.5t-103.5 -16q-32 0 -66.5 7t-53.5 15l27 126q17 -9 36.5 -14.5t39.5 -5.5q30 0 55.5 11.5t39.5 46.5l5 15l-255 512h179l167 -358l166 358h169z" />
    <glyph glyph-name="z" unicode="z" horiz-adv-x="633" 
d="M602 132v-132h-570v118l341 277h-337v132h563v-119l-335 -276h338z" />
    <glyph glyph-name="aacute" unicode="&#xe1;" horiz-adv-x="673" 
d="M242 -11q-65 0 -115.5 19t-79 55.5t-28.5 88.5t28 86.5t76.5 54t110.5 25.5l210 19v3q0 30 -27.5 51t-91.5 21q-54 0 -92.5 -20t-50.5 -51l-144 39q17 48 58.5 83.5t102.5 55t133 19.5q126 0 196.5 -50t70.5 -149v-192q0 -21 13 -29.5t55 0.5v-118q-88 -16 -138 2.5
t-70 55.5q-36 -31 -91.5 -50t-125.5 -19zM444 202v28l-187 -19q-41 -4 -62 -15.5t-21 -37.5q0 -25 25.5 -38.5t71.5 -13.5q41 0 81 11.5t66 33t26 51.5zM250 570l99 148h201l-167 -148h-133z" />
    <glyph glyph-name="abreve" unicode="&#x103;" horiz-adv-x="673" 
d="M242 -11q-65 0 -115.5 19t-79 55.5t-28.5 88.5t28 86.5t76.5 54t110.5 25.5l210 19v3q0 30 -27.5 51t-91.5 21q-54 0 -92.5 -20t-50.5 -51l-144 39q17 48 58.5 83.5t102.5 55t133 19.5q126 0 196.5 -50t70.5 -149v-192q0 -21 13 -29.5t55 0.5v-118q-88 -16 -138 2.5
t-70 55.5q-36 -31 -91.5 -50t-125.5 -19zM444 202v28l-187 -19q-41 -4 -62 -15.5t-21 -37.5q0 -25 25.5 -38.5t71.5 -13.5q41 0 81 11.5t66 33t26 51.5zM337 668q39 0 59.5 12.5t24.5 37.5h108q0 -46 -21.5 -80t-63.5 -52t-107 -18q-64 0 -106.5 18.5t-63.5 52t-22 79.5h108
q4 -25 24.5 -37.5t59.5 -12.5z" />
    <glyph glyph-name="acircumflex" unicode="&#xe2;" horiz-adv-x="673" 
d="M242 -11q-65 0 -115.5 19t-79 55.5t-28.5 88.5t28 86.5t76.5 54t110.5 25.5l210 19v3q0 30 -27.5 51t-91.5 21q-54 0 -92.5 -20t-50.5 -51l-144 39q17 48 58.5 83.5t102.5 55t133 19.5q126 0 196.5 -50t70.5 -149v-192q0 -21 13 -29.5t55 0.5v-118q-88 -16 -138 2.5
t-70 55.5q-36 -31 -91.5 -50t-125.5 -19zM444 202v28l-187 -19q-41 -4 -62 -15.5t-21 -37.5q0 -25 25.5 -38.5t71.5 -13.5q41 0 81 11.5t66 33t26 51.5zM404 718l131 -148h-121l-88 54l-88 -54h-121l131 148h156z" />
    <glyph glyph-name="adieresis" unicode="&#xe4;" horiz-adv-x="673" 
d="M242 -11q-65 0 -115.5 19t-79 55.5t-28.5 88.5t28 86.5t76.5 54t110.5 25.5l210 19v3q0 30 -27.5 51t-91.5 21q-54 0 -92.5 -20t-50.5 -51l-144 39q17 48 58.5 83.5t102.5 55t133 19.5q126 0 196.5 -50t70.5 -149v-192q0 -21 13 -29.5t55 0.5v-118q-88 -16 -138 2.5
t-70 55.5q-36 -31 -91.5 -50t-125.5 -19zM444 202v28l-187 -19q-41 -4 -62 -15.5t-21 -37.5q0 -25 25.5 -38.5t71.5 -13.5q41 0 81 11.5t66 33t26 51.5zM127 581v137h160v-137h-160zM373 581v137h160v-137h-160z" />
    <glyph glyph-name="agrave" unicode="&#xe0;" horiz-adv-x="673" 
d="M242 -11q-65 0 -115.5 19t-79 55.5t-28.5 88.5t28 86.5t76.5 54t110.5 25.5l210 19v3q0 30 -27.5 51t-91.5 21q-54 0 -92.5 -20t-50.5 -51l-144 39q17 48 58.5 83.5t102.5 55t133 19.5q126 0 196.5 -50t70.5 -149v-192q0 -21 13 -29.5t55 0.5v-118q-88 -16 -138 2.5
t-70 55.5q-36 -31 -91.5 -50t-125.5 -19zM444 202v28l-187 -19q-41 -4 -62 -15.5t-21 -37.5q0 -25 25.5 -38.5t71.5 -13.5q41 0 81 11.5t66 33t26 51.5zM422 570h-133l-167 148h201z" />
    <glyph glyph-name="amacron" unicode="&#x101;" horiz-adv-x="673" 
d="M242 -11q-65 0 -115.5 19t-79 55.5t-28.5 88.5t28 86.5t76.5 54t110.5 25.5l210 19v3q0 30 -27.5 51t-91.5 21q-54 0 -92.5 -20t-50.5 -51l-144 39q17 48 58.5 83.5t102.5 55t133 19.5q126 0 196.5 -50t70.5 -149v-192q0 -21 13 -29.5t55 0.5v-118q-88 -16 -138 2.5
t-70 55.5q-36 -31 -91.5 -50t-125.5 -19zM444 202v28l-187 -19q-41 -4 -62 -15.5t-21 -37.5q0 -25 25.5 -38.5t71.5 -13.5q41 0 81 11.5t66 33t26 51.5zM508 583h-370v119h370v-119z" />
    <glyph glyph-name="aogonek" unicode="&#x105;" horiz-adv-x="673" 
d="M242 -11q-65 0 -115.5 19t-79 55.5t-28.5 88.5t28 86.5t76.5 54t110.5 25.5l210 19v3q0 30 -27.5 51t-91.5 21q-54 0 -92.5 -20t-50.5 -51l-144 39q17 48 58.5 83.5t102.5 55t133 19.5q126 0 196.5 -50t70.5 -149v-192q0 -21 13 -29.5t55 0.5v-118q-64 -18 -87.5 -32
t-23.5 -30q0 -13 16 -21t43 -8q21 0 52 6v-89q-45 -9 -79 -9q-36 0 -67 10t-50 30t-19 50q0 61 66 99q-21 9 -35.5 22.5t-23.5 29.5q-36 -31 -91.5 -50t-125.5 -19zM444 202v28l-187 -19q-41 -4 -62 -15.5t-21 -37.5q0 -25 25.5 -38.5t71.5 -13.5q41 0 81 11.5t66 33
t26 51.5z" />
    <glyph glyph-name="aring" unicode="&#xe5;" horiz-adv-x="673" 
d="M242 -11q-65 0 -115.5 19t-79 55.5t-28.5 88.5t28 86.5t76.5 54t110.5 25.5l210 19v3q0 30 -27.5 51t-91.5 21q-54 0 -92.5 -20t-50.5 -51l-144 39q17 48 58.5 83.5t102.5 55t133 19.5q126 0 196.5 -50t70.5 -149v-192q0 -21 13 -29.5t55 0.5v-118q-88 -16 -138 2.5
t-70 55.5q-36 -31 -91.5 -50t-125.5 -19zM444 202v28l-187 -19q-41 -4 -62 -15.5t-21 -37.5q0 -25 25.5 -38.5t71.5 -13.5q41 0 81 11.5t66 33t26 51.5zM213 671q0 45 32 77.5t84 32.5q53 0 84.5 -32.5t31.5 -77.5t-31.5 -78t-84.5 -33q-52 0 -84 33t-32 78zM288 671
q0 -17 11.5 -29.5t29.5 -12.5t29.5 12.5t11.5 29.5t-11.5 29.5t-29.5 12.5t-29.5 -12.5t-11.5 -29.5z" />
    <glyph glyph-name="atilde" unicode="&#xe3;" horiz-adv-x="673" 
d="M242 -11q-65 0 -115.5 19t-79 55.5t-28.5 88.5t28 86.5t76.5 54t110.5 25.5l210 19v3q0 30 -27.5 51t-91.5 21q-54 0 -92.5 -20t-50.5 -51l-144 39q17 48 58.5 83.5t102.5 55t133 19.5q126 0 196.5 -50t70.5 -149v-192q0 -21 13 -29.5t55 0.5v-118q-88 -16 -138 2.5
t-70 55.5q-36 -31 -91.5 -50t-125.5 -19zM444 202v28l-187 -19q-41 -4 -62 -15.5t-21 -37.5q0 -25 25.5 -38.5t71.5 -13.5q41 0 81 11.5t66 33t26 51.5zM238 727q28 0 49 -7t38 -16.5t32 -17t32 -7.5q16 0 24.5 12t12.5 36h96q-2 -70 -32 -113.5t-83 -43.5q-28 0 -49 7
t-38 16.5t-32 16.5t-32 7q-16 0 -24 -11.5t-13 -35.5h-96q2 70 32.5 113.5t82.5 43.5z" />
    <glyph glyph-name="ae" unicode="&#xe6;" horiz-adv-x="1079" 
d="M257 318h187v22q0 30 -27.5 51.5t-91.5 21.5q-54 0 -92.5 -20.5t-50.5 -51.5l-144 39q17 48 58.5 83.5t102.5 55t133 19.5q74 0 128 -18.5t86 -54.5q41 34 95 53.5t119 19.5q95 0 161.5 -36.5t101.5 -98.5t35 -137v-46h-459q9 -33 31 -56.5t54.5 -35.5t71.5 -12
q55 0 95 22.5t57 60.5l141 -51q-19 -46 -61 -82t-100.5 -56.5t-127.5 -20.5q-82 0 -147 27.5t-107 76.5q-43 -54 -111 -79t-147 -25q-67 0 -119 19t-81 55.5t-29 88.5q0 49 26.5 86.5t79.5 58.5t132 21zM754 415q-35 0 -65.5 -11t-53.5 -32.5t-34 -53.5h300q-5 25 -25.5 47
t-51.5 36t-70 14zM271 106q31 0 61.5 6.5t56 19t40.5 30.5t15 41v17h-167q-55 0 -79 -15.5t-24 -42.5q0 -26 25.5 -41t71.5 -15z" />
    <glyph glyph-name="aeacute" unicode="&#x1fd;" horiz-adv-x="1079" 
d="M257 318h187v22q0 30 -27.5 51.5t-91.5 21.5q-54 0 -92.5 -20.5t-50.5 -51.5l-144 39q17 48 58.5 83.5t102.5 55t133 19.5q74 0 128 -18.5t86 -54.5q41 34 95 53.5t119 19.5q95 0 161.5 -36.5t101.5 -98.5t35 -137v-46h-459q9 -33 31 -56.5t54.5 -35.5t71.5 -12
q55 0 95 22.5t57 60.5l141 -51q-19 -46 -61 -82t-100.5 -56.5t-127.5 -20.5q-82 0 -147 27.5t-107 76.5q-43 -54 -111 -79t-147 -25q-67 0 -119 19t-81 55.5t-29 88.5q0 49 26.5 86.5t79.5 58.5t132 21zM754 415q-35 0 -65.5 -11t-53.5 -32.5t-34 -53.5h300q-5 25 -25.5 47
t-51.5 36t-70 14zM271 106q31 0 61.5 6.5t56 19t40.5 30.5t15 41v17h-167q-55 0 -79 -15.5t-24 -42.5q0 -26 25.5 -41t71.5 -15zM483 570l99 148h201l-167 -148h-133z" />
    <glyph glyph-name="cacute" unicode="&#x107;" horiz-adv-x="630" 
d="M177 263q0 -44 21 -76.5t57 -50t82 -17.5q39 0 69.5 14t51 37.5t29.5 51.5l138 -61q-14 -43 -52 -82.5t-97 -64.5t-138 -25q-92 0 -163.5 35t-112.5 96.5t-41 142.5q0 82 41 143.5t112.5 96.5t163.5 35q79 0 138 -25.5t97 -65t52 -83.5l-138 -59q-9 28 -29.5 51t-51 37
t-69.5 14q-46 0 -82 -17.5t-57 -49.5t-21 -77zM255 570l99 148h201l-167 -148h-133z" />
    <glyph glyph-name="ccaron" unicode="&#x10d;" horiz-adv-x="630" 
d="M177 263q0 -44 21 -76.5t57 -50t82 -17.5q39 0 69.5 14t51 37.5t29.5 51.5l138 -61q-14 -43 -52 -82.5t-97 -64.5t-138 -25q-92 0 -163.5 35t-112.5 96.5t-41 142.5q0 82 41 143.5t112.5 96.5t163.5 35q79 0 138 -25.5t97 -65t52 -83.5l-138 -59q-9 28 -29.5 51t-51 37
t-69.5 14q-46 0 -82 -17.5t-57 -49.5t-21 -77zM412 570h-156l-131 148h121l88 -54l88 54h121z" />
    <glyph glyph-name="ccedilla" unicode="&#xe7;" horiz-adv-x="630" 
d="M21 263q0 82 41 143.5t112.5 96.5t163.5 35q79 0 138 -25.5t97 -65t52 -83.5l-138 -59q-9 28 -29.5 51t-51 37t-69.5 14q-46 0 -82 -17.5t-57 -49.5t-21 -77q0 -44 21 -76.5t57 -50t82 -17.5q39 0 69.5 14t51 37.5t29.5 51.5l138 -61q-14 -41 -49.5 -79.5t-91.5 -64
t-130 -28.5l-3 -9q52 -2 85 -22.5t33 -56.5q0 -27 -20 -47t-53 -30.5t-73 -10.5q-42 0 -79.5 9.5t-60.5 26.5l45 67q19 -14 41 -20t45 -6q25 0 36.5 6t11.5 16q0 15 -26.5 20t-68.5 6l16 54q-77 10 -136.5 46.5t-92.5 94.5t-33 130z" />
    <glyph glyph-name="ccircumflex" unicode="&#x109;" horiz-adv-x="630" 
d="M177 263q0 -44 21 -76.5t57 -50t82 -17.5q39 0 69.5 14t51 37.5t29.5 51.5l138 -61q-14 -43 -52 -82.5t-97 -64.5t-138 -25q-92 0 -163.5 35t-112.5 96.5t-41 142.5q0 82 41 143.5t112.5 96.5t163.5 35q79 0 138 -25.5t97 -65t52 -83.5l-138 -59q-9 28 -29.5 51t-51 37
t-69.5 14q-46 0 -82 -17.5t-57 -49.5t-21 -77zM411 718l131 -148h-121l-88 54l-88 -54h-121l131 148h156z" />
    <glyph glyph-name="cdotaccent" unicode="&#x10b;" horiz-adv-x="630" 
d="M177 263q0 -44 21 -76.5t57 -50t82 -17.5q39 0 69.5 14t51 37.5t29.5 51.5l138 -61q-14 -43 -52 -82.5t-97 -64.5t-138 -25q-92 0 -163.5 35t-112.5 96.5t-41 142.5q0 82 41 143.5t112.5 96.5t163.5 35q79 0 138 -25.5t97 -65t52 -83.5l-138 -59q-9 28 -29.5 51t-51 37
t-69.5 14q-46 0 -82 -17.5t-57 -49.5t-21 -77zM252 581v137h162v-137h-162z" />
    <glyph glyph-name="dcaron" unicode="&#x10f;" horiz-adv-x="706" 
d="M306 -11q-90 0 -153.5 37t-97.5 99.5t-34 137.5q0 76 34 138t97.5 99.5t153.5 37.5q66 0 115 -21t76 -50v251h160v-718h-160v60q-27 -29 -76 -50t-115 -21zM502 266q0 31 -12.5 57t-34.5 45.5t-51.5 30t-64.5 10.5q-44 0 -81 -17t-59 -49.5t-22 -79.5t22 -79.5t59 -49
t81 -16.5q35 0 64.5 10.5t51.5 29.5t34.5 45t12.5 57v6zM699 550l23 168h171l-86 -168h-108z" />
    <glyph glyph-name="dcroat" unicode="&#x111;" horiz-adv-x="738" 
d="M306 -11q-90 0 -153.5 37t-97.5 99.5t-34 137.5q0 76 34 138t97.5 99.5t153.5 37.5q66 0 115 -21t76 -50v96h-137v107h137v48h160v-48h69v-107h-69v-563h-160v60q-27 -29 -76 -50t-115 -21zM502 266q0 31 -12.5 57t-34.5 45.5t-51.5 30t-64.5 10.5q-44 0 -81 -17
t-59 -49.5t-22 -79.5t22 -79.5t59 -49t81 -16.5q35 0 64.5 10.5t51.5 29.5t34.5 45t12.5 57v6z" />
    <glyph glyph-name="eacute" unicode="&#xe9;" horiz-adv-x="658" 
d="M339 -11q-93 0 -165 34.5t-112.5 96.5t-40.5 144q0 78 40.5 140t112 98t164.5 36q95 0 161.5 -36.5t102 -98.5t35.5 -137v-44h-460q9 -33 31.5 -57t55.5 -36.5t74 -12.5q53 0 92.5 22.5t56.5 60.5l141 -51q-19 -46 -61 -82t-100.5 -56.5t-127.5 -20.5zM333 414
q-35 0 -65.5 -10.5t-53 -31.5t-33.5 -52h295q-3 22 -21 43.5t-49 36t-73 14.5zM260 570l99 148h201l-167 -148h-133z" />
    <glyph glyph-name="ebreve" unicode="&#x115;" horiz-adv-x="658" 
d="M339 -11q-93 0 -165 34.5t-112.5 96.5t-40.5 144q0 78 40.5 140t112 98t164.5 36q95 0 161.5 -36.5t102 -98.5t35.5 -137v-44h-460q9 -33 31.5 -57t55.5 -36.5t74 -12.5q53 0 92.5 22.5t56.5 60.5l141 -51q-19 -46 -61 -82t-100.5 -56.5t-127.5 -20.5zM333 414
q-35 0 -65.5 -10.5t-53 -31.5t-33.5 -52h295q-3 22 -21 43.5t-49 36t-73 14.5zM333 668q39 0 59.5 12.5t24.5 37.5h108q0 -46 -21.5 -80t-63.5 -52t-107 -18q-64 0 -106.5 18.5t-63.5 52t-22 79.5h108q4 -25 24.5 -37.5t59.5 -12.5z" />
    <glyph glyph-name="ecaron" unicode="&#x11b;" horiz-adv-x="658" 
d="M339 -11q-93 0 -165 34.5t-112.5 96.5t-40.5 144q0 78 40.5 140t112 98t164.5 36q95 0 161.5 -36.5t102 -98.5t35.5 -137v-44h-460q9 -33 31.5 -57t55.5 -36.5t74 -12.5q53 0 92.5 22.5t56.5 60.5l141 -51q-19 -46 -61 -82t-100.5 -56.5t-127.5 -20.5zM333 414
q-35 0 -65.5 -10.5t-53 -31.5t-33.5 -52h295q-3 22 -21 43.5t-49 36t-73 14.5zM411 570h-156l-131 148h121l88 -54l88 54h121z" />
    <glyph glyph-name="ecircumflex" unicode="&#xea;" horiz-adv-x="658" 
d="M339 -11q-93 0 -165 34.5t-112.5 96.5t-40.5 144q0 78 40.5 140t112 98t164.5 36q95 0 161.5 -36.5t102 -98.5t35.5 -137v-44h-460q9 -33 31.5 -57t55.5 -36.5t74 -12.5q53 0 92.5 22.5t56.5 60.5l141 -51q-19 -46 -61 -82t-100.5 -56.5t-127.5 -20.5zM333 414
q-35 0 -65.5 -10.5t-53 -31.5t-33.5 -52h295q-3 22 -21 43.5t-49 36t-73 14.5zM412 718l131 -148h-121l-88 54l-88 -54h-121l131 148h156z" />
    <glyph glyph-name="edieresis" unicode="&#xeb;" horiz-adv-x="658" 
d="M339 -11q-93 0 -165 34.5t-112.5 96.5t-40.5 144q0 78 40.5 140t112 98t164.5 36q95 0 161.5 -36.5t102 -98.5t35.5 -137v-44h-460q9 -33 31.5 -57t55.5 -36.5t74 -12.5q53 0 92.5 22.5t56.5 60.5l141 -51q-19 -46 -61 -82t-100.5 -56.5t-127.5 -20.5zM333 414
q-35 0 -65.5 -10.5t-53 -31.5t-33.5 -52h295q-3 22 -21 43.5t-49 36t-73 14.5zM129 581v137h160v-137h-160zM375 581v137h160v-137h-160z" />
    <glyph glyph-name="edotaccent" unicode="&#x117;" horiz-adv-x="658" 
d="M339 -11q-93 0 -165 34.5t-112.5 96.5t-40.5 144q0 78 40.5 140t112 98t164.5 36q95 0 161.5 -36.5t102 -98.5t35.5 -137v-44h-460q9 -33 31.5 -57t55.5 -36.5t74 -12.5q53 0 92.5 22.5t56.5 60.5l141 -51q-19 -46 -61 -82t-100.5 -56.5t-127.5 -20.5zM333 414
q-35 0 -65.5 -10.5t-53 -31.5t-33.5 -52h295q-3 22 -21 43.5t-49 36t-73 14.5zM249 581v137h162v-137h-162z" />
    <glyph glyph-name="egrave" unicode="&#xe8;" horiz-adv-x="658" 
d="M339 -11q-93 0 -165 34.5t-112.5 96.5t-40.5 144q0 78 40.5 140t112 98t164.5 36q95 0 161.5 -36.5t102 -98.5t35.5 -137v-44h-460q9 -33 31.5 -57t55.5 -36.5t74 -12.5q53 0 92.5 22.5t56.5 60.5l141 -51q-19 -46 -61 -82t-100.5 -56.5t-127.5 -20.5zM333 414
q-35 0 -65.5 -10.5t-53 -31.5t-33.5 -52h295q-3 22 -21 43.5t-49 36t-73 14.5zM425 570h-133l-167 148h201z" />
    <glyph glyph-name="emacron" unicode="&#x113;" horiz-adv-x="658" 
d="M339 -11q-93 0 -165 34.5t-112.5 96.5t-40.5 144q0 78 40.5 140t112 98t164.5 36q95 0 161.5 -36.5t102 -98.5t35.5 -137v-44h-460q9 -33 31.5 -57t55.5 -36.5t74 -12.5q53 0 92.5 22.5t56.5 60.5l141 -51q-19 -46 -61 -82t-100.5 -56.5t-127.5 -20.5zM333 414
q-35 0 -65.5 -10.5t-53 -31.5t-33.5 -52h295q-3 22 -21 43.5t-49 36t-73 14.5zM517 583h-370v119h370v-119z" />
    <glyph glyph-name="eogonek" unicode="&#x119;" horiz-adv-x="658" 
d="M484 15q-45 -18 -60.5 -33.5t-15.5 -32.5q0 -18 15.5 -29t45.5 -11q21 0 51 6v-89q-45 -9 -78 -9q-36 0 -67.5 11.5t-50.5 34t-19 55.5q0 41 29 71q-92 1 -162.5 35.5t-110.5 96.5t-40 143q0 78 40.5 140t112 98t164.5 36q95 0 161.5 -36.5t102 -98.5t35.5 -137v-44h-460
q14 -50 56 -78t102 -28q55 0 95 22t57 61l141 -51q-18 -43 -55.5 -77t-88.5 -56zM333 414q-52 0 -93.5 -23.5t-58.5 -70.5h295q-3 22 -22 43.5t-50 36t-71 14.5z" />
    <glyph glyph-name="eth" unicode="&#xf0;" horiz-adv-x="669" 
d="M432 500q-12 17 -30.5 36.5t-42.5 38.5l-236 -52v104l121 27q-25 14 -50 27t-51 24l171 24q21 -9 41.5 -19.5t39.5 -22.5l182 41v-104l-75 -17q69 -64 108 -145.5t39 -173.5q0 -95 -41 -162t-111.5 -102t-161.5 -35q-88 0 -159.5 34t-113 95t-41.5 143q0 60 23 108.5
t63 83t92 53t110 18.5q38 0 69.5 -6t53.5 -18zM177 263q0 -46 21.5 -78t57.5 -49t79 -17q44 0 80 17t57.5 49t21.5 78t-21.5 78t-57.5 49t-80 17q-43 0 -79 -17t-57.5 -49t-21.5 -78z" />
    <glyph glyph-name="gbreve" unicode="&#x11f;" horiz-adv-x="702" 
d="M653 79q0 -85 -43.5 -144.5t-119.5 -90.5t-172 -31q-67 0 -126.5 15t-103.5 45t-67 74l127 72q14 -26 38.5 -45t58 -28.5t73.5 -9.5q45 0 85 14t65 42t25 71v18q-27 -28 -74.5 -49t-115.5 -21q-89 0 -153 35.5t-98 95.5t-34 132t34 132t98 96t153 36q68 0 115.5 -21
t74.5 -48v58h160v-448zM499 276q0 32 -13 57t-35.5 43t-52 27.5t-62.5 9.5q-44 0 -80.5 -16.5t-58.5 -47.5t-22 -75t22 -75t58.5 -47.5t80.5 -16.5q33 0 62.5 9.5t52 27.5t35.5 43.5t13 57.5v3zM347 668q39 0 59.5 12.5t24.5 37.5h108q0 -46 -21.5 -80t-63.5 -52t-107 -18
q-64 0 -106.5 18.5t-63.5 52t-22 79.5h108q4 -25 24.5 -37.5t59.5 -12.5z" />
    <glyph glyph-name="gcircumflex" unicode="&#x11d;" horiz-adv-x="702" 
d="M653 79q0 -85 -43.5 -144.5t-119.5 -90.5t-172 -31q-67 0 -126.5 15t-103.5 45t-67 74l127 72q14 -26 38.5 -45t58 -28.5t73.5 -9.5q45 0 85 14t65 42t25 71v18q-27 -28 -74.5 -49t-115.5 -21q-89 0 -153 35.5t-98 95.5t-34 132t34 132t98 96t153 36q68 0 115.5 -21
t74.5 -48v58h160v-448zM499 276q0 32 -13 57t-35.5 43t-52 27.5t-62.5 9.5q-44 0 -80.5 -16.5t-58.5 -47.5t-22 -75t22 -75t58.5 -47.5t80.5 -16.5q33 0 62.5 9.5t52 27.5t35.5 43.5t13 57.5v3zM424 718l131 -148h-121l-88 54l-88 -54h-121l131 148h156z" />
    <glyph glyph-name="gcommaaccent" unicode="&#x123;" horiz-adv-x="702" 
d="M653 79q0 -85 -43.5 -144.5t-119.5 -90.5t-172 -31q-67 0 -126.5 15t-103.5 45t-67 74l127 72q14 -26 38.5 -45t58 -28.5t73.5 -9.5q45 0 85 14t65 42t25 71v18q-27 -28 -74.5 -49t-115.5 -21q-89 0 -153 35.5t-98 95.5t-34 132t34 132t98 96t153 36q68 0 115.5 -21
t74.5 -48v58h160v-448zM499 276q0 32 -13 57t-35.5 43t-52 27.5t-62.5 9.5q-44 0 -80.5 -16.5t-58.5 -47.5t-22 -75t22 -75t58.5 -47.5t80.5 -16.5q33 0 62.5 9.5t52 27.5t35.5 43.5t13 57.5v3zM430 660v-90h-160v51q0 68 44.5 99t115.5 31v-59q-31 0 -42.5 -9t-14.5 -23h57
z" />
    <glyph glyph-name="gdotaccent" unicode="&#x121;" horiz-adv-x="702" 
d="M653 79q0 -85 -43.5 -144.5t-119.5 -90.5t-172 -31q-67 0 -126.5 15t-103.5 45t-67 74l127 72q14 -26 38.5 -45t58 -28.5t73.5 -9.5q45 0 85 14t65 42t25 71v18q-27 -28 -74.5 -49t-115.5 -21q-89 0 -153 35.5t-98 95.5t-34 132t34 132t98 96t153 36q68 0 115.5 -21
t74.5 -48v58h160v-448zM499 276q0 32 -13 57t-35.5 43t-52 27.5t-62.5 9.5q-44 0 -80.5 -16.5t-58.5 -47.5t-22 -75t22 -75t58.5 -47.5t80.5 -16.5q33 0 62.5 9.5t52 27.5t35.5 43.5t13 57.5v3zM271 581v137h162v-137h-162z" />
    <glyph glyph-name="germandbls" unicode="&#xdf;" horiz-adv-x="739" 
d="M376 729q90 0 150.5 -25t91 -67.5t30.5 -95.5t-27.5 -87.5t-67.5 -51.5q54 -14 92 -40.5t57.5 -64t19.5 -85.5q0 -66 -35.5 -116.5t-97.5 -78.5t-143 -28q-67 0 -124 20.5t-94 57.5l65 117q31 -31 68 -49t80 -18q39 0 68 12.5t44.5 35t15.5 51.5q0 35 -21 57.5
t-60.5 33.5t-95.5 11h-109v130h88q59 0 91.5 20t32.5 57q0 38 -32 58t-89 20q-56 0 -91.5 -21t-52.5 -55.5t-17 -77.5v-449h-161v447q0 77 37.5 141t109.5 102.5t177 38.5z" />
    <glyph glyph-name="hbar" unicode="&#x127;" horiz-adv-x="709" 
d="M81 0v563h-69v108h69v47h160v-47h156v-108h-156v-100q21 22 49.5 38.5t64.5 26.5t78 10q69 0 120.5 -29t80.5 -82.5t29 -126.5v-300h-160v253q0 45 -14 77t-42 49t-69 17q-43 0 -74 -17t-47 -49t-16 -78v-252h-160z" />
    <glyph glyph-name="hcircumflex" unicode="&#x125;" horiz-adv-x="677" 
d="M49 0v718h160v-255q21 22 49.5 38.5t64.5 26.5t78 10q69 0 120.5 -29t80.5 -82.5t29 -126.5v-300h-160v253q0 45 -14 77t-42 49t-69 17q-43 0 -74 -17t-47 -49t-16 -78v-252h-160zM416 913l143 -156h-126l-102 64l-102 -64h-126l143 156h170z" />
    <glyph glyph-name="dotlessi" unicode="&#x131;" horiz-adv-x="259" 
d="M209 527v-527h-160v527h160z" />
    <glyph glyph-name="iacute" unicode="&#xed;" horiz-adv-x="259" 
d="M209 527v-527h-160v527h160zM59 570l99 148h201l-167 -148h-133z" />
    <glyph glyph-name="ibreve" unicode="&#x12d;" horiz-adv-x="259" 
d="M209 527v-527h-160v527h160zM129 668q39 0 59.5 12.5t24.5 37.5h108q0 -46 -21.5 -80t-63.5 -52t-107 -18q-64 0 -106.5 18.5t-63.5 52t-22 79.5h108q4 -25 24.5 -37.5t59.5 -12.5z" />
    <glyph glyph-name="icircumflex" unicode="&#xee;" horiz-adv-x="259" 
d="M209 527v-527h-160v527h160zM207 718l131 -148h-121l-88 54l-88 -54h-121l131 148h156z" />
    <glyph glyph-name="idieresis" unicode="&#xef;" horiz-adv-x="259" 
d="M209 527v-527h-160v527h160zM-74 581v137h160v-137h-160zM172 581v137h160v-137h-160z" />
    <glyph glyph-name="idotaccent" horiz-adv-x="259" 
d="M48 581v137h163v-137h-163zM209 527v-527h-160v527h160z" />
    <glyph glyph-name="igrave" unicode="&#xec;" horiz-adv-x="259" 
d="M209 527v-527h-160v527h160zM202 570h-133l-167 148h201z" />
    <glyph glyph-name="imacron" unicode="&#x12b;" horiz-adv-x="259" 
d="M209 527v-527h-160v527h160zM314 583h-370v119h370v-119z" />
    <glyph glyph-name="iogonek" unicode="&#x12f;" horiz-adv-x="259" 
d="M48 581v137h163v-137h-163zM2 -93q0 55 56 93h-9v527h160v-518l8 -9q-64 -18 -87.5 -32t-23.5 -30q0 -13 16 -21t43 -8q21 0 52 6v-89q-45 -9 -79 -9q-36 0 -67 10t-50 30t-19 50z" />
    <glyph glyph-name="itilde" unicode="&#x129;" horiz-adv-x="259" 
d="M209 527v-527h-160v527h160zM44 727q28 0 49 -7t38 -16.5t32 -17t32 -7.5q16 0 24.5 12t12.5 36h96q-2 -70 -32 -113.5t-83 -43.5q-28 0 -49 7t-38 16.5t-32 16.5t-32 7q-16 0 -24 -11.5t-13 -35.5h-96q2 70 32.5 113.5t82.5 43.5z" />
    <glyph glyph-name="uni0237" unicode="&#x237;" horiz-adv-x="259" 
d="M49 21v506h160v-507q0 -72 -28 -117.5t-80 -67t-124 -21.5q-31 0 -64.5 6t-53.5 13l22 118q23 -6 41.5 -9t39.5 -3q43 0 65 17.5t22 64.5z" />
    <glyph glyph-name="jcircumflex" unicode="&#x135;" horiz-adv-x="259" 
d="M49 21v506h160v-507q0 -72 -28 -117.5t-80 -67t-124 -21.5q-31 0 -64.5 6t-53.5 13l22 118q23 -6 41.5 -9t39.5 -3q43 0 65 17.5t22 64.5zM207 718l131 -148h-121l-88 54l-88 -54h-121l131 148h156z" />
    <glyph glyph-name="kcommaaccent" unicode="&#x137;" horiz-adv-x="677" 
d="M209 718v-415l259 224h216l-263 -222l270 -305h-198l-188 208l-96 -81v-127h-160v718h160zM269 -123v90h160v-51q0 -68 -44.5 -99t-115.5 -31v59q32 0 43 9.5t14 22.5h-57z" />
    <glyph glyph-name="kgreenlandic" unicode="&#x138;" horiz-adv-x="677" 
d="M209 527v-224l259 224h216l-263 -222l270 -305h-198l-188 208l-96 -81v-127h-160v527h160z" />
    <glyph glyph-name="lacute" unicode="&#x13a;" horiz-adv-x="259" 
d="M209 718v-718h-160v718h160zM58 757l112 156h220l-190 -156h-142z" />
    <glyph glyph-name="lcaron" unicode="&#x13e;" horiz-adv-x="259" 
d="M209 718v-718h-160v718h160zM252 550l23 168h171l-86 -168h-108z" />
    <glyph glyph-name="lcommaaccent" unicode="&#x13c;" horiz-adv-x="259" 
d="M209 718v-718h-160v718h160zM49 -123v90h160v-51q0 -68 -44.5 -99t-115.5 -31v59q32 0 43 9.5t14 22.5h-57z" />
    <glyph glyph-name="ldot" unicode="&#x140;" horiz-adv-x="447" 
d="M209 718v-718h-160v718h160zM272 294v137h162v-137h-162z" />
    <glyph glyph-name="lslash" unicode="&#x142;" horiz-adv-x="365" 
d="M360 392l-98 -49v-343h-160v273l-96 -49v142l96 48v304h160v-233l98 50v-143z" />
    <glyph glyph-name="nacute" unicode="&#x144;" horiz-adv-x="677" 
d="M49 0v527h160v-64q21 22 49.5 38.5t64.5 26.5t78 10q69 0 120.5 -29t80.5 -82.5t29 -126.5v-300h-160v253q0 45 -14 77t-42 49t-69 17q-43 0 -74 -17t-47 -49t-16 -78v-252h-160zM269 570l99 148h201l-167 -148h-133z" />
    <glyph glyph-name="ncaron" unicode="&#x148;" horiz-adv-x="677" 
d="M49 0v527h160v-64q21 22 49.5 38.5t64.5 26.5t78 10q69 0 120.5 -29t80.5 -82.5t29 -126.5v-300h-160v253q0 45 -14 77t-42 49t-69 17q-43 0 -74 -17t-47 -49t-16 -78v-252h-160zM422 570h-156l-131 148h121l88 -54l88 54h121z" />
    <glyph glyph-name="ncommaaccent" unicode="&#x146;" horiz-adv-x="677" 
d="M49 0v527h160v-64q21 22 49.5 38.5t64.5 26.5t78 10q69 0 120.5 -29t80.5 -82.5t29 -126.5v-300h-160v253q0 45 -14 77t-42 49t-69 17q-43 0 -74 -17t-47 -49t-16 -78v-252h-160zM260 -123v90h160v-51q0 -68 -44.5 -99t-115.5 -31v59q32 0 43 9.5t14 22.5h-57z" />
    <glyph glyph-name="ntilde" unicode="&#xf1;" horiz-adv-x="677" 
d="M49 0v527h160v-64q21 22 49.5 38.5t64.5 26.5t78 10q69 0 120.5 -29t80.5 -82.5t29 -126.5v-300h-160v253q0 45 -14 77t-42 49t-69 17q-43 0 -74 -17t-47 -49t-16 -78v-252h-160zM256 727q28 0 49 -7t38 -16.5t32 -17t32 -7.5q16 0 24.5 12t12.5 36h96q-2 -70 -32 -113.5
t-83 -43.5q-28 0 -49 7t-38 16.5t-32 16.5t-32 7q-16 0 -24 -11.5t-13 -35.5h-96q2 70 32.5 113.5t82.5 43.5z" />
    <glyph glyph-name="eng" unicode="&#x14b;" horiz-adv-x="677" 
d="M401 538q69 0 120.5 -29t80.5 -82.5t29 -126.5v-280q0 -72 -28 -117.5t-80.5 -67t-124.5 -21.5q-31 0 -64.5 5.5t-53.5 12.5l23 121q23 -6 41 -9t39 -3q43 0 65.5 17.5t22.5 64.5v230q0 45 -14 77t-42 49t-69 17q-43 0 -74 -17t-47 -49t-16 -78v-252h-160v527h160v-64
q21 22 49.5 38.5t64.5 26.5t78 10z" />
    <glyph glyph-name="oacute" unicode="&#xf3;" horiz-adv-x="671" 
d="M650 263q0 -83 -42 -144.5t-113 -95.5t-160 -34q-88 0 -159.5 34t-113 95.5t-41.5 144.5t41.5 145t113 96t159.5 34q89 0 160 -34t113 -96t42 -145zM177 263q0 -46 21.5 -78t57.5 -49t79 -17q44 0 80 17t57.5 49t21.5 78t-21.5 78t-57.5 49t-80 17q-43 0 -79 -17
t-57.5 -49t-21.5 -78zM260 570l99 148h201l-167 -148h-133z" />
    <glyph glyph-name="obreve" unicode="&#x14f;" horiz-adv-x="671" 
d="M650 263q0 -83 -42 -144.5t-113 -95.5t-160 -34q-88 0 -159.5 34t-113 95.5t-41.5 144.5t41.5 145t113 96t159.5 34q89 0 160 -34t113 -96t42 -145zM177 263q0 -46 21.5 -78t57.5 -49t79 -17q44 0 80 17t57.5 49t21.5 78t-21.5 78t-57.5 49t-80 17q-43 0 -79 -17
t-57.5 -49t-21.5 -78zM335 668q39 0 59.5 12.5t24.5 37.5h108q0 -46 -21.5 -80t-63.5 -52t-107 -18q-64 0 -106.5 18.5t-63.5 52t-22 79.5h108q4 -25 24.5 -37.5t59.5 -12.5z" />
    <glyph glyph-name="ocircumflex" unicode="&#xf4;" horiz-adv-x="671" 
d="M650 263q0 -83 -42 -144.5t-113 -95.5t-160 -34q-88 0 -159.5 34t-113 95.5t-41.5 144.5t41.5 145t113 96t159.5 34q89 0 160 -34t113 -96t42 -145zM177 263q0 -46 21.5 -78t57.5 -49t79 -17q44 0 80 17t57.5 49t21.5 78t-21.5 78t-57.5 49t-80 17q-43 0 -79 -17
t-57.5 -49t-21.5 -78zM413 718l131 -148h-121l-88 54l-88 -54h-121l131 148h156z" />
    <glyph glyph-name="odieresis" unicode="&#xf6;" horiz-adv-x="671" 
d="M650 263q0 -83 -42 -144.5t-113 -95.5t-160 -34q-88 0 -159.5 34t-113 95.5t-41.5 144.5t41.5 145t113 96t159.5 34q89 0 160 -34t113 -96t42 -145zM177 263q0 -46 21.5 -78t57.5 -49t79 -17q44 0 80 17t57.5 49t21.5 78t-21.5 78t-57.5 49t-80 17q-43 0 -79 -17
t-57.5 -49t-21.5 -78zM132 581v137h160v-137h-160zM378 581v137h160v-137h-160z" />
    <glyph glyph-name="ograve" unicode="&#xf2;" horiz-adv-x="671" 
d="M650 263q0 -83 -42 -144.5t-113 -95.5t-160 -34q-88 0 -159.5 34t-113 95.5t-41.5 144.5t41.5 145t113 96t159.5 34q89 0 160 -34t113 -96t42 -145zM177 263q0 -46 21.5 -78t57.5 -49t79 -17q44 0 80 17t57.5 49t21.5 78t-21.5 78t-57.5 49t-80 17q-43 0 -79 -17
t-57.5 -49t-21.5 -78zM416 571h-133l-167 148h201z" />
    <glyph glyph-name="ohungarumlaut" unicode="&#x151;" horiz-adv-x="671" 
d="M650 263q0 -83 -42 -144.5t-113 -95.5t-160 -34q-88 0 -159.5 34t-113 95.5t-41.5 144.5t41.5 145t113 96t159.5 34q89 0 160 -34t113 -96t42 -145zM177 263q0 -46 21.5 -78t57.5 -49t79 -17q44 0 80 17t57.5 49t21.5 78t-21.5 78t-57.5 49t-80 17q-43 0 -79 -17
t-57.5 -49t-21.5 -78zM372 570l91 148h171l-141 -148h-121zM150 570l92 148h171l-141 -148h-122z" />
    <glyph glyph-name="omacron" unicode="&#x14d;" horiz-adv-x="671" 
d="M650 263q0 -83 -42 -144.5t-113 -95.5t-160 -34q-88 0 -159.5 34t-113 95.5t-41.5 144.5t41.5 145t113 96t159.5 34q89 0 160 -34t113 -96t42 -145zM177 263q0 -46 21.5 -78t57.5 -49t79 -17q44 0 80 17t57.5 49t21.5 78t-21.5 78t-57.5 49t-80 17q-43 0 -79 -17
t-57.5 -49t-21.5 -78zM520 583h-370v119h370v-119z" />
    <glyph glyph-name="oslash" unicode="&#xf8;" horiz-adv-x="670" 
d="M22 263q0 83 41.5 145t112.5 96t159 34q48 0 91.5 -10.5t80.5 -30.5l63 62l75 -73l-55 -55q28 -34 43.5 -76t15.5 -92q0 -83 -41.5 -144.5t-112.5 -95.5t-160 -34q-48 0 -91.5 10.5t-80.5 30.5l-63 -62l-74 74l55 54q-28 33 -43.5 75.5t-15.5 91.5zM171 263q0 -22 5 -41
t14 -35l217 215q-16 7 -34 10t-38 3q-45 0 -82 -18t-59.5 -51.5t-22.5 -82.5zM500 263q0 22 -5 41t-13 35l-218 -214q17 -7 34.5 -10t36.5 -3q46 0 83 17.5t59.5 51.5t22.5 82z" />
    <glyph glyph-name="oslashacute" unicode="&#x1ff;" horiz-adv-x="670" 
d="M22 263q0 83 41.5 145t112.5 96t159 34q48 0 91.5 -10.5t80.5 -30.5l63 62l75 -73l-55 -55q28 -34 43.5 -76t15.5 -92q0 -83 -41.5 -144.5t-112.5 -95.5t-160 -34q-48 0 -91.5 10.5t-80.5 30.5l-63 -62l-74 74l55 54q-28 33 -43.5 75.5t-15.5 91.5zM171 263q0 -22 5 -41
t14 -35l217 215q-16 7 -34 10t-38 3q-45 0 -82 -18t-59.5 -51.5t-22.5 -82.5zM500 263q0 22 -5 41t-13 35l-218 -214q17 -7 34.5 -10t36.5 -3q46 0 83 17.5t59.5 51.5t22.5 82zM263 570l99 148h201l-167 -148h-133z" />
    <glyph glyph-name="otilde" unicode="&#xf5;" horiz-adv-x="671" 
d="M650 263q0 -83 -42 -144.5t-113 -95.5t-160 -34q-88 0 -159.5 34t-113 95.5t-41.5 144.5t41.5 145t113 96t159.5 34q89 0 160 -34t113 -96t42 -145zM177 263q0 -46 21.5 -78t57.5 -49t79 -17q44 0 80 17t57.5 49t21.5 78t-21.5 78t-57.5 49t-80 17q-43 0 -79 -17
t-57.5 -49t-21.5 -78zM251 727q28 0 49 -7t38 -16.5t32 -17t32 -7.5q16 0 24.5 12t12.5 36h96q-2 -70 -32 -113.5t-83 -43.5q-28 0 -49 7t-38 16.5t-32 16.5t-32 7q-16 0 -24 -11.5t-13 -35.5h-96q2 70 32.5 113.5t82.5 43.5z" />
    <glyph glyph-name="oe" unicode="&#x153;" horiz-adv-x="1129" 
d="M810 -9q-75 0 -136 25t-102 68q-42 -45 -103 -70t-135 -25q-88 0 -159 34t-112.5 95.5t-41.5 144.5t41.5 145t112.5 96t159 34q73 0 134 -24.5t102 -68.5q41 44 103 69.5t138 25.5q94 0 160.5 -36.5t101.5 -98t35 -136.5v-45h-460q14 -50 56 -78t102 -28q55 0 95 23
t57 62l141 -51q-19 -47 -61 -83.5t-100.5 -57t-127.5 -20.5zM804 416q-52 0 -93.5 -23.5t-58.5 -70.5h295q-3 22 -22 43.5t-50 36t-71 14.5zM335 119q44 0 80 17t57.5 49t21.5 78t-21.5 78t-57.5 49t-81 17q-43 0 -78.5 -17t-57 -49t-21.5 -78t21.5 -78t57.5 -49t79 -17z
" />
    <glyph glyph-name="racute" unicode="&#x155;" horiz-adv-x="473" 
d="M462 524v-155q-18 3 -30.5 5t-33.5 2q-55 0 -98 -16t-67 -51.5t-24 -94.5v-214h-160v527h160v-91q23 34 52 54.5t64.5 30t78.5 9.5q18 0 32 -2t26 -4zM167 570l99 148h201l-167 -148h-133z" />
    <glyph glyph-name="rcaron" unicode="&#x159;" horiz-adv-x="473" 
d="M462 524v-155q-18 3 -30.5 5t-33.5 2q-55 0 -98 -16t-67 -51.5t-24 -94.5v-214h-160v527h160v-91q23 34 52 54.5t64.5 30t78.5 9.5q18 0 32 -2t26 -4zM332 570h-156l-131 148h121l88 -54l88 54h121z" />
    <glyph glyph-name="rcommaaccent" unicode="&#x157;" horiz-adv-x="473" 
d="M462 524v-155q-18 3 -30.5 5t-33.5 2q-55 0 -98 -16t-67 -51.5t-24 -94.5v-214h-160v527h160v-91q23 34 52 54.5t64.5 30t78.5 9.5q18 0 32 -2t26 -4zM49 -123v90h160v-51q0 -68 -44.5 -99t-115.5 -31v59q32 0 43 9.5t14 22.5h-57z" />
    <glyph glyph-name="sacute" unicode="&#x15b;" horiz-adv-x="595" 
d="M-4 87l76 107q47 -43 108 -64.5t128 -21.5q36 0 62 5t40 15.5t14 26.5q0 18 -17.5 25.5t-54.5 12t-96 11.5q-47 6 -89 15t-74 25.5t-50 44t-18 69.5q0 54 32.5 94.5t93.5 63t144 22.5q93 0 164.5 -26.5t111.5 -64.5l-83 -96q-36 33 -87.5 51t-113.5 18q-51 0 -77.5 -12
t-26.5 -32q0 -14 13.5 -21.5t46 -12t89.5 -11.5q51 -6 96.5 -15t80.5 -25.5t55.5 -45t20.5 -73.5q0 -61 -38 -102t-103 -61t-148 -20q-61 0 -118 11.5t-104 33.5t-78 53zM233 570l99 148h201l-167 -148h-133z" />
    <glyph glyph-name="scaron" unicode="&#x161;" horiz-adv-x="595" 
d="M-4 87l76 107q47 -43 108 -64.5t128 -21.5q36 0 62 5t40 15.5t14 26.5q0 18 -17.5 25.5t-54.5 12t-96 11.5q-47 6 -89 15t-74 25.5t-50 44t-18 69.5q0 54 32.5 94.5t93.5 63t144 22.5q93 0 164.5 -26.5t111.5 -64.5l-83 -96q-36 33 -87.5 51t-113.5 18q-51 0 -77.5 -12
t-26.5 -32q0 -14 13.5 -21.5t46 -12t89.5 -11.5q51 -6 96.5 -15t80.5 -25.5t55.5 -45t20.5 -73.5q0 -61 -38 -102t-103 -61t-148 -20q-61 0 -118 11.5t-104 33.5t-78 53zM377 570h-156l-131 148h121l88 -54l88 54h121z" />
    <glyph glyph-name="scedilla" unicode="&#x15f;" horiz-adv-x="595" 
d="M-4 87l76 107q47 -43 108 -64.5t128 -21.5q54 0 85 11t31 36q0 26 -39.5 32.5t-128.5 16.5q-63 8 -115.5 22.5t-84 45t-31.5 86.5q0 81 72.5 130.5t197.5 49.5q93 0 164.5 -26.5t111.5 -64.5l-83 -96q-36 33 -87.5 51t-113.5 18q-51 0 -77.5 -12t-26.5 -32
q0 -14 13.5 -21.5t46 -12t89.5 -11.5q51 -6 96.5 -15t80.5 -25.5t55.5 -45t20.5 -73.5q0 -61 -37.5 -102t-101.5 -61t-143 -20l-3 -9q52 -2 85 -22.5t33 -56.5q0 -41 -43 -64.5t-103 -23.5q-42 0 -79.5 9.5t-60.5 26.5l45 67q19 -14 41 -20t45 -6q48 0 48 22q0 15 -26.5 20
t-68.5 6l16 54q-73 8 -135.5 32.5t-100.5 62.5z" />
    <glyph glyph-name="scircumflex" unicode="&#x15d;" horiz-adv-x="595" 
d="M-4 87l76 107q47 -43 108 -64.5t128 -21.5q36 0 62 5t40 15.5t14 26.5q0 18 -17.5 25.5t-54.5 12t-96 11.5q-47 6 -89 15t-74 25.5t-50 44t-18 69.5q0 54 32.5 94.5t93.5 63t144 22.5q93 0 164.5 -26.5t111.5 -64.5l-83 -96q-36 33 -87.5 51t-113.5 18q-51 0 -77.5 -12
t-26.5 -32q0 -14 13.5 -21.5t46 -12t89.5 -11.5q51 -6 96.5 -15t80.5 -25.5t55.5 -45t20.5 -73.5q0 -61 -38 -102t-103 -61t-148 -20q-61 0 -118 11.5t-104 33.5t-78 53zM375 718l131 -148h-121l-88 54l-88 -54h-121l131 148h156z" />
    <glyph glyph-name="scommaaccent" unicode="&#x219;" horiz-adv-x="595" 
d="M-4 87l76 107q47 -43 108 -64.5t128 -21.5q36 0 62 5t40 15.5t14 26.5q0 18 -17.5 25.5t-54.5 12t-96 11.5q-47 6 -89 15t-74 25.5t-50 44t-18 69.5q0 54 32.5 94.5t93.5 63t144 22.5q93 0 164.5 -26.5t111.5 -64.5l-83 -96q-36 33 -87.5 51t-113.5 18q-51 0 -77.5 -12
t-26.5 -32q0 -14 13.5 -21.5t46 -12t89.5 -11.5q51 -6 96.5 -15t80.5 -25.5t55.5 -45t20.5 -73.5q0 -61 -38 -102t-103 -61t-148 -20q-61 0 -118 11.5t-104 33.5t-78 53zM213 -123v90h160v-51q0 -68 -44.5 -99t-115.5 -31v59q32 0 43 9.5t14 22.5h-57z" />
    <glyph glyph-name="tbar" unicode="&#x167;" horiz-adv-x="527" 
d="M119 171v54h-118v120h118v62h-120v120h120v146h157v-146h219v-120h-219v-62h219v-120h-219v-22q0 -43 24.5 -60t75.5 -17q30 0 59 6t55 16l28 -124q-34 -13 -81.5 -22.5t-103.5 -9.5q-59 0 -108 18t-77.5 57.5t-28.5 103.5z" />
    <glyph glyph-name="tcaron" unicode="&#x165;" horiz-adv-x="527" 
d="M119 171v224h-120v132h120v146h157v-146h219v-132h-219v-188q0 -43 24.5 -60.5t74.5 -17.5q31 0 59.5 6.5t54.5 15.5l29 -127q-34 -13 -81.5 -22.5t-103.5 -9.5q-59 0 -108 18t-77.5 57.5t-28.5 103.5zM319 570l23 168h171l-86 -168h-108z" />
    <glyph glyph-name="tcommaaccent" unicode="&#x163;" horiz-adv-x="527" 
d="M119 171v224h-120v132h120v146h157v-146h219v-132h-219v-188q0 -43 24.5 -60.5t74.5 -17.5q31 0 59.5 6.5t54.5 15.5l29 -127q-34 -13 -81.5 -22.5t-103.5 -9.5h-19l-3 -12q52 -2 85 -22.5t33 -56.5q0 -41 -43 -64.5t-103 -23.5q-42 0 -79.5 9.5t-60.5 26.5l45 67
q19 -14 41 -20t45 -6q48 0 48 22q0 15 -26.5 20t-68.5 6l19 65q-56 15 -91.5 56t-35.5 112z" />
    <glyph glyph-name="uni021B" unicode="&#x21b;" horiz-adv-x="527" 
d="M119 171v224h-120v132h120v146h157v-146h219v-132h-219v-188q0 -43 24.5 -60.5t74.5 -17.5q31 0 59.5 6.5t54.5 15.5l29 -127q-34 -13 -81.5 -22.5t-103.5 -9.5q-59 0 -108 18t-77.5 57.5t-28.5 103.5zM222 -123v90h160v-51q0 -68 -44.5 -99t-115.5 -31v59q32 0 43 9.5
t14 22.5h-57z" />
    <glyph glyph-name="thorn" unicode="&#xfe;" horiz-adv-x="706" 
d="M400 -11q-66 0 -115 21t-76 50v-236h-160v894h160v-251q27 29 76 50t115 21q90 0 154 -37.5t97.5 -99.5t33.5 -138q0 -75 -33.5 -137.5t-97.5 -99.5t-154 -37zM204 266v-6q0 -31 12.5 -57t34.5 -45t52 -29.5t64 -10.5q44 0 81 16.5t59 49t22 79.5t-22 79.5t-59 49.5
t-81 17q-34 0 -64 -10.5t-52 -30t-34.5 -45.5t-12.5 -57z" />
    <glyph glyph-name="uacute" unicode="&#xfa;" horiz-adv-x="672" 
d="M622 527v-527h-160v63q-20 -21 -47.5 -38t-62.5 -26.5t-78 -9.5q-67 0 -118.5 28.5t-80.5 81t-29 125.5v303h160v-270q0 -42 13.5 -71t40.5 -44t68 -15q43 0 73 16t45.5 47t15.5 74v263h160zM257 570l99 148h201l-167 -148h-133z" />
    <glyph glyph-name="ubreve" unicode="&#x16d;" horiz-adv-x="672" 
d="M622 527v-527h-160v63q-20 -21 -47.5 -38t-62.5 -26.5t-78 -9.5q-67 0 -118.5 28.5t-80.5 81t-29 125.5v303h160v-270q0 -42 13.5 -71t40.5 -44t68 -15q43 0 73 16t45.5 47t15.5 74v263h160zM335 668q39 0 59.5 12.5t24.5 37.5h108q0 -46 -21.5 -80t-63.5 -52t-107 -18
q-64 0 -106.5 18.5t-63.5 52t-22 79.5h108q4 -25 24.5 -37.5t59.5 -12.5z" />
    <glyph glyph-name="ucircumflex" unicode="&#xfb;" horiz-adv-x="672" 
d="M622 527v-527h-160v63q-20 -21 -47.5 -38t-62.5 -26.5t-78 -9.5q-67 0 -118.5 28.5t-80.5 81t-29 125.5v303h160v-270q0 -42 13.5 -71t40.5 -44t68 -15q43 0 73 16t45.5 47t15.5 74v263h160zM413 718l131 -148h-121l-88 54l-88 -54h-121l131 148h156z" />
    <glyph glyph-name="udieresis" unicode="&#xfc;" horiz-adv-x="672" 
d="M622 527v-527h-160v63q-20 -21 -47.5 -38t-62.5 -26.5t-78 -9.5q-67 0 -118.5 28.5t-80.5 81t-29 125.5v303h160v-270q0 -42 13.5 -71t40.5 -44t68 -15q43 0 73 16t45.5 47t15.5 74v263h160zM132 581v137h160v-137h-160zM378 581v137h160v-137h-160z" />
    <glyph glyph-name="ugrave" unicode="&#xf9;" horiz-adv-x="672" 
d="M622 527v-527h-160v63q-20 -21 -47.5 -38t-62.5 -26.5t-78 -9.5q-67 0 -118.5 28.5t-80.5 81t-29 125.5v303h160v-270q0 -42 13.5 -71t40.5 -44t68 -15q43 0 73 16t45.5 47t15.5 74v263h160zM416 570h-133l-167 148h201z" />
    <glyph glyph-name="uhungarumlaut" unicode="&#x171;" horiz-adv-x="672" 
d="M622 527v-527h-160v63q-20 -21 -47.5 -38t-62.5 -26.5t-78 -9.5q-67 0 -118.5 28.5t-80.5 81t-29 125.5v303h160v-270q0 -42 13.5 -71t40.5 -44t68 -15q43 0 73 16t45.5 47t15.5 74v263h160zM366 570l91 148h171l-141 -148h-121zM144 570l92 148h171l-141 -148h-122z" />
    <glyph glyph-name="umacron" unicode="&#x16b;" horiz-adv-x="672" 
d="M622 527v-527h-160v63q-20 -21 -47.5 -38t-62.5 -26.5t-78 -9.5q-67 0 -118.5 28.5t-80.5 81t-29 125.5v303h160v-270q0 -42 13.5 -71t40.5 -44t68 -15q43 0 73 16t45.5 47t15.5 74v263h160zM520 583h-370v119h370v-119z" />
    <glyph glyph-name="uogonek" unicode="&#x173;" horiz-adv-x="672" 
d="M384 -93q0 65 78 106v50q-30 -32 -77 -53t-111 -21q-67 0 -118.5 28.5t-80.5 81t-29 125.5v303h160v-270q0 -63 30.5 -96.5t91.5 -33.5q65 0 99.5 36t34.5 101v263h160v-527h-23q-64 -18 -87.5 -32t-23.5 -30q0 -13 16 -21t43 -8q21 0 52 6v-89q-45 -9 -79 -9
q-36 0 -67 10t-50 30t-19 50z" />
    <glyph glyph-name="uring" unicode="&#x16f;" horiz-adv-x="672" 
d="M622 527v-527h-160v63q-20 -21 -47.5 -38t-62.5 -26.5t-78 -9.5q-67 0 -118.5 28.5t-80.5 81t-29 125.5v303h160v-270q0 -42 13.5 -71t40.5 -44t68 -15q43 0 73 16t45.5 47t15.5 74v263h160zM219 671q0 45 32 77.5t84 32.5q53 0 84.5 -32.5t31.5 -77.5t-31.5 -78
t-84.5 -33q-52 0 -84 33t-32 78zM294 671q0 -17 11.5 -29.5t29.5 -12.5t29.5 12.5t11.5 29.5t-11.5 29.5t-29.5 12.5t-29.5 -12.5t-11.5 -29.5z" />
    <glyph glyph-name="utilde" unicode="&#x169;" horiz-adv-x="672" 
d="M622 527v-527h-160v63q-20 -21 -47.5 -38t-62.5 -26.5t-78 -9.5q-67 0 -118.5 28.5t-80.5 81t-29 125.5v303h160v-270q0 -42 13.5 -71t40.5 -44t68 -15q43 0 73 16t45.5 47t15.5 74v263h160zM251 727q28 0 49 -7t38 -16.5t32 -17t32 -7.5q16 0 24.5 12t12.5 36h96
q-2 -70 -32 -113.5t-83 -43.5q-28 0 -49 7t-38 16.5t-32 16.5t-32 7q-16 0 -24 -11.5t-13 -35.5h-96q2 70 32.5 113.5t82.5 43.5z" />
    <glyph glyph-name="wacute" unicode="&#x1e83;" horiz-adv-x="946" 
d="M406 527h142l116 -335l121 335h165l-209 -527h-147l-121 334l-121 -334h-147l-209 527h172l122 -335zM405 570l99 148h201l-167 -148h-133z" />
    <glyph glyph-name="wcircumflex" unicode="&#x175;" horiz-adv-x="946" 
d="M406 527h142l116 -335l121 335h165l-209 -527h-147l-121 334l-121 -334h-147l-209 527h172l122 -335zM551 718l131 -148h-121l-88 54l-88 -54h-121l131 148h156z" />
    <glyph glyph-name="wgrave" unicode="&#x1e81;" horiz-adv-x="946" 
d="M406 527h142l116 -335l121 335h165l-209 -527h-147l-121 334l-121 -334h-147l-209 527h172l122 -335zM550 570h-133l-167 148h201z" />
    <glyph glyph-name="wdieresis" unicode="&#x1e85;" horiz-adv-x="946" 
d="M406 527h142l116 -335l121 335h165l-209 -527h-147l-121 334l-121 -334h-147l-209 527h172l122 -335zM270 581v137h160v-137h-160zM516 581v137h160v-137h-160z" />
    <glyph glyph-name="yacute" unicode="&#xfd;" horiz-adv-x="673" 
d="M410 -25q-28 -58 -61.5 -93.5t-77 -51.5t-103.5 -16q-32 0 -66.5 7t-53.5 15l27 126q17 -9 36.5 -14.5t39.5 -5.5q30 0 55.5 11.5t39.5 46.5l5 15l-255 512h179l167 -358l166 358h169zM261 570l99 148h201l-167 -148h-133z" />
    <glyph glyph-name="ycircumflex" unicode="&#x177;" horiz-adv-x="673" 
d="M410 -25q-28 -58 -61.5 -93.5t-77 -51.5t-103.5 -16q-32 0 -66.5 7t-53.5 15l27 126q17 -9 36.5 -14.5t39.5 -5.5q30 0 55.5 11.5t39.5 46.5l5 15l-255 512h179l167 -358l166 358h169zM415 718l131 -148h-121l-88 54l-88 -54h-121l131 148h156z" />
    <glyph glyph-name="ydieresis" unicode="&#xff;" horiz-adv-x="673" 
d="M410 -25q-28 -58 -61.5 -93.5t-77 -51.5t-103.5 -16q-32 0 -66.5 7t-53.5 15l27 126q17 -9 36.5 -14.5t39.5 -5.5q30 0 55.5 11.5t39.5 46.5l5 15l-255 512h179l167 -358l166 358h169zM134 581v137h160v-137h-160zM380 581v137h160v-137h-160z" />
    <glyph glyph-name="ygrave" unicode="&#x1ef3;" horiz-adv-x="673" 
d="M410 -25q-28 -58 -61.5 -93.5t-77 -51.5t-103.5 -16q-32 0 -66.5 7t-53.5 15l27 126q17 -9 36.5 -14.5t39.5 -5.5q30 0 55.5 11.5t39.5 46.5l5 15l-255 512h179l167 -358l166 358h169zM424 570h-133l-167 148h201z" />
    <glyph glyph-name="zacute" unicode="&#x17a;" horiz-adv-x="633" 
d="M602 132v-132h-570v118l341 277h-337v132h563v-119l-335 -276h338zM235 570l99 148h201l-167 -148h-133z" />
    <glyph glyph-name="zcaron" unicode="&#x17e;" horiz-adv-x="633" 
d="M602 132v-132h-570v118l341 277h-337v132h563v-119l-335 -276h338zM395 570h-156l-131 148h121l88 -54l88 54h121z" />
    <glyph glyph-name="zdotaccent" unicode="&#x17c;" horiz-adv-x="633" 
d="M602 132v-132h-570v118l341 277h-337v132h563v-119l-335 -276h338zM236 581v137h162v-137h-162z" />
    <glyph glyph-name="ordmasculine" unicode="&#xba;" horiz-adv-x="494" 
d="M474 529q0 -60 -30 -104t-81.5 -68.5t-115.5 -24.5t-116 24.5t-82 68.5t-30 104t30 104.5t82 68.5t116 24t115.5 -24t81.5 -68.5t30 -104.5zM138 529q0 -31 15 -53t39.5 -33.5t54.5 -11.5t54.5 11.5t39 33.5t14.5 53q0 32 -14.5 53.5t-39 33t-54.5 11.5t-54.5 -11.5
t-39.5 -33t-15 -53.5zM27 184v98h440v-98h-440z" />
    <glyph glyph-name="ordfeminine" unicode="&#xaa;" horiz-adv-x="515" 
d="M182 332q-72 0 -116.5 31t-44.5 86q0 57 44.5 85.5t111.5 33.5l148 13v2q0 20 -19 34t-63 14q-37 0 -63 -13.5t-34 -33.5l-111 26q18 53 76 84.5t137 31.5q92 0 143 -36t51 -108v-132q0 -15 9 -21t38 0v-89q-64 -12 -101 1t-52 39q-25 -22 -65 -35t-89 -13zM325 485v17
l-131 -12q-28 -3 -41.5 -10.5t-13.5 -24.5q0 -36 67 -36q29 0 56 8t45 22.5t18 35.5zM29 184v98h458v-98h-458z" />
    <glyph glyph-name="a.ord" horiz-adv-x="497" 
d="M182 332q-72 0 -116.5 31t-44.5 86q0 57 44.5 85.5t111.5 33.5l148 13v2q0 20 -19 34t-63 14q-37 0 -63 -13.5t-34 -33.5l-111 26q18 53 76 84.5t137 31.5q92 0 143 -36t51 -108v-132q0 -15 9 -21t38 0v-89q-64 -12 -101 1t-52 39q-25 -22 -65 -35t-89 -13zM325 485v17
l-131 -12q-28 -3 -41.5 -10.5t-13.5 -24.5q0 -36 67 -36q29 0 56 8t45 22.5t18 35.5z" />
    <glyph glyph-name="b.ord" horiz-adv-x="534" 
d="M308 332q-46 0 -81 14.5t-54 35.5v-42h-122v515h122v-179q19 20 54 35t81 15q64 0 109.5 -26.5t69.5 -71.5t24 -99t-24 -98.5t-69.5 -71.5t-109.5 -27zM169 530v-2q0 -29 15 -51.5t40.5 -34.5t56.5 -12q30 0 55.5 11.5t40.5 33.5t15 54t-15 54t-40.5 33.5t-55.5 11.5
q-31 0 -56.5 -12t-40.5 -34t-15 -52z" />
    <glyph glyph-name="c.ord" horiz-adv-x="468" 
d="M142 529q0 -30 14 -52t39 -34t57 -12q41 0 67 21t36 50l106 -44q-10 -31 -37 -60t-70 -47.5t-101 -18.5q-67 0 -119 25t-81.5 69.5t-29.5 102.5t29.5 102.5t81.5 69.5t119 25q58 0 101 -18.5t70.5 -47.5t36.5 -60l-106 -44q-10 29 -36 50.5t-67 21.5q-32 0 -57 -12
t-39 -34.5t-14 -52.5z" />
    <glyph glyph-name="d.ord" horiz-adv-x="534" 
d="M226 332q-64 0 -109.5 27t-69.5 71.5t-24 98.5t24 99t69.5 71.5t109.5 26.5q47 0 81.5 -15t53.5 -35v179h122v-515h-122v42q-19 -21 -53.5 -35.5t-81.5 -14.5zM365 530q0 30 -15 52t-40 34t-57 12q-30 0 -55.5 -11.5t-40.5 -33.5t-15 -54t15 -54t40.5 -33.5t55.5 -11.5
q32 0 57 12t40 34.5t15 51.5v2z" />
    <glyph glyph-name="e.ord" horiz-adv-x="493" 
d="M253 332q-68 0 -120 25t-81 69.5t-29 102.5q0 57 29.5 101.5t81 70t118.5 25.5q70 0 118.5 -26.5t74 -71t25.5 -98.5v-32h-328q7 -22 22 -38t37.5 -24t50.5 -8q36 0 63 14.5t39 41.5l110 -37q-14 -34 -45 -60t-73.5 -40.5t-92.5 -14.5zM249 633q-36 0 -64 -16t-40 -47
h202q-3 16 -16 30.5t-33.5 23.5t-48.5 9z" />
    <glyph glyph-name="f.ord" horiz-adv-x="348" 
d="M361 848l-15 -93q-17 5 -35 7.5t-38 2.5q-35 0 -52 -10.5t-17 -33.5v-3h138v-100h-137v-278h-121v278h-83v100h83v5q0 70 47 105t134 35q27 0 53.5 -4.5t42.5 -10.5z" />
    <glyph glyph-name="g.ord" horiz-adv-x="531" 
d="M479 399q0 -62 -32 -105.5t-86.5 -65.5t-124.5 -22q-49 0 -91.5 10.5t-74 32t-48.5 52.5l98 54q15 -27 45 -41t71 -14q31 0 58.5 9t45.5 28.5t18 48.5v12q-19 -20 -53 -34t-81 -14q-64 0 -109.5 25t-69.5 67.5t-24 94.5t24 94.5t69.5 68.5t109.5 26q48 0 81.5 -14.5
t52.5 -33.5v40h121v-319zM362 539q0 28 -15 49t-40.5 32.5t-56.5 11.5q-29 0 -54.5 -11t-40.5 -32.5t-15 -51.5t15 -51t40.5 -32t54.5 -11q31 0 56.5 11t40.5 32t15 50v3z" />
    <glyph glyph-name="h.ord" horiz-adv-x="523" 
d="M51 340v515h122v-182q23 23 57.5 38t79.5 15q48 0 85.5 -20.5t58.5 -58.5t21 -90v-217h-122v179q0 47 -21.5 73t-64.5 26q-29 0 -50.5 -11.5t-32.5 -33.5t-11 -54v-179h-122z" />
    <glyph glyph-name="i.ord" horiz-adv-x="224" 
d="M50 753v102h123v-102h-123zM173 718v-378h-122v378h122z" />
    <glyph glyph-name="j.ord" horiz-adv-x="224" 
d="M50 753v102h123v-102h-123zM51 359v359h122v-362q0 -78 -45 -113t-125 -35q-23 0 -47.5 3.5t-38.5 8.5l17 91q16 -4 29 -6.5t28 -2.5q30 0 45 12t15 45z" />
    <glyph glyph-name="k.ord" horiz-adv-x="505" 
d="M173 855v-290l176 153h164l-186 -157l189 -221h-149l-128 146l-66 -56v-90h-122v515h122z" />
    <glyph glyph-name="l.ord" horiz-adv-x="225" 
d="M173 855v-515h-122v515h122z" />
    <glyph glyph-name="m.ord" horiz-adv-x="799" 
d="M173 523v-183h-122v378h122v-44q22 23 54 37.5t75 14.5q41 0 76 -16.5t54 -48.5q25 27 63 46t91 19q51 0 88 -20.5t57 -58.5t20 -91v-216h-122v184q0 45 -19.5 70t-59.5 25q-28 0 -48 -11.5t-30 -32.5t-10 -52v-183h-122v184q0 45 -19.5 70t-60.5 25q-28 0 -47.5 -11.5
t-29.5 -32.5t-10 -52z" />
    <glyph glyph-name="n.ord" horiz-adv-x="523" 
d="M51 340v378h122v-45q23 23 57.5 38t79.5 15q48 0 85.5 -20.5t58.5 -58.5t21 -90v-217h-122v179q0 47 -21.5 73t-64.5 26q-29 0 -50.5 -11.5t-32.5 -33.5t-11 -54v-179h-122z" />
    <glyph glyph-name="o.ord" horiz-adv-x="501" 
d="M478 529q0 -60 -30 -104t-81.5 -68.5t-115.5 -24.5t-116 24.5t-82 68.5t-30 104t30 104.5t82 68.5t116 24t115.5 -24t81.5 -68.5t30 -104.5zM142 529q0 -31 15 -53t39.5 -33.5t54.5 -11.5t54.5 11.5t39 33.5t14.5 53q0 32 -14.5 53.5t-39 33t-54.5 11.5t-54.5 -11.5
t-39.5 -33t-15 -53.5z" />
    <glyph glyph-name="p.ord" horiz-adv-x="534" 
d="M308 332q-46 0 -81 14.5t-54 35.5v-167h-122v503h122v-42q19 20 54 35t81 15q64 0 109.5 -26.5t69.5 -71.5t24 -99t-24 -98.5t-69.5 -71.5t-109.5 -27zM169 530v-2q0 -29 15 -51.5t40.5 -34.5t56.5 -12q30 0 55.5 11.5t40.5 33.5t15 54t-15 54t-40.5 33.5t-55.5 11.5
q-31 0 -56.5 -12t-40.5 -34t-15 -52z" />
    <glyph glyph-name="q.ord" horiz-adv-x="534" 
d="M226 332q-64 0 -109.5 27t-69.5 71.5t-24 98.5t24 99t69.5 71.5t109.5 26.5q47 0 81.5 -15t53.5 -35v42h122v-503h-122v167q-19 -21 -53.5 -35.5t-81.5 -14.5zM365 530q0 30 -15 52t-40 34t-57 12q-30 0 -55.5 -11.5t-40.5 -33.5t-15 -54t15 -54t40.5 -33.5t55.5 -11.5
q32 0 57 12t40 34.5t15 51.5v2z" />
    <glyph glyph-name="r.ord" horiz-adv-x="366" 
d="M353 716v-117q-13 2 -21.5 3t-24.5 1q-39 0 -69.5 -11t-47.5 -35.5t-17 -66.5v-150h-122v378h122v-64q25 35 59 50.5t80 15.5q13 0 23 -1t18 -3z" />
    <glyph glyph-name="s.ord" horiz-adv-x="438" 
d="M-2 399l53 81q35 -30 79.5 -44t91.5 -14q26 0 43.5 3t27 10t9.5 17q0 11 -12.5 16t-39 8.5t-68.5 8.5q-44 6 -81.5 16t-60 32t-22.5 63q0 40 24 69t68.5 45t105.5 16q66 0 117 -18t82 -44l-61 -73q-28 23 -64.5 35t-80.5 12q-34 0 -51.5 -7.5t-17.5 -21.5q0 -9 9 -14
t32 -8t64 -8q48 -5 89 -15.5t66 -33t25 -65.5q0 -44 -27.5 -74t-75.5 -44.5t-110 -14.5q-64 0 -122 18t-92 49z" />
    <glyph glyph-name="t.ord" horiz-adv-x="388" 
d="M85 461v157h-84v100h84v103h120v-103h154v-100h-154v-127q0 -28 16.5 -40.5t50.5 -12.5q22 0 42.5 4.5t39.5 11.5l22 -97q-25 -9 -59.5 -16t-77.5 -7t-78 13t-55.5 41t-20.5 73z" />
    <glyph glyph-name="u.ord" horiz-adv-x="519" 
d="M468 718v-378h-122v45q-22 -23 -56 -38t-79 -15q-47 0 -84 20t-58 57.5t-21 89.5v219h122v-192q0 -43 20.5 -66.5t63.5 -23.5q29 0 49.5 11t31.5 32.5t11 51.5v187h122z" />
    <glyph glyph-name="v.ord" horiz-adv-x="491" 
d="M310 340h-128l-184 378h136l116 -249l114 249h129z" />
    <glyph glyph-name="w.ord" horiz-adv-x="690" 
d="M293 718h110l79 -233l84 233h126l-150 -378h-113l-84 233l-84 -233h-112l-151 378h131l84 -233z" />
    <glyph glyph-name="x.ord" horiz-adv-x="503" 
d="M352 340l-100 113l-103 -113h-149l177 191l-170 187h151l94 -105l95 105h149l-169 -183l176 -195h-151z" />
    <glyph glyph-name="y.ord" horiz-adv-x="491" 
d="M304 327q-20 -43 -44.5 -69t-56.5 -38t-78 -12q-23 0 -48 4.5t-39 10.5l20 95q12 -6 26 -10t27 -4q21 0 38.5 7.5t25.5 30.5l4 9l-181 367h136l116 -250l115 250h128z" />
    <glyph glyph-name="z.ord" horiz-adv-x="480" 
d="M446 440v-100h-412v90l238 188h-235v100h407v-90l-232 -188h234z" />
    <glyph glyph-name="ampersand" unicode="&#x26;" horiz-adv-x="905" 
d="M714 409l150 -32q-17 -62 -48.5 -118t-75.5 -103q38 -19 72.5 -22t81.5 1v-131q-89 -13 -154 5.5t-119 53.5q-61 -35 -134 -54.5t-155 -19.5q-99 0 -170 27.5t-109 76.5t-38 114q0 78 51 130t130 74q-21 27 -32 56t-11 62q0 56 30.5 101.5t87.5 72t136 26.5
q85 0 140.5 -25.5t82.5 -68.5t27 -94q0 -70 -50 -119t-127 -73l141 -109q32 34 56 77t37 92zM306 536q0 -28 16 -51.5t47 -48.5q67 9 104 33t37 67q0 30 -24 53.5t-79 23.5q-51 0 -76 -23.5t-25 -53.5zM175 224q0 -46 46.5 -74.5t126.5 -28.5q40 0 78.5 8.5t74.5 24.5
l-209 166q-55 -7 -86 -32t-31 -64z" />
    <glyph glyph-name="grave" unicode="`" horiz-adv-x="600" 
d="M441 570h-133l-167 148h201z" />
    <glyph glyph-name="acute" unicode="&#xb4;" horiz-adv-x="600" 
d="M159 570l99 148h201l-167 -148h-133z" />
    <glyph glyph-name="circumflex" unicode="&#x2c6;" horiz-adv-x="600" 
d="M378 718l131 -148h-121l-88 54l-88 -54h-121l131 148h156z" />
    <glyph glyph-name="tilde" unicode="&#x2dc;" horiz-adv-x="600" 
d="M215 727q28 0 49 -7t38 -16.5t32 -17t32 -7.5q16 0 24.5 12t12.5 36h96q-2 -70 -32 -113.5t-83 -43.5q-28 0 -49 7t-38 16.5t-32 16.5t-32 7q-16 0 -24 -11.5t-13 -35.5h-96q2 70 32.5 113.5t82.5 43.5z" />
    <glyph glyph-name="macron" unicode="&#xaf;" horiz-adv-x="600" 
d="M485 583h-370v119h370v-119z" />
    <glyph glyph-name="breve" unicode="&#x2d8;" horiz-adv-x="600" 
d="M300 668q39 0 59.5 12.5t24.5 37.5h108q0 -46 -21.5 -80t-63.5 -52t-107 -18q-64 0 -106.5 18.5t-63.5 52t-22 79.5h108q4 -25 24.5 -37.5t59.5 -12.5z" />
    <glyph glyph-name="dotaccent" unicode="&#x2d9;" horiz-adv-x="600" 
d="M219 581v137h162v-137h-162z" />
    <glyph glyph-name="dieresis" unicode="&#xa8;" horiz-adv-x="600" 
d="M97 581v137h160v-137h-160zM343 581v137h160v-137h-160z" />
    <glyph glyph-name="ring" unicode="&#x2da;" horiz-adv-x="600" 
d="M184 671q0 45 32 77.5t84 32.5q53 0 84.5 -32.5t31.5 -77.5t-31.5 -78t-84.5 -33q-52 0 -84 33t-32 78zM259 671q0 -17 11.5 -29.5t29.5 -12.5t29.5 12.5t11.5 29.5t-11.5 29.5t-29.5 12.5t-29.5 -12.5t-11.5 -29.5z" />
    <glyph glyph-name="hungarumlaut" unicode="&#x2dd;" horiz-adv-x="600" 
d="M281 570l91 148h171l-141 -148h-121zM59 570l92 148h171l-141 -148h-122z" />
    <glyph glyph-name="caron" unicode="&#x2c7;" horiz-adv-x="600" 
d="M378 570h-156l-131 148h121l88 -54l88 54h121z" />
    <glyph glyph-name="caron.Slovak" horiz-adv-x="600" 
d="M199 550l23 168h171l-86 -168h-108z" />
    <glyph glyph-name="commaturn" horiz-adv-x="600" 
d="M380 660v-90h-160v51q0 68 44.5 99t115.5 31v-59q-31 0 -42.5 -9t-14.5 -23h57z" />
    <glyph glyph-name="commaaccent" unicode="&#xf6c3;" horiz-adv-x="600" 
d="M219 -123v90h160v-51q0 -68 -44.5 -99t-115.5 -31v59q32 0 43 9.5t14 22.5h-57z" />
    <glyph glyph-name="cedilla" unicode="&#xb8;" horiz-adv-x="600" 
d="M446 -99q0 -27 -20 -47t-53 -30.5t-73 -10.5q-42 0 -79.5 9.5t-60.5 26.5l45 67q19 -14 41 -20t45 -6q25 0 36.5 6t11.5 16q0 15 -26.5 20t-68.5 6l22 74h71l-9 -32q52 -2 85 -22.5t33 -56.5z" />
    <glyph glyph-name="ogonek" unicode="&#x2db;" horiz-adv-x="600" 
d="M169 -93q0 47 42.5 82.5t131.5 57.5l41 -47q-64 -18 -87.5 -32t-23.5 -30q0 -13 16 -21t43 -8q11 0 23.5 1.5t28.5 4.5v-89q-22 -4 -42 -6.5t-37 -2.5q-36 0 -67 10t-50 30t-19 50z" />
    <glyph glyph-name="grave.cap" horiz-adv-x="600" 
d="M453 757h-142l-190 156h220z" />
    <glyph glyph-name="acute.cap" horiz-adv-x="600" 
d="M138 757l112 156h220l-190 -156h-142z" />
    <glyph glyph-name="circumflex.cap" horiz-adv-x="600" 
d="M385 913l143 -156h-126l-102 64l-102 -64h-126l143 156h170z" />
    <glyph glyph-name="tilde.cap" horiz-adv-x="600" 
d="M201 930q32 0 56.5 -7.5t45 -18t39 -18t37.5 -7.5q18 0 28 12.5t14 38.5h106q-3 -78 -36.5 -125t-92.5 -47q-31 0 -56 7.5t-45 18t-38.5 18t-38.5 7.5q-18 0 -27.5 -12.5t-14.5 -38.5h-105q2 77 36 124.5t92 47.5z" />
    <glyph glyph-name="macron.cap" horiz-adv-x="600" 
d="M499 763h-398v121h398v-121z" />
    <glyph glyph-name="breve.cap" horiz-adv-x="600" 
d="M300 858q38 0 63.5 15t25.5 40h115q0 -46 -23.5 -82.5t-69 -57.5t-111.5 -21t-111.5 21t-69 57.5t-23.5 82.5h115q0 -25 25.5 -40t63.5 -15z" />
    <glyph glyph-name="dotaccent.cap" horiz-adv-x="600" 
d="M214 757v141h172v-141h-172z" />
    <glyph glyph-name="dieresis.cap" horiz-adv-x="600" 
d="M93 757v141h160v-141h-160zM347 757v141h160v-141h-160z" />
    <glyph glyph-name="ring.cap" horiz-adv-x="600" 
d="M158 886q0 36 18 66.5t50 48.5t74 18q43 0 74.5 -18t49.5 -48.5t18 -66.5t-18 -66.5t-49.5 -49t-74.5 -18.5q-42 0 -74 18.5t-50 49t-18 66.5zM250 886q0 -22 14 -36.5t36 -14.5q23 0 36.5 14.5t13.5 36.5q0 23 -13.5 37t-36.5 14q-22 0 -36 -14t-14 -37z" />
    <glyph glyph-name="hungarumlaut.cap" horiz-adv-x="600" 
d="M295 757l94 156h180l-150 -156h-124zM54 757l89 156h184l-150 -156h-123z" />
    <glyph glyph-name="caron.cap" horiz-adv-x="600" 
d="M385 758h-170l-143 156h126l102 -64l102 64h126z" />
    <glyph glyph-name="period" unicode="." horiz-adv-x="254" 
d="M35 0v179h184v-179h-184z" />
    <glyph glyph-name="comma" unicode="," horiz-adv-x="254" 
d="M35 0v179h184v-166q0 -79 -50 -121.5t-134 -43.5v82q37 2 55.5 17.5t18.5 46.5v6h-74z" />
    <glyph glyph-name="colon" unicode=":" horiz-adv-x="254" 
d="M35 0v179h184v-179h-184zM35 329v179h184v-179h-184z" />
    <glyph glyph-name="semicolon" unicode=";" horiz-adv-x="254" 
d="M35 0v179h184v-166q0 -79 -50 -121.5t-134 -43.5v82q37 2 55.5 17.5t18.5 46.5v6h-74zM35 329v179h184v-179h-184z" />
    <glyph glyph-name="ellipsis" unicode="&#x2026;" horiz-adv-x="745" 
d="M35 0v179h184v-179h-184zM280 0v179h184v-179h-184zM526 0v179h184v-179h-184z" />
    <glyph glyph-name="exclam" unicode="!" horiz-adv-x="307" 
d="M92 230l-42 488h207l-42 -488h-123zM60 0v173h187v-173h-187z" />
    <glyph glyph-name="exclamdown" unicode="&#xa1;" horiz-adv-x="307" 
d="M60 718h187v-173h-187v173zM92 488h123l42 -488h-207z" />
    <glyph glyph-name="question" unicode="?" horiz-adv-x="729" 
d="M372 587q-82 0 -134.5 -32t-60.5 -82l-173 26q11 64 57 116t126.5 83t194.5 31q102 0 177.5 -27.5t117.5 -78t42 -119.5q0 -58 -33 -102t-90.5 -71.5t-133.5 -37.5v-63h-167v171q76 0 130.5 8.5t84 29t29.5 56.5q0 30 -19 50.5t-56 31t-92 10.5zM289 0v173h187v-173h-187
z" />
    <glyph glyph-name="questiondown" unicode="&#xbf;" horiz-adv-x="729" 
d="M440 726v-173h-187v173h187zM357 139q83 0 135 32t60 82l173 -26q-10 -63 -56.5 -115.5t-127 -83.5t-194.5 -31q-102 0 -177.5 27.5t-117.5 78t-42 119.5q0 59 33 102.5t91 71t133 37.5v63h167v-171q-76 0 -130.5 -8.5t-84 -28.5t-29.5 -57q0 -29 19 -50t56 -31.5
t92 -10.5z" />
    <glyph glyph-name="quoteleft" unicode="&#x2018;" horiz-adv-x="230" 
d="M207 568v-169h-184v165q0 50 23.5 84t65 52t95.5 18v-82q-37 -2 -54.5 -17.5t-17.5 -41.5v-9h72z" />
    <glyph glyph-name="quoteright" unicode="&#x2019;" horiz-adv-x="230" 
d="M23 549v169h184v-165q0 -49 -23.5 -83.5t-64.5 -52t-96 -18.5v82q38 2 55 17.5t17 41.5v9h-72z" />
    <glyph glyph-name="quotedblleft" unicode="&#x201c;" horiz-adv-x="462" 
d="M207 568v-169h-184v165q0 50 23.5 84t65 52t95.5 18v-82q-37 -2 -54.5 -17.5t-17.5 -41.5v-9h72zM439 568v-169h-184v165q0 50 23.5 84t65 52t95.5 18v-82q-37 -2 -54.5 -17.5t-17.5 -41.5v-9h72z" />
    <glyph glyph-name="quotedblright" unicode="&#x201d;" horiz-adv-x="462" 
d="M23 549v169h184v-165q0 -49 -23.5 -83.5t-64.5 -52t-96 -18.5v82q38 2 55 17.5t17 41.5v9h-72zM255 549v169h184v-165q0 -49 -23.5 -83.5t-64.5 -52t-96 -18.5v82q38 2 55 17.5t17 41.5v9h-72z" />
    <glyph glyph-name="quotesinglbase" unicode="&#x201a;" horiz-adv-x="230" 
d="M23 12v169h184v-165q0 -49 -23.5 -83.5t-64.5 -52t-96 -18.5v82q38 2 55 17.5t17 41.5v9h-72z" />
    <glyph glyph-name="quotedblbase" unicode="&#x201e;" horiz-adv-x="462" 
d="M255 12v169h184v-165q0 -49 -23.5 -83.5t-64.5 -52t-96 -18.5v82q38 2 55 17.5t17 41.5v9h-72zM23 12v169h184v-165q0 -49 -23.5 -83.5t-64.5 -52t-96 -18.5v82q38 2 55 17.5t17 41.5v9h-72z" />
    <glyph glyph-name="guilsinglleft" unicode="&#x2039;" horiz-adv-x="319" 
d="M36 190v140l247 141v-149l-104 -62l104 -62v-149z" />
    <glyph glyph-name="guilsinglright" unicode="&#x203a;" horiz-adv-x="319" 
d="M283 190l-247 -141v149l104 62l-104 62v149l247 -141v-140z" />
    <glyph glyph-name="guillemotleft" unicode="&#xab;" horiz-adv-x="594" 
d="M36 190v140l247 141v-149l-104 -62l104 -62v-149zM311 190v140l247 141v-149l-104 -62l104 -62v-149z" />
    <glyph glyph-name="guillemotright" unicode="&#xbb;" horiz-adv-x="594" 
d="M283 190l-247 -141v149l104 62l-104 62v149l247 -141v-140zM557 190l-247 -141v149l104 62l-104 62v149l247 -141v-140z" />
    <glyph glyph-name="guilsinglleft.cap" horiz-adv-x="319" 
d="M36 289v140l247 141v-149l-104 -62l104 -62v-149z" />
    <glyph glyph-name="guilsinglright.cap" horiz-adv-x="319" 
d="M283 289l-247 -141v149l104 62l-104 62v149l247 -141v-140z" />
    <glyph glyph-name="guillemotleft.cap" horiz-adv-x="594" 
d="M36 289v140l247 141v-149l-104 -62l104 -62v-149zM311 289v140l247 141v-149l-104 -62l104 -62v-149z" />
    <glyph glyph-name="guillemotright.cap" horiz-adv-x="594" 
d="M283 289l-247 -141v149l104 62l-104 62v149l247 -141v-140zM557 289l-247 -141v149l104 62l-104 62v149l247 -141v-140z" />
    <glyph glyph-name="slash" unicode="/" horiz-adv-x="587" 
d="M14 -98l387 836h172l-387 -836h-172z" />
    <glyph glyph-name="backslash" unicode="\" horiz-adv-x="587" 
d="M573 -98h-172l-387 836h172z" />
    <glyph glyph-name="bar" unicode="|" horiz-adv-x="282" 
d="M62 -98v836h158v-836h-158z" />
    <glyph glyph-name="slash.cap" horiz-adv-x="587" 
d="M14 -61l387 836h172l-387 -836h-172z" />
    <glyph glyph-name="backslash.cap" horiz-adv-x="587" 
d="M573 -61h-172l-387 836h172z" />
    <glyph glyph-name="bar.cap" horiz-adv-x="282" 
d="M62 -61v836h158v-836h-158z" />
    <glyph glyph-name="periodcentered" unicode="&#xb7;" horiz-adv-x="264" 
d="M40 203v179h184v-179h-184z" />
    <glyph glyph-name="bullet" unicode="&#x2022;" horiz-adv-x="442" 
d="M222 480q52 0 94 -24t67 -66t25 -98q0 -54 -25 -96t-67 -66t-94 -24t-95 24t-68.5 66t-25.5 96q0 56 25.5 98t68.5 66t95 24z" />
    <glyph glyph-name="hyphen" unicode="-" horiz-adv-x="376" 
d="M40 221v144h296v-144h-296z" />
    <glyph glyph-name="endash" unicode="&#x2013;" horiz-adv-x="542" 
d="M40 228v130h462v-130h-462z" />
    <glyph glyph-name="emdash" unicode="&#x2014;" horiz-adv-x="976" 
d="M40 228v130h896v-130h-896z" />
    <glyph glyph-name="periodcentered.cap" horiz-adv-x="264" 
d="M40 275v179h184v-179h-184z" />
    <glyph glyph-name="bullet.cap" horiz-adv-x="442" 
d="M222 545q52 0 94 -24t67 -66t25 -98q0 -54 -25 -96t-67 -66t-94 -24t-95 24t-68.5 66t-25.5 96q0 56 25.5 98t68.5 66t95 24z" />
    <glyph glyph-name="hyphen.cap" horiz-adv-x="376" 
d="M40 286v144h296v-144h-296z" />
    <glyph glyph-name="endash.cap" horiz-adv-x="542" 
d="M40 293v130h462v-130h-462z" />
    <glyph glyph-name="emdash.cap" horiz-adv-x="976" 
d="M40 293v130h896v-130h-896z" />
    <glyph glyph-name="parenleft" unicode="(" horiz-adv-x="406" 
d="M185 320q0 -121 56 -225t165 -193h-164q-67 44 -117.5 107.5t-78.5 142t-28 168.5t28 168.5t78.5 142.5t117.5 107h164q-109 -89 -165 -193t-56 -225z" />
    <glyph glyph-name="parenright" unicode=")" horiz-adv-x="406" 
d="M221 320q0 121 -55.5 225t-165.5 193h164q68 -43 118 -107t78 -142.5t28 -168.5t-28 -168.5t-78 -142t-118 -107.5h-164q110 89 165.5 193t55.5 225z" />
    <glyph glyph-name="bracketleft" unicode="[" horiz-adv-x="377" 
d="M192 616v-593h175v-121h-327v836h327v-122h-175z" />
    <glyph glyph-name="bracketright" unicode="]" horiz-adv-x="377" 
d="M185 616h-175v122h327v-836h-327v121h175v593z" />
    <glyph glyph-name="braceleft" unicode="{" horiz-adv-x="433" 
d="M20 256v128h51q23 0 36.5 14.5t13.5 49.5v115q0 53 22 92t66 61t110 22h104v-122h-74q-45 0 -64.5 -21.5t-19.5 -63.5v-93q0 -53 -21 -79t-48 -39q27 -13 48 -39t21 -79v-93q0 -42 19.5 -63.5t64.5 -21.5h74v-122h-104q-66 0 -110 22t-66 61.5t-22 91.5v115
q0 35 -13.5 49.5t-36.5 14.5h-51z" />
    <glyph glyph-name="braceright" unicode="}" horiz-adv-x="433" 
d="M413 256h-51q-22 0 -36 -14.5t-14 -49.5v-115q0 -52 -22 -91.5t-66 -61.5t-110 -22h-104v122h74q45 0 64.5 21.5t19.5 63.5v93q0 53 21 79t48 39q-27 13 -48 39t-21 79v93q0 42 -19.5 63.5t-64.5 21.5h-74v122h104q66 0 110 -22t66 -61t22 -92v-115q0 -35 14 -49.5
t36 -14.5h51v-128z" />
    <glyph glyph-name="parenleft.cap" horiz-adv-x="406" 
d="M184 344q0 -121 56 -225t165 -193h-164q-67 44 -117.5 107.5t-78.5 142t-28 168.5t28 168.5t78.5 142.5t117.5 107h164q-109 -89 -165 -193t-56 -225z" />
    <glyph glyph-name="parenright.cap" horiz-adv-x="406" 
d="M221 344q0 121 -55.5 225t-165.5 193h164q68 -43 118 -107t78 -142.5t28 -168.5t-28 -168.5t-78 -142t-118 -107.5h-164q110 89 165.5 193t55.5 225z" />
    <glyph glyph-name="bracketleft.cap" horiz-adv-x="377" 
d="M192 640v-593h175v-121h-327v836h327v-122h-175z" />
    <glyph glyph-name="bracketright.cap" horiz-adv-x="377" 
d="M185 640h-175v122h327v-836h-327v121h175v593z" />
    <glyph glyph-name="braceleft.cap" horiz-adv-x="433" 
d="M20 280v128h51q23 0 36.5 14.5t13.5 49.5v115q0 53 22 92t66 61t110 22h104v-122h-74q-45 0 -64.5 -21.5t-19.5 -63.5v-93q0 -53 -21 -79t-48 -39q27 -13 48 -39t21 -79v-93q0 -42 19.5 -63.5t64.5 -21.5h74v-122h-104q-66 0 -110 22t-66 61.5t-22 91.5v115
q0 35 -13.5 49.5t-36.5 14.5h-51z" />
    <glyph glyph-name="braceright.cap" horiz-adv-x="433" 
d="M413 280h-51q-22 0 -36 -14.5t-14 -49.5v-115q0 -79 -50 -127t-148 -48h-104v122h74q45 0 64.5 21.5t19.5 63.5v93q0 53 21 79t48 39q-27 13 -48 39t-21 79v93q0 42 -19.5 63.5t-64.5 21.5h-74v122h104q98 0 148 -48t50 -127v-115q0 -35 14 -49.5t36 -14.5h51v-128z" />
    <glyph glyph-name="asterisk" unicode="*" horiz-adv-x="462" 
d="M315 318l-84 116l-84 -116l-85 61l85 116l-137 44l33 99l136 -43v143h104v-143l137 43l32 -99l-137 -44l85 -116z" />
    <glyph glyph-name="dagger" unicode="&#x2020;" horiz-adv-x="420" 
d="M151 278v220h-135v116h135v124h118v-124h135v-116h-135v-220h-118z" />
    <glyph glyph-name="daggerdbl" unicode="&#x2021;" horiz-adv-x="414" 
d="M145 278v85h-128v108h128v75h-128v108h128v84h124v-84h128v-108h-128v-75h128v-108h-128v-85h-124z" />
    <glyph glyph-name="section" unicode="&#xa7;" horiz-adv-x="803" 
d="M764 169q0 -53 -38 -94t-113.5 -64t-187.5 -23q-88 0 -169 13t-144.5 36.5t-102.5 56.5l84 114q35 -27 83.5 -48.5t113 -34t143.5 -12.5q50 0 86 6t55.5 17t19.5 27q0 21 -20.5 30.5t-60.5 11.5l-293 18q-80 5 -128.5 40.5t-48.5 99.5q0 29 12 54t34 45q-36 36 -36 88
t37 92.5t111.5 63.5t186.5 23q86 0 156.5 -11.5t124.5 -32t89 -47.5l-80 -108q-53 35 -128.5 53t-173.5 18q-79 0 -116.5 -11.5t-37.5 -33.5q0 -16 16.5 -25t50.5 -11l265 -14q107 -5 160.5 -42t53.5 -106q0 -30 -10.5 -54t-30.5 -44q18 -18 27.5 -40.5t9.5 -50.5zM535 325
q23 -1 44.5 -4t40.5 -8q6 7 9.5 14.5t3.5 16.5q0 23 -20.5 33t-72.5 13l-283 15q-17 1 -33.5 3t-31.5 6q-8 -7 -12.5 -15t-4.5 -18q0 -19 18 -29t58 -12z" />
    <glyph glyph-name="paragraph" unicode="&#xb6;" horiz-adv-x="866" 
d="M580 0v591h-143v-292h-180q-68 0 -121.5 25t-84 71.5t-30.5 109.5t31.5 111t88.5 75t133 27h578v-127h-127v-591h-145z" />
    <glyph glyph-name="asciicircum" unicode="^" horiz-adv-x="597" 
d="M223 718h151l210 -313h-161l-124 188l-125 -188h-161z" />
    <glyph glyph-name="asciitilde" unicode="~" horiz-adv-x="519" 
d="M180 415q23 0 41 -8t34 -19t30 -19t29 -8q20 0 31 12t16 43h118q-2 -57 -18.5 -103t-47 -73t-74.5 -27q-22 0 -40.5 8.5t-34 19.5t-30 19.5t-28.5 8.5q-19 0 -30.5 -12t-17.5 -44h-118q2 57 18.5 102.5t47 72.5t74.5 27z" />
    <glyph glyph-name="underscore" unicode="_" horiz-adv-x="479" 
d="M44 -177v128h391v-128h-391z" />
    <glyph glyph-name="quotesingle" unicode="'" horiz-adv-x="219" 
d="M54 408l-36 310h183l-36 -310h-111z" />
    <glyph glyph-name="quotedbl" unicode="&#x22;" horiz-adv-x="432" 
d="M54 408l-36 310h183l-36 -310h-111zM267 408l-36 310h183l-36 -310h-111z" />
    <glyph glyph-name="at" unicode="@" horiz-adv-x="1078" 
d="M766 210q-6 -32 5 -45.5t37 -13.5q33 0 61.5 19.5t46 56t17.5 86.5q0 78 -43.5 133t-123.5 83.5t-190 28.5q-102 0 -181 -25t-133 -70t-82 -104.5t-28 -129.5q0 -67 26.5 -120t77 -89t124 -55t166.5 -19q95 0 187.5 19.5t158.5 54.5l58 -98q-50 -30 -115.5 -50.5
t-139.5 -31t-152 -10.5q-118 0 -214 26.5t-165 77.5t-106 125.5t-37 169.5q0 93 38.5 173.5t111 141t175 94.5t231.5 34q107 0 195 -24t151.5 -69.5t98.5 -110.5t35 -148q0 -67 -22 -119t-61 -87.5t-89 -53.5t-107 -18q-51 0 -88 16t-57 42q-28 -30 -73.5 -43.5t-90.5 -13.5
q-64 0 -111 23.5t-72 65.5t-25 97q0 64 32 118t89 87t133 33q34 0 62 -7t50 -19.5t37 -29.5l10 47h140zM514 158q37 0 64.5 15.5t43 41t15.5 55.5q0 26 -11.5 44.5t-33 28.5t-51.5 10q-37 0 -64.5 -15.5t-43 -41t-15.5 -55.5q0 -25 11.5 -44t33.5 -29t51 -10z" />
    <glyph glyph-name="at.cap" horiz-adv-x="1078" 
d="M766 296q-6 -32 5 -45.5t37 -13.5q33 0 61.5 19.5t46 56t17.5 86.5q0 78 -43.5 133t-123.5 83.5t-190 28.5q-102 0 -181 -25t-133 -70t-82 -104.5t-28 -129.5q0 -67 26.5 -120t77 -89t124 -55t166.5 -19q95 0 187.5 19.5t158.5 54.5l58 -98q-50 -30 -115.5 -50.5
t-139.5 -31t-152 -10.5q-118 0 -214 26.5t-165 77.5t-106 125.5t-37 169.5q0 93 38.5 173.5t111 141t175 94.5t231.5 34q107 0 195 -24t151.5 -69.5t98.5 -110.5t35 -148q0 -67 -22 -119t-61 -87.5t-89 -53.5t-107 -18q-51 0 -88 16t-57 42q-28 -30 -73.5 -43.5t-90.5 -13.5
q-64 0 -111 23.5t-72 65.5t-25 97q0 64 32 118t89 87t133 33q34 0 62 -7t50 -19.5t37 -29.5l10 47h140zM514 244q37 0 64.5 15.5t43 41t15.5 55.5q0 26 -11.5 44.5t-33 28.5t-51.5 10q-37 0 -64.5 -15.5t-43 -41t-15.5 -55.5q0 -25 11.5 -44t33.5 -29t51 -10z" />
    <glyph glyph-name="copyright" unicode="&#xa9;" horiz-adv-x="896" 
d="M861 359q0 -80 -32 -147.5t-88.5 -117.5t-131 -77.5t-160.5 -27.5t-161 27.5t-132 77.5t-89 117.5t-32 147.5q0 81 32 148.5t89 117.5t132 77t161 27t160.5 -27t131 -77t88.5 -117.5t32 -148.5zM781 359q0 63 -25.5 116.5t-71 92.5t-106 60.5t-129.5 21.5
q-70 0 -130.5 -21.5t-106.5 -60.5t-71.5 -92.5t-25.5 -116.5t25.5 -116t71.5 -92t106.5 -61t130.5 -22q69 0 129.5 22t106 61t71 92t25.5 116zM209 360q0 63 31.5 111t87 74.5t126.5 26.5q84 0 142.5 -33.5t80.5 -91.5l-118 -48q-12 28 -38 45.5t-68 17.5q-53 0 -85.5 -27.5
t-32.5 -74.5q0 -46 32.5 -74t85.5 -28q42 0 68 17.5t38 45.5l118 -48q-22 -58 -80.5 -91.5t-142.5 -33.5q-71 0 -126.5 27t-87 74.5t-31.5 110.5z" />
    <glyph glyph-name="registered" unicode="&#xae;" horiz-adv-x="543" 
d="M521 504q0 -65 -32.5 -116t-89 -80t-128.5 -29q-71 0 -127.5 29t-89 80t-32.5 116t32.5 116t89 80t127.5 29q72 0 128.5 -29t89 -80t32.5 -116zM465 504q0 50 -24.5 89.5t-68.5 62.5t-101 23q-56 0 -100 -23t-69 -62.5t-25 -89.5q0 -49 25 -89t69 -63t100 -23
q57 0 101 23t68.5 63t24.5 89zM405 394h-80l-40 72h-56v-72h-72v227h144q42 0 67.5 -18.5t25.5 -56.5q0 -25 -13.5 -39t-30.5 -22zM320 541q0 11 -8.5 17t-21.5 6h-61v-47h61q13 0 21.5 5.5t8.5 18.5z" />
    <glyph glyph-name="trademark" unicode="&#x2122;" horiz-adv-x="951" 
d="M261 374h-114v242h-127v102h367v-102h-126v-242zM708 374h-62l-100 211v-211h-104v344h149l87 -180l88 180h146v-344h-104v211z" />
    <glyph glyph-name="numbersign" unicode="#" horiz-adv-x="773" 
d="M82 0l46 178h-104v117h134l33 128h-137v117h167l46 178h137l-46 -178h163l46 178h136l-46 -178h92v-117h-122l-33 -128h126v-117h-156l-46 -178h-137l46 178h-164l-46 -178h-135zM294 295h163l34 128h-164z" />
    <glyph glyph-name="degree" unicode="&#xb0;" horiz-adv-x="411" 
d="M205 729q58 0 100.5 -20.5t66 -56t23.5 -81.5q0 -45 -23.5 -81t-66 -57t-100.5 -21q-57 0 -99.5 21t-66 57t-23.5 81q0 46 23.5 81.5t66 56t99.5 20.5zM205 504q38 0 62 17t24 50t-24 50t-62 17q-37 0 -61.5 -17t-24.5 -50t24.5 -50t61.5 -17z" />
    <glyph glyph-name="florin" unicode="&#x192;" horiz-adv-x="817" 
d="M466 212q-19 -108 -84 -165.5t-185 -57.5q-64 0 -114.5 15t-82.5 39l64 115q23 -16 54 -26.5t65 -10.5q49 0 78.5 25t37.5 73l18 102h-139v111h160l13 74q20 108 84.5 165.5t184.5 57.5q64 0 115 -15t82 -39l-64 -115q-22 17 -53.5 27t-65.5 10q-49 0 -78 -25t-38 -73
l-12 -67h158v-111h-178z" />
    <glyph glyph-name="Euro" unicode="&#x20ac;" horiz-adv-x="890" 
d="M18 235v100h89q-1 6 -1 12v12v13.5t1 13.5h-89v100h111q27 73 83 127.5t134.5 85t170.5 30.5q136 0 232 -59t133 -160l-137 -71q-27 68 -85 108.5t-146 40.5q-69 0 -125 -27t-88 -75h276l-23 -100h-289q-1 -7 -1 -13.5v-13.5v-12t1 -12h277l-22 -100h-221
q32 -49 88.5 -77t126.5 -28q88 0 146 41t85 108l137 -71q-37 -101 -133 -160t-232 -59q-93 0 -171.5 30.5t-135 86t-83.5 129.5h-109z" />
    <glyph glyph-name="dollar" unicode="$" horiz-adv-x="814" 
d="M-11 151l106 111q46 -51 112.5 -81.5t139.5 -41.5v162q-65 7 -121.5 18.5t-99 32t-66 55.5t-23.5 88q0 66 38.5 113.5t108.5 75.5t163 33v101h135v-104q98 -11 177 -45t122 -82l-105 -106q-31 35 -81.5 59.5t-112.5 36.5v-149q68 -7 125.5 -18.5t100.5 -33t66.5 -57
t23.5 -89.5q0 -70 -39 -118.5t-110 -75.5t-167 -34v-104h-135v104q-74 6 -144 26t-125.5 51.5t-88.5 71.5zM195 510q0 -19 12 -31.5t45 -20.5t95 -16v143q-78 -3 -115 -21.5t-37 -53.5zM635 214q0 24 -13 37t-46 21t-94 15v-152q153 11 153 79z" />
    <glyph glyph-name="cent" unicode="&#xa2;" horiz-adv-x="683" 
d="M306 -101v93q-82 11 -145 49t-98.5 97t-35.5 133q0 75 35.5 134t98.5 97t145 49v102h127v-102q63 -9 111.5 -32.5t81.5 -57t49 -71.5l-114 -68q-16 36 -48 62.5t-80 37.5v-302q47 11 79.5 37.5t48.5 63.5l114 -69q-16 -37 -49 -70.5t-81.5 -57t-111.5 -32.5v-93h-127z
M171 271q0 -38 17 -69t47.5 -52t70.5 -30v302q-40 -9 -70.5 -29.5t-47.5 -51.5t-17 -70z" />
    <glyph glyph-name="sterling" unicode="&#xa3;" horiz-adv-x="889" 
d="M89 282v105h86q-16 23 -26 48.5t-10 56.5q0 63 41.5 117t119.5 87t187 33q103 0 180.5 -31t121 -89t43.5 -139q0 -23 -3 -49h-156q3 17 3 32q0 69 -51.5 103t-137.5 34q-87 0 -135.5 -34t-48.5 -84q0 -25 11 -45t26 -40h252v-105h-190q6 -22 6 -49q0 -19 -3 -39
q50 -22 97.5 -41t96.5 -19q56 0 90.5 26t38.5 84h149q1 -79 -30.5 -136t-89 -88t-134.5 -31q-57 0 -103.5 14.5t-85.5 37t-74 46.5q-32 -43 -82 -70.5t-112 -27.5q-73 0 -119 36t-46 97q0 64 50 99.5t125 35.5q26 0 49.5 -3.5t45.5 -9.5q-6 21 -16 38h-166zM120 126
q0 -15 13.5 -25.5t38.5 -10.5q33 0 55.5 16t35.5 39q-20 9 -40.5 14t-42.5 5q-27 0 -43.5 -10t-16.5 -28z" />
    <glyph glyph-name="yen" unicode="&#xa5;" horiz-adv-x="933" 
d="M112 169v104h274v51h-274v104h177l-291 290h207l265 -271l264 271h201l-290 -290h178v-104h-275v-51h275v-104h-275v-169h-162v169h-274z" />
    <glyph glyph-name="florin.lt" horiz-adv-x="799" 
d="M457 212q-20 -108 -84.5 -165.5t-183.5 -57.5q-64 0 -112.5 15.5t-80.5 39.5l65 115q23 -16 52 -27t62 -11q48 0 77 25t38 73l18 102h-139v111h160l13 74q20 108 84.5 165.5t183.5 57.5q64 0 113 -15.5t80 -39.5l-65 -115q-22 17 -51.5 27.5t-62.5 10.5q-48 0 -77.5 -25
t-37.5 -73l-12 -67h157v-111h-177z" />
    <glyph glyph-name="Euro.lt" 
d="M29 235v100h49q-1 6 -1 12v12v13.5t1 13.5h-49v100h67q24 73 73 127.5t119.5 85t156.5 30.5q128 0 212.5 -60t119.5 -164l-140 -60q-23 68 -72 105.5t-123 37.5q-63 0 -110 -27t-73 -75h236l-20 -100h-245q-1 -7 -1 -13.5v-13.5v-12t1 -12h235l-19 -100h-188
q26 -49 73 -77t111 -28q74 0 123 37.5t72 105.5l140 -60q-35 -104 -119.5 -164t-212.5 -60q-86 0 -157 30.5t-120 86t-73 129.5h-66z" />
    <glyph glyph-name="dollar.lt" 
d="M-4 151l103 111q46 -52 111 -82.5t138 -41.5v163q-64 8 -119.5 20t-97 33t-65 56t-23.5 87q0 65 38 112t106.5 75t160.5 34v100h132v-104q97 -11 174 -45t120 -82l-103 -106q-31 35 -80 60t-111 36v-149q89 -10 159 -29.5t110.5 -59t40.5 -110.5q0 -104 -84 -160
t-226 -67v-104h-132v104q-73 6 -142 26t-123.5 51.5t-86.5 71.5zM197 512q0 -19 12 -31.5t44.5 -21.5t94.5 -17v143q-78 -2 -114.5 -20.5t-36.5 -52.5zM631 212q0 23 -13 36.5t-45.5 22t-92.5 15.5v-151q151 11 151 77z" />
    <glyph glyph-name="cent.lt" 
d="M358 -101v93q-82 11 -145 49t-98.5 97t-35.5 133q0 75 35.5 134t98.5 97t145 49v102h127v-102q63 -9 111.5 -32.5t81.5 -57t49 -71.5l-114 -68q-16 36 -48 62.5t-80 37.5v-302q47 11 79.5 37.5t48.5 63.5l114 -69q-16 -37 -49 -70.5t-81.5 -57t-111.5 -32.5v-93h-127z
M223 271q0 -38 17 -69t47.5 -52t70.5 -30v302q-40 -9 -70.5 -29.5t-47.5 -51.5t-17 -70z" />
    <glyph glyph-name="sterling.lt" 
d="M104 280v105h84q-16 26 -28 54.5t-12 65.5q0 63 38 114t106.5 81t159.5 30t157 -30t102 -85t36 -130q0 -15 -1.5 -31t-5.5 -33h-145q1 9 1.5 17.5t0.5 16.5q0 71 -41 102.5t-106 31.5t-103.5 -30t-38.5 -77q0 -28 12 -51t28 -46h197v-105h-144q2 -10 3 -20t1 -21
q0 -36 -10 -69q29 -15 59.5 -26t64.5 -11q53 0 86.5 28.5t36.5 79.5h144q1 -76 -30.5 -133t-87 -88t-127.5 -31q-65 0 -114 23.5t-87 53.5q-30 -34 -71.5 -55.5t-92.5 -21.5q-64 0 -106.5 35.5t-42.5 96.5q0 59 43 93t111 34q26 0 49 -4.5t45 -12.5q-1 14 -5.5 26t-10.5 23
h-155zM136 122q0 -15 13 -24t35 -9q23 0 41 12t30 31q-17 12 -34.5 19t-35.5 7q-22 0 -35.5 -9.5t-13.5 -26.5z" />
    <glyph glyph-name="yen.lt" horiz-adv-x="799" 
d="M109 173v104h210v33l-13 18h-197v104h120l-212 286h202l184 -270l182 270h197l-211 -286h119v-104h-196l-13 -18v-33h209v-104h-209v-173h-162v173h-210z" />
    <glyph glyph-name="zero" unicode="0" horiz-adv-x="867" 
d="M21 359q0 80 30.5 147.5t86 117.5t131 77.5t165.5 27.5q89 0 164.5 -27.5t131 -77.5t86.5 -117.5t31 -147.5t-31 -147.5t-86.5 -117.5t-131 -77.5t-164.5 -27.5q-90 0 -165.5 27.5t-131 77.5t-86 117.5t-30.5 147.5zM190 359q0 -68 31 -118.5t86.5 -78.5t126.5 -28
t126 28t86 78.5t31 118.5t-31 118.5t-86 78.5t-126 28t-126.5 -28t-86.5 -78.5t-31 -118.5z" />
    <glyph glyph-name="one" unicode="1" horiz-adv-x="474" 
d="M289 721h128v-721h-167v468h-241v126l128 6q52 2 83.5 15t47.5 39.5t21 66.5z" />
    <glyph glyph-name="two" unicode="2" horiz-adv-x="757" 
d="M29 129l342 182q42 23 75.5 41.5t57.5 36.5t36.5 39.5t12.5 48.5q0 32 -19 57t-55 39t-87 14q-58 0 -105.5 -21.5t-78.5 -60t-41 -91.5l-152 36q10 57 40 107.5t78.5 89t115.5 60.5t151 22q92 0 164.5 -30t114.5 -84t42 -127q0 -59 -29 -104t-81.5 -82t-122.5 -72
l-168 -87h417v-143h-708v129z" />
    <glyph glyph-name="three" unicode="3" horiz-adv-x="792" 
d="M402 -11q-105 0 -186.5 26.5t-135 73.5t-77.5 107l151 67q15 -38 50 -69t86 -48.5t113 -17.5q54 0 98.5 10.5t71 31t26.5 49.5q0 31 -24.5 48.5t-66.5 25t-93 7.5h-134v133h130q51 0 89 8t58.5 24.5t20.5 43.5q0 25 -21.5 42.5t-60.5 27.5t-91 10q-91 0 -152 -36t-81 -86
l-145 60q23 57 76.5 103t132.5 72.5t178 26.5q106 0 182.5 -26.5t118 -73.5t41.5 -107q0 -36 -15.5 -66.5t-43.5 -52.5t-67 -33q46 -12 78.5 -34t50 -54t17.5 -76q0 -59 -45.5 -108.5t-129.5 -79t-200 -29.5z" />
    <glyph glyph-name="four" unicode="4" horiz-adv-x="825" 
d="M638 0h-159v168h-469v129l413 421h215v-416h177v-134h-177v-168zM201 302h278v279z" />
    <glyph glyph-name="five" unicode="5" horiz-adv-x="772" 
d="M183 296l-136 29l49 393h608v-143h-482l-18 -136q32 18 85 34t126 16q100 0 177.5 -29.5t122 -84.5t44.5 -132q0 -58 -28 -104.5t-78.5 -80t-117.5 -51.5t-145 -18q-96 0 -177 24.5t-136.5 71t-78.5 112.5l151 64q18 -43 51.5 -73t81.5 -45.5t109 -15.5q56 0 101.5 13
t72.5 38.5t27 62.5q0 36 -25.5 61.5t-72 39.5t-109.5 14q-43 0 -80.5 -8t-67.5 -21.5t-54 -30.5z" />
    <glyph glyph-name="six" unicode="6" horiz-adv-x="823" 
d="M800 582l-112 -100q-34 53 -98.5 81.5t-146.5 28.5q-79 0 -138 -26.5t-91.5 -70t-34.5 -96.5q42 40 111.5 64t158.5 24q107 0 187 -32t124.5 -86.5t44.5 -124.5q0 -75 -48 -132.5t-134 -90t-199 -32.5q-132 0 -222 46.5t-135.5 126.5t-45.5 182q0 113 51.5 200t146.5 136
t227 49q125 0 216.5 -40.5t137.5 -106.5zM640 239q0 35 -28 61t-77 40.5t-114 14.5q-64 0 -113.5 -14.5t-77.5 -40.5t-28 -61q0 -53 60.5 -84t157.5 -31q64 0 113.5 14t78 40t28.5 61z" />
    <glyph glyph-name="seven" unicode="7" horiz-adv-x="754" 
d="M564 578h-412v-138h-142v278h734v-149q-92 -82 -153.5 -169t-91.5 -185.5t-30 -214.5h-170q0 131 36 237t96 190.5t133 150.5z" />
    <glyph glyph-name="eight" unicode="8" horiz-adv-x="813" 
d="M407 729q71 0 133.5 -13t110.5 -39t75 -64.5t27 -89.5q0 -55 -34.5 -91t-87.5 -60q47 -13 85 -35.5t61 -55.5t23 -79q0 -53 -30.5 -93t-84 -66.5t-125 -40t-153.5 -13.5t-153.5 13.5t-125.5 40t-84 66.5t-30 93q0 46 22.5 79t61 55.5t84.5 35.5q-52 24 -87 60t-35 91
q0 51 27 89.5t75 64.5t111 39t134 13zM407 436q54 0 95 9t64.5 27.5t23.5 46.5t-23.5 46.5t-64.5 27.5t-95 9t-95 -9t-64.5 -27.5t-23.5 -46.5t23.5 -46.5t64.5 -27.5t95 -9zM407 308q-67 0 -118 -10.5t-79.5 -31t-28.5 -52.5t28.5 -53t79.5 -31.5t118 -10.5t117.5 10.5
t79 31.5t28.5 53t-28.5 52.5t-79 31t-117.5 10.5z" />
    <glyph glyph-name="nine" unicode="9" horiz-adv-x="823" 
d="M23 136l112 100q35 -52 99 -81t146 -29q80 0 138.5 26.5t91 70.5t34.5 96q-42 -40 -111.5 -64t-158.5 -24q-106 0 -186.5 32t-125 87t-44.5 124q0 76 48 133t134 89.5t199 32.5q133 0 222.5 -46t135 -126.5t45.5 -182.5q0 -113 -51.5 -200t-146.5 -136t-227 -49
q-125 0 -216.5 40.5t-137.5 106.5zM183 479q0 -35 28 -61t77.5 -40.5t113.5 -14.5q65 0 114 14.5t77 40.5t28 61q0 53 -60.5 84t-157.5 31q-64 0 -113.5 -14t-78 -39.5t-28.5 -61.5z" />
    <glyph glyph-name="zero.lt" 
d="M32 359q0 80 27.5 147.5t77 117.5t117 77.5t146.5 27.5q80 0 147 -27.5t116.5 -77.5t77 -117.5t27.5 -147.5t-27.5 -147.5t-77 -117.5t-116.5 -77.5t-147 -27.5q-79 0 -146.5 27.5t-117 77.5t-77 117.5t-27.5 147.5zM201 359q0 -68 25.5 -118.5t70.5 -78.5t103 -28
t102.5 28t70 78.5t25.5 118.5t-25.5 118.5t-70 78.5t-102.5 28t-103 -28t-70.5 -78.5t-25.5 -118.5z" />
    <glyph glyph-name="one.lt" 
d="M389 721h128v-581h248v-140h-697v140h282v328h-276v126l163 6q51 2 82.5 15t48 39.5t21.5 66.5z" />
    <glyph glyph-name="two.lt" 
d="M51 129l319 172q50 27 88 48t63.5 40.5t38.5 41t13 47.5q0 32 -19.5 56t-55.5 38t-88 14q-59 0 -105 -21.5t-75.5 -60t-39.5 -90.5l-152 36q10 56 40 106.5t78 89.5t114 61t148 22q93 0 166 -30t115 -83.5t42 -126.5q0 -56 -24.5 -99.5t-72.5 -80.5t-120 -74l-178 -92
h412v-143h-707v129z" />
    <glyph glyph-name="three.lt" 
d="M405 -11q-101 0 -179 27t-130 73.5t-76 106.5l150 67q15 -38 48.5 -68.5t81.5 -48.5t106 -18q52 0 94 10.5t67 31t25 49.5q0 31 -24 48.5t-64 25t-89 7.5h-120v133h116q49 0 85 8t56 24.5t20 43.5q0 25 -20 42.5t-57 27.5t-87 10q-57 0 -102 -17t-75 -44.5t-44 -60.5
l-144 60q22 57 74 102.5t129 72.5t172 27q104 0 178 -26.5t113.5 -73.5t39.5 -107q0 -36 -17 -66.5t-46 -52.5t-67 -33q45 -12 78.5 -34t52.5 -54t19 -76q0 -59 -43.5 -108.5t-125 -79t-195.5 -29.5z" />
    <glyph glyph-name="four.lt" 
d="M639 0h-159v168h-453v129l397 421h216v-416h139v-134h-140v-168zM218 302h261v280z" />
    <glyph glyph-name="five.lt" 
d="M206 300l-135 28l48 390h604v-143h-478l-17 -131q31 17 85 31.5t125 13.5q97 0 172.5 -30.5t118.5 -85t43 -130.5q0 -57 -27.5 -103.5t-76.5 -80.5t-114 -52t-141 -18q-96 0 -177 24.5t-137 71.5t-79 113l152 63q15 -38 48.5 -68.5t83 -48t110.5 -17.5q53 0 96 13
t69 38.5t26 62.5q0 35 -24.5 61t-68.5 40t-104 14q-42 0 -79.5 -7t-68 -19.5t-54.5 -29.5z" />
    <glyph glyph-name="six.lt" 
d="M763 582l-112 -98q-33 50 -90.5 80t-128.5 30q-72 0 -124.5 -27t-82 -71t-31.5 -96q40 38 102 62t142 24q99 0 173 -32t115.5 -86.5t41.5 -123.5q0 -74 -45 -132t-125 -90.5t-186 -32.5q-123 0 -207 46.5t-127 126.5t-43 182q0 113 49 200t139.5 136t214.5 49
q116 0 198.5 -41t126.5 -106zM602 237q0 53 -54 84.5t-138 31.5q-85 0 -139.5 -31.5t-54.5 -84.5t53.5 -84t138.5 -31t139.5 31t54.5 84z" />
    <glyph glyph-name="seven.lt" 
d="M597 578h-425v-138h-142v278h747v-149q-93 -82 -154.5 -169t-92 -185.5t-30.5 -214.5h-170q0 131 36.5 237t97 190t133.5 151z" />
    <glyph glyph-name="eight.lt" 
d="M400 729q68 0 128 -13t105.5 -39t71.5 -64.5t26 -89.5q0 -55 -33 -90.5t-89 -59.5q43 -12 79 -35t58 -56.5t22 -79.5q0 -54 -28 -94t-78 -66.5t-117 -39.5t-145 -13t-145 13t-117 39.5t-78 66.5t-28 94q0 46 22 79.5t58 56.5t78 35q-56 24 -88.5 59.5t-32.5 90.5
q0 51 26 89.5t71.5 64.5t105.5 39t128 13zM400 437q49 0 87 9t59.5 27.5t21.5 47.5t-21.5 47.5t-59.5 27.5t-87 9t-87 -9t-59.5 -27.5t-21.5 -47.5t21.5 -47.5t59.5 -27.5t87 -9zM400 309q-59 0 -104.5 -10t-71 -31t-25.5 -54t25.5 -54.5t71 -32t104.5 -10.5q60 0 105 10.5
t70.5 32t25.5 54.5t-25.5 54t-70.5 31t-105 10z" />
    <glyph glyph-name="nine.lt" 
d="M37 136l112 98q33 -50 90.5 -80t128.5 -30q72 0 124.5 27t82 71t31.5 96q-40 -38 -102 -62t-142 -24q-98 0 -172.5 32t-116 87t-41.5 123q0 75 45 132.5t125.5 90t185.5 32.5q124 0 207.5 -46t126.5 -126.5t43 -182.5q0 -113 -49 -200t-139 -136t-215 -49
q-115 0 -198 41.5t-127 105.5zM198 481q0 -53 54 -84.5t138 -31.5q86 0 140 31.5t54 84.5t-53.5 84t-138.5 31t-139.5 -31t-54.5 -84z" />
    <glyph glyph-name="uni2070" unicode="&#x2070;" horiz-adv-x="509" 
d="M23 520q0 59 29.5 105t82 72.5t120.5 26.5t120 -26.5t82 -72.5t30 -105q0 -60 -30 -106.5t-82 -73t-120 -26.5t-120.5 26.5t-82 73t-29.5 106.5zM147 520q0 -33 14 -57t38.5 -37t55.5 -13t54.5 13t37.5 37t14 57t-14 56.5t-37.5 36t-54.5 12.5t-55.5 -12.5t-38.5 -36
t-14 -56.5z" />
    <glyph glyph-name="onesuperior" unicode="&#xb9;" horiz-adv-x="376" 
d="M15 320v99h124v144h-123v88l52 1q50 2 71.5 18t27.5 48h94v-299h107v-99h-353z" />
    <glyph glyph-name="twosuperior" unicode="&#xb2;" horiz-adv-x="449" 
d="M27 403l165 90q35 19 57.5 32.5t34 27t11.5 29.5q0 20 -16.5 32.5t-48.5 12.5q-42 0 -69.5 -23t-33.5 -59l-110 22q6 41 32.5 77t73.5 58t113 22q53 0 94.5 -15t65.5 -44.5t24 -71.5q0 -31 -13 -55.5t-38.5 -44.5t-65.5 -39l-74 -36h202v-98h-404v83z" />
    <glyph glyph-name="threesuperior" unicode="&#xb3;" horiz-adv-x="474" 
d="M239 314q-58 0 -103.5 13t-78.5 38t-54 60l103 49q11 -20 31 -35t46.5 -23t56.5 -8q32 0 57.5 9t25.5 29q0 12 -10 19t-28 10t-43 3h-74v86h69q39 0 58.5 8t19.5 24t-20 24.5t-56 8.5q-44 0 -75.5 -16.5t-44.5 -40.5l-98 46q26 47 86 76.5t142 29.5q95 0 147.5 -33.5
t52.5 -83.5q0 -29 -19.5 -51.5t-49.5 -32.5q36 -12 56.5 -33t20.5 -55q0 -50 -57.5 -85.5t-160.5 -35.5z" />
    <glyph glyph-name="uni2074" unicode="&#x2074;" horiz-adv-x="474" 
d="M376 320h-117v83h-247v85l209 230h155v-225h86v-90h-86v-83zM142 493h117v131z" />
    <glyph glyph-name="uni2075" unicode="&#x2075;" horiz-adv-x="444" 
d="M132 481l-109 14l30 223h351v-94h-257l-7 -56q17 8 44.5 15t62.5 7q81 0 132 -35t51 -99q0 -43 -27.5 -75t-74.5 -49.5t-106 -17.5q-74 0 -135.5 27.5t-87.5 82.5l109 41q9 -17 25.5 -30t39.5 -20t50 -7q35 0 60.5 12.5t25.5 35.5t-24 35.5t-64 12.5q-28 0 -50.5 -6
t-38.5 -17z" />
    <glyph glyph-name="uni2076" unicode="&#x2076;" horiz-adv-x="490" 
d="M464 654l-69 -68q-24 23 -56.5 34.5t-69.5 11.5q-61 0 -94 -26.5t-33 -55.5q24 17 58 27t76 10q57 0 101 -17t68.5 -46.5t24.5 -67.5q0 -64 -59.5 -103t-160.5 -39q-106 0 -166 55t-60 141q0 64 30.5 112t86 75t129.5 27q70 0 118 -19t76 -51zM346 453q0 23 -27 36.5
t-70 13.5t-70 -13.5t-27 -36.5t27 -36t70 -13t70 13t27 36z" />
    <glyph glyph-name="uni2077" unicode="&#x2077;" horiz-adv-x="453" 
d="M305 622h-190v-73h-103v169h429v-103q-76 -61 -112.5 -133t-36.5 -162h-127q0 70 19.5 126t51.5 100t69 76z" />
    <glyph glyph-name="uni2078" unicode="&#x2078;" horiz-adv-x="477" 
d="M239 724q53 0 99 -13.5t74.5 -39.5t28.5 -66q0 -28 -15.5 -47t-44.5 -33q37 -12 58.5 -34t21.5 -57q0 -40 -29.5 -67t-80 -40t-112.5 -13t-112.5 13t-80.5 40t-30 67q0 35 21.5 57t58.5 34q-29 14 -44.5 33t-15.5 47q0 40 28.5 66t75 39.5t99.5 13.5zM239 568
q35 0 57.5 8.5t22.5 27.5q0 20 -22.5 28.5t-57.5 8.5t-57.5 -8.5t-22.5 -28.5q0 -19 22.5 -27.5t57.5 -8.5zM239 483q-44 0 -72 -10t-28 -31q0 -22 28 -31.5t72 -9.5t71.5 9.5t27.5 31.5q0 21 -27.5 31t-71.5 10z" />
    <glyph glyph-name="uni2079" unicode="&#x2079;" horiz-adv-x="490" 
d="M27 384l70 69q23 -23 55.5 -35t69.5 -12q62 0 94.5 26.5t32.5 55.5q-24 -17 -58 -27t-76 -10q-57 0 -101 17t-68.5 47t-24.5 67q0 65 60 103.5t160 38.5q107 0 166.5 -54.5t59.5 -141.5q0 -63 -30 -111.5t-85.5 -75.5t-130.5 -27q-69 0 -117 19.5t-77 50.5zM145 585
q0 -23 27 -36t70 -13t70.5 13t27.5 36t-27.5 36t-70.5 13t-70 -13t-27 -36z" />
    <glyph glyph-name="zero.dnom" horiz-adv-x="509" 
d="M23 200q0 59 29.5 105t82 72.5t120.5 26.5t120 -26.5t82 -72.5t30 -105q0 -60 -30 -106.5t-82 -73t-120 -26.5t-120.5 26.5t-82 73t-29.5 106.5zM147 200q0 -33 14 -57t38.5 -37t55.5 -13t54.5 13t37.5 37t14 57t-14 56.5t-37.5 36t-54.5 12.5t-55.5 -12.5t-38.5 -36
t-14 -56.5z" />
    <glyph glyph-name="one.dnom" horiz-adv-x="376" 
d="M139 243h-123v88l52 1q50 2 71.5 18t27.5 48h94v-299h107v-99h-353v99h124v144z" />
    <glyph glyph-name="two.dnom" horiz-adv-x="449" 
d="M27 83l165 90q35 19 57.5 32.5t34 27t11.5 29.5q0 20 -16.5 32.5t-48.5 12.5q-42 0 -69.5 -23t-33.5 -59l-110 22q6 41 32.5 77t73.5 58t113 22q53 0 94.5 -15t65.5 -44.5t24 -71.5q0 -31 -13 -55.5t-38.5 -44.5t-65.5 -39l-74 -36h202v-98h-404v83z" />
    <glyph glyph-name="three.dnom" horiz-adv-x="474" 
d="M239 -6q-58 0 -103.5 13t-78.5 38t-54 60l103 49q11 -20 31 -35t46.5 -23t56.5 -8q32 0 57.5 9t25.5 29q0 12 -10 19t-28 10t-43 3h-74v86h69q39 0 58.5 8t19.5 24t-20 24.5t-56 8.5q-44 0 -75.5 -16.5t-44.5 -40.5l-98 46q26 47 86 76.5t142 29.5q95 0 147.5 -33.5
t52.5 -83.5q0 -29 -19.5 -51.5t-49.5 -32.5q36 -12 56.5 -33t20.5 -55q0 -50 -57.5 -85.5t-160.5 -35.5z" />
    <glyph glyph-name="four.dnom" horiz-adv-x="474" 
d="M376 0h-117v83h-247v85l209 230h155v-225h86v-90h-86v-83zM142 173h117v131z" />
    <glyph glyph-name="five.dnom" horiz-adv-x="444" 
d="M132 161l-109 14l30 223h351v-94h-257l-7 -56q17 8 44.5 15t62.5 7q81 0 132 -35t51 -99q0 -43 -27.5 -75t-74.5 -49.5t-106 -17.5q-74 0 -135.5 27.5t-87.5 82.5l109 41q9 -17 25.5 -30t39.5 -20t50 -7q35 0 60.5 12.5t25.5 35.5t-24 35.5t-64 12.5q-28 0 -50.5 -6
t-38.5 -17z" />
    <glyph glyph-name="six.dnom" horiz-adv-x="490" 
d="M464 334l-69 -68q-24 23 -56.5 34.5t-69.5 11.5q-61 0 -94 -26.5t-33 -55.5q24 17 58 27t76 10q57 0 101 -17t68.5 -46.5t24.5 -67.5q0 -64 -59.5 -103t-160.5 -39q-106 0 -166 55t-60 141q0 64 30.5 112t86 75t129.5 27q70 0 118 -19t76 -51zM346 133q0 23 -27 36.5
t-70 13.5t-70 -13.5t-27 -36.5t27 -36t70 -13t70 13t27 36z" />
    <glyph glyph-name="seven.dnom" horiz-adv-x="453" 
d="M305 302h-190v-73h-103v169h429v-103q-76 -61 -112.5 -133t-36.5 -162h-127q0 70 19.5 126t51.5 100t69 76z" />
    <glyph glyph-name="eight.dnom" horiz-adv-x="477" 
d="M239 404q53 0 99 -13.5t74.5 -39.5t28.5 -66q0 -28 -15.5 -47t-44.5 -33q37 -12 58.5 -34t21.5 -57q0 -40 -29.5 -67t-80 -40t-112.5 -13t-112.5 13t-80.5 40t-30 67q0 35 21.5 57t58.5 34q-29 14 -44.5 33t-15.5 47q0 40 28.5 66t75 39.5t99.5 13.5zM239 248
q35 0 57.5 8.5t22.5 27.5q0 20 -22.5 28.5t-57.5 8.5t-57.5 -8.5t-22.5 -28.5q0 -19 22.5 -27.5t57.5 -8.5zM239 163q-44 0 -72 -10t-28 -31q0 -22 28 -31.5t72 -9.5t71.5 9.5t27.5 31.5q0 21 -27.5 31t-71.5 10z" />
    <glyph glyph-name="nine.dnom" horiz-adv-x="490" 
d="M26 64l70 69q23 -23 55.5 -35t69.5 -12q62 0 94.5 26.5t32.5 55.5q-24 -17 -58 -27t-76 -10q-57 0 -101 17t-68.5 47t-24.5 67q0 65 60 103.5t160 38.5q107 0 166.5 -54.5t59.5 -141.5q0 -63 -30 -111.5t-85.5 -75.5t-130.5 -27q-69 0 -117 19.5t-77 50.5zM144 265
q0 -23 27 -36t70 -13t70.5 13t27.5 36t-27.5 36t-70.5 13t-70 -13t-27 -36z" />
    <glyph glyph-name="uni2080" unicode="&#x2080;" horiz-adv-x="509" 
d="M23 80q0 59 29.5 105t82 72.5t120.5 26.5t120 -26.5t82 -72.5t30 -105q0 -60 -30 -106.5t-82 -73t-120 -26.5t-120.5 26.5t-82 73t-29.5 106.5zM147 80q0 -33 14 -57t38.5 -37t55.5 -13t54.5 13t37.5 37t14 57t-14 56.5t-37.5 36t-54.5 12.5t-55.5 -12.5t-38.5 -36
t-14 -56.5z" />
    <glyph glyph-name="uni2081" unicode="&#x2081;" horiz-adv-x="376" 
d="M139 123h-123v88l52 1q50 2 71.5 18t27.5 48h94v-299h107v-99h-353v99h124v144z" />
    <glyph glyph-name="uni2082" unicode="&#x2082;" horiz-adv-x="449" 
d="M27 -37l165 90q35 19 57.5 32.5t34 27t11.5 29.5q0 20 -16.5 32.5t-48.5 12.5q-42 0 -69.5 -23t-33.5 -59l-110 22q6 41 32.5 77t73.5 58t113 22q53 0 94.5 -15t65.5 -44.5t24 -71.5q0 -31 -13 -55.5t-38.5 -44.5t-65.5 -39l-74 -36h202v-98h-404v83z" />
    <glyph glyph-name="uni2083" unicode="&#x2083;" horiz-adv-x="474" 
d="M239 -126q-58 0 -103.5 13t-78.5 38t-54 60l103 49q11 -20 31 -35t46.5 -23t56.5 -8q32 0 57.5 9t25.5 29q0 12 -10 19t-28 10t-43 3h-74v86h69q39 0 58.5 8t19.5 24t-20 24.5t-56 8.5q-44 0 -75.5 -16.5t-44.5 -40.5l-98 46q26 47 86 76.5t142 29.5q95 0 147.5 -33.5
t52.5 -83.5q0 -29 -19.5 -51.5t-49.5 -32.5q36 -12 56.5 -33t20.5 -55q0 -50 -57.5 -85.5t-160.5 -35.5z" />
    <glyph glyph-name="uni2084" unicode="&#x2084;" horiz-adv-x="474" 
d="M376 -120h-117v83h-247v85l209 230h155v-225h86v-90h-86v-83zM142 53h117v131z" />
    <glyph glyph-name="uni2085" unicode="&#x2085;" horiz-adv-x="444" 
d="M132 41l-109 14l30 223h351v-94h-257l-7 -56q17 8 44.5 15t62.5 7q81 0 132 -35t51 -99q0 -43 -27.5 -75t-74.5 -49.5t-106 -17.5q-74 0 -135.5 27.5t-87.5 82.5l109 41q9 -17 25.5 -30t39.5 -20t50 -7q35 0 60.5 12.5t25.5 35.5t-24 35.5t-64 12.5q-28 0 -50.5 -6
t-38.5 -17z" />
    <glyph glyph-name="uni2086" unicode="&#x2086;" horiz-adv-x="490" 
d="M464 214l-69 -68q-24 23 -56.5 34.5t-69.5 11.5q-61 0 -94 -26.5t-33 -55.5q24 17 58 27t76 10q57 0 101 -17t68.5 -46.5t24.5 -67.5q0 -64 -59.5 -103t-160.5 -39q-106 0 -166 55t-60 141q0 64 30.5 112t86 75t129.5 27q70 0 118 -19t76 -51zM346 13q0 23 -27 36.5
t-70 13.5t-70 -13.5t-27 -36.5t27 -36t70 -13t70 13t27 36z" />
    <glyph glyph-name="uni2087" unicode="&#x2087;" horiz-adv-x="453" 
d="M305 182h-190v-73h-103v169h429v-103q-76 -61 -112.5 -133t-36.5 -162h-127q0 70 19.5 126t51.5 100t69 76z" />
    <glyph glyph-name="uni2088" unicode="&#x2088;" horiz-adv-x="477" 
d="M239 284q53 0 99 -13.5t74.5 -39.5t28.5 -66q0 -28 -15.5 -47t-44.5 -33q37 -12 58.5 -34t21.5 -57q0 -40 -29.5 -67t-80 -40t-112.5 -13t-112.5 13t-80.5 40t-30 67q0 35 21.5 57t58.5 34q-29 14 -44.5 33t-15.5 47q0 40 28.5 66t75 39.5t99.5 13.5zM239 128
q35 0 57.5 8.5t22.5 27.5q0 20 -22.5 28.5t-57.5 8.5t-57.5 -8.5t-22.5 -28.5q0 -19 22.5 -27.5t57.5 -8.5zM239 43q-44 0 -72 -10t-28 -31q0 -22 28 -31.5t72 -9.5t71.5 9.5t27.5 31.5q0 21 -27.5 31t-71.5 10z" />
    <glyph glyph-name="uni2089" unicode="&#x2089;" horiz-adv-x="490" 
d="M26 -56l70 69q23 -23 55.5 -35t69.5 -12q62 0 94.5 26.5t32.5 55.5q-24 -17 -58 -27t-76 -10q-57 0 -101 17t-68.5 47t-24.5 67q0 65 60 103.5t160 38.5q107 0 166.5 -54.5t59.5 -141.5q0 -63 -30 -111.5t-85.5 -75.5t-130.5 -27q-69 0 -117 19.5t-77 50.5zM144 145
q0 -23 27 -36t70 -13t70.5 13t27.5 36t-27.5 36t-70.5 13t-70 -13t-27 -36z" />
    <glyph glyph-name="fraction" unicode="&#x2044;" horiz-adv-x="161" 
d="M296 718h135l-566 -718h-135z" />
    <glyph glyph-name="onehalf" unicode="&#xbd;" horiz-adv-x="1047" 
d="M15 320v99h124v144h-123v88l52 1q50 2 71.5 18t27.5 48h94v-299h107v-99h-353zM733 718h135l-566 -718h-135zM625 83l165 90q35 19 57.5 32.5t34 27t11.5 29.5q0 20 -16.5 32.5t-48.5 12.5q-42 0 -69.5 -23t-33.5 -59l-110 22q6 41 32.5 77t73.5 58t113 22q53 0 94.5 -15
t65.5 -44.5t24 -71.5q0 -31 -13 -55.5t-38.5 -44.5t-65.5 -39l-74 -36h202v-98h-404v83z" />
    <glyph glyph-name="onequarter" unicode="&#xbc;" horiz-adv-x="1024" 
d="M15 320v99h124v144h-123v88l52 1q50 2 71.5 18t27.5 48h94v-299h107v-99h-353zM733 718h135l-566 -718h-135zM918 0h-117v83h-247v85l209 230h155v-225h86v-90h-86v-83zM684 173h117v131z" />
    <glyph glyph-name="threequarters" unicode="&#xbe;" horiz-adv-x="1061" 
d="M239 314q-58 0 -103.5 13t-78.5 38t-54 60l103 49q11 -20 31 -35t46.5 -23t56.5 -8q32 0 57.5 9t25.5 29q0 12 -10 19t-28 10t-43 3h-74v86h69q39 0 58.5 8t19.5 24t-20 24.5t-56 8.5q-44 0 -75.5 -16.5t-44.5 -40.5l-98 46q26 47 86 76.5t142 29.5q95 0 147.5 -33.5
t52.5 -83.5q0 -29 -19.5 -51.5t-49.5 -32.5q36 -12 56.5 -33t20.5 -55q0 -50 -57.5 -85.5t-160.5 -35.5zM770 718h135l-566 -718h-135zM955 0h-117v83h-247v85l209 230h155v-225h86v-90h-86v-83zM721 173h117v131z" />
    <glyph glyph-name="uni2153" unicode="&#x2153;" horiz-adv-x="1072" 
d="M15 320v99h124v144h-123v88l52 1q50 2 71.5 18t27.5 48h94v-299h107v-99h-353zM733 718h135l-566 -718h-135zM837 -6q-58 0 -103.5 13t-78.5 38t-54 60l103 49q11 -20 31 -35t46.5 -23t56.5 -8q32 0 57.5 9t25.5 29q0 12 -10 19t-28 10t-43 3h-74v86h69q39 0 58.5 8
t19.5 24t-20 24.5t-56 8.5q-44 0 -75.5 -16.5t-44.5 -40.5l-98 46q26 47 86 76.5t142 29.5q95 0 147.5 -33.5t52.5 -83.5q0 -29 -19.5 -51.5t-49.5 -32.5q36 -12 56.5 -33t20.5 -55q0 -50 -57.5 -85.5t-160.5 -35.5z" />
    <glyph glyph-name="uni2154" unicode="&#x2154;" horiz-adv-x="1132" 
d="M23 403l165 90q35 19 57.5 32.5t34 27t11.5 29.5q0 20 -16.5 32.5t-48.5 12.5q-42 0 -69.5 -23t-33.5 -59l-110 22q6 41 32.5 77t73.5 58t113 22q53 0 94.5 -15t65.5 -44.5t24 -71.5q0 -31 -13 -55.5t-38.5 -44.5t-65.5 -39l-74 -36h202v-98h-404v83zM793 718h135
l-566 -718h-135zM897 -6q-58 0 -103.5 13t-78.5 38t-54 60l103 49q11 -20 31 -35t46.5 -23t56.5 -8q32 0 57.5 9t25.5 29q0 12 -10 19t-28 10t-43 3h-74v86h69q39 0 58.5 8t19.5 24t-20 24.5t-56 8.5q-44 0 -75.5 -16.5t-44.5 -40.5l-98 46q26 47 86 76.5t142 29.5
q95 0 147.5 -33.5t52.5 -83.5q0 -29 -19.5 -51.5t-49.5 -32.5q36 -12 56.5 -33t20.5 -55q0 -50 -57.5 -85.5t-160.5 -35.5z" />
    <glyph glyph-name="uni215B" unicode="&#x215b;" horiz-adv-x="1075" 
d="M15 320v99h124v144h-123v88l52 1q50 2 71.5 18t27.5 48h94v-299h107v-99h-353zM733 718h135l-566 -718h-135zM837 404q53 0 99 -13.5t74.5 -39.5t28.5 -66q0 -28 -15.5 -47t-44.5 -33q37 -12 58.5 -34t21.5 -57q0 -40 -29.5 -67t-80 -40t-112.5 -13t-112.5 13t-80.5 40
t-30 67q0 35 21.5 57t58.5 34q-29 14 -44.5 33t-15.5 47q0 40 28.5 66t75 39.5t99.5 13.5zM837 248q35 0 57.5 8.5t22.5 27.5q0 20 -22.5 28.5t-57.5 8.5t-57.5 -8.5t-22.5 -28.5q0 -19 22.5 -27.5t57.5 -8.5zM837 163q-44 0 -72 -10t-28 -31q0 -22 28 -31.5t72 -9.5
t71.5 9.5t27.5 31.5q0 21 -27.5 31t-71.5 10z" />
    <glyph glyph-name="uni215C" unicode="&#x215c;" horiz-adv-x="1112" 
d="M239 314q-58 0 -103.5 13t-78.5 38t-54 60l103 49q11 -20 31 -35t46.5 -23t56.5 -8q32 0 57.5 9t25.5 29q0 12 -10 19t-28 10t-43 3h-74v86h69q39 0 58.5 8t19.5 24t-20 24.5t-56 8.5q-44 0 -75.5 -16.5t-44.5 -40.5l-98 46q26 47 86 76.5t142 29.5q95 0 147.5 -33.5
t52.5 -83.5q0 -29 -19.5 -51.5t-49.5 -32.5q36 -12 56.5 -33t20.5 -55q0 -50 -57.5 -85.5t-160.5 -35.5zM770 718h135l-566 -718h-135zM874 404q53 0 99 -13.5t74.5 -39.5t28.5 -66q0 -28 -15.5 -47t-44.5 -33q37 -12 58.5 -34t21.5 -57q0 -40 -29.5 -67t-80 -40t-112.5 -13
t-112.5 13t-80.5 40t-30 67q0 35 21.5 57t58.5 34q-29 14 -44.5 33t-15.5 47q0 40 28.5 66t75 39.5t99.5 13.5zM874 248q35 0 57.5 8.5t22.5 27.5q0 20 -22.5 28.5t-57.5 8.5t-57.5 -8.5t-22.5 -28.5q0 -19 22.5 -27.5t57.5 -8.5zM874 163q-44 0 -72 -10t-28 -31
q0 -22 28 -31.5t72 -9.5t71.5 9.5t27.5 31.5q0 21 -27.5 31t-71.5 10z" />
    <glyph glyph-name="uni215D" unicode="&#x215d;" horiz-adv-x="1082" 
d="M132 481l-109 14l30 223h351v-94h-257l-7 -56q17 8 44.5 15t62.5 7q81 0 132 -35t51 -99q0 -43 -27.5 -75t-74.5 -49.5t-106 -17.5q-74 0 -135.5 27.5t-87.5 82.5l109 41q9 -17 25.5 -30t39.5 -20t50 -7q35 0 60.5 12.5t25.5 35.5t-24 35.5t-64 12.5q-28 0 -50.5 -6
t-38.5 -17zM740 718h135l-566 -718h-135zM844 404q53 0 99 -13.5t74.5 -39.5t28.5 -66q0 -28 -15.5 -47t-44.5 -33q37 -12 58.5 -34t21.5 -57q0 -40 -29.5 -67t-80 -40t-112.5 -13t-112.5 13t-80.5 40t-30 67q0 35 21.5 57t58.5 34q-29 14 -44.5 33t-15.5 47q0 40 28.5 66
t75 39.5t99.5 13.5zM844 248q35 0 57.5 8.5t22.5 27.5q0 20 -22.5 28.5t-57.5 8.5t-57.5 -8.5t-22.5 -28.5q0 -19 22.5 -27.5t57.5 -8.5zM844 163q-44 0 -72 -10t-28 -31q0 -22 28 -31.5t72 -9.5t71.5 9.5t27.5 31.5q0 21 -27.5 31t-71.5 10z" />
    <glyph glyph-name="uni215E" unicode="&#x215e;" horiz-adv-x="1053" 
d="M305 622h-190v-73h-103v169h429v-103q-76 -61 -112.5 -133t-36.5 -162h-127q0 70 19.5 126t51.5 100t69 76zM712 718h135l-566 -718h-135zM815 404q53 0 99 -13.5t74.5 -39.5t28.5 -66q0 -28 -15.5 -47t-44.5 -33q37 -12 58.5 -34t21.5 -57q0 -40 -29.5 -67t-80 -40
t-112.5 -13t-112.5 13t-80.5 40t-30 67q0 35 21.5 57t58.5 34q-29 14 -44.5 33t-15.5 47q0 40 28.5 66t75 39.5t99.5 13.5zM815 248q35 0 57.5 8.5t22.5 27.5q0 20 -22.5 28.5t-57.5 8.5t-57.5 -8.5t-22.5 -28.5q0 -19 22.5 -27.5t57.5 -8.5zM815 163q-44 0 -72 -10t-28 -31
q0 -22 28 -31.5t72 -9.5t71.5 9.5t27.5 31.5q0 21 -27.5 31t-71.5 10z" />
    <glyph glyph-name="percent" unicode="%" horiz-adv-x="978" 
d="M23 538q0 55 27.5 98t75 68t107.5 25q61 0 108 -25t74.5 -68t27.5 -98q0 -54 -27.5 -97t-74.5 -68t-108 -25q-60 0 -107.5 25t-75 68t-27.5 97zM842 718l-568 -718h-138l568 718h138zM146 538q0 -41 24.5 -64.5t62.5 -23.5t63 23.5t25 64.5t-25 64.5t-63 23.5
t-62.5 -23.5t-24.5 -64.5zM955 180q0 -55 -27.5 -98t-75 -68t-108.5 -25q-60 0 -107.5 25t-75 68t-27.5 98t27.5 97.5t75 67.5t107.5 25q61 0 108.5 -25t75 -67.5t27.5 -97.5zM657 180q0 -41 24.5 -64.5t62.5 -23.5q39 0 63.5 23.5t24.5 64.5t-24.5 64.5t-63.5 23.5
q-38 0 -62.5 -23.5t-24.5 -64.5z" />
    <glyph glyph-name="percent.lt" 
d="M15 553q0 52 23.5 91.5t64.5 62t92 22.5t91.5 -22.5t64 -62t23.5 -91.5t-23.5 -91.5t-64 -62t-91.5 -22.5t-92 22.5t-64.5 62t-23.5 91.5zM80 0l510 718h130l-511 -718h-129zM264 553q0 38 -19 59t-50 21t-51 -21t-20 -59q0 -37 20 -59t51 -22q30 0 49.5 22t19.5 59z
M781 165q0 -52 -23.5 -91.5t-64 -62t-91.5 -22.5t-92 22.5t-64.5 62t-23.5 91.5t23.5 91.5t64.5 62t92 22.5t91.5 -22.5t64 -62t23.5 -91.5zM531 165q0 -37 20 -58.5t51 -21.5q30 0 49.5 21.5t19.5 58.5q0 38 -19 59.5t-50 21.5t-51 -21.5t-20 -59.5z" />
    <glyph glyph-name="plus" unicode="+" 
d="M742 288h-275v-274h-134v274h-275v135h275v275h134v-275h275v-135z" />
    <glyph glyph-name="minus" unicode="&#x2212;" 
d="M58 288v135h684v-135h-684z" />
    <glyph glyph-name="multiply" unicode="&#xd7;" 
d="M308 355l-232 232l93 93l232 -231l230 229l92 -93l-229 -229l232 -233l-93 -93l-232 233l-232 -233l-93 93z" />
    <glyph glyph-name="divide" unicode="&#xf7;" 
d="M317 511v157h164v-157h-164zM58 288v135h684v-135h-684zM317 43v158h164v-158h-164z" />
    <glyph glyph-name="equal" unicode="=" 
d="M58 419v135h684v-135h-684zM58 149v135h684v-135h-684z" />
    <glyph glyph-name="less" unicode="&#x3c;" 
d="M56 250v212l688 234v-163l-555 -177l555 -177v-164z" />
    <glyph glyph-name="greater" unicode="&#x3e;" 
d="M744 250l-688 -235v164l555 177l-555 177v163l688 -234v-212z" />
    <glyph glyph-name="period.tab" horiz-adv-x="400" 
d="M108 0v179h184v-179h-184z" />
    <glyph glyph-name="comma.tab" horiz-adv-x="400" 
d="M108 0v179h184v-166q0 -79 -50 -121.5t-134 -43.5v82q37 2 55.5 17.5t18.5 46.5v6h-74z" />
    <glyph glyph-name="colon.tab" horiz-adv-x="400" 
d="M108 0v179h184v-179h-184zM108 329v179h184v-179h-184z" />
    <glyph glyph-name="semicolon.tab" horiz-adv-x="400" 
d="M108 0v179h184v-166q0 -79 -50 -121.5t-134 -43.5v82q37 2 55.5 17.5t18.5 46.5v6h-74zM108 329v179h184v-179h-184z" />
    <glyph glyph-name="space.tab" horiz-adv-x="400" 
 />
    <glyph glyph-name="thinspace" unicode="&#x2009;" horiz-adv-x="100" 
 />
    <glyph glyph-name="colon.mid" horiz-adv-x="401" 
d="M108 106v179h184v-179h-184zM108 435v179h184v-179h-184z" />
    <glyph glyph-name="cedillacmb" unicode="&#x327;" horiz-adv-x="0" 
d="M143 -99q0 -27 -20 -47t-53 -30.5t-73 -10.5q-42 0 -79.5 9.5t-60.5 26.5l45 67q19 -14 41 -20t45 -6q25 0 36.5 6t11.5 16q0 15 -26.5 20t-68.5 6l22 74h71l-9 -32q52 -2 85 -22.5t33 -56.5z" />
    <glyph glyph-name="commaturncmb" unicode="&#x312;" horiz-adv-x="0" 
d="M80 660v-90h-160v51q0 68 44.5 99t115.5 31v-59q-31 0 -42.5 -9t-14.5 -23h57z" />
    <glyph glyph-name="hungarumlautcmb" unicode="&#x30b;" horiz-adv-x="0" 
d="M-20 570l91 148h171l-141 -148h-121zM-242 570l92 148h171l-141 -148h-122z" />
    <glyph glyph-name="dotaccentcmb" unicode="&#x307;" horiz-adv-x="0" 
d="M-81 581v137h162v-137h-162z" />
    <glyph glyph-name="gravecmb" unicode="&#x300;" horiz-adv-x="0" 
d="M150 570h-133l-167 148h201z" />
    <glyph glyph-name="caroncmb" unicode="&#x30c;" horiz-adv-x="0" 
d="M78 570h-156l-131 148h121l88 -54l88 54h121z" />
    <glyph glyph-name="ogonekcmb" unicode="&#x328;" horiz-adv-x="0" 
d="M-107 -93q0 47 42.5 82.5t131.5 57.5l41 -47q-64 -18 -87.5 -32t-23.5 -30q0 -13 16 -21t43 -8q11 0 23.5 1.5t28.5 4.5v-89q-22 -4 -42 -6.5t-37 -2.5q-36 0 -67 10t-50 30t-19 50z" />
    <glyph glyph-name="circumflexcmb" unicode="&#x302;" horiz-adv-x="0" 
d="M78 718l131 -148h-121l-88 54l-88 -54h-121l131 148h156z" />
    <glyph glyph-name="macroncmb" unicode="&#x304;" horiz-adv-x="0" 
d="M185 583h-370v119h370v-119z" />
    <glyph glyph-name="acutecmb" unicode="&#x301;" horiz-adv-x="0" 
d="M-150 570l99 148h201l-167 -148h-133z" />
    <glyph glyph-name="commaaboverightcmb" horiz-adv-x="0" 
d="M-97 550l23 168h171l-86 -168h-108z" />
    <glyph glyph-name="brevecmb" unicode="&#x306;" horiz-adv-x="0" 
d="M0 668q39 0 59.5 12.5t24.5 37.5h108q0 -46 -21.5 -80t-63.5 -52t-107 -18q-64 0 -106.5 18.5t-63.5 52t-22 79.5h108q4 -25 24.5 -37.5t59.5 -12.5z" />
    <glyph glyph-name="commaaccentcmb" unicode="&#x326;" horiz-adv-x="0" 
d="M-80 -123v90h160v-51q0 -68 -44.5 -99t-115.5 -31v59q32 0 43 9.5t14 22.5h-57z" />
    <glyph glyph-name="dieresiscmb" unicode="&#x308;" horiz-adv-x="0" 
d="M-203 581v137h160v-137h-160zM43 581v137h160v-137h-160z" />
    <glyph glyph-name="tildecmb" unicode="&#x303;" horiz-adv-x="0" 
d="M-84 727q28 0 49 -7t38 -16.5t32 -17t32 -7.5q16 0 24.5 12t12.5 36h96q-2 -70 -32 -113.5t-83 -43.5q-28 0 -49 7t-38 16.5t-32 16.5t-32 7q-16 0 -24 -11.5t-13 -35.5h-96q2 70 32.5 113.5t82.5 43.5z" />
    <glyph glyph-name="ringcmb" unicode="&#x30a;" horiz-adv-x="0" 
d="M-116 671q0 45 32 77.5t84 32.5q53 0 84.5 -32.5t31.5 -77.5t-31.5 -78t-84.5 -33q-52 0 -84 33t-32 78zM-41 671q0 -17 11.5 -29.5t29.5 -12.5t29.5 12.5t11.5 29.5t-11.5 29.5t-29.5 12.5t-29.5 -12.5t-11.5 -29.5z" />
    <glyph glyph-name="Germandbls" unicode="&#x1e9e;" horiz-adv-x="910" 
d="M597 -11q-96 0 -176 35t-128 104l91 113q42 -55 95.5 -85t117.5 -30q62 0 101 28.5t39 74.5q0 96 -165 96h-172v108l185 146h-361v-579h-167v718h743v-131l-183 -144q100 -3 163 -31t92.5 -74.5t29.5 -106.5q0 -72 -38.5 -126.5t-107 -85t-159.5 -30.5z" />
    <glyph glyph-name="arrowNE" unicode="&#x2197;" horiz-adv-x="790" 
d="M601 222v265l-498 -498l-98 99l497 497h-265v133h496v-496h-132z" />
    <glyph glyph-name="arrowNW" unicode="&#x2196;" horiz-adv-x="790" 
d="M785 88l-98 -99l-498 498v-265h-132v496h496v-133h-265z" />
    <glyph glyph-name="arrowSE" unicode="&#x2198;" horiz-adv-x="790" 
d="M733 496v-496h-496v133h265l-497 497l98 99l498 -498v265h132z" />
    <glyph glyph-name="arrowSW" unicode="&#x2199;" horiz-adv-x="790" 
d="M553 133v-133h-496v496h132v-265l498 498l98 -99l-497 -497h265z" />
    <glyph glyph-name="arrowdown" unicode="&#x2193;" horiz-adv-x="748" 
d="M743 322l-369 -333l-369 333l94 99l204 -188v485h142v-485l204 188z" />
    <glyph glyph-name="arrowleft" unicode="&#x2190;" 
d="M415 105l-100 -94l-310 351l310 351l100 -94l-167 -188h547v-138h-547z" />
    <glyph glyph-name="arrowleftright" unicode="&#x2194;" horiz-adv-x="1006" 
d="M1001 362l-306 -351l-100 94l164 188h-512l164 -188l-100 -94l-306 351l306 351l100 -94l-164 -188h512l-164 188l100 94z" />
    <glyph glyph-name="arrowright" unicode="&#x2192;" 
d="M795 362l-310 -351l-100 94l167 188h-547v138h547l-167 188l100 94z" />
    <glyph glyph-name="arrowup" unicode="&#x2191;" horiz-adv-x="748" 
d="M649 297l-204 188v-485h-142v485l-204 -188l-94 99l369 333l369 -333z" />
    <glyph glyph-name="arrowupdown" unicode="&#x2195;" horiz-adv-x="751" 
d="M746 113l-370 -300l-371 300l87 105l214 -174v472l-210 -176l-87 105l367 304l366 -304l-87 -105l-210 177v-474l214 175z" />
    <glyph glyph-name="baht" unicode="&#xe3f;" horiz-adv-x="818" 
d="M57 0v718h295v100h136v-100h50q118 0 182 -49t64 -143q0 -42 -15.5 -72.5t-39 -50.5t-47.5 -30q52 -19 87.5 -62.5t35.5 -108.5q0 -95 -66.5 -148.5t-182.5 -53.5h-68v-102h-136v102h-295zM206 428h146v157h-146v-157zM532 585h-44v-157h44q50 0 77.5 20t27.5 58
q0 40 -27.5 59.5t-77.5 19.5zM206 302v-168h146v168h-146zM552 302h-64v-168h64q49 0 76 23.5t27 61.5q0 37 -27 60t-76 23z" />
    <glyph glyph-name="baht.lt" 
d="M52 0v718h281v100h130v-100h43q119 0 182.5 -49t63.5 -143q0 -42 -15.5 -72.5t-39 -50.5t-47.5 -30q52 -19 88 -62.5t36 -108.5q0 -95 -67 -148.5t-183 -53.5h-61v-102h-130v102h-281zM196 428h137v157h-137v-157zM504 585h-41v-157h41q50 0 78 20t28 58q0 40 -28 59.5
t-78 19.5zM196 302v-168h137v168h-137zM524 302h-61v-168h61q49 0 76.5 23.5t27.5 61.5q0 37 -27.5 60t-76.5 23z" />
    <glyph glyph-name="dong" unicode="&#x20ab;" horiz-adv-x="709" 
d="M462 130q-22 -25 -66 -41t-101 -16q-80 0 -137.5 29.5t-87.5 79t-30 110.5q0 62 30.5 112t88 79.5t136.5 29.5q57 0 101 -16t66 -41v93h-153v115h153v54h143v-54h93v-115h-93v-467h-143v48zM463 296q0 30 -19 53.5t-51 37t-71 13.5q-36 0 -67 -12t-50 -36t-19 -60
q0 -34 19 -58t50 -36.5t67 -12.5q39 0 71 14t51 37.5t19 53.5v6zM52 -115v115h552v-115h-552z" />
    <glyph glyph-name="dong.lt" 
d="M502 130q-22 -25 -66 -41t-101 -16q-81 0 -138 29.5t-87 79t-30 110.5q0 62 30.5 112t88 79.5t136.5 29.5q57 0 101 -16t66 -41v93h-153v115h153v54h143v-54h93v-115h-93v-467h-143v48zM503 296q0 30 -19 53.5t-51 37t-71 13.5q-37 0 -68 -12t-50 -36t-19 -60
q0 -34 19 -58t50 -36.5t68 -12.5q39 0 71 14t51 37.5t19 53.5v6zM92 -115v115h552v-115h-552z" />
    <glyph glyph-name="franc" unicode="&#x20a3;" horiz-adv-x="860" 
d="M12 127v128h138v463h689v-138h-525v-135h468v-139h-468v-51h196v-128h-196v-127h-164v127h-138z" />
    <glyph glyph-name="franc.lt" 
d="M28 127v128h92v463h636v-138h-472v-135h415v-139h-415v-51h170v-128h-170v-127h-164v127h-92z" />
    <glyph glyph-name="naira" unicode="&#x20a6;" horiz-adv-x="1062" 
d="M18 229v104h138v52h-138v104h138v229h169l419 -478v478h162v-229h138v-104h-138v-52h138v-104h-138v-229h-147l-441 503v-503h-162v229h-138z" />
    <glyph glyph-name="naira.lt" 
d="M15 229v104h84v52h-84v104h84v229h168l272 -440v440h162v-229h84v-104h-84v-52h84v-104h-84v-229h-147l-293 472v-472h-162v229h-84z" />
    <glyph glyph-name="peseta" unicode="&#x20a7;" horiz-adv-x="1044" 
d="M322 171v-171h-166v389h-138v112h138v217h419q127 0 209 -54.5t100 -162.5h142v-112h-142q-17 -107 -99.5 -162.5t-209.5 -55.5h-253zM322 580v-79h393q-33 79 -149 79h-244zM322 309h244q59 0 96.5 21t52.5 59h-393v-80z" />
    <glyph glyph-name="peseta.lt" 
d="M259 171v-171h-166v389h-85v112h85v217h323q123 0 202 -54.5t96 -162.5h76v-112h-76q-16 -107 -95.5 -162.5t-202.5 -55.5h-157zM259 582v-81h287q-14 39 -49 60t-90 21h-148zM259 307h148q55 0 90.5 21.5t48.5 60.5h-287v-82z" />
    <glyph glyph-name="peso" unicode="&#x20b1;" horiz-adv-x="1044" 
d="M18 314v104h138v51h-138v104h138v145h430q102 0 174 -36.5t104 -108.5h162v-104h-138v-17q0 -9 -0.5 -17.5t-1.5 -16.5h140v-104h-171q-35 -63 -104.5 -95t-164.5 -32h-264v-187h-166v314h-138zM322 325h255q72 0 110 34t38 93q0 61 -38 94.5t-110 33.5h-255v-255z" />
    <glyph glyph-name="peso.lt" 
d="M10 314v104h80v51h-80v104h80v145h317q102 0 174 -36.5t104 -108.5h104v-104h-80v-17q0 -9 -0.5 -17.5t-1.5 -16.5h82v-104h-113q-35 -63 -104.5 -95t-164.5 -32h-151v-187h-166v314h-80zM256 325h142q72 0 110 34t38 93q0 61 -38 94.5t-110 33.5h-142v-255z" />
    <glyph glyph-name="uni20B9" unicode="&#x20b9;" horiz-adv-x="824" 
d="M20 233v127h355q42 0 71.5 13.5t45.5 37.5h-472v128h472q-33 52 -117 52h-355v127h784v-127h-179q19 -22 30 -52h149v-128h-145q-13 -60 -53 -100t-100 -60l186 -251h-192l-170 233h-310z" />
    <glyph glyph-name="uni20B9.lt" 
d="M28 233v127h309q42 0 71.5 13.5t45.5 37.5h-426v128h426q-33 52 -117 52h-309v127h736v-127h-177q19 -22 30 -52h147v-128h-143q-13 -60 -53 -100t-100 -60l185 -251h-191l-170 233h-264z" />
    <glyph glyph-name="uni20BA" unicode="&#x20ba;" horiz-adv-x="807" 
d="M18 76v120l126 68v52l-124 -67v119l124 67v283h167v-192l196 107v-119l-196 -107v-53l196 106v-119l-196 -106v-92h100q73 0 120.5 24t71 73.5t23.5 126.5h167q-1 -120 -44.5 -202t-126.5 -123.5t-205 -41.5h-273v144z" />
    <glyph glyph-name="uni20BA.lt" 
d="M29 71v125l115 64v54l-114 -64v125l114 64v279h167v-185l191 107v-125l-191 -107v-55l191 107v-124l-191 -107v-86h103q66 0 109.5 24t65.5 73.5t23 126.5h167q-1 -120 -43 -202t-121.5 -123.5t-194.5 -41.5h-276v135z" />
    <glyph glyph-name="uni20BD" unicode="&#x20bd;" horiz-adv-x="906" 
d="M18 102v132h140v51h-138l1 133h137v300h473q78 0 136 -24.5t90.5 -72.5t32.5 -119q0 -70 -32.5 -118.5t-90.5 -73.5t-136 -25h-306v-51h268v-132h-268v-102h-167v102h-140zM622 585h-297v-167h297q49 0 76.5 22t27.5 62t-27.5 61.5t-76.5 21.5z" />
    <glyph glyph-name="uni20BD.lt" 
d="M18 102v132h87v51h-85l1 133h84v300h421q78 0 136.5 -24.5t91 -72.5t32.5 -119q0 -70 -32.5 -118.5t-91 -73.5t-136.5 -25h-255v-51h206v-132h-206v-102h-166v102h-87zM517 585h-246v-167h246q50 0 77.5 22t27.5 62t-27.5 61.5t-77.5 21.5z" />
    <glyph glyph-name="won" unicode="&#x20a9;" horiz-adv-x="1110" 
d="M18 229v104h130l-13 52h-117v104h89l-61 229h167l123 -509l147 509h148l147 -509l124 509h162l-61 -229h89v-104h-117l-13 -52h130v-104h-158l-61 -229h-177l-140 493l-141 -493h-178l-61 229h-158z" />
    <glyph glyph-name="won.lt" 
d="M13 229v104h94l-10 52h-84v104h63l-47 229h158l80 -428l78 341h113l80 -353l82 440h151l-47 -229h63v-104h-84l-10 -52h94v-104h-115l-47 -229h-132l-93 410l-93 -410h-132l-47 229h-115z" />
    <glyph glyph-name="zero.slash" horiz-adv-x="867" 
d="M434 729q89 0 164.5 -27.5t131 -77.5t86.5 -117.5t31 -147.5t-31 -147.5t-86.5 -117.5t-131 -77.5t-164.5 -27.5q-90 0 -165.5 27.5t-131 77.5t-86 117.5t-30.5 147.5t30.5 147.5t86 117.5t131 77.5t165.5 27.5zM435 591q-73 0 -130 -29t-89.5 -81.5t-32.5 -122.5
q0 -26 4.5 -50t12.5 -44l383 289q-30 19 -67 28.5t-81 9.5zM684 360q0 26 -4.5 50t-12.5 45l-384 -290q30 -19 68 -28.5t81 -9.5q74 0 130.5 29t89 81.5t32.5 122.5z" />
    <glyph glyph-name="zero.slash.lt" 
d="M400 729q80 0 147 -27.5t116.5 -77.5t77 -117.5t27.5 -147.5t-27.5 -147.5t-77 -117.5t-116.5 -77.5t-147 -27.5q-79 0 -146.5 27.5t-117 77.5t-77 117.5t-27.5 147.5t27.5 147.5t77 117.5t117 77.5t146.5 27.5zM400 595q-61 0 -108.5 -29t-74.5 -82t-27 -125
q0 -25 3.5 -48t9.5 -43l322 286q-25 20 -56.5 30.5t-68.5 10.5zM609 359q0 25 -3.5 47.5t-9.5 42.5l-322 -285q26 -20 58 -30.5t68 -10.5q62 0 109 29t73.5 82.5t26.5 124.5z" />
    <glyph glyph-name="uni2011" unicode="&#x2011;" horiz-adv-x="376" 
d="M40 221v144h296v-144h-296z" />
    </font>
</defs>
</svg>
